<?xml version="1.0" encoding="UTF-8" standalone="no"?>
<!-- Generator: Adobe Illustrator 9.0, SVG Export Plug-In  -->
<svg
   xmlns:dc="http://purl.org/dc/elements/1.1/"
   xmlns:cc="http://creativecommons.org/ns#"
   xmlns:rdf="http://www.w3.org/1999/02/22-rdf-syntax-ns#"
   xmlns:svg="http://www.w3.org/2000/svg"
   xmlns="http://www.w3.org/2000/svg"
   xmlns:sodipodi="http://sodipodi.sourceforge.net/DTD/sodipodi-0.dtd"
   xmlns:inkscape="http://www.inkscape.org/namespaces/inkscape"
   width="48"
   height="48"
   viewBox="0 0 48 48"
   xml:space="preserve"
   id="svg2"
   sodipodi:version="0.32"
   inkscape:version="0.46"
   sodipodi:docname="input-tablet.svg"
   sodipodi:docbase="/home/qwerty/.icons/MonoIce/scalable/apps"
   inkscape:output_extension="org.inkscape.output.svg.inkscape"
   version="1.0"><metadata
   id="metadata32"><rdf:RDF><cc:Work
       rdf:about=""><dc:format>image/svg+xml</dc:format><dc:type
         rdf:resource="http://purl.org/dc/dcmitype/StillImage" /></cc:Work></rdf:RDF></metadata><defs
   id="defs30"><inkscape:perspective
     sodipodi:type="inkscape:persp3d"
     inkscape:vp_x="0 : 24 : 1"
     inkscape:vp_y="0 : 1000 : 0"
     inkscape:vp_z="48 : 24 : 1"
     inkscape:persp3d-origin="24 : 16 : 1"
     id="perspective9" /></defs><sodipodi:namedview
   inkscape:window-height="1001"
   inkscape:window-width="1680"
   inkscape:pageshadow="2"
   inkscape:pageopacity="0.0"
   guidetolerance="10000"
   gridtolerance="10000"
   objecttolerance="10000"
   borderopacity="1.0"
   bordercolor="#666666"
   pagecolor="#f0f0f0"
   id="base"
   showgrid="true"
   inkscape:zoom="4.796541"
   inkscape:cx="55.254078"
   inkscape:cy="14.447973"
   inkscape:window-x="0"
   inkscape:window-y="24"
   inkscape:current-layer="svg2"
   width="48px"
   height="48px" />
	
	
	
<path
   sodipodi:type="inkscape:offset"
   inkscape:radius="6.5829329"
   inkscape:original="M 34.625 0.0625 C 33.978202 0.062499999 33.337112 0.3032078 32.84375 0.78125 L 6.15625 26.84375 C 5.8934624 27.1212 5.7021523 27.450958 5.59375 27.8125 L 0.125 44.75 C -0.098092806 45.437605 0.00742771 46.17271 0.40625 46.78125 C 0.80507228 47.389794 1.4499977 47.808945 2.1875 47.90625 C 2.6146969 47.949756 3.0422872 47.881709 3.4375 47.71875 L 18.9375 41.90625 C 19.243805 41.778023 19.518236 41.576235 19.75 41.34375 L 47.28125 14.75 C 48.268609 13.79453 48.26861 12.236721 47.28125 11.28125 L 36.4375 0.78125 C 35.944138 0.3032078 35.271798 0.062500001 34.625 0.0625 z "
   style="fill:#f0f0f0;fill-opacity:1;fill-rule:nonzero;stroke:none;stroke-width:2.51800727999999996;stroke-linejoin:round;stroke-miterlimit:4;stroke-opacity:1"
   id="path2384"
   d="M 34.625,-6.53125 C 32.344963,-6.53125 29.996991,-5.6302435 28.25,-3.9375 L 1.5625,22.125 C 1.4987476,22.186235 1.4362349,22.248748 1.375,22.3125 C 0.41832335,23.322555 -0.31467016,24.558568 -0.71875,25.90625 L -6.125,42.71875 C -6.9611829,45.295989 -6.5330219,48.178898 -5.09375,50.375 C -3.6711424,52.545689 -1.3620811,54.08462 1.3125,54.4375 C 1.3852367,54.44914 1.4581636,54.459558 1.53125,54.46875 C 3.0872434,54.627213 4.5923703,54.36714 5.9375,53.8125 L 21.25,48.0625 C 21.323476,48.032571 21.396404,48.001316 21.46875,47.96875 C 22.75234,47.431407 23.684731,46.723763 24.40625,46 L 51.84375,19.5 C 55.400665,16.057964 55.400666,10.004538 51.84375,6.5625 L 41.03125,-3.9375 C 39.184491,-5.7269139 36.905037,-6.53125 34.625,-6.53125 z"
   transform="matrix(0.7745971,0,0,0.7745971,5.4053898,5.4077954)" /><path
   style="fill:#373b41;fill-opacity:1;fill-rule:nonzero;stroke:none;stroke-width:2.51800728;stroke-linejoin:round;stroke-miterlimit:4;stroke-opacity:1"
   d="M 32.225815,5.4562077 C 31.724807,5.4562077 31.228221,5.6426592 30.846064,6.0129494 L 10.174003,26.200887 C 9.9704488,26.415799 9.8222606,26.671229 9.7382924,26.951278 L 5.5022144,40.071017 C 5.3294074,40.603634 5.4111432,41.173044 5.7200698,41.644417 C 6.0289964,42.115794 6.5285538,42.440467 7.099821,42.515839 C 7.4307265,42.549539 7.7619367,42.49683 8.0680674,42.370602 L 20.074323,37.868256 C 20.311586,37.768932 20.524159,37.612628 20.703683,37.432545 L 42.02931,16.833103 C 42.794116,16.092999 42.794116,14.886324 42.02931,14.146219 L 33.629773,6.0129494 C 33.247616,5.6426592 32.726823,5.4562077 32.225815,5.4562077 z M 11.408517,27.8227 L 15.620389,28.282617 L 19.348138,31.889335 L 19.808055,35.496053 L 12.037878,38.812296 L 8.9394892,35.641289 L 11.408517,27.8227 z"
   id="path16" /><g
   id="Layer_x0020_4"
   style="fill:#f0f0f0;fill-opacity:1;fill-rule:nonzero;stroke:none;stroke-width:0.50648838;stroke-miterlimit:4"
   transform="matrix(1.55416,0,0,-1.5049324,-19.510845,61.233762)">
		
		
		
		<path
   style="fill:#f0f0f0;fill-opacity:1;stroke:none;stroke-width:0.6295144"
   d="M 22.6,21.9 L 25,19.5"
   id="path22"
   sodipodi:nodetypes="cc" />
		
	</g></svg>