<?xml version="1.0" encoding="UTF-8" standalone="no"?>
<!-- Created with Inkscape (http://www.inkscape.org/) -->
<svg
   xmlns:dc="http://purl.org/dc/elements/1.1/"
   xmlns:cc="http://creativecommons.org/ns#"
   xmlns:rdf="http://www.w3.org/1999/02/22-rdf-syntax-ns#"
   xmlns:svg="http://www.w3.org/2000/svg"
   xmlns="http://www.w3.org/2000/svg"
   xmlns:sodipodi="http://sodipodi.sourceforge.net/DTD/sodipodi-0.dtd"
   xmlns:inkscape="http://www.inkscape.org/namespaces/inkscape"
   id="svg2"
   sodipodi:version="0.32"
   inkscape:version="0.46"
   width="128"
   height="128"
   version="1.0"
   sodipodi:docname="phone.svg"
   style="display:inline;enable-background:new"
   inkscape:output_extension="org.inkscape.output.svg.inkscape">
  <metadata
     id="metadata7">
    <rdf:RDF>
      <cc:Work
         rdf:about="">
        <dc:format>image/svg+xml</dc:format>
        <dc:type
           rdf:resource="http://purl.org/dc/dcmitype/StillImage" />
      </cc:Work>
    </rdf:RDF>
  </metadata>
  <defs
     id="defs5">
    <inkscape:perspective
       sodipodi:type="inkscape:persp3d"
       inkscape:vp_x="0 : 526.18109 : 1"
       inkscape:vp_y="0 : 1000 : 0"
       inkscape:vp_z="744.09448 : 526.18109 : 1"
       inkscape:persp3d-origin="372.04724 : 350.78739 : 1"
       id="perspective9" />
  </defs>
  <sodipodi:namedview
     inkscape:window-height="1000"
     inkscape:window-width="1680"
     inkscape:pageshadow="2"
     inkscape:pageopacity="0.0"
     guidetolerance="10.0"
     gridtolerance="10.0"
     objecttolerance="10.0"
     borderopacity="1.0"
     bordercolor="#666666"
     pagecolor="#f0f0f0"
     id="base"
     showgrid="false"
     showguides="true"
     inkscape:guide-bbox="true"
     inkscape:zoom="5.5021746"
     inkscape:cx="12.25173"
     inkscape:cy="57.26884"
     inkscape:window-x="0"
     inkscape:window-y="25"
     inkscape:current-layer="svg2" />
  <path
     sodipodi:type="inkscape:offset"
     inkscape:radius="5.4132748"
     inkscape:original="M 47.375 4.09375 C 40.34007 4.09375 40.593749 10.875 40.59375 10.875 C 40.59375 10.875 40.480317 113.47205 40.59375 116.875 C 40.836334 124.15251 47.374999 123.90625 47.375 123.90625 C 47.375 123.90625 79.642637 124.09853 85.21875 123.90625 C 92.253679 123.66367 91.781254 116.875 91.78125 116.875 C 91.78125 116.875 92.005715 16.935439 91.78125 10.875 C 91.538666 4.3252379 85.218751 4.0937499 85.21875 4.09375 L 47.375 4.09375 z "
     style="display:inline;enable-background:new;opacity:1;fill:#f0f0f0;fill-opacity:1;fill-rule:evenodd;stroke:none;stroke-width:0.94380253999999997px;stroke-linecap:butt;stroke-linejoin:miter;stroke-opacity:1"
     id="path3311"
     d="M 47.375,-1.3125 C 42.118178,-1.3125 37.943828,2.0601928 36.46875,5.125 C 34.993672,8.189808 35.1875,11.0625 35.1875,11.0625 C 35.1875,11.0625 35.13918,36.517124 35.125,62.59375 C 35.11791,75.632063 35.119681,88.774246 35.125,98.875 C 35.12766,103.92538 35.148479,108.20607 35.15625,111.34375 C 35.164021,114.48143 35.157733,116.16952 35.1875,117.0625 C 35.362811,122.32182 38.588723,126.39086 41.625,127.9375 C 44.661277,129.48414 47.59375,129.3125 47.59375,129.3125 C 47.59375,129.3125 78.987074,129.53385 85.40625,129.3125 C 90.666045,129.13113 94.721579,125.58255 96.09375,122.46875 C 97.324016,119.67697 97.221301,117.38198 97.1875,116.875 C 97.183601,116.81652 97.1875,116.5 97.1875,116.5 C 97.188319,116.13455 97.253395,91.712383 97.28125,66.15625 C 97.295281,53.283003 97.291779,40.228806 97.28125,30 C 97.270721,19.771194 97.265219,12.78587 97.1875,10.6875 C 97.001942,5.6774492 93.828384,1.8209235 91,0.28125 C 88.171616,-1.2584238 85.40625,-1.3125 85.40625,-1.3125 C 85.343755,-1.3135824 85.281245,-1.3135824 85.21875,-1.3125 L 47.375,-1.3125 z"
     transform="matrix(0.9724734,0,0,0.9724734,1.8224106,1.7630459)" />
  <path
     style="display:inline;enable-background:new;opacity:1;fill:#424242;fill-opacity:1;fill-rule:evenodd;stroke:none;stroke-width:0.25702809999999998;stroke-linecap:butt;stroke-linejoin:miter;stroke-miterlimit:4;stroke-dasharray:none;stroke-opacity:1"
     d="M 45.653924,79.90578 L 45.653924,72.912865 L 53.268546,72.82946 L 60.716353,72.82946 L 60.477128,73.088992 C 60.154065,73.439471 60.00825,74.161651 59.933442,74.643798 C 59.891655,74.913115 59.876443,76.742635 59.887916,80.118758 L 59.905148,85.522865 L 60.045545,85.871231 C 60.129006,86.078327 60.289812,86.323468 60.442084,86.47574 L 60.698229,86.731884 L 53.259482,86.731884 L 45.653924,86.81529 L 45.653924,79.90578 z"
     id="path3233"
     sodipodi:nodetypes="cccccscccccccc" />
  <path
     style="display:inline;enable-background:new;opacity:1;fill:#424242;fill-opacity:1;fill-rule:evenodd;stroke:none;stroke-width:0.25702809999999998;stroke-linecap:butt;stroke-linejoin:miter;stroke-miterlimit:4;stroke-dasharray:none;stroke-opacity:1"
     d="M 71.852814,86.65312 C 71.986544,86.518052 72.15655,86.285831 72.2306,86.137074 L 72.365249,85.866605 L 72.365249,79.90578 L 72.615467,73.944955 L 72.484013,73.660128 C 72.411709,73.503473 72.270146,73.271253 72.169426,73.144084 L 71.986299,72.912865 L 79.537454,72.82946 L 87.338824,72.912865 L 87.123739,76.175512 C 87.14306,77.740603 87.256703,80.616347 87.190942,82.751399 L 87.223009,86.898695 L 79.291232,86.81529 L 71.609666,86.898695 L 71.852814,86.65312 z"
     id="path3235"
     sodipodi:nodetypes="cccccccccccccccc" />
  <path
     style="display:inline;enable-background:new;opacity:1;fill:none;fill-rule:evenodd;stroke:#373b41;stroke-width:1;stroke-linecap:butt;stroke-linejoin:miter;stroke-opacity:1;stroke-miterlimit:4;stroke-dasharray:none"
     d="M 45.544938,72.774559 L 87.064442,72.774559"
     id="path3245"
     sodipodi:nodetypes="cc" />
  <path
     style="opacity:1;fill:#22ad93;fill-opacity:1;fill-rule:evenodd;stroke:none;stroke-width:4;stroke-linecap:butt;stroke-linejoin:miter;stroke-miterlimit:4;stroke-dasharray:none;stroke-opacity:1;display:inline;enable-background:new"
     d="M 48.409669,42.536222 L 48.463686,16.7643 L 48.969314,15.774637 C 49.957298,13.840826 48.68345,13.975354 66.006709,13.975354 C 78.894614,13.975354 81.317236,14.02125 81.807327,14.274685 C 82.6487,14.70977 83.631607,15.911537 83.881207,16.810301 C 84.026977,17.33522 84.098291,25.891417 84.099055,42.9494 L 84.100212,68.308145 L 66.227933,68.308145 L 48.355637,68.308145 L 48.409669,42.536222 z"
     id="path3265" />
  <path
     sodipodi:nodetypes="ccccccccc"
     id="path3267"
     d="M 62.388265,9.5528547 L 70.352608,9.5528547 C 70.352608,9.5528547 72.680648,9.5791663 72.558119,9.9738409 L 72.558119,12.157706 C 72.680648,12.55238 70.475137,12.499758 70.475137,12.499758 L 61.775624,12.499758 C 61.775624,12.499758 59.815171,12.55238 59.815171,12.157706 L 59.815171,9.9738409 C 59.815171,9.5791663 62.388265,9.5528547 62.388265,9.5528547 z"
     style="display:inline;enable-background:new;opacity:1;fill:#373b41;fill-opacity:1;fill-rule:evenodd;stroke:none;stroke-width:0.45432207000000002px;stroke-linecap:butt;stroke-linejoin:miter;stroke-opacity:1" />
  <path
     id="path3237"
     style="display:inline;enable-background:new;opacity:1;fill:#cc6666;fill-opacity:1;fill-rule:evenodd;stroke:#373b41;stroke-width:1;stroke-linecap:butt;stroke-linejoin:miter;stroke-opacity:1;stroke-miterlimit:4;stroke-dasharray:none"
     d="M 47.904002,5.7349685 L 84.705379,5.7349685 C 84.705379,5.7349685 90.838942,5.9708749 91.074849,12.340344 C 91.293131,18.23396 91.074849,115.43138 91.074849,115.43138 C 91.074849,115.43138 91.546661,122.03677 84.705379,122.27267 C 79.282757,122.45966 47.904002,122.27267 47.904002,122.27267 C 47.904002,122.27267 41.534531,122.50856 41.298625,115.43138 C 41.188315,112.1221 41.298625,12.340344 41.298625,12.340344 C 41.298625,12.340344 41.062719,5.7349685 47.904002,5.7349685 z M 49.010734,9.5048613 C 47.011911,9.8501721 45.709489,11.484224 45.243448,13.997528 C 45.244849,46.587201 45.357816,112.32616 45.303857,112.3579 C 45.358087,116.55415 46.23517,118.61193 49.194449,118.65161 C 59.528994,118.59722 74.011269,118.76935 83.921078,118.65161 C 86.888323,118.59933 87.277739,116.10974 87.200261,112.3579 C 87.211661,112.429 87.437302,46.183357 87.137973,13.997528 C 86.72076,11.144484 84.506919,9.5337451 82.424053,9.4458848 C 71.305938,9.4458848 60.128847,9.5048613 49.010734,9.5048613 z M 45.368009,94.671635 L 87.064442,94.671635 M 45.309032,102.51552 L 87.064442,102.51552 M 45.544938,110.18247 L 87.064442,110.18247 M 45.544938,86.886725 L 87.064442,86.886725" />
  <path
     style="display:inline;enable-background:new;opacity:1;fill:#272727;fill-opacity:1;fill-rule:evenodd;stroke:#fdfdfd;stroke-width:1;stroke-linecap:butt;stroke-linejoin:miter;stroke-opacity:1;stroke-miterlimit:4;stroke-dasharray:none"
     d="M 62.530189,73.028967 L 70.197143,73.028967 C 70.197143,73.028967 72.438253,73.14692 72.320299,74.916218 L 72.320299,84.706327 C 72.438253,86.475624 70.315096,86.239719 70.315096,86.239719 L 61.940424,86.239719 C 61.940424,86.239719 60.053174,86.475624 60.053174,84.706327 L 60.053174,74.916218 C 60.053174,73.14692 62.530189,73.028967 62.530189,73.028967 z"
     id="path3249"
     sodipodi:nodetypes="ccccccccc" />
</svg>
