<?xml version="1.0" encoding="UTF-8" standalone="no"?>
<!-- Created with Inkscape (http://www.inkscape.org/) -->
<svg
   xmlns:dc="http://purl.org/dc/elements/1.1/"
   xmlns:cc="http://web.resource.org/cc/"
   xmlns:rdf="http://www.w3.org/1999/02/22-rdf-syntax-ns#"
   xmlns:svg="http://www.w3.org/2000/svg"
   xmlns="http://www.w3.org/2000/svg"
   xmlns:sodipodi="http://sodipodi.sourceforge.net/DTD/sodipodi-0.dtd"
   xmlns:inkscape="http://www.inkscape.org/namespaces/inkscape"
   width="128"
   height="128"
   id="svg2"
   sodipodi:version="0.32"
   inkscape:version="0.45.1"
   version="1.0"
   sodipodi:docbase="/home/christof/themes_and_icons/meinICONtheme/BRIT ICONS/scalable/places"
   sodipodi:docname="emptytrash.svg"
   inkscape:output_extension="org.inkscape.output.svg.inkscape">
  <defs
     id="defs4" />
  <sodipodi:namedview
     id="base"
     pagecolor="#f0f0f0"
     bordercolor="#373b41"
     borderopacity="1"
     inkscape:pageopacity="0.0"
     inkscape:pageshadow="2"
     inkscape:zoom="3.959798"
     inkscape:cx="114.52841"
     inkscape:cy="58.552067"
     inkscape:document-units="px"
     inkscape:current-layer="layer1"
     width="128px"
     height="128px"
     showgrid="true"
     inkscape:window-width="1680"
     inkscape:window-height="1003"
     inkscape:window-x="0"
     inkscape:window-y="47" />
  <metadata
     id="metadata7">
    <rdf:RDF>
      <cc:Work
         rdf:about="">
        <dc:format>image/svg+xml</dc:format>
        <dc:type
           rdf:resource="http://purl.org/dc/dcmitype/StillImage" />
      </cc:Work>
    </rdf:RDF>
  </metadata>
  <g
     inkscape:label="Ebene 1"
     inkscape:groupmode="layer"
     id="layer1">
    <path
       style="fill:#f0f0f0;fill-opacity:1"
       d="M 25.618545,119.51444 C 22.273382,118.48441 18.18483,115.90613 15.262688,112.98401 C 6.8775729,104.59889 6.6547651,103.01721 6.6547651,51.877895 L 6.6547651,6.6924011 L 22.566273,6.6924011 C 42.279834,6.6924011 48.633634,8.3328353 55.494716,15.193918 C 58.1922,17.891399 61.025688,22.189383 61.791367,24.744994 C 62.557057,27.300604 63.550934,29.391559 63.999995,29.391559 C 64.449069,29.391559 65.442946,27.300604 66.208623,24.744994 C 66.974302,22.189383 69.807801,17.891399 72.505286,15.193918 C 79.366358,8.3328353 85.720172,6.6924011 105.43372,6.6924011 L 121.34524,6.6924011 L 121.34524,51.877895 C 121.34524,103.00317 121.12047,104.60084 112.7506,112.97072 C 104.99816,120.72315 101.01681,121.39624 63.484485,121.29967 C 39.07776,121.23685 29.790232,120.79898 25.618545,119.51444 z M 94.757974,106.40366 C 100.43312,104.03243 103.14706,101.51823 105.94136,96.043256 C 108.01267,91.984887 108.20362,88.581519 108.20362,55.722387 L 108.20362,19.83402 L 94.717796,19.83402 C 83.105542,19.83402 80.492748,20.207467 75.911031,22.522078 C 71.321906,24.840432 67.140221,29.309125 64.677815,34.52627 C 64.149976,35.644605 63.850025,35.644605 63.322186,34.52627 C 60.859782,29.309125 56.678083,24.840432 52.088959,22.522078 C 47.507253,20.207467 44.894454,19.83402 33.282199,19.83402 L 19.796379,19.83402 L 19.796379,55.722387 C 19.796379,88.581519 19.987339,91.984887 22.058637,96.043256 C 24.804601,101.4235 27.513328,103.98117 32.97355,106.3495 C 39.086719,109.00103 88.438039,109.04429 94.757974,106.40366 z "
       id="path3340" />
    <path
       style="fill:#373b41;fill-opacity:1"
       d="M 31.873357,110.46756 C 29.073337,109.60538 25.651074,107.44728 23.205137,105.00135 C 16.186498,97.982713 16,96.658793 16,53.853367 L 16,16.031506 L 29.318497,16.031506 C 45.819447,16.031506 51.137807,17.404608 56.880777,23.147576 C 59.138667,25.405464 61.510397,29.003029 62.151297,31.142166 C 62.792207,33.281303 63.624117,35.031506 63.999997,35.031506 C 64.375887,35.031506 65.207797,33.281303 65.848697,31.142166 C 66.489597,29.003029 68.861337,25.405464 71.119227,23.147576 C 76.862187,17.404608 82.180557,16.031506 98.681497,16.031506 L 112,16.031506 L 112,53.853367 C 112,96.647033 111.81186,97.984343 104.80598,104.99023 C 98.316917,111.47929 94.984387,112.04269 63.568497,111.96185 C 43.139197,111.90928 35.365207,111.54277 31.873357,110.46756 z M 89.745517,99.493363 C 94.495817,97.508563 96.767477,95.404083 99.106407,90.821343 C 100.84017,87.424343 101,84.575603 101,57.071344 L 101,27.031506 L 89.711887,27.031506 C 79.992017,27.031506 77.805017,27.344095 73.969957,29.281506 C 70.128697,31.222051 66.628477,34.962506 64.567357,39.329441 C 64.125537,40.265528 63.874467,40.265528 63.432647,39.329441 C 61.371527,34.962506 57.871297,31.222051 54.030037,29.281506 C 50.194987,27.344095 48.007977,27.031506 38.288107,27.031506 L 26.999997,27.031506 L 26.999997,57.071344 C 26.999997,84.575603 27.159837,87.424343 28.893587,90.821343 C 31.192057,95.324793 33.459357,97.465663 38.029757,99.448033 C 43.146697,101.66746 84.455507,101.70367 89.745517,99.493363 z "
       id="path4009" />
    <path
       style="fill:#22ad93;fill-opacity:1;stroke:none;stroke-opacity:1"
       d="M 41.683247,96.278669 C 39.738215,95.679756 37.360942,94.180633 35.661873,92.48157 C 30.78638,87.606075 30.65683,86.686414 30.65683,56.951653 L 30.65683,30.678722 L 39.908515,30.678722 C 51.370889,30.678722 55.065284,31.632547 59.054635,35.621896 C 60.623077,37.190336 62.270597,39.689382 62.715798,41.175332 C 63.161006,42.661282 63.738891,43.87706 63.999996,43.87706 C 64.261108,43.87706 64.838994,42.661282 65.284194,41.175332 C 65.729395,39.689382 67.376923,37.190336 68.945363,35.621896 C 72.934706,31.632547 76.629108,30.678722 88.091475,30.678722 L 97.343168,30.678722 L 97.343168,56.951653 C 97.343168,86.678245 97.212477,87.607207 92.345847,92.473845 C 87.83822,96.981466 85.52328,97.372832 63.700255,97.316676 C 49.509055,97.280159 44.108858,97.025563 41.683247,96.278669 z M 81.884103,88.655447 C 85.183896,87.276707 86.761903,85.814831 88.386639,82.631434 C 89.591,80.27171 89.702025,78.292834 89.702025,59.187019 L 89.702025,38.319865 L 81.860742,38.319865 C 75.10884,38.319865 73.589642,38.537005 70.92562,39.882826 C 68.257292,41.230824 65.825868,43.829129 64.394112,46.862618 C 64.087203,47.51287 63.912797,47.51287 63.605887,46.862618 C 62.174131,43.829129 59.742699,41.230824 57.07437,39.882826 C 54.410355,38.537005 52.89115,38.319865 46.139249,38.319865 L 38.29797,38.319865 L 38.29797,59.187019 C 38.29797,78.292834 38.409003,80.27171 39.613352,82.631434 C 41.209982,85.759752 42.784961,87.246906 45.959786,88.623958 C 49.514265,90.165685 78.209401,90.190838 81.884103,88.655447 z "
       id="path3716" />
  </g>
</svg>
