<?xml version="1.0" encoding="UTF-8" standalone="no"?>
<!-- Created with Inkscape (http://www.inkscape.org/) -->
<svg
   xmlns:dc="http://purl.org/dc/elements/1.1/"
   xmlns:cc="http://web.resource.org/cc/"
   xmlns:rdf="http://www.w3.org/1999/02/22-rdf-syntax-ns#"
   xmlns:svg="http://www.w3.org/2000/svg"
   xmlns="http://www.w3.org/2000/svg"
   xmlns:sodipodi="http://sodipodi.sourceforge.net/DTD/sodipodi-0.dtd"
   xmlns:inkscape="http://www.inkscape.org/namespaces/inkscape"
   id="svg2"
   sodipodi:version="0.32"
   inkscape:version="0.45.1"
   width="48"
   height="48"
   version="1.0"
   sodipodi:docbase="/home/qwerty/.icons/MonoIce/scalable/status"
   sodipodi:docname="gnome-netstatus-disconn.svg"
   inkscape:output_extension="org.inkscape.output.svg.inkscape">
  <metadata
     id="metadata7">
    <rdf:RDF>
      <cc:Work
         rdf:about="">
        <dc:format>image/svg+xml</dc:format>
        <dc:type
           rdf:resource="http://purl.org/dc/dcmitype/StillImage" />
      </cc:Work>
    </rdf:RDF>
  </metadata>
  <defs
     id="defs5">
    <linearGradient
       id="linearGradient4447">
      <stop
         id="stop4449"
         offset="0"
         style="stop-color:#c00;stop-opacity:1;" />
      <stop
         id="stop4451"
         offset="1"
         style="stop-color:#ad0000;stop-opacity:1;" />
    </linearGradient>
  </defs>
  <sodipodi:namedview
     inkscape:window-height="622"
     inkscape:window-width="776"
     inkscape:pageshadow="2"
     inkscape:pageopacity="0.48627451"
     guidetolerance="10000"
     gridtolerance="10.0"
     objecttolerance="10000"
     borderopacity="1.0"
     bordercolor="#666666"
     pagecolor="#aa2727"
     id="base"
     showgrid="true"
     inkscape:zoom="5.6568544"
     inkscape:cx="6.2171111"
     inkscape:cy="25.307008"
     inkscape:window-x="0"
     inkscape:window-y="42"
     inkscape:current-layer="svg2" />
  <path
     style="opacity:1;color:#373b41;fill:#22ad93;fill-opacity:1;fill-rule:nonzero;stroke:none;stroke-width:2.96536064;stroke-linecap:butt;stroke-linejoin:miter;marker:none;stroke-miterlimit:4;stroke-dasharray:none;stroke-dashoffset:0;stroke-opacity:1;visibility:visible;display:inline;overflow:visible"
     d="M 24.0625 8.125 C 15.116717 8.1249996 7.84375 15.401543 7.84375 24.34375 C 7.8437499 33.285957 15.116717 40.53125 24.0625 40.53125 C 33.00828 40.531251 40.28125 33.285957 40.28125 24.34375 C 40.28125 15.401543 33.008281 8.125 24.0625 8.125 z M 18.40625 16.78125 L 23.90625 22.28125 L 29.40625 16.78125 L 31.3125 18.6875 L 25.8125 24.1875 L 31.3125 29.65625 L 29.40625 31.59375 L 23.90625 26.09375 L 18.40625 31.59375 L 16.5 29.65625 L 22 24.1875 L 16.5 18.6875 L 18.40625 16.78125 z "
     id="path4445" />
  <path
     style="opacity:1;color:#373b41;fill:#373b41;fill-opacity:1;fill-rule:nonzero;stroke:none;stroke-width:2;stroke-linecap:round;stroke-linejoin:round;marker:none;marker-start:none;marker-mid:none;marker-end:none;stroke-miterlimit:4;stroke-dasharray:none;stroke-dashoffset:0;stroke-opacity:1;visibility:visible;display:inline;overflow:visible;enable-background:accumulate"
     d="M 4.65625 0 C 2.0801499 0 0 2.0801499 0 4.65625 L 0 26.5625 C 0 29.1386 2.0801499 31.1875 4.65625 31.1875 L 9.40625 31.1875 C 8.8713588 30.049677 8.4153769 28.856515 8.15625 27.59375 L 6.3125 27.59375 C 4.8166997 27.59375 3.59375 26.40205 3.59375 24.90625 L 3.59375 6.3125 C 3.59375 4.8166997 4.8167 3.59375 6.3125 3.59375 L 27.3125 3.59375 C 28.8083 3.59375 30 4.8167 30 6.3125 L 30 9.25 C 31.28635 9.758127 32.492113 10.415577 33.59375 11.21875 L 33.59375 4.65625 C 33.59375 2.0801499 31.5136 2.7755576e-17 28.9375 0 L 4.65625 0 z "
     id="rect2161" />
  <path
     style="opacity:1;color:#373b41;fill:#373b41;fill-opacity:1;fill-rule:nonzero;stroke:none;stroke-width:2;stroke-linecap:round;stroke-linejoin:round;marker:none;marker-start:none;marker-mid:none;marker-end:none;stroke-miterlimit:4;stroke-dasharray:none;stroke-dashoffset:0;stroke-opacity:1;visibility:visible;display:inline;overflow:visible;enable-background:accumulate"
     d="M 7.1875 7.1875 L 7.1875 24 L 7.875 24 C 8.0607362 15.217771 15.232984 8.1249996 24.0625 8.125 C 24.86204 8.125 25.63739 8.1690549 26.40625 8.28125 L 26.40625 7.1875 L 7.1875 7.1875 z "
     id="rect5077" />
  <path
     style="opacity:1;color:#373b41;fill:#373b41;fill-opacity:1;fill-rule:nonzero;stroke:none;stroke-width:2;stroke-linecap:round;stroke-linejoin:round;marker:none;marker-start:none;marker-mid:none;marker-end:none;stroke-miterlimit:4;stroke-dasharray:none;stroke-dashoffset:0;stroke-opacity:1;visibility:visible;display:inline;overflow:visible;enable-background:accumulate"
     d="M 38.40625 16.8125 C 38.99876 17.940056 39.497588 19.142636 39.8125 20.40625 L 41.6875 20.40625 C 43.183299 20.40625 44.40625 21.59795 44.40625 23.09375 L 44.40625 41.6875 C 44.406248 43.183299 43.1833 44.40625 41.6875 44.40625 L 20.6875 44.40625 C 19.191699 44.406248 18 43.1833 18 41.6875 L 18 39.375 C 16.709111 38.853229 15.507958 38.16323 14.40625 37.34375 L 14.40625 43.34375 C 14.40625 45.91985 16.4864 48 19.0625 48 L 43.34375 48 C 45.91985 48 47.999998 45.919851 48 43.34375 L 48 21.4375 C 48 18.8614 45.91985 16.8125 43.34375 16.8125 L 38.40625 16.8125 z "
     id="rect5081" />
  <path
     style="opacity:1;color:#373b41;fill:#373b41;fill-opacity:1;fill-rule:nonzero;stroke:none;stroke-width:2;stroke-linecap:round;stroke-linejoin:round;marker:none;marker-start:none;marker-mid:none;marker-end:none;stroke-miterlimit:4;stroke-dasharray:none;stroke-dashoffset:0;stroke-opacity:1;visibility:visible;display:inline;overflow:visible;enable-background:accumulate"
     d="M 40.25 24 C 40.252446 24.115644 40.28125 24.22753 40.28125 24.34375 C 40.28125 33.285957 33.00828 40.531251 24.0625 40.53125 C 23.218483 40.53125 22.403331 40.468527 21.59375 40.34375 L 21.59375 40.8125 L 40.8125 40.8125 L 40.8125 24 L 40.25 24 z "
     id="rect5085" />
  <g
     style="fill:#22ad93;fill-opacity:1;stroke:none;stroke-opacity:1"
     transform="matrix(1.8800004,0,0,1.8800004,-8.2938478,-28.638736)"
     id="g7435" />
</svg>
