<?xml version="1.0" encoding="UTF-8" standalone="no"?>
<!-- Created with Inkscape (http://www.inkscape.org/) -->
<svg
   xmlns:dc="http://purl.org/dc/elements/1.1/"
   xmlns:cc="http://creativecommons.org/ns#"
   xmlns:rdf="http://www.w3.org/1999/02/22-rdf-syntax-ns#"
   xmlns:svg="http://www.w3.org/2000/svg"
   xmlns="http://www.w3.org/2000/svg"
   xmlns:sodipodi="http://sodipodi.sourceforge.net/DTD/sodipodi-0.dtd"
   xmlns:inkscape="http://www.inkscape.org/namespaces/inkscape"
   id="svg2"
   sodipodi:version="0.32"
   inkscape:version="0.46"
   width="48"
   height="48"
   version="1.0"
   sodipodi:docbase="/home/qwerty/.icons/MonoIce/scalable/status"
   sodipodi:docname="network-idle.svg"
   inkscape:output_extension="org.inkscape.output.svg.inkscape">
  <metadata
     id="metadata7">
    <rdf:RDF>
      <cc:Work
         rdf:about="">
        <dc:format>image/svg+xml</dc:format>
        <dc:type
           rdf:resource="http://purl.org/dc/dcmitype/StillImage" />
      </cc:Work>
    </rdf:RDF>
  </metadata>
  <defs
     id="defs5">
    <inkscape:perspective
       sodipodi:type="inkscape:persp3d"
       inkscape:vp_x="0 : 24 : 1"
       inkscape:vp_y="0 : 1000 : 0"
       inkscape:vp_z="48 : 24 : 1"
       inkscape:persp3d-origin="24 : 16 : 1"
       id="perspective10" />
  </defs>
  <sodipodi:namedview
     inkscape:window-height="1000"
     inkscape:window-width="1680"
     inkscape:pageshadow="2"
     inkscape:pageopacity="0.48627451"
     guidetolerance="10000"
     gridtolerance="10.0"
     objecttolerance="10000"
     borderopacity="1.0"
     bordercolor="#666666"
     pagecolor="#aa2727"
     id="base"
     showgrid="true"
     inkscape:zoom="8"
     inkscape:cx="30.746532"
     inkscape:cy="24"
     inkscape:window-x="0"
     inkscape:window-y="25"
     inkscape:current-layer="svg2" />
  <path
     style="opacity:1;fill:#f0f0f0;fill-opacity:1;fill-rule:nonzero;stroke:none;stroke-width:2;stroke-linecap:round;stroke-linejoin:round;marker:none;marker-start:none;marker-mid:none;marker-end:none;stroke-miterlimit:4;stroke-dasharray:none;stroke-dashoffset:0;stroke-opacity:1;visibility:visible;display:inline;overflow:visible;enable-background:accumulate"
     d="M 40.959678,14.977395 C 38.092448,15.037733 35.221965,14.98882 32.353401,15.00463 C 32.353401,15.912465 32.353401,16.8203 32.353401,17.728135 C 20.201752,17.65692 15.631078,20.942125 15.631078,30.25626 C 14.723243,30.25626 13.815408,30.25626 12.907573,30.25626 C 12.942899,34.133966 12.819179,38.019288 12.967613,41.892159 C 13.466712,45.423728 17.069617,48.079441 20.588164,47.63197 C 27.575466,47.614317 34.564346,47.679018 41.550657,47.612031 C 45.219713,47.308167 48.089976,43.608636 47.632011,39.983976 C 47.592408,33.57716 47.724101,27.163537 47.577438,20.761009 C 47.135446,17.58135 44.146166,15.036713 40.959678,14.977395 z M 18.218408,20.206525 C 26.252749,20.206525 34.28709,20.206525 42.321431,20.206525 C 42.33262,27.578255 42.419183,34.949659 42.430371,42.321389 C 34.39603,42.321389 26.361689,42.321389 18.327348,42.321389 C 18.31616,34.949667 18.229597,27.578247 18.218408,20.206525 z"
     id="path3183"
     sodipodi:nodetypes="cccccccccccccccc" />
  <path
     style="opacity:1;fill:#f0f0f0;fill-opacity:1;fill-rule:nonzero;stroke:none;stroke-width:2;stroke-linecap:round;stroke-linejoin:round;marker:none;marker-start:none;marker-mid:none;marker-end:none;stroke-miterlimit:4;stroke-dasharray:none;stroke-dashoffset:0;stroke-opacity:1;visibility:visible;display:inline;overflow:visible;enable-background:accumulate"
     d="M 7.1337411,0.24323036 C 3.1745064,0.12702488 -0.23189876,4.0191516 0.24353256,7.9202286 C 0.26169376,14.256659 0.19508684,20.594766 0.26424384,26.930142 C 0.58470961,30.749744 4.4950273,33.626064 8.2364303,33.083719 C 10.98612,33.030842 13.757546,33.233087 16.492997,32.966743 C 18.489865,32.384311 18.622589,30.060453 18.465812,28.343861 C 15.864599,27.930015 14.676604,27.920131 11.970667,27.757763 C 9.7952527,27.700592 7.6211905,27.592127 5.4451678,27.55999 C 5.4343843,20.333511 5.347011,13.107365 5.3362275,5.8808866 C 13.625147,5.9038069 21.912913,6.0758467 30.201832,6.098767 C 30.181887,10.278217 30.253319,14.465733 30.183496,18.639907 C 30.134062,19.408388 28.419942,20.988183 30.202742,20.549858 C 31.991718,20.693364 34.541802,20.689812 35.046016,18.494058 C 35.358359,16.555885 35.091653,14.569919 35.185026,12.610995 C 35.125276,10.219412 35.374992,7.7939966 34.991665,5.4268972 C 34.177416,2.1475578 30.744999,-0.16099066 27.401781,0.24323036 C 20.645768,0.24323036 13.889754,0.24323036 7.1337411,0.24323036 z"
     id="path3176"
     sodipodi:nodetypes="ccccccccccccccccc" />
  <path
     style="opacity:1;fill:#373b41;fill-opacity:1;fill-rule:nonzero;stroke:none;stroke-width:2;stroke-linecap:round;stroke-linejoin:round;marker:none;marker-start:none;marker-mid:none;marker-end:none;stroke-miterlimit:4;stroke-dasharray:none;stroke-dashoffset:0;stroke-opacity:1;visibility:visible;display:inline;overflow:visible;enable-background:accumulate"
     d="M 9.0401949,9.3942086 C 9.0401949,14.278362 9.0401949,19.162514 9.0401949,24.046668 C 11.237156,24.046668 13.434117,24.046668 15.631078,24.046668 C 15.64795,23.230261 15.596498,22.4082 15.658313,21.595513 C 14.387344,21.595513 13.116374,21.595513 11.845405,21.595513 C 11.845405,18.345463 11.845405,15.095414 11.845405,11.845363 C 15.558451,11.845363 19.271497,11.845363 22.984543,11.845363 C 22.984543,13.806287 22.984543,15.767211 22.984543,17.728135 C 23.919613,17.728135 24.854683,17.728135 25.789753,17.728135 C 25.789753,14.95016 25.789753,12.172184 25.789753,9.3942086 C 20.206567,9.3942086 14.623381,9.3942086 9.0401949,9.3942086 z"
     id="path3177"
     sodipodi:nodetypes="ccccccccccc" />
  <path
     style="opacity:1;fill:#373b41;fill-opacity:1;fill-rule:nonzero;stroke:none;stroke-width:2;stroke-linecap:round;stroke-linejoin:round;marker:none;marker-start:none;marker-mid:none;marker-end:none;stroke-miterlimit:4;stroke-dasharray:none;stroke-dashoffset:0;stroke-opacity:1;visibility:visible;display:inline;overflow:visible;enable-background:accumulate"
     d="M 21.89514,23.992198 L 21.89514,38.644657 L 38.644699,38.644657 L 38.644699,23.992198 L 21.89514,23.992198 z M 24.700351,26.443352 L 35.839488,26.443352 L 35.839488,36.193502 L 24.700351,36.193502 L 24.700351,26.443352 z"
     id="rect5085" />
  <path
     style="opacity:1;fill:#373b41;fill-opacity:1;fill-rule:nonzero;stroke:none;stroke-width:2;stroke-linecap:round;stroke-linejoin:round;marker:none;marker-start:none;marker-mid:none;marker-end:none;stroke-miterlimit:4;stroke-dasharray:none;stroke-dashoffset:0;stroke-opacity:1;visibility:visible;display:inline;overflow:visible;enable-background:accumulate"
     d="M 19.689101,17.728135 C 17.443974,17.728135 15.631078,19.513796 15.631078,21.758923 L 15.631078,40.850696 C 15.631078,43.095823 17.443974,44.908719 19.689101,44.908719 L 40.850738,44.908719 C 43.095865,44.908719 44.908759,43.095824 44.908761,40.850696 L 44.908761,21.758923 C 44.908761,19.513796 43.095865,17.728135 40.850738,17.728135 L 19.689101,17.728135 z M 21.105324,20.860166 L 39.40728,20.860166 C 40.710902,20.860166 41.77673,21.898759 41.77673,23.202381 L 41.77673,39.407238 C 41.776728,40.71086 40.710903,41.776688 39.40728,41.776688 L 21.105324,41.776688 C 19.801701,41.776686 18.763109,40.71086 18.763109,39.407238 L 18.763109,23.202381 C 18.763109,21.898758 19.801702,20.860166 21.105324,20.860166 z"
     id="rect5081" />
  <path
     style="opacity:1;fill:#373b41;fill-opacity:1;fill-rule:nonzero;stroke:none;stroke-width:2;stroke-linecap:round;stroke-linejoin:round;marker:none;marker-start:none;marker-mid:none;marker-end:none;stroke-miterlimit:4;stroke-dasharray:none;stroke-dashoffset:0;stroke-opacity:1;visibility:visible;display:inline;overflow:visible;enable-background:accumulate"
     d="M 7.1337411,3.075676 C 4.8886139,3.075676 3.075718,4.8885718 3.075718,7.1336991 L 3.075718,26.225472 C 3.075718,28.470599 4.8886139,30.25626 7.1337411,30.25626 L 15.631078,30.25626 L 15.631078,27.124229 L 8.577199,27.124229 C 7.2735765,27.124229 6.2077493,26.085636 6.2077493,24.782014 L 6.2077493,8.5771569 C 6.2077493,7.2735345 7.2735768,6.2077072 8.577199,6.2077072 L 26.879155,6.2077072 C 28.182778,6.2077072 29.22137,7.2735347 29.22137,8.5771569 L 29.22137,17.728135 L 32.353401,17.728135 L 32.353401,7.1336991 C 32.353401,4.8885718 30.540505,3.075676 28.295378,3.075676 L 7.1337411,3.075676 z"
     id="rect2161" />
</svg>
