<?xml version="1.0" encoding="UTF-8" standalone="no"?>
<!-- Created with Inkscape (http://www.inkscape.org/) -->
<svg
   xmlns:dc="http://purl.org/dc/elements/1.1/"
   xmlns:cc="http://creativecommons.org/ns#"
   xmlns:rdf="http://www.w3.org/1999/02/22-rdf-syntax-ns#"
   xmlns:svg="http://www.w3.org/2000/svg"
   xmlns="http://www.w3.org/2000/svg"
   xmlns:sodipodi="http://sodipodi.sourceforge.net/DTD/sodipodi-0.dtd"
   xmlns:inkscape="http://www.inkscape.org/namespaces/inkscape"
   width="48px"
   height="48px"
   id="svg3465"
   sodipodi:version="0.32"
   inkscape:version="0.46"
   sodipodi:docbase="/home/qwerty/.icons/qw3rtY_new/scalable/status"
   sodipodi:docname="dialog-password.svg"
   inkscape:output_extension="org.inkscape.output.svg.inkscape">
  <defs
     id="defs3467">
    <inkscape:perspective
       sodipodi:type="inkscape:persp3d"
       inkscape:vp_x="0 : 24 : 1"
       inkscape:vp_y="0 : 1000 : 0"
       inkscape:vp_z="48 : 24 : 1"
       inkscape:persp3d-origin="24 : 16 : 1"
       id="perspective8" />
  </defs>
  <sodipodi:namedview
     id="base"
     pagecolor="#f0f0f0"
     bordercolor="#666666"
     borderopacity="1.0"
     inkscape:pageopacity="0.0"
     inkscape:pageshadow="2"
     inkscape:zoom="11.166395"
     inkscape:cx="20.275357"
     inkscape:cy="25.247717"
     inkscape:current-layer="layer1"
     showgrid="true"
     inkscape:grid-bbox="true"
     inkscape:document-units="px"
     inkscape:grid-points="true"
     inkscape:window-width="1280"
     inkscape:window-height="948"
     inkscape:window-x="1"
     inkscape:window-y="42" />
  <metadata
     id="metadata3470">
    <rdf:RDF>
      <cc:Work
         rdf:about="">
        <dc:format>image/svg+xml</dc:format>
        <dc:type
           rdf:resource="http://purl.org/dc/dcmitype/StillImage" />
      </cc:Work>
    </rdf:RDF>
  </metadata>
  <g
     id="layer1"
     inkscape:label="Layer 1"
     inkscape:groupmode="layer">
    <path
       sodipodi:type="inkscape:offset"
       inkscape:radius="4.2986121"
       inkscape:original="M 23.90625 0 C 15.50625 4.0899625e-23 9.5 4.9961855 9.5 13.1875 L 9.5 20.40625 L 7.09375 20.40625 C 4.6937501 20.40625 3.5 21.6 3.5 24 L 3.5 44.40625 C 3.5 45.582639 4.69375 48 7.09375 48 L 42.375 48 C 44.314179 47.988655 45.5 45.582639 45.5 44.40625 L 45.5 24 C 45.5 21.6 44.30625 20.375 41.90625 20.375 L 39.5 20.40625 L 39.5 13.1875 C 39.5 4.7875002 33.49375 5.9211895e-16 25.09375 0 L 23.90625 0 z M 23.90625 6 L 25.09375 6 C 33.49375 6 33.5 13.19375 33.5 15.59375 L 33.5 20.40625 L 15.5 20.40625 L 15.5 15.59375 C 15.5 13.19375 15.50625 6 23.90625 6 z "
       style="opacity:1;fill:#f0f0f0;fill-opacity:1;fill-rule:nonzero;stroke:none;stroke-width:0.99999970000000005;stroke-linecap:butt;stroke-linejoin:miter;marker:none;marker-start:none;marker-mid:none;marker-end:none;stroke-miterlimit:10;stroke-dasharray:none;stroke-dashoffset:0;stroke-opacity:1;visibility:visible;display:block;overflow:visible"
       id="path2383"
       d="M 23.90625,-4.3125 C 18.854001,-4.3125 14.15519,-2.7765574 10.6875,0.3125 C 7.21981,3.4015574 5.1875,8.0411958 5.1875,13.1875 L 5.1875,16.40625 C 3.8214473,16.679406 2.4401389,17.153611 1.34375,18.25 C -0.2705255,19.864275 -0.8125,22.087296 -0.8125,24 L -0.8125,44.40625 C -0.8125,46.448461 -0.17361283,47.799693 1.03125,49.3125 C 2.2361128,50.825307 4.4505143,52.3125 7.09375,52.3125 L 42.375,52.3125 C 42.385417,52.312538 42.395833,52.312538 42.40625,52.3125 C 45.148442,52.296457 47.107084,50.616471 48.15625,49.15625 C 49.205416,47.696029 49.8125,46.438804 49.8125,44.40625 L 49.8125,24 C 49.8125,22.087296 49.257329,19.903231 47.65625,18.28125 C 46.563622,17.174357 45.194252,16.655032 43.8125,16.375 L 43.8125,13.1875 C 43.8125,7.9629549 41.770281,3.2911482 38.28125,0.21875 C 34.792219,-2.8536482 30.110401,-4.3125 25.09375,-4.3125 L 23.90625,-4.3125 z M 23.90625,10.3125 L 25.09375,10.3125 C 28.066641,10.3125 28.129183,10.885438 28.59375,11.8125 C 29.058317,12.739562 29.1875,14.397481 29.1875,15.59375 L 29.1875,16.09375 L 19.8125,16.09375 L 19.8125,15.59375 C 19.8125,14.397481 19.941683,12.739562 20.40625,11.8125 C 20.870817,10.885438 20.933359,10.3125 23.90625,10.3125 z"
       transform="matrix(0.8418466,0,0,0.8418466,3.8747588,3.7956843)" />
    <path
       style="opacity:1;fill:#373b41;fill-opacity:1;fill-rule:nonzero;stroke:none;stroke-width:0.9999997;stroke-linecap:butt;stroke-linejoin:miter;marker:none;marker-start:none;marker-mid:none;marker-end:none;stroke-miterlimit:10;stroke-dasharray:none;stroke-dashoffset:0;stroke-opacity:1;visibility:visible;display:block;overflow:visible"
       d="M 23.994892,3.7956843 C 16.923381,3.7956843 11.872301,8.0122291 11.872301,14.908059 L 11.872301,20.969355 L 9.8518695,20.969355 C 7.8314377,20.969355 6.8212218,21.97957 6.8212218,24.000002 L 6.8212218,41.173672 C 6.8212218,42.164013 7.8314377,44.20432 9.8518695,44.20432 L 39.536069,44.20432 C 41.168562,44.194769 42.178778,42.164012 42.178778,41.173672 L 42.178778,24.000002 C 42.178778,21.97957 41.168562,20.959804 39.14813,20.959804 L 37.127699,20.969355 L 37.127699,14.908059 C 37.127699,7.8365479 32.076619,3.7956843 25.005108,3.7956843 L 23.994892,3.7956843 z M 23.994892,8.8467638 L 25.005108,8.8467638 C 32.076619,8.8467638 32.076619,14.908059 32.076619,16.928491 L 32.076619,20.969355 L 16.923381,20.969355 L 16.923381,16.928491 C 16.923381,14.908059 16.923381,8.8467638 23.994892,8.8467638 z"
       id="path2086"
       inkscape:r_cx="true"
       inkscape:r_cy="true"
       sodipodi:nodetypes="cccccccccccccsccsccccc" />
  </g>
</svg>
