<?xml version="1.0" encoding="UTF-8" standalone="no"?>
<!-- Generator: Adobe Illustrator 9.0, SVG Export Plug-In  -->
<svg
   xmlns:dc="http://purl.org/dc/elements/1.1/"
   xmlns:cc="http://creativecommons.org/ns#"
   xmlns:rdf="http://www.w3.org/1999/02/22-rdf-syntax-ns#"
   xmlns:svg="http://www.w3.org/2000/svg"
   xmlns="http://www.w3.org/2000/svg"
   xmlns:sodipodi="http://sodipodi.sourceforge.net/DTD/sodipodi-0.dtd"
   xmlns:inkscape="http://www.inkscape.org/namespaces/inkscape"
   width="48"
   height="48"
   viewBox="0 0 48 48"
   xml:space="preserve"
   id="svg2"
   sodipodi:version="0.32"
   inkscape:version="0.46"
   sodipodi:docname="dialog-question.svg"
   sodipodi:docbase="/home/qwerty/.icons/MonoBlack/scalable/status"
   inkscape:output_extension="org.inkscape.output.svg.inkscape"
   version="1.0"><metadata
   id="metadata21"><rdf:RDF><cc:Work
       rdf:about=""><dc:format>image/svg+xml</dc:format><dc:type
         rdf:resource="http://purl.org/dc/dcmitype/StillImage" /></cc:Work></rdf:RDF></metadata><defs
   id="defs19"><inkscape:perspective
     sodipodi:type="inkscape:persp3d"
     inkscape:vp_x="0 : 24 : 1"
     inkscape:vp_y="0 : 1000 : 0"
     inkscape:vp_z="48 : 24 : 1"
     inkscape:persp3d-origin="24 : 16 : 1"
     id="perspective13" /></defs><sodipodi:namedview
   inkscape:window-height="1001"
   inkscape:window-width="1680"
   inkscape:pageshadow="2"
   inkscape:pageopacity="0.0"
   guidetolerance="10.0"
   gridtolerance="10.0"
   objecttolerance="10.0"
   borderopacity="1.0"
   bordercolor="#666666"
   pagecolor="#f0f0f0"
   id="base"
   width="48px"
   height="48px"
   inkscape:zoom="4.796541"
   inkscape:cx="48.410622"
   inkscape:cy="33.224734"
   inkscape:window-x="0"
   inkscape:window-y="24"
   inkscape:current-layer="svg2"
   showgrid="false" />
	<g
   transform="matrix(1.08612,0,0,1.08612,-2.0768984,-1.8583979)"
   style="fill:#f0f0f0;fill-opacity:1;fill-rule:nonzero;stroke:#373b41;stroke-width:0.77154845000000005;stroke-miterlimit:4"
   id="g2386">
		<g
   style="fill:#f0f0f0;fill-opacity:1;stroke-width:0.77154845000000005"
   id="g2388">
			<g
   style="fill:#f0f0f0;fill-opacity:1;stroke-width:0.77154845000000005"
   id="g2390">
				
			</g>
			<g
   style="fill:#f0f0f0;fill-opacity:1;stroke-width:0.77154845000000005"
   id="g2392">
				<path
   sodipodi:type="inkscape:offset"
   inkscape:radius="3.3496077"
   inkscape:original="M 23.3125 5.5 C 19.5125 5.5 16.30625 6.5875002 14.40625 7.6875 L 16.1875 13.40625 C 17.5875 12.50625 19.7 11.90625 21.5 11.90625 C 24.1 11.90625 25.312501 13.2 25.3125 15 C 25.3125 16.8 23.887499 18.59375 22.1875 20.59375 C 19.7875 23.39375 18.99375 26.20625 19.09375 28.90625 L 19.1875 30.3125 L 26.1875 30.3125 L 26.1875 29.3125 C 26.0875 26.9125 27.00625 24.787499 28.90625 22.6875 C 30.90625 20.3875 33.5 17.7875 33.5 13.6875 C 33.5 9.3875 30.312501 5.5 23.3125 5.5 z M 22.5 32.90625 C 19.8 32.90625 17.812501 34.787499 17.8125 37.6875 C 17.8125 40.3875 19.7 42.5 22.5 42.5 L 22.59375 42.5 C 25.39375 42.5 27.312501 40.487499 27.3125 37.6875 C 27.2125 34.8875 25.4 32.906248 22.5 32.90625 z "
   style="fill:#f0f0f0;fill-opacity:1;stroke:none"
   id="path2396"
   d="M 23.3125,2.15625 C 18.87343,2.15625 15.204381,3.3422006 12.71875,4.78125 C 11.367032,5.5725468 10.744062,7.1948631 11.21875,8.6875 L 13,14.40625 C 13.313994,15.400161 14.07274,16.191283 15.052672,16.546508 C 16.032604,16.901734 17.12205,16.780582 18,16.21875 C 18.680338,15.78139 20.444357,15.25 21.5,15.25 C 21.805089,15.25 21.669358,15.255861 21.78125,15.28125 C 21.679378,15.515717 21.14844,16.645217 19.625,18.4375 C 16.741202,21.801931 15.622552,25.590141 15.75,29.03125 C 15.749563,29.062498 15.749563,29.093752 15.75,29.125 L 15.84375,30.53125 C 15.89493,31.218518 16.156833,31.873277 16.59375,32.40625 C 15.322892,33.844311 14.468751,35.656355 14.46875,37.6875 C 14.46875,41.948583 18.015227,45.84375 22.5,45.84375 L 22.59375,45.84375 C 26.998771,45.84375 30.656252,42.017753 30.65625,37.6875 C 30.657027,37.645837 30.657027,37.604163 30.65625,37.5625 C 30.589904,35.704803 29.889068,33.945783 28.71875,32.5 C 29.243001,31.891777 29.531341,31.115479 29.53125,30.3125 L 29.53125,29.3125 C 29.532027,29.270837 29.532027,29.229163 29.53125,29.1875 C 29.4702,27.722296 29.868815,26.60223 31.375,24.9375 C 31.396107,24.916942 31.416942,24.896107 31.4375,24.875 C 33.316739,22.713875 36.84375,19.20019 36.84375,13.6875 C 36.84375,10.709836 35.678201,7.6639765 33.28125,5.5 C 30.884299,3.3360235 27.432577,2.15625 23.3125,2.15625 z" />
			</g>
		</g>
	</g><g
   id="Layer_x0020_4"
   style="fill:#373b41;fill-opacity:1;fill-rule:nonzero;stroke:#373b41;stroke-width:0.77154845;stroke-miterlimit:4"
   transform="matrix(1.08612,0,0,1.08612,-2.0768984,-1.8583979)">
		<g
   id="g5"
   style="fill:#373b41;fill-opacity:1;stroke-width:0.77154845">
			<g
   id="g7"
   style="fill:#373b41;fill-opacity:1;stroke-width:0.77154845">
				
			</g>
			<g
   id="g11"
   style="fill:#373b41;fill-opacity:1;stroke-width:0.77154845">
				<path
   style="fill:#373b41;fill-opacity:1;stroke:none"
   d="M 19.2,30.3 L 19.1,28.9 C 19,26.2 19.8,23.4 22.2,20.6 C 23.9,18.6 25.3,16.8 25.3,15 C 25.3,13.2 24.1,11.9 21.5,11.9 C 19.7,11.9 17.6,12.5 16.2,13.4 L 14.4,7.7 C 16.3,6.6 19.5,5.5 23.3,5.5 C 30.3,5.5 33.5,9.4 33.5,13.7 C 33.5,17.8 30.9,20.4 28.9,22.7 C 27,24.8 26.1,26.9 26.2,29.3 L 26.2,30.3 L 19.2,30.3 L 19.2,30.3 z M 22.5,42.5 C 19.7,42.5 17.8,40.4 17.8,37.7 C 17.8,34.8 19.8,32.9 22.5,32.9 C 25.4,32.9 27.2,34.9 27.3,37.7 C 27.3,40.5 25.4,42.5 22.6,42.5 L 22.5,42.5 z"
   id="path13" />
			</g>
		</g>
	</g>
	<g
   id="crop_x0020_marks"
   style="fill-rule:nonzero;stroke:#373b41;stroke-width:0.77154845;stroke-miterlimit:4"
   transform="matrix(1.2960949,0,0,1.2960949,-7.1062784,-7.1062784)">
		<path
   style="fill:none;stroke:none"
   d="M 48,48 L 0,48 L 0,0 L 48,0 L 48,48 z "
   id="path16" />
	</g>
</svg>