<?xml version="1.0" encoding="UTF-8" standalone="no"?>
<!-- Created with Inkscape (http://www.inkscape.org/) -->
<svg
   xmlns:dc="http://purl.org/dc/elements/1.1/"
   xmlns:cc="http://creativecommons.org/ns#"
   xmlns:rdf="http://www.w3.org/1999/02/22-rdf-syntax-ns#"
   xmlns:svg="http://www.w3.org/2000/svg"
   xmlns="http://www.w3.org/2000/svg"
   xmlns:xlink="http://www.w3.org/1999/xlink"
   xmlns:sodipodi="http://sodipodi.sourceforge.net/DTD/sodipodi-0.dtd"
   xmlns:inkscape="http://www.inkscape.org/namespaces/inkscape"
   width="48px"
   height="48px"
   id="svg1377"
   sodipodi:version="0.32"
   inkscape:version="0.46"
   sodipodi:docbase="/home/qwerty/.icons/MonoIce/scalable/status"
   sodipodi:docname="dialog-warning.svg"
   inkscape:output_extension="org.inkscape.output.svg.inkscape">
  <defs
     id="defs1379">
    <inkscape:perspective
       sodipodi:type="inkscape:persp3d"
       inkscape:vp_x="0 : 24 : 1"
       inkscape:vp_y="0 : 1000 : 0"
       inkscape:vp_z="48 : 24 : 1"
       inkscape:persp3d-origin="24 : 16 : 1"
       id="perspective24" />
    <radialGradient
       inkscape:collect="always"
       xlink:href="#linearGradient5060"
       id="radialGradient6719"
       gradientUnits="userSpaceOnUse"
       gradientTransform="matrix(-2.774389,0,0,1.969706,112.7623,-872.8854)"
       cx="605.71429"
       cy="486.64789"
       fx="605.71429"
       fy="486.64789"
       r="117.14286" />
    <linearGradient
       inkscape:collect="always"
       id="linearGradient5060">
      <stop
         style="stop-color:black;stop-opacity:1;"
         offset="0"
         id="stop5062" />
      <stop
         style="stop-color:black;stop-opacity:0;"
         offset="1"
         id="stop5064" />
    </linearGradient>
    <radialGradient
       inkscape:collect="always"
       xlink:href="#linearGradient5060"
       id="radialGradient6717"
       gradientUnits="userSpaceOnUse"
       gradientTransform="matrix(2.774389,0,0,1.969706,-1891.633,-872.8854)"
       cx="605.71429"
       cy="486.64789"
       fx="605.71429"
       fy="486.64789"
       r="117.14286" />
    <linearGradient
       id="linearGradient5048">
      <stop
         style="stop-color:black;stop-opacity:0;"
         offset="0"
         id="stop5050" />
      <stop
         id="stop5056"
         offset="0.5"
         style="stop-color:black;stop-opacity:1;" />
      <stop
         style="stop-color:black;stop-opacity:0;"
         offset="1"
         id="stop5052" />
    </linearGradient>
    <linearGradient
       inkscape:collect="always"
       xlink:href="#linearGradient5048"
       id="linearGradient6715"
       gradientUnits="userSpaceOnUse"
       gradientTransform="matrix(2.774389,0,0,1.969706,-1892.179,-872.8854)"
       x1="302.85715"
       y1="366.64789"
       x2="302.85715"
       y2="609.50507" />
    <linearGradient
       y2="56.052299"
       x2="47.319698"
       y1="11.1133"
       x1="4.1914001"
       gradientUnits="userSpaceOnUse"
       id="linearGradient6525">
      <stop
         id="stop6529"
         style="stop-color:#f0f0f0;stop-opacity:1;"
         offset="0" />
      <stop
         id="stop6531"
         style="stop-color:#f0f0f0;stop-opacity:0.34020618;"
         offset="1" />
    </linearGradient>
  </defs>
  <sodipodi:namedview
     id="base"
     pagecolor="#f0f0f0"
     bordercolor="#666"
     borderopacity="0.30980392"
     inkscape:pageopacity="0.0"
     inkscape:pageshadow="2"
     inkscape:zoom="8"
     inkscape:cx="12.971937"
     inkscape:cy="22.554462"
     inkscape:current-layer="g7435"
     showgrid="false"
     inkscape:grid-bbox="true"
     inkscape:document-units="px"
     inkscape:window-width="1680"
     inkscape:window-height="1000"
     inkscape:window-x="0"
     inkscape:window-y="25"
     inkscape:showpageshadow="false">
    <inkscape:grid
       id="GridFromPre046Settings"
       type="xygrid"
       originx="0px"
       originy="0px"
       spacingx="1px"
       spacingy="1px"
       color="#0000ff"
       empcolor="#0000ff"
       opacity="0.2"
       empopacity="0.4"
       empspacing="4" />
  </sodipodi:namedview>
  <metadata
     id="metadata1382">
    <rdf:RDF>
      <cc:Work
         rdf:about="">
        <dc:format>image/svg+xml</dc:format>
        <dc:type
           rdf:resource="http://purl.org/dc/dcmitype/StillImage" />
        <dc:title>Warning</dc:title>
        <dc:date />
        <dc:creator>
          <cc:Agent>
            <dc:title>Jakub Steiner</dc:title>
          </cc:Agent>
        </dc:creator>
        <dc:contributor>
          <cc:Agent>
            <dc:title />
          </cc:Agent>
        </dc:contributor>
        <dc:subject>
          <rdf:Bag>
            <rdf:li>dialog</rdf:li>
            <rdf:li>warning</rdf:li>
            <rdf:li>caution</rdf:li>
          </rdf:Bag>
        </dc:subject>
        <cc:license
           rdf:resource="http://creativecommons.org/licenses/GPL/2.0/" />
      </cc:Work>
      <cc:License
         rdf:about="http://creativecommons.org/licenses/GPL/2.0/">
        <cc:permits
           rdf:resource="http://web.resource.org/cc/Reproduction" />
        <cc:permits
           rdf:resource="http://web.resource.org/cc/Distribution" />
        <cc:requires
           rdf:resource="http://web.resource.org/cc/Notice" />
        <cc:permits
           rdf:resource="http://web.resource.org/cc/DerivativeWorks" />
        <cc:requires
           rdf:resource="http://web.resource.org/cc/ShareAlike" />
        <cc:requires
           rdf:resource="http://web.resource.org/cc/SourceCode" />
      </cc:License>
    </rdf:RDF>
  </metadata>
  <g
     id="layer1"
     inkscape:label="Layer 1"
     inkscape:groupmode="layer">
    <g
       transform="matrix(1.566667,0.303030,0.303030,1.566667,-8.925566,-23.94764)"
       id="g7435">
      <path
         sodipodi:type="inkscape:offset"
         inkscape:radius="3.9366653"
         inkscape:original="M 24.0625 3.4375 C 22.977642 3.4375 21.984016 4.0859589 21.4375 5.0625 L 2.84375 40.21875 C 2.4061715 41.086785 2.3987066 42.288215 2.9375 43.15625 C 3.4762913 44.024285 4.3526429 44.4375 5.4375 44.4375 L 42.75 44.4375 C 43.834856 44.4375 44.812419 43.899287 45.25 43.03125 C 45.796063 42.163214 45.804851 41.070291 45.375 40.09375 L 26.65625 4.9375 C 26.117915 3.9609602 25.147354 3.4375 24.0625 3.4375 z M 24.03125 13 C 24.183504 13 24.360453 13.110567 24.5 13.34375 L 37.78125 38.15625 C 38.060342 38.622617 37.780978 39 37.3125 39 L 10.875 39 C 10.406526 39 10.154425 38.622617 10.4375 38.15625 L 23.65625 13.34375 C 23.750942 13.110567 23.878996 13 24.03125 13 z "
         style="fill:#f0f0f0;fill-opacity:1;fill-rule:nonzero;stroke:none;stroke-width:1.30303061;stroke-miterlimit:4;stroke-dasharray:none;stroke-opacity:1"
         id="path3169"
         d="M 24.0625,-0.5 C 21.408917,-0.5 19.176889,1.0220773 18,3.125 C 17.989192,3.156118 17.978774,3.1873705 17.96875,3.21875 L -0.625,38.375 C -0.63560135,38.39574 -0.64601842,38.416575 -0.65625,38.4375 C -1.7429732,40.593259 -1.8119865,42.954007 -0.40625,45.21875 C 0.84601894,47.236253 3.3530095,48.375 5.4375,48.375 L 42.75,48.375 C 45.031153,48.375 47.310863,47.274295 48.5625,45.09375 L 48.59375,45.125 C 48.623956,45.076984 48.596221,45.017178 48.625,44.96875 C 48.658164,44.907887 48.718486,44.875015 48.75,44.8125 L 48.6875,44.78125 C 49.81564,42.739256 49.798296,40.384574 48.96875,38.5 C 48.930055,38.415213 48.888363,38.331828 48.84375,38.25 L 30.125,3.09375 C 30.114768,3.0728246 30.104351,3.0519905 30.09375,3.03125 C 28.876796,0.82369497 26.413692,-0.5 24.0625,-0.5 z M 24.09375,20.90625 L 31.65625,35.0625 L 16.53125,35.0625 L 24.09375,20.90625 z"
         transform="matrix(0.5750981,0,0,0.5750981,8.807657e-2,13.105831)" />
      <path
         d="M 21.90625,12.75 C 20.086063,12.749279 18.352891,13.528879 17.145851,14.891281 C 15.938812,16.253682 15.373721,18.06816 15.59375,19.875 L 16.8125,29.46875 C 15.860603,30.961885 15.25,32.630659 15.25,34.1875 C 15.25,38.787711 19.306039,42.84375 23.90625,42.84375 C 28.370735,42.84375 32.531247,38.359901 32.53125,34.1875 C 32.53627,34.04171 32.53627,33.89579 32.53125,33.75 C 32.440922,32.485402 31.916056,31.06613 31.125,29.71875 L 32.21875,19.78125 C 32.409992,17.989551 31.831846,16.200868 30.628101,14.860063 C 29.424356,13.519258 27.708125,12.752323 25.90625,12.75 L 21.90625,12.75 z"
         id="path3173"
         style="fill:#f0f0f0;fill-opacity:1;fill-rule:nonzero;stroke:none;stroke-width:0.98018837;stroke-miterlimit:4;stroke-opacity:1"
         inkscape:original="M 21.90625 19.09375 L 23.15625 29.0625 L 24.625 30.71875 L 25.90625 19.09375 L 21.90625 19.09375 z M 23.90625 31.90625 C 22.50625 31.90625 21.59375 32.787499 21.59375 34.1875 C 21.59375 35.4875 22.60625 36.5 23.90625 36.5 C 25.30625 36.5 26.187499 35.487499 26.1875 34.1875 C 26.0875 32.7875 25.30625 31.90625 23.90625 31.90625 z "
         inkscape:radius="6.3559618"
         sodipodi:type="inkscape:offset"
         transform="matrix(0.5061378,0,0,0.5143321,1.8099894,15.192001)" />
      <path
         id="path3177"
         d="M 13.906679,33.965126 C 13.248699,33.965126 12.74256,33.450793 12.74256,32.782161 C 12.74256,32.062097 13.198084,31.599198 13.906679,31.599198 C 14.615271,31.599198 15.020181,32.062097 15.070795,32.782161 C 15.070795,33.450793 14.615271,33.965126 13.906679,33.965126 L 13.906679,33.965126 z"
         style="fill:#373b41;fill-opacity:1;fill-rule:nonzero;stroke:#373b41;stroke-width:0.50011027;stroke-miterlimit:4;stroke-opacity:1" />
      <path
         id="path6500"
         d="M 13.535997,30.141969 L 12.894403,25.015745 L 14.918953,25.015745 L 14.277359,30.986895 L 13.535997,30.141969 z"
         style="fill:#373b41;fill-opacity:1;fill-rule:nonzero;stroke:#373b41;stroke-width:0.50000107;stroke-miterlimit:4;stroke-dasharray:none;stroke-opacity:1" />
      <path
         style="fill:#373b41;fill-opacity:1;fill-rule:nonzero;stroke:#373b41;stroke-width:0.74937052;stroke-miterlimit:4;stroke-dasharray:none;stroke-opacity:1"
         d="M 13.926373,15.082731 C 13.302473,15.082731 12.73104,15.455658 12.41674,16.017266 L 1.7235118,36.235559 C 1.4718616,36.734764 1.4675687,37.425704 1.7774275,37.924909 C 2.0872851,38.424114 2.5912738,38.661753 3.2151736,38.661753 L 24.673519,38.661753 C 25.297418,38.661753 25.859612,38.352229 26.111263,37.853022 C 26.425303,37.353815 26.430357,36.725278 26.183152,36.163672 L 15.418033,15.945378 C 15.108438,15.383772 14.550269,15.082731 13.926373,15.082731 z M 13.9084,20.582106 C 13.995961,20.582106 14.097725,20.645693 14.177977,20.779797 L 21.815999,35.049419 C 21.976506,35.317625 21.815843,35.534657 21.546423,35.534657 L 6.3422693,35.534657 C 6.0728508,35.534657 5.9278675,35.317625 6.0906629,35.049419 L 13.692738,20.779797 C 13.747196,20.645693 13.82084,20.582106 13.9084,20.582106 z"
         id="path6485" />
    </g>
  </g>
</svg>
