<?xml version="1.0" encoding="UTF-8" standalone="no"?>
<!-- Generator: Adobe Illustrator 9.0, SVG Export Plug-In  -->
<svg
   xmlns:dc="http://purl.org/dc/elements/1.1/"
   xmlns:cc="http://creativecommons.org/ns#"
   xmlns:rdf="http://www.w3.org/1999/02/22-rdf-syntax-ns#"
   xmlns:svg="http://www.w3.org/2000/svg"
   xmlns="http://www.w3.org/2000/svg"
   xmlns:sodipodi="http://sodipodi.sourceforge.net/DTD/sodipodi-0.dtd"
   xmlns:inkscape="http://www.inkscape.org/namespaces/inkscape"
   width="48"
   height="48"
   viewBox="0 0 48 48"
   xml:space="preserve"
   id="svg2"
   sodipodi:version="0.32"
   inkscape:version="0.46"
   sodipodi:docname="dialog-information.svg"
   sodipodi:docbase="/home/qwerty/.icons/MonoIce/scalable/apps"
   inkscape:output_extension="org.inkscape.output.svg.inkscape"
   version="1.0"><metadata
   id="metadata37"><rdf:RDF><cc:Work
       rdf:about=""><dc:format>image/svg+xml</dc:format><dc:type
         rdf:resource="http://purl.org/dc/dcmitype/StillImage" /></cc:Work></rdf:RDF></metadata><defs
   id="defs35"><inkscape:perspective
   sodipodi:type="inkscape:persp3d"
   inkscape:vp_x="0 : 24 : 1"
   inkscape:vp_y="0 : 1000 : 0"
   inkscape:vp_z="48 : 24 : 1"
   inkscape:persp3d-origin="24 : 16 : 1"
   id="perspective16" />
		
	
			
			
			
			
			
			
			
			
			
			
			
			
		</defs><sodipodi:namedview
   inkscape:window-height="1000"
   inkscape:window-width="1680"
   inkscape:pageshadow="2"
   inkscape:pageopacity="0.0"
   guidetolerance="10.0"
   gridtolerance="10.0"
   objecttolerance="10.0"
   borderopacity="1.0"
   bordercolor="#666666"
   pagecolor="#f0f0f0"
   id="base"
   showgrid="true"
   inkscape:zoom="9.593082"
   inkscape:cx="25.878377"
   inkscape:cy="24.76182"
   inkscape:window-x="0"
   inkscape:window-y="25"
   inkscape:current-layer="svg2"
   width="48px"
   height="48px" />
	<g
   id="g2393"
   style="fill:#f0f0f0"
   transform="matrix(0.8379049,0,0,0.8379049,3.8902828,3.8902828)"><path
     style="fill:#f0f0f0;fill-opacity:1;fill-rule:nonzero;stroke:none;stroke-width:4.76158284999999992;stroke-miterlimit:4"
     d="M 24,-2.96875 C 16.232063,-3.0639762 8.729922,1.7294127 5.4340794,8.7431495 C 2.0234441,15.629751 3.0008999,24.382929 7.8289644,30.358593 C 12.386982,36.268184 20.308445,39.335748 27.652,37.923906 C 35.685002,36.557856 42.467561,29.964427 44.123556,21.99578 C 45.777214,14.777513 43.087207,6.8192053 37.433807,2.0472873 C 33.743312,-1.1596947 28.893223,-2.9880128 24,-2.96875 z"
     id="path2405"
     sodipodi:nodetypes="ccccccc" /><path
     sodipodi:type="inkscape:offset"
     inkscape:radius="2.4844773"
     inkscape:original="M 28.9375 40.375 L 20 41.34375 C 18.9389 41.46165 18.22585 42.407652 18.34375 43.46875 C 18.46165 44.52985 19.407651 45.211649 20.46875 45.09375 L 29.4375 44.15625 C 30.498599 44.03835 31.1804 43.092349 31.0625 42.03125 C 30.944599 40.970153 29.998599 40.2571 28.9375 40.375 z "
     style="fill:#f0f0f0;fill-opacity:1;fill-rule:nonzero;stroke:none;stroke-width:4.76158284999999992;stroke-miterlimit:4"
     id="path2411"
     d="M 28.65625,37.90625 L 19.71875,38.875 C 17.329338,39.14049 15.617787,41.435085 15.875,43.75 C 16.141081,46.144732 18.482978,47.814389 20.75,47.5625 L 29.6875,46.625 C 29.697917,46.625066 29.708333,46.625066 29.71875,46.625 C 32.113482,46.358918 33.783142,44.017026 33.53125,41.75 C 33.265757,39.360592 30.971169,37.649037 28.65625,37.90625 z" /><path
     sodipodi:type="inkscape:offset"
     inkscape:radius="2.5046217"
     inkscape:original="M 28.9375 36.625 L 20 37.5625 C 18.9389 37.680401 18.22585 38.626401 18.34375 39.6875 C 18.46165 40.748597 19.407651 41.46165 20.46875 41.34375 L 29.4375 40.375 C 30.498599 40.2571 31.1804 39.342349 31.0625 38.28125 C 30.944599 37.22015 29.998599 36.5071 28.9375 36.625 z "
     style="fill:#f0f0f0;fill-opacity:1;fill-rule:nonzero;stroke:none;stroke-width:4.76158284999999992;stroke-miterlimit:4"
     id="path2409"
     d="M 28.65625,34.125 L 19.75,35.0625 C 19.739583,35.062435 19.729167,35.062435 19.71875,35.0625 C 17.318572,35.329189 15.585408,37.64367 15.84375,39.96875 C 16.110437,42.368931 18.424915,44.102093 20.75,43.84375 L 29.71875,42.875 C 32.076017,42.613081 33.814882,40.271439 33.5625,38 C 33.297014,35.610643 31.001825,33.885617 28.6875,34.125 L 28.65625,34.125 z" /><path
     sodipodi:type="inkscape:offset"
     inkscape:radius="2.8470769"
     inkscape:original="M 28.9375 32.96875 L 20 33.90625 C 18.9389 34.024151 18.22585 34.970151 18.34375 36.03125 C 18.46165 37.092347 19.407651 37.8054 20.46875 37.6875 L 29.4375 36.71875 C 30.498599 36.60085 31.1804 35.686099 31.0625 34.625 C 30.944599 33.563899 29.998599 32.85085 28.9375 32.96875 z "
     style="fill:#f0f0f0;fill-opacity:1;fill-rule:nonzero;stroke:none;stroke-width:4.76158284999999992;stroke-miterlimit:4"
     id="path2407"
     d="M 28.625,30.125 L 19.6875,31.0625 C 17.104231,31.349532 15.222455,33.845847 15.5,36.34375 C 15.787031,38.927023 18.283341,40.808796 20.78125,40.53125 L 29.75,39.5625 C 32.284491,39.28089 34.17702,36.749428 33.90625,34.3125 C 33.619218,31.729231 31.122902,29.847455 28.625,30.125 z" /><path
     sodipodi:type="inkscape:offset"
     inkscape:radius="2.9262064"
     inkscape:original="M 22.9375 44.40625 L 22.9375 45.46875 C 22.9375 46.529849 23.751401 47.34375 24.8125 47.34375 C 25.873599 47.34375 26.71875 46.529849 26.71875 45.46875 L 26.71875 44.40625 L 22.9375 44.40625 z "
     style="fill:#f0f0f0;fill-opacity:1;fill-rule:nonzero;stroke:none;stroke-width:4.76158284999999992;stroke-miterlimit:4"
     id="path2413"
     d="M 22.9375,41.46875 C 22.15753,41.465812 21.408657,41.774355 20.857131,42.325881 C 20.305605,42.877407 19.997062,43.62628 20,44.40625 L 20,45.46875 C 20,48.026186 22.255064,50.28125 24.8125,50.28125 C 27.369936,50.28125 29.65625,48.083638 29.65625,45.46875 L 29.65625,44.40625 C 29.659188,43.62628 29.350645,42.877407 28.799119,42.325881 C 28.247593,41.774355 27.49872,41.465812 26.71875,41.46875 L 22.9375,41.46875 z" /></g><g
   id="g2386"
   transform="matrix(0.8379049,0,0,0.8379049,3.8902828,3.8902828)"><path
     id="path19"
     d="M 7.0224175,17.633406 C 7.0224175,27.065395 14.685909,34.610987 23.999999,34.610987 C 33.431988,34.610987 40.97758,26.947496 40.97758,17.633406 C 40.97758,8.2014162 33.314089,0.65582454 23.999999,0.65582454 C 14.568009,0.65582454 7.0224175,8.3193161 7.0224175,17.633406 z M 10.913113,17.633406 C 10.913113,10.323614 16.808107,4.4286204 24.117899,4.4286204 C 31.427691,4.4286204 37.322684,10.323614 37.322684,17.633406 C 37.322684,24.943198 31.427691,30.838191 24.117899,30.838191 C 16.808107,30.838191 10.913113,24.943198 10.913113,17.633406 L 10.913113,17.633406 z"
     style="fill:#373b41;fill-opacity:1;fill-rule:nonzero;stroke:none;stroke-width:4.76158285;stroke-miterlimit:4" /><path
     id="path21"
     d="M 28.951793,40.388081 L 19.991403,41.33128 C 18.930304,41.44918 18.222905,42.392379 18.340805,43.453477 C 18.458705,44.514576 19.401904,45.221975 20.463003,45.104076 L 29.423393,44.160877 C 30.484492,44.042977 31.191891,43.099778 31.073991,42.038679 C 30.956091,40.97758 30.012892,40.270181 28.951793,40.388081 z"
     style="fill:#373b41;fill-opacity:1;fill-rule:nonzero;stroke:none;stroke-width:4.76158285;stroke-miterlimit:4" /><path
     id="path23"
     d="M 28.951793,36.615285 L 19.991403,37.558484 C 18.930304,37.676384 18.222905,38.619583 18.340805,39.680682 C 18.458705,40.74178 19.401904,41.44918 20.463003,41.33128 L 29.423393,40.388081 C 30.484492,40.270181 31.191891,39.326982 31.073991,38.265883 C 30.956091,37.204784 30.012892,36.497385 28.951793,36.615285 z"
     style="fill:#373b41;fill-opacity:1;fill-rule:nonzero;stroke:none;stroke-width:4.76158285;stroke-miterlimit:4" /><path
     id="path25"
     d="M 28.951793,32.960389 L 19.991403,33.903588 C 18.930304,34.021488 18.222905,34.964687 18.340805,36.025786 C 18.458705,37.086884 19.401904,37.794284 20.463003,37.676384 L 29.423393,36.733185 C 30.484492,36.615285 31.191891,35.672086 31.073991,34.610987 C 30.956091,33.549888 30.012892,32.842489 28.951793,32.960389 z"
     style="fill:#373b41;fill-opacity:1;fill-rule:nonzero;stroke:none;stroke-width:4.76158285;stroke-miterlimit:4" /><path
     id="path27"
     d="M 22.9389,44.396676 L 22.9389,45.457775 C 22.9389,46.518874 23.764199,47.344173 24.825298,47.344173 C 25.886397,47.344173 26.711696,46.518874 26.711696,45.457775 L 26.711696,44.396676 L 22.821,44.396676 L 22.9389,44.396676 z"
     style="fill:#373b41;fill-opacity:1;fill-rule:nonzero;stroke:none;stroke-width:4.76158285;stroke-miterlimit:4" /></g><path
   style="fill:#373b41;fill-opacity:1;fill-rule:nonzero;stroke:none;stroke-width:2;stroke-miterlimit:4;stroke-dasharray:none;stroke-opacity:1"
   d="M 17.375314,15.830427 L 18.056112,17.925189 L 21.51247,28.503739 L 23.109726,27.980048 L 20.229428,19.208231 C 20.872159,19.469927 21.561027,19.743456 22.428928,19.941398 C 24.685538,20.456064 27.646906,20.457832 29.839149,18.265588 L 28.634661,17.087285 C 26.974138,18.747808 24.762126,18.766484 22.795512,18.317957 C 20.828897,17.869431 19.286785,16.956362 19.286785,16.956362 L 17.375314,15.830427 z"
   id="path29" />
	<g
   id="crop_x0020_marks"
   style="fill-rule:nonzero;stroke:#373b41;stroke-width:0.84817731;stroke-miterlimit:4"
   transform="matrix(0.9878888,0,0,0.9878888,0.2906686,0.2906686)">
		<path
   style="fill:none;stroke:none"
   d="M 48,48 L 0,48 L 0,0 L 48,0 L 48,48 z"
   id="path32" />
	</g>
</svg>