<?xml version="1.0" encoding="UTF-8" standalone="no"?>
<!-- Generator: Adobe Illustrator 9.0, SVG Export Plug-In  -->
<svg
   xmlns:dc="http://purl.org/dc/elements/1.1/"
   xmlns:cc="http://creativecommons.org/ns#"
   xmlns:rdf="http://www.w3.org/1999/02/22-rdf-syntax-ns#"
   xmlns:svg="http://www.w3.org/2000/svg"
   xmlns="http://www.w3.org/2000/svg"
   xmlns:sodipodi="http://sodipodi.sourceforge.net/DTD/sodipodi-0.dtd"
   xmlns:inkscape="http://www.inkscape.org/namespaces/inkscape"
   width="48"
   height="48"
   viewBox="0 0 48 48"
   xml:space="preserve"
   id="svg2"
   sodipodi:version="0.32"
   inkscape:version="0.46"
   sodipodi:docname="network-online.svg"
   sodipodi:docbase="/home/qwerty/.icons/MonoBlack/scalable/status"
   inkscape:output_extension="org.inkscape.output.svg.inkscape"
   version="1.0"><metadata
   id="metadata33"><rdf:RDF><cc:Work
       rdf:about=""><dc:format>image/svg+xml</dc:format><dc:type
         rdf:resource="http://purl.org/dc/dcmitype/StillImage" /></cc:Work></rdf:RDF></metadata><defs
   id="defs31"><inkscape:perspective
   sodipodi:type="inkscape:persp3d"
   inkscape:vp_x="0 : 24 : 1"
   inkscape:vp_y="0 : 1000 : 0"
   inkscape:vp_z="48 : 24 : 1"
   inkscape:persp3d-origin="24 : 16 : 1"
   id="perspective18" />
		
	
			
			
		</defs><sodipodi:namedview
   inkscape:window-height="711"
   inkscape:window-width="772"
   inkscape:pageshadow="2"
   inkscape:pageopacity="0.0"
   guidetolerance="10.0"
   gridtolerance="10.0"
   objecttolerance="10.0"
   borderopacity="1.0"
   bordercolor="#666666"
   pagecolor="#f0f0f0"
   id="base"
   showgrid="true"
   inkscape:zoom="6.7833334"
   inkscape:cx="19.655274"
   inkscape:cy="25.878334"
   inkscape:window-x="2"
   inkscape:window-y="67"
   inkscape:current-layer="svg2"
   width="48px"
   height="48px" />
	<g
   style="fill:#f0f0f0;fill-opacity:1;fill-rule:nonzero;stroke-width:0.85454547;stroke-miterlimit:4"
   id="g2395"
   transform="matrix(1.1110512,0,0,1.1110512,-2.6653638,-2.6628232)">
				<g
   style="fill:#f0f0f0;fill-opacity:1"
   id="g2397">
					<path
   style="fill:#f0f0f0;fill-opacity:1"
   d="M 25.5,9.125 C 24.029837,9.0679378 22.999266,10.552042 23.21875,11.928202 C 23.21875,20.181301 23.21875,28.434401 23.21875,36.6875 C 23.979167,36.6875 23.290845,37.254398 23.610342,38.514169 C 24.719201,38.482433 25.016246,38.900987 26.848902,38.96875 C 28.94628,38.865416 31.091683,39.206172 33.154305,38.730316 C 36.509945,37.839481 38.418057,34.476964 39.182427,31.30748 C 39.754498,30.491585 39.073533,28.371811 40.240702,28.375 C 41.481749,28.311661 42.761664,28.528907 43.968851,28.204982 C 45.202429,27.759851 45.483885,26.382562 45.375,25.223831 C 45.332345,23.960018 45.472392,22.678267 45.279439,21.428749 C 44.950534,20.162549 43.583218,19.66868 42.397815,19.8125 C 41.504793,19.8125 40.611772,19.8125 39.71875,19.8125 C 39.259382,16.30515 38.199307,12.429836 35.153261,10.295119 C 33.509017,9.0853677 31.410427,9.0454582 29.458521,9.125 C 28.139014,9.125 26.819507,9.125 25.5,9.125 z"
   id="path2432"
   sodipodi:nodetypes="cccccccccccccccc" />
					<path
   style="fill:#f0f0f0;fill-opacity:1"
   d="M 17.5,9.125 C 14.312713,9.1128003 11.835838,11.768465 10.755832,14.56435 C 10.054546,16.21634 9.5746604,17.955639 9.25,19.71875 C 7.6533331,19.742749 6.0507006,19.668272 4.4581483,19.760738 C 3.1282042,19.973894 2.4543227,21.370831 2.625,22.609551 C 2.669261,23.960025 2.525185,25.328888 2.7205608,26.665001 C 3.0495397,27.931543 4.4172887,28.425095 5.6028794,28.28125 C 6.7873363,28.28125 7.9717931,28.28125 9.15625,28.28125 C 9.8584434,31.70654 10.882283,35.470415 13.810866,37.671392 C 15.273101,38.811764 17.112297,39.045078 19.149996,38.937989 C 21.746563,38.913811 22.570902,38.881088 24.010261,38.581544 C 24.691616,37.504364 24.907923,37.495902 24.96875,36.506671 C 24.962134,28.064628 24.981983,19.622003 24.958824,11.180323 C 24.870551,9.7374542 23.36286,8.9039346 22.033411,9.125 C 20.522274,9.125 19.011137,9.125 17.5,9.125 z"
   id="path2434"
   sodipodi:nodetypes="ccccccccccccccc" />
				</g>
				<g
   id="g2403"
   style="fill:#f0f0f0;fill-opacity:1;stroke:#f0f0f0;stroke-width:5.56027079;stroke-linejoin:round">
					
					
				</g>
			</g><g
   id="Layer_x0020_3"
   style="fill:#373b41;fill-opacity:1;fill-rule:nonzero;stroke:#373b41;stroke-width:0.85454547;stroke-miterlimit:4"
   transform="matrix(1.1110512,0,0,1.1110512,-2.6653638,-2.6628232)">
		<g
   style="fill:#373b41;fill-opacity:1;stroke:none"
   id="g5">
			<g
   id="g7"
   style="fill:#373b41;fill-opacity:1">
				<g
   id="g9"
   style="fill:#373b41;fill-opacity:1">
					<path
   d="M 37.7,22 C 37.7,22 37.3,11.4 31.4,11.4 C 25.5,11.4 25.5,11.4 25.5,11.4 L 25.5,36.7 C 25.5,36.7 25.3,36.7 31.4,36.7 C 37.4,36.7 37.7,26.1 37.7,26.1 L 43.1,26.1 L 43.1,22.1 L 37.7,22.1 L 37.7,22 z"
   id="path11"
   style="fill:#373b41;fill-opacity:1" />
					<path
   d="M 22.8,11.4 C 22.8,11.4 22.8,11.4 17.5,11.4 C 12.2,11.4 11.2,22 11.2,22 L 4.9,22 L 4.9,26 L 11.1,26 C 11.1,26 12.1,36.6 17.4,36.6 C 22.7,36.6 22.7,36.6 22.7,36.6 L 22.7,11.4 L 22.8,11.4 z"
   id="path13"
   style="fill:#373b41;fill-opacity:1" />
				</g>
				<g
   style="fill:#373b41;fill-opacity:1;stroke:#f0f0f0;stroke-width:5.56027079;stroke-linejoin:round"
   id="g15">
					
					
				</g>
			</g>
			<g
   id="g21"
   style="fill:#373b41;fill-opacity:1">
				<path
   d="M 37.7,22 C 37.7,22 37.3,11.4 31.4,11.4 C 25.5,11.4 25.5,11.4 25.5,11.4 L 25.5,36.7 C 25.5,36.7 25.3,36.7 31.4,36.7 C 37.4,36.7 37.7,26.1 37.7,26.1 L 43.1,26.1 L 43.1,22.1 L 37.7,22.1 L 37.7,22 z"
   id="path23"
   style="fill:#373b41;fill-opacity:1" />
				<path
   d="M 22.8,11.4 C 22.8,11.4 22.8,11.4 17.5,11.4 C 12.2,11.4 11.2,22 11.2,22 L 4.9,22 L 4.9,26 L 11.1,26 C 11.1,26 12.1,36.6 17.4,36.6 C 22.7,36.6 22.7,36.6 22.7,36.6 L 22.7,11.4 L 22.8,11.4 z"
   id="path25"
   style="fill:#373b41;fill-opacity:1" />
			</g>
		</g>
	</g>
	<g
   id="crop_x0020_marks"
   style="fill-rule:nonzero;stroke:#373b41;stroke-width:0.85454547;stroke-miterlimit:4"
   transform="matrix(1.1702128,0,0,1.1702128,-4.0851064,-4.0851064)">
		<path
   style="fill:none;stroke:none"
   d="M 48,48 L 0,48 L 0,0 L 48,0 L 48,48 z "
   id="path28" />
	</g>
</svg>