<?xml version="1.0" encoding="UTF-8" standalone="no"?>
<!-- Generator: Adobe Illustrator 9.0, SVG Export Plug-In  -->
<svg
   xmlns:dc="http://purl.org/dc/elements/1.1/"
   xmlns:cc="http://web.resource.org/cc/"
   xmlns:rdf="http://www.w3.org/1999/02/22-rdf-syntax-ns#"
   xmlns:svg="http://www.w3.org/2000/svg"
   xmlns="http://www.w3.org/2000/svg"
   xmlns:xlink="http://www.w3.org/1999/xlink"
   xmlns:sodipodi="http://sodipodi.sourceforge.net/DTD/sodipodi-0.dtd"
   xmlns:inkscape="http://www.inkscape.org/namespaces/inkscape"
   width="48"
   height="48"
   viewBox="0 0 48 48"
   xml:space="preserve"
   id="svg2"
   sodipodi:version="0.32"
   inkscape:version="0.45.1"
   sodipodi:docname="printer-error.svg"
   sodipodi:docbase="/home/qwerty/.icons/MonoIce/scalable/status"
   version="1.0"
   inkscape:output_extension="org.inkscape.output.svg.inkscape"><metadata
   id="metadata31"><rdf:RDF><cc:Work
       rdf:about=""><dc:format>image/svg+xml</dc:format><dc:type
         rdf:resource="http://purl.org/dc/dcmitype/StillImage" /></cc:Work></rdf:RDF></metadata><defs
   id="defs29">
		
	
			
			
			
			
			
			
			
			
			
		
		
	
			
			
			
			
			
			
			
			
			
			
			
		<linearGradient
   id="linearGradient2209"><stop
     id="stop2211"
     offset="0"
     style="stop-color:#c00;stop-opacity:1;" /><stop
     id="stop2213"
     offset="1"
     style="stop-color:#ad0000;stop-opacity:1;" /></linearGradient><linearGradient
   inkscape:collect="always"
   id="linearGradient4493"><stop
     style="stop-color:black;stop-opacity:1;"
     offset="0"
     id="stop4495" /><stop
     style="stop-color:black;stop-opacity:0;"
     offset="1"
     id="stop4497" /></linearGradient><linearGradient
   id="linearGradient4447"><stop
     style="stop-color:#c00;stop-opacity:1;"
     offset="0"
     id="stop4449" /><stop
     style="stop-color:#ad0000;stop-opacity:1;"
     offset="1"
     id="stop4451" /></linearGradient><radialGradient
   inkscape:collect="always"
   xlink:href="#linearGradient4493"
   id="radialGradient4499"
   cx="16"
   cy="27.875"
   fx="16"
   fy="27.875"
   r="12.125"
   gradientTransform="matrix(2.11358,0,0,0.610106,-15.804436,18.772459)"
   gradientUnits="userSpaceOnUse" /><linearGradient
   id="linearGradient2222"><stop
     style="stop-color:#c00;stop-opacity:1;"
     offset="0"
     id="stop2224" /><stop
     style="stop-color:#ad0000;stop-opacity:1;"
     offset="1"
     id="stop2226" /></linearGradient></defs><sodipodi:namedview
   inkscape:window-height="951"
   inkscape:window-width="1278"
   inkscape:pageshadow="2"
   inkscape:pageopacity="0.0"
   borderopacity="1.0"
   bordercolor="#666666"
   pagecolor="#f0f0f0"
   id="base"
   showgrid="true"
   inkscape:grid-bbox="true"
   inkscape:grid-points="true"
   inkscape:zoom="4.1041667"
   inkscape:cx="-1.7597538"
   inkscape:cy="37.924681"
   inkscape:window-x="1"
   inkscape:window-y="42"
   inkscape:current-layer="svg2" />
	<path
   style="opacity:1;color:#373b41;fill:#22ad93;fill-opacity:1;fill-rule:nonzero;stroke:none;stroke-width:2.96536064;stroke-linecap:butt;stroke-linejoin:miter;marker:none;stroke-miterlimit:4;stroke-dasharray:none;stroke-dashoffset:0;stroke-opacity:1;visibility:visible;display:inline;overflow:visible"
   d="M 31.28125 15.125 C 22.335467 15.125 15.0625 22.401543 15.0625 31.34375 C 15.0625 40.285957 22.335467 47.53125 31.28125 47.53125 C 40.227032 47.531252 47.5 40.285957 47.5 31.34375 C 47.500001 22.401543 40.227033 15.125 31.28125 15.125 z M 22 28.34375 L 40.25 28.34375 L 40.25 34 L 22 34 L 22 28.34375 z "
   id="path4445" /><g
   id="g3095"
   transform="matrix(1.1139601,0,0,1.1142857,-2.7350427,-2.1984047)"><path
     style="fill:#373b41;fill-rule:nonzero;stroke:none;stroke-width:7.43289995;stroke-linejoin:round;stroke-miterlimit:4"
     d="M 6.0625 41.59375 C 5.616916 41.59375 5.0625001 41.929285 5.0625 42.375 L 5.0625 44.59375 C 5.0625 45.039464 5.7419159 45.718749 6.1875 45.71875 L 23.8125 45.71875 C 21.858988 44.700115 20.106 43.282549 18.71875 41.59375 L 6.0625 41.59375 z M 42.9375 42.5625 C 41.724242 43.818974 40.312454 44.904027 38.75 45.71875 L 41.8125 45.71875 C 42.258084 45.71875 42.937501 45.039466 42.9375 44.59375 L 42.9375 42.5625 z "
     transform="matrix(0.8976982,0,0,0.8974359,2.455243,1.9729273)"
     id="path13" /><path
     style="fill:#373b41;fill-rule:nonzero;stroke:none;stroke-width:7.43289995;stroke-linejoin:round;stroke-miterlimit:4"
     d="M 2.84375 24.53125 C 2.398166 24.53125 1.71875 25.210536 1.71875 25.65625 L 1.71875 41.25 C 1.71875 41.695714 2.398166 42.374999 2.84375 42.375 L 19.4375 42.375 C 16.724941 39.475412 15.0625 35.618081 15.0625 31.34375 C 15.0625 28.915199 15.601486 26.601325 16.5625 24.53125 L 2.84375 24.53125 z M 46.28125 37.4375 C 45.528637 39.276549 44.461398 40.945172 43.125 42.375 L 45.15625 42.375 C 45.601834 42.375 46.28125 41.695712 46.28125 41.25 L 46.28125 37.4375 z "
     transform="matrix(0.8976982,0,0,0.8974359,2.455243,1.9729273)"
     id="path15" /><path
     style="fill:#373b41;fill-rule:nonzero;stroke:none;stroke-width:7.43289995;stroke-linejoin:round;stroke-miterlimit:4"
     d="M 10.625 2.25 C 7.2831194 2.2500001 6.1875 4.4901786 6.1875 6.71875 L 6.1875 26.78125 L 10.625 26.78125 L 10.625 7.84375 C 10.625 7.8437498 10.63604 6.71875 11.75 6.71875 L 36.25 6.71875 C 37.363961 6.71875 37.375 7.84375 37.375 7.84375 L 37.375 16.3125 C 38.999536 16.973784 40.499451 17.877231 41.8125 19 L 41.8125 6.71875 C 41.8125 4.4901785 40.71688 2.25 37.375 2.25 L 10.625 2.25 z "
     transform="matrix(0.8976982,0,0,0.8974359,2.455243,1.9729273)"
     id="path17" /></g><path
   style="fill:#373b41;fill-opacity:1;fill-rule:nonzero;stroke:none;stroke-width:4;stroke-linejoin:miter;stroke-miterlimit:4;stroke-dasharray:none;stroke-opacity:1"
   d="M 15.6875 11.40625 L 15.6875 15.40625 L 28.1875 15.40625 C 29.185604 15.213638 30.227664 15.125 31.28125 15.125 C 31.46073 15.125 31.634409 15.15044 31.8125 15.15625 L 31.8125 11.40625 L 15.6875 11.40625 z "
   id="path23" />
	
<g
   id="g2228"
   transform="translate(-38.253806,-8.7715729)"><g
     transform="matrix(1.2,0,0,1.2,2.4168314,9.843168e-2)"
     id="layer1"
     inkscape:label="Layer 1"><g
       transform="matrix(1.566667,0,0,1.566667,-8.925566,-23.94764)"
       id="g7435" /></g></g></svg>