<?xml version="1.0" encoding="UTF-8" standalone="no"?>
<!-- Created with Inkscape (http://www.inkscape.org/) -->
<svg
   xmlns:dc="http://purl.org/dc/elements/1.1/"
   xmlns:cc="http://creativecommons.org/ns#"
   xmlns:rdf="http://www.w3.org/1999/02/22-rdf-syntax-ns#"
   xmlns:svg="http://www.w3.org/2000/svg"
   xmlns="http://www.w3.org/2000/svg"
   xmlns:sodipodi="http://sodipodi.sourceforge.net/DTD/sodipodi-0.dtd"
   xmlns:inkscape="http://www.inkscape.org/namespaces/inkscape"
   width="48px"
   height="48px"
   id="svg3465"
   sodipodi:version="0.32"
   inkscape:version="0.46"
   sodipodi:docbase="/usr/share/icons/HighContrast-SVG/scalable/actions"
   sodipodi:docname="security-medium.svg"
   inkscape:output_extension="org.inkscape.output.svg.inkscape"
   sodipodi:modified="true">
  <defs
     id="defs3467">
    <inkscape:perspective
       sodipodi:type="inkscape:persp3d"
       inkscape:vp_x="0 : 24 : 1"
       inkscape:vp_y="0 : 1000 : 0"
       inkscape:vp_z="48 : 24 : 1"
       inkscape:persp3d-origin="24 : 16 : 1"
       id="perspective8" />
  </defs>
  <sodipodi:namedview
     id="base"
     pagecolor="#f0f0f0"
     bordercolor="#666666"
     borderopacity="1.0"
     inkscape:pageopacity="0.0"
     inkscape:pageshadow="2"
     inkscape:zoom="11.166395"
     inkscape:cx="41.731643"
     inkscape:cy="24.247816"
     inkscape:current-layer="layer1"
     showgrid="true"
     inkscape:grid-bbox="true"
     inkscape:document-units="px"
     inkscape:grid-points="true"
     inkscape:window-width="1680"
     inkscape:window-height="1001"
     inkscape:window-x="0"
     inkscape:window-y="24" />
  <metadata
     id="metadata3470">
    <rdf:RDF>
      <cc:Work
         rdf:about="">
        <dc:format>image/svg+xml</dc:format>
        <dc:type
           rdf:resource="http://purl.org/dc/dcmitype/StillImage" />
      </cc:Work>
    </rdf:RDF>
  </metadata>
  <g
     id="layer1"
     inkscape:label="Layer 1"
     inkscape:groupmode="layer">
    <path
       sodipodi:type="inkscape:offset"
       inkscape:radius="3.8674655"
       inkscape:original="M 24.3125 4.3125 C 17.3125 4.3125 12.3125 8.1833746 12.3125 15.3125 L 12.3125 21.3125 L 10.3125 21.3125 C 8.3125 21.3125 7.3125 22.3125 7.3125 24.3125 L 7.3125 41.3125 C 7.3125 41.989798 8.3125 44.3125 10.3125 44.3125 L 39.375 44.3125 C 41.294016 44.000018 42.3125 41.989794 42.3125 41.3125 L 42.3125 24.3125 C 42.312502 22.3125 41.3125 21 39.3125 21 L 37.3125 21.3125 L 37.3125 15.3125 C 37.312502 8.3125 32.3125 4.3125 25.3125 4.3125 L 24.3125 4.3125 z M 24.3125 9.3125 L 25.3125 9.3125 C 32.3125 9.3125 32.3125 15.3125 32.3125 17.3125 L 32.3125 21.3125 L 17.3125 21.3125 L 17.3125 17.3125 C 17.3125 15.3125 17.3125 9.3125 24.3125 9.3125 z "
       style="opacity:1;fill:#f0f0f0;fill-opacity:1;fill-rule:nonzero;stroke:none;stroke-width:0.99999970000000005;stroke-linecap:butt;stroke-linejoin:miter;marker:none;marker-start:none;marker-mid:none;marker-end:none;stroke-miterlimit:10.30303001000000052;stroke-dasharray:none;stroke-dashoffset:0.30303000000000002;stroke-opacity:1;visibility:visible;display:block;overflow:visible"
       id="path2383"
       d="M 24.3125,0.4375 C 20.09962,0.4375 16.138269,1.6102067 13.15625,4.21875 C 10.174231,6.8272933 8.4375,10.843791 8.4375,15.3125 L 8.4375,17.71875 C 7.322437,17.975241 6.2143811,18.410619 5.3125,19.3125 C 3.9009296,20.72407 3.4375,22.667922 3.4375,24.3125 L 3.4375,41.3125 C 3.4375,42.433514 3.659541,42.882244 3.90625,43.5 C 4.152959,44.117756 4.4854405,44.731872 4.96875,45.375 C 5.9353689,46.661256 7.8153384,48.1875 10.3125,48.1875 L 39.375,48.1875 C 39.584683,48.183645 39.793706,48.162743 40,48.125 C 42.150829,47.774771 43.665705,46.519112 44.59375,45.34375 C 45.521795,44.168388 46.1875,43.58972 46.1875,41.3125 L 46.1875,24.3125 C 46.187502,22.66792 45.778109,20.852813 44.5,19.375 C 43.647927,18.389791 42.436871,17.836428 41.1875,17.5 L 41.1875,15.3125 C 41.187501,10.891674 39.467534,6.8996624 36.5,4.28125 C 33.532466,1.6628376 29.54916,0.4375 25.3125,0.4375 L 24.3125,0.4375 z M 24.3125,13.1875 L 25.3125,13.1875 C 27.70751,13.1875 27.620861,13.585472 27.96875,14.28125 C 28.316639,14.977028 28.4375,16.3125 28.4375,17.3125 L 28.4375,17.4375 L 21.1875,17.4375 L 21.1875,17.3125 C 21.1875,16.3125 21.308361,14.977028 21.65625,14.28125 C 22.004139,13.585472 21.91749,13.1875 24.3125,13.1875 z"
       transform="translate(-0.7164352,-0.3582176)" />
    <path
       style="opacity:1;fill:#373b41;fill-opacity:1;fill-rule:nonzero;stroke:none;stroke-width:0.9999997;stroke-linecap:butt;stroke-linejoin:miter;marker:none;marker-start:none;marker-mid:none;marker-end:none;stroke-miterlimit:10.30303001;stroke-dasharray:none;stroke-dashoffset:0.30303;stroke-opacity:1;visibility:visible;display:block;overflow:visible"
       d="M 23.586598,3.9448124 C 16.586598,3.9448124 11.586598,7.815687 11.586598,14.944814 L 11.586598,20.944814 L 9.586596,20.944814 C 7.5865948,20.944814 6.5865948,21.944814 6.5865948,23.944814 L 6.5865948,40.944814 C 6.5865948,41.62211 7.5865948,43.944814 9.586596,43.944814 L 38.667584,43.944814 C 40.586598,43.63233 41.586598,41.622108 41.586598,40.944814 L 41.586598,23.944814 C 41.586598,21.944814 40.586598,20.63233 38.586598,20.63233 L 36.586598,20.944814 L 36.586598,14.944814 C 36.586598,7.9448124 31.586598,3.9448124 24.586598,3.9448124 L 23.586598,3.9448124 z M 23.586598,8.9448124 L 24.586598,8.9448124 C 31.586598,8.9448124 31.586598,14.944814 31.586598,16.944814 L 31.586598,20.944814 L 16.586598,20.944814 L 16.586598,16.944814 C 16.586598,14.944814 16.586598,8.9448124 23.586598,8.9448124 z"
       id="path2086"
       inkscape:r_cx="true"
       inkscape:r_cy="true"
       sodipodi:nodetypes="cccccccccccccsccsccccc" />
  </g>
</svg>
