<?xml version="1.0" encoding="UTF-8" standalone="no"?>
<!-- Created with Inkscape (http://www.inkscape.org/) -->
<svg
   xmlns:dc="http://purl.org/dc/elements/1.1/"
   xmlns:cc="http://creativecommons.org/ns#"
   xmlns:rdf="http://www.w3.org/1999/02/22-rdf-syntax-ns#"
   xmlns:svg="http://www.w3.org/2000/svg"
   xmlns="http://www.w3.org/2000/svg"
   xmlns:sodipodi="http://sodipodi.sourceforge.net/DTD/sodipodi-0.dtd"
   xmlns:inkscape="http://www.inkscape.org/namespaces/inkscape"
   width="128"
   height="128"
   id="svg2"
   sodipodi:version="0.32"
   inkscape:version="0.46"
   version="1.0"
   sodipodi:docbase="/home/christof/themes_and_icons/meinICONtheme/ALLGREY_mod/scalable/status"
   sodipodi:docname="software-update-available.svg"
   inkscape:output_extension="org.inkscape.output.svg.inkscape">
  <defs
     id="defs4">
    <inkscape:perspective
       sodipodi:type="inkscape:persp3d"
       inkscape:vp_x="0 : 64 : 1"
       inkscape:vp_y="0 : 1000 : 0"
       inkscape:vp_z="128 : 64 : 1"
       inkscape:persp3d-origin="64 : 42.666667 : 1"
       id="perspective8" />
  </defs>
  <sodipodi:namedview
     id="base"
     pagecolor="#f0f0f0"
     bordercolor="#373b41"
     borderopacity="1"
     inkscape:pageopacity="0.0"
     inkscape:pageshadow="2"
     inkscape:zoom="3.959798"
     inkscape:cx="23.905531"
     inkscape:cy="55.832974"
     inkscape:document-units="px"
     inkscape:current-layer="layer1"
     width="128px"
     height="128px"
     showgrid="true"
     inkscape:window-width="1680"
     inkscape:window-height="1000"
     inkscape:window-x="0"
     inkscape:window-y="25" />
  <metadata
     id="metadata7">
    <rdf:RDF>
      <cc:Work
         rdf:about="">
        <dc:format>image/svg+xml</dc:format>
        <dc:type
           rdf:resource="http://purl.org/dc/dcmitype/StillImage" />
      </cc:Work>
    </rdf:RDF>
  </metadata>
  <g
     inkscape:label="Ebene 1"
     inkscape:groupmode="layer"
     id="layer1">
    <path
       sodipodi:type="inkscape:offset"
       inkscape:radius="-1.8485072"
       inkscape:original="M 68.34375 10.5 C 65.653688 10.417058 63.059223 11.619538 61.375 13.71875 L 59.21875 16.40625 L 56.6875 14.09375 C 56.687545 14.083333 56.687545 14.072917 56.6875 14.0625 C 54.480346 12.079292 51.410299 11.418719 48.59375 12.21875 C 45.777203 13.018782 43.544061 15.217135 42.71875 18.03125 L 41.75 21.34375 L 38.5 20.15625 C 38.489583 20.156205 38.479167 20.156205 38.46875 20.15625 C 35.681894 19.161169 32.592434 19.704313 30.28125 21.53125 C 27.970067 23.358186 26.738728 26.255189 27.0625 29.1875 L 27.4375 32.5625 L 24.03125 32.71875 C 21.056379 32.854686 18.387929 34.534159 16.9375 37.125 C 15.487072 39.715842 15.519582 42.86905 16.9375 45.4375 L 18.5625 48.40625 L 15.46875 49.875 C 12.799446 51.124578 10.947901 53.681122 10.59375 56.625 C 10.239599 59.568877 11.447492 62.492145 13.75 64.34375 L 16.4375 66.5 L 14.125 69.0625 C 12.133493 71.248965 11.416144 74.319641 12.21875 77.15625 C 13.021357 79.992857 15.235763 82.238968 18.09375 83.0625 L 21.34375 84 L 20.1875 87.25 C 19.192419 90.036856 19.735563 93.126316 21.5625 95.4375 C 23.389437 97.74869 26.286444 98.980021 29.21875 98.65625 L 32.59375 98.28125 L 32.75 101.6875 C 32.885936 104.66237 34.56541 107.33082 37.15625 108.78125 C 39.747098 110.23168 42.900307 110.19916 45.46875 108.78125 L 48.46875 107.125 L 49.96875 110.28125 C 51.22784 112.94027 53.762314 114.7841 56.6875 115.125 C 59.61269 115.4659 62.549057 114.29246 64.40625 111.96875 L 66.5625 109.28125 L 69.09375 111.59375 C 71.280214 113.58526 74.350885 114.30261 77.1875 113.5 C 80.024093 112.69739 82.270218 110.48299 83.09375 107.625 L 84.03125 104.375 L 87.28125 105.53125 C 90.068109 106.52634 93.157565 105.98319 95.46875 104.15625 C 97.77993 102.32931 99.011271 99.432306 98.6875 96.5 L 98.3125 93.125 L 101.71875 92.96875 C 104.69362 92.832814 107.36207 91.15334 108.8125 88.5625 C 110.26294 85.97165 110.23041 82.818445 108.8125 80.25 L 107.1875 77.28125 L 110.28125 75.8125 C 112.95055 74.562922 114.8021 72.006391 115.15625 69.0625 C 115.51039 66.118632 114.30251 63.195357 112 61.34375 L 109.34375 59.1875 L 111.65625 56.625 C 113.64776 54.438536 114.33386 51.367865 113.53125 48.53125 C 112.72864 45.694657 110.51424 43.448532 107.65625 42.625 L 104.40625 41.6875 L 105.5625 38.4375 C 106.55759 35.650641 106.01444 32.561185 104.1875 30.25 C 102.36057 27.938827 99.46356 26.707478 96.53125 27.03125 L 93.15625 27.40625 L 93 24 C 92.864064 21.025129 91.184591 18.356679 88.59375 16.90625 C 86.002906 15.455819 82.849702 15.488331 80.28125 16.90625 L 77.3125 18.53125 L 75.84375 15.4375 C 74.479063 12.514613 71.567879 10.603073 68.34375 10.5 z "
       style="opacity:1;fill:#f0f0f0;fill-opacity:1;fill-rule:nonzero;stroke:none;stroke-width:14.7202425;stroke-linejoin:miter;stroke-miterlimit:4;stroke-dasharray:none;stroke-opacity:1"
       id="path2384"
       d="M 68.28125,12.34375 C 66.177863,12.278897 64.132482,13.229778 62.8125,14.875 L 60.65625,17.5625 C 60.338155,17.962092 59.868919,18.212283 59.359859,18.253718 C 58.8508,18.295153 58.34728,18.12414 57.96875,17.78125 L 55.4375,15.46875 C 55.437412,15.458334 55.437412,15.447916 55.4375,15.4375 C 55.42663,15.427733 55.417174,15.415936 55.40625,15.40625 C 53.683532,13.878876 51.299419,13.373487 49.09375,14 C 46.886336,14.62701 45.14506,16.362998 44.5,18.5625 L 43.53125,21.875 C 43.387902,22.365454 43.047952,22.774704 42.592113,23.005583 C 42.136275,23.236462 41.605207,23.268377 41.125,23.09375 L 38.09375,21.96875 C 38.062227,21.959171 38.030966,21.94875 38,21.9375 L 37.9375,21.9375 C 37.916472,21.927478 37.895635,21.91706 37.875,21.90625 C 37.864584,21.906338 37.854166,21.906338 37.84375,21.90625 C 35.664954,21.128284 33.259807,21.528259 31.4375,22.96875 C 29.621542,24.404222 28.653163,26.707862 28.90625,29 L 29.28125,32.34375 C 29.341125,32.853149 29.186681,33.364528 28.854842,33.755624 C 28.523004,34.146719 28.0436,34.382375 27.53125,34.40625 L 24.125,34.5625 C 21.793323,34.669045 19.707193,35.986533 18.5625,38.03125 C 17.430109,40.053995 17.448172,42.51273 18.5625,44.53125 C 18.562588,44.541666 18.562588,44.552084 18.5625,44.5625 L 20.1875,47.53125 C 20.422031,47.976928 20.464586,48.498999 20.305327,48.976776 C 20.146068,49.454553 19.798782,49.846676 19.34375,50.0625 L 16.25,51.53125 C 16.250088,51.541666 16.250088,51.552084 16.25,51.5625 C 14.160231,52.540781 12.715555,54.532421 12.4375,56.84375 C 12.160213,59.148697 13.098136,61.452222 14.90625,62.90625 L 17.59375,65.0625 C 17.993342,65.380595 18.243533,65.849831 18.284968,66.358891 C 18.326403,66.86795 18.15539,67.37147 17.8125,67.75 L 15.5,70.3125 C 13.939863,72.025366 13.3711,74.433563 14,76.65625 C 14.6297,78.881763 16.350942,80.634983 18.59375,81.28125 L 21.84375,82.21875 C 22.339933,82.355228 22.756775,82.692347 22.994005,83.149015 C 23.231235,83.605683 23.267382,84.140567 23.09375,84.625 L 21.9375,87.875 C 21.159534,90.053796 21.559509,92.458943 23,94.28125 C 24.435472,96.097212 26.739114,97.065586 29.03125,96.8125 L 32.375,96.4375 C 32.884399,96.377625 33.395778,96.532069 33.786874,96.863908 C 34.177969,97.195746 34.413625,97.67515 34.4375,98.1875 L 34.59375,101.59375 C 34.700295,103.92543 36.017783,106.01156 38.0625,107.15625 C 40.085249,108.28864 42.543985,108.27057 44.5625,107.15625 L 47.5625,105.5 C 48.011106,105.25508 48.541094,105.20681 49.026565,105.36666 C 49.512036,105.52651 49.909667,105.88021 50.125,106.34375 L 51.625,109.5 C 52.61492,111.59057 54.620341,113.01485 56.90625,113.28125 C 59.205713,113.54923 61.515341,112.631 62.96875,110.8125 L 65.125,108.125 C 65.443095,107.72541 65.912331,107.47522 66.421391,107.43378 C 66.93045,107.39235 67.43397,107.56336 67.8125,107.90625 L 70.34375,110.21875 C 72.056616,111.77889 74.464806,112.34765 76.6875,111.71875 C 78.913003,111.08905 80.666234,109.3678 81.3125,107.125 L 82.25,103.875 C 82.386478,103.37882 82.723597,102.96198 83.180265,102.72475 C 83.636933,102.48752 84.171817,102.45137 84.65625,102.625 L 87.90625,103.78125 C 90.085047,104.55922 92.490189,104.15925 94.3125,102.71875 C 96.128458,101.28327 97.096836,98.979632 96.84375,96.6875 L 96.46875,93.34375 C 96.408875,92.834351 96.563319,92.322972 96.895158,91.931876 C 97.226996,91.540781 97.7064,91.305125 98.21875,91.28125 L 101.625,91.125 C 103.95668,91.018455 106.04281,89.700967 107.1875,87.65625 C 108.3199,85.633502 108.30182,83.174772 107.1875,81.15625 C 107.18741,81.145834 107.18741,81.135416 107.1875,81.125 L 105.5625,78.15625 C 105.32797,77.710572 105.28541,77.188501 105.44467,76.710724 C 105.60393,76.232947 105.95122,75.840824 106.40625,75.625 L 109.5,74.15625 C 109.49991,74.145834 109.49991,74.135416 109.5,74.125 C 111.58977,73.146717 113.03445,71.155091 113.3125,68.84375 C 113.58978,66.538806 112.65186,64.235277 110.84375,62.78125 L 108.1875,60.625 C 107.78791,60.306905 107.53772,59.837669 107.49628,59.328609 C 107.45485,58.81955 107.62586,58.31603 107.96875,57.9375 L 110.28125,55.375 C 111.83491,53.669251 112.38233,51.266039 111.75,49.03125 C 111.1203,46.805747 109.39905,45.052516 107.15625,44.40625 L 103.90625,43.46875 C 103.41007,43.332272 102.99323,42.995153 102.756,42.538485 C 102.51877,42.081817 102.48262,41.546933 102.65625,41.0625 L 103.8125,37.8125 C 104.59047,35.633703 104.1905,33.228561 102.75,31.40625 C 101.31453,29.590303 99.010883,28.621913 96.71875,28.875 L 93.375,29.25 C 92.865601,29.309875 92.354222,29.155431 91.963126,28.823592 C 91.572031,28.491754 91.336375,28.01235 91.3125,27.5 L 91.15625,24.09375 C 91.049705,21.762073 89.732217,19.675943 87.6875,18.53125 C 85.664753,17.398856 83.206024,17.41692 81.1875,18.53125 C 81.177084,18.531338 81.166666,18.531338 81.15625,18.53125 L 78.1875,20.15625 C 77.741822,20.390781 77.219751,20.433336 76.741974,20.274077 C 76.264197,20.114818 75.872074,19.767532 75.65625,19.3125 L 74.1875,16.21875 C 74.177084,16.218838 74.166666,16.218838 74.15625,16.21875 C 73.087188,13.929034 70.81138,12.424636 68.28125,12.34375 z"
       transform="matrix(1.245315,0,0,1.245315,-14.308967,-14.262659)" />
    <path
       sodipodi:type="star"
       style="opacity:1;fill:#22ad93;fill-opacity:1;fill-rule:nonzero;stroke:none;stroke-width:14.7202425;stroke-linejoin:miter;stroke-miterlimit:4;stroke-dasharray:none;stroke-opacity:1"
       id="path2277"
       sodipodi:sides="16"
       sodipodi:cx="62.881996"
       sodipodi:cy="62.845161"
       sodipodi:r1="44.05542"
       sodipodi:r2="34.067142"
       sodipodi:arg1="0.9032173"
       sodipodi:arg2="1.0995668"
       inkscape:flatsided="false"
       inkscape:rounded="0"
       inkscape:randomized="0"
       d="M 90.156114,97.442885 L 78.347871,93.199353 L 74.84002,105.24664 L 65.554555,96.807311 L 57.703425,106.59516 L 52.354367,95.244841 L 41.35522,101.28314 L 40.756914,88.749812 L 28.284272,90.11928 L 32.527805,78.311036 L 20.480514,74.803185 L 28.919846,65.51772 L 19.131997,57.66659 L 30.482317,52.317532 L 24.444021,41.318386 L 36.977345,40.720079 L 35.607878,28.247438 L 47.416122,32.49097 L 50.923972,20.443679 L 60.209437,28.883012 L 68.060567,19.095162 L 73.409626,30.445482 L 84.408772,24.407186 L 85.007078,36.94051 L 97.47972,35.571043 L 93.236187,47.379287 L 105.28348,50.887138 L 96.844146,60.172603 L 106.632,68.023733 L 95.281675,73.372791 L 101.31997,84.371937 L 88.786647,84.970243 L 90.156114,97.442885 z"
       transform="matrix(1.245315,0,0,1.245315,-14.308967,-14.262659)" />
    <path
       sodipodi:type="inkscape:offset"
       inkscape:radius="-2.7217393"
       inkscape:original="M 67.0625 27.4375 L 63.6875 31.65625 C 62.919101 32.616 61.788297 33.217752 60.5625 33.3125 C 59.336702 33.407247 58.125508 32.986519 57.21875 32.15625 L 53.1875 28.5 L 51.65625 33.75 C 51.312714 34.922249 50.494067 35.913017 49.40625 36.46875 C 48.318432 37.024484 47.057419 37.09615 45.90625 36.6875 L 40.78125 34.84375 L 41.375 40.21875 C 41.513051 41.436864 41.136679 42.658804 40.34375 43.59375 C 39.550822 44.528696 38.411808 45.093554 37.1875 45.15625 L 31.75 45.40625 L 34.375 50.1875 C 34.964679 51.261947 35.09744 52.521845 34.71875 53.6875 C 34.340062 54.853154 33.48356 55.821016 32.375 56.34375 L 27.46875 58.65625 L 31.6875 62.0625 C 32.64725 62.830899 33.249002 63.961703 33.34375 65.1875 C 33.438497 66.413294 33.017769 67.624492 32.1875 68.53125 L 28.5625 72.53125 L 33.78125 74.03125 C 34.961094 74.373965 35.943455 75.185922 36.5 76.28125 C 37.056546 77.376581 37.137585 78.657484 36.71875 79.8125 L 34.875 84.9375 L 40.25 84.34375 C 41.468114 84.205699 42.690054 84.582071 43.625 85.375 C 44.559946 86.167928 45.124804 87.306942 45.1875 88.53125 L 45.4375 93.96875 L 50.21875 91.34375 C 51.290317 90.764498 52.560809 90.653147 53.71875 91.03125 C 54.876691 91.40935 55.820512 92.243745 56.34375 93.34375 L 58.6875 98.28125 L 62.09375 94.03125 C 62.862149 93.0715 63.992953 92.469748 65.21875 92.375 C 66.444544 92.28025 67.655742 92.700981 68.5625 93.53125 L 72.5625 97.15625 L 74.0625 91.9375 C 74.405215 90.757656 75.217172 89.775295 76.3125 89.21875 C 77.407831 88.662204 78.688734 88.581165 79.84375 89 L 84.96875 90.84375 L 84.375 85.46875 C 84.236949 84.250636 84.613321 83.028696 85.40625 82.09375 C 86.199178 81.158804 87.338192 80.593946 88.5625 80.53125 L 94 80.28125 L 91.375 75.5 C 90.785321 74.425553 90.65256 73.165655 91.03125 72 C 91.409938 70.834346 92.26644 69.866484 93.375 69.34375 L 98.28125 67.03125 L 94.0625 63.65625 C 93.112553 62.888275 92.532093 61.749132 92.4375 60.53125 C 92.342908 59.313367 92.742527 58.124195 93.5625 57.21875 L 97.21875 53.1875 L 92 51.65625 C 90.820156 51.313535 89.837795 50.501578 89.28125 49.40625 C 88.724704 48.310923 88.643665 47.030016 89.0625 45.875 L 90.90625 40.75 L 85.5 41.34375 C 84.281886 41.481801 83.059946 41.105429 82.125 40.3125 C 81.190054 39.519572 80.625196 38.380558 80.5625 37.15625 L 80.3125 31.71875 L 75.53125 34.34375 C 74.456803 34.933429 73.196905 35.06619 72.03125 34.6875 C 70.865596 34.308812 69.897734 33.45231 69.375 32.34375 L 67.0625 27.4375 z "
       style="opacity:1;fill:#cc6666;fill-opacity:1;fill-rule:nonzero;stroke:none;stroke-width:14.7202425;stroke-linejoin:miter;stroke-miterlimit:4;stroke-dasharray:none;stroke-opacity:1"
       id="path2386"
       d="M 66.46875,32.53125 L 65.8125,33.34375 C 64.576768,34.88721 62.761639,35.878176 60.78125,36.03125 C 58.800861,36.184322 56.834315,35.492465 55.375,34.15625 L 54.59375,33.4375 L 54.28125,34.5 C 53.725931,36.394915 52.418507,38.005966 50.65625,38.90625 C 48.89399,39.806536 46.836224,39.901836 45,39.25 L 43.96875,38.875 L 44.09375,39.90625 C 44.31707,41.876748 43.681031,43.84065 42.40625,45.34375 C 41.131469,46.846851 39.28457,47.774012 37.3125,47.875 L 36.21875,47.9375 L 36.75,48.875 C 37.688546,50.585112 37.927015,52.639697 37.3125,54.53125 C 36.697986,56.422808 35.322884,57.967667 33.53125,58.8125 L 32.5625,59.25 L 33.40625,59.9375 C 34.94971,61.173232 35.909426,62.988361 36.0625,64.96875 C 36.215573,66.949138 35.523718,68.915682 34.1875,70.375 L 33.53125,71.125 L 34.53125,71.40625 C 36.428305,71.957297 38.041112,73.298333 38.9375,75.0625 C 39.833887,76.826667 39.958285,78.882949 39.28125,80.75 L 38.9375,81.75 L 39.9375,81.625 C 41.907998,81.40168 43.8719,82.037719 45.375,83.3125 C 46.878101,84.587281 47.805262,86.43418 47.90625,88.40625 L 47.96875,89.5 L 48.90625,88.96875 C 48.916582,88.958249 48.926999,88.947832 48.9375,88.9375 C 50.672398,87.999674 52.696246,87.828111 54.5625,88.4375 C 56.428763,89.046887 57.973239,90.423118 58.8125,92.1875 L 59.28125,93.1875 L 59.96875,92.34375 C 61.204482,90.80029 63.019611,89.809324 65,89.65625 C 66.980396,89.503172 68.946935,90.195034 70.40625,91.53125 L 71.15625,92.1875 L 71.4375,91.1875 C 71.988547,89.290445 73.329583,87.677638 75.09375,86.78125 C 76.857917,85.884863 78.914199,85.760465 80.78125,86.4375 L 81.78125,86.78125 L 81.65625,85.78125 C 81.43293,83.810752 82.068969,81.84685 83.34375,80.34375 C 84.618531,78.840649 86.46543,77.913488 88.4375,77.8125 L 89.53125,77.75 L 89,76.8125 C 88.061454,75.102388 87.822985,73.047803 88.4375,71.15625 C 89.052014,69.264692 90.427116,67.719833 92.21875,66.875 L 93.1875,66.4375 L 92.375,65.78125 C 92.364583,65.78131 92.354167,65.78131 92.34375,65.78125 C 90.792055,64.526798 89.869763,62.694292 89.71875,60.75 C 89.567739,58.80571 90.21071,56.86444 91.53125,55.40625 L 92.28125,54.59375 L 91.21875,54.28125 C 89.321695,53.730203 87.740138,52.389167 86.84375,50.625 C 85.947359,48.860831 85.822964,46.804553 86.5,44.9375 L 86.84375,43.9375 L 85.8125,44.0625 C 83.842002,44.28582 81.8781,43.649781 80.375,42.375 C 78.871899,41.100219 77.944738,39.25332 77.84375,37.28125 L 77.78125,36.1875 L 76.84375,36.71875 C 75.133638,37.657296 73.079053,37.895765 71.1875,37.28125 C 69.295942,36.666736 67.751083,35.291634 66.90625,33.5 L 66.46875,32.53125 z"
       transform="matrix(1.245315,0,0,1.245315,-14.308967,-14.262659)" />
    <path
       transform="matrix(1.245315,0,0,1.245315,-14.308967,-14.262659)"
       d="M 65.15625,43.84375 C 62.748013,44.628565 60.186119,44.82151 57.6875,44.40625 C 55.76825,46.074748 53.473814,47.254131 51,47.84375 C 49.860319,50.088951 48.199394,52.028483 46.15625,53.5 C 45.973666,56.012913 45.191395,58.445454 43.875,60.59375 C 44.649745,62.982455 44.842598,65.521687 44.4375,68 C 46.094747,69.922433 47.263279,72.216616 47.84375,74.6875 C 50.103752,75.831901 52.054665,77.504112 53.53125,79.5625 C 56.033425,79.749989 58.454695,80.532081 60.59375,81.84375 C 62.999437,81.048473 65.561378,80.844804 68.0625,81.25 C 69.979122,79.608433 72.26184,78.450999 74.71875,77.875 C 75.863151,75.614998 77.535362,73.664085 79.59375,72.1875 C 79.781239,69.685325 80.563331,67.264055 81.875,65.125 C 81.085117,62.707003 80.892124,60.133767 81.3125,57.625 C 79.664103,55.720514 78.496074,53.448752 77.90625,51 C 75.646248,49.855599 73.695335,48.183388 72.21875,46.125 C 69.716575,45.937511 67.295305,45.155419 65.15625,43.84375 L 65.15625,43.84375 z"
       id="path3155"
       style="opacity:1;fill:#22ad93;fill-opacity:1;fill-rule:nonzero;stroke:none;stroke-width:14.7202425;stroke-linejoin:miter;stroke-miterlimit:4;stroke-dasharray:none;stroke-opacity:1"
       inkscape:original="M 68.0625 19.09375 L 60.21875 28.875 L 50.9375 20.4375 L 47.40625 32.5 L 35.59375 28.25 L 36.96875 40.71875 L 24.4375 41.3125 L 30.46875 52.3125 L 19.125 57.65625 L 28.90625 65.53125 L 20.46875 74.8125 L 32.53125 78.3125 L 28.28125 90.125 L 40.75 88.75 L 41.34375 101.28125 L 52.34375 95.25 L 57.71875 106.59375 L 65.5625 96.8125 L 74.84375 105.25 L 78.34375 93.1875 L 90.15625 97.4375 L 88.78125 84.96875 L 101.3125 84.375 L 95.28125 73.375 L 106.625 68.03125 L 96.84375 60.1875 L 105.28125 50.875 L 93.25 47.375 L 97.46875 35.5625 L 85 36.9375 L 84.40625 24.40625 L 73.40625 30.4375 L 68.0625 19.09375 z "
       inkscape:radius="-15.76205"
       sodipodi:type="inkscape:offset" />
  </g>
</svg>
