<?xml version="1.0" encoding="UTF-8" standalone="no"?>
<!-- Created with Inkscape (http://www.inkscape.org/) -->
<svg
   xmlns:dc="http://purl.org/dc/elements/1.1/"
   xmlns:cc="http://creativecommons.org/ns#"
   xmlns:rdf="http://www.w3.org/1999/02/22-rdf-syntax-ns#"
   xmlns:svg="http://www.w3.org/2000/svg"
   xmlns="http://www.w3.org/2000/svg"
   xmlns:sodipodi="http://sodipodi.sourceforge.net/DTD/sodipodi-0.dtd"
   xmlns:inkscape="http://www.inkscape.org/namespaces/inkscape"
   width="48px"
   height="48px"
   id="svg1306"
   sodipodi:version="0.32"
   inkscape:version="0.46"
   sodipodi:docbase="/home/qwerty/.icons/MonoIce/scalable/status"
   sodipodi:docname="weather-few-clouds.svg"
   inkscape:output_extension="org.inkscape.output.svg.inkscape">
  <defs
     id="defs1308">
    <inkscape:perspective
       sodipodi:type="inkscape:persp3d"
       inkscape:vp_x="0 : 24 : 1"
       inkscape:vp_y="0 : 1000 : 0"
       inkscape:vp_z="48 : 24 : 1"
       inkscape:persp3d-origin="24 : 16 : 1"
       id="perspective31" />
    <linearGradient
       id="linearGradient5142">
      <stop
         style="stop-color:#f1ff74;stop-opacity:1;"
         offset="0"
         id="stop5144" />
      <stop
         style="stop-color:#ffc10f;stop-opacity:1;"
         offset="1"
         id="stop5146" />
    </linearGradient>
    <linearGradient
       id="linearGradient5134">
      <stop
         style="stop-color:#ffdf1a;stop-opacity:1;"
         offset="0"
         id="stop5136" />
      <stop
         style="stop-color:#fff9ce;stop-opacity:1;"
         offset="1"
         id="stop5138" />
    </linearGradient>
    <linearGradient
       id="linearGradient5115">
      <stop
         style="stop-color:white;stop-opacity:0;"
         offset="0"
         id="stop5117" />
      <stop
         id="stop5123"
         offset="0.83783782"
         style="stop-color:#f6e97f;stop-opacity:0.35922331;" />
      <stop
         style="stop-color:#edd400;stop-opacity:1;"
         offset="1"
         id="stop5119" />
    </linearGradient>
    <linearGradient
       id="linearGradient5101">
      <stop
         style="stop-color:white;stop-opacity:1;"
         offset="0"
         id="stop5103" />
      <stop
         style="stop-color:#edd400;stop-opacity:0.1262136;"
         offset="1"
         id="stop5105" />
    </linearGradient>
    <linearGradient
       id="linearGradient3389">
      <stop
         id="stop3391"
         offset="0"
         style="stop-color:white;stop-opacity:1" />
      <stop
         style="stop-color:white;stop-opacity:1;"
         offset="0.26506025"
         id="stop3397" />
      <stop
         id="stop3393"
         offset="1"
         style="stop-color:#babdb6;stop-opacity:1" />
    </linearGradient>
    <linearGradient
       id="linearGradient3171">
      <stop
         id="stop3173"
         offset="0"
         style="stop-color:white;stop-opacity:1" />
      <stop
         style="stop-color:white;stop-opacity:1;"
         offset="0.26506025"
         id="stop3175" />
      <stop
         id="stop3177"
         offset="1"
         style="stop-color:#babdb6;stop-opacity:1" />
    </linearGradient>
  </defs>
  <sodipodi:namedview
     id="base"
     pagecolor="#f0f0f0"
     bordercolor="#666"
     borderopacity="0.34117647"
     inkscape:pageopacity="0.0"
     inkscape:pageshadow="2"
     inkscape:zoom="8"
     inkscape:cx="26.29253"
     inkscape:cy="22.34092"
     inkscape:current-layer="layer1"
     showgrid="true"
     inkscape:grid-bbox="true"
     inkscape:document-units="px"
     inkscape:window-width="822"
     inkscape:window-height="900"
     inkscape:window-x="456"
     inkscape:window-y="71"
     inkscape:showpageshadow="false"
     objecttolerance="10000"
     gridtolerance="10000"
     guidetolerance="10000" />
  <metadata
     id="metadata1311">
    <rdf:RDF>
      <cc:Work
         rdf:about="">
        <dc:format>image/svg+xml</dc:format>
        <dc:type
           rdf:resource="http://purl.org/dc/dcmitype/StillImage" />
        <cc:license
           rdf:resource="" />
      </cc:Work>
    </rdf:RDF>
  </metadata>
  <g
     id="layer1"
     inkscape:label="Layer 1"
     inkscape:groupmode="layer">
    <path
       sodipodi:type="inkscape:offset"
       inkscape:radius="2.4270611"
       inkscape:original="M 27.40625 20 C 26.626116 20 26.000001 20.599927 26 21.375 C 26 21.458683 26.005919 21.571453 26.03125 21.6875 L 26.3125 22.84375 L 25.125 22.90625 C 22.296305 23.035673 19.875173 24.581471 18.53125 26.875 L 17.96875 27.8125 L 17.09375 27.1875 C 16.644309 26.873041 16.047683 26.6875 15.4375 26.6875 C 15.248438 26.687499 15.032413 26.739768 14.75 26.8125 L 13.59375 27.09375 L 13.03125 28.0625 C 12.780511 28.487281 12.625 28.98635 12.625 29.5 C 12.625 29.580514 12.626653 29.707764 12.65625 29.90625 L 12.96875 32.03125 L 11.15625 30.9375 C 10.715909 30.672444 10.236866 30.5 9.71875 30.5 C 8.5687666 30.499999 7.603331 31.179318 7.15625 32.15625 L 6.625 33.3125 L 7.15625 34.46875 C 7.6033307 35.445681 8.5687661 36.124999 9.71875 36.125 C 10.327616 36.124999 10.896513 35.940444 11.375 35.59375 L 12.4375 34.8125 L 12.875 36.03125 C 13.412142 37.476585 14.776367 38.53125 16.40625 38.53125 C 17.477676 38.531249 18.425963 38.072521 19.125 37.34375 L 19.75 36.6875 L 20.46875 37.25 C 21.852313 38.351324 23.588406 39 25.5 39 C 28.001751 38.999999 30.234045 37.841015 31.71875 36.0625 L 32.375 35.28125 L 33.15625 35.96875 C 33.918928 36.660527 34.895596 37.09375 36 37.09375 C 37.201019 37.09375 38.28074 36.58655 39.0625 35.78125 L 39.65625 35.15625 L 40.375 35.6875 C 40.773242 35.978764 41.237449 36.125 41.75 36.125 C 42.481453 36.124999 43.124818 35.810411 43.5625 35.28125 L 44.0625 34.65625 L 44.09375 33.84375 C 44.093604 33.849293 44.093751 33.828503 44.09375 33.78125 C 44.09375 32.479265 43.05815 31.46875 41.75 31.46875 C 41.518017 31.46875 41.281721 31.49577 41.0625 31.5625 L 40.21875 31.8125 L 39.875 31.03125 C 39.329538 29.883929 38.240411 29.01751 36.96875 28.71875 L 35.8125 28.4375 L 36.28125 27.34375 C 36.38703 27.094322 36.437501 26.861841 36.4375 26.625 C 36.437501 25.586474 35.606646 24.78125 34.5625 24.78125 C 33.939503 24.78125 33.398697 25.055157 33.0625 25.5 L 32.34375 26.46875 L 31.53125 25.5625 C 30.822859 24.770489 29.925466 24.125342 28.9375 23.65625 L 27.875 23.15625 L 28.5625 22.1875 C 28.706665 21.979246 28.781251 21.676066 28.78125 21.375 C 28.78125 20.599928 28.186385 20 27.40625 20 z M 12.5625 24.78125 C 12.046372 24.78125 11.65625 25.175879 11.65625 25.6875 C 11.65625 26.134135 11.979568 26.506737 12.375 26.59375 L 13.40625 26.8125 L 13.5 25.75 C 13.495838 25.803467 13.5 25.788751 13.5 25.6875 C 13.5 25.175879 13.078625 24.78125 12.5625 24.78125 z M 4.4375 31.9375 C 3.6573752 31.937499 3.0625 32.53744 3.0625 33.3125 C 3.0625 34.087558 3.6573753 34.71875 4.4375 34.71875 C 4.8648805 34.718749 5.2453397 34.538667 5.5 34.25 L 6.3125 33.3125 L 5.5 32.40625 C 5.2453391 32.117583 4.8648789 31.9375 4.4375 31.9375 z M 45.5625 34.78125 C 45.552072 34.78125 45.511781 34.817967 45.4375 34.84375 L 44.96875 35 L 45.1875 35.4375 C 45.262611 35.57542 45.384558 35.65625 45.5625 35.65625 C 45.81461 35.65625 46.000002 35.466909 46 35.21875 C 46 34.970584 45.814612 34.78125 45.5625 34.78125 z "
       style="fill:#f0f0f0;fill-opacity:1;stroke:none;stroke-width:2;stroke-linecap:round;stroke-linejoin:miter;stroke-miterlimit:4;stroke-dasharray:none;stroke-dashoffset:1.20000057;stroke-opacity:1"
       id="path2410"
       d="M 27.40625,17.5625 C 25.619434,17.5625 24.074152,18.941284 23.71875,20.6875 C 21.085557,21.140519 18.82103,22.559169 17.25,24.59375 C 16.722562,24.406653 16.167828,24.296939 15.59375,24.28125 C 15.034695,23.140555 13.83876,22.34375 12.5625,22.34375 C 10.809226,22.34375 9.21875,23.942088 9.21875,25.6875 C 9.21875,26.754344 9.7998908,27.575671 10.5625,28.1875 C 10.550735,28.228923 10.542019,28.270555 10.53125,28.3125 C 10.2371,28.254464 10.039657,28.0625 9.71875,28.0625 C 8.2351765,28.062499 7.0195581,28.841267 6.0625,29.84375 C 5.5671552,29.619669 5.000893,29.5 4.4375,29.5 C 2.4130484,29.499997 0.625,31.295559 0.625,33.3125 C 0.625,35.329442 2.3482329,37.15625 4.4375,37.15625 C 5.0071926,37.156249 5.5594556,37.013933 6.0625,36.78125 C 7.0191118,37.782758 8.2351791,38.562499 9.71875,38.5625 C 10.277841,38.562499 10.845224,38.454809 11.375,38.28125 C 12.49223,39.871201 14.307972,40.96875 16.40625,40.96875 C 17.757561,40.968749 18.927053,40.420251 19.9375,39.6875 C 21.567849,40.724892 23.431152,41.4375 25.5,41.4375 C 28.284018,41.437499 30.68644,40.167913 32.5625,38.40625 C 33.569232,39.042557 34.692581,39.53125 36,39.53125 C 37.545471,39.53125 38.901646,38.880232 40.03125,38 C 40.604112,38.226758 41.153781,38.5625 41.75,38.5625 C 42.693688,38.562499 43.5424,38.190473 44.3125,37.6875 C 44.7255,37.905149 45.165699,38.09375 45.5625,38.09375 C 47.0298,38.09375 48.437512,36.675708 48.4375,35.21875 C 48.4375,34.029609 47.421265,33.072365 46.28125,32.6875 C 45.756554,30.626238 43.92802,29.03125 41.75,29.03125 C 41.62857,29.03125 41.472539,29.084809 41.34375,29.09375 C 40.679408,28.167583 39.841009,27.453371 38.8125,26.96875 C 38.8238,26.848748 38.875001,26.745103 38.875,26.625 C 38.875002,24.291987 36.854446,22.34375 34.5625,22.34375 C 33.720599,22.34375 32.94805,22.675941 32.25,23.125 C 31.842518,22.780672 31.419216,22.464386 30.96875,22.1875 C 31.014719,21.921985 31.218751,21.636267 31.21875,21.375 C 31.21875,19.358088 29.430667,17.5625 27.40625,17.5625 z"
       transform="matrix(0.8111298,0,0,0.8111298,4.5269656,4.5319628)" />
    <path
       sodipodi:type="inkscape:offset"
       inkscape:radius="3.1324911"
       inkscape:original="M 25.59375 -2 L 21.5 11.25 C 21.256097 11.297621 21.020101 11.376372 20.78125 11.4375 L 11.15625 1.4375 L 14.875 14.78125 C 14.693262 14.961474 14.514688 15.153148 14.34375 15.34375 L 0.875 12.125 L 11.28125 21.4375 C 11.237235 21.654905 11.189243 21.872613 11.15625 22.09375 L -2 26.71875 L 9.375 28.53125 C 9.4872391 28.521939 9.6032503 28.5 9.71875 28.5 C 10.005735 28.5 10.253996 28.59062 10.5 28.6875 L 10.84375 28.75 C 10.891237 28.479993 10.940373 28.222251 11.03125 27.96875 C 10.259072 27.437924 9.6562499 26.680189 9.65625 25.6875 C 9.65625 24.091477 10.966535 22.78125 12.5625 22.78125 C 13.79456 22.78125 14.671722 23.658854 15.09375 24.75 C 15.219269 24.736445 15.300236 24.6875 15.4375 24.6875 C 16.102204 24.6875 16.663055 25.004743 17.25 25.25 C 18.807371 23.011853 21.24435 21.470161 24.0625 21.0625 C 24.229505 19.354474 25.656663 18 27.40625 18 C 29.266226 18 30.781251 19.515522 30.78125 21.375 C 30.78125 21.728819 30.57014 22.015328 30.46875 22.34375 C 31.110174 22.71196 31.703521 23.158241 32.25 23.65625 C 32.911543 23.14848 33.676422 22.78125 34.5625 22.78125 C 36.686487 22.78125 38.437503 24.502066 38.4375 26.625 C 38.4375 26.8442 38.34931 27.016079 38.3125 27.21875 C 39.49978 27.707665 40.466593 28.496151 41.15625 29.5625 C 41.355293 29.533958 41.542119 29.46875 41.75 29.46875 C 42.320796 29.46875 42.853575 29.607995 43.34375 29.8125 L 50 29.46875 L 36.96875 23.25 C 36.965696 23.197554 36.972428 23.146031 36.96875 23.09375 L 48.65625 14.65625 L 34.59375 16.46875 C 34.520917 16.366865 34.419416 16.28718 34.34375 16.1875 L 39.5625 2.9375 L 28.875 11.96875 C 28.683597 11.890932 28.47702 11.818819 28.28125 11.75 L 25.59375 -2 z M 6.46875 36.625 L 3.4375 40.53125 L 9.03125 38.0625 C 8.0180409 37.892172 7.1630017 37.343183 6.46875 36.625 z M 39.96875 37.53125 C 39.083879 38.277896 38.008203 38.847643 36.8125 39.03125 L 43.125 42.625 L 39.96875 37.53125 z M 19.90625 39.1875 C 18.930262 39.962294 17.757687 40.531249 16.40625 40.53125 C 16.354488 40.53125 16.301383 40.532667 16.25 40.53125 L 15.46875 49.21875 L 21.5 40.09375 C 20.939215 39.834462 20.413768 39.530851 19.90625 39.1875 z M 30.4375 39.5625 C 29.008766 40.436986 27.390456 40.981328 25.59375 41 L 30.28125 50 L 30.4375 39.5625 z "
       style="opacity:1;fill:#f0f0f0;fill-opacity:1;fill-rule:evenodd;stroke:none;stroke-width:1.9099139;stroke-linecap:round;stroke-linejoin:miter;marker:none;marker-start:none;marker-mid:none;marker-end:none;stroke-miterlimit:4;stroke-dasharray:none;stroke-dashoffset:0;stroke-opacity:1;visibility:visible;display:inline;overflow:visible"
       id="path2406"
       d="M 25.53125,-5.125 C 24.183437,-5.1037422 23.000327,-4.2227028 22.59375,-2.9375 L 19.84375,5.9375 L 13.40625,-0.75 C 12.411326,-1.7992724 10.82752,-2.0312936 9.5734334,-1.3114924 C 8.3193466,-0.59169114 7.7208216,0.89291028 8.125,2.28125 L 10.625,11.25 L 1.59375,9.09375 C 0.20276735,8.7692098 -1.2316272,9.4266202 -1.8938377,10.692178 C -2.5560481,11.957736 -2.2783943,13.510985 -1.21875,14.46875 L 5.71875,20.6875 L -3.03125,23.75 C -4.3976307,24.214361 -5.2700204,25.552046 -5.1440432,26.989668 C -5.0180661,28.42729 -3.9263188,29.592861 -2.5,29.8125 L 8.875,31.625 C 9.0817682,31.65625 9.2911458,31.666719 9.5,31.65625 C 9.5208328,31.656458 9.5416672,31.656458 9.5625,31.65625 C 9.6847441,31.705769 9.8099933,31.747519 9.9375,31.78125 L 10.28125,31.84375 C 11.106732,31.99557 11.958612,31.809802 12.645939,31.328085 C 13.333266,30.846369 13.798552,30.108996 13.9375,29.28125 C 13.980041,29.039366 13.984443,28.987476 13.96875,29.03125 C 14.119795,28.621885 14.183659,28.185481 14.15625,27.75 C 14.570075,27.879912 15.006368,27.922477 15.4375,27.875 C 15.505631,27.867642 15.477186,27.880577 15.53125,27.875 C 15.385784,27.87791 15.349369,27.840074 16.03125,28.125 C 17.39195,28.696622 18.967075,28.241008 19.8125,27.03125 C 20.880015,25.497091 22.536105,24.440338 24.5,24.15625 C 25.929474,23.958778 27.03914,22.810402 27.1875,21.375 C 27.201918,21.227541 27.273379,21.125 27.40625,21.125 C 27.485446,21.125 27.490422,21.209123 27.53125,21.25 C 27.50688,21.336022 27.503504,21.293674 27.46875,21.40625 C 27.029274,22.811371 27.627491,24.332924 28.90625,25.0625 C 29.323258,25.301884 29.724245,25.60354 30.125,25.96875 C 31.244178,27.003684 32.945839,27.082831 34.15625,26.15625 C 34.471347,25.914396 34.541917,25.90625 34.5625,25.90625 C 34.957807,25.90625 35.202926,26.211528 35.25,26.5625 C 35.240585,26.617526 35.231286,26.587226 35.21875,26.65625 C 34.950801,28.118311 35.747142,29.567391 37.125,30.125 C 37.769446,30.390379 38.184184,30.713365 38.53125,31.25 C 39.191561,32.27464 40.386267,32.823229 41.59375,32.65625 C 42.183747,32.571647 42.197184,32.59375 41.75,32.59375 C 41.811351,32.59375 41.912905,32.630262 42.125,32.71875 C 42.561123,32.89388 43.031061,32.968643 43.5,32.9375 L 50.15625,32.59375 C 51.573539,32.504962 52.753844,31.473959 53.032343,30.081469 C 53.310841,28.688978 52.617867,27.283319 51.34375,26.65625 L 42.9375,22.65625 L 50.5,17.1875 C 51.642218,16.339806 52.069989,14.828986 51.54172,13.508312 C 51.01345,12.187638 49.66174,11.388611 48.25,11.5625 L 39.0625,12.75 L 42.46875,4.09375 C 43.013861,2.7551441 42.57245,1.217356 41.40035,0.37166394 C 40.228251,-0.47402808 38.629723,-0.40809475 37.53125,0.53125 L 30.4375,6.53125 L 28.65625,-2.59375 C 28.365075,-4.0829726 27.048475,-5.1494184 25.53125,-5.125 z M 6.15625,33.5 C 5.3006024,33.592813 4.5208238,34.033557 4,34.71875 L 0.96875,38.625 C 0.1071827,39.755758 0.11498558,41.32489 0.98775591,42.447023 C 1.8605262,43.569156 3.3794568,43.962967 4.6875,43.40625 L 10.28125,40.9375 C 11.558859,40.389175 12.32225,39.064423 12.156032,37.68409 C 11.989814,36.303758 10.933756,35.198101 9.5625,34.96875 C 9.3503575,34.933087 9.0741506,34.805151 8.71875,34.4375 C 8.0526866,33.749895 7.1087908,33.404567 6.15625,33.5 z M 39.71875,34.40625 C 39.064388,34.453412 38.441344,34.704816 37.9375,35.125 C 37.408634,35.571252 36.857134,35.858667 36.34375,35.9375 C 35.027139,36.136967 33.980499,37.146953 33.734244,38.455621 C 33.48799,39.764288 34.09594,41.085622 35.25,41.75 L 41.5625,45.34375 C 42.808263,46.059831 44.381456,45.836622 45.378863,44.802274 C 46.37627,43.767926 46.542143,42.187659 45.78125,40.96875 L 42.625,35.875 C 42.006773,34.880856 40.885833,34.31436 39.71875,34.40625 z M 19.5625,36.0625 C 18.980341,36.127934 18.428192,36.35529 17.96875,36.71875 C 17.364793,37.198205 16.878502,37.40625 16.40625,37.40625 C 16.297319,37.40625 16.278156,37.404441 16.34375,37.40625 C 14.687624,37.353802 13.277052,38.600035 13.125,40.25 L 12.34375,48.9375 C 12.205261,50.375682 13.068297,51.722048 14.432939,52.196706 C 15.797581,52.671364 17.309848,52.151191 18.09375,50.9375 L 23.21875,43.1875 L 27.5,51.4375 C 28.162596,52.701035 29.595231,53.357284 30.9848,53.033786 C 32.37437,52.710289 33.369851,51.488764 33.40625,50.0625 L 33.5625,39.625 C 33.575467,38.48885 32.972251,37.434738 31.986132,36.870314 C 31.000012,36.30589 29.785586,36.319642 28.8125,36.90625 C 27.788413,37.533063 26.74616,37.862699 25.5625,37.875 C 25.036316,37.882286 24.520444,38.022001 24.0625,38.28125 C 23.743488,37.833821 23.312399,37.478173 22.8125,37.25 C 22.420646,37.06882 22.042496,36.855057 21.65625,36.59375 C 21.043384,36.174048 20.301327,35.985765 19.5625,36.0625 z"
       transform="matrix(0.8111298,0,0,0.8111298,4.5269656,4.5319628)" />
    <path
       style="opacity:1;fill:#373b41;fill-opacity:1;fill-rule:evenodd;stroke:none;stroke-width:1.9099139;stroke-linecap:round;stroke-linejoin:miter;marker:none;marker-start:none;marker-mid:none;marker-end:none;stroke-miterlimit:4;stroke-dasharray:none;stroke-dashoffset:0;stroke-opacity:1;visibility:visible;display:inline;overflow:visible"
       d="M 25.28682,2.9097031 L 21.966257,13.657173 C 21.76842,13.6958 21.576997,13.759678 21.383257,13.80926 L 13.576133,5.6979619 L 16.592522,16.521476 C 16.445109,16.667661 16.300262,16.823133 16.161609,16.977736 L 5.2367042,14.366912 L 13.677524,21.920559 C 13.641822,22.096902 13.602894,22.273492 13.576133,22.452863 L 2.9047059,26.204338 L 12.131308,27.674511 C 12.222348,27.666959 12.316448,27.649163 12.410134,27.649163 C 12.642916,27.649163 12.844288,27.722668 13.043829,27.80125 L 13.322655,27.851946 C 13.361173,27.632935 13.401029,27.423873 13.474742,27.21825 C 12.848405,26.787682 12.359438,26.17306 12.359438,25.36786 C 12.359438,24.073279 13.422249,23.010514 14.716784,23.010514 C 15.716145,23.010514 16.427637,23.722365 16.769957,24.607426 C 16.871769,24.596431 16.937443,24.556731 17.048782,24.556731 C 17.587944,24.556731 18.042867,24.814056 18.518955,25.012991 C 19.782185,23.197563 21.758892,21.947051 24.044777,21.616385 C 24.18024,20.230954 25.33785,19.1323 26.756993,19.1323 C 28.265675,19.1323 29.494557,20.361585 29.494556,21.869863 C 29.494556,22.156856 29.323318,22.389252 29.241078,22.655645 C 29.761356,22.954311 30.242637,23.316303 30.685903,23.720253 C 31.2225,23.308386 31.842916,23.010514 32.561641,23.010514 C 34.28447,23.010514 35.704771,24.40632 35.704769,26.128295 C 35.704769,26.306094 35.633235,26.445511 35.603377,26.609903 C 36.566416,27.006477 37.350627,27.646041 37.910028,28.510989 C 38.071478,28.487837 38.223018,28.434945 38.391636,28.434945 C 38.854626,28.434945 39.286779,28.547891 39.684374,28.713771 L 45.083457,28.434945 L 34.513422,23.390732 C 34.510945,23.348191 34.516405,23.306399 34.513422,23.263992 L 43.993502,16.420084 L 32.586988,17.890257 C 32.527911,17.807615 32.445581,17.74298 32.384206,17.662127 L 36.61729,6.9146567 L 27.94834,14.240173 C 27.793087,14.177053 27.625526,14.11856 27.466731,14.062738 L 25.28682,2.9097031 z M 9.7739617,34.239593 L 7.3152244,37.408069 L 11.852482,35.405592 C 11.030638,35.267434 10.33709,34.822133 9.7739617,34.239593 z M 36.946811,34.974679 C 36.229066,35.580306 35.356553,36.042445 34.386683,36.191374 L 39.50694,39.106372 L 36.946811,34.974679 z M 20.673519,36.318113 C 19.881866,36.946572 18.930755,37.408068 17.834564,37.408069 C 17.792579,37.408069 17.749504,37.409218 17.707825,37.408069 L 17.07413,44.454759 L 21.966257,37.0532 C 21.511388,36.842883 21.085182,36.596616 20.673519,36.318113 z M 29.21573,36.622287 C 28.056841,37.331609 26.744182,37.773141 25.28682,37.788286 L 29.088991,45.088455 L 29.21573,36.622287 z"
       id="path5113" />
    <g
       inkscape:label="Layer 1"
       id="g3179"
       transform="translate(0.520833,9)" />
    <path
       style="fill:#373b41;fill-opacity:1;stroke:none;stroke-width:2;stroke-linecap:round;stroke-linejoin:miter;stroke-miterlimit:4;stroke-dasharray:none;stroke-dashoffset:1.20000057;stroke-opacity:1"
       d="M 26.748543,20.75456 C 27.381333,20.75456 27.863847,21.241179 27.863847,21.869863 C 27.863847,22.114067 27.803349,22.359985 27.686412,22.528906 L 27.12876,23.314688 L 27.990586,23.720253 C 28.791954,24.100748 29.519857,24.624046 30.094454,25.266469 L 30.753497,26.001556 L 31.336496,25.215774 C 31.609195,24.854948 32.04786,24.632774 32.553191,24.632774 C 33.400128,24.632774 34.07406,25.285915 34.074059,26.128295 C 34.074059,26.320404 34.033122,26.508976 33.94732,26.711294 L 33.567103,27.598468 L 34.504972,27.826598 C 35.536454,28.068931 36.419878,28.771709 36.862318,29.702336 L 37.141144,30.336031 L 37.825535,30.133248 C 38.003351,30.079122 38.195018,30.057205 38.383187,30.057205 C 39.444265,30.057205 40.284272,30.876864 40.284272,31.932943 C 40.284272,31.971271 40.284154,31.988134 40.284272,31.983638 L 40.258924,32.642681 L 39.85336,33.149637 C 39.498342,33.578856 38.97649,33.834027 38.383187,33.834028 C 37.96744,33.834028 37.590909,33.715412 37.267883,33.479159 L 36.684884,33.048246 L 36.203275,33.555202 C 35.569166,34.208405 34.693372,34.61981 33.71919,34.61981 C 32.823374,34.61981 32.031171,34.26841 31.41254,33.707289 L 30.778844,33.149637 L 30.246541,33.783333 C 29.042251,35.225939 27.231572,36.166026 25.202327,36.166026 C 23.651775,36.166026 22.243579,35.639866 21.12133,34.746549 L 20.53833,34.290289 L 20.031374,34.822593 C 19.464364,35.413721 18.69518,35.785809 17.826115,35.785809 C 16.504067,35.785809 15.397505,34.930339 14.961813,33.757985 L 14.606943,32.76942 L 13.745118,33.403115 C 13.357003,33.684329 12.895553,33.834027 12.401684,33.834028 C 11.468898,33.834027 10.685804,33.283012 10.323164,32.490594 L 9.8922512,31.552725 L 10.323164,30.614857 C 10.685805,29.822438 11.468898,29.271422 12.401684,29.271423 C 12.821943,29.271423 13.21051,29.411297 13.567683,29.626292 L 15.037856,30.513465 L 14.784378,28.789814 C 14.760371,28.628817 14.75903,28.5256 14.75903,28.460293 C 14.75903,28.043656 14.88517,27.638846 15.088552,27.294294 L 15.544812,26.508512 L 16.482681,26.280382 C 16.711755,26.221386 16.886979,26.17899 17.040333,26.17899 C 17.535271,26.17899 18.019212,26.329488 18.383767,26.584555 L 19.093505,27.091511 L 19.549766,26.331077 C 20.639861,24.470727 22.603714,23.216884 24.898153,23.111906 L 25.86137,23.06121 L 25.63324,22.123341 C 25.612692,22.029212 25.607892,21.937741 25.607892,21.869863 C 25.607892,21.241178 26.115753,20.75456 26.748543,20.75456 z M 14.708335,24.632774 C 15.126979,24.632774 15.468769,24.952869 15.468769,25.36786 C 15.468769,25.449988 15.465393,25.461925 15.468769,25.418556 L 15.392725,26.280382 L 14.556248,26.102947 C 14.235501,26.032368 13.973248,25.730139 13.973248,25.36786 C 13.973248,24.952869 14.289688,24.632774 14.708335,24.632774 z M 8.1179047,30.437422 C 8.4645644,30.437422 8.7731671,30.583493 8.9797301,30.817639 L 9.6387731,31.552725 L 8.9797301,32.31316 C 8.7731675,32.547306 8.4645657,32.693376 8.1179047,32.693377 C 7.4851222,32.693377 7.0026011,32.181398 7.0026011,31.552725 C 7.0026011,30.924051 7.4851222,30.437421 8.1179047,30.437422 z M 41.475619,32.744072 C 41.680114,32.744072 41.830489,32.897647 41.830489,33.098942 C 41.830489,33.300231 41.680113,33.453811 41.475619,33.453811 C 41.331284,33.453811 41.23237,33.388247 41.171446,33.276376 L 40.994011,32.921507 L 41.374228,32.794768 C 41.434479,32.773855 41.467161,32.744072 41.475619,32.744072 z"
       id="path2077"
       sodipodi:nodetypes="csccccccssccccccsscccscccscccscccscccscccscccscccsccccccsccscccscccccssccsscccc" />
  </g>
</svg>
