<?xml version="1.0" encoding="UTF-8" standalone="no"?>
<!-- Created with Inkscape (http://www.inkscape.org/) -->
<svg
   xmlns:dc="http://purl.org/dc/elements/1.1/"
   xmlns:cc="http://web.resource.org/cc/"
   xmlns:rdf="http://www.w3.org/1999/02/22-rdf-syntax-ns#"
   xmlns:svg="http://www.w3.org/2000/svg"
   xmlns="http://www.w3.org/2000/svg"
   xmlns:sodipodi="http://sodipodi.sourceforge.net/DTD/sodipodi-0.dtd"
   xmlns:inkscape="http://www.inkscape.org/namespaces/inkscape"
   width="128"
   height="128"
   id="svg2"
   sodipodi:version="0.32"
   inkscape:version="0.45.1"
   version="1.0"
   sodipodi:docbase="/home/christof/themes_and_icons/meinICONtheme/BRIT ICONS/scalable/places"
   sodipodi:docname="user-trash-full.svg"
   inkscape:output_extension="org.inkscape.output.svg.inkscape">
  <defs
     id="defs4" />
  <sodipodi:namedview
     id="base"
     pagecolor="#f0f0f0"
     bordercolor="#373b41"
     borderopacity="1"
     inkscape:pageopacity="0.0"
     inkscape:pageshadow="2"
     inkscape:zoom="3.959798"
     inkscape:cx="87.202074"
     inkscape:cy="60.930511"
     inkscape:document-units="px"
     inkscape:current-layer="layer1"
     width="128px"
     height="128px"
     showgrid="true"
     inkscape:window-width="1680"
     inkscape:window-height="1003"
     inkscape:window-x="0"
     inkscape:window-y="47" />
  <metadata
     id="metadata7">
    <rdf:RDF>
      <cc:Work
         rdf:about="">
        <dc:format>image/svg+xml</dc:format>
        <dc:type
           rdf:resource="http://purl.org/dc/dcmitype/StillImage" />
      </cc:Work>
    </rdf:RDF>
  </metadata>
  <g
     inkscape:label="Ebene 1"
     inkscape:groupmode="layer"
     id="layer1">
    <g
       id="g3462"
       transform="matrix(1.1428508,0,0,1.1428508,58.227732,-41.016091)"
       style="fill:#f0f0f0;fill-opacity:1;stroke:none">
      <path
         sodipodi:nodetypes="csssssc"
         id="path3454"
         d="M -1.5385194,56.492149 C -1.5385194,60.903222 -2.5249494,55.523757 -5.4177164,58.416524 C -8.3104844,61.309294 -9.6274494,56.938578 -14.03852,56.938578 C -18.449591,56.938578 -20.570127,59.880722 -23.462894,56.987953 C -26.355662,54.095186 -33.502805,60.903222 -33.502805,56.492149 C -33.502805,47.670006 -26.342805,40.510006 -17.520662,40.510006 C -8.6985204,40.510006 -1.5385194,47.670006 -1.5385194,56.492149 z "
         style="fill:#f0f0f0;fill-opacity:1;fill-rule:nonzero;stroke:none;stroke-width:15.39999962;stroke-linejoin:miter;stroke-miterlimit:4;stroke-opacity:1" />
      <path
         sodipodi:nodetypes="csssc"
         id="path3456"
         d="M 41.015047,59.97429 C 34.586477,57.100006 31.265767,56.938577 22.443617,56.938577 C 13.621479,56.938577 9.0507636,68.796434 9.0507636,59.97429 C 9.0507636,51.152147 16.210764,43.992147 25.032907,43.992147 C 33.855047,43.992147 41.015047,51.152147 41.015047,59.97429 z "
         style="fill:#f0f0f0;fill-opacity:1;fill-rule:nonzero;stroke:none;stroke-width:15.39999962;stroke-linejoin:miter;stroke-miterlimit:4;stroke-opacity:1" />
      <path
         sodipodi:nodetypes="cscsssc"
         id="path3458"
         d="M 24.057747,58.362816 C 24.057747,63.747181 19.378977,56.376225 16.005762,58.644586 C 12.632548,60.912947 8.2345006,62.265478 5.1805256,72.820625 C 4.3418466,69.41136 -0.061786424,61.923099 -3.7506744,59.654738 C -7.4395624,57.386377 -14.95939,63.747181 -14.95939,58.362816 C -14.95939,47.594084 -6.2195504,38.854244 4.5491806,38.854244 C 15.317913,38.854244 24.057747,47.594084 24.057747,58.362816 z "
         style="fill:#f0f0f0;fill-opacity:1;fill-rule:nonzero;stroke:none;stroke-width:15.39999962;stroke-linejoin:miter;stroke-miterlimit:4;stroke-opacity:1" />
      <path
         id="path3460"
         d="M -27.07588,143.42399 C -29.8759,142.56181 -33.298163,140.40371 -35.7441,137.95778 C -42.76274,130.93915 -42.949238,129.61523 -42.949238,86.809801 L -42.949238,48.98794 L -29.63074,48.98794 C -13.12979,48.98794 -7.8114304,50.361042 -2.0684604,56.10401 C 0.18942958,58.361898 2.5611596,61.959463 3.2020596,64.0986 C 3.8429696,66.237737 4.6748796,67.98794 5.0507596,67.98794 C 5.4266496,67.98794 6.2585596,66.237737 6.8994596,64.0986 C 7.5403596,61.959463 9.9120996,58.361898 12.16999,56.10401 C 17.91295,50.361042 23.231317,48.98794 39.732257,48.98794 L 53.050763,48.98794 L 53.050763,86.809801 C 53.050763,129.60347 52.862623,130.94078 45.856747,137.94666 C 39.367677,144.43572 36.035147,144.99912 4.6192596,144.91828 C -15.81004,144.86571 -23.58403,144.4992 -27.07588,143.42399 z M 30.796277,132.4498 C 35.546577,130.465 37.818237,128.36052 40.157167,123.77778 C 41.890937,120.38078 42.050767,117.53204 42.050767,90.027778 L 42.050767,59.98794 L 30.762647,59.98794 C 21.042777,59.98794 18.855777,60.300529 15.02072,62.23794 C 11.17946,64.178485 7.6792396,67.91894 5.6181196,72.285875 C 5.1762996,73.221962 4.9252296,73.221962 4.4834096,72.285875 C 2.4222896,67.91894 -1.0779404,64.178485 -4.9192004,62.23794 C -8.7542504,60.300529 -10.94126,59.98794 -20.66113,59.98794 L -31.94924,59.98794 L -31.94924,90.027778 C -31.94924,117.53204 -31.7894,120.38078 -30.05565,123.77778 C -27.75718,128.28123 -25.48988,130.4221 -20.91948,132.40447 C -15.80254,134.62389 25.506267,134.6601 30.796277,132.4498 z "
         style="fill:#f0f0f0;fill-opacity:1;stroke:none;stroke-opacity:1" />
    </g>
    <path
       style="fill:#22ad93;fill-opacity:1;fill-rule:nonzero;stroke:none;stroke-width:15.39999962;stroke-linejoin:miter;stroke-miterlimit:4;stroke-opacity:1"
       d="M 57.796514,28.333939 C 57.796514,32.745012 56.810085,27.365547 53.917317,30.258314 C 51.02455,33.151084 49.707585,28.780368 45.296514,28.780368 C 40.885442,28.780368 38.764907,31.722512 35.872139,28.829743 C 32.979372,25.936976 25.832228,32.745012 25.832228,28.333939 C 25.832228,19.511796 32.992229,12.351796 41.814371,12.351796 C 50.636514,12.351796 57.796514,19.511796 57.796514,28.333939 z "
       id="path4648"
       sodipodi:nodetypes="csssssc" />
    <path
       style="fill:#22ad93;fill-opacity:1;fill-rule:nonzero;stroke:none;stroke-width:15.39999962;stroke-linejoin:miter;stroke-miterlimit:4;stroke-opacity:1"
       d="M 100.35008,31.81608 C 93.921512,28.941796 90.600798,28.780367 81.778655,28.780367 C 72.956513,28.780367 68.385798,40.638225 68.385798,31.81608 C 68.385798,22.993938 75.545798,15.833937 84.36794,15.833937 C 93.190083,15.833937 100.35008,22.993938 100.35008,31.81608 z "
       id="path4656"
       sodipodi:nodetypes="csssc" />
    <path
       style="fill:#22ad93;fill-opacity:1;fill-rule:nonzero;stroke:none;stroke-width:15.39999962;stroke-linejoin:miter;stroke-miterlimit:4;stroke-opacity:1"
       d="M 83.392783,30.204606 C 83.392783,35.588971 78.71401,28.218015 75.340796,30.486376 C 71.967582,32.754737 67.569535,34.107268 64.51556,44.662415 C 63.676881,41.25315 59.273248,33.764889 55.58436,31.496528 C 51.895472,29.228167 44.375644,35.588971 44.375644,30.204606 C 44.375644,19.435874 53.115484,10.696034 63.884215,10.696034 C 74.652947,10.696034 83.392783,19.435874 83.392783,30.204606 z "
       id="path4645"
       sodipodi:nodetypes="cscsssc" />
    <path
       style="fill:#373b41;fill-opacity:1;stroke:#f0f0f0;stroke-opacity:1"
       d="M 32.259154,115.26578 C 29.459134,114.4036 26.036871,112.2455 23.590934,109.79957 C 16.572295,102.78094 16.385797,101.45702 16.385797,58.651591 L 16.385797,20.82973 L 29.704294,20.82973 C 46.205244,20.82973 51.523604,22.202832 57.266574,27.9458 C 59.524464,30.203688 61.896194,33.801253 62.537094,35.94039 C 63.178004,38.079527 64.009914,39.82973 64.385794,39.82973 C 64.761684,39.82973 65.593594,38.079527 66.234494,35.94039 C 66.875394,33.801253 69.247134,30.203688 71.505024,27.9458 C 77.247984,22.202832 82.566354,20.82973 99.067294,20.82973 L 112.3858,20.82973 L 112.3858,58.651591 C 112.3858,101.44526 112.19766,102.78257 105.19178,109.78845 C 98.702714,116.27751 95.370184,116.84091 63.954294,116.76007 C 43.524994,116.7075 35.751004,116.34099 32.259154,115.26578 z M 90.131314,104.29159 C 94.881614,102.30679 97.153274,100.20231 99.492204,95.619567 C 101.22597,92.222567 101.3858,89.373827 101.3858,61.869568 L 101.3858,31.82973 L 90.097684,31.82973 C 80.377814,31.82973 78.190814,32.142319 74.355754,34.07973 C 70.514494,36.020275 67.014274,39.76073 64.953154,44.127665 C 64.511334,45.063752 64.260264,45.063752 63.818444,44.127665 C 61.757324,39.76073 58.257094,36.020275 54.415834,34.07973 C 50.580784,32.142319 48.393774,31.82973 38.673904,31.82973 L 27.385794,31.82973 L 27.385794,61.869568 C 27.385794,89.373827 27.545634,92.222567 29.279384,95.619567 C 31.577854,100.12302 33.845154,102.26389 38.415554,104.24626 C 43.532494,106.46568 84.841304,106.50189 90.131314,104.29159 z "
       id="path4009" />
    <path
       style="fill:#22ad93;fill-opacity:1;stroke:none;stroke-opacity:1"
       d="M 42.069045,101.07688 C 40.124013,100.47797 37.74674,98.978854 36.047671,97.279787 C 31.172178,92.404292 31.042628,91.484631 31.042628,61.74987 L 31.042628,35.476939 L 40.294313,35.476939 C 51.756687,35.476939 55.451082,36.430764 59.440433,40.420113 C 61.008875,41.988553 62.656395,44.487599 63.101596,45.973549 C 63.546804,47.459499 64.124689,48.675277 64.385794,48.675277 C 64.646906,48.675277 65.224792,47.459499 65.669992,45.973549 C 66.115193,44.487599 67.762721,41.988553 69.331161,40.420113 C 73.320504,36.430764 77.014906,35.476939 88.477276,35.476939 L 97.728966,35.476939 L 97.728966,61.74987 C 97.728966,91.476462 97.598276,92.405424 92.731646,97.272062 C 88.224016,101.77968 85.909076,102.17105 64.086053,102.11489 C 49.894853,102.07837 44.494656,101.82378 42.069045,101.07688 z M 82.269901,93.453664 C 85.569696,92.074924 87.147696,90.613048 88.772436,87.429651 C 89.976796,85.069927 90.087826,83.091051 90.087826,63.985236 L 90.087826,43.118082 L 82.24654,43.118082 C 75.494638,43.118082 73.97544,43.335222 71.311418,44.681043 C 68.64309,46.029041 66.211666,48.627346 64.77991,51.660835 C 64.473001,52.311087 64.298595,52.311087 63.991685,51.660835 C 62.559929,48.627346 60.128497,46.029041 57.460168,44.681043 C 54.796153,43.335222 53.276948,43.118082 46.525047,43.118082 L 38.683768,43.118082 L 38.683768,63.985236 C 38.683768,83.091051 38.794801,85.069927 39.99915,87.429651 C 41.59578,90.557969 43.170759,92.045123 46.345584,93.422175 C 49.900063,94.963902 78.595199,94.989055 82.269901,93.453664 z "
       id="path3716" />
  </g>
</svg>
