<?xml version="1.0" encoding="UTF-8" standalone="no"?>
<!-- Created with Inkscape (http://www.inkscape.org/) -->
<svg
   xmlns:dc="http://purl.org/dc/elements/1.1/"
   xmlns:cc="http://creativecommons.org/ns#"
   xmlns:rdf="http://www.w3.org/1999/02/22-rdf-syntax-ns#"
   xmlns:svg="http://www.w3.org/2000/svg"
   xmlns="http://www.w3.org/2000/svg"
   xmlns:sodipodi="http://sodipodi.sourceforge.net/DTD/sodipodi-0.dtd"
   xmlns:inkscape="http://www.inkscape.org/namespaces/inkscape"
   width="48px"
   height="48px"
   id="svg3465"
   sodipodi:version="0.32"
   inkscape:version="0.46"
   sodipodi:docbase="/home/qwerty/.icons/qw3rtY_new/scalable/status"
   sodipodi:docname="security-low.svg"
   inkscape:output_extension="org.inkscape.output.svg.inkscape"
   sodipodi:modified="true">
  <defs
     id="defs3467">
    <inkscape:perspective
       sodipodi:type="inkscape:persp3d"
       inkscape:vp_x="0 : 24 : 1"
       inkscape:vp_y="0 : 1000 : 0"
       inkscape:vp_z="48 : 24 : 1"
       inkscape:persp3d-origin="24 : 16 : 1"
       id="perspective9" />
  </defs>
  <sodipodi:namedview
     id="base"
     pagecolor="#f0f0f0"
     bordercolor="#666666"
     borderopacity="1.0"
     inkscape:pageopacity="0.0"
     inkscape:pageshadow="2"
     inkscape:zoom="11.166395"
     inkscape:cx="14.661401"
     inkscape:cy="21.787116"
     inkscape:current-layer="layer1"
     showgrid="true"
     inkscape:grid-bbox="true"
     inkscape:document-units="px"
     inkscape:grid-points="true"
     inkscape:window-width="1680"
     inkscape:window-height="1001"
     inkscape:window-x="0"
     inkscape:window-y="24" />
  <metadata
     id="metadata3470">
    <rdf:RDF>
      <cc:Work
         rdf:about="">
        <dc:format>image/svg+xml</dc:format>
        <dc:type
           rdf:resource="http://purl.org/dc/dcmitype/StillImage" />
      </cc:Work>
    </rdf:RDF>
  </metadata>
  <g
     id="layer1"
     inkscape:label="Layer 1"
     inkscape:groupmode="layer">
    <path
       sodipodi:type="inkscape:offset"
       inkscape:radius="5.3965158"
       inkscape:original="M 24.03125 -0.03125 C 17.03125 -0.031249999 12.03125 4.1426554 12.03125 10.96875 L 12.03125 16.96875 L 17.03125 16.96875 L 17.03125 12.96875 C 17.03125 10.96875 17.03125 4.96875 24.03125 4.96875 L 25.03125 4.96875 C 32.03125 4.9687499 32.03125 10.96875 32.03125 12.96875 L 32.03125 16.96875 L 37.03125 16.96875 L 37.03125 10.96875 C 37.031248 3.9687504 32.03125 -0.03125 25.03125 -0.03125 L 24.03125 -0.03125 z "
       style="opacity:1;fill:#f0f0f0;fill-opacity:1;fill-rule:nonzero;stroke:none;stroke-width:0.99999970000000005;stroke-linecap:butt;stroke-linejoin:miter;marker:none;marker-start:none;marker-mid:none;marker-end:none;stroke-miterlimit:10;stroke-dasharray:none;stroke-dashoffset:0;stroke-opacity:1;visibility:visible;display:block;overflow:visible"
       id="path2388"
       d="M 24.03125,-5.4375 C 19.458653,-5.4375 15.086375,-4.0472041 11.8125,-1.125 C 8.538625,1.7972041 6.625,6.2380835 6.625,10.96875 L 6.625,16.96875 C 6.6225539,18.403325 7.1913538,19.779848 8.2057531,20.794247 C 9.2201524,21.808646 10.596675,22.377446 12.03125,22.375 L 17.03125,22.375 C 18.465825,22.377446 19.842348,21.808646 20.856747,20.794247 C 21.871146,19.779848 22.439946,18.403325 22.4375,16.96875 L 22.4375,12.96875 C 22.4375,11.96875 22.579261,10.903978 22.71875,10.625 C 22.858239,10.346022 22.073112,10.375 24.03125,10.375 L 25.03125,10.375 C 26.989388,10.375 26.204261,10.346022 26.34375,10.625 C 26.483239,10.903978 26.625,11.96875 26.625,12.96875 L 26.625,16.96875 C 26.622554,18.403325 27.191354,19.779848 28.205753,20.794247 C 29.220152,21.808646 30.596675,22.377446 32.03125,22.375 L 37.03125,22.375 C 38.465825,22.377446 39.842348,21.808646 40.856747,20.794247 C 41.871146,19.779848 42.439946,18.403325 42.4375,16.96875 L 42.4375,10.96875 C 42.437499,6.1838662 40.51939,1.7248297 37.21875,-1.1875 C 33.91811,-4.0998297 29.559158,-5.4375 25.03125,-5.4375 L 24.03125,-5.4375 z"
       transform="matrix(0.8088495,0,0,0.8088495,4.683187,4.6025475)" />
    <path
       sodipodi:type="inkscape:offset"
       inkscape:radius="5.5783129"
       inkscape:original="M 10 25 C 8 25 7 26 7 28 L 7 45 C 7 45.980326 8 48 10 48 L 39.375 48 C 40.990986 47.990546 42 45.980324 42 45 L 42 28 C 42 26 41 25 39 25 L 37 25 L 12 25 L 10 25 z "
       style="opacity:1;fill:#f0f0f0;fill-opacity:1;fill-rule:nonzero;stroke:none;stroke-width:0.99999970000000005;stroke-linecap:butt;stroke-linejoin:miter;marker:none;marker-start:none;marker-mid:none;marker-end:none;stroke-miterlimit:10;stroke-dasharray:none;stroke-dashoffset:0;stroke-opacity:1;visibility:visible;display:block;overflow:visible"
       id="path2384"
       d="M 10,19.40625 C 8.0702812,19.40625 5.627321,19.997679 3.8125,21.8125 C 1.997679,23.627321 1.40625,26.070281 1.40625,28 L 1.40625,45 C 1.40625,47.386917 2.0896253,48.73071 3.375,50.34375 C 4.6603747,51.95679 7.1222711,53.59375 10,53.59375 L 39.375,53.59375 C 39.385417,53.593779 39.395833,53.593779 39.40625,53.59375 C 42.520398,53.575531 44.695672,51.664772 45.8125,50.125 C 46.929328,48.585228 47.59375,47.404018 47.59375,45 L 47.59375,28 C 47.59375,26.070281 47.002321,23.627321 45.1875,21.8125 C 43.372679,19.997679 40.929719,19.40625 39,19.40625 L 37,19.40625 L 12,19.40625 L 10,19.40625 z"
       transform="matrix(0.8088495,0,0,0.8088495,4.683187,4.6025475)" />
    <path
       style="opacity:1;fill:#373b41;fill-opacity:1;fill-rule:nonzero;stroke:none;stroke-width:0.9999997;stroke-linecap:butt;stroke-linejoin:miter;marker:none;marker-start:none;marker-mid:none;marker-end:none;stroke-miterlimit:10;stroke-dasharray:none;stroke-dashoffset:0;stroke-opacity:1;visibility:visible;display:block;overflow:visible"
       d="M 14.389381,24.823785 L 12.771682,24.823785 C 11.153983,24.823785 10.345134,25.632635 10.345134,27.250334 L 10.345134,41.000775 C 10.345134,41.793712 11.153983,43.427324 12.771682,43.427324 L 36.538929,43.427324 C 37.846017,43.419677 38.654866,41.79371 38.654866,41.000775 L 38.654866,27.250334 C 38.654866,25.632635 37.846017,24.816138 36.228318,24.816138 L 34.610619,24.823785 L 14.389381,24.823785 z M 30.566371,24.823785 L 18.433629,24.823785 L 30.566371,24.823785 z"
       id="path2086"
       inkscape:r_cx="true"
       inkscape:r_cy="true"
       sodipodi:nodetypes="cccccccccccccc" />
    <path
       style="opacity:1;fill:#373b41;fill-opacity:1;fill-rule:nonzero;stroke:none;stroke-width:0.9999997;stroke-linecap:butt;stroke-linejoin:miter;marker:none;marker-start:none;marker-mid:none;marker-end:none;stroke-miterlimit:10;stroke-dasharray:none;stroke-dashoffset:0;stroke-opacity:1;visibility:visible;display:block;overflow:visible"
       d="M 24.128962,4.5876047 C 18.467016,4.5876047 14.422768,7.9636653 14.422768,13.484949 L 14.422768,18.338046 L 34.644006,18.338046 L 34.644006,13.484949 C 34.644006,7.8230027 30.599758,4.5876047 24.937812,4.5876047 L 24.128962,4.5876047 z M 24.128962,8.6318522 L 24.937812,8.6318522 C 30.599758,8.6318522 30.599758,13.484949 30.599758,15.102648 L 30.599758,18.338046 L 18.467016,18.338046 L 18.467016,15.102648 C 18.467016,13.484949 18.467016,8.6318522 24.128962,8.6318522 z"
       id="path2161"
       inkscape:r_cx="true"
       inkscape:r_cy="true"
       sodipodi:nodetypes="cccccsccsccccc" />
  </g>
</svg>
