<?xml version="1.0" encoding="UTF-8" standalone="no"?>
<!-- Created with Inkscape (http://www.inkscape.org/) -->
<svg
   xmlns:dc="http://purl.org/dc/elements/1.1/"
   xmlns:cc="http://creativecommons.org/ns#"
   xmlns:rdf="http://www.w3.org/1999/02/22-rdf-syntax-ns#"
   xmlns:svg="http://www.w3.org/2000/svg"
   xmlns="http://www.w3.org/2000/svg"
   xmlns:xlink="http://www.w3.org/1999/xlink"
   xmlns:sodipodi="http://sodipodi.sourceforge.net/DTD/sodipodi-0.dtd"
   xmlns:inkscape="http://www.inkscape.org/namespaces/inkscape"
   width="48px"
   height="48px"
   id="svg1306"
   sodipodi:version="0.32"
   inkscape:version="0.46"
   sodipodi:docbase="/home/qwerty/Desktop/todo/mod-icon/gnome1/scalable/status"
   sodipodi:docname="weather-storm.svg"
   inkscape:output_extension="org.inkscape.output.svg.inkscape"
   sodipodi:modified="true">
  <defs
     id="defs1308">
    <inkscape:perspective
       sodipodi:type="inkscape:persp3d"
       inkscape:vp_x="0 : 24 : 1"
       inkscape:vp_y="0 : 1000 : 0"
       inkscape:vp_z="48 : 24 : 1"
       inkscape:persp3d-origin="24 : 16 : 1"
       id="perspective59" />
    <linearGradient
       id="linearGradient2810">
      <stop
         style="stop-color:#b3adf0;stop-opacity:1;"
         offset="0"
         id="stop2812" />
      <stop
         style="stop-color:#555753;stop-opacity:1"
         offset="1"
         id="stop2814" />
    </linearGradient>
    <linearGradient
       id="linearGradient3551">
      <stop
         style="stop-color:white;stop-opacity:1"
         offset="0"
         id="stop3553" />
      <stop
         style="stop-color:#729fcf;stop-opacity:0"
         offset="1"
         id="stop3555" />
    </linearGradient>
    <linearGradient
       inkscape:collect="always"
       id="linearGradient3512">
      <stop
         style="stop-color:white;stop-opacity:1;"
         offset="0"
         id="stop3514" />
      <stop
         style="stop-color:white;stop-opacity:0;"
         offset="1"
         id="stop3516" />
    </linearGradient>
    <linearGradient
       inkscape:collect="always"
       id="linearGradient3502">
      <stop
         style="stop-color:white;stop-opacity:1;"
         offset="0"
         id="stop3504" />
      <stop
         style="stop-color:white;stop-opacity:0;"
         offset="1"
         id="stop3506" />
    </linearGradient>
    <linearGradient
       inkscape:collect="always"
       id="linearGradient3494">
      <stop
         style="stop-color:#729fcf;stop-opacity:1;"
         offset="0"
         id="stop3496" />
      <stop
         style="stop-color:#729fcf;stop-opacity:0;"
         offset="1"
         id="stop3498" />
    </linearGradient>
    <linearGradient
       inkscape:collect="always"
       id="linearGradient3486">
      <stop
         style="stop-color:white;stop-opacity:1;"
         offset="0"
         id="stop3488" />
      <stop
         style="stop-color:white;stop-opacity:0;"
         offset="1"
         id="stop3490" />
    </linearGradient>
    <linearGradient
       inkscape:collect="always"
       id="linearGradient3478">
      <stop
         style="stop-color:#729fcf;stop-opacity:1;"
         offset="0"
         id="stop3480" />
      <stop
         style="stop-color:#729fcf;stop-opacity:0;"
         offset="1"
         id="stop3482" />
    </linearGradient>
    <linearGradient
       inkscape:collect="always"
       id="linearGradient3470">
      <stop
         style="stop-color:#729fcf;stop-opacity:1;"
         offset="0"
         id="stop3472" />
      <stop
         style="stop-color:#729fcf;stop-opacity:0;"
         offset="1"
         id="stop3474" />
    </linearGradient>
    <linearGradient
       inkscape:collect="always"
       id="linearGradient3453">
      <stop
         style="stop-color:white;stop-opacity:1;"
         offset="0"
         id="stop3455" />
      <stop
         style="stop-color:white;stop-opacity:0;"
         offset="1"
         id="stop3457" />
    </linearGradient>
    <linearGradient
       id="linearGradient2851">
      <stop
         id="stop2853"
         offset="0"
         style="stop-color:#babdb6;stop-opacity:1" />
      <stop
         style="stop-color:#babdb6;stop-opacity:1;"
         offset="0.26506025"
         id="stop2855" />
      <stop
         id="stop2857"
         offset="1"
         style="stop-color:#555753;stop-opacity:1" />
    </linearGradient>
    <linearGradient
       inkscape:collect="always"
       id="linearGradient3123">
      <stop
         style="stop-color:black;stop-opacity:1;"
         offset="0"
         id="stop3125" />
      <stop
         style="stop-color:black;stop-opacity:0;"
         offset="1"
         id="stop3127" />
    </linearGradient>
    <radialGradient
       inkscape:collect="always"
       xlink:href="#linearGradient2851"
       id="radialGradient3080"
       cx="20.387419"
       cy="17.105022"
       fx="20.387419"
       fy="17.105022"
       r="24"
       gradientTransform="matrix(1.941537,0,0,0.691557,-19.95792,7.170901)"
       gradientUnits="userSpaceOnUse" />
    <radialGradient
       inkscape:collect="always"
       xlink:href="#linearGradient3123"
       id="radialGradient3129"
       cx="24.000002"
       cy="25.344858"
       fx="24.000002"
       fy="25.344858"
       r="24"
       gradientTransform="matrix(1.194997,0,0,0.484904,-4.679924,11.44763)"
       gradientUnits="userSpaceOnUse" />
    <linearGradient
       inkscape:collect="always"
       xlink:href="#linearGradient3453"
       id="linearGradient3459"
       x1="35.823223"
       y1="42.981693"
       x2="36"
       y2="47.575058"
       gradientUnits="userSpaceOnUse" />
    <linearGradient
       inkscape:collect="always"
       xlink:href="#linearGradient3470"
       id="linearGradient3476"
       x1="34.582596"
       y1="41.420811"
       x2="35.428024"
       y2="45.735912"
       gradientUnits="userSpaceOnUse" />
    <linearGradient
       inkscape:collect="always"
       xlink:href="#linearGradient3478"
       id="linearGradient3484"
       x1="27.34375"
       y1="40.0625"
       x2="27.09375"
       y2="44.96875"
       gradientUnits="userSpaceOnUse" />
    <linearGradient
       inkscape:collect="always"
       xlink:href="#linearGradient3486"
       id="linearGradient3492"
       x1="25.03125"
       y1="41.875"
       x2="25.5"
       y2="46.34375"
       gradientUnits="userSpaceOnUse" />
    <linearGradient
       inkscape:collect="always"
       xlink:href="#linearGradient3494"
       id="linearGradient3500"
       x1="21.0625"
       y1="40.3125"
       x2="20.90625"
       y2="44.4375"
       gradientUnits="userSpaceOnUse" />
    <linearGradient
       inkscape:collect="always"
       xlink:href="#linearGradient3502"
       id="linearGradient3508"
       x1="18.84375"
       y1="42"
       x2="18.8125"
       y2="44.46875"
       gradientUnits="userSpaceOnUse" />
    <radialGradient
       inkscape:collect="always"
       xlink:href="#linearGradient3512"
       id="radialGradient3518"
       cx="24.75"
       cy="27.25"
       fx="24.75"
       fy="27.25"
       r="4.25"
       gradientTransform="matrix(1,0,0,0.411765,0,16.02941)"
       gradientUnits="userSpaceOnUse" />
    <radialGradient
       inkscape:collect="always"
       xlink:href="#linearGradient3551"
       id="radialGradient3557"
       cx="24.639048"
       cy="38.413223"
       fx="24.639048"
       fy="38.413223"
       r="23"
       gradientTransform="matrix(0.7374,0,-7.679274e-7,0.213462,6.581209,19.55031)"
       gradientUnits="userSpaceOnUse" />
    <radialGradient
       inkscape:collect="always"
       xlink:href="#linearGradient2810"
       id="radialGradient2816"
       cx="25.414213"
       cy="44.499977"
       fx="25.414213"
       fy="44.499977"
       r="24"
       gradientTransform="matrix(1.228337,0,0,0.588578,-5.802994,5.808278)"
       gradientUnits="userSpaceOnUse" />
  </defs>
  <sodipodi:namedview
     id="base"
     pagecolor="white"
     bordercolor="#666"
     borderopacity="0.14117647"
     inkscape:pageopacity="0"
     inkscape:pageshadow="2"
     inkscape:zoom="8"
     inkscape:cx="23.265492"
     inkscape:cy="22.138551"
     inkscape:current-layer="layer1"
     showgrid="false"
     inkscape:grid-bbox="true"
     inkscape:document-units="px"
     inkscape:window-width="1051"
     inkscape:window-height="900"
     inkscape:window-x="619"
     inkscape:window-y="121"
     inkscape:showpageshadow="false"
     showborder="true"
     showguides="false"
     inkscape:guide-bbox="true"
     inkscape:grid-points="true"
     objecttolerance="10000"
     gridtolerance="10000"
     guidetolerance="10000">
    <sodipodi:guide
       orientation="vertical"
       position="38.625"
       id="guide3562" />
    <inkscape:grid
       id="GridFromPre046Settings"
       type="xygrid"
       originx="0px"
       originy="0px"
       spacingx="0.5px"
       spacingy="0.5px"
       color="#0000ff"
       empcolor="#0000ff"
       opacity="0.2"
       empopacity="0.4"
       empspacing="2" />
  </sodipodi:namedview>
  <metadata
     id="metadata1311">
    <rdf:RDF>
      <cc:Work
         rdf:about="">
        <dc:format>image/svg+xml</dc:format>
        <dc:type
           rdf:resource="http://purl.org/dc/dcmitype/StillImage" />
        <cc:license
           rdf:resource="http://creativecommons.org/licenses/GPL/2.0/" />
        <dc:title>Weather - Storm</dc:title>
        <dc:creator>
          <cc:Agent>
            <dc:title>Lapo Calamandrei</dc:title>
          </cc:Agent>
        </dc:creator>
      </cc:Work>
      <cc:License
         rdf:about="http://creativecommons.org/licenses/GPL/2.0/">
        <cc:permits
           rdf:resource="http://web.resource.org/cc/Reproduction" />
        <cc:permits
           rdf:resource="http://web.resource.org/cc/Distribution" />
        <cc:requires
           rdf:resource="http://web.resource.org/cc/Notice" />
        <cc:permits
           rdf:resource="http://web.resource.org/cc/DerivativeWorks" />
        <cc:requires
           rdf:resource="http://web.resource.org/cc/ShareAlike" />
        <cc:requires
           rdf:resource="http://web.resource.org/cc/SourceCode" />
      </cc:License>
    </rdf:RDF>
  </metadata>
  <g
     id="layer1"
     inkscape:label="Layer 1"
     inkscape:groupmode="layer">
    <path
       sodipodi:type="inkscape:offset"
       inkscape:radius="2.7528393"
       inkscape:original="M 25.46875 1.625 L 22.53125 2.375 L 23.25 5.21875 L 8.34375 12.65625 L 6.625 13.53125 L 7.875 14.96875 L 12.84375 20.78125 L 5.09375 26.8125 L 6.90625 29.1875 L 15.90625 22.1875 L 17.15625 21.21875 L 16.125 20.03125 L 11.375 14.5 L 23.96875 8.1875 L 25.375 13.78125 L 19.71875 23.21875 L 19 24.40625 L 20.125 25.21875 L 23.125 27.375 L 13.53125 30.5625 L 11.21875 31.34375 L 12.9375 33.0625 L 18.8125 38.9375 L 13.03125 43.875 L 14.96875 46.125 L 21.96875 40.125 L 23.21875 39.09375 L 22.0625 37.9375 L 16.78125 32.65625 L 26.15625 29.53125 L 32.46875 34.03125 L 26.09375 38.8125 L 25.09375 39.5625 L 25.65625 40.65625 L 27.65625 44.65625 L 30.34375 43.34375 L 28.90625 40.4375 L 34.5625 36.1875 L 39.71875 44.78125 L 42.28125 43.21875 L 36.28125 33.21875 L 36.125 32.96875 L 35.875 32.78125 L 23 23.59375 L 27.65625 15.8125 C 31.936113 17.368814 34.914527 18.466078 36.125 18.90625 C 36.651524 19.097713 36.83076 19.177095 37.03125 19.25 L 38.125 20.75 L 33.9375 24.9375 L 36.0625 27.0625 L 39.90625 23.21875 L 41.78125 25.875 L 44.21875 24.125 L 39.21875 17.125 L 38.9375 16.75 L 38.5 16.59375 C 38.5 16.59375 34.751268 15.241938 34 14.96875 C 33.043726 14.621014 33.221343 14.671398 28.28125 12.875 L 25.46875 1.625 z "
       style="fill:#f0f0f0;fill-opacity:1;fill-rule:evenodd;stroke:none;stroke-width:3;stroke-linecap:butt;stroke-linejoin:miter;stroke-miterlimit:4;stroke-dasharray:none;stroke-opacity:1"
       id="path2439"
       d="M 25.25,-1.125 C 25.091327,-1.1073999 24.934486,-1.0760317 24.78125,-1.03125 L 21.84375,-0.28125 C 20.380086,0.10287224 19.500797,1.5962692 19.875,3.0625 L 20.03125,3.75 L 7.125,10.1875 C 7.1145834,10.187441 7.1041666,10.187441 7.09375,10.1875 L 5.375,11.0625 C 4.6146994,11.44884 4.0763657,12.165717 3.9173533,13.00359 C 3.758341,13.841462 3.9966047,14.705723 4.5625,15.34375 L 5.8125,16.78125 L 8.875,20.375 L 3.40625,24.625 C 2.2130694,25.551973 1.9899284,27.26737 2.90625,28.46875 L 4.71875,30.84375 C 5.6011905,32.02022 7.2524513,32.29543 8.46875,31.46875 C 8.504612,32.152971 8.7943161,32.799234 9.28125,33.28125 L 11,35 L 14.78125,38.78125 L 11.25,41.78125 C 10.095872,42.766142 9.9561146,44.499139 10.9375,45.65625 L 12.875,47.90625 C 13.859892,49.060378 15.592889,49.200135 16.75,48.21875 L 23.5,42.4375 L 25.1875,45.875 C 25.860566,47.238489 27.51155,47.798145 28.875,47.125 L 31.5625,45.8125 C 32.925989,45.139434 33.485645,43.48845 32.8125,42.125 L 32.375,41.25 L 33.75,40.21875 L 37.34375,46.1875 C 37.720667,46.822213 38.336688,47.278974 39.053526,47.455245 C 39.770363,47.631517 40.527961,47.512532 41.15625,47.125 L 43.71875,45.5625 C 45.003741,44.778892 45.421309,43.108621 44.65625,41.8125 L 38.65625,31.8125 C 38.646098,31.791535 38.635681,31.7707 38.625,31.75 L 38.46875,31.5 C 38.28512,31.220665 38.052152,30.977108 37.78125,30.78125 L 37.53125,30.59375 C 37.510752,30.572584 37.489916,30.551748 37.46875,30.53125 L 36.4375,29.8125 C 37.033245,29.72005 37.582176,29.434606 38,29 L 39.53125,27.46875 C 39.953232,28.066402 40.595744,28.471515 41.316921,28.594643 C 42.038098,28.717771 42.778626,28.548786 43.375,28.125 L 45.8125,26.375 C 46.410152,25.953018 46.815265,25.310506 46.938393,24.589329 C 47.061521,23.868152 46.892536,23.127624 46.46875,22.53125 L 41.46875,15.53125 C 41.448252,15.510084 41.427416,15.489248 41.40625,15.46875 L 41.125,15.09375 C 40.807616,14.667089 40.373462,14.341474 39.875,14.15625 L 39.4375,14 C 39.4375,14 35.665731,12.639811 34.9375,12.375 C 34.223657,12.115421 32.768131,11.587207 30.5625,10.78125 L 28.125,0.96875 C 27.806532,-0.33758943 26.591038,-1.2227866 25.25,-1.125 L 25.25,-1.125 z M 22.15625,12.1875 L 22.4375,13.3125 L 18.96875,19.09375 L 18.21875,18.21875 L 15.78125,15.375 L 22.15625,12.1875 z M 28.84375,19.1875 C 31.005168,19.976686 32.896359,20.68176 33.9375,21.0625 L 32,23 C 31.129097,23.866629 30.937839,25.205433 31.53125,26.28125 L 26.6875,22.84375 L 28.84375,19.1875 z M 16.40625,25.3125 C 16.558849,25.744013 16.816622,26.130673 17.15625,26.4375 L 13.28125,27.71875 L 16.40625,25.3125 z M 25.71875,32.59375 L 27.8125,34.09375 L 24.53125,36.53125 L 24,36 L 21.875,33.875 L 25.71875,32.59375 z"
       transform="matrix(0.9400056,0,0,0.9400056,1.4794543,1.4320643)" />
    <path
       style="fill:#373b41;fill-opacity:1;fill-rule:evenodd;stroke:none;stroke-width:3;stroke-linecap:butt;stroke-linejoin:miter;stroke-miterlimit:4;stroke-dasharray:none;stroke-opacity:1"
       d="M 25.420221,2.9595734 L 22.658955,3.6645776 L 23.334584,6.3377184 L 9.3226258,13.32901 L 7.7069912,14.151515 L 8.8819982,15.502773 L 13.552651,20.966555 L 6.2676077,26.635964 L 7.9713678,28.868477 L 16.431418,22.288438 L 17.606425,21.377808 L 16.637044,20.261551 L 12.172018,15.062145 L 24.010213,9.12836 L 25.332096,14.386516 L 20.015189,23.257819 L 19.33956,24.374075 L 20.397066,25.13783 L 23.217083,27.164717 L 14.198905,30.160985 L 12.025142,30.895364 L 13.640776,32.510999 L 19.163309,38.033531 L 13.728902,42.674809 L 15.550163,44.789822 L 22.130202,39.149788 L 23.305209,38.180407 L 22.218327,37.093526 L 17.253923,32.129121 L 26.066475,29.191604 L 32.00026,33.421629 L 26.007725,37.916031 L 25.067719,38.621035 L 25.596472,39.649166 L 27.476483,43.409188 L 30.002748,42.175431 L 28.65149,39.44354 L 33.968397,35.448516 L 38.815301,43.526689 L 41.224065,42.05793 L 35.584032,32.657875 L 35.437156,32.422873 L 35.202154,32.246622 L 23.099583,23.610321 L 27.476483,16.295903 C 31.499579,17.758846 34.299304,18.790281 35.437156,19.204045 C 35.932091,19.384021 36.100574,19.458641 36.289036,19.527172 L 37.317167,20.93718 L 33.380894,24.873453 L 35.378405,26.870965 L 38.991552,23.257819 L 40.754062,25.754709 L 43.045326,24.109699 L 38.345298,17.52966 L 38.080921,17.177158 L 37.669669,17.030282 C 37.669669,17.030282 34.14584,15.759571 33.439644,15.502773 C 32.540741,15.175899 32.707702,15.22326 28.063987,13.534636 L 25.420221,2.9595734 z"
       id="path2215" />
  </g>
</svg>
