<?xml version="1.0" encoding="UTF-8" standalone="no"?>
<!-- Created with Inkscape (http://www.inkscape.org/) -->
<svg
   xmlns:dc="http://purl.org/dc/elements/1.1/"
   xmlns:cc="http://creativecommons.org/ns#"
   xmlns:rdf="http://www.w3.org/1999/02/22-rdf-syntax-ns#"
   xmlns:svg="http://www.w3.org/2000/svg"
   xmlns="http://www.w3.org/2000/svg"
   xmlns:sodipodi="http://sodipodi.sourceforge.net/DTD/sodipodi-0.dtd"
   xmlns:inkscape="http://www.inkscape.org/namespaces/inkscape"
   width="48px"
   height="48px"
   id="svg1306"
   sodipodi:version="0.32"
   inkscape:version="0.46"
   sodipodi:docbase="/home/qwerty/.icons/MonoIce/scalable/status"
   sodipodi:docname="weather-overcast.svg"
   inkscape:output_extension="org.inkscape.output.svg.inkscape">
  <defs
     id="defs1308">
    <inkscape:perspective
       sodipodi:type="inkscape:persp3d"
       inkscape:vp_x="0 : 24 : 1"
       inkscape:vp_y="0 : 1000 : 0"
       inkscape:vp_z="48 : 24 : 1"
       inkscape:persp3d-origin="24 : 16 : 1"
       id="perspective12" />
    <linearGradient
       id="linearGradient3389">
      <stop
         style="stop-color:white;stop-opacity:1"
         offset="0"
         id="stop3391" />
      <stop
         id="stop3397"
         offset="0.26506025"
         style="stop-color:white;stop-opacity:1;" />
      <stop
         style="stop-color:#babdb6;stop-opacity:1"
         offset="1"
         id="stop3393" />
    </linearGradient>
  </defs>
  <sodipodi:namedview
     id="base"
     pagecolor="#f0f0f0"
     bordercolor="#666"
     borderopacity="1"
     inkscape:pageopacity="0.0"
     inkscape:pageshadow="2"
     inkscape:zoom="11.313708"
     inkscape:cx="33.417105"
     inkscape:cy="16.635044"
     inkscape:current-layer="layer1"
     showgrid="true"
     inkscape:grid-bbox="true"
     inkscape:document-units="px"
     inkscape:window-width="1051"
     inkscape:window-height="900"
     inkscape:window-x="227"
     inkscape:window-y="71"
     inkscape:showpageshadow="false"
     showborder="true"
     showguides="true"
     inkscape:guide-bbox="true" />
  <metadata
     id="metadata1311">
    <rdf:RDF>
      <cc:Work
         rdf:about="">
        <dc:format>image/svg+xml</dc:format>
        <dc:type
           rdf:resource="http://purl.org/dc/dcmitype/StillImage" />
        <cc:license
           rdf:resource="" />
      </cc:Work>
    </rdf:RDF>
  </metadata>
  <g
     id="layer1"
     inkscape:label="Layer 1"
     inkscape:groupmode="layer">
    <path
       sodipodi:type="inkscape:offset"
       inkscape:radius="2.2779515"
       inkscape:original="M 26.875 9 C 25.125412 9 23.698255 10.354474 23.53125 12.0625 C 20.713099 12.470161 18.276121 14.011853 16.71875 16.25 C 16.131804 16.004743 15.570954 15.6875 14.90625 15.6875 C 14.768986 15.6875 14.688019 15.736445 14.5625 15.75 C 14.140472 14.658854 13.26331 13.78125 12.03125 13.78125 C 10.435285 13.78125 9.125 15.091477 9.125 16.6875 C 9.1249999 17.680189 9.7278224 18.437924 10.5 18.96875 C 10.401392 19.243818 10.328863 19.515824 10.28125 19.8125 C 9.906454 19.71396 9.5965789 19.5 9.1875 19.5 C 7.6784592 19.499999 6.4448065 20.315349 5.5625 21.40625 C 5.0649221 21.123978 4.5120241 20.9375 3.90625 20.9375 C 2.046271 20.937499 0.53125 22.453024 0.53125 24.3125 C 0.53125007 26.171974 2.0462709 27.71875 3.90625 27.71875 C 4.5170316 27.718749 5.0621042 27.505389 5.5625 27.21875 C 6.4448067 28.30965 7.6784604 29.124999 9.1875 29.125 C 9.8474344 29.124999 10.433692 28.960139 11 28.71875 C 12.009328 30.375312 13.791252 31.53125 15.875 31.53125 C 17.226436 31.531249 18.399012 30.962294 19.375 30.1875 C 20.986547 31.277758 22.880519 32 24.96875 32 C 27.75024 31.999999 30.172373 30.761861 32 28.9375 C 33.002178 29.625799 34.159618 30.09375 35.46875 30.09375 C 37.002544 30.09375 38.354022 29.445479 39.4375 28.53125 C 40.000412 28.803431 40.546801 29.125 41.21875 29.125 C 42.16805 29.124999 42.975293 28.737616 43.6875 28.21875 C 44.079399 28.486222 44.527761 28.65625 45.03125 28.65625 C 46.363203 28.65625 47.468753 27.551323 47.46875 26.21875 C 47.468749 25.021162 46.522268 24.129653 45.375 23.9375 C 44.96006 21.973826 43.301724 20.46875 41.21875 20.46875 C 41.010868 20.46875 40.824043 20.533958 40.625 20.5625 C 39.935342 19.496151 38.96853 18.707665 37.78125 18.21875 C 37.818059 18.016079 37.90625 17.8442 37.90625 17.625 C 37.906252 15.502066 36.155237 13.78125 34.03125 13.78125 C 33.145171 13.78125 32.380293 14.14848 31.71875 14.65625 C 31.17227 14.158241 30.578924 13.71196 29.9375 13.34375 C 30.038889 13.015328 30.25 12.728819 30.25 12.375 C 30.25 10.515522 28.734976 9 26.875 9 z "
       style="fill:#f0f0f0;fill-opacity:1;stroke:none;stroke-width:2;stroke-linecap:round;stroke-linejoin:miter;stroke-miterlimit:4;stroke-dasharray:none;stroke-dashoffset:1.20000057000000004;stroke-opacity:1"
       id="path2387"
       d="M 26.875,6.71875 C 24.556184,6.71875 22.615384,8.178563 21.75,10.1875 C 19.526779,10.791956 17.53881,11.957288 16,13.59375 C 15.892809,13.56755 15.773349,13.551274 15.65625,13.53125 C 14.789737,12.441091 13.650905,11.5 12.03125,11.5 C 9.1885436,11.5 6.84375,13.844726 6.84375,16.6875 C 6.84375,17.093757 7.0592778,17.387242 7.15625,17.75 C 6.330027,18.044554 5.6310575,18.437993 5,18.96875 C 4.6193738,18.879096 4.3288484,18.65625 3.90625,18.65625 C 0.80887557,18.656248 -1.75,21.215706 -1.75,24.3125 C -1.7499999,27.409293 0.78336041,30 3.90625,30 C 4.3542896,29.999999 4.6145367,29.786976 5,29.6875 C 6.1274677,30.630811 7.4834375,31.406249 9.1875,31.40625 C 9.6179013,31.406249 9.9265387,31.233351 10.3125,31.15625 C 11.750985,32.664306 13.599071,33.8125 15.875,33.8125 C 17.259615,33.812499 18.426375,33.33275 19.46875,32.75 C 21.108538,33.61545 22.918969,34.28125 24.96875,34.28125 C 27.774742,34.281249 30.147312,33.109584 32.15625,31.5625 C 33.154593,32.023674 34.234103,32.375 35.46875,32.375 C 37.044154,32.375 38.373079,31.80724 39.5625,31.09375 C 40.011552,31.258818 40.557831,31.40625 41.21875,31.40625 C 42.314816,31.406249 43.228525,31.052042 44.03125,30.625 C 44.382694,30.715924 44.645083,30.9375 45.03125,30.9375 C 47.622992,30.9375 49.750006,28.811239 49.75,26.21875 C 49.749998,24.345961 48.56482,22.887923 47.0625,22.15625 C 46.093955,19.999239 44.092578,18.403052 41.59375,18.25 C 41.121497,17.740635 40.611216,17.315229 40.03125,16.9375 C 39.665304,13.902197 37.142038,11.5 34.03125,11.5 C 33.434775,11.5 32.920002,11.648605 32.40625,11.8125 C 32.105426,8.9887934 29.772403,6.71875 26.875,6.71875 z"
       transform="matrix(0.9166223,0,0,0.9166223,2.0010642,1.7092423)" />
    <path
       style="fill:#373b41;fill-opacity:1;stroke:none;stroke-width:2;stroke-linecap:round;stroke-linejoin:miter;stroke-miterlimit:4;stroke-dasharray:none;stroke-dashoffset:1.20000057;stroke-opacity:1"
       d="M 26.635289,9.9588433 C 25.031578,9.9588433 23.723414,11.200384 23.570333,12.765999 C 20.987153,13.13967 18.753365,14.55282 17.325844,16.604355 C 16.787836,16.379547 16.273748,16.088755 15.664466,16.088755 C 15.538646,16.088755 15.46443,16.133619 15.349377,16.146044 C 14.962537,15.145875 14.15851,14.341444 13.029177,14.341444 C 11.566279,14.341444 10.365243,15.542427 10.365243,17.005377 C 10.365243,17.915298 10.917803,18.609855 11.625599,19.096422 C 11.535212,19.348556 11.468731,19.597882 11.425087,19.869822 C 11.081541,19.779498 10.797503,19.583378 10.422532,19.583378 C 9.0393113,19.583377 7.9085177,20.330745 7.0997759,21.330689 C 6.6436849,21.071952 6.1368862,20.901022 5.5816201,20.901022 C 3.8767219,20.901021 2.4880198,22.290185 2.4880198,23.994623 C 2.4880199,25.699058 3.8767218,27.116867 5.5816201,27.116867 C 6.1414762,27.116866 6.6411019,26.921296 7.0997759,26.658556 C 7.9085179,27.6585 9.0393124,28.405867 10.422532,28.405868 C 11.027442,28.405867 11.564819,28.254752 12.08391,28.03349 C 13.009082,29.551931 14.642434,30.61149 16.552444,30.61149 C 17.7912,30.611489 18.866009,30.089972 19.760622,29.379779 C 21.237802,30.379134 22.973859,31.041157 24.887978,31.041157 C 27.437554,31.041156 29.657735,29.906251 31.332979,28.234001 C 32.251597,28.864911 33.312533,29.293845 34.512512,29.293845 C 35.918422,29.293845 37.157217,28.699626 38.150357,27.861623 C 38.666335,28.11111 39.167167,28.405868 39.783091,28.405868 C 40.65324,28.405867 41.393177,28.050783 42.046002,27.575179 C 42.405225,27.820349 42.816204,27.976201 43.277713,27.976201 C 44.498611,27.976201 45.511983,26.9634 45.51198,25.741934 C 45.511979,24.644198 44.644414,23.827021 43.592802,23.650889 C 43.212459,21.850942 41.692391,20.471356 39.783091,20.471356 C 39.592541,20.471356 39.421293,20.531127 39.238846,20.557289 C 38.60669,19.57985 37.720489,18.857106 36.632201,18.408955 C 36.665941,18.223183 36.746779,18.065634 36.746779,17.864711 C 36.746781,15.918782 35.141762,14.341444 33.194868,14.341444 C 32.382668,14.341444 31.681564,14.678055 31.075179,15.143488 C 30.574263,14.687002 30.030389,14.277931 29.442445,13.940421 C 29.53538,13.639383 29.72889,13.376762 29.72889,13.052444 C 29.72889,11.348005 28.340185,9.9588433 26.635289,9.9588433 z"
       id="path2077"
       sodipodi:nodetypes="cccscssccscssscscscscscscsscsccssccsc" />
  </g>
</svg>
