<?xml version="1.0" encoding="UTF-8" standalone="no"?>
<!-- Created with Inkscape (http://www.inkscape.org/) -->
<svg
   xmlns:dc="http://purl.org/dc/elements/1.1/"
   xmlns:cc="http://creativecommons.org/ns#"
   xmlns:rdf="http://www.w3.org/1999/02/22-rdf-syntax-ns#"
   xmlns:svg="http://www.w3.org/2000/svg"
   xmlns="http://www.w3.org/2000/svg"
   xmlns:sodipodi="http://sodipodi.sourceforge.net/DTD/sodipodi-0.dtd"
   xmlns:inkscape="http://www.inkscape.org/namespaces/inkscape"
   width="48px"
   height="48px"
   id="svg1306"
   sodipodi:version="0.32"
   inkscape:version="0.46"
   sodipodi:docbase="/home/qwerty/.icons/MonoIce/scalable/status"
   sodipodi:docname="weather-showers-scattered.svg"
   inkscape:output_extension="org.inkscape.output.svg.inkscape">
  <defs
     id="defs1308">
    <inkscape:perspective
       sodipodi:type="inkscape:persp3d"
       inkscape:vp_x="0 : 24 : 1"
       inkscape:vp_y="0 : 1000 : 0"
       inkscape:vp_z="48 : 24 : 1"
       inkscape:persp3d-origin="24 : 16 : 1"
       id="perspective37" />
    <linearGradient
       id="linearGradient3112">
      <stop
         style="stop-color:#3465a4;stop-opacity:1;"
         offset="0"
         id="stop3114" />
      <stop
         style="stop-color:#204a87;stop-opacity:1"
         offset="1"
         id="stop3116" />
    </linearGradient>
    <linearGradient
       id="linearGradient3026">
      <stop
         id="stop3028"
         offset="0"
         style="stop-color:#729fcf;stop-opacity:0.3137255;" />
      <stop
         id="stop3030"
         offset="1"
         style="stop-color:#3465a4;stop-opacity:1" />
    </linearGradient>
    <linearGradient
       id="linearGradient2851">
      <stop
         id="stop2853"
         offset="0"
         style="stop-color:#babdb6;stop-opacity:1" />
      <stop
         style="stop-color:#babdb6;stop-opacity:1;"
         offset="0.26506025"
         id="stop2855" />
      <stop
         id="stop2857"
         offset="1"
         style="stop-color:#555753;stop-opacity:1" />
    </linearGradient>
  </defs>
  <sodipodi:namedview
     id="base"
     pagecolor="#cf2929"
     bordercolor="#666"
     borderopacity="0.28627451"
     inkscape:pageopacity="0.4745098"
     inkscape:pageshadow="2"
     inkscape:zoom="5.656854"
     inkscape:cx="-0.046793373"
     inkscape:cy="17.788935"
     inkscape:current-layer="layer1"
     showgrid="false"
     inkscape:grid-bbox="true"
     inkscape:document-units="px"
     inkscape:window-width="810"
     inkscape:window-height="758"
     inkscape:window-x="1"
     inkscape:window-y="45"
     inkscape:showpageshadow="false"
     showborder="true"
     showguides="false"
     inkscape:guide-bbox="true"
     inkscape:grid-points="true">
    <inkscape:grid
       id="GridFromPre046Settings"
       type="xygrid"
       originx="0px"
       originy="0px"
       spacingx="0.5px"
       spacingy="0.5px"
       color="#0000ff"
       empcolor="#0000ff"
       opacity="0.2"
       empopacity="0.4"
       empspacing="5" />
  </sodipodi:namedview>
  <metadata
     id="metadata1311">
    <rdf:RDF>
      <cc:Work
         rdf:about="">
        <dc:format>image/svg+xml</dc:format>
        <dc:type
           rdf:resource="http://purl.org/dc/dcmitype/StillImage" />
        <cc:license
           rdf:resource="http://creativecommons.org/licenses/GPL/2.0/" />
        <dc:title>Scattered Showers</dc:title>
        <dc:creator>
          <cc:Agent>
            <dc:title>Lapo Calamandrei</dc:title>
          </cc:Agent>
        </dc:creator>
      </cc:Work>
      <cc:License
         rdf:about="http://creativecommons.org/licenses/GPL/2.0/">
        <cc:permits
           rdf:resource="http://web.resource.org/cc/Reproduction" />
        <cc:permits
           rdf:resource="http://web.resource.org/cc/Distribution" />
        <cc:requires
           rdf:resource="http://web.resource.org/cc/Notice" />
        <cc:permits
           rdf:resource="http://web.resource.org/cc/DerivativeWorks" />
        <cc:requires
           rdf:resource="http://web.resource.org/cc/ShareAlike" />
        <cc:requires
           rdf:resource="http://web.resource.org/cc/SourceCode" />
      </cc:License>
    </rdf:RDF>
  </metadata>
  <g
     id="layer1"
     inkscape:label="Layer 1"
     inkscape:groupmode="layer">
    <g
       id="g2428"
       style="fill:#f0f0f0"
       transform="matrix(0.8510617,0,0,0.8510617,3.57452,4.2244614)">
      <g
         id="g2430"
         transform="matrix(1,0,-0.217784,1,15.17529,2)"
         style="fill:#f0f0f0;stroke:#373b41;stroke-opacity:1">
        <path
           sodipodi:type="inkscape:offset"
           inkscape:radius="3.946413"
           inkscape:original="M 25.5 36.5 C 25.491987 36.502147 23.5 41.396001 23.5 42.5 C 23.5 43.604 24.396 44.5 25.5 44.5 C 26.604 44.5 27.5 43.604 27.5 42.5 C 27.5 41.396001 25.510497 36.500001 25.5 36.5 z "
           style="fill:#f0f0f0;fill-opacity:1;stroke:#373b41;stroke-width:0.02;stroke-linecap:round;stroke-linejoin:miter;stroke-miterlimit:4;stroke-dasharray:none;stroke-dashoffset:1.20000057;stroke-opacity:1"
           id="path2460"
           d="M 25.09375,32.5625 C 24.882387,32.587249 24.673373,32.629052 24.46875,32.6875 C 24.46875,32.6875 22.093842,34.499843 22.09375,34.5 C 22.093658,34.500157 21.989728,34.707768 21.96875,34.75 C 21.926794,34.834464 21.917167,34.850823 21.90625,34.875 C 21.884415,34.923354 21.88237,34.951527 21.875,34.96875 C 21.860259,35.003196 21.854449,35.005458 21.84375,35.03125 C 21.822351,35.082834 21.780394,35.143817 21.75,35.21875 C 21.689213,35.368616 21.598504,35.593998 21.5,35.84375 C 21.302992,36.343255 21.045832,36.996723 20.78125,37.71875 C 20.516668,38.440777 20.254168,39.204976 20.03125,39.9375 C 19.808332,40.670024 19.5625,41.037223 19.5625,42.5 C 19.5625,45.739257 22.260743,48.4375 25.5,48.4375 C 28.739257,48.4375 31.4375,45.739257 31.4375,42.5 C 31.4375,41.038703 31.191419,40.670167 30.96875,39.9375 C 30.746081,39.204833 30.483274,38.441208 30.21875,37.71875 C 29.954226,36.996292 29.697685,36.344556 29.5,35.84375 C 29.401157,35.593347 29.312137,35.37131 29.25,35.21875 C 29.218931,35.14247 29.180206,35.088386 29.15625,35.03125 C 29.144272,35.002682 29.144932,34.983008 29.125,34.9375 C 29.115034,34.914746 29.095488,34.882236 29.0625,34.8125 C 29.046006,34.777632 29.035725,34.748569 28.96875,34.625 C 28.935262,34.563216 28.750101,34.281399 28.75,34.28125 C 28.749899,34.281101 25.500041,32.5625 25.5,32.5625 C 25.364673,32.555526 25.229077,32.555526 25.09375,32.5625 z" />
      </g>
      <g
         id="g2434"
         transform="matrix(0.655187,0,-0.171817,0.788932,17.17217,6.048276)"
         style="fill:#f0f0f0;stroke:#373b41;stroke-opacity:1">
        <path
           sodipodi:type="inkscape:offset"
           inkscape:radius="4.4963207"
           inkscape:original="M 25.5 36.5 C 25.491987 36.502147 23.5 41.396001 23.5 42.5 C 23.5 43.604 24.396 44.5 25.5 44.5 C 26.604 44.5 27.5 43.604 27.5 42.5 C 27.5 41.396001 25.510497 36.500001 25.5 36.5 z "
           style="fill:#f0f0f0;fill-opacity:1;stroke:#373b41;stroke-width:0.05381745;stroke-linecap:round;stroke-linejoin:miter;stroke-miterlimit:4;stroke-dasharray:none;stroke-dashoffset:1.20000057;stroke-opacity:1"
           id="path2462"
           d="M 25.5,32 C 25.109433,32.001649 24.720746,32.054174 24.34375,32.15625 C 24.34375,32.15625 21.625092,34.249843 21.625,34.25 C 21.624908,34.250157 21.49263,34.451926 21.46875,34.5 C 21.42099,34.596148 21.418614,34.628871 21.40625,34.65625 C 21.381523,34.711009 21.383119,34.731029 21.375,34.75 C 21.358763,34.787942 21.323643,34.816888 21.3125,34.84375 C 21.290214,34.897474 21.280781,34.955363 21.25,35.03125 C 21.188439,35.183024 21.09914,35.373634 21,35.625 C 20.80172,36.127731 20.547934,36.803488 20.28125,37.53125 C 20.014566,38.259012 19.72794,39.032221 19.5,39.78125 C 19.27206,40.530279 19,40.871853 19,42.5 C 19,46.036792 21.963208,49 25.5,49 C 29.036792,49 32,46.036792 32,42.5 C 32,40.87354 31.727683,40.530418 31.5,39.78125 C 31.272317,39.032082 30.985389,38.259485 30.71875,37.53125 C 30.452111,36.803015 30.199036,36.129228 30,35.625 C 29.900482,35.372886 29.813075,35.186114 29.75,35.03125 C 29.718462,34.953818 29.681433,34.872563 29.65625,34.8125 C 29.643658,34.782469 29.647142,34.769304 29.625,34.71875 C 29.613929,34.693473 29.599929,34.672874 29.5625,34.59375 C 29.543786,34.554188 29.545013,34.484454 29.46875,34.34375 C 29.430619,34.273398 29.218851,33.968899 29.21875,33.96875 C 29.218649,33.968601 25.500041,32 25.5,32 z" />
      </g>
      <g
         id="g2438"
         transform="matrix(1,0,-0.217784,1,2.828644,-1)"
         style="fill:#f0f0f0;stroke:#373b41;stroke-opacity:1">
        <path
           sodipodi:type="inkscape:offset"
           inkscape:radius="3.9086387"
           inkscape:original="M 25.5 36.5 C 25.491987 36.502147 23.5 41.396001 23.5 42.5 C 23.5 43.604 24.396 44.5 25.5 44.5 C 26.604 44.5 27.5 43.604 27.5 42.5 C 27.5 41.396001 25.510497 36.500001 25.5 36.5 z "
           style="fill:#f0f0f0;fill-opacity:1;stroke:#373b41;stroke-width:0.02;stroke-linecap:round;stroke-linejoin:miter;stroke-miterlimit:4;stroke-dasharray:none;stroke-dashoffset:1.20000057;stroke-opacity:1"
           id="path2464"
           d="M 25.5,32.59375 C 25.162669,32.592094 24.826543,32.63411 24.5,32.71875 C 24.5,32.71875 22.125092,34.531093 22.125,34.53125 C 22.124908,34.531407 22.020779,34.708169 22,34.75 C 21.958443,34.833661 21.948318,34.882293 21.9375,34.90625 C 21.915864,34.954164 21.913569,34.951647 21.90625,34.96875 C 21.891612,35.002955 21.885669,35.036781 21.875,35.0625 C 21.853662,35.113937 21.811617,35.175132 21.78125,35.25 C 21.720516,35.399735 21.66096,35.594108 21.5625,35.84375 C 21.36558,36.343033 21.076938,37.028367 20.8125,37.75 C 20.548062,38.471633 20.285073,39.237359 20.0625,39.96875 C 19.839927,40.700141 19.59375,41.048583 19.59375,42.5 C 19.59375,45.718819 22.281181,48.40625 25.5,48.40625 C 28.718819,48.40625 31.40625,45.718819 31.40625,42.5 C 31.40625,41.050049 31.159824,40.700283 30.9375,39.96875 C 30.715176,39.237217 30.451878,38.472062 30.1875,37.75 C 29.923122,37.027938 29.635092,36.344321 29.4375,35.84375 C 29.338704,35.593464 29.280823,35.402402 29.21875,35.25 C 29.187714,35.173799 29.148872,35.088184 29.125,35.03125 C 29.113064,35.002783 29.11353,34.982662 29.09375,34.9375 C 29.08386,34.914919 29.063933,34.912841 29.03125,34.84375 C 29.014909,34.809205 29.003837,34.747391 28.9375,34.625 C 28.904331,34.563804 28.718851,34.312649 28.71875,34.3125 C 28.718649,34.312351 25.500041,32.59375 25.5,32.59375 z" />
      </g>
      <g
         id="g2442"
         transform="matrix(0.762446,0,-0.199945,0.980942,28.08017,-2.917713)"
         style="fill:#f0f0f0;fill-opacity:1;stroke:#373b41;stroke-width:0.02674099;stroke-miterlimit:4;stroke-dasharray:none;stroke-opacity:1">
        <path
           sodipodi:type="inkscape:offset"
           inkscape:radius="0"
           inkscape:original="M 25.5 32.34375 C 25.140567 32.349667 24.78342 32.402189 24.4375 32.5 C 24.4375 32.5 21.906342 34.406093 21.90625 34.40625 C 21.906158 34.406407 21.803334 34.611791 21.78125 34.65625 C 21.737082 34.745167 21.730219 34.755853 21.71875 34.78125 C 21.695813 34.832045 21.695156 34.857111 21.6875 34.875 C 21.672189 34.910778 21.635869 34.94255 21.625 34.96875 C 21.603263 35.02115 21.593041 35.080953 21.5625 35.15625 C 21.501418 35.306843 21.411246 35.499633 21.3125 35.75 C 21.115007 36.250734 20.859133 36.932037 20.59375 37.65625 C 20.328367 38.380463 20.068582 39.136185 19.84375 39.875 C 19.618918 40.613815 19.34375 40.974195 19.34375 42.5 C 19.34375 45.852659 22.147341 48.65625 25.5 48.65625 C 28.852659 48.65625 31.65625 45.852659 31.65625 42.5 C 31.65625 40.975753 31.38083 40.613956 31.15625 39.875 C 30.93167 39.136044 30.67158 38.38091 30.40625 37.65625 C 30.14092 36.93159 29.8857 36.25211 29.6875 35.75 C 29.5884 35.498945 29.499995 35.309688 29.4375 35.15625 C 29.406253 35.079531 29.368174 34.995751 29.34375 34.9375 C 29.331538 34.908374 29.333274 34.891181 29.3125 34.84375 C 29.302113 34.820034 29.28468 34.792064 29.25 34.71875 C 29.23266 34.682093 29.226765 34.66135 29.15625 34.53125 C 29.120992 34.4662 28.937601 34.156399 28.9375 34.15625 C 28.937399 34.156101 25.500041 32.34375 25.5 32.34375 z "
           style="fill:#f0f0f0;fill-opacity:1;stroke:#373b41;stroke-width:0.02674099;stroke-linecap:round;stroke-linejoin:miter;stroke-miterlimit:4;stroke-dasharray:none;stroke-dashoffset:1.20000057;stroke-opacity:1"
           id="path2456"
           d="M 25.5,32.34375 C 25.140567,32.349667 24.78342,32.402189 24.4375,32.5 C 24.4375,32.5 21.906342,34.406093 21.90625,34.40625 C 21.906158,34.406407 21.803334,34.611791 21.78125,34.65625 C 21.737082,34.745167 21.730219,34.755853 21.71875,34.78125 C 21.695813,34.832045 21.695156,34.857111 21.6875,34.875 C 21.672189,34.910778 21.635869,34.94255 21.625,34.96875 C 21.603263,35.02115 21.593041,35.080953 21.5625,35.15625 C 21.501418,35.306843 21.411246,35.499633 21.3125,35.75 C 21.115007,36.250734 20.859133,36.932037 20.59375,37.65625 C 20.328367,38.380463 20.068582,39.136185 19.84375,39.875 C 19.618918,40.613815 19.34375,40.974195 19.34375,42.5 C 19.34375,45.852659 22.147341,48.65625 25.5,48.65625 C 28.852659,48.65625 31.65625,45.852659 31.65625,42.5 C 31.65625,40.975753 31.38083,40.613956 31.15625,39.875 C 30.93167,39.136044 30.67158,38.38091 30.40625,37.65625 C 30.14092,36.93159 29.8857,36.25211 29.6875,35.75 C 29.5884,35.498945 29.499995,35.309688 29.4375,35.15625 C 29.406253,35.079531 29.368174,34.995751 29.34375,34.9375 C 29.331538,34.908374 29.333274,34.891181 29.3125,34.84375 C 29.302113,34.820034 29.28468,34.792064 29.25,34.71875 C 29.23266,34.682093 29.226765,34.66135 29.15625,34.53125 C 29.120992,34.4662 28.937601,34.156399 28.9375,34.15625 C 28.937399,34.156101 25.500041,32.34375 25.5,32.34375 z" />
      </g>
      <g
         id="g2446"
         transform="matrix(0.503067,0,-0.131925,0.605759,1.573723,12.46677)"
         style="fill:#f0f0f0;stroke:#373b41;stroke-opacity:1">
        <path
           sodipodi:type="inkscape:offset"
           inkscape:radius="6.4509716"
           inkscape:original="M 25.5 36.5 C 25.491987 36.502147 23.5 41.396001 23.5 42.5 C 23.5 43.604 24.396 44.5 25.5 44.5 C 26.604 44.5 27.5 43.604 27.5 42.5 C 27.5 41.396001 25.510497 36.500001 25.5 36.5 z "
           style="fill:#f0f0f0;fill-opacity:1;stroke:#373b41;stroke-width:0.11888903;stroke-linecap:round;stroke-linejoin:miter;stroke-miterlimit:4;stroke-dasharray:none;stroke-dashoffset:1.20000057;stroke-opacity:1"
           id="path2470"
           d="M 25.5,30.0625 C 24.940769,30.063326 24.384019,30.136859 23.84375,30.28125 C 23.84375,30.28125 19.937592,33.249843 19.9375,33.25 C 19.937408,33.250157 19.752945,33.556159 19.71875,33.625 C 19.650359,33.762681 19.642504,33.804988 19.625,33.84375 C 19.589992,33.921275 19.573278,33.943566 19.5625,33.96875 C 19.540945,34.019118 19.543971,34.063086 19.53125,34.09375 C 19.505809,34.155078 19.469655,34.201973 19.4375,34.28125 C 19.373189,34.439803 19.288902,34.64915 19.1875,34.90625 C 18.984697,35.420449 18.711655,36.126851 18.4375,36.875 C 18.163345,37.623149 17.870792,38.411057 17.625,39.21875 C 17.379208,40.026443 17.0625,40.284045 17.0625,42.5 C 17.0625,47.094381 20.905619,50.9375 25.5,50.9375 C 30.094381,50.9375 33.9375,47.094381 33.9375,42.5 C 33.9375,40.286464 33.620509,40.026569 33.375,39.21875 C 33.129491,38.410931 32.836657,37.62377 32.5625,36.875 C 32.288343,36.12623 32.016337,35.42264 31.8125,34.90625 C 31.710582,34.648055 31.62891,34.444301 31.5625,34.28125 C 31.529295,34.199725 31.498296,34.132967 31.46875,34.0625 C 31.453977,34.027266 31.436248,34.005989 31.40625,33.9375 C 31.391251,33.903255 31.396965,33.862497 31.34375,33.75 C 31.317142,33.693752 31.296776,33.639114 31.1875,33.4375 C 31.132862,33.336693 30.843851,32.875149 30.84375,32.875 C 30.843649,32.874851 25.500041,30.0625 25.5,30.0625 z" />
      </g>
      <g
         id="g2450"
         transform="matrix(0.503067,0,-0.131925,0.605759,4.049234,19.46677)"
         style="fill:#f0f0f0;stroke:#373b41;stroke-opacity:1">
        <path
           sodipodi:type="inkscape:offset"
           inkscape:radius="0"
           inkscape:original="M 25.5 29.1875 C 24.866801 29.18914 24.236508 29.273179 23.625 29.4375 C 23.625 29.4375 19.187592 32.812343 19.1875 32.8125 C 19.187408 32.812657 19.007412 33.172167 18.96875 33.25 C 18.891426 33.405665 18.86348 33.456309 18.84375 33.5 C 18.804291 33.587383 18.793179 33.628375 18.78125 33.65625 C 18.757392 33.711999 18.763404 33.717689 18.75 33.75 C 18.723193 33.814621 18.689001 33.888005 18.65625 33.96875 C 18.590748 34.130239 18.508631 34.334167 18.40625 34.59375 C 18.201488 35.112915 17.93364 35.805523 17.65625 36.5625 C 17.37886 37.319477 17.097273 38.135655 16.84375 38.96875 C 16.590227 39.801845 16.1875 40.029522 16.1875 42.5 C 16.1875 47.55232 20.44768 51.8125 25.5 51.8125 C 30.55232 51.8125 34.8125 47.55232 34.8125 42.5 C 34.8125 40.032258 34.409477 39.801966 34.15625 38.96875 C 33.903023 38.135534 33.621163 37.320161 33.34375 36.5625 C 33.066337 35.804839 32.799666 35.115407 32.59375 34.59375 C 32.490792 34.332922 32.411604 34.135345 32.34375 33.96875 C 32.309823 33.885452 32.281434 33.793722 32.25 33.71875 C 32.234283 33.681264 32.220899 33.670005 32.1875 33.59375 C 32.1708 33.555622 32.153801 33.501947 32.09375 33.375 C 32.063725 33.311527 32.029821 33.259238 31.90625 33.03125 C 31.844464 32.917256 31.531351 32.406399 31.53125 32.40625 C 31.531149 32.406101 25.500041 29.1875 25.5 29.1875 z "
           style="fill:#f0f0f0;fill-opacity:1;stroke:#373b41;stroke-width:0.11888903;stroke-linecap:round;stroke-linejoin:miter;stroke-miterlimit:4;stroke-dasharray:none;stroke-dashoffset:1.20000057;stroke-opacity:1"
           id="path2468"
           d="M 25.5,29.1875 C 24.866801,29.18914 24.236508,29.273179 23.625,29.4375 C 23.625,29.4375 19.187592,32.812343 19.1875,32.8125 C 19.187408,32.812657 19.007412,33.172167 18.96875,33.25 C 18.891426,33.405665 18.86348,33.456309 18.84375,33.5 C 18.804291,33.587383 18.793179,33.628375 18.78125,33.65625 C 18.757392,33.711999 18.763404,33.717689 18.75,33.75 C 18.723193,33.814621 18.689001,33.888005 18.65625,33.96875 C 18.590748,34.130239 18.508631,34.334167 18.40625,34.59375 C 18.201488,35.112915 17.93364,35.805523 17.65625,36.5625 C 17.37886,37.319477 17.097273,38.135655 16.84375,38.96875 C 16.590227,39.801845 16.1875,40.029522 16.1875,42.5 C 16.1875,47.55232 20.44768,51.8125 25.5,51.8125 C 30.55232,51.8125 34.8125,47.55232 34.8125,42.5 C 34.8125,40.032258 34.409477,39.801966 34.15625,38.96875 C 33.903023,38.135534 33.621163,37.320161 33.34375,36.5625 C 33.066337,35.804839 32.799666,35.115407 32.59375,34.59375 C 32.490792,34.332922 32.411604,34.135345 32.34375,33.96875 C 32.309823,33.885452 32.281434,33.793722 32.25,33.71875 C 32.234283,33.681264 32.220899,33.670005 32.1875,33.59375 C 32.1708,33.555622 32.153801,33.501947 32.09375,33.375 C 32.063725,33.311527 32.029821,33.259238 31.90625,33.03125 C 31.844464,32.917256 31.531351,32.406399 31.53125,32.40625 C 31.531149,32.406101 25.500041,29.1875 25.5,29.1875 z" />
      </g>
    </g>
    <path
       sodipodi:type="inkscape:offset"
       inkscape:radius="3.1819806"
       inkscape:original="M 26.875 9 C 25.12615 9 23.698082 10.354871 23.53125 12.0625 C 20.715426 12.47024 18.305821 14.01185 16.75 16.25 C 16.160879 16.002091 15.574172 15.6875 14.90625 15.6875 C 14.769041 15.6875 14.687955 15.736438 14.5625 15.75 C 14.140876 14.658957 13.294159 13.78125 12.0625 13.78125 C 10.467054 13.78125 9.1562485 15.092023 9.15625 16.6875 C 9.1562496 17.695368 9.7388973 18.472358 10.53125 19 C 10.43694 19.26802 10.327322 19.524183 10.28125 19.8125 C 9.9105513 19.716051 9.5916345 19.5 9.1875 19.5 C 7.6793592 19.499999 6.475258 20.315288 5.59375 21.40625 C 5.0954432 21.122279 4.5448456 20.9375 3.9375 20.9375 C 2.0783063 20.937499 0.53125 22.453571 0.53125 24.3125 C 0.53124993 26.171428 2.0783062 27.71875 3.9375 27.71875 C 4.5499834 27.718749 5.0925646 27.507215 5.59375 27.21875 C 6.4752581 28.309711 7.67936 29.124999 9.1875 29.125 C 9.8494145 29.124999 10.463729 28.9618 11.03125 28.71875 C 12.040596 30.370664 13.796172 31.53125 15.875 31.53125 C 17.225549 31.531249 18.399836 30.962407 19.375 30.1875 C 20.985102 31.277871 22.882217 32 24.96875 32 C 27.749441 31.999999 30.173887 30.732376 32 28.90625 C 33.003952 29.600321 34.154569 30.09375 35.46875 30.09375 C 37.001495 30.09375 38.323719 29.445588 39.40625 28.53125 C 39.968786 28.803519 40.51591 29.125 41.1875 29.125 C 42.140036 29.124999 42.97433 28.741422 43.6875 28.21875 C 44.078816 28.485545 44.528672 28.65625 45.03125 28.65625 C 46.362949 28.65625 47.468753 27.550777 47.46875 26.21875 C 47.468749 25.007035 46.510902 24.080537 45.34375 23.90625 C 44.917571 21.957947 43.258532 20.46875 41.1875 20.46875 C 40.985583 20.46875 40.818604 20.535477 40.625 20.5625 C 39.939318 19.501241 38.960245 18.708782 37.78125 18.21875 C 37.818013 18.016129 37.90625 17.844136 37.90625 17.625 C 37.906252 15.502612 36.154186 13.78125 34.03125 13.78125 C 33.137075 13.78125 32.351638 14.139353 31.6875 14.65625 C 31.144029 14.161111 30.574882 13.710428 29.9375 13.34375 C 30.038765 13.0154 30.25 12.728718 30.25 12.375 C 30.25 10.516068 28.734191 9 26.875 9 z "
       style="fill:#f0f0f0;fill-opacity:1;stroke:none;stroke-width:2;stroke-linecap:round;stroke-linejoin:miter;stroke-miterlimit:4;stroke-dasharray:none;stroke-dashoffset:1.20000057;stroke-opacity:1"
       id="path2412"
       d="M 26.875,5.8125 C 24.330789,5.8125 22.112567,7.3049762 21.03125,9.4375 C 19.102156,10.041971 17.343199,11.018429 15.90625,12.375 C 14.916183,11.390665 13.673514,10.59375 12.0625,10.59375 C 8.7242376,10.59375 5.9687469,13.349196 5.96875,16.6875 C 5.9687499,16.840904 6.0810014,16.944589 6.09375,17.09375 C 5.5845426,17.338739 5.2112369,17.673134 4.78125,18 C 4.4722756,17.950579 4.2671503,17.75 3.9375,17.75 C 0.34848319,17.749998 -2.65625,20.688145 -2.65625,24.3125 C -2.6562501,27.936855 0.31282821,30.90625 3.9375,30.90625 C 4.2904022,30.906249 4.5864751,30.806422 4.90625,30.75 C 6.0930235,31.613034 7.4829071,32.312499 9.1875,32.3125 C 9.426292,32.3125 9.5848823,32.209699 9.8125,32.1875 C 11.37769,33.695386 13.484907,34.71875 15.875,34.71875 C 17.245147,34.718749 18.406524,34.304415 19.46875,33.78125 C 21.121722,34.583043 22.933924,35.1875 24.96875,35.1875 C 27.791064,35.187499 30.158568,34.028307 32.21875,32.5625 C 33.202439,32.967462 34.25867,33.28125 35.46875,33.28125 C 37.099793,33.28125 38.478279,32.72449 39.71875,32.03125 C 40.161991,32.15717 40.58579,32.3125 41.1875,32.3125 C 42.241665,32.312499 43.146632,32.02124 43.96875,31.65625 C 44.319701,31.730883 44.652427,31.84375 45.03125,31.84375 C 48.123904,31.84375 50.656257,29.31183 50.65625,26.21875 C 50.656248,24.094188 49.41848,22.364318 47.75,21.4375 C 46.652578,19.288994 44.572537,17.752266 42.0625,17.4375 C 41.679121,17.050262 41.284973,16.688283 40.84375,16.375 C 40.220756,13.121011 37.43312,10.59375 34.03125,10.59375 C 33.691231,10.59375 33.413349,10.731068 33.09375,10.78125 C 32.354818,7.9719478 29.898414,5.8125 26.875,5.8125 z"
       transform="matrix(0.8510617,0,0,0.8510617,3.57452,4.2244614)" />
    <path
       sodipodi:nodetypes="cszcz"
       id="path9034"
       d="M 32.01655,42.096706 C 31.811926,43.036278 30.883303,43.798829 29.943731,43.798829 C 29.004159,43.798829 28.407679,43.036278 28.612303,42.096706 C 28.816927,41.157134 31.419295,36.992164 31.426512,36.990336 C 31.435446,36.990336 32.221173,41.157134 32.01655,42.096706 z"
       style="fill:#373b41;fill-opacity:1;stroke:#373b41;stroke-width:1.70212328;stroke-linecap:round;stroke-linejoin:miter;stroke-miterlimit:4;stroke-dasharray:none;stroke-dashoffset:1.20000057;stroke-opacity:1" />
    <path
       sodipodi:nodetypes="cszcz"
       id="path9036"
       d="M 27.308579,37.907683 C 27.147144,38.648942 26.516511,39.250543 25.900916,39.250543 C 25.285321,39.250543 24.916726,38.648942 25.078161,37.907683 C 25.239595,37.166425 27.065949,33.880547 27.070731,33.879105 C 27.076584,33.879105 27.470013,37.166425 27.308579,37.907683 z"
       style="fill:#373b41;fill-opacity:1;stroke:#373b41;stroke-width:1.7021234;stroke-linecap:round;stroke-linejoin:miter;stroke-miterlimit:4;stroke-dasharray:none;stroke-dashoffset:1.20000057;stroke-opacity:1" />
    <path
       sodipodi:nodetypes="cszcz"
       id="path9038"
       d="M 21.508793,39.543521 C 21.304169,40.483093 20.375546,41.245644 19.435974,41.245644 C 18.496402,41.245644 17.899922,40.483093 18.104546,39.543521 C 18.30917,38.603949 20.911537,34.438979 20.918755,34.437151 C 20.927688,34.437151 21.713416,38.603949 21.508793,39.543521 z"
       style="fill:#373b41;fill-opacity:1;stroke:#373b41;stroke-width:1.70212328;stroke-linecap:round;stroke-linejoin:miter;stroke-miterlimit:4;stroke-dasharray:none;stroke-dashoffset:1.20000057;stroke-opacity:1" />
    <g
       id="g9040"
       transform="matrix(0.6488886,0,-0.1701655,0.8348421,27.472476,1.7413077)"
       style="fill:#373b41;fill-opacity:1;stroke:#373b41;stroke-width:2.3126173;stroke-miterlimit:4;stroke-dasharray:none;stroke-opacity:1">
      <path
         sodipodi:nodetypes="cszcz"
         id="path9042"
         d="M 27.5,42.5 C 27.5,43.604 26.604,44.5 25.5,44.5 C 24.396,44.5 23.5,43.604 23.5,42.5 C 23.5,41.396001 25.491987,36.502148 25.5,36.500001 C 25.510497,36.500001 27.5,41.396001 27.5,42.5 z"
         style="fill:#373b41;fill-opacity:1;stroke:#373b41;stroke-width:2.3126173;stroke-linecap:round;stroke-linejoin:miter;stroke-miterlimit:4;stroke-dasharray:none;stroke-dashoffset:1.20000057;stroke-opacity:1" />
    </g>
    <path
       sodipodi:nodetypes="cszcz"
       id="path9044"
       d="M 11.915991,36.744828 C 11.792038,37.313982 11.307824,37.775904 10.835156,37.775904 C 10.362488,37.775904 10.079474,37.313982 10.203427,36.744828 C 10.327379,36.175674 11.729695,33.652706 11.733366,33.651599 C 11.737861,33.651599 12.039944,36.175674 11.915991,36.744828 z"
       style="fill:#373b41;fill-opacity:1;stroke:#373b41;stroke-width:1.7021234;stroke-linecap:round;stroke-linejoin:miter;stroke-miterlimit:4;stroke-dasharray:none;stroke-dashoffset:1.20000057;stroke-opacity:1" />
    <path
       sodipodi:nodetypes="cszcz"
       id="path9046"
       d="M 14.022803,42.702259 C 13.89885,43.271414 13.414636,43.733336 12.941969,43.733336 C 12.469301,43.733336 12.186286,43.271414 12.310239,42.702259 C 12.434192,42.133106 13.836507,39.610137 13.840179,39.60903 C 13.844673,39.60903 14.146756,42.133106 14.022803,42.702259 z"
       style="fill:#373b41;fill-opacity:1;stroke:#373b41;stroke-width:1.7021234;stroke-linecap:round;stroke-linejoin:miter;stroke-miterlimit:4;stroke-dasharray:none;stroke-dashoffset:1.20000057;stroke-opacity:1" />
    <path
       style="fill:#373b41;fill-opacity:1;stroke:none;stroke-width:2;stroke-linecap:round;stroke-linejoin:miter;stroke-miterlimit:4;stroke-dasharray:none;stroke-dashoffset:1.20000057;stroke-opacity:1"
       d="M 26.446802,11.884016 C 24.958423,11.884016 23.743049,13.037095 23.601065,14.490393 C 21.204625,14.837405 19.153903,16.14941 17.829803,18.054214 C 17.328425,17.843228 16.829101,17.575491 16.260658,17.575491 C 16.143885,17.575491 16.074875,17.617141 15.968106,17.628683 C 15.609277,16.700138 14.888669,15.953155 13.840451,15.953155 C 12.482628,15.953155 11.367052,17.068704 11.367053,18.426553 C 11.367053,19.284311 11.862922,19.945577 12.537263,20.394633 C 12.457,20.622735 12.363708,20.840745 12.324498,21.086121 C 12.00901,21.004037 11.737592,20.820164 11.393649,20.820164 C 10.110128,20.820163 9.0853639,21.514024 8.3351462,22.4425 C 7.9110564,22.200823 7.4424639,22.043565 6.9255753,22.043565 C 5.3432868,22.043564 4.0266465,23.333835 4.0266465,24.915898 C 4.0266464,26.497961 5.3432867,27.814827 6.9255753,27.814827 C 7.4468364,27.814826 7.9086065,27.634798 8.3351462,27.389296 C 9.0853639,28.317771 10.110129,29.011632 11.393649,29.011632 C 11.956979,29.011632 12.479799,28.872739 12.962794,28.665889 C 13.82181,30.071769 15.315913,31.0595 17.085124,31.0595 C 18.234524,31.059499 19.233915,30.575379 20.06384,29.915885 C 21.434136,30.843858 23.048698,31.458435 24.824466,31.458435 C 27.191006,31.458434 29.254359,30.379609 30.808493,28.825463 C 31.662918,29.41616 32.642164,29.836098 33.760613,29.836098 C 35.065074,29.836098 36.190368,29.284473 37.111669,28.506315 C 37.590422,28.738032 38.056058,29.011632 38.627622,29.011632 C 39.438289,29.011632 40.148325,28.685184 40.755277,28.240358 C 41.088311,28.467417 41.471166,28.612697 41.898891,28.612697 C 43.032249,28.612697 43.973356,27.671872 43.973354,26.538235 C 43.973353,25.50699 43.158166,24.718483 42.164847,24.570154 C 41.802143,22.912028 40.390198,21.64463 38.627622,21.64463 C 38.455779,21.64463 38.313669,21.701419 38.1489,21.724417 C 37.565343,20.82122 36.732091,20.146789 35.728694,19.729741 C 35.759981,19.557298 35.835076,19.410922 35.835076,19.224423 C 35.835078,17.41814 34.343962,15.953155 32.537212,15.953155 C 31.776214,15.953155 31.107759,16.257923 30.542537,16.697834 C 30.080009,16.27644 29.59563,15.892881 29.053179,15.580816 C 29.139361,15.301369 29.319135,15.057385 29.319135,14.75635 C 29.319135,13.174284 28.029088,11.884016 26.446802,11.884016 z"
       id="path2077"
       sodipodi:nodetypes="cccscssccscssscscscscscscsscsccssccsc" />
    <g
       id="g2414"
       transform="matrix(0.8510617,0,0,0.8510617,3.57452,4.2244614)">
      <g
         style="stroke:#373b41;stroke-opacity:1"
         transform="matrix(1,0,-0.217784,1,15.17529,2)"
         id="g2908">
        <path
           style="fill:#373b41;fill-opacity:1;stroke:#373b41;stroke-width:0.02;stroke-linecap:round;stroke-linejoin:miter;stroke-miterlimit:4;stroke-dasharray:none;stroke-dashoffset:1.20000057;stroke-opacity:1"
           d="M 27.5,42.5 C 27.5,43.604 26.604,44.5 25.5,44.5 C 24.396,44.5 23.5,43.604 23.5,42.5 C 23.5,41.396001 25.491987,36.502148 25.5,36.500001 C 25.510497,36.500001 27.5,41.396001 27.5,42.5 z"
           id="path2877"
           sodipodi:nodetypes="cszcz" />
      </g>
      <g
         style="stroke:#373b41;stroke-opacity:1"
         transform="matrix(0.655187,0,-0.171817,0.788932,17.17217,6.048276)"
         id="g3042">
        <path
           style="fill:#373b41;fill-opacity:1;stroke:#373b41;stroke-width:0.05381745;stroke-linecap:round;stroke-linejoin:miter;stroke-miterlimit:4;stroke-dasharray:none;stroke-dashoffset:1.20000057;stroke-opacity:1"
           d="M 27.5,42.5 C 27.5,43.604 26.604,44.5 25.5,44.5 C 24.396,44.5 23.5,43.604 23.5,42.5 C 23.5,41.396001 25.491987,36.502148 25.5,36.500001 C 25.510497,36.500001 27.5,41.396001 27.5,42.5 z"
           id="path3044"
           sodipodi:nodetypes="cszcz" />
      </g>
      <g
         style="stroke:#373b41;stroke-opacity:1"
         transform="matrix(1,0,-0.217784,1,2.828644,-1)"
         id="g3120">
        <path
           style="fill:#373b41;fill-opacity:1;stroke:#373b41;stroke-width:0.02;stroke-linecap:round;stroke-linejoin:miter;stroke-miterlimit:4;stroke-dasharray:none;stroke-dashoffset:1.20000057;stroke-opacity:1"
           d="M 27.5,42.5 C 27.5,43.604 26.604,44.5 25.5,44.5 C 24.396,44.5 23.5,43.604 23.5,42.5 C 23.5,41.396001 25.491987,36.502148 25.5,36.500001 C 25.510497,36.500001 27.5,41.396001 27.5,42.5 z"
           id="path3122"
           sodipodi:nodetypes="cszcz" />
      </g>
      <g
         style="fill:#373b41;fill-opacity:1;stroke:#373b41;stroke-width:0.02674099;stroke-miterlimit:4;stroke-dasharray:none;stroke-opacity:1"
         transform="matrix(0.762446,0,-0.199945,0.980942,28.08017,-2.917713)"
         id="g3132">
        <path
           style="fill:#373b41;fill-opacity:1;stroke:#373b41;stroke-width:0.02674099;stroke-linecap:round;stroke-linejoin:miter;stroke-miterlimit:4;stroke-dasharray:none;stroke-dashoffset:1.20000057;stroke-opacity:1"
           d="M 27.5,42.5 C 27.5,43.604 26.604,44.5 25.5,44.5 C 24.396,44.5 23.5,43.604 23.5,42.5 C 23.5,41.396001 25.491987,36.502148 25.5,36.500001 C 25.510497,36.500001 27.5,41.396001 27.5,42.5 z"
           id="path3134"
           sodipodi:nodetypes="cszcz" />
      </g>
      <g
         style="stroke:#373b41;stroke-opacity:1"
         transform="matrix(0.503067,0,-0.131925,0.605759,1.573723,12.46677)"
         id="g3142">
        <path
           style="fill:#373b41;fill-opacity:1;stroke:#373b41;stroke-width:0.11888903;stroke-linecap:round;stroke-linejoin:miter;stroke-miterlimit:4;stroke-dasharray:none;stroke-dashoffset:1.20000057;stroke-opacity:1"
           d="M 27.5,42.5 C 27.5,43.604 26.604,44.5 25.5,44.5 C 24.396,44.5 23.5,43.604 23.5,42.5 C 23.5,41.396001 25.491987,36.502148 25.5,36.500001 C 25.510497,36.500001 27.5,41.396001 27.5,42.5 z"
           id="path3144"
           sodipodi:nodetypes="cszcz" />
      </g>
      <g
         style="stroke:#373b41;stroke-opacity:1"
         transform="matrix(0.503067,0,-0.131925,0.605759,4.049234,19.46677)"
         id="g3152">
        <path
           style="fill:#373b41;fill-opacity:1;stroke:#373b41;stroke-width:0.11888903;stroke-linecap:round;stroke-linejoin:miter;stroke-miterlimit:4;stroke-dasharray:none;stroke-dashoffset:1.20000057;stroke-opacity:1"
           d="M 27.5,42.5 C 27.5,43.604 26.604,44.5 25.5,44.5 C 24.396,44.5 23.5,43.604 23.5,42.5 C 23.5,41.396001 25.491987,36.502148 25.5,36.500001 C 25.510497,36.500001 27.5,41.396001 27.5,42.5 z"
           id="path3154"
           sodipodi:nodetypes="cszcz" />
      </g>
    </g>
  </g>
</svg>
