<?xml version="1.0" encoding="UTF-8" standalone="no"?>
<!-- Created with Inkscape (http://www.inkscape.org/) -->
<svg
   xmlns:dc="http://purl.org/dc/elements/1.1/"
   xmlns:cc="http://creativecommons.org/ns#"
   xmlns:rdf="http://www.w3.org/1999/02/22-rdf-syntax-ns#"
   xmlns:svg="http://www.w3.org/2000/svg"
   xmlns="http://www.w3.org/2000/svg"
   xmlns:xlink="http://www.w3.org/1999/xlink"
   xmlns:sodipodi="http://sodipodi.sourceforge.net/DTD/sodipodi-0.dtd"
   xmlns:inkscape="http://www.inkscape.org/namespaces/inkscape"
   width="48.303030px"
   height="48.303030px"
   id="svg3304"
   sodipodi:version="0.32"
   inkscape:version="0.46"
   sodipodi:docbase="/home/qwerty/.icons/MonoIce/scalable/status"
   sodipodi:docname="weather-few-clouds-night.svg"
   inkscape:output_extension="org.inkscape.output.svg.inkscape">
  <defs
     id="defs3306">
    <inkscape:perspective
       sodipodi:type="inkscape:persp3d"
       inkscape:vp_x="0 : 24.151514 : 1"
       inkscape:vp_y="0 : 1000 : 0"
       inkscape:vp_z="48.303028 : 24.151514 : 1"
       inkscape:persp3d-origin="24.151514 : 16.101009 : 1"
       id="perspective31" />
    <linearGradient
       id="linearGradient14414">
      <stop
         id="stop14422"
         offset="0"
         style="stop-color:white;stop-opacity:1;" />
      <stop
         style="stop-color:white;stop-opacity:0;"
         offset="1"
         id="stop14418" />
    </linearGradient>
    <linearGradient
       id="linearGradient5233">
      <stop
         style="stop-color:#204a87;stop-opacity:1"
         offset="0"
         id="stop5235" />
      <stop
         style="stop-color:#2e3436;stop-opacity:1"
         offset="1"
         id="stop5237" />
    </linearGradient>
    <linearGradient
       inkscape:collect="always"
       id="linearGradient5225">
      <stop
         style="stop-color:black;stop-opacity:1;"
         offset="0"
         id="stop5227" />
      <stop
         style="stop-color:black;stop-opacity:0;"
         offset="1"
         id="stop5229" />
    </linearGradient>
    <linearGradient
       id="linearGradient5137">
      <stop
         style="stop-color:#eeeeec;stop-opacity:1;"
         offset="0"
         id="stop5139" />
      <stop
         style="stop-color:#e6e6e3;stop-opacity:1;"
         offset="1"
         id="stop5141" />
    </linearGradient>
    <linearGradient
       id="linearGradient11400">
      <stop
         style="stop-color:#373b41;stop-opacity:1;"
         offset="0"
         id="stop11402" />
      <stop
         style="stop-color:#373b41;stop-opacity:0;"
         offset="1"
         id="stop11404" />
    </linearGradient>
    <radialGradient
       inkscape:collect="always"
       xlink:href="#linearGradient5225"
       id="radialGradient5231"
       cx="23.9375"
       cy="42.6875"
       fx="23.9375"
       fy="42.6875"
       r="23.75956"
       gradientTransform="matrix(1,0,0,0.24763,4.590511e-16,32.1168)"
       gradientUnits="userSpaceOnUse" />
    <linearGradient
       id="linearGradient3389">
      <stop
         id="stop3391"
         offset="0"
         style="stop-color:white;stop-opacity:1" />
      <stop
         style="stop-color:white;stop-opacity:1;"
         offset="0.26506025"
         id="stop3397" />
      <stop
         id="stop3393"
         offset="1"
         style="stop-color:#babdb6;stop-opacity:1" />
    </linearGradient>
  </defs>
  <sodipodi:namedview
     id="base"
     pagecolor="#bf7d7d"
     bordercolor="#849193"
     borderopacity="1.3030300"
     inkscape:pageopacity="1"
     inkscape:pageshadow="2"
     inkscape:zoom="11.313708"
     inkscape:cx="17.718403"
     inkscape:cy="22.516776"
     inkscape:current-layer="layer1"
     showgrid="true"
     inkscape:grid-bbox="true"
     inkscape:document-units="px"
     inkscape:showpageshadow="false"
     showborder="true"
     inkscape:window-width="1270"
     inkscape:window-height="945"
     inkscape:window-x="1"
     inkscape:window-y="55"
     showguides="true"
     inkscape:guide-bbox="true"
     inkscape:grid-points="true"
     objecttolerance="10000"
     guidetolerance="10000" />
  <metadata
     id="metadata3309">
    <rdf:RDF>
      <cc:Work
         rdf:about="">
        <dc:format>image/svg+xml</dc:format>
        <dc:type
           rdf:resource="http://purl.org/dc/dcmitype/StillImage" />
        <dc:title>Screensaver preferences</dc:title>
        <dc:creator>
          <cc:Agent>
            <dc:title>Andreas Nilsson</dc:title>
          </cc:Agent>
        </dc:creator>
        <cc:license
           rdf:resource="http://creativecommons.org/licenses/GPL/2.0/" />
        <dc:subject>
          <rdf:Bag>
            <rdf:li>monitor</rdf:li>
            <rdf:li>display</rdf:li>
            <rdf:li>video</rdf:li>
            <rdf:li>screen</rdf:li>
            <rdf:li>LCD</rdf:li>
            <rdf:li>CRT</rdf:li>
          </rdf:Bag>
        </dc:subject>
        <dc:contributor>
          <cc:Agent>
            <dc:title>
Luca Ferretti &lt;elle.uca@libero.it&gt;</dc:title>
          </cc:Agent>
        </dc:contributor>
        <dc:date>July 2006</dc:date>
        <dc:source>http://www.gnome.org</dc:source>
      </cc:Work>
      <cc:License
         rdf:about="http://creativecommons.org/licenses/GPL/2.0/">
        <cc:permits
           rdf:resource="http://web.resource.org/cc/Reproduction" />
        <cc:permits
           rdf:resource="http://web.resource.org/cc/Distribution" />
        <cc:requires
           rdf:resource="http://web.resource.org/cc/Notice" />
        <cc:permits
           rdf:resource="http://web.resource.org/cc/DerivativeWorks" />
        <cc:requires
           rdf:resource="http://web.resource.org/cc/ShareAlike" />
        <cc:requires
           rdf:resource="http://web.resource.org/cc/SourceCode" />
      </cc:License>
    </rdf:RDF>
  </metadata>
  <g
     id="layer1"
     inkscape:label="Layer 1"
     inkscape:groupmode="layer">
    <path
       sodipodi:type="inkscape:offset"
       inkscape:radius="2.576941"
       inkscape:original="M 26.90625 16 C 26.126116 16 25.5 16.599928 25.5 17.375 C 25.5 17.458683 25.505918 17.571454 25.53125 17.6875 L 25.8125 18.84375 L 24.625 18.90625 C 21.796305 19.035673 19.375172 20.581472 18.03125 22.875 L 17.46875 23.8125 L 16.59375 23.1875 C 16.144309 22.873041 15.547683 22.687501 14.9375 22.6875 C 14.748438 22.687499 14.532413 22.739769 14.25 22.8125 L 13.09375 23.09375 L 12.53125 24.0625 C 12.280511 24.487281 12.125 24.986351 12.125 25.5 C 12.125 25.580514 12.126653 25.707765 12.15625 25.90625 L 12.46875 28.03125 L 10.65625 26.9375 C 10.215909 26.672444 9.7368653 26.500001 9.21875 26.5 C 8.0687666 26.499999 7.1033308 27.179319 6.65625 28.15625 L 6.125 29.3125 L 6.65625 30.46875 C 7.1033307 31.445681 8.0687659 32.124998 9.21875 32.125 C 9.827616 32.124999 10.396513 31.940445 10.875 31.59375 L 11.9375 30.8125 L 12.375 32.03125 C 12.912142 33.476585 14.276366 34.531249 15.90625 34.53125 C 16.977677 34.531249 17.925961 34.07252 18.625 33.34375 L 19.25 32.6875 L 19.96875 33.25 C 21.352312 34.351324 23.088405 34.999999 25 35 C 27.50175 34.999999 29.734044 33.841014 31.21875 32.0625 L 31.875 31.28125 L 32.65625 31.96875 C 33.418928 32.660527 34.395593 33.093749 35.5 33.09375 C 36.701019 33.09375 37.780736 32.586551 38.5625 31.78125 L 39.15625 31.15625 L 39.875 31.6875 C 40.273242 31.978764 40.737446 32.124999 41.25 32.125 C 41.981453 32.124999 42.624815 31.810412 43.0625 31.28125 L 43.5625 30.65625 L 43.59375 29.84375 C 43.593604 29.849293 43.593748 29.828504 43.59375 29.78125 C 43.59375 28.479265 42.558147 27.468751 41.25 27.46875 C 41.018017 27.46875 40.781718 27.495771 40.5625 27.5625 L 39.71875 27.8125 L 39.375 27.03125 C 38.829538 25.883929 37.740407 25.017511 36.46875 24.71875 L 35.3125 24.4375 L 35.78125 23.34375 C 35.88703 23.094322 35.937498 22.861842 35.9375 22.625 C 35.9375 21.586474 35.106643 20.781251 34.0625 20.78125 C 33.439503 20.78125 32.898694 21.055158 32.5625 21.5 L 31.84375 22.46875 L 31.03125 21.5625 C 30.322859 20.770489 29.425465 20.125343 28.4375 19.65625 L 27.375 19.15625 L 28.0625 18.1875 C 28.206665 17.979246 28.28125 17.676067 28.28125 17.375 C 28.28125 16.599928 27.686384 16 26.90625 16 z M 12.0625 20.78125 C 11.546372 20.78125 11.15625 21.17588 11.15625 21.6875 C 11.15625 22.134135 11.479568 22.506738 11.875 22.59375 L 12.90625 22.8125 L 13 21.75 C 12.995839 21.803467 13 21.788752 13 21.6875 C 13 21.175879 12.578625 20.781251 12.0625 20.78125 z M 3.9375 27.9375 C 3.1573752 27.937499 2.5625 28.537441 2.5625 29.3125 C 2.5625 30.087558 3.1573753 30.718751 3.9375 30.71875 C 4.3648805 30.718749 4.7453395 30.538668 5 30.25 L 5.8125 29.3125 L 5 28.40625 C 4.7453391 28.117583 4.3648789 27.937501 3.9375 27.9375 z M 45.0625 30.78125 C 45.052072 30.78125 45.011778 30.817968 44.9375 30.84375 L 44.46875 31 L 44.6875 31.4375 C 44.762611 31.57542 44.884555 31.656251 45.0625 31.65625 C 45.31461 31.65625 45.499998 31.46691 45.5 31.21875 C 45.5 30.970584 45.314609 30.781251 45.0625 30.78125 z "
       style="fill:#f0f0f0;fill-opacity:1;stroke:none;stroke-width:2;stroke-linecap:round;stroke-linejoin:miter;stroke-miterlimit:4;stroke-dasharray:none;stroke-dashoffset:1.20000057000000004;stroke-opacity:1"
       id="path2410"
       d="M 26.90625,13.4375 C 25.072796,13.4375 23.48875,14.809732 23.09375,16.59375 C 20.498969,17.064938 18.259754,18.410382 16.6875,20.40625 C 16.193389,20.241818 15.689278,20.176148 15.15625,20.15625 C 14.553391,19.014542 13.359509,18.218753 12.0625,18.21875 C 10.232824,18.21875 8.59375,19.865896 8.59375,21.6875 C 8.59375,22.614835 8.9583964,23.409392 9.53125,24.03125 C 9.4118298,24.022243 9.3418193,23.9375 9.21875,23.9375 C 7.7150399,23.937499 6.4820629,24.681507 5.5,25.6875 C 5.0158146,25.486421 4.4797325,25.375001 3.9375,25.375 C 1.8362044,25.374997 3.0025172e-16,27.218868 0,29.3125 C 0,31.406133 1.7673846,33.281253 3.9375,33.28125 C 4.4923035,33.281249 5.0346008,33.151432 5.53125,32.9375 C 6.5118519,33.933949 7.7223795,34.687497 9.21875,34.6875 C 9.7522906,34.687499 10.271399,34.591993 10.78125,34.4375 C 11.929362,36.031955 13.783998,37.093749 15.90625,37.09375 C 17.24584,37.093749 18.420655,36.583288 19.4375,35.875 C 21.072639,36.892799 22.939595,37.562499 25,37.5625 C 27.782688,37.562499 30.168505,36.335183 32.0625,34.59375 C 33.073701,35.21201 34.199995,35.656249 35.5,35.65625 C 37.054335,35.65625 38.416819,35.030094 39.5625,34.15625 C 40.127951,34.367593 40.667295,34.687499 41.25,34.6875 C 42.202014,34.687499 43.090546,34.342863 43.875,33.84375 C 44.27001,34.032387 44.689897,34.218752 45.0625,34.21875 C 46.604835,34.21875 48.062488,32.750302 48.0625,31.21875 C 48.0625,29.997095 47.068032,29.025597 45.90625,28.59375 C 45.337105,26.505649 43.467142,24.906252 41.25,24.90625 C 41.147198,24.90625 41.014337,24.931464 40.90625,24.9375 C 40.246868,24.04248 39.435463,23.357695 38.4375,22.875 C 38.44353,22.786358 38.499999,22.713538 38.5,22.625 C 38.5,20.212046 36.4315,18.218752 34.0625,18.21875 C 33.208857,18.21875 32.433095,18.519928 31.71875,18.96875 C 31.364452,18.676603 31.01043,18.398824 30.625,18.15625 C 30.663781,17.904245 30.84375,17.623351 30.84375,17.375 C 30.84375,15.281397 29.007507,13.4375 26.90625,13.4375 z"
       transform="translate(8.8388352e-2,0)" />
    <path
       sodipodi:type="inkscape:offset"
       inkscape:radius="2.5995793"
       inkscape:original="M 15.96875 5.125 C 9.5416444 8.4001557 5.125 15.156193 5.125 22.9375 C 5.125 24.090212 5.2205638 25.213447 5.40625 26.3125 C 5.4701712 26.344613 5.5315527 26.370966 5.59375 26.40625 C 6.4760565 25.315349 7.709709 24.5 9.21875 24.5 C 9.6278289 24.5 9.9377038 24.713961 10.3125 24.8125 C 10.360113 24.515824 10.432642 24.243819 10.53125 23.96875 C 9.7590724 23.437924 9.1562497 22.68019 9.15625 21.6875 C 9.15625 20.091477 10.466535 18.781251 12.0625 18.78125 C 13.29456 18.78125 14.171722 19.658855 14.59375 20.75 C 14.719269 20.736445 14.800236 20.687501 14.9375 20.6875 C 15.377293 20.6875 15.769745 20.834981 16.15625 21 C 15.067552 18.526445 14.468751 15.789503 14.46875 12.90625 C 14.46875 10.158412 14.973755 7.5069574 15.96875 5.125 z M 39.46875 33.53125 C 38.385272 34.445479 37.033796 35.093749 35.5 35.09375 C 34.190868 35.09375 33.03343 34.625798 32.03125 33.9375 C 30.203623 35.761861 27.78149 36.999998 25 37 C 22.911769 37 21.017797 36.277757 19.40625 35.1875 C 18.430262 35.962294 17.257686 36.531248 15.90625 36.53125 C 13.822502 36.53125 12.040578 35.375311 11.03125 33.71875 C 10.464942 33.960139 9.8786842 34.124998 9.21875 34.125 C 8.9515758 34.125 8.7182379 34.079371 8.46875 34.03125 C 11.99694 39.337602 17.959781 42.843751 24.75 42.84375 C 31.52241 42.84375 37.523567 39.373076 41.0625 34.09375 C 40.479439 34.039009 39.975127 33.776093 39.46875 33.53125 z "
       style="opacity:1;fill:#f0f0f0;fill-opacity:1;fill-rule:nonzero;stroke:none;stroke-width:2;stroke-linecap:butt;stroke-linejoin:round;stroke-miterlimit:4;stroke-dasharray:none;stroke-dashoffset:0;stroke-opacity:1"
       id="path2406"
       d="M 15.875,2.53125 C 15.494213,2.5437262 15.120821,2.6397411 14.78125,2.8125 C 7.4948552,6.5255365 2.53125,14.172518 2.53125,22.9375 C 2.53125,24.233888 2.6340032,25.508535 2.84375,26.75 C 2.9882161,27.562823 3.5101401,28.258722 4.25,28.625 C 4.4006638,28.700691 4.4055676,28.709046 4.3125,28.65625 C 5.4204448,29.288943 6.8237735,29.024164 7.625,28.03125 C 8.1605109,27.369134 8.6460937,27.09375 9.21875,27.09375 C 8.7213883,27.09375 8.7272619,27.068256 9.65625,27.3125 C 10.363313,27.496121 11.115005,27.373798 11.727366,26.975466 C 12.339727,26.577134 12.75625,25.93955 12.875,25.21875 C 12.896555,25.084439 12.917206,24.987534 12.96875,24.84375 C 13.242781,24.099637 13.162233,23.271143 12.75,22.59375 C 13.30755,23.153693 14.089497,23.429674 14.875,23.34375 C 14.965834,23.333941 14.937269,23.319041 15,23.3125 C 14.98058,23.312092 14.905901,23.312705 15.125,23.40625 C 16.113962,23.840435 17.268368,23.617944 18.025122,22.847305 C 18.781876,22.076665 18.983343,20.918405 18.53125,19.9375 C 17.585793,17.789394 17.062501,15.429579 17.0625,12.90625 C 17.0625,10.476917 17.523883,8.1625227 18.375,6.125 C 18.714321,5.3066349 18.613558,4.3718089 18.107639,3.6445499 C 17.60172,2.9172909 16.760288,2.4977132 15.875,2.53125 L 15.875,2.53125 z M 12.0625,21.375 C 12.060094,21.375 12.00222,21.289259 12.15625,21.6875 C 12.223359,21.851877 12.307129,22.008946 12.40625,22.15625 C 12.282948,22.028072 12.146818,21.912886 12,21.8125 C 11.659033,21.578106 11.75,21.627773 11.75,21.6875 C 11.75,21.514259 11.889304,21.375 12.0625,21.375 z M 39.34375,30.9375 C 38.771758,30.958027 38.222526,31.166735 37.78125,31.53125 C 37.049162,32.148979 36.30131,32.499999 35.5,32.5 C 34.810351,32.5 34.185474,32.252034 33.5,31.78125 C 32.465011,31.072735 31.071726,31.204177 30.1875,32.09375 C 28.756428,33.522265 27.01005,34.406249 25,34.40625 C 23.511169,34.40625 22.144924,33.89039 20.875,33.03125 C 19.928673,32.387336 18.672544,32.438089 17.78125,33.15625 C 17.114003,33.685948 16.528074,33.937499 15.90625,33.9375 C 14.783896,33.9375 13.831542,33.329456 13.25,32.375 C 12.584703,31.258054 11.19661,30.804255 10,31.3125 C 9.6362711,31.46754 9.4457527,31.531249 9.21875,31.53125 C 9.247553,31.53125 9.2223348,31.517661 8.96875,31.46875 C 7.9376569,31.267913 6.8870146,31.707312 6.305897,32.582407 C 5.7247794,33.457502 5.7273847,34.596323 6.3125,35.46875 C 10.296078,41.459999 17.064914,45.437501 24.75,45.4375 C 32.410552,45.4375 39.216392,41.501907 43.21875,35.53125 C 43.726084,34.771683 43.797595,33.801596 43.407124,32.975846 C 43.016654,32.150097 42.221488,31.589833 41.3125,31.5 C 41.361801,31.504629 41.147755,31.455372 40.59375,31.1875 C 40.204286,31.001725 39.774707,30.915809 39.34375,30.9375 z"
       transform="translate(8.8388352e-2,0)" />
    <rect
       style="fill:none;fill-opacity:0.75303028;fill-rule:evenodd;stroke:none;stroke-width:1.30303001px;stroke-linecap:butt;stroke-linejoin:miter;stroke-opacity:1"
       id="rect4784"
       width="48.303028"
       height="48.303028"
       x="0.39141837"
       y="0.30303001" />
    <path
       style="opacity:1;fill:#373b41;fill-opacity:1;fill-rule:nonzero;stroke:none;stroke-width:2;stroke-linecap:butt;stroke-linejoin:round;stroke-miterlimit:4;stroke-dasharray:none;stroke-dashoffset:0;stroke-opacity:1"
       d="M 16.057138,5.125 C 9.6300328,8.4001557 5.2133884,15.156193 5.2133884,22.9375 C 5.2133884,24.090212 5.3089522,25.213447 5.4946384,26.3125 C 5.5585596,26.344613 5.6199411,26.370966 5.6821384,26.40625 C 6.5644449,25.315349 7.7980974,24.5 9.3071384,24.5 C 9.7162173,24.5 10.026092,24.713961 10.400888,24.8125 C 10.448501,24.515824 10.52103,24.243819 10.619638,23.96875 C 9.8474608,23.437924 9.2446381,22.68019 9.2446384,21.6875 C 9.2446384,20.091477 10.554923,18.781251 12.150888,18.78125 C 13.382948,18.78125 14.26011,19.658855 14.682138,20.75 C 14.807657,20.736445 14.888624,20.687501 15.025888,20.6875 C 15.465681,20.6875 15.858133,20.834981 16.244638,21 C 15.15594,18.526445 14.557139,15.789503 14.557138,12.90625 C 14.557138,10.158412 15.062143,7.5069574 16.057138,5.125 z M 39.557138,33.53125 C 38.47366,34.445479 37.122184,35.093749 35.588388,35.09375 C 34.279256,35.09375 33.121818,34.625798 32.119638,33.9375 C 30.292011,35.761861 27.869878,36.999998 25.088388,37 C 23.000157,37 21.106185,36.277757 19.494638,35.1875 C 18.51865,35.962294 17.346074,36.531248 15.994638,36.53125 C 13.91089,36.53125 12.128966,35.375311 11.119638,33.71875 C 10.55333,33.960139 9.9670726,34.124998 9.3071384,34.125 C 9.0399642,34.125 8.8066263,34.079371 8.5571384,34.03125 C 12.085328,39.337602 18.048169,42.843751 24.838388,42.84375 C 31.610798,42.84375 37.611955,39.373076 41.150888,34.09375 C 40.567827,34.039009 40.063515,33.776093 39.557138,33.53125 z"
       id="path23408" />
    <g
       inkscape:label="Layer 1"
       id="g2190"
       transform="translate(4.16315e-2,4.999999)" />
    <path
       style="fill:#373b41;fill-opacity:1;stroke:none;stroke-width:2;stroke-linecap:round;stroke-linejoin:miter;stroke-miterlimit:4;stroke-dasharray:none;stroke-dashoffset:1.20000057;stroke-opacity:1"
       d="M 27.00502,15.999999 C 27.785154,15.999999 28.38002,16.599927 28.38002,17.374999 C 28.38002,17.676065 28.305435,17.979245 28.16127,18.187499 L 27.47377,19.156249 L 28.53627,19.656249 C 29.524235,20.125341 30.421629,20.770488 31.13002,21.562499 L 31.94252,22.468749 L 32.66127,21.499999 C 32.997466,21.055156 33.538273,20.781249 34.16127,20.781249 C 35.205415,20.781249 36.03627,21.586473 36.03627,22.624999 C 36.03627,22.86184 35.9858,23.094321 35.88002,23.343749 L 35.41127,24.437499 L 36.56752,24.718749 C 37.839179,25.017509 38.928308,25.883928 39.47377,27.031249 L 39.81752,27.812499 L 40.66127,27.562499 C 40.88049,27.495769 41.116787,27.468749 41.34877,27.468749 C 42.656919,27.468749 43.69252,28.479264 43.69252,29.781249 C 43.69252,29.828502 43.692374,29.849292 43.69252,29.843749 L 43.66127,30.656249 L 43.16127,31.281249 C 42.723587,31.81041 42.080223,32.124998 41.34877,32.124999 C 40.836218,32.124999 40.372012,31.978763 39.97377,31.687499 L 39.25502,31.156249 L 38.66127,31.781249 C 37.879508,32.586549 36.799789,33.093749 35.59877,33.093749 C 34.494365,33.093749 33.517698,32.660526 32.75502,31.968749 L 31.97377,31.281249 L 31.31752,32.062499 C 29.832814,33.841014 27.60052,34.999998 25.09877,34.999999 C 23.187175,34.999999 21.451082,34.351323 20.06752,33.249999 L 19.34877,32.687499 L 18.72377,33.343749 C 18.024731,34.07252 17.076446,34.531248 16.005019,34.531249 C 14.375135,34.531249 13.010911,33.476584 12.473769,32.031249 L 12.036269,30.812499 L 10.973769,31.593749 C 10.495282,31.940443 9.9263859,32.124998 9.3175199,32.124999 C 8.167536,32.124998 7.2021006,31.44568 6.7550199,30.468749 L 6.2237699,29.312499 L 6.7550199,28.156249 C 7.2021009,27.179317 8.1675365,26.499998 9.3175199,26.499999 C 9.8356354,26.499999 10.314678,26.672443 10.755019,26.937499 L 12.567519,28.031249 L 12.255019,25.906249 C 12.225422,25.707763 12.223769,25.580513 12.223769,25.499999 C 12.223769,24.986349 12.37928,24.48728 12.630019,24.062499 L 13.192519,23.093749 L 14.348769,22.812499 C 14.631182,22.739767 14.847207,22.687498 15.036269,22.687499 C 15.646452,22.687499 16.243079,22.87304 16.69252,23.187499 L 17.56752,23.812499 L 18.13002,22.874999 C 19.473942,20.58147 21.895075,19.035672 24.72377,18.906249 L 25.91127,18.843749 L 25.63002,17.687499 C 25.604688,17.571452 25.59877,17.458682 25.59877,17.374999 C 25.59877,16.599926 26.224886,15.999999 27.00502,15.999999 z M 12.161269,20.781249 C 12.677394,20.781249 13.098769,21.175878 13.098769,21.687499 C 13.098769,21.78875 13.094608,21.803466 13.098769,21.749999 L 13.005019,22.812499 L 11.973769,22.593749 C 11.578337,22.506736 11.255019,22.134134 11.255019,21.687499 C 11.255019,21.175878 11.645141,20.781249 12.161269,20.781249 z M 4.0362699,27.937499 C 4.4636488,27.937499 4.844109,28.117582 5.0987699,28.406249 L 5.9112699,29.312499 L 5.0987699,30.249999 C 4.8441096,30.538666 4.4636504,30.718748 4.0362699,30.718749 C 3.2561452,30.718749 2.6612699,30.087557 2.6612699,29.312499 C 2.6612699,28.537439 3.2561451,27.937498 4.0362699,27.937499 z M 45.16127,30.781249 C 45.413381,30.781249 45.59877,30.970583 45.59877,31.218749 C 45.59877,31.466908 45.41338,31.656249 45.16127,31.656249 C 44.983327,31.656249 44.861381,31.575419 44.78627,31.437499 L 44.56752,30.999999 L 45.03627,30.843749 C 45.11055,30.817966 45.150842,30.781249 45.16127,30.781249 z"
       id="path2077"
       sodipodi:nodetypes="csccccccssccccccsscccscccscccscccscccscccscccscccsccccccsccscccscccccssccsscccc" />
  </g>
</svg>
