<?xml version="1.0" encoding="UTF-8" standalone="no"?>
<!-- Created with Inkscape (http://www.inkscape.org/) -->
<svg
   xmlns:dc="http://purl.org/dc/elements/1.1/"
   xmlns:cc="http://creativecommons.org/ns#"
   xmlns:rdf="http://www.w3.org/1999/02/22-rdf-syntax-ns#"
   xmlns:svg="http://www.w3.org/2000/svg"
   xmlns="http://www.w3.org/2000/svg"
   xmlns:sodipodi="http://sodipodi.sourceforge.net/DTD/sodipodi-0.dtd"
   xmlns:inkscape="http://www.inkscape.org/namespaces/inkscape"
   width="48px"
   height="48px"
   id="svg1306"
   sodipodi:version="0.32"
   inkscape:version="0.46"
   sodipodi:docbase="/home/qwerty/.icons/qw3rtY_new/scalable/status"
   sodipodi:docname="weather-clear.svg"
   inkscape:output_extension="org.inkscape.output.svg.inkscape"
   sodipodi:modified="true">
  <defs
     id="defs1308">
    <inkscape:perspective
       sodipodi:type="inkscape:persp3d"
       inkscape:vp_x="0 : 24 : 1"
       inkscape:vp_y="0 : 1000 : 0"
       inkscape:vp_z="48 : 24 : 1"
       inkscape:persp3d-origin="24 : 16 : 1"
       id="perspective26" />
    <linearGradient
       id="linearGradient5142">
      <stop
         style="stop-color:#f1ff74;stop-opacity:1;"
         offset="0"
         id="stop5144" />
      <stop
         style="stop-color:#ffc10f;stop-opacity:1;"
         offset="1"
         id="stop5146" />
    </linearGradient>
    <linearGradient
       id="linearGradient5134">
      <stop
         style="stop-color:#ffdf1a;stop-opacity:1;"
         offset="0"
         id="stop5136" />
      <stop
         style="stop-color:#fff9ce;stop-opacity:1;"
         offset="1"
         id="stop5138" />
    </linearGradient>
    <linearGradient
       id="linearGradient5115">
      <stop
         style="stop-color:white;stop-opacity:0;"
         offset="0"
         id="stop5117" />
      <stop
         id="stop5123"
         offset="0.83783782"
         style="stop-color:#f6e97f;stop-opacity:0.35922331;" />
      <stop
         style="stop-color:#edd400;stop-opacity:1;"
         offset="1"
         id="stop5119" />
    </linearGradient>
    <linearGradient
       id="linearGradient5101">
      <stop
         style="stop-color:white;stop-opacity:1;"
         offset="0"
         id="stop5103" />
      <stop
         style="stop-color:#edd400;stop-opacity:0.1262136;"
         offset="1"
         id="stop5105" />
    </linearGradient>
    <linearGradient
       id="linearGradient3389">
      <stop
         id="stop3391"
         offset="0"
         style="stop-color:white;stop-opacity:1" />
      <stop
         style="stop-color:white;stop-opacity:1;"
         offset="0.26506025"
         id="stop3397" />
      <stop
         id="stop3393"
         offset="1"
         style="stop-color:#babdb6;stop-opacity:1" />
    </linearGradient>
  </defs>
  <sodipodi:namedview
     id="base"
     pagecolor="#f0f0f0"
     bordercolor="#666"
     borderopacity="0.34117647"
     inkscape:pageopacity="0.0"
     inkscape:pageshadow="2"
     inkscape:zoom="5.6568542"
     inkscape:cx="13.605348"
     inkscape:cy="-3.4791309"
     inkscape:current-layer="layer1"
     showgrid="true"
     inkscape:grid-bbox="true"
     inkscape:document-units="px"
     inkscape:window-width="822"
     inkscape:window-height="900"
     inkscape:window-x="456"
     inkscape:window-y="71"
     inkscape:showpageshadow="false"
     objecttolerance="10000"
     gridtolerance="10000"
     guidetolerance="10000" />
  <metadata
     id="metadata1311">
    <rdf:RDF>
      <cc:Work
         rdf:about="">
        <dc:format>image/svg+xml</dc:format>
        <dc:type
           rdf:resource="http://purl.org/dc/dcmitype/StillImage" />
        <cc:license
           rdf:resource="" />
      </cc:Work>
    </rdf:RDF>
  </metadata>
  <g
     id="layer1"
     inkscape:label="Layer 1"
     inkscape:groupmode="layer">
    <path
       sodipodi:type="inkscape:offset"
       inkscape:radius="-1.4025913"
       inkscape:original="M 18.46875 -5.90625 C 16.311659 -5.7589849 14.599224 -4.033172 14.46875 -1.875 L 14.09375 4.78125 L 8.4375 1.21875 C 6.7656903 0.15576956 4.5864481 0.37908475 3.15625 1.75 C 1.7260519 3.1209153 1.4149541 5.2847135 2.40625 7 L 5.65625 12.78125 L -1 12.84375 C -2.979709 12.857565 -4.6970301 14.230489 -5.15625 16.15625 C -5.6154698 18.082012 -4.6979409 20.063053 -2.9375 20.96875 L 2.9375 24.0625 L -2.625 27.71875 C -4.2708195 28.803063 -4.9622728 30.858037 -4.3125 32.71875 C -3.6627273 34.579464 -1.8380356 35.769672 0.125 35.59375 L 6.71875 35.03125 L 4.03125 41.09375 C 3.2234176 42.895276 3.7600259 45.030199 5.3125 46.25 C 6.8649741 47.469801 9.0344986 47.461126 10.59375 46.25 L 15.84375 42.1875 L 16.875 48.78125 C 17.168752 50.736193 18.750534 52.252517 20.71875 52.4375 C 22.686966 52.622481 24.534639 51.428476 25.1875 49.5625 L 27.40625 43.3125 L 31.8125 48.28125 C 33.117225 49.746934 35.255312 50.148109 37 49.25 C 38.74469 48.351892 39.653524 46.382257 39.21875 44.46875 L 37.71875 37.96875 L 44.09375 39.78125 C 45.99033 40.328654 48.009499 39.520006 49 37.8125 C 49.9905 36.104993 49.697982 33.937105 48.28125 32.5625 L 43.53125 27.9375 L 49.875 26 C 51.773088 25.434992 53.03381 23.634304 52.9375 21.65625 C 52.841189 19.678197 51.41275 18.03419 49.46875 17.65625 L 42.96875 16.34375 L 47.28125 11.28125 C 48.547482 9.7786811 48.642108 7.5989513 47.5 6 C 46.357891 4.4010487 44.269519 3.7895328 42.4375 4.5 L 36.21875 6.90625 L 37.125 0.3125 C 37.382075 -1.6309276 36.285835 -3.5143379 34.46875 -4.25 C 32.651663 -4.9856622 30.573598 -4.3873959 29.40625 -2.8125 L 25.46875 2.59375 L 22.65625 -3.4375 C 21.903924 -5.0459873 20.240391 -6.0267271 18.46875 -5.90625 z "
       style="opacity:1;fill:#f0f0f0;fill-opacity:1;fill-rule:evenodd;stroke:none;stroke-width:1.90991390000000005;stroke-linecap:round;stroke-linejoin:miter;marker:none;marker-start:none;marker-mid:none;marker-end:none;stroke-miterlimit:4;stroke-dasharray:none;stroke-dashoffset:0;stroke-opacity:1;visibility:visible;display:inline;overflow:visible"
       id="path2398"
       d="M 18.5625,-4.5 C 17.097993,-4.4000178 15.963582,-3.2464907 15.875,-1.78125 L 15.5,4.875 C 15.468944,5.3709885 15.177775,5.8135227 14.734572,6.0383355 C 14.29137,6.2631482 13.7623,6.2366778 13.34375,5.96875 L 7.6875,2.40625 C 6.556461,1.6871058 5.0963055,1.8189559 4.125,2.75 C 3.1536944,3.6810442 2.9530123,5.1497276 3.625,6.3125 L 6.875,12.09375 C 7.1206563,12.527712 7.1174542,13.059468 6.8665897,13.49044 C 6.6157251,13.921413 6.154918,14.186801 5.65625,14.1875 L -1,14.25 C -2.3369535,14.25933 -3.4701525,15.164147 -3.78125,16.46875 C -4.0923477,17.773354 -3.4781367,19.102986 -2.28125,19.71875 L 3.59375,22.8125 C 4.0453954,23.038744 4.3405143,23.490352 4.3663851,23.994833 C 4.3922559,24.499313 4.1448825,24.978742 3.71875,25.25 L -1.84375,28.90625 C -2.9604269,29.641949 -3.4416998,30.985132 -3,32.25 C -2.5583002,33.514869 -1.3258977,34.306323 0,34.1875 L 6.59375,33.625 C 7.0892905,33.580568 7.5712898,33.80195 7.8604724,34.206805 C 8.1496551,34.611661 8.2027465,35.139406 8,35.59375 L 5.3125,41.65625 C 4.7688218,42.868693 5.1367267,44.330642 6.1875,45.15625 C 7.2382736,45.981858 8.6547098,45.982728 9.71875,45.15625 C 9.7291663,45.156134 9.7395837,45.156134 9.75,45.15625 L 15,41.09375 C 15.389378,40.803464 15.901211,40.735251 16.353022,40.913431 C 16.804834,41.09161 17.132328,41.490825 17.21875,41.96875 L 18.25,48.5625 C 18.449648,49.891176 19.516768,50.906533 20.84375,51.03125 C 22.170734,51.155965 23.432968,50.357144 23.875,49.09375 L 26.09375,42.84375 C 26.257469,42.373403 26.658304,42.025129 27.146905,41.928695 C 27.635506,41.83226 28.138605,42.002126 28.46875,42.375 L 32.875,47.34375 C 33.758248,48.335961 35.164785,48.606893 36.34375,48 C 37.522715,47.393108 38.138879,46.080156 37.84375,44.78125 L 36.34375,38.28125 C 36.235873,37.799114 36.389588,37.295778 36.748418,36.956171 C 37.107249,36.616563 37.618277,36.490767 38.09375,36.625 L 44.46875,38.4375 C 45.756908,38.809297 47.109441,38.251868 47.78125,37.09375 C 48.453059,35.93563 48.269535,34.491077 47.3125,33.5625 L 42.5625,28.9375 C 42.208553,28.592401 42.062384,28.086474 42.177749,27.605785 C 42.293115,27.125095 42.652981,26.740617 43.125,26.59375 L 49.46875,24.65625 C 50.748602,24.275274 51.596635,23.061653 51.53125,21.71875 C 51.465864,20.375846 50.509886,19.28834 49.1875,19.03125 L 42.6875,17.71875 C 42.203322,17.6173 41.808379,17.268316 41.648102,16.800308 C 41.487825,16.332299 41.585914,15.814469 41.90625,15.4375 L 46.21875,10.375 C 47.076436,9.3572301 47.114133,7.8910364 46.34375,6.8125 C 45.573366,5.7339628 44.181548,5.3300514 42.9375,5.8125 L 36.71875,8.21875 C 36.257781,8.3883401 35.741687,8.3044679 35.358143,7.9976332 C 34.9746,7.6907984 34.779484,7.2057029 34.84375,6.71875 L 35.75,0.125 C 35.923648,-1.187739 35.164623,-2.4406888 33.9375,-2.9375 C 32.710374,-3.4343119 31.325603,-3.0404302 30.53125,-1.96875 L 26.59375,3.40625 C 26.303814,3.8091669 25.822521,4.0288449 25.328168,3.9839037 C 24.833815,3.9389625 24.400026,3.6360952 24.1875,3.1875 L 21.375,-2.84375 C 20.866148,-3.9316851 19.760788,-4.5814873 18.5625,-4.5 z"
       transform="matrix(0.8024658,-0.2738222,0.2730932,0.8046065,-1.0126024,12.150136)" />
    <path
       sodipodi:type="star"
       style="opacity:1;fill:#373b41;fill-opacity:1;fill-rule:evenodd;stroke:none;stroke-width:1.9099139;stroke-linecap:round;stroke-linejoin:miter;marker:none;marker-start:none;marker-mid:none;marker-end:none;stroke-miterlimit:4;stroke-dasharray:none;stroke-dashoffset:0;stroke-opacity:1;visibility:visible;display:inline;overflow:visible"
       id="path5113"
       sodipodi:sides="11"
       sodipodi:cx="23.511301"
       sodipodi:cy="23.074486"
       sodipodi:r1="25.152658"
       sodipodi:r2="12.137954"
       sodipodi:arg1="0.52359878"
       sodipodi:arg2="0.80919811"
       inkscape:flatsided="false"
       inkscape:rounded="0"
       inkscape:randomized="0"
       d="M 45.294142,35.650815 L 31.887448,31.859136 L 35.036916,45.43106 L 25.808424,34.993091 L 21.120389,48.113251 L 19.000079,34.342973 L 7.9629591,42.845811 L 13.624016,30.11519 L -0.25798184,31.301114 L 11.387095,23.652033 L -0.9323434,17.144522 L 12.999525,17.005509 L 6.1539794,4.8706506 L 17.949369,12.285842 L 18.751129,-1.6236314 L 24.665087,10.991494 L 32.8596,-0.27643573 L 31.014486,13.53341 L 44.000052,8.4845125 L 34.981677,19.10455 L 48.63547,21.877674 L 35.307105,25.936117 L 45.294142,35.650815 z"
       transform="matrix(0.8024658,-0.2738222,0.2730932,0.8046065,-1.0126024,12.150136)" />
  </g>
</svg>
