<?xml version="1.0" encoding="UTF-8" standalone="no"?>
<!-- Created with Inkscape (http://www.inkscape.org/) -->
<svg
   xmlns:dc="http://purl.org/dc/elements/1.1/"
   xmlns:cc="http://creativecommons.org/ns#"
   xmlns:rdf="http://www.w3.org/1999/02/22-rdf-syntax-ns#"
   xmlns:svg="http://www.w3.org/2000/svg"
   xmlns="http://www.w3.org/2000/svg"
   xmlns:xlink="http://www.w3.org/1999/xlink"
   xmlns:sodipodi="http://sodipodi.sourceforge.net/DTD/sodipodi-0.dtd"
   xmlns:inkscape="http://www.inkscape.org/namespaces/inkscape"
   width="48px"
   height="48px"
   id="svg1306"
   sodipodi:version="0.32"
   inkscape:version="0.46"
   sodipodi:docbase="/home/qwerty/.icons/MonoIce/scalable/status"
   sodipodi:docname="weather-severe-alert.svg"
   inkscape:output_extension="org.inkscape.output.svg.inkscape">
  <defs
     id="defs1308">
    <inkscape:perspective
       sodipodi:type="inkscape:persp3d"
       inkscape:vp_x="0 : 24 : 1"
       inkscape:vp_y="0 : 1000 : 0"
       inkscape:vp_z="48 : 24 : 1"
       inkscape:persp3d-origin="24 : 16 : 1"
       id="perspective34" />
    <linearGradient
       id="linearGradient2851">
      <stop
         id="stop2853"
         offset="0"
         style="stop-color:#babdb6;stop-opacity:1" />
      <stop
         style="stop-color:#babdb6;stop-opacity:1;"
         offset="0.26506025"
         id="stop2855" />
      <stop
         id="stop2857"
         offset="1"
         style="stop-color:#555753;stop-opacity:1" />
    </linearGradient>
    <linearGradient
       id="linearGradient6525"
       gradientUnits="userSpaceOnUse"
       x1="4.1914001"
       y1="11.1133"
       x2="47.319698"
       y2="56.052299">
      <stop
         offset="0"
         style="stop-color:#f0f0f0;stop-opacity:1;"
         id="stop6529" />
      <stop
         offset="1"
         style="stop-color:#f0f0f0;stop-opacity:0.34020618;"
         id="stop6531" />
    </linearGradient>
    <linearGradient
       id="linearGradient5048">
      <stop
         id="stop5050"
         offset="0"
         style="stop-color:black;stop-opacity:0;" />
      <stop
         style="stop-color:black;stop-opacity:1;"
         offset="0.5"
         id="stop5056" />
      <stop
         id="stop5052"
         offset="1"
         style="stop-color:black;stop-opacity:0;" />
    </linearGradient>
    <linearGradient
       id="linearGradient5060"
       inkscape:collect="always">
      <stop
         id="stop5062"
         offset="0"
         style="stop-color:black;stop-opacity:1;" />
      <stop
         id="stop5064"
         offset="1"
         style="stop-color:black;stop-opacity:0;" />
    </linearGradient>
    <linearGradient
       inkscape:collect="always"
       xlink:href="#linearGradient5048"
       id="linearGradient2161"
       gradientUnits="userSpaceOnUse"
       gradientTransform="matrix(2.774389,0,0,1.969706,-1892.179,-872.8854)"
       x1="302.85715"
       y1="366.64789"
       x2="302.85715"
       y2="609.50507" />
    <radialGradient
       inkscape:collect="always"
       xlink:href="#linearGradient5060"
       id="radialGradient2163"
       gradientUnits="userSpaceOnUse"
       gradientTransform="matrix(2.774389,0,0,1.969706,-1891.633,-872.8854)"
       cx="605.71429"
       cy="486.64789"
       fx="605.71429"
       fy="486.64789"
       r="117.14286" />
    <radialGradient
       inkscape:collect="always"
       xlink:href="#linearGradient5060"
       id="radialGradient2165"
       gradientUnits="userSpaceOnUse"
       gradientTransform="matrix(-2.774389,0,0,1.969706,112.7623,-872.8854)"
       cx="605.71429"
       cy="486.64789"
       fx="605.71429"
       fy="486.64789"
       r="117.14286" />
    <linearGradient
       inkscape:collect="always"
       xlink:href="#linearGradient5048"
       id="linearGradient2167"
       gradientUnits="userSpaceOnUse"
       gradientTransform="matrix(2.774389,0,0,1.969706,-1892.179,-872.8854)"
       x1="302.85715"
       y1="366.64789"
       x2="302.85715"
       y2="609.50507" />
    <radialGradient
       inkscape:collect="always"
       xlink:href="#linearGradient5060"
       id="radialGradient2169"
       gradientUnits="userSpaceOnUse"
       gradientTransform="matrix(2.774389,0,0,1.969706,-1891.633,-872.8854)"
       cx="605.71429"
       cy="486.64789"
       fx="605.71429"
       fy="486.64789"
       r="117.14286" />
    <radialGradient
       inkscape:collect="always"
       xlink:href="#linearGradient5060"
       id="radialGradient2171"
       gradientUnits="userSpaceOnUse"
       gradientTransform="matrix(-2.774389,0,0,1.969706,112.7623,-872.8854)"
       cx="605.71429"
       cy="486.64789"
       fx="605.71429"
       fy="486.64789"
       r="117.14286" />
  </defs>
  <sodipodi:namedview
     id="base"
     pagecolor="#f0f0f0"
     bordercolor="#666"
     borderopacity="1"
     inkscape:pageopacity="0.0"
     inkscape:pageshadow="2"
     inkscape:zoom="11.313709"
     inkscape:cx="27.671404"
     inkscape:cy="23.7417"
     inkscape:current-layer="layer1"
     showgrid="false"
     inkscape:grid-bbox="true"
     inkscape:document-units="px"
     inkscape:window-width="810"
     inkscape:window-height="828"
     inkscape:window-x="468"
     inkscape:window-y="146"
     inkscape:showpageshadow="false"
     showborder="true"
     showguides="true"
     inkscape:guide-bbox="true" />
  <metadata
     id="metadata1311">
    <rdf:RDF>
      <cc:Work
         rdf:about="">
        <dc:format>image/svg+xml</dc:format>
        <dc:type
           rdf:resource="http://purl.org/dc/dcmitype/StillImage" />
        <cc:license
           rdf:resource="http://creativecommons.org/licenses/GPL/2.0/" />
        <dc:title>Weather - Severe Alert</dc:title>
        <dc:creator>
          <cc:Agent>
            <dc:title>Lapo Calamandrei</dc:title>
          </cc:Agent>
        </dc:creator>
        <dc:contributor>
          <cc:Agent>
            <dc:title>Jakub Steiner</dc:title>
          </cc:Agent>
        </dc:contributor>
      </cc:Work>
      <cc:License
         rdf:about="http://creativecommons.org/licenses/GPL/2.0/">
        <cc:permits
           rdf:resource="http://web.resource.org/cc/Reproduction" />
        <cc:permits
           rdf:resource="http://web.resource.org/cc/Distribution" />
        <cc:requires
           rdf:resource="http://web.resource.org/cc/Notice" />
        <cc:permits
           rdf:resource="http://web.resource.org/cc/DerivativeWorks" />
        <cc:requires
           rdf:resource="http://web.resource.org/cc/ShareAlike" />
        <cc:requires
           rdf:resource="http://web.resource.org/cc/SourceCode" />
      </cc:License>
    </rdf:RDF>
  </metadata>
  <g
     id="layer1"
     inkscape:label="Layer 1"
     inkscape:groupmode="layer">
    <path
       sodipodi:type="inkscape:offset"
       inkscape:radius="-0.14803344"
       inkscape:original="M 33.90625 22.78125 C 32.589225 22.706477 31.507988 23.707127 30.75 24.5625 C 30.060094 25.569152 29.605014 26.736143 29.03125 27.8125 C 27.094185 31.766084 25.133429 35.697618 23.21875 39.65625 C 22.914069 40.674669 22.771677 41.812083 23.125 42.875 C 23.731994 44.535973 25.563645 45.483741 27.28125 45.3125 C 31.975648 45.306788 36.680858 45.332595 41.375 45.3125 C 42.638961 45.223081 43.821982 44.449441 44.4375 43.34375 C 44.665292 42.781463 44.938907 41.829174 44.90625 41.09375 C 44.94569 40.253064 44.65509 39.454732 44.1875 38.71875 C 41.850045 34.010405 39.540569 29.286484 37.1875 24.59375 C 36.486699 23.499581 35.213055 22.772257 33.90625 22.78125 z "
       style="fill:#f0f0f0;fill-opacity:1;fill-rule:nonzero;stroke:none;stroke-width:1.30303097000000001;stroke-miterlimit:4;stroke-dasharray:none;stroke-opacity:1"
       id="path2418"
       d="M 33.4375,22.9375 C 32.397106,23.08496 31.530945,23.916031 30.875,24.65625 C 30.198093,25.643935 29.735623,26.788121 29.15625,27.875 C 27.225021,31.816673 25.283369,35.742683 23.375,39.6875 C 23.075364,40.689057 22.910404,41.822128 23.25,42.84375 C 23.830271,44.431599 25.627637,45.321111 27.28125,45.15625 C 31.976311,45.150537 36.681824,45.176341 41.375,45.15625 C 42.585492,45.070614 43.721917,44.342149 44.3125,43.28125 C 44.533942,42.734638 44.78078,41.786907 44.75,41.09375 C 44.787639,40.291448 44.518994,39.531017 44.0625,38.8125 C 44.061398,38.802113 44.061398,38.791637 44.0625,38.78125 C 41.72893,34.080731 39.410791,29.371124 37.0625,24.6875 C 37.058322,24.679166 37.066679,24.664584 37.0625,24.65625 C 36.386765,23.616864 35.149386,22.928945 33.90625,22.9375 C 33.751522,22.928715 33.586128,22.916434 33.4375,22.9375 z"
       transform="matrix(0.9353832,0,0,0.9353832,1.550804,1.6816776)" />
    <path
       sodipodi:type="inkscape:offset"
       inkscape:radius="2.2492399"
       inkscape:original="M 26.84375 9.125 C 25.111082 9.125 23.700461 10.46591 23.53125 12.15625 C 20.746898 12.558799 18.35438 14.073203 16.8125 16.28125 C 16.233486 16.040933 15.686199 15.71875 15.03125 15.71875 C 14.886786 15.71875 14.787516 15.766309 14.65625 15.78125 C 14.232632 14.707852 13.403387 13.84375 12.1875 13.84375 C 10.603826 13.84375 9.28125 15.13497 9.28125 16.71875 C 9.2812501 17.703803 9.8897985 18.473376 10.65625 19 C 10.562665 19.265545 10.451974 19.526808 10.40625 19.8125 C 10.043633 19.719702 9.7384614 19.5 9.34375 19.5 C 7.8396142 19.5 6.6241125 20.314634 5.75 21.40625 C 5.2575045 21.12807 4.7238487 20.90625 4.125 20.90625 C 2.2803097 20.90625 0.78125 22.437154 0.78125 24.28125 C 0.78124993 26.125346 2.2803101 27.625 4.125 27.625 C 4.7275907 27.625001 5.2866392 27.43768 5.78125 27.15625 C 6.6558899 28.227929 7.8556967 29.031249 9.34375 29.03125 C 9.9915113 29.03125 10.505567 28.70366 11.0625 28.46875 C 12.042821 30.190527 13.842721 31.40625 15.96875 31.40625 C 17.295777 31.40625 18.443431 30.849144 19.40625 30.09375 C 21.003657 31.177215 22.865631 31.875 24.9375 31.875 C 26.656849 31.875001 28.23585 31.393796 29.625 30.59375 C 29.63738 30.58662 29.643901 30.569681 29.65625 30.5625 L 32 25.8125 L 32.03125 25.78125 C 32.034879 25.774287 32.02755 25.756931 32.03125 25.75 L 32.09375 25.6875 L 32.125 25.65625 C 32.495025 25.045739 33.121142 24.562501 33.90625 24.5625 C 34.699354 24.5625 35.41477 25.0362 35.78125 25.75 L 37.625 29.46875 C 38.213543 29.203968 38.761133 28.877775 39.25 28.46875 C 39.807289 28.737601 40.366278 29.03125 41.03125 29.03125 C 41.978116 29.03125 42.791621 28.676186 43.5 28.15625 C 43.881837 28.40655 44.328408 28.5625 44.8125 28.5625 C 46.135161 28.562502 47.218753 27.479715 47.21875 26.15625 C 47.218749 24.968975 46.292678 24.099575 45.15625 23.90625 C 44.750764 21.952921 43.101051 20.4375 41.03125 20.4375 C 40.825189 20.437501 40.63477 20.502978 40.4375 20.53125 C 39.75964 19.488454 38.816798 18.702574 37.65625 18.21875 C 37.689144 18.027848 37.78125 17.861781 37.78125 17.65625 C 37.78125 15.551833 36.043202 13.84375 33.9375 13.84375 C 33.056127 13.84375 32.282069 14.212407 31.625 14.71875 C 31.092817 14.233697 30.529674 13.798221 29.90625 13.4375 C 30.005963 13.113117 30.1875 12.818041 30.1875 12.46875 C 30.1875 10.624652 28.688438 9.125 26.84375 9.125 z "
       style="fill:#f0f0f0;fill-opacity:1;stroke:none;stroke-width:2;stroke-linecap:round;stroke-linejoin:miter;stroke-miterlimit:4;stroke-dasharray:none;stroke-dashoffset:1.20000057000000004;stroke-opacity:1"
       id="path2409"
       d="M 26.84375,6.875 C 24.548627,6.875 22.637821,8.3261745 21.78125,10.3125 C 19.581695,10.907659 17.61515,12.039787 16.09375,13.65625 C 15.994787,13.631794 15.88908,13.612871 15.78125,13.59375 C 14.936211,12.516811 13.794493,11.59375 12.1875,11.59375 C 9.3812412,11.59375 7.03125,13.88278 7.03125,16.71875 C 7.03125,17.124268 7.2477135,17.420393 7.34375,17.78125 C 6.5307056,18.072342 5.8399318,18.445916 5.21875,18.96875 C 4.8316609,18.863137 4.589162,18.65625 4.125,18.65625 C 1.0358839,18.65625 -1.46875,21.218221 -1.46875,24.28125 C -1.4687501,27.34428 1.0612862,29.875 4.125,29.875 C 4.5439622,29.875001 4.841823,29.681951 5.21875,29.59375 C 6.3272949,30.525247 7.6551148,31.281249 9.34375,31.28125 C 9.7204491,31.28125 9.9511731,31.190972 10.25,31.125 C 11.673667,32.64821 13.689829,33.65625 15.96875,33.65625 C 17.336188,33.65625 18.474226,33.197498 19.5,32.625 C 21.127588,33.483268 22.91207,34.125 24.9375,34.125 C 27.076522,34.125001 29.060091,33.50451 30.75,32.53125 C 30.791233,32.507503 30.775981,32.523202 30.8125,32.5 C 31.04045,32.359656 31.24152,32.179751 31.40625,31.96875 C 31.514633,31.844072 31.608952,31.707833 31.6875,31.5625 L 33.875,27.09375 C 33.885519,27.083436 33.895936,27.073019 33.90625,27.0625 L 35.625,30.46875 C 36.158541,31.55588 37.456963,32.025522 38.5625,31.53125 C 38.869816,31.39299 39.137564,31.142386 39.4375,30.96875 C 39.883151,31.122153 40.403322,31.28125 41.03125,31.28125 C 42.104002,31.28125 43.019328,30.931099 43.84375,30.5 C 44.18456,30.583715 44.440901,30.8125 44.8125,30.8125 C 47.362712,30.812504 49.468756,28.707434 49.46875,26.15625 C 49.468748,24.324772 48.310323,22.853498 46.84375,22.125 C 45.883682,19.975561 43.871514,18.391371 41.375,18.25 C 40.920945,17.759884 40.433204,17.338025 39.875,16.96875 C 39.508535,13.967258 37.015237,11.59375 33.9375,11.59375 C 33.343738,11.59375 32.823655,11.743525 32.3125,11.90625 C 32.011019,9.116955 29.706902,6.875 26.84375,6.875 z"
       transform="matrix(0.9353832,0,0,0.9353832,1.550804,1.6816776)" />
    <path
       style="fill:#373b41;fill-opacity:1;fill-rule:nonzero;stroke:none;stroke-width:1.30303097;stroke-miterlimit:4;stroke-dasharray:none;stroke-opacity:1"
       d="M 33.266139,25.124718 C 32.673961,25.124719 32.185083,25.495988 31.921526,26.00164 L 31.892295,26.030871 L 25.19846,39.623157 L 25.19846,39.652388 C 24.971129,40.136595 24.968998,40.703555 25.256921,41.201616 C 25.526124,41.667298 26.01786,41.932384 26.543073,41.932384 L 40.018437,41.932384 C 40.562526,41.932385 41.056459,41.65954 41.304589,41.172386 C 41.309898,41.163323 41.299484,41.152282 41.304589,41.143155 C 41.570906,40.666998 41.590083,40.105659 41.392281,39.623157 L 41.392281,39.593926 L 41.36305,39.593926 L 34.610753,25.972409 C 34.344035,25.452918 33.824835,25.124718 33.266139,25.124718 z M 33.266139,29.304712 C 33.321053,29.304712 33.361962,29.331332 33.412293,29.421635 L 38.206132,39.038543 C 38.306793,39.219149 38.228945,39.360083 38.059978,39.360081 L 28.530762,39.360081 C 28.361796,39.360081 28.253281,39.219147 28.355378,39.038543 L 33.119986,29.421635 C 33.154139,29.331332 33.211226,29.304712 33.266139,29.304712 z"
       id="path6485" />
    <path
       style="fill:#373b41;fill-opacity:1;stroke:none;stroke-width:2;stroke-linecap:round;stroke-linejoin:miter;stroke-miterlimit:4;stroke-dasharray:none;stroke-dashoffset:1.20000057;stroke-opacity:1"
       d="M 26.659996,10.217049 C 25.039287,10.217049 23.719816,11.471314 23.561539,13.052429 C 20.957103,13.428967 18.719182,14.845515 17.276934,16.910885 C 16.735334,16.686096 16.223411,16.384732 15.610782,16.384732 C 15.475653,16.384732 15.382798,16.429218 15.260014,16.443193 C 14.863768,15.439155 14.088107,14.630888 12.950786,14.630888 C 11.469444,14.630888 10.232329,15.838674 10.232329,17.320115 C 10.232329,18.241517 10.801555,18.961362 11.518481,19.453958 C 11.430943,19.702344 11.327405,19.946725 11.284635,20.213957 C 10.945449,20.127155 10.659997,19.921649 10.29079,19.921649 C 8.8838472,19.921649 7.7468874,20.683644 6.9292572,21.704723 C 6.4685852,21.444519 5.9694126,21.237032 5.4092596,21.237032 C 3.6837673,21.237032 2.2815721,22.669014 2.2815721,24.39395 C 2.2815721,26.118886 3.6837677,27.521638 5.4092596,27.521638 C 5.9729128,27.521638 6.4958373,27.346422 6.958488,27.083177 C 7.7766114,28.085607 8.8988905,28.837019 10.29079,28.83702 C 10.896696,28.83702 11.377535,28.530598 11.89848,28.310867 C 12.815456,29.921388 14.499052,31.058555 16.487704,31.058555 C 17.728983,31.058555 18.802479,30.537448 19.703084,29.830865 C 21.197271,30.84432 22.93893,31.497016 24.876922,31.497016 C 26.485172,31.497017 27.962143,31.046906 29.26153,30.298556 C 29.27311,30.291887 29.27921,30.276043 29.290761,30.269326 L 31.483065,25.826256 L 31.512296,25.797025 C 31.515691,25.790512 31.508835,25.774277 31.512296,25.767794 L 31.570757,25.709333 L 31.599988,25.680102 C 31.946103,25.10904 32.531763,24.657028 33.266139,24.657027 C 34.007996,24.657027 34.677184,25.100118 35.019983,25.767794 L 36.744596,29.24625 C 37.295109,28.998578 37.807315,28.693462 38.264593,28.310867 C 38.785872,28.562346 39.308741,28.83702 39.930745,28.83702 C 40.816427,28.83702 41.577366,28.504899 42.239972,28.01856 C 42.597136,28.252686 43.014851,28.398559 43.467662,28.398559 C 44.704857,28.398561 45.718431,27.38574 45.718428,26.147793 C 45.718427,25.037236 44.852196,24.224014 43.7892,24.043181 C 43.409915,22.21607 41.866802,20.798571 39.930745,20.798571 C 39.737999,20.798572 39.559884,20.859818 39.375361,20.886263 C 38.741302,19.910849 37.859383,19.17575 36.773826,18.72319 C 36.804595,18.544623 36.890749,18.389287 36.890749,18.197037 C 36.890749,16.2286 35.265008,14.630888 33.29537,14.630888 C 32.470949,14.630888 31.746908,14.975724 31.132297,15.449349 C 30.634502,14.995638 30.107747,14.588301 29.524607,14.250889 C 29.617877,13.947466 29.787683,13.671457 29.787683,13.344736 C 29.787683,11.619798 28.385486,10.217049 26.659996,10.217049 z"
       id="path2077" />
    <g
       id="g2146"
       transform="matrix(0.9353832,0,0,0.9353832,9.0338694,3.5524439)">
      <g
         style="display:inline"
         transform="matrix(1.071946e-2,0,0,9.024553e-3,35.41685,39.41802)"
         id="g6707" />
      <g
         id="g3952"
         transform="matrix(1.071946e-2,0,0,9.024553e-3,35.41685,39.41802)"
         style="display:inline" />
      <g
         style="fill:#121312;fill-opacity:1;fill-rule:nonzero;stroke:#373b41;stroke-width:2.45324564;stroke-miterlimit:4"
         transform="matrix(0.339351,0,0,0.370268,17.78706,23.64564)"
         id="g6498"
         inkscape:r_cx="true"
         inkscape:r_cy="true">
        <path
           style="fill:#373b41;fill-opacity:1;stroke:none"
           d="M 22.810356,35.833787 C 21.482134,35.130969 21.104052,33.568631 21.940765,32.24041 C 22.841841,30.810018 24.340642,30.377046 25.771035,31.133927 C 27.201427,31.890808 27.43953,33.242849 26.640625,34.727304 C 25.803912,36.055525 24.240748,36.590668 22.810356,35.833787 L 22.810356,35.833787 z M 23.428093,28.231254 L 21.248844,19.696786 L 27.332546,19.816143 L 25.023066,28.08366 L 23.428093,28.231254 z"
           id="path6500"
           inkscape:r_cx="true"
           inkscape:r_cy="true"
           sodipodi:nodetypes="csscccccccc" />
      </g>
    </g>
  </g>
</svg>
