<?xml version="1.0" encoding="UTF-8" standalone="no"?>
<!-- Created with Inkscape (http://www.inkscape.org/) -->
<svg
   xmlns:dc="http://purl.org/dc/elements/1.1/"
   xmlns:cc="http://web.resource.org/cc/"
   xmlns:rdf="http://www.w3.org/1999/02/22-rdf-syntax-ns#"
   xmlns:svg="http://www.w3.org/2000/svg"
   xmlns="http://www.w3.org/2000/svg"
   xmlns:sodipodi="http://sodipodi.sourceforge.net/DTD/sodipodi-0.dtd"
   xmlns:inkscape="http://www.inkscape.org/namespaces/inkscape"
   width="128"
   height="128"
   id="svg2"
   sodipodi:version="0.32"
   inkscape:version="0.45.1"
   version="1.0"
   sodipodi:docbase="/home/christof/themes_and_icons/meinICONtheme/BRIT ICONS/scalable/places"
   sodipodi:docname="gnome-fs-desktop.svg"
   inkscape:output_extension="org.inkscape.output.svg.inkscape">
  <defs
     id="defs4" />
  <sodipodi:namedview
     id="base"
     pagecolor="#f0f0f0"
     bordercolor="#373b41"
     borderopacity="1"
     inkscape:pageopacity="0.0"
     inkscape:pageshadow="2"
     inkscape:zoom="2.8"
     inkscape:cx="134.08044"
     inkscape:cy="120.39487"
     inkscape:document-units="px"
     inkscape:current-layer="layer1"
     width="128px"
     height="128px"
     showgrid="true"
     inkscape:window-width="1680"
     inkscape:window-height="1003"
     inkscape:window-x="0"
     inkscape:window-y="47" />
  <metadata
     id="metadata7">
    <rdf:RDF>
      <cc:Work
         rdf:about="">
        <dc:format>image/svg+xml</dc:format>
        <dc:type
           rdf:resource="http://purl.org/dc/dcmitype/StillImage" />
      </cc:Work>
    </rdf:RDF>
  </metadata>
  <g
     inkscape:label="Ebene 1"
     inkscape:groupmode="layer"
     id="layer1">
    <path
       style="fill:#f0f0f0;fill-opacity:1"
       d="M 60,89.906024 L 59.977679,119.30371 L 76.608726,119.34835 C 85.743526,119.34835 95.137926,118.79757 97.485166,118.12439 C 104.17193,116.20665 111.21743,110.65242 114.89206,104.4019 C 118.07968,98.97979 118.28081,97.66265 118.68389,79.56988 L 119.10955,60.46369 L 89.554766,60.46369 L 60,60.46369 L 60,89.906024 z "
       id="path3271"
       sodipodi:nodetypes="cccssccccc" />
    <path
       style="fill:#f0f0f0;fill-opacity:1"
       d="M 69.109556,89.869848 L 69.109556,119.31217 L 52.500826,119.31217 C 43.366023,119.31217 33.971623,118.76139 31.624383,118.08821 C 24.93762,116.17047 17.89212,110.61624 14.21749,104.36572 C 11.02987,98.943604 10.82874,97.626474 10.42566,79.533705 L 10.203437,60.49623 L 39.554783,60.427515 L 69.109556,60.427515 L 69.109556,89.869848 z "
       id="path3269"
       sodipodi:nodetypes="cccssccccc" />
    <path
       style="fill:#f0f0f0;fill-opacity:1"
       d="M 119.10955,38.557671 L 119.10955,9.1153369 L 102.50082,9.1153369 C 93.36602,9.1153369 83.97162,9.6661199 81.62438,10.3393 C 74.93762,12.257033 67.89212,17.811264 64.21749,24.061789 C 61.02987,29.483905 60.82874,30.801042 60.42566,48.893808 L 60,68 L 89.55478,68 L 119.10955,60.771096 L 119.10955,38.557671 z "
       id="path3265"
       sodipodi:nodetypes="cccssccccc" />
    <path
       style="fill:#f0f0f0;fill-opacity:1"
       d="M 10,39.062747 L 10,9.6204136 L 26.608734,9.6204136 C 35.743537,9.6204136 45.137934,10.171196 47.485177,10.844376 C 54.171932,12.762109 61.217433,18.31634 64.89206,24.566865 C 68.079688,29.988981 68.28081,31.306118 68.683895,49.398884 L 69.109555,68.505076 L 39.554779,68.505076 L 10.268322,68.489292 L 10,39.062747 z "
       id="path3263"
       sodipodi:nodetypes="cccssccccc" />
    <path
       style="fill:#22ad93;fill-opacity:1"
       d="M 33.47373,108.90158 C 31.169336,108.19121 27.577017,106.14895 25.490806,104.36324 C 19.677655,99.387396 18.453816,95.423075 17.980516,80.035572 L 17.575177,66.857516 L 39.410255,66.857516 L 61.245323,66.857516 L 61.245323,88.589749 L 61.245323,110.32198 L 49.45443,110.25757 C 42.157967,110.21771 36.066478,109.70084 33.47373,108.90158 z "
       id="path4980" />
    <path
       style="fill:#373b41;fill-opacity:1"
       d="M 66.536684,88.589749 L 66.536684,66.599213 L 88.611204,66.599213 L 110.68573,66.599213 L 110.3678,80.869667 C 110.06674,94.383189 109.91652,95.366961 107.53569,99.416748 C 104.79109,104.08528 99.528791,108.23375 94.534435,109.66611 C 92.781275,110.1689 85.764581,110.58029 78.941778,110.58029 L 66.536684,110.58029 L 66.536684,88.589749 z "
       id="path4978" />
    <path
       style="fill:#373b41;fill-opacity:1"
       d="M 18.04176,39.589749 L 18.04176,18.102368 L 30.163021,18.102368 C 36.829714,18.102368 43.685862,18.504336 45.398909,18.995631 C 50.278986,20.395217 55.42088,24.448764 58.102669,29.010474 C 60.42904,32.967602 60.575821,33.928865 60.869997,47.133191 L 61.18065,61.07713 L 39.611205,61.07713 L 18.04176,61.07713 L 18.04176,39.589749 z "
       id="path4976" />
    <path
       style="fill:#373b41;fill-opacity:1"
       d="M 67.185211,47.125505 C 67.537996,31.893565 68.069758,29.992977 73.497215,24.565513 C 78.924682,19.138049 80.825272,18.606288 96.057211,18.253507 L 110.00115,17.930556 L 110.00115,39.5 L 110.00115,61.069444 L 88.431704,61.069444 L 66.862259,61.069444 L 67.185211,47.125505 z "
       id="path4972" />
  </g>
</svg>
