<?xml version="1.0" encoding="UTF-8" standalone="no"?>
<!-- Created with Inkscape (http://www.inkscape.org/) -->
<svg
   xmlns:dc="http://purl.org/dc/elements/1.1/"
   xmlns:cc="http://creativecommons.org/ns#"
   xmlns:rdf="http://www.w3.org/1999/02/22-rdf-syntax-ns#"
   xmlns:svg="http://www.w3.org/2000/svg"
   xmlns="http://www.w3.org/2000/svg"
   xmlns:xlink="http://www.w3.org/1999/xlink"
   xmlns:sodipodi="http://sodipodi.sourceforge.net/DTD/sodipodi-0.dtd"
   xmlns:inkscape="http://www.inkscape.org/namespaces/inkscape"
   width="128"
   height="128"
   id="svg2"
   sodipodi:version="0.32"
   inkscape:version="0.46"
   version="1.0"
   sodipodi:docbase="/home/christof/themes_and_icons/meinICONtheme/BRIT ICONS/scalable/emblems"
   sodipodi:docname="emblem-documents.svg"
   inkscape:output_extension="org.inkscape.output.svg.inkscape">
  <defs
     id="defs4">
    <inkscape:perspective
       sodipodi:type="inkscape:persp3d"
       inkscape:vp_x="0 : 64 : 1"
       inkscape:vp_y="0 : 1000 : 0"
       inkscape:vp_z="128 : 64 : 1"
       inkscape:persp3d-origin="64 : 42.666667 : 1"
       id="perspective33" />
    <linearGradient
       inkscape:collect="always"
       id="linearGradient4132">
      <stop
         style="stop-color:#f0f0f0;stop-opacity:1;"
         offset="0"
         id="stop4134" />
      <stop
         style="stop-color:#f0f0f0;stop-opacity:0;"
         offset="1"
         id="stop4136" />
    </linearGradient>
    <linearGradient
       inkscape:collect="always"
       id="linearGradient3155">
      <stop
         style="stop-color:#373b41;stop-opacity:1;"
         offset="0"
         id="stop3157" />
      <stop
         style="stop-color:#373b41;stop-opacity:0;"
         offset="1"
         id="stop3159" />
    </linearGradient>
    <linearGradient
       inkscape:collect="always"
       id="linearGradient6067">
      <stop
         style="stop-color:#f0f0f0;stop-opacity:1;"
         offset="0"
         id="stop6069" />
      <stop
         style="stop-color:#f0f0f0;stop-opacity:0;"
         offset="1"
         id="stop6071" />
    </linearGradient>
    <linearGradient
       inkscape:collect="always"
       id="linearGradient3142">
      <stop
         style="stop-color:#373b41;stop-opacity:1;"
         offset="0"
         id="stop3144" />
      <stop
         style="stop-color:#373b41;stop-opacity:0;"
         offset="1"
         id="stop3146" />
    </linearGradient>
    <linearGradient
       inkscape:collect="always"
       xlink:href="#linearGradient3142"
       id="linearGradient3148"
       x1="92.804863"
       y1="75.855133"
       x2="92.804863"
       y2="110.71667"
       gradientUnits="userSpaceOnUse"
       gradientTransform="matrix(1.6258627,0,0,1.6258627,-28.787153,-52.145846)" />
    <linearGradient
       inkscape:collect="always"
       xlink:href="#linearGradient6067"
       id="linearGradient6073"
       x1="29.731594"
       y1="96.211563"
       x2="29.731594"
       y2="119.78299"
       gradientUnits="userSpaceOnUse" />
    <linearGradient
       inkscape:collect="always"
       xlink:href="#linearGradient3155"
       id="linearGradient3161"
       x1="100.75668"
       y1="85.389313"
       x2="100.75668"
       y2="124.82345"
       gradientUnits="userSpaceOnUse" />
    <linearGradient
       inkscape:collect="always"
       xlink:href="#linearGradient4132"
       id="linearGradient4138"
       x1="96.899597"
       y1="-101.65641"
       x2="96.899597"
       y2="-115.67227"
       gradientUnits="userSpaceOnUse"
       gradientTransform="translate(-2.2728432,0)" />
  </defs>
  <sodipodi:namedview
     id="base"
     pagecolor="#f0f0f0"
     bordercolor="#666666"
     borderopacity="1.0"
     inkscape:pageopacity="0.0"
     inkscape:pageshadow="2"
     inkscape:zoom="3.959798"
     inkscape:cx="129.72175"
     inkscape:cy="54.273942"
     inkscape:document-units="px"
     inkscape:current-layer="layer1"
     showgrid="true"
     width="128px"
     height="128px"
     showguides="true"
     inkscape:guide-bbox="true"
     inkscape:window-width="1680"
     inkscape:window-height="1001"
     inkscape:window-x="0"
     inkscape:window-y="24" />
  <metadata
     id="metadata7">
    <rdf:RDF>
      <cc:Work
         rdf:about="">
        <dc:format>image/svg+xml</dc:format>
        <dc:type
           rdf:resource="http://purl.org/dc/dcmitype/StillImage" />
      </cc:Work>
    </rdf:RDF>
  </metadata>
  <g
     inkscape:label="Livello 1"
     inkscape:groupmode="layer"
     id="layer1">
    <g
       id="g2185"
       transform="matrix(0.8299769,0,0,0.8299769,30.254267,35.105659)"
       style="fill:#f0f0f0;fill-opacity:1">
      <path
         sodipodi:nodetypes="ccccccccc"
         id="path2181"
         d="M -4.0409523,1.7439413 L 33.854915,-14.202026 L 64.634793,-1.7005767 L 87.941973,53.977062 C 88.979643,56.446119 87.827303,59.26923 85.358233,60.306897 L 30.296557,83.44761 C 27.827492,84.48528 25.004385,83.33293 23.966714,80.86387 L -6.6246943,8.0737823 C -7.6623644,5.6047223 -6.5100173,2.7816123 -4.0409523,1.7439413 z"
         style="fill:#f0f0f0;fill-opacity:1;stroke:none;stroke-width:0.2;stroke-linecap:round;stroke-linejoin:round;stroke-miterlimit:4;stroke-dashoffset:0;stroke-opacity:1" />
      <path
         sodipodi:nodetypes="ccccccccc"
         id="path2183"
         d="M 18.858795,-13.44963 L 59.972903,-13.467618 L 83.505083,9.9828393 L 83.419903,70.341906 C 83.419903,73.020157 81.263761,75.17629 78.585511,75.17629 L 18.858795,75.17629 C 16.180542,75.17629 14.024406,73.020157 14.024406,70.341906 L 14.024406,-8.6152427 C 14.024406,-11.293492 16.180542,-13.44963 18.858795,-13.44963 z"
         style="fill:#f0f0f0;fill-opacity:1;stroke:none;stroke-width:0.2;stroke-linecap:round;stroke-linejoin:round;stroke-miterlimit:4;stroke-dashoffset:0;stroke-opacity:1" />
    </g>
    <g
       id="g3161"
       transform="matrix(0.7100913,0,0,0.7100913,22.878248,20.381042)">
      <path
         sodipodi:nodetypes="ccccccccc"
         id="path2180"
         d="M 13.210925,27.659361 L 51.106792,11.713394 L 81.88667,24.214843 L 105.19385,79.892482 C 106.23152,82.361539 105.07918,85.18465 102.61011,86.222317 L 47.548434,109.36303 C 45.079369,110.4007 42.256262,109.24835 41.218591,106.77929 L 10.627183,33.989202 C 9.5895129,31.520142 10.74186,28.697032 13.210925,27.659361 z"
         style="fill:#444034;fill-opacity:1;stroke:none;stroke-width:0.2;stroke-linecap:round;stroke-linejoin:round;stroke-miterlimit:4;stroke-dashoffset:0;stroke-opacity:1" />
      <path
         id="path2186"
         d="M 61.554654,25.34331 C 61.273336,25.518867 61.021819,25.792337 60.909829,26.121333 C 58.069876,34.46466 55.545218,44.608816 54.327517,56.604887 L 53.775879,56.498708 L 50.006633,76.082093 L 50.936101,76.282991 C 50.018792,76.904173 49.725927,78.116622 50.210584,79.080763 L 50.159584,79.059946 C 48.177971,83.243969 48.597626,86.787155 47.947553,92.496136 C 48.877013,89.561654 53.761748,86.580676 54.220335,84.198125 C 54.481158,82.843052 53.071233,82.211817 53.658366,79.74436 L 53.607367,79.723543 C 54.41554,79.008237 54.591412,77.784382 53.970148,76.866958 L 54.971439,77.037673 L 58.725577,57.418387 L 58.173939,57.312207 C 61.462006,45.723857 62.869743,35.405231 63.356314,26.614218 C 63.394703,25.920677 62.831539,25.226045 62.354014,25.134121 C 62.115251,25.088159 61.835945,25.167767 61.554654,25.34331 z"
         style="fill:#f0f0f0;fill-opacity:1;fill-rule:evenodd;stroke:none;stroke-width:0.54438585;stroke-linecap:round;stroke-linejoin:round;stroke-miterlimit:4;stroke-dasharray:none;stroke-opacity:1" />
      <path
         sodipodi:nodetypes="ccccccccc"
         id="rect2162"
         d="M 36.110672,12.46579 L 77.22478,12.447802 L 100.75696,35.898259 L 100.67178,96.257326 C 100.67178,98.935577 98.515638,101.09171 95.837388,101.09171 L 36.110672,101.09171 C 33.432419,101.09171 31.276283,98.935577 31.276283,96.257326 L 31.276283,17.300177 C 31.276283,14.621928 33.432419,12.46579 36.110672,12.46579 z"
         style="fill:#373b41;fill-opacity:1;stroke:none;stroke-width:0.2;stroke-linecap:round;stroke-linejoin:round;stroke-miterlimit:4;stroke-dashoffset:0;stroke-opacity:1" />
      <text
         id="text8053"
         y="96.053925"
         x="71.910233"
         style="font-size:12px;font-style:normal;font-weight:normal;fill:#f0f0f0;fill-opacity:1;stroke:none;stroke-width:1px;stroke-linecap:butt;stroke-linejoin:miter;stroke-opacity:1;font-family:Bitstream Vera Sans"
         xml:space="preserve"><tspan
           y="96.053925"
           x="71.910233"
           id="tspan8055"
           sodipodi:role="line">DOC</tspan></text>
      <path
         id="path5497"
         d="M 81.575777,29.061086 C 81.248424,29.113936 80.910594,29.268597 80.679883,29.528507 C 74.829182,36.119847 68.571428,44.493517 62.801048,55.080827 L 62.333628,54.769214 L 51.271343,71.362642 L 52.050376,71.907965 C 50.964042,72.125223 50.224297,73.129504 50.29755,74.206116 L 50.258598,74.167165 C 46.810691,77.256627 45.824784,80.68566 43.01358,85.696866 C 45.007389,83.351699 50.665554,82.496112 52.011425,80.47733 C 52.776887,79.329151 51.721658,78.200954 53.218928,76.153702 L 53.179977,76.114751 C 54.202172,75.768436 54.838478,74.708313 54.62119,73.621841 L 55.478127,74.167165 L 66.540412,57.534785 L 66.072992,57.223172 C 73.594066,47.813885 78.889731,38.846629 82.744322,30.930768 C 83.048417,30.30627 82.798374,29.4477 82.393761,29.177942 C 82.191449,29.043063 81.903123,29.008237 81.575777,29.061086 z"
         style="fill:#f0f0f0;fill-opacity:1;fill-rule:evenodd;stroke:none;stroke-width:0.54438585;stroke-linecap:round;stroke-linejoin:round;stroke-miterlimit:4;stroke-dasharray:none;stroke-opacity:1" />
    </g>
  </g>
</svg>
