<?xml version="1.0" encoding="UTF-8" standalone="no"?>
<!-- Created with Inkscape (http://www.inkscape.org/) -->
<svg
   xmlns:dc="http://purl.org/dc/elements/1.1/"
   xmlns:cc="http://web.resource.org/cc/"
   xmlns:rdf="http://www.w3.org/1999/02/22-rdf-syntax-ns#"
   xmlns:svg="http://www.w3.org/2000/svg"
   xmlns="http://www.w3.org/2000/svg"
   xmlns:sodipodi="http://sodipodi.sourceforge.net/DTD/sodipodi-0.dtd"
   xmlns:inkscape="http://www.inkscape.org/namespaces/inkscape"
   width="128"
   height="128"
   id="svg2"
   sodipodi:version="0.32"
   inkscape:version="0.45.1"
   version="1.0"
   sodipodi:docbase="/home/christof/themes_and_icons/meinICONtheme/BRIT ICONS/scalable/mimetypes"
   sodipodi:docname="deb.svg"
   inkscape:output_extension="org.inkscape.output.svg.inkscape">
  <defs
     id="defs4" />
  <sodipodi:namedview
     id="base"
     pagecolor="#f0f0f0"
     bordercolor="#373b41"
     borderopacity="1"
     inkscape:pageopacity="0.0"
     inkscape:pageshadow="2"
     inkscape:zoom="2.8"
     inkscape:cx="89.062583"
     inkscape:cy="72.021503"
     inkscape:document-units="px"
     inkscape:current-layer="layer1"
     width="128px"
     height="128px"
     showgrid="true"
     inkscape:window-width="1680"
     inkscape:window-height="1003"
     inkscape:window-x="0"
     inkscape:window-y="47" />
  <metadata
     id="metadata7">
    <rdf:RDF>
      <cc:Work
         rdf:about="">
        <dc:format>image/svg+xml</dc:format>
        <dc:type
           rdf:resource="http://purl.org/dc/dcmitype/StillImage" />
      </cc:Work>
    </rdf:RDF>
  </metadata>
  <g
     inkscape:label="Ebene 1"
     inkscape:groupmode="layer"
     id="layer1">
    <path
       sodipodi:type="arc"
       style="opacity:1;fill:#f0f0f0;fill-opacity:1;fill-rule:nonzero;stroke:none;stroke-width:18;stroke-linejoin:miter;stroke-miterlimit:4;stroke-dasharray:none;stroke-opacity:1"
       id="path10360"
       sodipodi:cx="103.92857"
       sodipodi:cy="100.85714"
       sodipodi:rx="43.57143"
       sodipodi:ry="43.57143"
       d="M 147.5 100.85714 A 43.57143 43.57143 0 1 1  60.357143,100.85714 A 43.57143 43.57143 0 1 1  147.5 100.85714 z"
       transform="matrix(1.204918,0,0,1.204918,-61.225409,-57.524583)" />
    <path
       style="fill:#373b41;fill-opacity:1;fill-rule:nonzero;stroke:none;stroke-width:15.39999962;stroke-linejoin:miter;stroke-miterlimit:4;stroke-opacity:1"
       d="M 93.45348,97.002383 L 30.997617,34.54652 C 24.004457,42.378207 19.723211,52.682319 19.723211,64 C 19.723211,88.446613 39.553388,108.27679 64,108.27679 C 75.317681,108.27679 85.621793,103.99555 93.45348,97.002383 z "
       id="path4973" />
    <path
       style="fill:#22ad93;fill-opacity:1;fill-rule:nonzero;stroke:none;stroke-width:15.39999962;stroke-linejoin:miter;stroke-miterlimit:4;stroke-opacity:1"
       d="M 105.91085,49.804388 C 101.49878,36.791588 91.208412,26.501217 78.195612,22.089146 L 105.91085,49.804388 z "
       id="path4999" />
    <path
       style="fill:#22ad93;fill-opacity:1;fill-rule:nonzero;stroke:none;stroke-width:15.39999962;stroke-linejoin:miter;stroke-miterlimit:4;stroke-opacity:1"
       d="M 69.021577,20.012917 C 67.368543,19.825601 65.702981,19.723211 64,19.723211 C 63.587667,19.723211 63.201583,19.806823 62.79289,19.81978 L 108.18022,65.20711 C 108.19282,64.798429 108.27679,64.412198 108.27679,64 C 108.27679,62.297019 108.1744,60.631458 107.98708,58.978423 L 69.021577,20.012917 z "
       id="path4997" />
    <path
       style="fill:#22ad93;fill-opacity:1;fill-rule:nonzero;stroke:none;stroke-width:15.39999962;stroke-linejoin:miter;stroke-miterlimit:4;stroke-opacity:1"
       d="M 56.395208,20.544046 C 54.739673,20.861541 53.085187,21.191604 51.494342,21.678729 L 106.34541,76.505658 C 106.82968,74.923137 107.16777,73.276891 107.4801,71.628934 L 56.395208,20.544046 z "
       id="path4992" />
    <path
       style="fill:#22ad93;fill-opacity:1;fill-rule:nonzero;stroke:none;stroke-width:15.39999962;stroke-linejoin:miter;stroke-miterlimit:4;stroke-opacity:1"
       d="M 46.327912,23.585963 C 44.948257,24.203107 43.577939,24.845978 42.272023,25.589765 L 102.41024,85.727977 C 103.15402,84.422061 103.79689,83.051743 104.41404,81.672088 L 46.327912,23.585963 z "
       id="path4987" />
    <path
       style="fill:#22ad93;fill-opacity:1;fill-rule:nonzero;stroke:none;stroke-width:15.39999962;stroke-linejoin:miter;stroke-miterlimit:4;stroke-opacity:1"
       d="M 37.998854,28.414402 C 36.839492,29.265059 35.617192,30.04158 34.54652,30.997617 L 97.002383,93.45348 C 97.958422,92.382811 98.734943,91.160509 99.585598,90.001146 L 37.998854,28.414402 z "
       id="path4982" />
  </g>
</svg>
