<?xml version="1.0" encoding="UTF-8" standalone="no"?>
<!-- Created with Inkscape (http://www.inkscape.org/) -->
<svg
   xmlns:dc="http://purl.org/dc/elements/1.1/"
   xmlns:cc="http://web.resource.org/cc/"
   xmlns:rdf="http://www.w3.org/1999/02/22-rdf-syntax-ns#"
   xmlns:svg="http://www.w3.org/2000/svg"
   xmlns="http://www.w3.org/2000/svg"
   xmlns:sodipodi="http://sodipodi.sourceforge.net/DTD/sodipodi-0.dtd"
   xmlns:inkscape="http://www.inkscape.org/namespaces/inkscape"
   width="128"
   height="128"
   id="svg2"
   sodipodi:version="0.32"
   inkscape:version="0.45.1"
   version="1.0"
   sodipodi:docbase="/home/christof/themes_and_icons/meinICONtheme/BRIT ICONS/scalable/mimetypes"
   sodipodi:docname="gnome-mime-application-x-archive.svg"
   inkscape:output_extension="org.inkscape.output.svg.inkscape">
  <defs
     id="defs4" />
  <sodipodi:namedview
     id="base"
     pagecolor="#f0f0f0"
     bordercolor="#373b41"
     borderopacity="1"
     inkscape:pageopacity="0.0"
     inkscape:pageshadow="2"
     inkscape:zoom="2.8"
     inkscape:cx="89.062583"
     inkscape:cy="72.021503"
     inkscape:document-units="px"
     inkscape:current-layer="layer1"
     width="128px"
     height="128px"
     showgrid="true"
     inkscape:window-width="1680"
     inkscape:window-height="1003"
     inkscape:window-x="0"
     inkscape:window-y="47" />
  <metadata
     id="metadata7">
    <rdf:RDF>
      <cc:Work
         rdf:about="">
        <dc:format>image/svg+xml</dc:format>
        <dc:type
           rdf:resource="http://purl.org/dc/dcmitype/StillImage" />
      </cc:Work>
    </rdf:RDF>
  </metadata>
  <g
     inkscape:label="Ebene 1"
     inkscape:groupmode="layer"
     id="layer1">
    <path
       sodipodi:type="arc"
       style="opacity:1;fill:#f0f0f0;fill-opacity:1;fill-rule:nonzero;stroke:none;stroke-width:18;stroke-linejoin:miter;stroke-miterlimit:4;stroke-dasharray:none;stroke-opacity:1"
       id="path10360"
       sodipodi:cx="103.92857"
       sodipodi:cy="100.85714"
       sodipodi:rx="43.57143"
       sodipodi:ry="43.57143"
       d="M 147.5 100.85714 A 43.57143 43.57143 0 1 1  60.357143,100.85714 A 43.57143 43.57143 0 1 1  147.5 100.85714 z"
       transform="matrix(1.204918,0,0,1.204918,-61.225409,-57.524583)" />
    <g
       id="g10338"
       transform="matrix(0.7725503,0,0,0.7725503,14.556781,14.556781)">
      <path
         id="path4973"
         d="M 102.125,106.71875 L 21.28125,25.875 C 12.229205,36.012446 6.6875001,49.350234 6.6875,64 C 6.6875,95.64404 32.355961,121.3125 64,121.3125 C 78.649766,121.3125 91.987554,115.7708 102.125,106.71875 z "
         style="fill:#373b41;fill-opacity:1;fill-rule:nonzero;stroke:none;stroke-width:15.39999962;stroke-linejoin:miter;stroke-miterlimit:4;stroke-opacity:1" />
      <path
         id="path4999"
         d="M 118.25,45.625 C 112.53895,28.781048 99.218952,15.461046 82.375,9.75 L 118.25,45.625 z "
         style="fill:#22ad93;fill-opacity:1;fill-rule:nonzero;stroke:none;stroke-width:15.39999962;stroke-linejoin:miter;stroke-miterlimit:4;stroke-opacity:1" />
      <path
         id="path4997"
         d="M 70.5,7.0625 C 68.360289,6.8200349 66.204363,6.6875 64,6.6875 C 63.46627,6.6875 62.966518,6.7957289 62.4375,6.8125 L 121.1875,65.5625 C 121.20381,65.033497 121.3125,64.533555 121.3125,64 C 121.3125,61.795637 121.17997,59.639711 120.9375,57.5 L 70.5,7.0625 z "
         style="fill:#b294bb;fill-opacity:1;fill-rule:nonzero;stroke:none;stroke-width:15.39999962;stroke-linejoin:miter;stroke-miterlimit:4;stroke-opacity:1" />
      <path
         id="path4992"
         d="M 54.15625,7.75 C 52.013302,8.1609698 49.871712,8.5882082 47.8125,9.21875 L 118.8125,80.1875 C 119.43934,78.139062 119.87697,76.008138 120.28125,73.875 L 54.15625,7.75 z "
         style="fill:#22ad93;fill-opacity:1;fill-rule:nonzero;stroke:none;stroke-width:15.39999962;stroke-linejoin:miter;stroke-miterlimit:4;stroke-opacity:1" />
      <path
         id="path4987"
         d="M 41.125,11.6875 C 39.339155,12.486341 37.565396,13.318482 35.875,14.28125 L 113.71875,92.125 C 114.68152,90.434604 115.51366,88.660845 116.3125,86.875 L 41.125,11.6875 z "
         style="fill:#b294bb;fill-opacity:1;fill-rule:nonzero;stroke:none;stroke-width:15.39999962;stroke-linejoin:miter;stroke-miterlimit:4;stroke-opacity:1" />
      <path
         id="path4982"
         d="M 30.34375,17.9375 C 28.843055,19.038603 27.260893,20.043742 25.875,21.28125 L 106.71875,102.125 C 107.95626,100.73911 108.9614,99.156945 110.0625,97.65625 L 30.34375,17.9375 z "
         style="fill:#22ad93;fill-opacity:1;fill-rule:nonzero;stroke:none;stroke-width:15.39999962;stroke-linejoin:miter;stroke-miterlimit:4;stroke-opacity:1" />
    </g>
  </g>
</svg>
