<?xml version="1.0" encoding="UTF-8" standalone="no"?>
<!-- Created with Inkscape (http://www.inkscape.org/) -->
<svg
   xmlns:dc="http://purl.org/dc/elements/1.1/"
   xmlns:cc="http://web.resource.org/cc/"
   xmlns:rdf="http://www.w3.org/1999/02/22-rdf-syntax-ns#"
   xmlns:svg="http://www.w3.org/2000/svg"
   xmlns="http://www.w3.org/2000/svg"
   xmlns:xlink="http://www.w3.org/1999/xlink"
   xmlns:sodipodi="http://sodipodi.sourceforge.net/DTD/sodipodi-0.dtd"
   xmlns:inkscape="http://www.inkscape.org/namespaces/inkscape"
   width="128"
   height="128"
   id="svg2"
   sodipodi:version="0.32"
   inkscape:version="0.45.1"
   version="1.0"
   sodipodi:docbase="/home/christof/themes_and_icons/meinICONtheme/BRIT ICONS/scalable/mimetypes"
   sodipodi:docname="font-x-generic.svg"
   inkscape:output_extension="org.inkscape.output.svg.inkscape">
  <defs
     id="defs4">
    <linearGradient
       inkscape:collect="always"
       id="linearGradient4132">
      <stop
         style="stop-color:#f0f0f0;stop-opacity:1;"
         offset="0"
         id="stop4134" />
      <stop
         style="stop-color:#f0f0f0;stop-opacity:0;"
         offset="1"
         id="stop4136" />
    </linearGradient>
    <linearGradient
       inkscape:collect="always"
       id="linearGradient3155">
      <stop
         style="stop-color:#373b41;stop-opacity:1;"
         offset="0"
         id="stop3157" />
      <stop
         style="stop-color:#373b41;stop-opacity:0;"
         offset="1"
         id="stop3159" />
    </linearGradient>
    <linearGradient
       inkscape:collect="always"
       id="linearGradient6067">
      <stop
         style="stop-color:#f0f0f0;stop-opacity:1;"
         offset="0"
         id="stop6069" />
      <stop
         style="stop-color:#f0f0f0;stop-opacity:0;"
         offset="1"
         id="stop6071" />
    </linearGradient>
    <linearGradient
       inkscape:collect="always"
       id="linearGradient3142">
      <stop
         style="stop-color:#373b41;stop-opacity:1;"
         offset="0"
         id="stop3144" />
      <stop
         style="stop-color:#373b41;stop-opacity:0;"
         offset="1"
         id="stop3146" />
    </linearGradient>
    <linearGradient
       inkscape:collect="always"
       xlink:href="#linearGradient3142"
       id="linearGradient3148"
       x1="92.804863"
       y1="75.855133"
       x2="92.804863"
       y2="110.71667"
       gradientUnits="userSpaceOnUse"
       gradientTransform="matrix(1.6258627,0,0,1.6258627,-28.787153,-52.145846)" />
    <linearGradient
       inkscape:collect="always"
       xlink:href="#linearGradient6067"
       id="linearGradient6073"
       x1="29.731594"
       y1="96.211563"
       x2="29.731594"
       y2="119.78299"
       gradientUnits="userSpaceOnUse" />
    <linearGradient
       inkscape:collect="always"
       xlink:href="#linearGradient3155"
       id="linearGradient3161"
       x1="100.75668"
       y1="85.389313"
       x2="100.75668"
       y2="124.82345"
       gradientUnits="userSpaceOnUse" />
    <linearGradient
       inkscape:collect="always"
       xlink:href="#linearGradient4132"
       id="linearGradient4138"
       x1="96.899597"
       y1="-101.65641"
       x2="96.899597"
       y2="-115.67227"
       gradientUnits="userSpaceOnUse"
       gradientTransform="translate(-2.2728432,0)" />
  </defs>
  <sodipodi:namedview
     id="base"
     pagecolor="#f0f0f0"
     bordercolor="#666666"
     borderopacity="1.0"
     inkscape:pageopacity="0.0"
     inkscape:pageshadow="2"
     inkscape:zoom="3.959798"
     inkscape:cx="93.415539"
     inkscape:cy="29.537614"
     inkscape:document-units="px"
     inkscape:current-layer="layer1"
     showgrid="true"
     width="128px"
     height="128px"
     showguides="true"
     inkscape:guide-bbox="true"
     inkscape:window-width="1680"
     inkscape:window-height="1003"
     inkscape:window-x="0"
     inkscape:window-y="47" />
  <metadata
     id="metadata7">
    <rdf:RDF>
      <cc:Work
         rdf:about="">
        <dc:format>image/svg+xml</dc:format>
        <dc:type
           rdf:resource="http://purl.org/dc/dcmitype/StillImage" />
      </cc:Work>
    </rdf:RDF>
  </metadata>
  <g
     inkscape:label="Livello 1"
     inkscape:groupmode="layer"
     id="layer1">
    <rect
       style="fill:#f0f0f0;fill-opacity:1;fill-rule:nonzero;stroke:none;stroke-width:5;stroke-linejoin:miter;stroke-miterlimit:4;stroke-dasharray:none;stroke-opacity:1"
       id="rect4444"
       width="124.09085"
       height="94.701797"
       x="1.9885532"
       y="15.752538"
       rx="14.980937"
       ry="13.992537" />
    <path
       transform="matrix(6.2666539,0,0,6.2666539,164.31174,-223.80203)"
       style="fill:#373b41;fill-opacity:1"
       d="M -20.46875,48.124096 C -20.54297,48.342847 -20.599611,48.5323 -20.638672,48.692455 C -20.677736,48.852612 -20.697267,48.9698 -20.697266,49.044018 C -20.697267,49.145581 -20.671876,49.2198 -20.621094,49.266674 C -20.566408,49.313549 -20.460939,49.346753 -20.304688,49.366283 C -20.281252,49.37019 -20.248049,49.376049 -20.205078,49.383862 C -19.869143,49.434643 -19.701174,49.518627 -19.701172,49.635815 C -19.701174,49.68269 -19.722658,49.719799 -19.765625,49.747143 C -19.80469,49.774486 -19.863283,49.788158 -19.941406,49.788158 C -19.964846,49.788158 -20.123049,49.774486 -20.416016,49.747143 C -20.708986,49.719799 -20.990235,49.706127 -21.259766,49.706127 C -21.427735,49.706127 -21.621094,49.715893 -21.839844,49.735424 C -22.058594,49.754955 -22.193359,49.764721 -22.244141,49.764721 C -22.33789,49.764721 -22.408203,49.751049 -22.455078,49.723705 C -22.505859,49.696362 -22.531249,49.657299 -22.53125,49.606518 C -22.531249,49.555737 -22.511718,49.518627 -22.472656,49.49519 C -22.433593,49.467846 -22.349609,49.450268 -22.220703,49.442455 C -22.216797,49.442456 -22.21289,49.442456 -22.208984,49.442455 C -22.013672,49.422924 -21.871094,49.387768 -21.78125,49.336987 C -21.613282,49.239331 -21.433594,48.944409 -21.242188,48.452221 L -21.236328,48.446362 L -18.851562,42.258862 C -18.843753,42.239338 -18.835941,42.219807 -18.828125,42.200268 C -18.765628,42.044025 -18.689456,41.965901 -18.599609,41.965893 C -18.494144,41.965901 -18.398441,42.085041 -18.3125,42.323315 C -18.281254,42.413166 -18.255863,42.481525 -18.236328,42.528393 L -15.96875,48.241283 C -15.824225,48.608472 -15.701178,48.862378 -15.599609,49.003002 C -15.498053,49.139721 -15.37696,49.24519 -15.236328,49.319408 C -15.185554,49.346753 -15.130866,49.37019 -15.072266,49.389721 C -15.013679,49.409252 -14.951179,49.426831 -14.884766,49.442455 C -14.884773,49.442456 -14.880866,49.444409 -14.873047,49.448315 C -14.740242,49.487377 -14.673835,49.532299 -14.673828,49.58308 C -14.673835,49.637768 -14.69532,49.678783 -14.738281,49.706127 C -14.777351,49.729565 -14.839851,49.741283 -14.925781,49.741283 C -15.019538,49.741283 -15.214851,49.731518 -15.511719,49.711987 C -15.804694,49.692455 -16.05274,49.68269 -16.255859,49.68269 C -16.591802,49.68269 -16.931646,49.692455 -17.275391,49.711987 C -17.615239,49.731518 -17.787114,49.741283 -17.791016,49.741283 C -17.888676,49.741283 -17.957035,49.731518 -17.996094,49.711987 C -18.03516,49.688549 -18.054691,49.649487 -18.054688,49.594799 C -18.054691,49.493237 -17.917973,49.43269 -17.644531,49.413158 C -17.613286,49.409252 -17.591801,49.407299 -17.580078,49.407299 C -17.396489,49.391674 -17.277348,49.364331 -17.222656,49.325268 C -17.164067,49.286206 -17.13477,49.217846 -17.134766,49.12019 C -17.13477,49.05769 -17.146489,48.981519 -17.169922,48.891674 C -17.193364,48.801831 -17.22852,48.696363 -17.275391,48.575268 L -17.867188,47.040112 C -17.882817,47.004958 -17.904301,46.981521 -17.931641,46.969799 C -17.958988,46.954177 -18.007816,46.946364 -18.078125,46.946362 L -19.941406,46.946362 C -19.976564,46.946364 -20.009768,46.95613 -20.041016,46.975658 C -20.072268,46.995192 -20.095705,47.022536 -20.111328,47.05769 L -20.46875,48.124096 M -19.847656,46.295971 C -19.847658,46.303787 -19.849611,46.315506 -19.853516,46.331127 C -19.86133,46.366287 -19.86719,46.395584 -19.871094,46.419018 C -19.871096,46.442459 -19.863283,46.460037 -19.847656,46.471752 C -19.832033,46.483474 -19.806643,46.489334 -19.771484,46.48933 L -18.259766,46.48933 C -18.224613,46.489334 -18.197269,46.479568 -18.177734,46.460033 C -18.154301,46.440505 -18.142582,46.415115 -18.142578,46.383862 C -18.142582,46.36824 -18.146488,46.344802 -18.154297,46.313549 C -18.158207,46.297927 -18.162113,46.284256 -18.166016,46.272533 L -18.96875,44.186596 C -18.980472,44.151445 -18.994144,44.126055 -19.009766,44.110424 C -19.025394,44.090898 -19.042972,44.07918 -19.0625,44.075268 C -19.078128,44.07918 -19.093753,44.090898 -19.109375,44.110424 C -19.125003,44.126055 -19.138675,44.147539 -19.150391,44.174877 L -19.847656,46.295971 M -11.679688,48.135815 L -11.679688,47.186596 C -11.683597,47.139723 -11.69141,47.104567 -11.703125,47.081127 C -11.714847,47.057692 -11.732425,47.04402 -11.755859,47.040112 C -11.771488,47.040114 -11.794925,47.045974 -11.826172,47.05769 C -11.853519,47.065505 -11.880863,47.07527 -11.908203,47.086987 L -12.412109,47.280346 C -12.697268,47.393629 -12.916018,47.549879 -13.068359,47.749096 C -13.216799,47.94441 -13.291017,48.172926 -13.291016,48.434643 C -13.291017,48.680738 -13.244142,48.868237 -13.150391,48.997143 C -13.052736,49.12605 -12.912112,49.190503 -12.728516,49.190502 C -12.455081,49.190503 -12.212893,49.086987 -12.001953,48.879955 C -11.787113,48.669019 -11.679691,48.420972 -11.679688,48.135815 M -10.472656,48.399487 C -10.472661,48.692456 -10.443364,48.897534 -10.384766,49.014721 C -10.326177,49.131909 -10.230474,49.190503 -10.097656,49.190502 C -10.019536,49.190503 -9.9160208,49.147534 -9.7871094,49.061596 C -9.6582085,48.971753 -9.5664118,48.926831 -9.5117188,48.92683 C -9.4570369,48.926831 -9.4160213,48.942456 -9.3886719,48.973705 C -9.3574276,49.004956 -9.3418026,49.047925 -9.3417969,49.102612 C -9.3418026,49.243237 -9.4921931,49.420971 -9.7929688,49.635815 C -10.093755,49.850658 -10.375005,49.95808 -10.636719,49.95808 C -10.855473,49.95808 -11.052738,49.885814 -11.228516,49.741283 C -11.404301,49.596752 -11.546879,49.389721 -11.65625,49.12019 L -11.744141,49.12019 L -12.066406,49.331127 C -12.437503,49.581127 -12.728518,49.747143 -12.939453,49.829174 C -13.150393,49.915111 -13.359377,49.95808 -13.566406,49.95808 C -13.890626,49.95808 -14.148438,49.872143 -14.339844,49.700268 C -14.527344,49.524487 -14.621094,49.290112 -14.621094,48.997143 C -14.621094,48.559644 -14.451173,48.182691 -14.111328,47.866283 C -13.771486,47.549879 -13.150393,47.213942 -12.248047,46.858471 L -11.861328,46.706127 C -11.794925,46.678786 -11.750003,46.64949 -11.726562,46.618237 C -11.703128,46.583083 -11.69141,46.516677 -11.691406,46.419018 L -11.691406,45.563549 C -11.69141,45.188554 -11.736331,44.934648 -11.826172,44.80183 C -11.912113,44.669023 -12.068362,44.602617 -12.294922,44.602612 C -12.513674,44.602617 -12.701174,44.659257 -12.857422,44.772533 C -13.013674,44.885819 -13.17383,45.094804 -13.337891,45.399487 C -13.505861,45.704178 -13.662111,45.903397 -13.806641,45.997143 C -13.951173,46.08699 -14.134767,46.131912 -14.357422,46.131908 C -14.439454,46.131912 -14.507813,46.110428 -14.5625,46.067455 C -14.617188,46.02449 -14.644532,45.973709 -14.644531,45.915112 C -14.644532,45.501053 -14.373048,45.118241 -13.830078,44.766674 C -13.287111,44.411211 -12.650393,44.233476 -11.919922,44.233471 C -11.369144,44.233476 -10.990238,44.327226 -10.783203,44.514721 C -10.576176,44.69832 -10.472661,45.063554 -10.472656,45.610424 L -10.472656,48.399487"
       id="flowRoot4401" />
    <path
       style="fill:none;fill-rule:evenodd;stroke:#373b41;stroke-width:5.00000048;stroke-linecap:butt;stroke-linejoin:miter;stroke-miterlimit:4;stroke-dasharray:none;stroke-opacity:1"
       d="M 16.550195,105.05934 L 16.550195,30.844446"
       id="path4423" />
    <path
       style="fill:none;fill-rule:evenodd;stroke:#373b41;stroke-width:5;stroke-linecap:butt;stroke-linejoin:miter;stroke-miterlimit:4;stroke-dasharray:none;stroke-opacity:1"
       d="M 7.8431947,95.547265 L 112.90316,95.547265"
       id="path4425" />
    <path
       style="fill:#373b41;fill-opacity:1;fill-rule:nonzero;stroke:none;stroke-width:5;stroke-linejoin:miter;stroke-miterlimit:4;stroke-opacity:1"
       d="M 112.0502,106.04726 L 122.65681,95.440657 L 112.0502,84.834057 L 112.0502,106.04726 z "
       id="rect4429"
       sodipodi:nodetypes="cccc" />
    <path
       style="fill:#373b41;fill-opacity:1;fill-rule:nonzero;stroke:none;stroke-width:5;stroke-linejoin:miter;stroke-miterlimit:4;stroke-opacity:1"
       d="M 27.263403,31.047265 L 16.656795,20.440655 L 6.0501952,31.047265 L 27.263403,31.047265 z "
       id="path4432"
       sodipodi:nodetypes="cccc" />
  </g>
</svg>
