<?xml version="1.0" encoding="UTF-8" standalone="no"?>
<!-- Created with Inkscape (http://www.inkscape.org/) -->
<svg
   xmlns:dc="http://purl.org/dc/elements/1.1/"
   xmlns:cc="http://web.resource.org/cc/"
   xmlns:rdf="http://www.w3.org/1999/02/22-rdf-syntax-ns#"
   xmlns:svg="http://www.w3.org/2000/svg"
   xmlns="http://www.w3.org/2000/svg"
   xmlns:xlink="http://www.w3.org/1999/xlink"
   xmlns:sodipodi="http://sodipodi.sourceforge.net/DTD/sodipodi-0.dtd"
   xmlns:inkscape="http://www.inkscape.org/namespaces/inkscape"
   width="128"
   height="128"
   id="svg2"
   sodipodi:version="0.32"
   inkscape:version="0.45.1"
   version="1.0"
   sodipodi:docbase="/home/christof/themes_and_icons/meinICONtheme/BRIT ICONS/scalable/mimetypes"
   sodipodi:docname="gnome-mime-application-x-killustrator.svg"
   inkscape:output_extension="org.inkscape.output.svg.inkscape">
  <defs
     id="defs4">
    <linearGradient
       inkscape:collect="always"
       id="linearGradient4132">
      <stop
         style="stop-color:#f0f0f0;stop-opacity:1;"
         offset="0"
         id="stop4134" />
      <stop
         style="stop-color:#f0f0f0;stop-opacity:0;"
         offset="1"
         id="stop4136" />
    </linearGradient>
    <linearGradient
       inkscape:collect="always"
       id="linearGradient3155">
      <stop
         style="stop-color:#373b41;stop-opacity:1;"
         offset="0"
         id="stop3157" />
      <stop
         style="stop-color:#373b41;stop-opacity:0;"
         offset="1"
         id="stop3159" />
    </linearGradient>
    <linearGradient
       inkscape:collect="always"
       id="linearGradient6067">
      <stop
         style="stop-color:#f0f0f0;stop-opacity:1;"
         offset="0"
         id="stop6069" />
      <stop
         style="stop-color:#f0f0f0;stop-opacity:0;"
         offset="1"
         id="stop6071" />
    </linearGradient>
    <linearGradient
       inkscape:collect="always"
       id="linearGradient3142">
      <stop
         style="stop-color:#373b41;stop-opacity:1;"
         offset="0"
         id="stop3144" />
      <stop
         style="stop-color:#373b41;stop-opacity:0;"
         offset="1"
         id="stop3146" />
    </linearGradient>
    <linearGradient
       inkscape:collect="always"
       xlink:href="#linearGradient3142"
       id="linearGradient3148"
       x1="92.804863"
       y1="75.855133"
       x2="92.804863"
       y2="110.71667"
       gradientUnits="userSpaceOnUse"
       gradientTransform="matrix(1.6258627,0,0,1.6258627,-28.787153,-52.145846)" />
    <linearGradient
       inkscape:collect="always"
       xlink:href="#linearGradient6067"
       id="linearGradient6073"
       x1="29.731594"
       y1="96.211563"
       x2="29.731594"
       y2="119.78299"
       gradientUnits="userSpaceOnUse" />
    <linearGradient
       inkscape:collect="always"
       xlink:href="#linearGradient3155"
       id="linearGradient3161"
       x1="100.75668"
       y1="85.389313"
       x2="100.75668"
       y2="124.82345"
       gradientUnits="userSpaceOnUse"
       gradientTransform="translate(0,0.3571429)" />
    <linearGradient
       inkscape:collect="always"
       xlink:href="#linearGradient4132"
       id="linearGradient4138"
       x1="96.899597"
       y1="-101.65641"
       x2="96.899597"
       y2="-115.67227"
       gradientUnits="userSpaceOnUse"
       gradientTransform="translate(-12.857143,0)" />
  </defs>
  <sodipodi:namedview
     id="base"
     pagecolor="#f0f0f0"
     bordercolor="#666666"
     borderopacity="1.0"
     inkscape:pageopacity="0.0"
     inkscape:pageshadow="2"
     inkscape:zoom="2.8"
     inkscape:cx="107.69006"
     inkscape:cy="46.839954"
     inkscape:document-units="px"
     inkscape:current-layer="layer1"
     showgrid="true"
     width="128px"
     height="128px"
     showguides="true"
     inkscape:guide-bbox="true"
     inkscape:window-width="1680"
     inkscape:window-height="1003"
     inkscape:window-x="0"
     inkscape:window-y="47" />
  <metadata
     id="metadata7">
    <rdf:RDF>
      <cc:Work
         rdf:about="">
        <dc:format>image/svg+xml</dc:format>
        <dc:type
           rdf:resource="http://purl.org/dc/dcmitype/StillImage" />
      </cc:Work>
    </rdf:RDF>
  </metadata>
  <g
     inkscape:label="Livello 1"
     inkscape:groupmode="layer"
     id="layer1">
    <path
       style="fill:#f0f0f0;fill-opacity:1;stroke:none;stroke-width:0.2;stroke-linecap:round;stroke-linejoin:round;stroke-miterlimit:4;stroke-dashoffset:0;stroke-opacity:1"
       d="M 29.60816,13.050445 L 76.88939,13.029759 L 103.95139,39.997784 L 103.85343,109.41071 C 103.85343,112.49069 101.37387,114.97024 98.29389,114.97024 L 29.60816,114.97024 C 26.52817,114.97024 24.04861,112.49069 24.04861,109.41071 L 24.04861,18.60999 C 24.04861,15.530004 26.52817,13.050445 29.60816,13.050445 z "
       id="path3275"
       sodipodi:nodetypes="ccccccccc" />
    <g
       id="g6456"
       transform="translate(-2.0166215,7.230244)">
      <path
         sodipodi:nodetypes="ccccccccc"
         id="rect2162"
         d="M 36.110672,12.46579 L 77.22478,12.447802 L 100.75696,35.898259 L 100.67178,96.257326 C 100.67178,98.935577 98.515638,101.09171 95.837388,101.09171 L 36.110672,101.09171 C 33.432419,101.09171 31.276283,98.935577 31.276283,96.257326 L 31.276283,17.300177 C 31.276283,14.621928 33.432419,12.46579 36.110672,12.46579 z "
         style="fill:#373b41;fill-opacity:1;stroke:none;stroke-width:0.2;stroke-linecap:round;stroke-linejoin:round;stroke-miterlimit:4;stroke-dashoffset:0;stroke-opacity:1" />
      <text
         id="text8053"
         y="96.053925"
         x="61.325932"
         style="font-size:12px;font-style:normal;font-weight:normal;fill:#f0f0f0;fill-opacity:1;stroke:none;stroke-width:1px;stroke-linecap:butt;stroke-linejoin:miter;stroke-opacity:1;font-family:Bitstream Vera Sans"
         xml:space="preserve"><tspan
           y="96.053925"
           x="61.325932"
           id="tspan8055"
           sodipodi:role="line">IMAGE</tspan></text>
      <path
         sodipodi:nodetypes="ccccsscccccccccccccsccccccccccssssssc"
         id="path1373"
         d="M 46.449172,47.09607 C 45.720497,47.123584 45.141742,47.719543 45.141742,48.455186 L 45.141742,49.938965 L 44.7708,49.938965 C 44.747259,49.938965 44.724262,49.938374 44.700866,49.938965 C 44.689353,49.939252 44.678899,49.938532 44.667421,49.938965 C 43.209831,49.993758 42.052566,51.188768 42.052566,52.660237 L 42.052566,75.278726 C 42.052566,76.785321 43.264205,78 44.7708,78 L 88.037516,78 C 89.544111,78 90.75575,76.785321 90.755748,75.278726 L 90.755748,52.660237 C 90.755748,51.153642 89.54411,49.938965 88.037516,49.938965 L 55.655891,49.938965 L 55.655891,48.455186 C 55.655891,47.701889 55.050071,47.09607 54.296775,47.09607 L 46.503901,47.09607 C 46.486244,47.09607 46.46666,47.09541 46.449172,47.09607 z M 80.545654,51.830173 C 80.550678,51.829734 80.555799,51.830491 80.560857,51.830173 C 80.574017,51.829342 80.587008,51.830173 80.600383,51.830173 L 87.399005,51.830173 C 87.741413,51.830173 88.019274,52.104992 88.019274,52.447399 L 88.019274,55.84063 C 88.019274,56.183035 87.741413,56.460897 87.399005,56.460897 L 80.600383,56.460897 C 80.257977,56.460897 79.983156,56.183038 79.983156,55.84063 L 79.983156,52.447399 C 79.983156,52.123509 80.229186,51.85781 80.545654,51.830173 z M 66.148753,54.080163 C 66.1697,54.079634 66.191625,54.080561 66.212604,54.080163 C 66.233666,54.079764 66.255361,54.080431 66.276455,54.080163 C 66.318975,54.079625 66.361511,54.080163 66.404158,54.080163 C 71.862906,54.080163 76.291956,58.512253 76.291956,63.971001 C 76.291956,69.42975 71.862904,73.858799 66.404158,73.858799 C 60.945412,73.858799 56.51636,69.42975 56.51636,63.971001 C 56.51636,58.597132 60.8072,54.21503 66.148753,54.080163 z "
         style="fill:#f0f0f0;fill-opacity:1;fill-rule:nonzero;stroke:none;stroke-width:1;stroke-linecap:butt;stroke-linejoin:miter;stroke-miterlimit:4;stroke-dasharray:none;stroke-dashoffset:0;stroke-opacity:1" />
      <path
         sodipodi:type="arc"
         style="fill:#f0f0f0;fill-opacity:1;fill-rule:nonzero;stroke:none;stroke-width:1;stroke-linecap:butt;stroke-linejoin:miter;stroke-miterlimit:4;stroke-dasharray:none;stroke-dashoffset:0;stroke-opacity:1"
         id="path3061"
         sodipodi:cx="-102.90819"
         sodipodi:cy="243.93053"
         sodipodi:rx="101.63772"
         sodipodi:ry="101.63772"
         d="M -1.2704697 243.93053 A 101.63772 101.63772 0 1 1  -204.54591,243.93053 A 101.63772 101.63772 0 1 1  -1.2704697 243.93053 z"
         transform="matrix(6.2634975e-2,0,0,6.2634975e-2,72.849807,48.691008)" />
    </g>
  </g>
</svg>
