<?xml version="1.0" encoding="UTF-8" standalone="no"?>
<!-- Created with Inkscape (http://www.inkscape.org/) -->
<svg
   xmlns:dc="http://purl.org/dc/elements/1.1/"
   xmlns:cc="http://web.resource.org/cc/"
   xmlns:rdf="http://www.w3.org/1999/02/22-rdf-syntax-ns#"
   xmlns:svg="http://www.w3.org/2000/svg"
   xmlns="http://www.w3.org/2000/svg"
   xmlns:xlink="http://www.w3.org/1999/xlink"
   xmlns:sodipodi="http://sodipodi.sourceforge.net/DTD/sodipodi-0.dtd"
   xmlns:inkscape="http://www.inkscape.org/namespaces/inkscape"
   width="128"
   height="128"
   id="svg2"
   sodipodi:version="0.32"
   inkscape:version="0.45.1"
   version="1.0"
   sodipodi:docbase="/home/christof/themes_and_icons/meinICONtheme/BRIT ICONS/scalable/mimetypes"
   sodipodi:docname="x-office-spreadsheet.svg"
   inkscape:output_extension="org.inkscape.output.svg.inkscape">
  <defs
     id="defs4">
    <linearGradient
       inkscape:collect="always"
       id="linearGradient4132">
      <stop
         style="stop-color:#f0f0f0;stop-opacity:1;"
         offset="0"
         id="stop4134" />
      <stop
         style="stop-color:#f0f0f0;stop-opacity:0;"
         offset="1"
         id="stop4136" />
    </linearGradient>
    <linearGradient
       inkscape:collect="always"
       id="linearGradient3155">
      <stop
         style="stop-color:#373b41;stop-opacity:1;"
         offset="0"
         id="stop3157" />
      <stop
         style="stop-color:#373b41;stop-opacity:0;"
         offset="1"
         id="stop3159" />
    </linearGradient>
    <linearGradient
       inkscape:collect="always"
       id="linearGradient6067">
      <stop
         style="stop-color:#f0f0f0;stop-opacity:1;"
         offset="0"
         id="stop6069" />
      <stop
         style="stop-color:#f0f0f0;stop-opacity:0;"
         offset="1"
         id="stop6071" />
    </linearGradient>
    <linearGradient
       inkscape:collect="always"
       id="linearGradient3142">
      <stop
         style="stop-color:#373b41;stop-opacity:1;"
         offset="0"
         id="stop3144" />
      <stop
         style="stop-color:#373b41;stop-opacity:0;"
         offset="1"
         id="stop3146" />
    </linearGradient>
    <linearGradient
       inkscape:collect="always"
       xlink:href="#linearGradient3142"
       id="linearGradient3148"
       x1="92.804863"
       y1="75.855133"
       x2="92.804863"
       y2="110.71667"
       gradientUnits="userSpaceOnUse"
       gradientTransform="matrix(1.6258627,0,0,1.6258627,-28.787153,-52.145846)" />
    <linearGradient
       inkscape:collect="always"
       xlink:href="#linearGradient6067"
       id="linearGradient6073"
       x1="29.731594"
       y1="96.211563"
       x2="29.731594"
       y2="119.78299"
       gradientUnits="userSpaceOnUse" />
    <linearGradient
       inkscape:collect="always"
       xlink:href="#linearGradient3155"
       id="linearGradient3161"
       x1="100.75668"
       y1="85.389313"
       x2="100.75668"
       y2="124.82345"
       gradientUnits="userSpaceOnUse" />
    <linearGradient
       inkscape:collect="always"
       xlink:href="#linearGradient4132"
       id="linearGradient4138"
       x1="96.899597"
       y1="-101.65641"
       x2="96.899597"
       y2="-115.67227"
       gradientUnits="userSpaceOnUse"
       gradientTransform="translate(-2.2728432,0)" />
  </defs>
  <sodipodi:namedview
     id="base"
     pagecolor="#f0f0f0"
     bordercolor="#666666"
     borderopacity="1.0"
     inkscape:pageopacity="0.0"
     inkscape:pageshadow="2"
     inkscape:zoom="5.6"
     inkscape:cx="104.21081"
     inkscape:cy="33.468859"
     inkscape:document-units="px"
     inkscape:current-layer="layer1"
     showgrid="true"
     width="128px"
     height="128px"
     showguides="true"
     inkscape:guide-bbox="true"
     inkscape:window-width="1680"
     inkscape:window-height="1003"
     inkscape:window-x="0"
     inkscape:window-y="47" />
  <metadata
     id="metadata7">
    <rdf:RDF>
      <cc:Work
         rdf:about="">
        <dc:format>image/svg+xml</dc:format>
        <dc:type
           rdf:resource="http://purl.org/dc/dcmitype/StillImage" />
      </cc:Work>
    </rdf:RDF>
  </metadata>
  <g
     inkscape:label="Livello 1"
     inkscape:groupmode="layer"
     id="layer1">
    <path
       style="fill:#f0f0f0;fill-opacity:1;stroke:none;stroke-width:0.2;stroke-linecap:round;stroke-linejoin:round;stroke-miterlimit:4;stroke-dashoffset:0;stroke-opacity:1"
       d="M 29.608158,13.050443 L 76.889382,13.029757 L 103.95139,39.997783 L 103.85343,109.41071 C 103.85343,112.49069 101.37387,114.97024 98.293882,114.97024 L 29.608158,114.97024 C 26.528167,114.97024 24.04861,112.49069 24.04861,109.41071 L 24.04861,18.609988 C 24.04861,15.530002 26.528167,13.050443 29.608158,13.050443 z "
       id="path3275"
       sodipodi:nodetypes="ccccccccc" />
    <path
       style="fill:#373b41;fill-opacity:1;stroke:none;stroke-width:0.2;stroke-linecap:round;stroke-linejoin:round;stroke-miterlimit:4;stroke-dashoffset:0;stroke-opacity:1"
       d="M 34.094051,19.696034 L 75.208158,19.678046 L 98.740339,43.128503 L 98.655158,103.48757 C 98.655158,106.16582 96.499016,108.32195 93.820767,108.32195 L 34.094051,108.32195 C 31.415798,108.32195 29.259661,106.16582 29.259661,103.48757 L 29.259661,24.530421 C 29.259661,21.852172 31.415798,19.696034 34.094051,19.696034 z "
       id="rect2162"
       sodipodi:nodetypes="ccccccccc" />
    <text
       xml:space="preserve"
       style="font-size:12px;font-style:normal;font-weight:normal;fill:#f0f0f0;fill-opacity:1;stroke:none;stroke-width:1px;stroke-linecap:butt;stroke-linejoin:miter;stroke-opacity:1;font-family:Bitstream Vera Sans"
       x="63.355865"
       y="103.28417"
       id="text8053"><tspan
         sodipodi:role="line"
         id="tspan8055"
         x="63.355865"
         y="103.28417">CALC</tspan></text>
    <path
       transform="matrix(3.9528541,0,0,3.9528541,-91.914882,-151.96399)"
       style="fill:#f0f0f0;fill-opacity:1;font-family:Caslon540 BT"
       d="M 37.541016,51.772652 L 36.509766,51.772652 L 36.603516,51.426949 L 37.646484,51.426949 C 37.904295,50.407423 38.253904,49.630081 38.695312,49.094918 C 39.140622,48.559769 39.654294,48.292191 40.236328,48.292183 C 40.544918,48.292191 40.787105,48.348832 40.962891,48.462105 C 41.142573,48.571488 41.232417,48.721878 41.232422,48.913277 C 41.232417,49.030472 41.195308,49.126175 41.121094,49.200387 C 41.04687,49.274612 40.95312,49.311721 40.839844,49.311715 C 40.753902,49.311721 40.681636,49.296096 40.623047,49.26484 C 40.564449,49.22969 40.498043,49.159378 40.423828,49.053902 L 40.400391,49.024605 C 40.228512,48.782425 40.035153,48.661331 39.820312,48.661324 C 39.542966,48.661331 39.300778,48.839066 39.09375,49.194527 C 38.890622,49.550002 38.636716,50.294142 38.332031,51.426949 L 39.410156,51.426949 L 39.316406,51.772652 L 38.232422,51.772652 L 37.599609,54.186715 C 37.197265,55.725778 36.763671,56.866401 36.298828,57.60859 C 35.830079,58.350775 35.316407,58.721868 34.757812,58.721871 C 34.484377,58.721868 34.26758,58.661321 34.107422,58.54023 C 33.947268,58.42304 33.86719,58.266791 33.867188,58.07148 C 33.86719,57.958197 33.89844,57.870307 33.960938,57.807808 C 34.019534,57.745307 34.099612,57.714057 34.201172,57.714058 C 34.283205,57.714057 34.351565,57.731635 34.40625,57.766793 C 34.457033,57.801947 34.521486,57.887885 34.599609,58.024605 C 34.67383,58.153509 34.748049,58.2414 34.822266,58.288277 C 34.896486,58.33515 34.990236,58.358587 35.103516,58.35859 C 35.361329,58.358587 35.587891,58.180853 35.783203,57.825387 C 35.978516,57.469916 36.220703,56.757027 36.509766,55.686715 L 37.541016,51.772652"
       id="flowRoot3909" />
    <path
       transform="matrix(1.9922444,0,0,1.9922444,-39.720477,-9.4234615)"
       style="font-style:italic;fill:#f0f0f0;fill-opacity:1;font-family:CaslonOldFace BT"
       d="M 54.619141,34.737496 C 53.923824,35.02266 53.318356,35.477737 52.802734,36.10273 C 52.287107,36.727736 51.833982,37.557813 51.443359,38.592965 C 51.212889,39.206249 51.035155,39.837108 50.910156,40.485543 C 50.785155,41.133982 50.722655,41.751169 50.722656,42.337105 C 50.722655,42.809761 50.777343,43.264839 50.886719,43.70234 C 50.996093,44.143744 51.166014,44.575384 51.396484,44.997262 L 51.167969,44.997262 C 50.847655,44.411322 50.609374,43.84101 50.453125,43.286324 C 50.296874,42.735543 50.21875,42.182809 50.21875,41.628121 C 50.21875,40.878123 50.316406,40.130076 50.511719,39.38398 C 50.710937,38.633984 50.992186,37.938672 51.355469,37.298043 C 51.749998,36.614455 52.212888,36.048049 52.744141,35.598824 C 53.279293,35.145706 53.904293,34.790238 54.619141,34.532418 L 54.619141,34.737496 M 54.625,41.745308 C 54.410156,41.995309 54.222656,42.184762 54.0625,42.313668 C 53.90625,42.438668 53.78125,42.501168 53.6875,42.501168 C 53.597656,42.501168 53.53125,42.469918 53.488281,42.407418 C 53.445313,42.341012 53.423828,42.245309 53.423828,42.120308 C 53.423828,41.776559 53.462891,41.4582 53.541016,41.16523 C 53.619141,40.872263 53.695313,40.725779 53.769531,40.725777 C 53.796875,40.725779 53.816406,40.743357 53.828125,40.778512 C 53.84375,40.809763 53.851562,40.852732 53.851562,40.907418 C 53.851562,40.966013 53.849609,41.032419 53.845703,41.106637 C 53.841797,41.17695 53.835937,41.251169 53.828125,41.329293 L 53.804688,41.698433 L 53.804688,41.745308 C 53.804687,41.815622 53.8125,41.868356 53.828125,41.903512 C 53.847656,41.934762 53.876953,41.950387 53.916016,41.950387 C 53.955078,41.950387 54.019531,41.911325 54.109375,41.833199 C 54.203125,41.755075 54.318359,41.637887 54.455078,41.481637 L 55.556641,40.210152 C 55.595701,40.167186 55.624998,40.122264 55.644531,40.075387 C 55.667967,40.024608 55.679686,39.981639 55.679688,39.94648 C 55.679686,39.860545 55.583983,39.581249 55.392578,39.10859 L 55.339844,38.985543 C 55.26953,38.817578 55.20703,38.692578 55.152344,38.610543 C 55.097655,38.524609 55.052733,38.481641 55.017578,38.481637 C 54.970702,38.481641 54.921874,38.520703 54.871094,38.598824 C 54.824218,38.673047 54.746093,38.848828 54.636719,39.126168 C 54.624999,39.153515 54.61328,39.186718 54.601562,39.225777 C 54.546874,39.378124 54.490234,39.454296 54.431641,39.454293 C 54.40039,39.454296 54.376952,39.446483 54.361328,39.430855 C 54.345703,39.411327 54.335937,39.383983 54.332031,39.348824 C 54.332031,39.251171 54.419921,38.991406 54.595703,38.569527 L 54.636719,38.481637 C 54.73828,38.251172 54.835936,38.083203 54.929688,37.97773 C 55.023436,37.86836 55.121092,37.813672 55.222656,37.813668 C 55.316405,37.813672 55.400389,37.864454 55.474609,37.966012 C 55.552733,38.063672 55.664061,38.288281 55.808594,38.63984 C 55.867185,38.772656 55.931638,38.936718 56.001953,39.132027 C 56.07617,39.346874 56.136716,39.454296 56.183594,39.454293 C 56.19531,39.454296 56.212888,39.448436 56.236328,39.436715 C 56.259763,39.421093 56.281247,39.403515 56.300781,39.38398 L 57.525391,38.26484 C 57.693355,38.1125 57.830074,37.999219 57.935547,37.924996 C 58.041011,37.850782 58.121089,37.813672 58.175781,37.813668 C 58.246089,37.813672 58.294917,37.850782 58.322266,37.924996 C 58.353511,37.999219 58.369136,38.153516 58.369141,38.387887 C 58.369136,38.73164 58.355464,38.985546 58.328125,39.149605 C 58.300777,39.313671 58.261714,39.395702 58.210938,39.395699 C 58.171871,39.395702 58.142574,39.372265 58.123047,39.325387 C 58.107418,39.274608 58.099605,39.176952 58.099609,39.032418 L 58.099609,38.616402 C 58.099605,38.495312 58.087886,38.413281 58.064453,38.370308 C 58.044918,38.327344 58.009761,38.305859 57.958984,38.305855 C 57.919918,38.305859 57.87109,38.327344 57.8125,38.370308 C 57.753902,38.409375 57.673824,38.479687 57.572266,38.581246 L 56.746094,39.38398 C 56.714841,39.415233 56.669919,39.458202 56.611328,39.512887 C 56.412107,39.708202 56.312497,39.84492 56.3125,39.923043 C 56.312497,39.96992 56.349607,40.112498 56.423828,40.350777 C 56.50195,40.585154 56.597653,40.835154 56.710938,41.100777 C 56.832028,41.393747 56.914059,41.577341 56.957031,41.651558 C 57.003903,41.721872 57.044919,41.757028 57.080078,41.757027 C 57.134762,41.757028 57.18359,41.735544 57.226562,41.692574 C 57.273434,41.649606 57.330075,41.571481 57.396484,41.458199 C 57.447262,41.372263 57.511715,41.258982 57.589844,41.118355 C 57.726559,40.872263 57.818355,40.749216 57.865234,40.749215 C 57.876949,40.749216 57.888668,40.755076 57.900391,40.766793 C 57.916011,40.778513 57.923824,40.790232 57.923828,40.801949 C 57.923824,40.864451 57.890621,40.981638 57.824219,41.153512 C 57.761715,41.325388 57.669918,41.534372 57.548828,41.780465 C 57.400387,42.081246 57.285153,42.276559 57.203125,42.366402 C 57.12109,42.456246 57.0332,42.501168 56.939453,42.501168 C 56.806638,42.501168 56.677731,42.399605 56.552734,42.19648 C 56.427732,41.993356 56.244138,41.567575 56.001953,40.919137 L 55.867188,40.579293 C 55.847654,40.524607 55.832029,40.487498 55.820312,40.467965 C 55.808592,40.448435 55.796873,40.43867 55.785156,40.438668 C 55.769529,40.43867 55.746092,40.450389 55.714844,40.473824 C 55.687498,40.497264 55.656248,40.528513 55.621094,40.567574 L 54.625,41.745308 M 57.402344,44.780465 C 58.101563,44.495306 58.708985,44.042182 59.224609,43.42109 C 59.740234,42.799996 60.191405,41.973825 60.578125,40.942574 C 60.812498,40.333201 60.990232,39.702342 61.111328,39.049996 C 61.236326,38.397656 61.298826,37.776563 61.298828,37.186715 C 61.298826,36.710158 61.244138,36.253127 61.134766,35.815621 C 61.025389,35.378128 60.85742,34.946488 60.630859,34.520699 L 60.859375,34.520699 C 61.175779,35.106644 61.412107,35.678909 61.568359,36.237496 C 61.724607,36.796095 61.802732,37.352735 61.802734,37.907418 C 61.802732,38.653515 61.705075,39.399608 61.509766,40.145699 C 61.314451,40.887888 61.033201,41.581247 60.666016,42.225777 C 60.271483,42.90937 59.80664,43.477729 59.271484,43.930855 C 58.736328,44.387885 58.113282,44.743353 57.402344,44.997262 L 57.402344,44.780465"
       id="flowRoot3917" />
  </g>
</svg>
