<?xml version="1.0" encoding="UTF-8" standalone="no"?>
<!-- Created with Inkscape (http://www.inkscape.org/) -->
<svg
   xmlns:dc="http://purl.org/dc/elements/1.1/"
   xmlns:cc="http://web.resource.org/cc/"
   xmlns:rdf="http://www.w3.org/1999/02/22-rdf-syntax-ns#"
   xmlns:svg="http://www.w3.org/2000/svg"
   xmlns="http://www.w3.org/2000/svg"
   xmlns:sodipodi="http://sodipodi.sourceforge.net/DTD/sodipodi-0.dtd"
   xmlns:inkscape="http://www.inkscape.org/namespaces/inkscape"
   width="128"
   height="128"
   id="svg2"
   sodipodi:version="0.32"
   inkscape:version="0.45.1"
   version="1.0"
   sodipodi:docbase="/home/christof/themes_and_icons/meinICONtheme/BRIT ICONS/scalable/categories"
   sodipodi:docname="applications-graphics.svg"
   inkscape:output_extension="org.inkscape.output.svg.inkscape">
  <defs
     id="defs4" />
  <sodipodi:namedview
     id="base"
     pagecolor="#f0f0f0"
     bordercolor="#373b41"
     borderopacity="1"
     inkscape:pageopacity="0.0"
     inkscape:pageshadow="2"
     inkscape:zoom="3.959798"
     inkscape:cx="98.223257"
     inkscape:cy="68.641433"
     inkscape:document-units="px"
     inkscape:current-layer="layer1"
     width="128px"
     height="128px"
     showgrid="false"
     inkscape:window-width="1680"
     inkscape:window-height="1003"
     inkscape:window-x="0"
     inkscape:window-y="47" />
  <metadata
     id="metadata7">
    <rdf:RDF>
      <cc:Work
         rdf:about="">
        <dc:format>image/svg+xml</dc:format>
        <dc:type
           rdf:resource="http://purl.org/dc/dcmitype/StillImage" />
      </cc:Work>
    </rdf:RDF>
  </metadata>
  <g
     inkscape:label="Ebene 1"
     inkscape:groupmode="layer"
     id="layer1">
    <path
       style="fill:#f0f0f0;fill-rule:evenodd;stroke:none;stroke-width:1px;stroke-linecap:butt;stroke-linejoin:miter;stroke-opacity:1;fill-opacity:1"
       d="M 29.925769,58.804551 C 30.557114,59.057089 40.279832,63.855314 40.279832,63.855314 L 34.723994,68.653538 L 56.82108,93.402276 L 63.260803,87.593898 L 67.301413,94.412428 L 75.76144,87.593898 L 94.196724,66.254426 L 90.029845,62.845161 L 94.449262,59.057089 L 67.175144,33.2982 L 64.270955,41.884496 L 59.977807,33.171931 L 29.925769,58.804551 z "
       id="path3267"
       sodipodi:nodetypes="cccccccccccccc" />
    <path
       style="fill:#f0f0f0;fill-opacity:1"
       d="M 24.678879,64.396755 C 16.817711,61.604612 11.187064,56.981029 6.9747561,49.859057 C 3.819267,44.523925 3.1148979,41.660652 3.1148979,34.168806 C 3.1148979,26.399433 3.7605389,23.966667 7.3568083,18.185317 C 9.9860594,13.958529 14.207116,9.7632141 18.459831,7.1499969 C 24.298086,3.5624903 26.711909,2.9339677 34.651286,2.9339677 C 42.590647,2.9339677 45.004484,3.5624903 50.842739,7.1499969 C 61.221112,13.52732 65.796159,21.837937 66.36073,35.338609 C 66.661376,42.52786 66.438535,44.726945 65.691794,41.93993 C 62.834205,31.274797 56.214957,25.930033 45.864223,25.930033 C 34.172395,25.930033 26.241582,33.808277 26.241582,45.422606 C 26.241582,55.156384 30.444359,60.976065 39.894062,64.327527 L 45.163415,66.196369 L 37.454519,66.196369 C 33.214627,66.196369 27.465586,65.386545 24.678879,64.396755 z "
       id="path2284" />
    <path
       style="fill:#f0f0f0;fill-opacity:1"
       d="M 87.619442,64.349154 C 97.124801,60.777135 101.12178,55.126535 101.11317,45.27275 C 101.10325,33.957635 93.134895,26.262227 81.438806,26.27232 C 71.499019,26.280915 64.904807,31.683114 62.111949,42.105548 C 61.37361,44.860909 61.153275,42.686799 61.450539,35.579199 C 62.008759,22.231855 66.532334,14.015625 76.793945,7.7107285 C 82.566515,4.1639667 84.953195,3.5425812 92.803235,3.5425812 C 100.65328,3.5425812 103.03996,4.1639667 108.81255,7.7107285 C 113.01741,10.294267 117.19097,14.441934 119.79064,18.620719 C 123.35955,24.357484 123.98483,26.729339 123.98483,34.530674 C 123.98483,42.332011 123.35955,44.703879 119.79064,50.440631 C 113.6394,60.328317 105.22309,65.04692 92.483146,65.750624 C 82.500629,66.301996 82.456574,66.289306 87.619442,64.349154 z "
       id="path3257" />
    <path
       style="fill:#f0f0f0;fill-opacity:1"
       d="M 25.221904,122.51352 C 17.35762,119.60373 11.864798,115.08696 7.7344413,108.13349 C 4.6175694,102.88625 3.9218202,100.07014 3.9218202,92.701703 C 3.9218202,85.060321 4.5595611,82.667617 8.1118188,76.981496 C 14.449746,66.836321 22.709017,62.364089 36.12628,61.812185 C 43.271126,61.518314 45.456615,61.736149 42.686828,62.466109 C 32.087574,65.259481 26.775841,71.730003 26.775841,81.848159 C 26.775841,105.56579 59.577849,108.71415 65.674447,85.581673 C 66.513047,82.399741 66.714347,84.130612 66.393663,91.766063 C 66.020814,100.64387 65.288943,103.42452 61.895554,108.85638 C 54.315845,120.98924 37.762689,127.15356 25.221904,122.51352 z "
       id="path3259" />
    <path
       style="fill:#f0f0f0;fill-opacity:1"
       d="M 83.100376,124.14055 C 68.651844,118.78181 61.596265,108.61511 60.911782,92.16799 C 60.584901,84.313563 60.79219,82.584467 61.66341,85.898053 C 64.333675,96.054152 72.000679,102.28143 81.834558,102.28143 C 93.268544,102.28143 101.8463,93.601803 101.8463,82.032051 C 101.8463,71.554808 96.359205,64.854652 85.409993,61.962147 C 82.548758,61.206282 84.806402,60.980716 92.187159,61.285016 C 106.04739,61.856505 114.57935,66.487454 121.12654,76.992675 C 124.80961,82.902291 125.45486,85.34561 125.45486,93.382033 C 125.45486,101.41841 124.80961,103.86177 121.12654,109.77137 C 113.15047,122.56928 96.167207,128.98684 83.100376,124.14055 z "
       id="path3261" />
    <path
       style="fill:#22ad93;fill-opacity:1;fill-rule:evenodd;stroke:none;stroke-width:1px;stroke-linecap:butt;stroke-linejoin:miter;stroke-opacity:1"
       d="M 87.196981,67.108467 L 67.137056,67.108467 L 67.137056,90.382742 L 68.803756,90.531554 L 72.881219,97.674554 L 91.066106,100.05555 L 102.28657,81.007555 L 90.560143,67.912055 L 87.167218,67.73348 L 87.196981,67.108467 z "
       id="path4426" />
    <path
       style="fill:#22ad93;fill-opacity:1;fill-rule:evenodd;stroke:none;stroke-width:1px;stroke-linecap:butt;stroke-linejoin:miter;stroke-opacity:1"
       d="M 84.802927,21.314688 L 68.506296,36.572372 L 67.823559,40.817214 L 67.200191,40.698477 L 67.200191,60.646266 L 87.474506,60.646266 L 87.50419,60.31974 L 106.68019,49.633424 L 84.802927,21.314688 z "
       id="path4408" />
    <path
       style="fill:#22ad93;fill-opacity:1;fill-rule:evenodd;stroke:none;stroke-width:1px;stroke-linecap:butt;stroke-linejoin:miter;stroke-opacity:1"
       d="M 60.616365,67.235652 L 38.620037,67.235652 L 38.32399,68.538261 L 28.317585,75.6434 L 30.360312,96.455539 L 49.307351,99.83048 L 60.14269,90.031308 L 60.616365,90.060913 L 60.616365,67.235652 z "
       id="path4438" />
    <path
       style="fill:#22ad93;fill-opacity:1;fill-rule:evenodd;stroke:none;stroke-width:1px;stroke-linecap:butt;stroke-linejoin:miter;stroke-opacity:1"
       d="M 52.735669,22.997444 L 23.535519,36.424166 L 33.397625,58.82184 L 39.84364,59.000071 L 39.457473,60.663558 L 60.696646,60.663558 L 60.696646,39.959077 L 59.864902,39.810552 L 52.735669,22.997444 z "
       id="path4406" />
    <path
       style="fill:#373b41;fill-opacity:1"
       d="M 29.217562,113.97982 C 23.224946,111.73934 19.039396,108.26152 15.892048,102.9075 C 13.516979,98.867228 12.986816,96.698881 12.986816,91.025333 C 12.986816,85.141623 13.472777,83.299289 16.179611,78.921092 C 21.009136,71.109512 27.302733,67.665983 37.526738,67.241029 C 42.971139,67.014754 44.636489,67.182483 42.525901,67.744537 C 34.449229,69.895377 30.401668,74.877548 30.401668,82.668324 C 30.401668,100.93042 55.396924,103.35459 60.042557,85.543054 C 60.681572,83.093031 60.834964,84.425766 60.590602,90.304909 C 60.306489,97.140641 59.748801,99.281694 57.163024,103.46411 C 51.387257,112.80616 38.773688,117.55257 29.217562,113.97982 z "
       id="path4446" />
    <path
       style="fill:#373b41;fill-opacity:1"
       d="M 83.730198,114.10171 C 73.015453,110.09576 67.783176,102.49562 67.275578,90.200525 C 67.033169,84.328931 67.186891,83.036334 67.83297,85.513422 C 69.813185,93.10564 75.498884,97.760857 82.791492,97.760857 C 91.270709,97.760857 97.631808,91.272375 97.631808,82.623374 C 97.631808,74.791084 93.562683,69.782364 85.442964,67.620064 C 83.321129,67.055015 84.995353,66.886392 90.468776,67.113873 C 100.74725,67.541091 107.07439,71.00297 111.92965,78.856174 C 114.66094,83.273929 115.13945,85.100442 115.13945,91.108086 C 115.13945,97.115711 114.66094,98.942243 111.92965,103.35999 C 106.01476,112.9271 93.4203,117.72456 83.730198,114.10171 z "
       id="path4444" />
    <path
       style="fill:#373b41;fill-opacity:1"
       d="M 29.191371,59.436623 C 23.254374,57.314973 19.001935,53.801677 15.82067,48.389943 C 13.437547,44.335966 12.905586,42.160267 12.905586,36.467479 C 12.905586,30.563809 13.393194,28.715237 16.109208,24.322194 C 18.0949,21.110408 21.282772,17.922538 24.494555,15.936847 C 28.903785,13.210828 30.726779,12.733236 36.722842,12.733236 C 42.718893,12.733236 44.541898,13.210828 48.951128,15.936847 C 56.789197,20.782748 60.244414,27.09769 60.670796,37.356371 C 60.897853,42.819227 60.729556,44.490234 60.165594,42.372481 C 58.007455,34.268425 53.008393,30.207129 45.191199,30.207129 C 36.361169,30.207129 30.371573,36.193527 30.371573,45.018842 C 30.371573,52.415194 33.545641,56.837362 40.682349,59.384019 L 44.661927,60.804086 L 38.839931,60.804086 C 35.637833,60.804086 31.295979,60.188729 29.191371,59.436623 z "
       id="path4442" />
    <path
       style="fill:#373b41;fill-opacity:1"
       d="M 87.319122,59.452321 C 94.574437,56.708825 97.62527,52.36887 97.618688,44.800651 C 97.611126,36.110054 91.528992,30.199581 82.601528,30.207332 C 75.014625,30.213934 69.981353,34.363103 67.849603,42.368075 C 67.286039,44.484336 67.11786,42.814506 67.344758,37.355499 C 67.770839,27.104045 71.223622,20.793553 79.056169,15.951065 C 83.462292,13.226967 85.284012,12.749711 91.27584,12.749711 C 97.267674,12.749711 99.089391,13.226967 103.49553,15.951065 C 106.70504,17.935357 109.89066,21.120981 111.87496,24.330505 C 114.59906,28.736639 115.07632,30.558347 115.07632,36.550178 C 115.07632,42.54201 114.59906,44.363728 111.87496,48.769852 C 107.1798,56.364109 100.75575,59.988242 91.03152,60.528723 C 83.412003,60.952205 83.378376,60.942459 87.319122,59.452321 z "
       id="path4391" />
  </g>
</svg>
