<?xml version="1.0" encoding="UTF-8" standalone="no"?>
<!-- Created with Inkscape (http://www.inkscape.org/) -->
<svg
   xmlns:dc="http://purl.org/dc/elements/1.1/"
   xmlns:cc="http://web.resource.org/cc/"
   xmlns:rdf="http://www.w3.org/1999/02/22-rdf-syntax-ns#"
   xmlns:svg="http://www.w3.org/2000/svg"
   xmlns="http://www.w3.org/2000/svg"
   xmlns:sodipodi="http://sodipodi.sourceforge.net/DTD/sodipodi-0.dtd"
   xmlns:inkscape="http://www.inkscape.org/namespaces/inkscape"
   width="128"
   height="128"
   id="svg2"
   sodipodi:version="0.32"
   inkscape:version="0.45.1"
   version="1.0"
   sodipodi:docbase="/home/christof/themes_and_icons/meinICONtheme/BRIT ICONS/scalable/categories"
   sodipodi:docname="gnome-globe.svg"
   inkscape:output_extension="org.inkscape.output.svg.inkscape">
  <defs
     id="defs4" />
  <sodipodi:namedview
     id="base"
     pagecolor="#f0f0f0"
     bordercolor="#373b41"
     borderopacity="1"
     inkscape:pageopacity="0.0"
     inkscape:pageshadow="2"
     inkscape:zoom="2.8"
     inkscape:cx="111.92366"
     inkscape:cy="27.041367"
     inkscape:document-units="px"
     inkscape:current-layer="layer1"
     width="128px"
     height="128px"
     showgrid="false"
     inkscape:window-width="1680"
     inkscape:window-height="1003"
     inkscape:window-x="0"
     inkscape:window-y="47"
     showguides="true"
     inkscape:guide-bbox="true" />
  <metadata
     id="metadata7">
    <rdf:RDF>
      <cc:Work
         rdf:about="">
        <dc:format>image/svg+xml</dc:format>
        <dc:type
           rdf:resource="http://purl.org/dc/dcmitype/StillImage" />
      </cc:Work>
    </rdf:RDF>
  </metadata>
  <g
     inkscape:label="Ebene 1"
     inkscape:groupmode="layer"
     id="layer1">
    <path
       sodipodi:type="arc"
       style="opacity:1;fill:#f0f0f0;fill-opacity:1;fill-rule:nonzero;stroke:none;stroke-width:10;stroke-linejoin:miter;stroke-miterlimit:4;stroke-dasharray:none;stroke-opacity:1"
       id="path3462"
       sodipodi:cx="72.321426"
       sodipodi:cy="62.642857"
       sodipodi:rx="43.57143"
       sodipodi:ry="43.57143"
       d="M 115.89286 62.642857 A 43.57143 43.57143 0 1 1  28.749996,62.642857 A 43.57143 43.57143 0 1 1  115.89286 62.642857 z"
       transform="matrix(1.4016393,0,0,1.4016393,-37.368556,-23.802691)" />
    <path
       style="fill:#373b41;fill-opacity:1;fill-rule:nonzero;stroke:none;stroke-width:16.36715317;stroke-linejoin:miter;stroke-miterlimit:4;stroke-opacity:1"
       d="M 12.78125 64 C 12.78125 92.178724 35.821282 115.21874 64 115.21875 C 92.178724 115.21875 115.21875 92.178726 115.21875 64 C 115.21875 35.821278 92.178721 12.78125 64 12.78125 L 64 29.34375 C 83.217641 29.34375 98.625 44.782363 98.625 64 C 98.624998 83.217639 83.217639 98.625 64 98.625 C 44.782363 98.625002 29.34375 83.217641 29.34375 64 L 12.78125 64 z "
       id="path4614" />
    <path
       sodipodi:type="arc"
       style="opacity:1;fill:#22ad93;fill-opacity:1;fill-rule:nonzero;stroke:none;stroke-width:7.80000019;stroke-linejoin:miter;stroke-miterlimit:4;stroke-dasharray:none;stroke-opacity:1"
       id="path4646"
       sodipodi:cx="82.946426"
       sodipodi:cy="82.196426"
       sodipodi:rx="19.910715"
       sodipodi:ry="19.910715"
       d="M 102.85714 82.196426 A 19.910715 19.910715 0 1 1  63.035711,82.196426 A 19.910715 19.910715 0 1 1  102.85714 82.196426 z"
       transform="matrix(1.3228699,0,0,1.3228699,-45.727331,-44.735178)" />
    <path
       style="fill:#373b41;fill-opacity:1;fill-rule:nonzero;stroke:none;stroke-width:9.40373898;stroke-linejoin:miter;stroke-miterlimit:4;stroke-opacity:1"
       d="M 64 50.53125 C 56.616287 50.531251 50.562499 56.616283 50.5625 64 C 50.562501 71.15856 56.26721 77.020437 63.34375 77.375 L 63.34375 69.53125 C 60.5123 69.196877 58.34375 66.929808 58.34375 64 C 58.343752 60.836573 60.836574 58.34375 64 58.34375 C 67.163428 58.343747 69.65625 60.836573 69.65625 64 L 77.46875 64 C 77.468747 56.616282 71.383717 50.531249 64 50.53125 z "
       id="path4623" />
  </g>
</svg>
