<?xml version="1.0" encoding="UTF-8" standalone="no"?>
<!-- Created with Inkscape (http://www.inkscape.org/) -->
<svg
   xmlns:dc="http://purl.org/dc/elements/1.1/"
   xmlns:cc="http://web.resource.org/cc/"
   xmlns:rdf="http://www.w3.org/1999/02/22-rdf-syntax-ns#"
   xmlns:svg="http://www.w3.org/2000/svg"
   xmlns="http://www.w3.org/2000/svg"
   xmlns:sodipodi="http://sodipodi.sourceforge.net/DTD/sodipodi-0.dtd"
   xmlns:inkscape="http://www.inkscape.org/namespaces/inkscape"
   width="128"
   height="128"
   id="svg2"
   sodipodi:version="0.32"
   inkscape:version="0.45.1"
   version="1.0"
   sodipodi:docbase="/home/christof/themes_and_icons/meinICONtheme/BRIT ICONS/scalable/categories"
   sodipodi:docname="applications-other.svg"
   inkscape:output_extension="org.inkscape.output.svg.inkscape">
  <defs
     id="defs4" />
  <sodipodi:namedview
     id="base"
     pagecolor="#f0f0f0"
     bordercolor="#373b41"
     borderopacity="1"
     inkscape:pageopacity="0.0"
     inkscape:pageshadow="2"
     inkscape:zoom="5.6"
     inkscape:cx="77.617545"
     inkscape:cy="54.235111"
     inkscape:document-units="px"
     inkscape:current-layer="layer1"
     width="128px"
     height="128px"
     showgrid="false"
     inkscape:window-width="1680"
     inkscape:window-height="1003"
     inkscape:window-x="0"
     inkscape:window-y="47"
     showguides="true"
     inkscape:guide-bbox="true" />
  <metadata
     id="metadata7">
    <rdf:RDF>
      <cc:Work
         rdf:about="">
        <dc:format>image/svg+xml</dc:format>
        <dc:type
           rdf:resource="http://purl.org/dc/dcmitype/StillImage" />
      </cc:Work>
    </rdf:RDF>
  </metadata>
  <g
     inkscape:label="Ebene 1"
     inkscape:groupmode="layer"
     id="layer1">
    <path
       sodipodi:type="arc"
       style="fill:#f0f0f0;fill-opacity:1;fill-rule:nonzero;stroke:none;stroke-width:10;stroke-linejoin:miter;stroke-miterlimit:4;stroke-dasharray:none;stroke-opacity:1"
       id="path3626"
       sodipodi:cx="43.815365"
       sodipodi:cy="51.102139"
       sodipodi:rx="24.36993"
       sodipodi:ry="24.36993"
       d="M 68.185295 51.102139 A 24.36993 24.36993 0 1 1  19.445435,51.102139 A 24.36993 24.36993 0 1 1  68.185295 51.102139 z"
       transform="matrix(1.3292636,0,0,1.3292636,-18.56984,-28.373647)" />
    <path
       sodipodi:type="arc"
       style="fill:#f0f0f0;fill-opacity:1;fill-rule:nonzero;stroke:none;stroke-width:10;stroke-linejoin:miter;stroke-miterlimit:4;stroke-dasharray:none;stroke-opacity:1"
       id="path3628"
       sodipodi:cx="43.815365"
       sodipodi:cy="51.102139"
       sodipodi:rx="24.36993"
       sodipodi:ry="24.36993"
       d="M 68.185295 51.102139 A 24.36993 24.36993 0 1 1  19.445435,51.102139 A 24.36993 24.36993 0 1 1  68.185295 51.102139 z"
       transform="matrix(1.3292636,0,0,1.3292636,29.996065,-28.373651)" />
    <path
       sodipodi:type="arc"
       style="fill:#f0f0f0;fill-opacity:1;fill-rule:nonzero;stroke:none;stroke-width:10;stroke-linejoin:miter;stroke-miterlimit:4;stroke-dasharray:none;stroke-opacity:1"
       id="path3630"
       sodipodi:cx="43.815365"
       sodipodi:cy="51.102139"
       sodipodi:rx="24.36993"
       sodipodi:ry="24.36993"
       d="M 68.185295 51.102139 A 24.36993 24.36993 0 1 1  19.445435,51.102139 A 24.36993 24.36993 0 1 1  68.185295 51.102139 z"
       transform="matrix(1.3292636,0,0,1.3292636,-17.625508,19.69255)" />
    <path
       sodipodi:type="arc"
       style="fill:#f0f0f0;fill-opacity:1;fill-rule:nonzero;stroke:none;stroke-width:10;stroke-linejoin:miter;stroke-miterlimit:4;stroke-dasharray:none;stroke-opacity:1"
       id="path3632"
       sodipodi:cx="43.815365"
       sodipodi:cy="51.102139"
       sodipodi:rx="24.36993"
       sodipodi:ry="24.36993"
       d="M 68.185295 51.102139 A 24.36993 24.36993 0 1 1  19.445435,51.102139 A 24.36993 24.36993 0 1 1  68.185295 51.102139 z"
       transform="matrix(1.3292636,0,0,1.3292636,29.965841,19.849043)" />
    <path
       sodipodi:type="arc"
       style="opacity:1;fill:#f0f0f0;fill-opacity:1;fill-rule:nonzero;stroke:none;stroke-width:10;stroke-linejoin:miter;stroke-miterlimit:4;stroke-dasharray:none;stroke-opacity:1"
       id="path3644"
       sodipodi:cx="66.25"
       sodipodi:cy="67.01786"
       sodipodi:rx="17.5"
       sodipodi:ry="14.732142"
       d="M 83.75 67.01786 A 17.5 14.732142 0 1 1  48.75,67.01786 A 17.5 14.732142 0 1 1  83.75 67.01786 z" />
    <path
       style="fill:#373b41;fill-opacity:1"
       d="M 36.71585,110.7646 C 31.29857,109.47341 28.01482,107.54493 23.79718,103.17773 C 18.87297,98.078913 16.74833,92.676163 16.78454,85.345313 C 16.81985,78.195903 18.7692,73.211603 23.63744,67.823033 L 27.23107,63.845313 L 23.63744,59.867593 C 18.7692,54.479023 16.81985,49.494723 16.78454,42.345313 C 16.71219,27.699059 27.82897,16.549119 42.42515,16.628219 C 49.6469,16.667359 54.6198,18.605079 60.020626,23.484399 L 63.99835,27.078029 L 67.976074,23.484399 C 73.36464,18.616149 78.348941,16.666809 85.498351,16.631499 C 100.1446,16.559149 111.29454,27.675929 111.21544,42.272113 C 111.1763,49.493863 109.23858,54.466763 104.35926,59.867593 L 100.76563,63.845313 L 104.35926,67.823033 C 109.23858,73.223863 111.1763,78.196763 111.21544,85.418513 C 111.25603,92.909203 108.71749,98.937753 103.37145,104.04648 C 98.124536,109.06048 92.784756,111.16557 85.498351,111.09256 C 78.334515,111.02077 73.351164,109.06229 67.976074,104.20622 L 63.99835,100.61258 L 60.020626,104.20622 C 53.471651,110.12282 44.55326,112.63262 36.71585,110.7646 z M 46.21729,101.8013 C 54.022994,99.633453 58.99835,93.142583 58.99835,85.127103 C 58.99835,73.414473 46.06644,65.397453 35.3648,70.475713 C 26.74966,74.563863 23.05004,84.189203 26.97639,92.299953 C 29.89442,98.327793 34.01744,101.19251 41.99835,102.73737 C 42.27335,102.7906 44.17187,102.36937 46.21729,101.8013 z M 95.127206,99.305693 C 100.1657,96.072793 103.42222,89.157583 102.573,83.494573 C 101.81137,78.415663 97.519506,72.795033 92.631906,70.475713 C 81.930264,65.397453 68.99835,73.414473 68.99835,85.127103 C 68.99835,98.958893 83.447716,106.7997 95.127206,99.305693 z M 67.29835,67.345313 L 70.79835,63.845313 L 67.39835,60.445313 L 63.99835,57.045313 L 60.591239,60.452423 L 57.184128,63.859533 L 60.341239,67.225183 C 62.07765,69.076293 63.56585,70.648093 63.64835,70.718073 C 63.73085,70.788053 65.37335,69.270313 67.29835,67.345313 z M 51.761788,56.188583 C 61.514188,48.964293 61.56239,35.760463 51.862586,28.577299 C 48.96573,26.432039 41.58086,25.231309 37.53265,26.247339 C 36.11105,26.604139 33.16253,28.509069 30.98038,30.480509 C 22.11748,38.487613 23.65606,50.246433 34.45573,57.041273 C 38.48868,59.578683 47.80499,59.119663 51.761788,56.188583 z M 92.899566,57.396393 C 97.125996,55.210823 101.81583,49.335153 102.57841,45.270233 C 103.57652,39.949843 101.55863,34.584213 97.016326,30.480509 C 92.391146,26.301939 89.584448,25.406429 83.324603,26.111999 C 69.482125,27.672249 63.902859,44.964273 74.153849,54.535243 C 75.443888,55.739713 77.624145,57.173683 78.998863,57.721863 C 82.718849,59.205223 89.718615,59.041333 92.899566,57.396393 z "
       id="path4878" />
    <path
       sodipodi:type="arc"
       style="opacity:1;fill:#f0f0f0;fill-opacity:1;fill-rule:nonzero;stroke:none;stroke-width:7.80000019;stroke-linejoin:miter;stroke-miterlimit:4;stroke-dasharray:none;stroke-opacity:1"
       id="path4880"
       sodipodi:cx="55.357143"
       sodipodi:cy="55.32143"
       sodipodi:rx="16.25"
       sodipodi:ry="16.25"
       d="M 71.607143 55.32143 A 16.25 16.25 0 1 1  39.107143,55.32143 A 16.25 16.25 0 1 1  71.607143 55.32143 z"
       transform="matrix(1.0769231,0,0,1.0769231,-17.293956,-17.291209)" />
    <path
       sodipodi:type="arc"
       style="opacity:1;fill:#f0f0f0;fill-opacity:1;fill-rule:nonzero;stroke:none;stroke-width:7.80000019;stroke-linejoin:miter;stroke-miterlimit:4;stroke-dasharray:none;stroke-opacity:1"
       id="path4882"
       sodipodi:cx="55.357143"
       sodipodi:cy="55.32143"
       sodipodi:rx="16.25"
       sodipodi:ry="16.25"
       d="M 71.607143 55.32143 A 16.25 16.25 0 1 1  39.107143,55.32143 A 16.25 16.25 0 1 1  71.607143 55.32143 z"
       transform="matrix(1.0769231,0,0,1.0769231,26.634614,-17.826926)" />
    <path
       sodipodi:type="arc"
       style="opacity:1;fill:#f0f0f0;fill-opacity:1;fill-rule:nonzero;stroke:none;stroke-width:7.80000019;stroke-linejoin:miter;stroke-miterlimit:4;stroke-dasharray:none;stroke-opacity:1"
       id="path4884"
       sodipodi:cx="55.357143"
       sodipodi:cy="55.32143"
       sodipodi:rx="16.25"
       sodipodi:ry="16.25"
       d="M 71.607143 55.32143 A 16.25 16.25 0 1 1  39.107143,55.32143 A 16.25 16.25 0 1 1  71.607143 55.32143 z"
       transform="matrix(1.0769231,0,0,1.0769231,-17.651101,26.458789)" />
    <path
       sodipodi:type="arc"
       style="opacity:1;fill:#f0f0f0;fill-opacity:1;fill-rule:nonzero;stroke:none;stroke-width:7.80000019;stroke-linejoin:miter;stroke-miterlimit:4;stroke-dasharray:none;stroke-opacity:1"
       id="path4886"
       sodipodi:cx="55.357143"
       sodipodi:cy="55.32143"
       sodipodi:rx="16.25"
       sodipodi:ry="16.25"
       d="M 71.607143 55.32143 A 16.25 16.25 0 1 1  39.107143,55.32143 A 16.25 16.25 0 1 1  71.607143 55.32143 z"
       transform="matrix(1.0769231,0,0,1.0769231,26.456042,26.458788)" />
    <path
       sodipodi:type="arc"
       style="opacity:1;fill:#22ad93;fill-opacity:1;fill-rule:nonzero;stroke:none;stroke-width:7.80000019;stroke-linejoin:miter;stroke-miterlimit:4;stroke-dasharray:none;stroke-opacity:1"
       id="path4888"
       sodipodi:cx="55.357143"
       sodipodi:cy="55.32143"
       sodipodi:rx="16.25"
       sodipodi:ry="16.25"
       d="M 71.607143 55.32143 A 16.25 16.25 0 1 1  39.107143,55.32143 A 16.25 16.25 0 1 1  71.607143 55.32143 z"
       transform="matrix(0.7692308,0,0,0.7692308,-0.2609909,-0.2692331)" />
    <path
       sodipodi:type="arc"
       style="opacity:1;fill:#22ad93;fill-opacity:1;fill-rule:nonzero;stroke:none;stroke-width:7.80000019;stroke-linejoin:miter;stroke-miterlimit:4;stroke-dasharray:none;stroke-opacity:1"
       id="path4890"
       sodipodi:cx="55.357143"
       sodipodi:cy="55.32143"
       sodipodi:rx="16.25"
       sodipodi:ry="16.25"
       d="M 71.607143 55.32143 A 16.25 16.25 0 1 1  39.107143,55.32143 A 16.25 16.25 0 1 1  71.607143 55.32143 z"
       transform="matrix(0.7692308,0,0,0.7692308,43.489009,43.480766)" />
    <path
       sodipodi:type="arc"
       style="opacity:1;fill:#b294bb;fill-opacity:1;fill-rule:nonzero;stroke:none;stroke-width:7.80000019;stroke-linejoin:miter;stroke-miterlimit:4;stroke-dasharray:none;stroke-opacity:1"
       id="path4892"
       sodipodi:cx="55.357143"
       sodipodi:cy="55.32143"
       sodipodi:rx="16.25"
       sodipodi:ry="16.25"
       d="M 71.607143 55.32143 A 16.25 16.25 0 1 1  39.107143,55.32143 A 16.25 16.25 0 1 1  71.607143 55.32143 z"
       transform="matrix(0.7692308,0,0,0.7692308,-0.6704365,43.480767)" />
    <path
       sodipodi:type="arc"
       style="opacity:1;fill:#b294bb;fill-opacity:1;fill-rule:nonzero;stroke:none;stroke-width:7.80000019;stroke-linejoin:miter;stroke-miterlimit:4;stroke-dasharray:none;stroke-opacity:1"
       id="path4894"
       sodipodi:cx="55.357143"
       sodipodi:cy="55.32143"
       sodipodi:rx="16.25"
       sodipodi:ry="16.25"
       d="M 71.607143 55.32143 A 16.25 16.25 0 1 1  39.107143,55.32143 A 16.25 16.25 0 1 1  71.607143 55.32143 z"
       transform="matrix(0.7692308,0,0,0.7692308,43.615277,-0.7526457)" />
  </g>
</svg>
