<?xml version="1.0" encoding="UTF-8" standalone="no"?>
<!-- Created with Inkscape (http://www.inkscape.org/) -->
<svg
   xmlns:dc="http://purl.org/dc/elements/1.1/"
   xmlns:cc="http://web.resource.org/cc/"
   xmlns:rdf="http://www.w3.org/1999/02/22-rdf-syntax-ns#"
   xmlns:svg="http://www.w3.org/2000/svg"
   xmlns="http://www.w3.org/2000/svg"
   xmlns:sodipodi="http://sodipodi.sourceforge.net/DTD/sodipodi-0.dtd"
   xmlns:inkscape="http://www.inkscape.org/namespaces/inkscape"
   width="128"
   height="128"
   id="svg2"
   sodipodi:version="0.32"
   inkscape:version="0.45.1"
   version="1.0"
   sodipodi:docbase="/home/christof/themes_and_icons/meinICONtheme/BRIT ICONS/scalable/categories"
   sodipodi:docname="applications-system.svg"
   inkscape:output_extension="org.inkscape.output.svg.inkscape">
  <defs
     id="defs4" />
  <sodipodi:namedview
     id="base"
     pagecolor="#f0f0f0"
     bordercolor="#373b41"
     borderopacity="1"
     inkscape:pageopacity="0.0"
     inkscape:pageshadow="2"
     inkscape:zoom="3.959798"
     inkscape:cx="66.622778"
     inkscape:cy="44.896794"
     inkscape:document-units="px"
     inkscape:current-layer="layer1"
     width="128px"
     height="128px"
     showgrid="false"
     inkscape:window-width="1680"
     inkscape:window-height="1003"
     inkscape:window-x="0"
     inkscape:window-y="47"
     showguides="true"
     inkscape:guide-bbox="true" />
  <metadata
     id="metadata7">
    <rdf:RDF>
      <cc:Work
         rdf:about="">
        <dc:format>image/svg+xml</dc:format>
        <dc:type
           rdf:resource="http://purl.org/dc/dcmitype/StillImage" />
      </cc:Work>
    </rdf:RDF>
  </metadata>
  <g
     inkscape:label="Ebene 1"
     inkscape:groupmode="layer"
     id="layer1">
    <path
       sodipodi:type="arc"
       style="opacity:1;fill:#f0f0f0;fill-opacity:1;fill-rule:nonzero;stroke:none;stroke-width:15;stroke-linejoin:miter;stroke-miterlimit:4;stroke-dasharray:none;stroke-opacity:1"
       id="path3671"
       sodipodi:cx="75.382637"
       sodipodi:cy="76.355949"
       sodipodi:rx="35.481609"
       sodipodi:ry="35.481609"
       d="M 110.86425 76.355949 A 35.481609 35.481609 0 1 1  39.901028,76.355949 A 35.481609 35.481609 0 1 1  110.86425 76.355949 z"
       transform="matrix(1.7686832,0,0,1.7686832,-69.328008,-71.049489)" />
    <g
       id="g3818"
       transform="matrix(0.9064467,0,0,0.9064467,5.9640208,5.9874091)">
      <path
         id="path3610"
         d="M 64,7.03125 C 32.63774,7.03125 7.0625,32.637742 7.0625,64 C 7.0624998,95.362259 32.637743,120.96875 64,120.96875 C 92.819929,120.96875 116.74403,99.340925 120.4375,71.5 L 105.28125,71.5 C 101.76115,91.137779 84.68144,105.96875 64,105.96875 C 40.753682,105.96875 22.03125,87.246314 22.03125,64 C 22.03125,40.753685 40.753685,22.03125 64,22.03125 C 84.681439,22.03125 101.76115,36.862221 105.28125,56.5 L 120.4375,56.5 C 116.74403,28.659076 92.819931,7.03125 64,7.03125 z "
         style="fill:#373b41;fill-opacity:1;fill-rule:nonzero;stroke:none;stroke-width:15.59566784;stroke-linejoin:miter;stroke-miterlimit:4;stroke-opacity:1" />
      <path
         transform="matrix(0.3888889,0,0,0.3888889,34.555554,35.124998)"
         d="M 127.14286 74.25 A 51.42857 51.42857 0 1 1  24.285717,74.25 A 51.42857 51.42857 0 1 1  127.14286 74.25 z"
         sodipodi:ry="51.42857"
         sodipodi:rx="51.42857"
         sodipodi:cy="74.25"
         sodipodi:cx="75.714287"
         id="path3612"
         style="opacity:1;fill:none;fill-opacity:1;fill-rule:nonzero;stroke:#22ad93;stroke-width:42.55234146;stroke-linejoin:miter;stroke-miterlimit:4;stroke-dasharray:none;stroke-opacity:1"
         sodipodi:type="arc" />
    </g>
  </g>
</svg>
