<?xml version="1.0" encoding="UTF-8" standalone="no"?>
<!-- Created with Inkscape (http://www.inkscape.org/) -->
<svg
   xmlns:dc="http://purl.org/dc/elements/1.1/"
   xmlns:cc="http://web.resource.org/cc/"
   xmlns:rdf="http://www.w3.org/1999/02/22-rdf-syntax-ns#"
   xmlns:svg="http://www.w3.org/2000/svg"
   xmlns="http://www.w3.org/2000/svg"
   xmlns:sodipodi="http://sodipodi.sourceforge.net/DTD/sodipodi-0.dtd"
   xmlns:inkscape="http://www.inkscape.org/namespaces/inkscape"
   width="128"
   height="128"
   id="svg2"
   sodipodi:version="0.32"
   inkscape:version="0.45.1"
   version="1.0"
   sodipodi:docbase="/home/christof/themes_and_icons/meinICONtheme/BRIT ICONS/scalable/categories"
   sodipodi:docname="gnome-control-center.svg"
   inkscape:output_extension="org.inkscape.output.svg.inkscape">
  <defs
     id="defs4" />
  <sodipodi:namedview
     id="base"
     pagecolor="#f0f0f0"
     bordercolor="#373b41"
     borderopacity="1"
     inkscape:pageopacity="0.0"
     inkscape:pageshadow="2"
     inkscape:zoom="2.8"
     inkscape:cx="85.03856"
     inkscape:cy="63.970758"
     inkscape:document-units="px"
     inkscape:current-layer="layer1"
     width="128px"
     height="128px"
     showgrid="false"
     inkscape:window-width="1680"
     inkscape:window-height="1003"
     inkscape:window-x="0"
     inkscape:window-y="47"
     showguides="true"
     inkscape:guide-bbox="true" />
  <metadata
     id="metadata7">
    <rdf:RDF>
      <cc:Work
         rdf:about="">
        <dc:format>image/svg+xml</dc:format>
        <dc:type
           rdf:resource="http://purl.org/dc/dcmitype/StillImage" />
      </cc:Work>
    </rdf:RDF>
  </metadata>
  <g
     inkscape:label="Ebene 1"
     inkscape:groupmode="layer"
     id="layer1">
    <path
       sodipodi:type="arc"
       style="opacity:1;fill:#f0f0f0;fill-opacity:1;fill-rule:nonzero;stroke:none;stroke-width:10;stroke-linejoin:miter;stroke-miterlimit:4;stroke-dasharray:none;stroke-opacity:1"
       id="path4176"
       sodipodi:cx="41.160713"
       sodipodi:cy="59.69643"
       sodipodi:rx="41.339287"
       sodipodi:ry="41.339287"
       d="M 82.5 59.69643 A 41.339287 41.339287 0 1 1  -0.17857361,59.69643 A 41.339287 41.339287 0 1 1  82.5 59.69643 z"
       transform="matrix(1.3282937,0,0,1.3282937,9.3264827,-15.294394)" />
    <path
       style="fill:#f0f0f0;fill-opacity:1;fill-rule:nonzero;stroke:none;stroke-width:1;stroke-linecap:butt;stroke-linejoin:miter;stroke-miterlimit:4;stroke-dashoffset:0;stroke-opacity:1"
       d="M 56.95022,4.5185997 C 54.287616,4.6181276 52.850605,6.7844868 52.109242,9.5513076 L 49.872476,19.073512 C 47.243758,19.900153 44.715333,20.951893 42.307449,22.204981 L 33.903622,16.99652 C 31.847784,15.809579 28.764427,15.026027 26.793926,16.99652 L 17.087989,26.70246 C 15.117495,28.672953 15.621514,31.272155 17.087989,33.812156 L 22.272474,42.176029 C 20.987768,44.625406 19.911327,47.197717 19.069122,49.876872 L 9.5469211,52.113636 C 6.7139102,52.872729 4.5222009,54.359638 4.5222009,57.146335 L 4.5222009,70.862461 C 4.5222009,73.649164 7.2539409,75.280764 9.5469211,75.895166 L 19.069122,78.131926 C 19.90544,80.791656 20.967908,83.351434 22.240526,85.784838 L 17.087989,94.100788 C 15.621514,96.640793 15.117495,99.239981 17.087989,101.21048 L 26.793926,110.91642 C 28.764427,112.88692 31.847784,112.10337 33.903622,110.91642 L 42.219571,105.76388 C 44.652973,107.03649 47.21275,108.09897 49.872476,108.93528 L 52.109242,118.45749 C 52.868339,121.29049 54.355241,123.48221 57.141937,123.48221 L 70.858063,123.48221 C 73.644767,123.48221 75.276364,120.75048 75.890768,118.45749 L 78.127529,108.93528 C 80.816828,108.08966 83.402673,107.00735 85.860318,105.71596 L 94.096383,110.82056 C 96.6364,112.28703 99.235588,112.79107 101.20608,110.82056 L 110.91201,101.12261 C 112.88251,99.152112 112.09895,96.060761 110.91201,94.004923 L 105.78345,85.728918 C 107.0437,83.311679 108.10066,80.772003 108.93089,78.131926 L 118.45309,75.895166 C 120.74608,75.280764 123.4778,73.649164 123.4778,70.862461 L 123.4778,57.146335 C 123.4778,54.359638 121.28609,52.872729 118.45309,52.113636 L 108.93089,49.876872 C 108.09444,47.216278 107.03247,44.658094 105.75948,42.223964 L 110.91201,33.908011 C 112.09895,31.852181 112.88251,28.768817 110.91201,26.798314 L 101.20608,17.092384 C 99.235588,15.121888 96.636387,15.625915 94.096383,17.092384 L 85.780436,22.244919 C 83.347358,20.972476 80.786873,19.909792 78.127529,19.073512 L 75.890768,9.5513076 C 75.276364,7.2583191 73.644767,4.5185997 70.858063,4.5185997 L 57.141937,4.5185997 C 57.131061,4.5185997 57.120838,4.5185346 57.109988,4.5185997 C 57.05597,4.5189385 57.003262,4.5166182 56.95022,4.5185997 z M 63.532683,39.971228 C 63.687446,39.968283 63.840544,39.971228 63.996012,39.971228 C 77.262212,39.971228 88.033178,50.734199 88.033178,64.000409 C 88.033178,77.266606 77.262212,88.029582 63.996012,88.029582 C 50.729812,88.029582 39.966834,77.266606 39.966834,64.000409 C 39.966834,50.889665 50.480963,40.219498 63.532683,39.971228 z "
       id="path3470" />
    <path
       sodipodi:type="arc"
       style="opacity:1;fill:#373b41;fill-opacity:1;fill-rule:nonzero;stroke:none;stroke-width:10;stroke-linejoin:miter;stroke-miterlimit:4;stroke-dasharray:none;stroke-opacity:1"
       id="path3454"
       sodipodi:cx="67.14286"
       sodipodi:cy="63.714287"
       sodipodi:rx="26.071428"
       sodipodi:ry="26.071428"
       d="M 93.214289 63.714287 A 26.071428 26.071428 0 1 1  41.071432,63.714287 A 26.071428 26.071428 0 1 1  93.214289 63.714287 z"
       transform="translate(-4.8214286,1.6071433)" />
    <path
       style="fill:#373b41;fill-opacity:1;fill-rule:nonzero;stroke:none;stroke-width:1;stroke-linecap:butt;stroke-linejoin:miter;stroke-miterlimit:4;stroke-dashoffset:0;stroke-opacity:1"
       d="M 57.944975,12.911689 C 55.658077,12.997173 54.423834,14.857849 53.787081,17.234259 L 51.865932,25.412838 C 49.608137,26.122836 47.436485,27.026171 45.368363,28.102442 L 38.150353,23.628919 C 36.384604,22.609461 33.736322,21.936471 32.043867,23.628919 L 23.70748,31.965308 C 22.015032,33.657756 22.447932,35.890199 23.70748,38.071794 L 28.160412,45.25549 C 27.056983,47.359248 26.132433,49.568595 25.409067,51.869709 L 17.23049,53.790856 C 14.79723,54.442838 12.91478,55.719937 12.91478,58.113419 L 12.91478,69.89414 C 12.91478,72.287627 15.26106,73.689001 17.23049,74.216708 L 25.409067,76.137851 C 26.127376,78.422282 27.039926,80.620864 28.132972,82.710903 L 23.70748,89.853436 C 22.447932,92.035036 22.015032,94.267467 23.70748,95.959922 L 32.043867,104.29631 C 33.736322,105.98876 36.384604,105.31577 38.150353,104.29631 L 45.292886,99.870817 C 47.382924,100.96385 49.581505,101.87641 51.865932,102.59472 L 53.787081,110.7733 C 54.439065,113.20655 55.716159,115.08901 58.10964,115.08901 L 69.89036,115.08901 C 72.283848,115.08901 73.68522,112.74274 74.212929,110.7733 L 76.134072,102.59472 C 78.4439,101.86842 80.664871,100.93882 82.775731,99.829647 L 89.849651,104.21397 C 92.031261,105.47352 94.263691,105.90643 95.956141,104.21397 L 104.29252,95.88445 C 105.98497,94.191996 105.31198,91.536848 104.29252,89.771099 L 99.887621,82.662874 C 100.97004,80.586718 101.87787,78.405402 102.59094,76.137851 L 110.76952,74.216708 C 112.73896,73.689001 115.08522,72.287627 115.08522,69.89414 L 115.08522,58.113419 C 115.08522,55.719937 113.20277,54.442838 110.76952,53.790856 L 102.59094,51.869709 C 101.87252,49.584537 100.9604,47.387324 99.867041,45.296661 L 104.29252,38.154124 C 105.31198,36.388381 105.98497,33.740093 104.29252,32.047637 L 95.956141,23.711256 C 94.263691,22.018805 92.03125,22.451712 89.849651,23.711256 L 82.707121,28.136746 C 80.617361,27.04385 78.418171,26.131116 76.134072,25.412838 L 74.212929,17.234259 C 73.68522,15.264822 72.283848,12.911689 69.89036,12.911689 L 58.10964,12.911689 C 58.100299,12.911689 58.091518,12.911633 58.082199,12.911689 C 58.035803,12.91198 57.990533,12.909987 57.944975,12.911689 z M 63.598624,43.361795 C 63.731549,43.359266 63.863044,43.361795 63.996575,43.361795 C 75.390856,43.361795 84.641991,52.606064 84.641991,64.000353 C 84.641991,75.394631 75.390856,84.638905 63.996575,84.638905 C 52.602294,84.638905 43.358019,75.394631 43.358019,64.000353 C 43.358019,52.739593 52.388559,43.575034 63.598624,43.361795 z "
       id="path1371" />
    <path
       sodipodi:type="arc"
       style="opacity:1;fill:#22ad93;fill-opacity:1;fill-rule:nonzero;stroke:none;stroke-width:10;stroke-linejoin:miter;stroke-miterlimit:4;stroke-dasharray:none;stroke-opacity:1"
       id="path3448"
       sodipodi:cx="86.696426"
       sodipodi:cy="83.98214"
       sodipodi:rx="22.589285"
       sodipodi:ry="22.589285"
       d="M 109.28571 83.98214 A 22.589285 22.589285 0 1 1  64.107141,83.98214 A 22.589285 22.589285 0 1 1  109.28571 83.98214 z"
       transform="matrix(0.7628459,0,0,0.7628459,-2.136008,-6.54263e-2)" />
    <path
       style="fill:#22ad93;fill-opacity:1;fill-rule:evenodd;stroke:none;stroke-width:10;stroke-linecap:butt;stroke-linejoin:miter;stroke-miterlimit:4;stroke-opacity:1"
       d="M 56.5625,28.5625 L 56.5625,57.09375 L 66.5625,57.09375 L 66.5625,37.649554 L 66.071429,29.366071 L 64.029017,28.5625 L 56.5625,28.5625 z "
       id="path3450"
       sodipodi:nodetypes="ccccccc" />
    <path
       style="fill:#22ad93;fill-opacity:1;fill-rule:nonzero;stroke:none;stroke-width:10.67448711;stroke-linejoin:miter;stroke-miterlimit:4;stroke-opacity:1"
       d="M 64 28.5625 L 64 38.5625 C 78.101114 38.562502 89.4375 49.898885 89.4375 64 C 89.437502 78.101117 78.101115 89.4375 64 89.4375 C 49.898883 89.437504 38.5625 78.101115 38.5625 64 L 28.53125 64 C 28.531249 83.511743 44.488259 99.46875 64 99.46875 C 83.511742 99.468753 99.4375 83.511742 99.4375 64 C 99.437502 44.488258 83.511743 28.5625 64 28.5625 z "
       id="path3452" />
  </g>
</svg>
