<?xml version="1.0" encoding="UTF-8" standalone="no"?>
<!-- Created with Inkscape (http://www.inkscape.org/) -->
<svg
   xmlns:dc="http://purl.org/dc/elements/1.1/"
   xmlns:cc="http://creativecommons.org/ns#"
   xmlns:rdf="http://www.w3.org/1999/02/22-rdf-syntax-ns#"
   xmlns:svg="http://www.w3.org/2000/svg"
   xmlns="http://www.w3.org/2000/svg"
   xmlns:xlink="http://www.w3.org/1999/xlink"
   xmlns:sodipodi="http://sodipodi.sourceforge.net/DTD/sodipodi-0.dtd"
   xmlns:inkscape="http://www.inkscape.org/namespaces/inkscape"
   width="128"
   height="128"
   id="svg2"
   sodipodi:version="0.32"
   inkscape:version="0.46"
   version="1.0"
   sodipodi:docbase="/home/martino/Projects/Icone/extrim-black/ALLBLACK/scalable/categories"
   sodipodi:docname="applications-development.svg"
   inkscape:output_extension="org.inkscape.output.svg.inkscape"
   sodipodi:modified="true">
  <defs
     id="defs4">
    <inkscape:perspective
       sodipodi:type="inkscape:persp3d"
       inkscape:vp_x="0 : 64 : 1"
       inkscape:vp_y="0 : 1000 : 0"
       inkscape:vp_z="128 : 64 : 1"
       inkscape:persp3d-origin="64 : 42.666667 : 1"
       id="perspective24" />
    <linearGradient
       inkscape:collect="always"
       id="linearGradient6067">
      <stop
         style="stop-color:#f0f0f0;stop-opacity:1;"
         offset="0"
         id="stop6069" />
      <stop
         style="stop-color:#f0f0f0;stop-opacity:0;"
         offset="1"
         id="stop6071" />
    </linearGradient>
    <linearGradient
       inkscape:collect="always"
       xlink:href="#linearGradient6067"
       id="linearGradient6073"
       x1="29.731594"
       y1="96.211563"
       x2="29.731594"
       y2="119.78299"
       gradientUnits="userSpaceOnUse" />
    <inkscape:perspective
       id="perspective2468"
       inkscape:persp3d-origin="64 : 42.666667 : 1"
       inkscape:vp_z="128 : 64 : 1"
       inkscape:vp_y="0 : 1000 : 0"
       inkscape:vp_x="0 : 64 : 1"
       sodipodi:type="inkscape:persp3d" />
  </defs>
  <sodipodi:namedview
     id="base"
     pagecolor="#f0f0f0"
     bordercolor="#666666"
     borderopacity="1.0"
     inkscape:pageopacity="0.0"
     inkscape:pageshadow="2"
     inkscape:zoom="2.8"
     inkscape:cx="-27.895524"
     inkscape:cy="70.680387"
     inkscape:document-units="px"
     inkscape:current-layer="layer1"
     showgrid="true"
     width="128px"
     height="128px"
     showguides="true"
     inkscape:guide-bbox="true"
     inkscape:window-width="1680"
     inkscape:window-height="1000"
     inkscape:window-x="0"
     inkscape:window-y="25" />
  <metadata
     id="metadata7">
    <rdf:RDF>
      <cc:Work
         rdf:about="">
        <dc:format>image/svg+xml</dc:format>
        <dc:type
           rdf:resource="http://purl.org/dc/dcmitype/StillImage" />
      </cc:Work>
    </rdf:RDF>
  </metadata>
  <g
     inkscape:label="Livello 1"
     inkscape:groupmode="layer"
     id="layer1">
    <g
       id="g2471"
       inkscape:label="Ebene 1"
       transform="translate(-7.1427143e-2,-1.3571416)">
      <path
         d="M 36.239465,22.558957 L 91.760535,22.558957 C 111.36165,22.558957 127.14161,39.236859 127.14161,59.953354 L 127.14161,68.007533 C 127.14161,88.724034 111.36165,105.40192 91.760535,105.40192 L 36.239465,105.40192 C 16.638351,105.40192 0.85839362,88.724034 0.85839362,68.007533 L 0.85839362,59.953354 C 0.85839362,39.236859 16.638351,22.558957 36.239465,22.558957 z M 0.85839362,22.558957 L 72.98135,22.558957 L 72.98135,67.966442 L 0.85839362,67.966442 L 0.85839362,22.558957 z M 55.018645,60.03357 L 127.14161,60.03357 L 127.14161,105.44104 L 55.018645,105.44104 L 55.018645,60.03357 z"
         style="fill:#f0f0f0;fill-opacity:1;fill-rule:nonzero;stroke:none;stroke-width:18;stroke-linejoin:miter;stroke-miterlimit:4;stroke-opacity:1"
         id="path10952" />
      <path
         d="M 38.952657,28.622347 L 89.047343,28.622347 C 106.73273,28.622347 120.97043,42.860043 120.97043,60.545431 L 120.97043,67.421172 C 120.97043,85.106561 106.73273,99.344256 89.047343,99.344256 L 38.952657,99.344256 C 21.267269,99.344256 7.0295735,85.106561 7.0295735,67.421172 L 7.0295735,60.545431 C 7.0295735,42.860043 21.267269,28.622347 38.952657,28.622347 z M 7.0295735,28.622347 L 72.103552,28.622347 L 72.103552,67.386093 L 7.0295735,67.386093 L 7.0295735,28.622347 z M 55.896448,60.613911 L 120.97043,60.613911 L 120.97043,99.377653 L 55.896448,99.377653 L 55.896448,60.613911 z"
         style="fill:#373b41;fill-opacity:1;fill-rule:nonzero;stroke:none;stroke-width:18;stroke-linejoin:miter;stroke-miterlimit:4;stroke-opacity:1"
         id="rect10941" />
    </g>
    <path
       style="fill:#22ad93;fill-opacity:1;fill-rule:nonzero;stroke:none;stroke-width:1;stroke-linecap:butt;stroke-linejoin:miter;stroke-miterlimit:4;stroke-dashoffset:0;stroke-opacity:1"
       d="M 60.458949,31.536688 C 59.075309,31.588408 58.328549,32.714175 57.943299,34.151978 L 56.780939,39.100271 C 55.414909,39.529842 54.100989,40.076388 52.849709,40.727565 L 48.482589,38.020945 C 47.414249,37.404141 45.811959,36.996961 44.787969,38.020945 L 39.744199,43.064719 C 38.720219,44.088703 38.982129,45.4394 39.744199,46.759333 L 42.438359,51.105692 C 41.770749,52.378531 41.211369,53.715255 40.773709,55.1075 L 35.825419,56.269854 C 34.353229,56.664323 33.214279,57.437008 33.214279,58.885139 L 33.214279,66.012841 C 33.214279,67.460975 34.633849,68.30885 35.825419,68.628129 L 40.773709,69.79048 C 41.208309,71.172632 41.760429,72.502842 42.421759,73.767381 L 39.744199,78.088835 C 38.982129,79.408771 38.720219,80.759461 39.744199,81.783449 L 44.787969,86.827219 C 45.811959,87.851203 47.414249,87.444023 48.482589,86.827219 L 52.804039,84.149662 C 54.068579,84.810982 55.398789,85.363107 56.780939,85.797709 L 57.943299,90.746003 C 58.337769,92.218195 59.110449,93.357143 60.558579,93.357143 L 67.68628,93.357143 C 69.134415,93.357143 69.982289,91.937575 70.301568,90.746003 L 71.463919,85.797709 C 72.861441,85.358273 74.205194,84.795839 75.482332,84.124753 L 79.762273,86.777403 C 81.08221,87.539469 82.432903,87.801391 83.456887,86.777403 L 88.500662,81.737786 C 89.524646,80.713799 89.117462,79.107352 88.500662,78.039019 L 85.835554,73.738322 C 86.490454,72.482183 87.039721,71.162419 87.471151,69.79048 L 92.419446,68.628129 C 93.611017,68.30885 95.030579,67.460975 95.030579,66.012841 L 95.030579,58.885139 C 95.030579,57.437008 93.891638,56.664323 92.419446,56.269854 L 87.471151,55.1075 C 87.036487,53.7249 86.484624,52.395518 85.823102,51.130602 L 88.500662,46.809145 C 89.117462,45.740816 89.524646,44.138519 88.500662,43.114531 L 83.456887,38.070761 C 82.432903,37.046776 81.082206,37.308698 79.762273,38.070761 L 75.44082,40.74832 C 74.176452,40.087084 72.845872,39.534852 71.463919,39.100271 L 70.301568,34.151978 C 69.982289,32.960406 69.134415,31.536688 67.68628,31.536688 L 60.558579,31.536688 C 60.552929,31.536688 60.547609,31.536654 60.541979,31.536688 C 60.513909,31.536864 60.486519,31.535658 60.458949,31.536688 z M 63.879585,49.959948 C 63.960008,49.958418 64.039567,49.959948 64.120357,49.959948 C 71.014251,49.959948 76.611474,55.553018 76.611474,62.446917 C 76.611474,69.340809 71.014251,74.933882 64.120357,74.933882 C 57.226459,74.933882 51.633389,69.340809 51.633389,62.446917 C 51.633389,55.633807 57.097149,50.088964 63.879585,49.959948 z"
       id="path1371" />
  </g>
</svg>
