<?xml version="1.0" encoding="UTF-8" standalone="no"?>
<!-- Created with Inkscape (http://www.inkscape.org/) -->
<svg
   xmlns:dc="http://purl.org/dc/elements/1.1/"
   xmlns:cc="http://web.resource.org/cc/"
   xmlns:rdf="http://www.w3.org/1999/02/22-rdf-syntax-ns#"
   xmlns:svg="http://www.w3.org/2000/svg"
   xmlns="http://www.w3.org/2000/svg"
   xmlns:sodipodi="http://sodipodi.sourceforge.net/DTD/sodipodi-0.dtd"
   xmlns:inkscape="http://www.inkscape.org/namespaces/inkscape"
   width="128"
   height="128"
   id="svg2"
   sodipodi:version="0.32"
   inkscape:version="0.45.1"
   version="1.0"
   sodipodi:docbase="/home/christof/themes_and_icons/meinICONtheme/BRIT ICONS/scalable/categories"
   sodipodi:docname="applications-multimedia.svg"
   inkscape:output_extension="org.inkscape.output.svg.inkscape">
  <defs
     id="defs4" />
  <sodipodi:namedview
     id="base"
     pagecolor="#f0f0f0"
     bordercolor="#373b41"
     borderopacity="1"
     inkscape:pageopacity="0.0"
     inkscape:pageshadow="2"
     inkscape:zoom="5.6"
     inkscape:cx="80.217546"
     inkscape:cy="62.655765"
     inkscape:document-units="px"
     inkscape:current-layer="layer1"
     width="128px"
     height="128px"
     showgrid="false"
     inkscape:window-width="1680"
     inkscape:window-height="1003"
     inkscape:window-x="0"
     inkscape:window-y="47"
     showguides="true"
     inkscape:guide-bbox="true" />
  <metadata
     id="metadata7">
    <rdf:RDF>
      <cc:Work
         rdf:about="">
        <dc:format>image/svg+xml</dc:format>
        <dc:type
           rdf:resource="http://purl.org/dc/dcmitype/StillImage" />
      </cc:Work>
    </rdf:RDF>
  </metadata>
  <g
     inkscape:label="Ebene 1"
     inkscape:groupmode="layer"
     id="layer1">
    <path
       style="fill:#f0f0f0;fill-opacity:1"
       d="M 0.25300428,94.289848 C 1.322513,61.274004 21.328136,32.41275 50.439748,27.717925 C 55.799537,26.853553 64.299854,25.951966 92.741113,25.938385 L 128.45664,25.92133 L 128.44898,28.517601 C 128.43147,34.455035 125.38051,46.327967 123.70341,53.585297 C 119.53068,71.642034 108.11035,86.602924 91.474605,94.107618 C 77.874926,100.24269 73.982146,102.03584 34.363709,102.05864 L -0.4566333,102.07867 L 0.25300428,94.289848 z "
       id="path3483"
       sodipodi:nodetypes="cscccssccc" />
    <g
       id="g3509"
       transform="matrix(0.9461472,0,0,0.9461472,3.4465766,3.4465767)">
      <path
         id="path5053"
         d="M 7.1023459,87.738968 C 9.6696981,62.996458 28.501301,41.062365 51.896737,35.564764 C 56.577726,34.464796 64.267633,34.180733 89.652999,34.170089 L 121.53104,34.156723 L 121.52421,36.191491 C 121.50858,40.844817 119.46535,50.321847 117.28853,55.837717 C 111.83665,69.652187 101.28039,81.306607 88.522572,87.596148 C 76.911097,93.320538 72.909603,93.809708 37.548,93.827578 L 6.4689559,93.843277 L 7.1023459,87.738968 z "
         style="fill:#373b41" />
      <path
         id="path5051"
         d="M 74.925832,80.700558 C 89.268537,76.964758 101.38327,65.597938 107.12365,50.490497 L 108.89961,45.816527 L 81.076431,46.09093 C 69.122733,46.494001 57.350865,44.408358 46.44929,49.614827 C 34.912821,55.124537 25.779703,65.159458 21.105424,77.461178 L 19.347809,82.086838 L 44.475691,82.086838 C 64.133781,82.086838 70.762108,81.785077 74.925832,80.700558 z "
         style="fill:#f0f0f0;fill-opacity:1" />
      <path
         id="path5039"
         d="M 34.1448,70.557168 C 36.292313,66.404337 43.419619,60.445797 49.824736,57.448477 C 57.89028,53.297127 67.517263,54.235498 76.030296,54.235498 L 96.296096,53.802057 L 94.39725,57.020347 C 91.626247,61.716848 85.611587,66.916187 79.449919,69.941487 C 72.294968,73.237396 59.785173,72.864927 53.431495,72.864927 L 32.809883,73.138617 L 34.1448,70.557168 z "
         style="fill:#22ad93;fill-opacity:1" />
    </g>
  </g>
</svg>
