<?xml version="1.0" encoding="UTF-8" standalone="no"?>
<!-- Created with Inkscape (http://www.inkscape.org/) -->
<svg
   xmlns:dc="http://purl.org/dc/elements/1.1/"
   xmlns:cc="http://web.resource.org/cc/"
   xmlns:rdf="http://www.w3.org/1999/02/22-rdf-syntax-ns#"
   xmlns:svg="http://www.w3.org/2000/svg"
   xmlns="http://www.w3.org/2000/svg"
   xmlns:sodipodi="http://sodipodi.sourceforge.net/DTD/sodipodi-0.dtd"
   xmlns:inkscape="http://www.inkscape.org/namespaces/inkscape"
   width="128"
   height="128"
   id="svg2"
   sodipodi:version="0.32"
   inkscape:version="0.45.1"
   version="1.0"
   sodipodi:docbase="/home/christof/themes_and_icons/meinICONtheme/BRIT ICONS/scalable/categories"
   sodipodi:docname="applications-accessories.svg"
   inkscape:output_extension="org.inkscape.output.svg.inkscape">
  <defs
     id="defs4" />
  <sodipodi:namedview
     id="base"
     pagecolor="#f0f0f0"
     bordercolor="#373b41"
     borderopacity="1"
     inkscape:pageopacity="0.0"
     inkscape:pageshadow="2"
     inkscape:zoom="3.959798"
     inkscape:cx="111.08589"
     inkscape:cy="76.94207"
     inkscape:document-units="px"
     inkscape:current-layer="layer1"
     width="128px"
     height="128px"
     showgrid="true"
     inkscape:window-width="1680"
     inkscape:window-height="1003"
     inkscape:window-x="0"
     inkscape:window-y="47"
     showguides="false" />
  <metadata
     id="metadata7">
    <rdf:RDF>
      <cc:Work
         rdf:about="">
        <dc:format>image/svg+xml</dc:format>
        <dc:type
           rdf:resource="http://purl.org/dc/dcmitype/StillImage" />
      </cc:Work>
    </rdf:RDF>
  </metadata>
  <g
     inkscape:label="Ebene 1"
     inkscape:groupmode="layer"
     id="layer1">
    <path
       style="fill:#f0f0f0;fill-opacity:1;fill-rule:nonzero;stroke:none;stroke-width:10;stroke-linejoin:miter;stroke-miterlimit:4;stroke-opacity:1"
       d="M 127.44,-0.019042949 L 127.44,63.475715 L 64.702858,63.475715 C 64.809922,20.665241 86.274614,0.074936891 127.44,-0.019042949 z "
       id="path3335"
       sodipodi:nodetypes="cccc" />
    <path
       sodipodi:type="arc"
       style="opacity:1;fill:#f0f0f0;fill-opacity:1;fill-rule:nonzero;stroke:none;stroke-width:10;stroke-linejoin:miter;stroke-miterlimit:4;stroke-dasharray:none;stroke-opacity:1"
       id="path3333"
       sodipodi:cx="98.75"
       sodipodi:cy="99.071426"
       sodipodi:rx="35.535713"
       sodipodi:ry="35.535713"
       d="M 134.28571 99.071426 A 35.535713 35.535713 0 1 1  63.214287,99.071426 A 35.535713 35.535713 0 1 1  134.28571 99.071426 z"
       transform="matrix(1.7989951,0,0,1.7989949,-113.72219,-114.15756)" />
    <path
       style="fill:#373b41;fill-opacity:1;fill-rule:nonzero;stroke:none;stroke-width:7.80000019;stroke-linejoin:miter;stroke-miterlimit:4;stroke-opacity:1"
       d="M 120.78125 69 L 69 69 L 69 120.1875 C 96.446502 117.81164 118.36623 96.175637 120.78125 69 z "
       id="path6001" />
    <path
       style="fill:#373b41;fill-opacity:1;fill-rule:nonzero;stroke:none;stroke-width:7.80000019;stroke-linejoin:miter;stroke-miterlimit:4;stroke-opacity:1"
       d="M 59 69 L 7.21875 69 C 9.6337662 96.175638 31.553498 117.81164 59 120.1875 L 59 69 z "
       id="path6025" />
    <path
       style="fill:#373b41;fill-opacity:1;fill-rule:nonzero;stroke:none;stroke-width:7.80000019;stroke-linejoin:miter;stroke-miterlimit:4;stroke-opacity:1"
       d="M 59 7.8125 C 31.553497 10.188358 9.6337663 31.82436 7.21875 59 L 59 59 L 59 7.8125 z "
       id="path5975" />
    <path
       style="fill:#22ad93;fill-opacity:1;fill-rule:nonzero;stroke:none;stroke-width:7.80000019;stroke-linejoin:miter;stroke-miterlimit:4;stroke-opacity:1"
       d="M 107.40625 69 L 69 69 L 69 106.25 C 89.141373 103.99384 105.01777 88.566387 107.40625 69 z "
       id="path5995" />
    <path
       style="fill:#22ad93;fill-opacity:1;fill-rule:nonzero;stroke:none;stroke-width:7.80000019;stroke-linejoin:miter;stroke-miterlimit:4;stroke-opacity:1"
       d="M 59 69 L 20.59375 69 C 22.982232 88.566387 38.858627 103.99384 59 106.25 L 59 69 z "
       id="path6019" />
    <path
       style="fill:#22ad93;fill-opacity:1;fill-rule:nonzero;stroke:none;stroke-width:7.80000019;stroke-linejoin:miter;stroke-miterlimit:4;stroke-opacity:1"
       d="M 59 21.75 C 38.858627 24.00616 22.982233 39.433612 20.59375 59 L 59 59 L 59 21.75 z "
       id="path5968" />
    <path
       style="fill:#dcb56a;fill-opacity:1;fill-rule:nonzero;stroke:none;stroke-width:7.80000019;stroke-linejoin:miter;stroke-miterlimit:4;stroke-opacity:1"
       d="M 96.25 69 L 69 69 L 69 95.34375 C 82.982008 93.23809 94.024353 82.5758 96.25 69 z "
       id="path5989" />
    <path
       style="fill:#dcb56a;fill-opacity:1;fill-rule:nonzero;stroke:none;stroke-width:7.80000019;stroke-linejoin:miter;stroke-miterlimit:4;stroke-opacity:1"
       d="M 59 69 L 31.75 69 C 33.975646 82.575801 45.017989 93.23809 59 95.34375 L 59 69 z "
       id="path6013" />
    <path
       style="fill:#dcb56a;fill-opacity:1;fill-rule:nonzero;stroke:none;stroke-width:7.80000019;stroke-linejoin:miter;stroke-miterlimit:4;stroke-opacity:1"
       d="M 59 32.65625 C 45.017991 34.76191 33.975646 45.424198 31.75 59 L 59 59 L 59 32.65625 z "
       id="path5961" />
    <path
       style="fill:#22ad93;fill-opacity:1;fill-rule:nonzero;stroke:none;stroke-width:7.80000019;stroke-linejoin:miter;stroke-miterlimit:4;stroke-opacity:1"
       d="M 84.40625 69 L 69 69 L 69 83.9375 C 76.577765 82.133672 82.49449 76.344288 84.40625 69 z "
       id="path5983" />
    <path
       style="fill:#22ad93;fill-opacity:1;fill-rule:nonzero;stroke:none;stroke-width:7.80000019;stroke-linejoin:miter;stroke-miterlimit:4;stroke-opacity:1"
       d="M 59 69 L 43.59375 69 C 45.505511 76.344289 51.422235 82.133672 59 83.9375 L 59 69 z "
       id="path6007" />
    <path
       style="fill:#22ad93;fill-opacity:1;fill-rule:nonzero;stroke:none;stroke-width:7.80000019;stroke-linejoin:miter;stroke-miterlimit:4;stroke-opacity:1"
       d="M 59 44.0625 C 51.422235 45.866328 45.505511 51.655711 43.59375 59 L 59 59 L 59 44.0625 z "
       id="path5954" />
    <path
       style="fill:#373b41;fill-opacity:1;fill-rule:nonzero;stroke:none;stroke-width:10;stroke-linejoin:miter;stroke-miterlimit:4;stroke-opacity:1"
       d="M 121.02286,6.9771423 L 121.02286,59 L 69,59 C 69.088782,23.924298 86.887725,7.0541423 121.02286,6.9771423 z "
       id="rect6111"
       sodipodi:nodetypes="cccc" />
    <path
       style="fill:#22ad93;fill-opacity:1;fill-rule:nonzero;stroke:none;stroke-width:10;stroke-linejoin:miter;stroke-miterlimit:4;stroke-opacity:1"
       d="M 107.48363,21.766375 L 107.39434,59.05709 L 68.942909,59.05709 C 68.942909,39.045128 87.42962,21.766375 107.48363,21.766375 z "
       id="path6114"
       sodipodi:nodetypes="cccc" />
    <path
       style="fill:#dcb56a;fill-opacity:1;fill-rule:nonzero;stroke:none;stroke-width:10;stroke-linejoin:miter;stroke-miterlimit:4;stroke-opacity:1"
       d="M 96.469301,32.602142 L 96.469297,59 L 69,59 C 69,48.968549 86.456284,32.602142 96.469301,32.602142 z "
       id="path6116"
       sodipodi:nodetypes="cccc" />
    <path
       style="fill:#22ad93;fill-opacity:1;fill-rule:nonzero;stroke:none;stroke-width:10;stroke-linejoin:miter;stroke-miterlimit:4;stroke-opacity:1"
       d="M 84.284336,44.092627 L 84.284332,59 L 69,59 C 69,53.956177 79.22047,44.092627 84.284336,44.092627 z "
       id="path6118"
       sodipodi:nodetypes="cccc" />
  </g>
</svg>
