<?xml version="1.0" encoding="UTF-8" standalone="no"?>
<!-- Created with Inkscape (http://www.inkscape.org/) -->
<svg
   xmlns:dc="http://purl.org/dc/elements/1.1/"
   xmlns:cc="http://creativecommons.org/ns#"
   xmlns:rdf="http://www.w3.org/1999/02/22-rdf-syntax-ns#"
   xmlns:svg="http://www.w3.org/2000/svg"
   xmlns="http://www.w3.org/2000/svg"
   xmlns:sodipodi="http://sodipodi.sourceforge.net/DTD/sodipodi-0.dtd"
   xmlns:inkscape="http://www.inkscape.org/namespaces/inkscape"
   inkscape:export-ydpi="90"
   inkscape:export-xdpi="90"
   inkscape:export-filename="/home/andreas/project/gnome-icon-theme/scalable/actions/bookmark-new.png"
   sodipodi:docname="preferences-system.svg"
   sodipodi:docbase="/home/christof/themes_and_icons/meinICONtheme/BRIT ICONS/scalable/actions"
   inkscape:version="0.46"
   sodipodi:version="0.32"
   id="svg249"
   height="48"
   width="48"
   version="1.0"
   inkscape:output_extension="org.inkscape.output.svg.inkscape">
  <defs
     id="defs3">
    <inkscape:perspective
       sodipodi:type="inkscape:persp3d"
       inkscape:vp_x="0 : 24 : 1"
       inkscape:vp_y="0 : 1000 : 0"
       inkscape:vp_z="48 : 24 : 1"
       inkscape:persp3d-origin="24 : 16 : 1"
       id="perspective46" />
    <linearGradient
       id="linearGradient3702">
      <stop
         style="stop-color:black;stop-opacity:0;"
         offset="0"
         id="stop3704" />
      <stop
         id="stop3710"
         offset="0.5"
         style="stop-color:black;stop-opacity:1;" />
      <stop
         style="stop-color:black;stop-opacity:0;"
         offset="1"
         id="stop3706" />
    </linearGradient>
    <linearGradient
       id="linearGradient5345">
      <stop
         style="stop-color:#efe8ef;stop-opacity:1;"
         offset="0"
         id="stop5347" />
      <stop
         id="stop1936"
         offset="0.42469135"
         style="stop-color:#dabce7;stop-opacity:1;" />
      <stop
         id="stop7129"
         offset="0.9041152"
         style="stop-color:#dabce7;stop-opacity:1;" />
      <stop
         style="stop-color:#efe8ef;stop-opacity:1;"
         offset="1"
         id="stop5349" />
    </linearGradient>
    <linearGradient
       id="linearGradient2378">
      <stop
         style="stop-color:#f0f0f0;stop-opacity:1;"
         offset="0"
         id="stop2380" />
      <stop
         id="stop4146"
         offset="0.25"
         style="stop-color:#fefede;stop-opacity:0.91836733;" />
      <stop
         id="stop2386"
         offset="0.5"
         style="stop-color:#f5f328;stop-opacity:1;" />
      <stop
         style="stop-color:#f5f32d;stop-opacity:0.12234043;"
         offset="1"
         id="stop2382" />
    </linearGradient>
    <linearGradient
       id="linearGradient15662">
      <stop
         id="stop15664"
         offset="0.3030300"
         style="stop-color:#f0f0f0;stop-opacity:1.3030300;" />
      <stop
         id="stop15666"
         offset="1.3030300"
         style="stop-color:#f8f8f8;stop-opacity:1.3030300;" />
    </linearGradient>
    <linearGradient
       id="linearGradient269">
      <stop
         id="stop270"
         offset="0.3030300"
         style="stop-color:#a3a3a3;stop-opacity:1.3030300;" />
      <stop
         id="stop271"
         offset="1"
         style="stop-color:#8a8a8a;stop-opacity:1;" />
    </linearGradient>
    <linearGradient
       id="linearGradient259">
      <stop
         id="stop260"
         offset="0.3030300"
         style="stop-color:#fafafa;stop-opacity:1.3030300;" />
      <stop
         id="stop261"
         offset="1.3030300"
         style="stop-color:#bbbbbb;stop-opacity:1.3030300;" />
    </linearGradient>
    <linearGradient
       id="linearGradient4622">
      <stop
         id="stop4624"
         offset="0"
         style="stop-color:#dabce7;stop-opacity:1;" />
      <stop
         id="stop4626"
         offset="1"
         style="stop-color:#efe8ef;stop-opacity:1;" />
    </linearGradient>
    <linearGradient
       id="linearGradient2796">
      <stop
         id="stop2798"
         offset="0"
         style="stop-color:#d6d6d1;stop-opacity:1;" />
      <stop
         id="stop2800"
         offset="1"
         style="stop-color:#a2a298;stop-opacity:1;" />
    </linearGradient>
    <linearGradient
       id="linearGradient2808">
      <stop
         style="stop-color:white;stop-opacity:1;"
         offset="0"
         id="stop2810" />
      <stop
         style="stop-color:white;stop-opacity:0.2937853"
         offset="1"
         id="stop2812" />
    </linearGradient>
  </defs>
  <sodipodi:namedview
     inkscape:window-y="24"
     inkscape:window-x="0"
     inkscape:window-height="1001"
     inkscape:window-width="1680"
     inkscape:document-units="px"
     inkscape:grid-bbox="true"
     showgrid="true"
     inkscape:current-layer="layer5"
     inkscape:cy="10.425618"
     inkscape:cx="32.535189"
     inkscape:zoom="8"
     inkscape:pageshadow="2"
     inkscape:pageopacity="0.0"
     borderopacity="0.3254902"
     bordercolor="#666666"
     pagecolor="#f0f0f0"
     id="base"
     inkscape:showpageshadow="false"
     showborder="true"
     objecttolerance="10000"
     gridtolerance="10000"
     guidetolerance="10000" />
  <metadata
     id="metadata4">
    <rdf:RDF>
      <cc:Work
         rdf:about="">
        <dc:format>image/svg+xml</dc:format>
        <dc:type
           rdf:resource="http://purl.org/dc/dcmitype/StillImage" />
        <dc:title>New Bookmark</dc:title>
        <dc:subject>
          <rdf:Bag>
            <rdf:li>text</rdf:li>
            <rdf:li>plaintext</rdf:li>
            <rdf:li>regular</rdf:li>
            <rdf:li>document</rdf:li>
          </rdf:Bag>
        </dc:subject>
        <cc:license
           rdf:resource="http://creativecommons.org/licenses/GPL/2.0/" />
        <dc:creator>
          <cc:Agent>
            <dc:title>Andreas Nilsson</dc:title>
          </cc:Agent>
        </dc:creator>
        <dc:source>http://www.gnome.org</dc:source>
        <dc:contributor>
          <cc:Agent>
            <dc:title>Luca Ferretti
Jakub Steiner
Lapo Calamandrei</dc:title>
          </cc:Agent>
        </dc:contributor>
        <dc:date>December 2006</dc:date>
      </cc:Work>
      <cc:License
         rdf:about="http://creativecommons.org/licenses/GPL/2.0/">
        <cc:permits
           rdf:resource="http://web.resource.org/cc/Reproduction" />
        <cc:permits
           rdf:resource="http://web.resource.org/cc/Distribution" />
        <cc:requires
           rdf:resource="http://web.resource.org/cc/Notice" />
        <cc:permits
           rdf:resource="http://web.resource.org/cc/DerivativeWorks" />
        <cc:requires
           rdf:resource="http://web.resource.org/cc/ShareAlike" />
        <cc:requires
           rdf:resource="http://web.resource.org/cc/SourceCode" />
      </cc:License>
    </rdf:RDF>
  </metadata>
  <g
     inkscape:groupmode="layer"
     id="layer5"
     inkscape:label="Text"
     style="display:inline">
    <g
       transform="matrix(0.9884352,0,0,0.9942953,-1.2928076,0.1535226)"
       id="g2419"
       inkscape:label="Layer 1"
       style="fill:#f0f0f0">
      <g
         id="g2421"
         transform="matrix(1.006671,0,0,1,0.966642,0.716205)"
         style="fill:#f0f0f0" />
      <g
         id="g2423"
         transform="matrix(1.005587,0,0,1.004813,-0.22864,1.985055)"
         style="fill:#f0f0f0">
        <path
           sodipodi:type="inkscape:offset"
           inkscape:radius="4.7897062"
           inkscape:original="M 15.21875 3.59375 C 13.924287 3.5829836 12.633853 4.0908775 11.625 5.0625 L 16.9375 10.34375 L 16.9375 12.4375 L 15.53125 13.875 L 13.40625 13.875 C 11.655627 12.092671 9.83353 10.349554 8.125 8.53125 C 6.1817557 10.548956 6.1978037 13.729053 8.1875 15.71875 L 10.84375 18.375 C 12.652723 20.183973 15.274351 20.56696 17.28125 19.125 L 36.3125 38.15625 C 37.198828 39.04258 38.582424 39.042579 39.46875 38.15625 L 41.25 36.40625 C 42.13633 35.519921 42.13633 34.105079 41.25 33.21875 L 22.1875 14.1875 C 23.629461 12.180602 23.277723 9.558973 21.46875 7.75 L 18.8125 5.125 C 17.817652 4.1301519 16.513213 3.6045164 15.21875 3.59375 z "
           style="opacity:1;fill:#f0f0f0;fill-opacity:1;stroke:none;stroke-width:0.99482696999999998;stroke-linecap:round;stroke-linejoin:round;stroke-miterlimit:4;stroke-dasharray:none;stroke-opacity:1"
           id="path2429"
           d="M 15.25,-1.1875 C 12.676339,-1.2089058 10.190551,-0.18374394 8.3125,1.625 C 7.6755647,2.2393649 7.2212666,3.0181617 7,3.875 C 6.1172192,4.0942721 5.3151169,4.5603586 4.6875,5.21875 C 0.99078271,9.057119 1.0275377,15.308786 4.8125,19.09375 L 7.46875,21.75 C 9.6452261,23.926476 12.860408,24.93262 15.9375,24.53125 L 32.9375,41.53125 C 35.586158,44.179914 40.195093,44.179916 42.84375,41.53125 L 44.59375,39.8125 C 44.604215,39.802131 44.614631,39.791715 44.625,39.78125 C 47.313459,37.092794 47.313459,32.532206 44.625,29.84375 L 27.59375,12.84375 C 28.008455,9.771514 27.033466,6.5647156 24.84375,4.375 C 24.843784,4.3645834 24.843784,4.3541666 24.84375,4.34375 L 22.1875,1.71875 C 20.308873,-0.15987743 17.814188,-1.166173 15.25,-1.1875 z" />
      </g>
      <path
         sodipodi:type="inkscape:offset"
         inkscape:radius="4.5697761"
         inkscape:original="M 40.0625 5 L 36.125 9.53125 L 35.5 11.84375 L 20.0625 27.34375 C 18.241523 26.081497 16.091515 25.947796 14.875 27.15625 L 7.34375 34.625 C 5.9144497 36.044829 6.3250405 38.775503 8.28125 40.71875 L 9.03125 41.4375 C 10.98746 43.380746 13.72695 43.794829 15.15625 42.375 L 22.65625 34.90625 C 23.823944 33.746294 23.756196 31.728711 22.625 29.96875 L 38.09375 14.4375 L 40.0625 14.21875 L 44.9375 9.90625 C 44.937499 9.9062496 40.0625 5 40.0625 5 z "
         style="opacity:1;fill:#f0f0f0;fill-opacity:1;stroke:none;stroke-width:2;stroke-linecap:round;stroke-linejoin:round;stroke-miterlimit:4;stroke-dasharray:none;stroke-opacity:1"
         id="path2431"
         d="M 40,0.4375 C 38.704366,0.45633599 37.477628,1.0242704 36.625,2 L 32.6875,6.53125 C 32.231168,7.0540354 31.899876,7.673872 31.71875,8.34375 L 31.40625,9.46875 L 18.875,22.0625 C 16.403498,21.529596 13.747055,21.829299 11.65625,23.90625 L 4.125,31.375 C 2.2159488,33.271401 1.6943298,35.950815 2.03125,38.15625 C 2.3681702,40.361685 3.4385291,42.35554 5.0625,43.96875 C 5.0831314,43.989784 5.1039657,44.010619 5.125,44.03125 L 5.875,44.75 C 7.4946474,46.358914 9.3957181,47.352363 11.59375,47.6875 C 13.791782,48.022637 16.467138,47.52022 18.375,45.625 L 25.875,38.15625 C 27.862266,36.182153 28.230931,33.632495 27.8125,31.25 L 40.21875,18.78125 L 40.5625,18.75 C 41.498735,18.654721 42.382732,18.272747 43.09375,17.65625 L 47.96875,13.34375 C 48.915479,12.510632 49.475879,11.323345 49.517301,10.062922 C 49.558724,8.8024992 49.077486,7.5809793 48.1875,6.6875 C 48.1875,6.6875 43.3125,1.78125 43.3125,1.78125 C 42.436565,0.90218048 41.24081,0.4171102 40,0.4375 L 40,0.4375 z" />
    </g>
    <g
       inkscape:label="Layer 1"
       id="layer1"
       transform="matrix(1.15,0,0,1.15,-5,-3.6)" />
    <g
       inkscape:label="Layer 1"
       id="g2208"
       transform="matrix(0.9884352,0,0,0.9942953,-1.2928076,0.1535226)">
      <g
         transform="matrix(1.006671,0,0,1,0.966642,0.716205)"
         id="g5318" />
      <g
         transform="matrix(1.005587,0,0,1.004813,-0.22864,1.985055)"
         id="g5312">
        <path
           style="opacity:1;fill:#373b41;fill-opacity:1;stroke:none;stroke-width:0.99482697;stroke-linecap:round;stroke-linejoin:round;stroke-miterlimit:4;stroke-dasharray:none;stroke-opacity:1"
           d="M 8.1359163,8.5385328 C 6.1926724,10.556239 6.212511,13.730389 8.2022073,15.720086 L 10.853858,18.371737 C 12.662831,20.18071 15.266488,20.553624 17.273387,19.111664 L 36.298766,38.160939 C 37.185095,39.047268 38.594421,39.047268 39.480747,38.160939 L 41.248513,36.393173 C 42.134842,35.506844 42.134843,34.097521 41.248513,33.211192 L 22.200387,14.184664 C 23.642347,12.177766 23.269433,9.5741078 21.46046,7.7651348 L 18.808809,5.1134838 C 16.819113,3.1237878 13.644963,3.1039478 11.627256,5.0471928 L 16.952654,10.328397 L 16.952654,12.449717 L 15.53844,13.863931 L 13.41712,13.863931 C 11.666497,12.081602 9.8444463,10.356837 8.1359163,8.5385328 z"
           id="path5302"
           sodipodi:nodetypes="ccccccccccccccccc" />
      </g>
      <path
         id="rect5288"
         d="M 40.0625,5 L 36.125,9.53125 L 35.5,11.84375 L 20.0625,27.34375 C 18.241523,26.081497 16.091515,25.947796 14.875,27.15625 L 7.34375,34.625 C 5.9144497,36.044829 6.3250405,38.775503 8.28125,40.71875 L 9.03125,41.4375 C 10.98746,43.380746 13.72695,43.794829 15.15625,42.375 L 22.65625,34.90625 C 23.823944,33.746294 23.756196,31.728711 22.625,29.96875 L 38.09375,14.4375 L 40.0625,14.21875 L 44.9375,9.90625 C 44.937499,9.9062496 40.0625,5 40.0625,5 z"
         style="opacity:1;fill:#373b41;fill-opacity:1;stroke:none;stroke-width:2;stroke-linecap:round;stroke-linejoin:round;stroke-miterlimit:4;stroke-dasharray:none;stroke-opacity:1" />
    </g>
  </g>
</svg>
