<?xml version="1.0" encoding="UTF-8" standalone="no"?>
<!-- Created with Inkscape (http://www.inkscape.org/) -->
<svg
   xmlns:dc="http://purl.org/dc/elements/1.1/"
   xmlns:cc="http://creativecommons.org/ns#"
   xmlns:rdf="http://www.w3.org/1999/02/22-rdf-syntax-ns#"
   xmlns:svg="http://www.w3.org/2000/svg"
   xmlns="http://www.w3.org/2000/svg"
   xmlns:sodipodi="http://sodipodi.sourceforge.net/DTD/sodipodi-0.dtd"
   xmlns:inkscape="http://www.inkscape.org/namespaces/inkscape"
   width="48"
   height="48"
   id="svg4289"
   sodipodi:version="0.32"
   inkscape:version="0.46"
   version="1.0"
   sodipodi:docbase="/home/christof/themes_and_icons/meinICONtheme/BRIT ICONS/scalable/actions"
   sodipodi:docname="list-add.svg"
   inkscape:export-filename="/home/andreas/project/gnome-icon-theme/scalable/actions/list-add.png"
   inkscape:export-xdpi="90"
   inkscape:export-ydpi="90"
   inkscape:output_extension="org.inkscape.output.svg.inkscape">
  <defs
     id="defs4291">
    <inkscape:perspective
       sodipodi:type="inkscape:persp3d"
       inkscape:vp_x="0 : 24 : 1"
       inkscape:vp_y="0 : 1000 : 0"
       inkscape:vp_z="48 : 24 : 1"
       inkscape:persp3d-origin="24 : 16 : 1"
       id="perspective12" />
    <linearGradient
       id="linearGradient4622">
      <stop
         style="stop-color:#dabce7;stop-opacity:1;"
         offset="0"
         id="stop4624" />
      <stop
         style="stop-color:#efe8ef;stop-opacity:1;"
         offset="1"
         id="stop4626" />
    </linearGradient>
  </defs>
  <sodipodi:namedview
     id="base"
     pagecolor="#f0f0f0"
     bordercolor="#666666"
     borderopacity="1.0"
     inkscape:pageopacity="0.0"
     inkscape:pageshadow="2"
     inkscape:zoom="8.6060602"
     inkscape:cx="21.178443"
     inkscape:cy="16.958263"
     inkscape:current-layer="layer1"
     showgrid="true"
     inkscape:grid-bbox="true"
     inkscape:document-units="px"
     width="48px"
     height="48px"
     showguides="true"
     inkscape:guide-bbox="true"
     inkscape:window-width="1680"
     inkscape:window-height="1001"
     inkscape:window-x="0"
     inkscape:window-y="24"
     objecttolerance="10000"
     gridtolerance="10000"
     guidetolerance="10000" />
  <metadata
     id="metadata4294">
    <rdf:RDF>
      <cc:Work
         rdf:about="">
        <dc:format>image/svg+xml</dc:format>
        <dc:type
           rdf:resource="http://purl.org/dc/dcmitype/StillImage" />
      </cc:Work>
    </rdf:RDF>
  </metadata>
  <g
     id="layer1"
     inkscape:label="Layer 1"
     inkscape:groupmode="layer">
    <path
       sodipodi:type="inkscape:offset"
       inkscape:radius="3.9562199"
       inkscape:original="M 20.125 0 L 20.125 20.875 L 0 20.875 L 0 28.8125 L 20.1875 28.8125 L 20.1875 47.9375 L 27.90625 48 L 27.875 28.8125 L 48 28.75 L 48 20.875 L 27.84375 20.875 L 27.84375 0.0625 L 20.125 0 z "
       style="opacity:1;fill:#f0f0f0;fill-opacity:1;stroke:none;stroke-width:1.30303049000000004;stroke-linecap:round;stroke-linejoin:round;stroke-miterlimit:4;stroke-dasharray:none;stroke-opacity:1"
       id="path2387"
       d="M 20.15625,-3.96875 C 19.097287,-3.9803675 18.077866,-3.5669751 17.326089,-2.8210722 C 16.574313,-2.0751693 16.152938,-1.0590219 16.15625,-1.7467948e-15 L 16.15625,16.90625 L 0,16.90625 C -1.0535667,16.903014 -2.0649151,17.32011 -2.8099028,18.065097 C -3.5548905,18.810085 -3.9719862,19.821433 -3.96875,20.875 L -3.96875,28.8125 C -3.9719862,29.866067 -3.5548905,30.877415 -2.8099028,31.622403 C -2.0649151,32.36739 -1.0535667,32.784486 -2.5652831e-15,32.78125 L 16.21875,32.78125 L 16.21875,47.9375 C 16.212031,50.119968 17.973797,51.895716 20.15625,51.90625 L 27.875,51.96875 C 28.933963,51.980367 29.953384,51.566975 30.705161,50.821072 C 31.456937,50.075169 31.878312,49.059022 31.875,48 L 31.84375,32.78125 L 48,32.71875 C 49.053567,32.721986 50.064915,32.30489 50.809903,31.559903 C 51.55489,30.814915 51.971986,29.803567 51.96875,28.75 L 51.96875,20.875 C 51.971986,19.821433 51.55489,18.810085 50.809903,18.065097 C 50.064915,17.32011 49.053567,16.903014 48,16.90625 L 31.8125,16.90625 L 31.8125,0.0625 C 31.819219,-2.1199676 30.057453,-3.8957162 27.875,-3.90625 L 20.15625,-3.96875 z"
       transform="matrix(0.850438,0,0,0.850438,3.5894888,3.5894888)" />
    <path
       style="opacity:1;fill:#373b41;fill-opacity:1;stroke:none;stroke-width:1.30303049;stroke-linecap:round;stroke-linejoin:round;stroke-miterlimit:4;stroke-dasharray:none;stroke-opacity:1"
       d="M 3.5894888,21.344951 L 3.5894888,28.101489 L 20.76352,28.101489 L 20.76352,44.350271 L 27.32868,44.410511 L 27.290712,28.101489 L 44.410511,28.04125 L 44.410511,21.344951 L 27.264246,21.344951 L 27.268547,3.6478979 L 20.705535,3.5894888 L 20.703386,21.348613 L 3.5894888,21.344951 z"
       id="path4314"
       sodipodi:nodetypes="ccccccccccccc" />
  </g>
</svg>
