<?xml version="1.0" encoding="UTF-8" standalone="no"?>
<!-- Created with Inkscape (http://www.inkscape.org/) -->
<svg
   xmlns:dc="http://purl.org/dc/elements/1.1/"
   xmlns:cc="http://creativecommons.org/ns#"
   xmlns:rdf="http://www.w3.org/1999/02/22-rdf-syntax-ns#"
   xmlns:svg="http://www.w3.org/2000/svg"
   xmlns="http://www.w3.org/2000/svg"
   xmlns:sodipodi="http://sodipodi.sourceforge.net/DTD/sodipodi-0.dtd"
   xmlns:inkscape="http://www.inkscape.org/namespaces/inkscape"
   width="48px"
   height="48px"
   id="svg2160"
   sodipodi:version="0.32"
   inkscape:version="0.46"
   sodipodi:docname="gnome-shutdown.svg"
   sodipodi:docbase="/home/christof/themes_and_icons/meinICONtheme/BRIT ICONS/scalable/actions"
   inkscape:output_extension="org.inkscape.output.svg.inkscape">
  <defs
     id="defs2162">
    <inkscape:perspective
       sodipodi:type="inkscape:persp3d"
       inkscape:vp_x="0 : 24 : 1"
       inkscape:vp_y="0 : 1000 : 0"
       inkscape:vp_z="48 : 24 : 1"
       inkscape:persp3d-origin="24 : 16 : 1"
       id="perspective33" />
  </defs>
  <sodipodi:namedview
     id="base"
     pagecolor="#cd6060"
     bordercolor="#666666"
     borderopacity="1.0"
     inkscape:pageopacity="0.49411765"
     inkscape:pageshadow="2"
     inkscape:zoom="11.313708"
     inkscape:cx="25.265517"
     inkscape:cy="26.502862"
     inkscape:current-layer="layer1"
     showgrid="true"
     inkscape:grid-bbox="true"
     inkscape:document-units="px"
     showguides="true"
     inkscape:guide-bbox="true"
     objecttolerance="10000"
     gridtolerance="10000"
     guidetolerance="10000"
     inkscape:window-width="1680"
     inkscape:window-height="1001"
     inkscape:window-x="0"
     inkscape:window-y="24" />
  <metadata
     id="metadata2165">
    <rdf:RDF>
      <cc:Work
         rdf:about="">
        <dc:format>image/svg+xml</dc:format>
        <dc:type
           rdf:resource="http://purl.org/dc/dcmitype/StillImage" />
      </cc:Work>
    </rdf:RDF>
  </metadata>
  <g
     id="layer1"
     inkscape:label="Layer 1"
     inkscape:groupmode="layer">
    <path
       transform="matrix(0.9180661,0,0,0.9180661,1.9663482,2.2174969)"
       style="fill:#f0f0f0;fill-opacity:1;fill-rule:nonzero;stroke:none;stroke-width:5;stroke-linecap:round;stroke-linejoin:round;stroke-miterlimit:4;stroke-dashoffset:0;stroke-opacity:1;marker:none;marker-start:none;marker-mid:none;marker-end:none;visibility:visible;display:inline;overflow:visible;enable-background:accumulate"
       d="M 24,-2.0625 C 19.793881,-2.0625 16.4375,1.5124247 16.4375,5.625 L 16.4375,20.968083 C 16.4375,25.080658 -2.8748983,36.737973 24.234488,36.808898 C 45.496701,36.864526 31.616842,24.156616 31.616842,20.709456 L 31.5625,5.625 C 31.5625,1.5124247 28.206119,-2.0625 24,-2.0625 z"
       id="path2412"
       sodipodi:nodetypes="cccsccc" />
    <path
       sodipodi:type="inkscape:offset"
       inkscape:radius="3.7133629"
       inkscape:original="M 12.75 12.65625 C 11.897647 12.65625 11.140071 13.02236 10.59375 13.59375 L 10.5625 13.5625 C 7.1235 17.0015 5.3030301 21.756 5 27 C 5 37.488 13.512001 46.000001 24 46 C 34.488 46 43.000001 37.487999 43 27 C 43 21.756 40.8765 17.0015 37.4375 13.5625 C 36.892169 13.000522 36.125575 12.65625 35.28125 12.65625 C 33.625248 12.65625 32.28125 14.00025 32.28125 15.65625 C 32.281249 16.500575 32.625522 17.267169 33.1875 17.8125 C 35.5405 20.1655 37 23.412 37 27 C 37.000001 34.176001 31.176001 40 24 40 C 16.823998 40.000002 11 34.176001 11 27 C 11 23.412 12.4595 20.1655 14.8125 17.8125 C 15.374478 17.267169 15.75 16.500575 15.75 15.65625 C 15.75 14.00025 14.406 12.65625 12.75 12.65625 z "
       style="opacity:1;fill:#f0f0f0;fill-opacity:1;fill-rule:nonzero;stroke:none;stroke-width:5;stroke-linecap:round;stroke-linejoin:round;marker:none;marker-start:none;marker-mid:none;marker-end:none;stroke-miterlimit:4;stroke-dasharray:none;stroke-dashoffset:0;stroke-opacity:1;visibility:visible;display:inline;overflow:visible;enable-background:accumulate"
       id="path2408"
       d="M 12.75,8.9375 C 11.441153,8.9375 10.304936,9.4485235 9.28125,10.09375 C 8.7777802,10.274913 8.319403,10.562731 7.9375,10.9375 C 3.7517701,15.12323 1.6262364,20.811187 1.28125,26.78125 C 1.279102,26.854151 1.279102,26.927099 1.28125,27 C 1.28125,39.497163 11.502838,49.718751 24,49.71875 C 36.497163,49.71875 46.718751,39.497162 46.71875,27 C 46.71875,20.753543 44.171107,15.046107 40.0625,10.9375 C 38.833803,9.6712956 37.134986,8.9375 35.28125,8.9375 C 31.616088,8.9375 28.5625,11.99109 28.5625,15.65625 C 28.562498,17.509992 29.327547,19.240055 30.59375,20.46875 C 32.282038,22.157038 33.28125,24.418996 33.28125,27 C 33.281251,32.166838 29.166839,36.28125 24,36.28125 C 18.833161,36.281251 14.71875,32.166839 14.71875,27 C 14.71875,24.418996 15.749212,22.125788 17.4375,20.4375 C 18.654331,19.256715 19.46875,17.601612 19.46875,15.65625 C 19.46875,11.991087 16.415163,8.9375 12.75,8.9375 z"
       transform="matrix(0.9180661,0,0,0.9180661,1.9663482,2.2174969)" />
    <rect
       style="opacity:1;fill:#373b41;fill-opacity:1;fill-rule:nonzero;stroke:none;stroke-width:5;stroke-linecap:round;stroke-linejoin:round;marker:none;marker-start:none;marker-mid:none;marker-end:none;stroke-miterlimit:4;stroke-dasharray:none;stroke-dashoffset:0;stroke-opacity:1;visibility:visible;display:inline;overflow:visible;enable-background:accumulate"
       id="rect2186"
       width="6.4264627"
       height="22.951653"
       x="20.786703"
       y="4.0536289"
       ry="3.315876" />
    <path
       style="opacity:1;fill:#373b41;fill-opacity:1;fill-rule:nonzero;stroke:none;stroke-width:5;stroke-linecap:round;stroke-linejoin:round;marker:none;marker-start:none;marker-mid:none;marker-end:none;stroke-miterlimit:4;stroke-dasharray:none;stroke-dashoffset:0;stroke-opacity:1;visibility:visible;display:inline;overflow:visible;enable-background:accumulate"
       d="M 13.67169,13.836769 C 12.889175,13.836769 12.193669,14.172883 11.692111,14.697456 L 11.663421,14.668767 C 8.5061918,17.825996 6.8348801,22.190941 6.5566785,27.00528 C 6.5566785,36.633957 14.371258,44.448537 23.999934,44.448536 C 33.628611,44.448536 41.44319,36.633956 41.443189,27.00528 C 41.443189,22.190941 39.493676,17.825996 36.336447,14.668767 C 35.835797,14.152834 35.132013,13.836769 34.356867,13.836769 C 32.836548,13.836769 31.602668,15.07065 31.602668,16.590968 C 31.602667,17.366114 31.918733,18.069898 32.434666,18.570547 C 34.594876,20.730757 35.934793,23.711259 35.934793,27.00528 C 35.934794,33.593322 30.587977,38.940139 23.999934,38.940139 C 17.41189,38.940141 12.065075,33.593322 12.065075,27.00528 C 12.065075,23.711259 13.404992,20.730757 15.565202,18.570547 C 16.081135,18.069898 16.425889,17.366114 16.425889,16.590968 C 16.425889,15.07065 15.192008,13.836769 13.67169,13.836769 z"
       id="path2181" />
    <rect
       style="opacity:1;color:#373b41;fill:#22ad93;fill-opacity:1;fill-rule:evenodd;stroke:none;stroke-width:0;stroke-linecap:butt;stroke-linejoin:round;marker:none;marker-start:none;marker-mid:none;marker-end:none;stroke-miterlimit:4;stroke-dasharray:none;stroke-dashoffset:0;stroke-opacity:1;visibility:visible;display:inline;overflow:visible;enable-background:accumulate"
       id="rect2219"
       width="0"
       height="0"
       x="0"
       y="0" />
  </g>
</svg>
