<?xml version="1.0" encoding="UTF-8" standalone="no"?>
<!-- Generator: Adobe Illustrator 9.0, SVG Export Plug-In  -->
<svg
   xmlns:dc="http://purl.org/dc/elements/1.1/"
   xmlns:cc="http://creativecommons.org/ns#"
   xmlns:rdf="http://www.w3.org/1999/02/22-rdf-syntax-ns#"
   xmlns:svg="http://www.w3.org/2000/svg"
   xmlns="http://www.w3.org/2000/svg"
   xmlns:sodipodi="http://sodipodi.sourceforge.net/DTD/sodipodi-0.dtd"
   xmlns:inkscape="http://www.inkscape.org/namespaces/inkscape"
   width="48"
   height="48"
   viewBox="0 0 48 48"
   xml:space="preserve"
   id="svg2"
   sodipodi:version="0.32"
   inkscape:version="0.46"
   sodipodi:docname="document-print.svg"
   sodipodi:docbase="/home/christof/themes_and_icons/meinICONtheme/BRIT ICONS/scalable/actions"
   version="1.0"
   inkscape:output_extension="org.inkscape.output.svg.inkscape"><metadata
   id="metadata31"><rdf:RDF><cc:Work
       rdf:about=""><dc:format>image/svg+xml</dc:format><dc:type
         rdf:resource="http://purl.org/dc/dcmitype/StillImage" /></cc:Work></rdf:RDF></metadata><defs
   id="defs29"><inkscape:perspective
   sodipodi:type="inkscape:persp3d"
   inkscape:vp_x="0 : 24 : 1"
   inkscape:vp_y="0 : 1000 : 0"
   inkscape:vp_z="48 : 24 : 1"
   inkscape:persp3d-origin="24 : 16 : 1"
   id="perspective14" />
		
	
			
			
			
			
			
			
			
			
			
		
		
	
			
			
			
			
			
			
			
			
			
			
			
		</defs><sodipodi:namedview
   inkscape:window-height="1001"
   inkscape:window-width="1680"
   inkscape:pageshadow="2"
   inkscape:pageopacity="0.0"
   borderopacity="1.0"
   bordercolor="#666666"
   pagecolor="#f0f0f0"
   id="base"
   showgrid="true"
   inkscape:grid-bbox="true"
   inkscape:grid-points="true"
   inkscape:zoom="5.8041683"
   inkscape:cx="36.835653"
   inkscape:cy="10.891039"
   inkscape:window-x="0"
   inkscape:window-y="24"
   inkscape:current-layer="svg2" />
	<g
   transform="matrix(0.8871428,0,0,0.8871428,2.8808627,2.3411165)"
   id="g2387"
   style="fill:#f0f0f0"><g
     id="g2389"
     transform="matrix(1.1139601,0,0,1.1142857,-2.7350427,-2.1984047)"
     style="fill:#f0f0f0"><path
       sodipodi:type="inkscape:offset"
       inkscape:radius="4.5938425"
       inkscape:original="M 7.90625 39.3125 C 7.50625 39.3125 7 39.6 7 40 L 7 42 C 7 42.4 7.6 43 8 43 L 40 43 C 40.4 43 41 42.4 41 42 L 41 40 C 41 39.6 40.212501 39.312501 39.8125 39.3125 L 7.90625 39.3125 z "
       style="fill:#f0f0f0;fill-rule:nonzero;stroke:none;stroke-width:7.43289995000000037;stroke-linejoin:round;stroke-miterlimit:4"
       id="path2405"
       d="M 7.90625,34.71875 C 6.6056419,34.71875 5.6811639,35.032858 4.6875,35.71875 C 3.6938361,36.404642 2.40625,37.861973 2.40625,40 L 2.40625,42 C 2.40625,44.496921 3.3523605,45.16486 4.09375,45.90625 C 4.8351395,46.64764 5.5030787,47.59375 8,47.59375 L 40,47.59375 C 42.496921,47.59375 43.16486,46.64764 43.90625,45.90625 C 44.64764,45.16486 45.59375,44.496921 45.59375,42 L 45.59375,40 C 45.59375,38.392647 44.801024,37.168717 44.1875,36.53125 C 43.573976,35.893783 43.05117,35.600815 42.59375,35.375 C 41.678911,34.923371 41.113094,34.718753 39.8125,34.71875 L 7.90625,34.71875 z" /><path
       sodipodi:type="inkscape:offset"
       inkscape:radius="6.5521321"
       inkscape:original="M 5 24 C 4.5999999 24 4 24.6 4 25 L 4 39 C 4 39.400001 4.6 39.999999 5 40 L 43 40 C 43.399999 40 44 39.399998 44 39 L 44 25 C 43.999999 24.600001 43.4 23.999999 43 24 L 36 24 L 36 27 L 12 27 L 12 24 L 5 24 z "
       style="fill:#f0f0f0;fill-rule:nonzero;stroke:none;stroke-width:7.43289995000000037;stroke-linejoin:round;stroke-miterlimit:4"
       id="path2403"
       d="M 5,17.4375 C 1.5239347,17.4375 0.69092626,18.746574 -0.28125,19.71875 C -1.2534263,20.690926 -2.5625,21.523934 -2.5625,25 L -2.5625,39 C -2.5625,42.476058 -1.2534271,43.309074 -0.28125,44.28125 C 0.69092714,45.253426 1.523953,46.562491 5,46.5625 L 43,46.5625 C 46.476085,46.5625 47.309078,45.253423 48.28125,44.28125 C 49.253422,43.309077 50.5625,42.476087 50.5625,39 L 50.5625,25 C 50.562491,21.52394 49.253424,20.690926 48.28125,19.71875 C 47.309076,18.746574 46.476085,17.437491 43,17.4375 L 36,17.4375 C 33.787514,17.450122 31.730798,18.578377 30.53125,20.4375 L 17.5,20.4375 C 16.294416,18.5691 14.223589,17.439558 12,17.4375 L 5,17.4375 z"
       transform="matrix(0.8976982,0,0,0.8974359,2.455243,1.9729273)" /><path
       style="fill:#f0f0f0;fill-rule:nonzero;stroke:none;stroke-width:7.43289995000000037;stroke-linejoin:round;stroke-miterlimit:4"
       d="M 13.227621,0.23414524 C 9.6436181,0.20731999 5.9647777,2.370606 4.8383706,5.8814618 C 4.0157301,8.2268567 4.3938298,10.738274 4.3067455,13.170787 C 4.3242998,17.39727 4.2710916,21.625995 4.3343451,25.851034 C 4.5512889,28.693261 7.3257421,30.915455 10.139272,30.634786 C 12.183055,30.550006 14.425527,31.002305 16.207509,29.724496 C 27.495623,29.888357 22.361731,25.980219 35.274822,30.634786 C 37.318605,30.550006 39.561077,31.002305 41.343059,29.724496 C 43.09258,28.607152 43.864215,26.476363 43.693254,24.4691 C 43.679806,19.134759 43.720484,13.799327 43.672307,8.4656851 C 43.557296,5.196056 41.467523,2.0454262 38.342218,0.93237927 C 35.877316,-0.098232616 33.179275,0.32284305 30.58535,0.23414524 C 24.79944,0.23414524 19.013531,0.23414524 13.227621,0.23414524 z"
       id="path2401"
       sodipodi:nodetypes="ccccccccccccc" /></g><path
     style="fill:#f0f0f0;fill-rule:nonzero;stroke:#373b41;stroke-width:4.75370979000000027;stroke-linejoin:miter;stroke-miterlimit:4;stroke-dasharray:none"
     d="M 15.756695,21.201593 L 31.79772,21.201593"
     id="path2397"
     sodipodi:nodetypes="cc" /><path
     style="fill:#f0f0f0;fill-rule:nonzero;stroke:#373b41;stroke-width:4.75370979000000027;stroke-linejoin:miter;stroke-miterlimit:4;stroke-dasharray:none"
     d="M 15.688494,13.401593 L 31.79772,13.401593"
     id="path2399"
     sodipodi:nodetypes="cc" /></g><g
   id="g5592"
   transform="matrix(0.8871428,0,0,0.8871428,2.8808627,2.3411165)"><g
     transform="matrix(1.1139601,0,0,1.1142857,-2.7350427,-2.1984047)"
     id="g3095"><path
       style="fill:#373b41;fill-rule:nonzero;stroke:none;stroke-width:7.43289995;stroke-linejoin:round;stroke-miterlimit:4"
       d="M 41,42 C 41,42.4 40.4,43 40,43 L 8,43 C 7.6,43 7,42.4 7,42 L 7,40 C 7,39.6 7.5,39.3 7.9,39.3 L 39.8,39.3 C 40.2,39.3 41,39.6 41,40 L 41,42 z"
       id="path13"
       sodipodi:nodetypes="ccccccccc" /><path
       id="path15"
       transform="matrix(0.8976982,0,0,0.8974359,2.455243,1.9729273)"
       d="M 2.84375,24.53125 C 2.398166,24.53125 1.71875,25.210536 1.71875,25.65625 L 1.71875,41.25 C 1.71875,41.695714 2.398166,42.374999 2.84375,42.375 L 45.15625,42.375 C 45.601834,42.375 46.28125,41.695712 46.28125,41.25 L 46.28125,25.65625 C 46.28125,25.210536 45.601834,24.531249 45.15625,24.53125 L 37.375,24.53125 L 37.375,27.875 L 10.625,27.875 L 10.625,24.53125 L 2.84375,24.53125 z"
       style="fill:#373b41;fill-rule:nonzero;stroke:none;stroke-width:7.43289995;stroke-linejoin:round;stroke-miterlimit:4" /><path
       id="path17"
       transform="matrix(0.8976982,0,0,0.8974359,2.455243,1.9729273)"
       d="M 10.625,2.25 C 7.2831195,2.2500001 6.1875,4.4901786 6.1875,6.71875 L 6.1875,26.78125 L 10.625,26.78125 L 10.625,7.84375 C 10.625,7.8437499 10.63604,6.71875 11.75,6.71875 L 36.25,6.71875 C 37.363962,6.7187501 37.375,7.84375 37.375,7.84375 L 37.375,26.78125 L 41.8125,26.78125 L 41.8125,6.71875 C 41.812501,4.4901786 40.71688,2.25 37.375,2.25 L 10.625,2.25 z"
       style="fill:#373b41;fill-rule:nonzero;stroke:none;stroke-width:7.43289995;stroke-linejoin:round;stroke-miterlimit:4" /></g><path
     sodipodi:nodetypes="cc"
     id="path21"
     d="M 15.756695,21.201593 L 31.79772,21.201593"
     style="fill:none;fill-rule:nonzero;stroke:#373b41;stroke-width:4.75370979;stroke-linejoin:miter;stroke-miterlimit:4;stroke-dasharray:none" /><path
     sodipodi:nodetypes="cc"
     id="path23"
     d="M 15.688494,13.401593 L 31.79772,13.401593"
     style="fill:none;fill-rule:nonzero;stroke:#373b41;stroke-width:4.75370979;stroke-linejoin:miter;stroke-miterlimit:4;stroke-dasharray:none" /></g>
	
</svg>