<?xml version="1.0" encoding="UTF-8" standalone="no"?>
<!-- Created with Inkscape (http://www.inkscape.org/) -->
<svg
   xmlns:dc="http://purl.org/dc/elements/1.1/"
   xmlns:cc="http://creativecommons.org/ns#"
   xmlns:rdf="http://www.w3.org/1999/02/22-rdf-syntax-ns#"
   xmlns:svg="http://www.w3.org/2000/svg"
   xmlns="http://www.w3.org/2000/svg"
   xmlns:xlink="http://www.w3.org/1999/xlink"
   xmlns:sodipodi="http://sodipodi.sourceforge.net/DTD/sodipodi-0.dtd"
   xmlns:inkscape="http://www.inkscape.org/namespaces/inkscape"
   width="48"
   height="48"
   id="svg2"
   sodipodi:version="0.32"
   inkscape:version="0.46"
   version="1.0"
   sodipodi:docbase="/home/christof/themes_and_icons/meinICONtheme/BRIT ICONS/scalable/actions"
   sodipodi:docname="download.svg"
   inkscape:export-filename="/home/jimmac/src/cvs/gnome/gnome-icon-theme/16x16/actions/go-previous.png"
   inkscape:export-xdpi="90"
   inkscape:export-ydpi="90"
   inkscape:output_extension="org.inkscape.output.svg.inkscape">
  <defs
     id="defs4">
    <inkscape:perspective
       sodipodi:type="inkscape:persp3d"
       inkscape:vp_x="0 : 24 : 1"
       inkscape:vp_y="0 : 1000 : 0"
       inkscape:vp_z="48 : 24 : 1"
       inkscape:persp3d-origin="24 : 16 : 1"
       id="perspective16" />
    <linearGradient
       inkscape:collect="always"
       id="linearGradient5105">
      <stop
         style="stop-color:black;stop-opacity:1;"
         offset="0"
         id="stop5107" />
      <stop
         style="stop-color:black;stop-opacity:0;"
         offset="1"
         id="stop5109" />
    </linearGradient>
    <radialGradient
       inkscape:collect="always"
       xlink:href="#linearGradient5105"
       id="radialGradient4354"
       gradientUnits="userSpaceOnUse"
       gradientTransform="matrix(1,0,0,0.282946,0,13.64644)"
       cx="11.25"
       cy="19.03125"
       fx="11.25"
       fy="19.03125"
       r="8.0625" />
  </defs>
  <sodipodi:namedview
     id="base"
     pagecolor="#f0f0f0"
     bordercolor="#666"
     borderopacity="0.17254902"
     inkscape:pageopacity="0.0"
     inkscape:pageshadow="2"
     inkscape:zoom="5.6568539"
     inkscape:cx="29.372022"
     inkscape:cy="6.515826"
     inkscape:document-units="px"
     inkscape:current-layer="layer1"
     width="48px"
     height="48px"
     inkscape:showpageshadow="false"
     showgrid="true"
     inkscape:window-width="1680"
     inkscape:window-height="1001"
     inkscape:window-x="0"
     inkscape:window-y="24"
     objecttolerance="10000"
     gridtolerance="10000"
     guidetolerance="10000" />
  <metadata
     id="metadata7">
    <rdf:RDF>
      <cc:Work
         rdf:about="">
        <dc:format>image/svg+xml</dc:format>
        <dc:type
           rdf:resource="http://purl.org/dc/dcmitype/StillImage" />
        <dc:title>Go down</dc:title>
        <dc:date>August 2006</dc:date>
        <dc:creator>
          <cc:Agent>
            <dc:title>Andreas Nilsson</dc:title>
          </cc:Agent>
        </dc:creator>
        <dc:contributor>
          <cc:Agent>
            <dc:title>Jakub Steiner</dc:title>
          </cc:Agent>
        </dc:contributor>
        <dc:source>http://www.gnome.org</dc:source>
        <dc:subject>
          <rdf:Bag>
            <rdf:li>down</rdf:li>
            <rdf:li>arrow</rdf:li>
            <rdf:li>go</rdf:li>
          </rdf:Bag>
        </dc:subject>
        <cc:license
           rdf:resource="http://creativecommons.org/licenses/GPL/2.0/" />
        <dc:description />
      </cc:Work>
      <cc:License
         rdf:about="http://creativecommons.org/licenses/GPL/2.0/">
        <cc:permits
           rdf:resource="http://web.resource.org/cc/Reproduction" />
        <cc:permits
           rdf:resource="http://web.resource.org/cc/Distribution" />
        <cc:requires
           rdf:resource="http://web.resource.org/cc/Notice" />
        <cc:permits
           rdf:resource="http://web.resource.org/cc/DerivativeWorks" />
        <cc:requires
           rdf:resource="http://web.resource.org/cc/ShareAlike" />
        <cc:requires
           rdf:resource="http://web.resource.org/cc/SourceCode" />
      </cc:License>
    </rdf:RDF>
  </metadata>
  <g
     inkscape:label="Layer 1"
     inkscape:groupmode="layer"
     id="layer1">
    <g
       transform="matrix(0.9087916,0,0,0.82224,2.189012,4.2729908)"
       id="g2389"
       style="fill:#f0f0f0">
      <path
         sodipodi:type="inkscape:offset"
         inkscape:radius="5.1358285"
         inkscape:original="M 16.75 0 L 16.75 0.5 L 16.75 11.96875 L 10.90625 11.96875 L 9.78125 11.96875 L 10.53125 12.8125 L 23.625 27.84375 L 24 28.25 L 24.375 27.8125 L 37.40625 12.8125 L 38.125 11.96875 L 37.03125 11.96875 L 31.28125 11.96875 L 31.28125 0.5 L 31.28125 0 L 30.78125 0 L 17.25 0 L 16.75 0 z "
         style="opacity:1;fill:#f0f0f0;fill-opacity:1;fill-rule:nonzero;stroke:none;stroke-width:0.99999958;stroke-linecap:butt;stroke-linejoin:miter;marker:none;stroke-miterlimit:4;stroke-dasharray:none;stroke-dashoffset:0;stroke-opacity:1;visibility:visible;display:inline;overflow:visible"
         id="path2399"
         d="M 16.25,-5.125 C 13.618996,-4.8617761 11.617704,-2.6441287 11.625,-1.5347704e-15 L 11.625,0.5 L 11.625,6.84375 L 10.90625,6.84375 L 9.78125,6.84375 C 7.7647647,6.847938 5.9372763,8.031666 5.1089402,9.8701681 C 4.2806041,11.70867 4.6046801,13.861784 5.9375,15.375 L 6.6875,16.21875 L 19.75,31.21875 C 19.780845,31.250402 19.812098,31.281655 19.84375,31.3125 L 20.21875,31.71875 C 21.211359,32.802908 22.620898,33.409843 24.090625,33.385945 C 25.560353,33.362047 26.949414,32.709606 27.90625,31.59375 L 28.28125,31.15625 L 41.28125,16.1875 C 41.291711,16.177128 41.302128,16.166711 41.3125,16.15625 L 42.03125,15.3125 C 43.330792,13.788264 43.625713,11.647618 42.786755,9.8287569 C 41.947797,8.0098962 40.128024,6.844662 38.125,6.84375 L 37.03125,6.84375 L 36.40625,6.84375 L 36.40625,0.5 L 36.40625,0 C 36.400012,-2.8278716 34.109122,-5.1187623 31.28125,-5.125 L 30.78125,-5.125 L 17.25,-5.125 L 16.75,-5.125 C 16.583432,-5.1331169 16.416568,-5.1331169 16.25,-5.125 z" />
      <path
         style="fill:#f0f0f0;fill-opacity:1;fill-rule:evenodd;stroke:none;stroke-width:1px;stroke-linecap:butt;stroke-linejoin:miter;stroke-opacity:1"
         d="M 12,21.125 C 7.6194957,21.034627 3.5917713,24.738347 3.3381303,29.116554 C 3.286799,34.234981 3.3138127,39.356607 3.3239389,44.475791 C 3.4631621,48.859896 7.3982718,52.66134 11.777928,52.684665 C 19.999484,52.683802 28.221594,52.700595 36.44288,52.676207 C 40.819701,52.539879 44.660574,48.642139 44.684628,44.254203 C 44.674974,39.208553 44.718758,34.161172 44.66187,29.116554 C 44.407844,24.706506 40.323189,20.988147 35.912022,21.125 C 27.941348,21.125 19.970674,21.125 12,21.125 z"
         id="path2397"
         sodipodi:nodetypes="ccccccccc" />
      <rect
         ry="1.5855423"
         rx="1.6"
         y="37.693974"
         x="26.4"
         height="4.7566266"
         width="7.2000003"
         id="rect2395"
         style="fill:#f0f0f0;fill-opacity:1;fill-rule:evenodd;stroke:none;stroke-width:1px;stroke-linecap:butt;stroke-linejoin:miter;stroke-opacity:1" />
    </g>
    <g
       id="g6971"
       transform="matrix(0.9087916,0,0,0.82224,2.189012,4.2729908)">
      <path
         sodipodi:nodetypes="cccccccccccccccccc"
         id="path4348"
         d="M 16.75,0 L 16.75,0.5 L 16.75,11.96875 L 10.90625,11.96875 L 9.78125,11.96875 L 10.53125,12.8125 L 23.625,27.84375 L 24,28.25 L 24.375,27.8125 L 37.40625,12.8125 L 38.125,11.96875 L 37.03125,11.96875 L 31.28125,11.96875 L 31.28125,0.5 L 31.28125,0 L 30.78125,0 L 17.25,0 L 16.75,0 z"
         style="opacity:1;fill:#373b41;fill-opacity:1;fill-rule:nonzero;stroke:none;stroke-width:0.99999958;stroke-linecap:butt;stroke-linejoin:miter;marker:none;stroke-miterlimit:4;stroke-dasharray:none;stroke-dashoffset:0;stroke-opacity:1;visibility:visible;display:inline;overflow:visible" />
      <path
         id="rect3311"
         d="M 12,25.8125 C 9.8056579,25.8125 8,27.606736 8,29.78125 L 8,44.03125 C 8,46.205763 9.8056579,48 12,48 L 36,48 C 38.194342,48 40,46.205763 40,44.03125 L 40,29.78125 C 40,27.606736 38.194342,25.8125 36,25.8125 L 12,25.8125 z M 13.59375,28.96875 L 34.40625,28.96875 C 36.006248,28.968749 36.8125,29.758208 36.8125,31.34375 L 36.8125,42.4375 C 36.812501,44.023041 36.00625,44.84375 34.40625,44.84375 L 13.59375,44.84375 C 11.99375,44.84375 11.1875,44.023042 11.1875,42.4375 L 11.1875,31.34375 C 11.1875,29.758207 11.99375,28.96875 13.59375,28.96875 z"
         style="fill:#373b41;fill-opacity:1;fill-rule:evenodd;stroke:none;stroke-width:1px;stroke-linecap:butt;stroke-linejoin:miter;stroke-opacity:1" />
      <rect
         style="fill:#373b41;fill-opacity:1;fill-rule:evenodd;stroke:none;stroke-width:1px;stroke-linecap:butt;stroke-linejoin:miter;stroke-opacity:1"
         id="rect5498"
         width="7.2000003"
         height="4.7566266"
         x="26.4"
         y="37.693974"
         rx="1.6"
         ry="1.5855423" />
    </g>
  </g>
</svg>
