<?xml version="1.0" encoding="UTF-8" standalone="no"?>
<!-- Created with Inkscape (http://www.inkscape.org/) -->
<svg
   xmlns:dc="http://purl.org/dc/elements/1.1/"
   xmlns:cc="http://creativecommons.org/ns#"
   xmlns:rdf="http://www.w3.org/1999/02/22-rdf-syntax-ns#"
   xmlns:svg="http://www.w3.org/2000/svg"
   xmlns="http://www.w3.org/2000/svg"
   xmlns:xlink="http://www.w3.org/1999/xlink"
   xmlns:sodipodi="http://sodipodi.sourceforge.net/DTD/sodipodi-0.dtd"
   xmlns:inkscape="http://www.inkscape.org/namespaces/inkscape"
   width="48"
   height="48"
   id="svg2"
   sodipodi:version="0.32"
   inkscape:version="0.46"
   version="1.0"
   sodipodi:docbase="/home/christof/themes_and_icons/meinICONtheme/BRIT ICONS/scalable/actions"
   sodipodi:docname="go-last.svg"
   inkscape:export-filename="/home/jimmac/src/cvs/gnome/gnome-icon-theme/16x16/actions/go-previous.png"
   inkscape:export-xdpi="90"
   inkscape:export-ydpi="90"
   inkscape:output_extension="org.inkscape.output.svg.inkscape">
  <defs
     id="defs4">
    <inkscape:perspective
       sodipodi:type="inkscape:persp3d"
       inkscape:vp_x="0 : 24 : 1"
       inkscape:vp_y="0 : 1000 : 0"
       inkscape:vp_z="48 : 24 : 1"
       inkscape:persp3d-origin="24 : 16 : 1"
       id="perspective15" />
    <linearGradient
       inkscape:collect="always"
       id="linearGradient5105">
      <stop
         style="stop-color:black;stop-opacity:1;"
         offset="0"
         id="stop5107" />
      <stop
         style="stop-color:black;stop-opacity:0;"
         offset="1"
         id="stop5109" />
    </linearGradient>
    <radialGradient
       inkscape:collect="always"
       xlink:href="#linearGradient5105"
       id="radialGradient4354"
       gradientUnits="userSpaceOnUse"
       gradientTransform="matrix(1,0,0,0.282946,0,13.64644)"
       cx="11.25"
       cy="19.03125"
       fx="11.25"
       fy="19.03125"
       r="8.0625" />
  </defs>
  <sodipodi:namedview
     id="base"
     pagecolor="#f0f0f0"
     bordercolor="#373b41"
     borderopacity="1"
     inkscape:pageopacity="0.0"
     inkscape:pageshadow="2"
     inkscape:zoom="11.313709"
     inkscape:cx="29.618653"
     inkscape:cy="17.756814"
     inkscape:document-units="px"
     inkscape:current-layer="layer1"
     width="48px"
     height="48px"
     inkscape:showpageshadow="true"
     showgrid="true"
     inkscape:window-width="1680"
     inkscape:window-height="1000"
     inkscape:window-x="0"
     inkscape:window-y="25"
     showborder="true"
     borderlayer="true" />
  <metadata
     id="metadata7">
    <rdf:RDF>
      <cc:Work
         rdf:about="">
        <dc:format>image/svg+xml</dc:format>
        <dc:type
           rdf:resource="http://purl.org/dc/dcmitype/StillImage" />
        <dc:title>Go first</dc:title>
        <dc:date>August 2006</dc:date>
        <dc:creator>
          <cc:Agent>
            <dc:title>Andreas Nilsson</dc:title>
          </cc:Agent>
        </dc:creator>
        <dc:contributor>
          <cc:Agent>
            <dc:title>Jakub Steiner</dc:title>
          </cc:Agent>
        </dc:contributor>
        <dc:source>http://www.gnome.org</dc:source>
        <dc:subject>
          <rdf:Bag>
            <rdf:li>first</rdf:li>
            <rdf:li>arrow</rdf:li>
            <rdf:li>go</rdf:li>
          </rdf:Bag>
        </dc:subject>
        <cc:license
           rdf:resource="http://creativecommons.org/licenses/GPL/2.0/" />
        <dc:description />
      </cc:Work>
      <cc:License
         rdf:about="http://creativecommons.org/licenses/GPL/2.0/">
        <cc:permits
           rdf:resource="http://web.resource.org/cc/Reproduction" />
        <cc:permits
           rdf:resource="http://web.resource.org/cc/Distribution" />
        <cc:requires
           rdf:resource="http://web.resource.org/cc/Notice" />
        <cc:permits
           rdf:resource="http://web.resource.org/cc/DerivativeWorks" />
        <cc:requires
           rdf:resource="http://web.resource.org/cc/ShareAlike" />
        <cc:requires
           rdf:resource="http://web.resource.org/cc/SourceCode" />
      </cc:License>
    </rdf:RDF>
  </metadata>
  <g
     inkscape:label="Layer 1"
     inkscape:groupmode="layer"
     id="layer1">
    <g
       transform="matrix(-1,0,0,1,48,0)"
       id="g2388"
       style="fill:#f0f0f0">
      <path
         sodipodi:type="inkscape:offset"
         inkscape:radius="3.6784847"
         inkscape:original="M 29 8.34375 L 28.15625 9.0625 L 9.15625 25.5625 L 8.71875 25.9375 L 9.15625 26.3125 L 28.15625 42.75 L 29 43.46875 L 29 42.375 L 29 35 L 43.5 35 L 44 35 L 44 34.5 L 44 17.4375 L 44 16.9375 L 43.5 16.9375 L 29 16.9375 L 29 9.4375 L 29 8.34375 z "
         style="opacity:1;fill:#f0f0f0;fill-opacity:1;fill-rule:nonzero;stroke:none;stroke-width:0.99999958000000000;stroke-linecap:butt;stroke-linejoin:miter;marker:none;stroke-miterlimit:4;stroke-dasharray:none;stroke-dashoffset:0;stroke-opacity:1;visibility:visible;display:inline;overflow:visible"
         id="path2394"
         d="M 28.90625,4.65625 C 28.068356,4.679511 27.263528,4.9882121 26.625,5.53125 L 25.78125,6.25 C 25.770771,6.260354 25.760354,6.2707709 25.75,6.28125 L 6.75,22.78125 L 6.3125,23.15625 C 5.5054149,23.855031 5.0416766,24.869942 5.0416766,25.9375 C 5.0416766,27.005058 5.5054149,28.019969 6.3125,28.71875 L 6.75,29.09375 L 25.75,45.53125 C 25.760354,45.541729 25.770771,45.552146 25.78125,45.5625 L 26.625,46.28125 C 27.718849,47.211733 29.254144,47.420661 30.556858,46.81631 C 31.859571,46.211958 32.691536,44.904817 32.6875,43.46875 L 32.6875,42.375 L 32.6875,38.6875 L 43.5,38.6875 L 44,38.6875 C 44.97869,38.689803 45.917959,38.30204 46.609999,37.609999 C 47.30204,36.917959 47.689803,35.97869 47.6875,35 L 47.6875,34.5 L 47.6875,17.4375 L 47.6875,16.9375 C 47.689803,15.95881 47.30204,15.019541 46.609999,14.327501 C 45.917959,13.63546 44.97869,13.247697 44,13.25 L 43.5,13.25 L 32.6875,13.25 L 32.6875,9.4375 L 32.6875,8.34375 C 32.690225,7.348555 32.289637,6.3947137 31.577148,5.6998899 C 30.864659,5.005066 29.901063,4.6285458 28.90625,4.65625 z" />
      <path
         sodipodi:type="inkscape:offset"
         inkscape:radius="3.8293684"
         inkscape:original="M 4 9 L 4 9.5 L 4 42.5 L 4 43 L 4.5 43 L 8.5 43 L 9 43 L 9 42.5 L 9 9.5 L 9 9 L 8.5 9 L 4.5 9 L 4 9 z "
         style="fill:#f0f0f0;fill-opacity:1;fill-rule:nonzero;stroke:none;stroke-width:0.99999981999999998;stroke-linecap:butt;stroke-linejoin:miter;marker:none;stroke-miterlimit:4;stroke-dasharray:none;stroke-dashoffset:0;stroke-opacity:1;visibility:visible;display:inline;overflow:visible"
         id="path2396"
         d="M 4,5.15625 C 2.979433,5.1525127 1.9995872,5.5562778 1.2779325,6.2779325 C 0.55627782,6.9995872 0.1525127,7.979433 0.15625,9 L 0.15625,9.5 L 0.15625,42.5 L 0.15625,43 C 0.1525127,44.020567 0.55627782,45.000413 1.2779325,45.722067 C 1.9995872,46.443722 2.979433,46.847487 4,46.84375 L 4.5,46.84375 L 8.5,46.84375 L 9,46.84375 C 10.020567,46.847487 11.000413,46.443722 11.722067,45.722067 C 12.443722,45.000413 12.847487,44.020567 12.84375,43 L 12.84375,42.5 L 12.84375,9.5 L 12.84375,9 C 12.847487,7.979433 12.443722,6.9995872 11.722067,6.2779325 C 11.000413,5.5562778 10.020567,5.1525127 9,5.15625 L 8.5,5.15625 L 4.5,5.15625 L 4,5.15625 z" />
    </g>
    <g
       id="g3705"
       transform="matrix(-1,0,0,1,48,0)">
      <path
         sodipodi:nodetypes="cccccccccccccccccc"
         id="path4348"
         d="M 29,8.34375 L 28.15625,9.0625 L 9.15625,25.5625 L 8.71875,25.9375 L 9.15625,26.3125 L 28.15625,42.75 L 29,43.46875 L 29,42.375 L 29,35 L 43.5,35 L 44,35 L 44,34.5 L 44,17.4375 L 44,16.9375 L 43.5,16.9375 L 29,16.9375 L 29,9.4375 L 29,8.34375 z "
         style="opacity:1;color:#373b41;fill:#373b41;fill-opacity:1;fill-rule:nonzero;stroke:none;stroke-width:0.99999958;stroke-linecap:butt;stroke-linejoin:miter;marker:none;stroke-miterlimit:4;stroke-dasharray:none;stroke-dashoffset:0;stroke-opacity:1;visibility:visible;display:inline;overflow:visible" />
      <path
         sodipodi:nodetypes="ccccccccccccc"
         id="rect4242"
         d="M 9,9 L 8.5,9 L 4.5,9 L 4,9 L 4,9.5 L 4,42.5 L 4,43 L 4.5,43 L 8.5,43 L 9,43 L 9,42.5 L 9,9.5 L 9,9 z "
         style="color:#373b41;fill:#373b41;fill-opacity:1;fill-rule:nonzero;stroke:none;stroke-width:0.99999982;stroke-linecap:butt;stroke-linejoin:miter;marker:none;stroke-miterlimit:4;stroke-dasharray:none;stroke-dashoffset:0;stroke-opacity:1;visibility:visible;display:inline;overflow:visible" />
    </g>
  </g>
</svg>
