<?xml version="1.0" encoding="UTF-8" standalone="no"?>
<!-- Created with Inkscape (http://www.inkscape.org/) -->
<svg
   xmlns:dc="http://purl.org/dc/elements/1.1/"
   xmlns:cc="http://creativecommons.org/ns#"
   xmlns:rdf="http://www.w3.org/1999/02/22-rdf-syntax-ns#"
   xmlns:svg="http://www.w3.org/2000/svg"
   xmlns="http://www.w3.org/2000/svg"
   xmlns:sodipodi="http://sodipodi.sourceforge.net/DTD/sodipodi-0.dtd"
   xmlns:inkscape="http://www.inkscape.org/namespaces/inkscape"
   width="128"
   height="128"
   id="svg2"
   sodipodi:version="0.32"
   inkscape:version="0.46"
   version="1.0"
   sodipodi:docbase="/home/christof/themes_and_icons/meinICONtheme/BRIT ICONS/scalable/actions"
   sodipodi:docname="folder-new.svg"
   inkscape:output_extension="org.inkscape.output.svg.inkscape">
  <defs
     id="defs4">
    <inkscape:perspective
       sodipodi:type="inkscape:persp3d"
       inkscape:vp_x="0 : 64 : 1"
       inkscape:vp_y="0 : 1000 : 0"
       inkscape:vp_z="128 : 64 : 1"
       inkscape:persp3d-origin="64 : 42.666667 : 1"
       id="perspective11" />
  </defs>
  <sodipodi:namedview
     id="base"
     pagecolor="#f0f0f0"
     bordercolor="#373b41"
     borderopacity="1"
     inkscape:pageopacity="0.0"
     inkscape:pageshadow="2"
     inkscape:zoom="2.8"
     inkscape:cx="80.451545"
     inkscape:cy="43.284181"
     inkscape:document-units="px"
     inkscape:current-layer="layer1"
     width="128px"
     height="128px"
     showgrid="true"
     inkscape:window-width="1680"
     inkscape:window-height="1000"
     inkscape:window-x="0"
     inkscape:window-y="25" />
  <metadata
     id="metadata7">
    <rdf:RDF>
      <cc:Work
         rdf:about="">
        <dc:format>image/svg+xml</dc:format>
        <dc:type
           rdf:resource="http://purl.org/dc/dcmitype/StillImage" />
      </cc:Work>
    </rdf:RDF>
  </metadata>
  <g
     inkscape:label="Ebene 1"
     inkscape:groupmode="layer"
     id="layer1">
    <path
       id="path10952"
       style="fill:#f0f0f0;fill-opacity:1;fill-rule:nonzero;stroke:none;stroke-width:18;stroke-linejoin:miter;stroke-miterlimit:4;stroke-opacity:1"
       d="M 36.239465,22.558957 L 91.760535,22.558957 C 111.36165,22.558957 127.14161,39.236859 127.14161,59.953354 L 127.14161,68.007533 C 127.14161,88.724034 111.36165,105.40192 91.760535,105.40192 L 36.239465,105.40192 C 16.638351,105.40192 0.85839362,88.724034 0.85839362,68.007533 L 0.85839362,59.953354 C 0.85839362,39.236859 16.638351,22.558957 36.239465,22.558957 z M 0.85839362,22.558957 L 72.98135,22.558957 L 72.98135,67.966442 L 0.85839362,67.966442 L 0.85839362,22.558957 z M 55.018645,60.03357 L 127.14161,60.03357 L 127.14161,105.44104 L 55.018645,105.44104 L 55.018645,60.03357 z " />
    <path
       id="rect10941"
       style="fill:#373b41;fill-opacity:1;fill-rule:nonzero;stroke:none;stroke-width:18;stroke-linejoin:miter;stroke-miterlimit:4;stroke-opacity:1"
       d="M 38.952657,28.622347 L 89.047343,28.622347 C 106.73273,28.622347 120.97043,42.860043 120.97043,60.545431 L 120.97043,67.421172 C 120.97043,85.106561 106.73273,99.344256 89.047343,99.344256 L 38.952657,99.344256 C 21.267269,99.344256 7.0295735,85.106561 7.0295735,67.421172 L 7.0295735,60.545431 C 7.0295735,42.860043 21.267269,28.622347 38.952657,28.622347 z M 7.0295735,28.622347 L 72.103552,28.622347 L 72.103552,67.386093 L 7.0295735,67.386093 L 7.0295735,28.622347 z M 55.896448,60.613911 L 120.97043,60.613911 L 120.97043,99.377653 L 55.896448,99.377653 L 55.896448,60.613911 z " />
    <path
       style="fill:#f0f0f0;fill-opacity:1;fill-rule:evenodd;stroke:none;stroke-width:15;stroke-linecap:butt;stroke-linejoin:miter;stroke-miterlimit:100;stroke-dasharray:none;stroke-opacity:1"
       d="M 56.5,38.40625 L 56.5,89.59375 L 71.5,89.59375 L 71.5,38.40625 L 56.5,38.40625 z"
       id="path4483" />
    <path
       style="fill:#f0f0f0;fill-opacity:1;fill-rule:evenodd;stroke:none;stroke-width:15;stroke-linecap:butt;stroke-linejoin:miter;stroke-miterlimit:100;stroke-dasharray:none;stroke-opacity:1"
       d="M 38.40625,56.5 L 38.40625,71.5 L 89.59375,71.5 L 89.59375,56.5 L 38.40625,56.5 z"
       id="path4485" />
  </g>
</svg>
