<?xml version="1.0" encoding="UTF-8" standalone="no"?>
<!-- Created with Inkscape (http://www.inkscape.org/) -->
<svg
   xmlns:dc="http://purl.org/dc/elements/1.1/"
   xmlns:cc="http://creativecommons.org/ns#"
   xmlns:rdf="http://www.w3.org/1999/02/22-rdf-syntax-ns#"
   xmlns:svg="http://www.w3.org/2000/svg"
   xmlns="http://www.w3.org/2000/svg"
   xmlns:sodipodi="http://sodipodi.sourceforge.net/DTD/sodipodi-0.dtd"
   xmlns:inkscape="http://www.inkscape.org/namespaces/inkscape"
   width="48"
   height="48"
   id="svg1306"
   sodipodi:version="0.32"
   inkscape:version="0.46"
   sodipodi:docbase="/home/qwerty/.icons/MonoBlack/scalable/actions"
   sodipodi:docname="format-text-direction-rtl.svg"
   inkscape:export-filename="/home/lapo/Desktop/insert-link-16.png"
   inkscape:export-xdpi="90.000031"
   inkscape:export-ydpi="90.000031"
   version="1.0"
   inkscape:output_extension="org.inkscape.output.svg.inkscape">
  <defs
     id="defs1308">
    <inkscape:perspective
       sodipodi:type="inkscape:persp3d"
       inkscape:vp_x="0 : 24 : 1"
       inkscape:vp_y="0 : 1000 : 0"
       inkscape:vp_z="48 : 24 : 1"
       inkscape:persp3d-origin="24 : 16 : 1"
       id="perspective17" />
    <linearGradient
       id="linearGradient3384">
      <stop
         style="stop-color:white;stop-opacity:1"
         offset="0"
         id="stop3386" />
      <stop
         style="stop-color:#eeeeec;stop-opacity:1"
         offset="1"
         id="stop3388" />
    </linearGradient>
    <linearGradient
       id="linearGradient3269">
      <stop
         id="stop3271"
         offset="0"
         style="stop-color:#fecb81;stop-opacity:1" />
      <stop
         id="stop3273"
         offset="1"
         style="stop-color:#fcaf3e;stop-opacity:1" />
    </linearGradient>
  </defs>
  <sodipodi:namedview
     id="base"
     pagecolor="#f0f0f0"
     bordercolor="#666"
     borderopacity="1"
     inkscape:pageopacity="0.0"
     inkscape:pageshadow="2"
     inkscape:zoom="5.6568545"
     inkscape:cx="18.021519"
     inkscape:cy="33.996977"
     inkscape:current-layer="layer1"
     showgrid="false"
     inkscape:grid-bbox="true"
     inkscape:document-units="px"
     fill="#fcaf3e"
     stroke="#555753"
     showguides="true"
     inkscape:guide-bbox="true"
     inkscape:window-width="1085"
     inkscape:window-height="760"
     inkscape:window-x="193"
     inkscape:window-y="175"
     inkscape:showpageshadow="false"
     showborder="true"
     inkscape:grid-points="true"
     width="48px"
     height="48px"
     objecttolerance="10000"
     gridtolerance="10000"
     guidetolerance="10000">
    <inkscape:grid
       id="GridFromPre046Settings"
       type="xygrid"
       originx="0px"
       originy="0px"
       spacingx="0.5px"
       spacingy="0.5px"
       color="#0000ff"
       empcolor="#0000ff"
       opacity="0.2"
       empopacity="0.4"
       empspacing="2" />
  </sodipodi:namedview>
  <metadata
     id="metadata1311">
    <rdf:RDF>
      <cc:Work
         rdf:about="">
        <dc:format>image/svg+xml</dc:format>
        <dc:type
           rdf:resource="http://purl.org/dc/dcmitype/StillImage" />
        <dc:title>Insert Text</dc:title>
        <dc:creator>
          <cc:Agent>
            <dc:title>Lapo Calamandrei</dc:title>
          </cc:Agent>
        </dc:creator>
        <dc:source>http://www.gnome.org</dc:source>
        <dc:contributor>
          <cc:Agent>
            <dc:title />
          </cc:Agent>
        </dc:contributor>
        <cc:license
           rdf:resource="http://creativecommons.org/licenses/GPL/2.0/" />
        <dc:subject>
          <rdf:Bag>
            <rdf:li>insert</rdf:li>
            <rdf:li>text</rdf:li>
            <rdf:li>generic</rdf:li>
          </rdf:Bag>
        </dc:subject>
      </cc:Work>
      <cc:License
         rdf:about="http://creativecommons.org/licenses/GPL/2.0/">
        <cc:permits
           rdf:resource="http://web.resource.org/cc/Reproduction" />
        <cc:permits
           rdf:resource="http://web.resource.org/cc/Distribution" />
        <cc:requires
           rdf:resource="http://web.resource.org/cc/Notice" />
        <cc:permits
           rdf:resource="http://web.resource.org/cc/DerivativeWorks" />
        <cc:requires
           rdf:resource="http://web.resource.org/cc/ShareAlike" />
        <cc:requires
           rdf:resource="http://web.resource.org/cc/SourceCode" />
      </cc:License>
    </rdf:RDF>
  </metadata>
  <g
     id="layer1"
     inkscape:label="Layer 1"
     inkscape:groupmode="layer">
    <path
       sodipodi:type="inkscape:offset"
       inkscape:radius="-0.82066518"
       inkscape:original="M 6.0625 6.40625 C 4.9021332 6.5252366 3.9154066 7.3048724 3.53125 8.40625 L -2.84375 26.4375 C -3.1665883 27.358192 -3.0340723 28.392321 -2.46875 29.1875 C -1.9034278 29.982678 -0.97564971 30.439952 0 30.4375 L 4.46875 30.4375 C 5.7616103 30.433203 6.9068583 29.602583 7.3125 28.375 L 7.71875 27.15625 L 10.34375 27.15625 L 10.75 28.375 C 11.155642 29.602583 12.30089 30.433203 13.59375 30.4375 L 18.09375 30.4375 C 18.389983 30.439183 18.684838 30.397061 18.96875 30.3125 C 18.979167 30.312554 18.989583 30.312554 19 30.3125 C 19.293935 30.400167 19.599558 30.442322 19.90625 30.4375 L 24.0625 30.4375 C 24.518029 30.434147 24.966836 30.327288 25.375 30.125 C 26.39667 30.56147 27.479405 30.8125 28.59375 30.8125 C 31.041078 30.8125 33.421947 29.570644 34.90625 27.65625 C 35.077738 27.433715 35.13139 27.141767 35.28125 26.90625 C 35.569265 27.295292 35.707318 27.786069 36.0625 28.125 C 38.034735 29.994909 40.75366 30.8125 43.625 30.8125 C 44.563718 30.8125 45.396696 30.679058 46.15625 30.53125 C 46.933143 30.391139 47.781627 30.224681 48.6875 29.875 C 49.842704 29.421053 50.600035 28.303679 50.59375 27.0625 L 50.59375 23.5 C 50.595061 22.250985 49.823747 21.131336 48.65625 20.6875 C 49.823747 20.243664 50.595061 19.124015 50.59375 17.875 L 50.59375 14.34375 C 50.595061 13.094735 49.823747 11.975086 48.65625 11.53125 C 47.830332 11.2162 46.98115 10.968716 46.125 10.8125 C 45.277615 10.645677 44.475941 10.593769 43.625 10.59375 C 40.760589 10.593768 38.039916 11.394356 36.0625 13.28125 C 35.712371 13.613219 35.566325 14.08755 35.28125 14.46875 C 35.134321 14.240276 35.073598 13.96585 34.90625 13.75 C 33.418969 11.820085 31.030936 10.593773 28.59375 10.59375 C 28.084854 10.593758 27.5699 10.660865 27.0625 10.75 L 27.0625 9.59375 C 27.059471 7.9381521 25.718098 6.5967793 24.0625 6.59375 L 19.90625 6.59375 C 18.250652 6.5967793 16.909279 7.9381521 16.90625 9.59375 L 16.90625 15.09375 L 14.53125 8.40625 C 14.104216 7.2033454 12.963946 6.4013974 11.6875 6.40625 L 6.375 6.40625 C 6.2709038 6.4008309 6.1665962 6.4008309 6.0625 6.40625 z M 44.125 19.6875 C 44.443974 19.687506 44.679427 19.734505 44.90625 19.8125 C 45.144476 19.893321 45.492321 20.060737 45.84375 20.3125 C 46.065298 20.469387 46.30708 20.595534 46.5625 20.6875 C 46.257833 20.797273 45.97291 20.955564 45.71875 21.15625 C 45.472817 21.353203 45.232296 21.482572 45 21.5625 C 44.989583 21.562446 44.979167 21.562446 44.96875 21.5625 C 44.697087 21.657218 44.427835 21.718751 44.125 21.71875 C 43.596905 21.718751 43.725834 21.700384 43.65625 21.625 C 43.609659 21.573332 43.468749 21.430327 43.46875 20.6875 C 43.46875 19.944692 43.602618 19.840053 43.65625 19.78125 C 43.718376 19.713173 43.582919 19.687505 44.125 19.6875 z "
       style="font-size:17.50059891000000079px;font-style:normal;font-weight:bold;fill:#f0f0f0;fill-opacity:1;stroke:none;stroke-width:1px;stroke-linecap:butt;stroke-linejoin:miter;stroke-opacity:1;font-family:Bitstream Vera Sans"
       id="path2418"
       d="M 6.15625,7.21875 C 5.310793,7.305445 4.592401,7.8850233 4.3125,8.6875 L -2.0625,26.71875 C -2.2986405,27.392191 -2.2182198,28.148067 -1.8125,28.71875 C -1.4067805,29.289432 -0.71792141,29.626804 0,29.625 L 4.46875,29.625 C 5.4117267,29.621866 6.235386,29.020365 6.53125,28.125 L 6.9375,26.90625 C 7.0490684,26.569675 7.3641667,26.342804 7.71875,26.34375 L 10.34375,26.34375 C 10.698333,26.342804 11.013432,26.569675 11.125,26.90625 L 11.53125,28.125 C 11.827114,29.020366 12.650774,29.621866 13.59375,29.625 L 18.09375,29.625 C 18.309098,29.626223 18.54361,29.592722 18.75,29.53125 C 18.821175,29.51102 18.894758,29.500508 18.96875,29.5 C 18.976331,29.500039 18.992419,29.500039 19,29.5 C 19.084445,29.497488 19.168772,29.508029 19.25,29.53125 C 19.463677,29.59498 19.6833,29.628505 19.90625,29.625 L 24.0625,29.625 C 24.393664,29.622562 24.703268,29.522062 25,29.375 C 25.218125,29.274395 25.469375,29.274395 25.6875,29.375 C 26.621081,29.773837 27.602653,30 28.59375,30 C 30.763456,30 32.920781,28.870623 34.25,27.15625 C 34.260175,27.143046 34.326614,26.888576 34.59375,26.46875 C 34.736942,26.242263 34.981679,26.099935 35.249345,26.087486 C 35.517012,26.075036 35.773903,26.194032 35.9375,26.40625 C 36.347282,26.959771 36.479238,27.392157 36.625,27.53125 C 38.410626,29.224232 40.909445,30 43.625,30 C 44.485944,30 45.259966,29.862759 46,29.71875 C 46.767875,29.580265 47.579361,29.444192 48.40625,29.125 C 49.248438,28.794055 49.785832,27.967367 49.78125,27.0625 L 49.78125,23.5 C 49.782206,22.58936 49.226206,21.792345 48.375,21.46875 C 48.035775,21.359527 47.805797,21.043875 47.805797,20.6875 C 47.805797,20.331125 48.035775,20.015473 48.375,19.90625 C 49.226206,19.582655 49.782206,18.78564 49.78125,17.875 L 49.78125,14.34375 C 49.782206,13.43311 49.226206,12.636095 48.375,12.3125 C 47.590383,12.013205 46.768599,11.770943 45.96875,11.625 C 45.185958,11.470893 44.442578,11.406268 43.625,11.40625 C 40.9135,11.406267 38.414295,12.167615 36.625,13.875 C 36.475425,14.016817 36.337608,14.433729 35.9375,14.96875 C 35.773903,15.180968 35.517012,15.299964 35.249345,15.287514 C 34.981679,15.275065 34.736942,15.132737 34.59375,14.90625 C 34.340753,14.512841 34.269871,14.27563 34.25,14.25 C 32.919381,12.523371 30.755653,11.40627 28.59375,11.40625 C 28.156992,11.406257 27.702089,11.477592 27.21875,11.5625 C 26.978263,11.606594 26.730639,11.541176 26.543308,11.38406 C 26.355978,11.226944 26.248448,10.994491 26.25,10.75 L 26.25,9.59375 C 26.24778,8.38061 25.27564,7.4084697 24.0625,7.40625 L 19.90625,7.40625 C 18.69311,7.4084697 17.72097,8.38061 17.71875,9.59375 L 17.71875,15.09375 C 17.721409,15.494061 17.434883,15.83789 17.040655,15.90746 C 16.646427,15.97703 16.259521,15.752041 16.125,15.375 L 13.75,8.6875 C 13.43858,7.8102666 12.618365,7.2152112 11.6875,7.21875 L 6.375,7.21875 C 6.3645843,7.2189483 6.3541657,7.2189483 6.34375,7.21875 C 6.2869958,7.2157955 6.2130474,7.2172727 6.15625,7.21875 z M 44.125,18.875 C 44.52458,18.875008 44.891399,18.929433 45.1875,19.03125 C 45.522085,19.144762 45.892676,19.355489 46.3125,19.65625 C 46.473555,19.770299 46.658071,19.839395 46.84375,19.90625 C 47.182975,20.015473 47.412953,20.331125 47.412953,20.6875 C 47.412953,21.043875 47.182975,21.359527 46.84375,21.46875 C 46.622271,21.54855 46.403515,21.666609 46.21875,21.8125 C 45.905903,22.063041 45.606364,22.231885 45.28125,22.34375 C 45.270834,22.343948 45.260416,22.343948 45.25,22.34375 C 45.199054,22.35921 45.146724,22.369676 45.09375,22.375 C 45.057049,22.3864 45.006519,22.364483 44.96875,22.375 C 44.70594,22.44818 44.436435,22.531251 44.125,22.53125 C 43.851438,22.531251 43.823757,22.585877 43.46875,22.46875 C 43.302592,22.41393 43.038055,22.17031 42.96875,22.0625 C 42.970244,22.065031 43.000418,22.120244 43.0625,22.1875 C 43.052084,22.187698 43.041666,22.187698 43.03125,22.1875 C 43.03127,22.187522 42.98722,22.088146 42.96875,22.0625 C 42.964018,22.055139 42.940271,22.03699 42.9375,22.03125 C 42.870471,21.935403 42.802749,21.829802 42.75,21.65625 C 42.674352,21.407358 42.656249,21.110805 42.65625,20.6875 C 42.65625,20.266796 42.66946,19.972096 42.75,19.71875 C 42.79389,19.580691 42.836432,19.537658 42.90625,19.4375 C 42.909538,19.428762 42.961286,19.418876 42.96875,19.40625 C 43.042639,19.281253 43.269292,18.997769 43.4375,18.9375 C 43.807898,18.804787 43.841006,18.875003 44.125,18.875 z"
       transform="matrix(0.9174794,0,0,0.9174794,1.963458,6.5224413e-2)" />
    <g
       id="g3362"
       transform="matrix(0,1,-1.6541291,0,75.6202,14.999998)"
       style="fill:#373b41;fill-opacity:1;stroke:none;stroke-opacity:1" />
    <path
       style="font-size:17.50059891px;font-style:normal;font-weight:bold;fill:#373b41;fill-opacity:1;stroke:none;stroke-width:1px;stroke-linecap:butt;stroke-linejoin:miter;stroke-opacity:1;font-family:Bitstream Vera Sans"
       d="M 13.452988,22.232633 L 7.0722709,22.232633 L 6.0653455,25.2482 L 1.963458,25.2482 L 7.8248105,8.6958444 L 12.689843,8.6958444 L 18.551195,25.2482 L 14.449308,25.2482 L 13.452988,22.232633 M 8.0897889,18.884134 L 12.424865,18.884134 L 10.262617,12.576167 L 8.0897889,18.884134 M 26.78676,22.687186 C 27.599367,22.687189 28.217641,22.376763 28.641622,21.755909 C 29.072643,21.135059 29.28816,20.233346 29.288173,19.050767 C 29.28816,17.868199 29.072643,16.966486 28.641622,16.345625 C 28.217641,15.724783 27.599367,15.414359 26.78676,15.414349 C 25.974154,15.414359 25.110945,15.728478 24.672858,16.356713 C 24.241812,16.977573 24.026295,17.87559 24.026307,19.050767 C 24.026295,20.225957 24.241812,21.127669 24.672858,21.755909 C 25.110945,22.376763 25.974154,22.687189 26.78676,22.687186 M 24.026307,14.649369 C 24.549186,13.925054 25.366472,13.392895 26.002431,13.052892 C 26.638364,12.705525 27.369706,12.531834 28.196456,12.53182 C 29.659139,12.531834 30.860372,13.141598 31.80019,14.361118 C 32.73997,15.573266 33.209859,17.136482 33.209873,19.050767 C 33.209859,20.965064 32.73997,22.531976 31.80019,23.751503 C 30.860372,24.963643 29.659139,25.569713 28.196456,25.569713 C 27.369706,25.569713 26.638364,25.399718 26.002431,25.059728 C 25.366472,24.712347 24.549186,24.176493 24.026307,23.452163 L 24.026307,25.2482 L 20.231794,25.2482 L 20.231794,8.8695251 L 24.026307,8.8695251 L 24.026307,14.649369 M 45.621524,13.219193 L 45.621524,16.456491 C 45.105686,16.086946 44.586335,15.813476 44.063445,15.63608 C 43.547607,15.458704 43.010584,15.370011 42.452376,15.37 C 41.39245,15.370011 40.565712,15.695219 39.972162,16.345625 C 39.385665,16.98866 39.092423,17.890372 39.092423,19.050767 C 39.092423,20.211173 39.385665,21.116581 39.972162,21.766994 C 40.565712,22.410022 41.39245,22.731534 42.452376,22.731531 C 43.045913,22.731534 43.607673,22.639145 44.137642,22.454366 C 44.674652,22.269592 45.169292,21.996121 45.621524,21.633954 L 45.621524,24.882341 C 45.027961,25.111464 44.423806,25.28146 43.809071,25.392326 C 43.201377,25.510584 42.590154,25.569713 41.975407,25.569713 C 39.83437,25.569713 38.159697,24.996904 36.951386,23.851284 C 35.743088,22.698275 35.138932,21.098105 35.138932,19.050767 C 35.138932,17.003441 35.743088,15.406967 36.951386,14.261338 C 38.159697,13.108338 39.83437,12.531834 41.975407,12.53182 C 42.597221,12.531834 43.208442,12.590963 43.809071,12.709207 C 44.41674,12.820085 45.020895,12.990081 45.621524,13.219193"
       id="text3378"
       sodipodi:nodetypes="ccccccccccccccsssssssccsssssssccccccccsssssssccsssssssc" />
    <g
       id="g2399"
       style="fill:#f0f0f0"
       transform="matrix(0.9174794,0,0,0.9174794,1.963458,6.5224413e-2)">
      <path
         sodipodi:type="inkscape:offset"
         inkscape:radius="2.563262"
         inkscape:original="M 16.90625 30.5 C 11.943868 33.333335 6.9623823 36.166662 2 39 C 6.9623823 41.833334 11.943869 44.666667 16.90625 47.5 C 16.90625 41.833331 16.906251 36.16667 16.90625 30.5 z "
         style="fill:#f0f0f0;fill-opacity:1;fill-rule:nonzero;stroke:none;stroke-width:0.77752703000000001;stroke-linecap:round;stroke-linejoin:round;marker:none;marker-start:none;marker-mid:none;marker-end:none;stroke-miterlimit:4;stroke-dashoffset:1.39999999999999991;stroke-opacity:1;visibility:visible;display:inline;overflow:visible"
         id="path2416"
         d="M 16.84375,27.9375 C 16.415146,27.948364 15.996112,28.066553 15.625,28.28125 C 10.66508,31.113179 5.6835947,33.946506 0.71875,36.78125 C -0.073116261,37.239523 -0.56072215,38.085087 -0.56072215,39 C -0.56072215,39.914913 -0.073116261,40.760477 0.71875,41.21875 C 5.6835925,44.053489 10.665079,46.886822 15.625,49.71875 C 16.417856,50.175779 17.39422,50.175486 18.186801,49.717979 C 18.979382,49.260473 19.467964,48.415148 19.46875,47.5 C 19.46875,41.833331 19.468751,36.166671 19.46875,30.5 C 19.468674,29.809502 19.190046,29.148232 18.695943,28.665893 C 18.201841,28.183555 17.53405,27.92094 16.84375,27.9375 L 16.84375,27.9375 z" />
      <path
         sodipodi:type="inkscape:offset"
         inkscape:radius="2.1213202"
         inkscape:original="M 16.5 35 L 16.5 42 L 47.5 42 L 47.5 35 L 16.5 35 z "
         style="opacity:1;fill:#f0f0f0;fill-opacity:1;fill-rule:nonzero;stroke:none;stroke-width:4;stroke-linecap:round;stroke-linejoin:round;marker:none;marker-start:none;marker-mid:none;marker-end:none;stroke-miterlimit:4;stroke-dasharray:none;stroke-dashoffset:0;stroke-opacity:1;visibility:visible;display:inline;overflow:visible;enable-background:accumulate"
         id="path2409"
         d="M 16.28125,32.875 C 15.193024,32.985975 14.367568,33.906155 14.375,35 L 14.375,42 C 14.374078,42.563867 14.597665,43.104905 14.99638,43.50362 C 15.395095,43.902335 15.936133,44.125922 16.5,44.125 L 47.5,44.125 C 48.063867,44.125922 48.604905,43.902335 49.00362,43.50362 C 49.402335,43.104905 49.625922,42.563867 49.625,42 L 49.625,35 C 49.625922,34.436133 49.402335,33.895095 49.00362,33.49638 C 48.604905,33.097665 48.063867,32.874078 47.5,32.875 L 16.5,32.875 C 16.427132,32.871238 16.354118,32.871238 16.28125,32.875 z" />
    </g>
    <g
       id="g2395"
       transform="matrix(0.9174794,0,0,0.9174794,1.963458,6.5224413e-2)">
      <path
         style="fill:#373b41;fill-opacity:1;fill-rule:nonzero;stroke:none;stroke-width:0.77752703;stroke-linecap:round;stroke-linejoin:round;marker:none;marker-start:none;marker-mid:none;marker-end:none;stroke-miterlimit:4;stroke-dashoffset:1.4;stroke-opacity:1;visibility:visible;display:inline;overflow:visible"
         d="M 15.500002,35.500004 L 32.500012,35.500004 L 24.000007,44.499996 L 15.500002,35.500004 z"
         id="path3364"
         sodipodi:nodetypes="cccc"
         transform="matrix(0,1,-1.6541291,0,75.6202,14.999998)" />
      <rect
         y="35"
         x="16.511463"
         height="7"
         width="30.988539"
         id="rect2166"
         style="opacity:1;fill:#373b41;fill-opacity:1;fill-rule:nonzero;stroke:none;stroke-width:4;stroke-linecap:round;stroke-linejoin:round;marker:none;marker-start:none;marker-mid:none;marker-end:none;stroke-miterlimit:4;stroke-dasharray:none;stroke-dashoffset:0;stroke-opacity:1;visibility:visible;display:inline;overflow:visible;enable-background:accumulate" />
    </g>
  </g>
</svg>
