<?xml version="1.0" encoding="UTF-8" standalone="no"?>
<!-- Created with Inkscape (http://www.inkscape.org/) -->
<svg
   xmlns:dc="http://purl.org/dc/elements/1.1/"
   xmlns:cc="http://creativecommons.org/ns#"
   xmlns:rdf="http://www.w3.org/1999/02/22-rdf-syntax-ns#"
   xmlns:svg="http://www.w3.org/2000/svg"
   xmlns="http://www.w3.org/2000/svg"
   xmlns:sodipodi="http://sodipodi.sourceforge.net/DTD/sodipodi-0.dtd"
   xmlns:inkscape="http://www.inkscape.org/namespaces/inkscape"
   width="48"
   height="48"
   id="svg1306"
   sodipodi:version="0.32"
   inkscape:version="0.46"
   sodipodi:docbase="/home/qwerty/.icons/MonoBlack/scalable/actions"
   sodipodi:docname="format-text-direction-ltr.svg"
   inkscape:export-filename="/home/lapo/Desktop/insert-link-16.png"
   inkscape:export-xdpi="90.000031"
   inkscape:export-ydpi="90.000031"
   version="1.0"
   inkscape:output_extension="org.inkscape.output.svg.inkscape">
  <defs
     id="defs1308">
    <inkscape:perspective
       sodipodi:type="inkscape:persp3d"
       inkscape:vp_x="0 : 24 : 1"
       inkscape:vp_y="0 : 1000 : 0"
       inkscape:vp_z="48 : 24 : 1"
       inkscape:persp3d-origin="24 : 16 : 1"
       id="perspective17" />
    <linearGradient
       id="linearGradient3384">
      <stop
         style="stop-color:white;stop-opacity:1"
         offset="0"
         id="stop3386" />
      <stop
         style="stop-color:#eeeeec;stop-opacity:1"
         offset="1"
         id="stop3388" />
    </linearGradient>
    <linearGradient
       id="linearGradient3269">
      <stop
         id="stop3271"
         offset="0"
         style="stop-color:#fecb81;stop-opacity:1" />
      <stop
         id="stop3273"
         offset="1"
         style="stop-color:#fcaf3e;stop-opacity:1" />
    </linearGradient>
  </defs>
  <sodipodi:namedview
     id="base"
     pagecolor="#f0f0f0"
     bordercolor="#666"
     borderopacity="1"
     inkscape:pageopacity="0.0"
     inkscape:pageshadow="2"
     inkscape:zoom="5.6568545"
     inkscape:cx="56.73472"
     inkscape:cy="13.149015"
     inkscape:current-layer="layer1"
     showgrid="false"
     inkscape:grid-bbox="true"
     inkscape:document-units="px"
     fill="#fcaf3e"
     stroke="#555753"
     showguides="true"
     inkscape:guide-bbox="true"
     inkscape:window-width="1680"
     inkscape:window-height="1000"
     inkscape:window-x="0"
     inkscape:window-y="25"
     inkscape:showpageshadow="false"
     showborder="true"
     inkscape:grid-points="true"
     width="48px"
     height="48px"
     objecttolerance="10000"
     gridtolerance="10000"
     guidetolerance="10000">
    <inkscape:grid
       id="GridFromPre046Settings"
       type="xygrid"
       originx="0px"
       originy="0px"
       spacingx="0.5px"
       spacingy="0.5px"
       color="#0000ff"
       empcolor="#0000ff"
       opacity="0.2"
       empopacity="0.4"
       empspacing="2" />
  </sodipodi:namedview>
  <metadata
     id="metadata1311">
    <rdf:RDF>
      <cc:Work
         rdf:about="">
        <dc:format>image/svg+xml</dc:format>
        <dc:type
           rdf:resource="http://purl.org/dc/dcmitype/StillImage" />
        <dc:title>Insert Text</dc:title>
        <dc:creator>
          <cc:Agent>
            <dc:title>Lapo Calamandrei</dc:title>
          </cc:Agent>
        </dc:creator>
        <dc:source>http://www.gnome.org</dc:source>
        <dc:contributor>
          <cc:Agent>
            <dc:title />
          </cc:Agent>
        </dc:contributor>
        <cc:license
           rdf:resource="http://creativecommons.org/licenses/GPL/2.0/" />
        <dc:subject>
          <rdf:Bag>
            <rdf:li>insert</rdf:li>
            <rdf:li>text</rdf:li>
            <rdf:li>generic</rdf:li>
          </rdf:Bag>
        </dc:subject>
      </cc:Work>
      <cc:License
         rdf:about="http://creativecommons.org/licenses/GPL/2.0/">
        <cc:permits
           rdf:resource="http://web.resource.org/cc/Reproduction" />
        <cc:permits
           rdf:resource="http://web.resource.org/cc/Distribution" />
        <cc:requires
           rdf:resource="http://web.resource.org/cc/Notice" />
        <cc:permits
           rdf:resource="http://web.resource.org/cc/DerivativeWorks" />
        <cc:requires
           rdf:resource="http://web.resource.org/cc/ShareAlike" />
        <cc:requires
           rdf:resource="http://web.resource.org/cc/SourceCode" />
      </cc:License>
    </rdf:RDF>
  </metadata>
  <g
     id="layer1"
     inkscape:label="Layer 1"
     inkscape:groupmode="layer">
    <path
       sodipodi:type="inkscape:offset"
       inkscape:radius="2.8284271"
       inkscape:original="M 6.375 9.40625 L 0 27.4375 L 4.46875 27.4375 L 5.5625 24.15625 L 12.53125 24.15625 L 13.59375 27.4375 L 18.09375 27.4375 L 11.6875 9.40625 L 6.375 9.40625 z M 19.90625 9.59375 L 19.90625 27.4375 L 24.0625 27.4375 L 24.0625 25.5 C 24.632408 26.289478 25.494341 26.871375 26.1875 27.25 C 26.88063 27.620569 27.69264 27.8125 28.59375 27.8125 C 30.18799 27.8125 31.506901 27.133664 32.53125 25.8125 C 33.555556 24.483286 34.062486 22.773975 34.0625 20.6875 C 34.062485 18.601039 33.555555 16.914922 32.53125 15.59375 C 31.506902 14.264543 30.187991 13.593765 28.59375 13.59375 C 27.692639 13.593765 26.88063 13.777639 26.1875 14.15625 C 25.494341 14.526833 24.632408 15.116788 24.0625 15.90625 L 24.0625 9.59375 L 19.90625 9.59375 z M 43.625 13.59375 C 41.291392 13.593765 39.441992 14.212047 38.125 15.46875 C 36.808025 16.71742 36.156249 18.456033 36.15625 20.6875 C 36.15625 22.918981 36.808027 24.680786 38.125 25.9375 C 39.44199 27.18616 41.291391 27.8125 43.625 27.8125 C 44.295039 27.8125 44.931396 27.722643 45.59375 27.59375 C 46.263776 27.472912 46.946801 27.312232 47.59375 27.0625 L 47.59375 23.5 C 47.100843 23.894741 46.554059 24.204857 45.96875 24.40625 C 45.391114 24.607648 44.771922 24.718752 44.125 24.71875 C 42.969742 24.718753 42.084438 24.357115 41.4375 23.65625 C 40.798252 22.947338 40.468749 21.952277 40.46875 20.6875 C 40.46875 19.422736 40.798254 18.450872 41.4375 17.75 C 42.084436 17.041095 42.969742 16.687511 44.125 16.6875 C 44.733415 16.687512 45.312765 16.775421 45.875 16.96875 C 46.44492 17.162102 47.031517 17.472218 47.59375 17.875 L 47.59375 14.34375 C 46.939099 14.094031 46.256073 13.9021 45.59375 13.78125 C 44.939099 13.65237 44.30274 13.593765 43.625 13.59375 z M 9.03125 13.625 L 11.40625 20.5 L 6.6875 20.5 L 9.03125 13.625 z M 27.0625 16.71875 C 27.948195 16.718761 28.600386 17.073319 29.0625 17.75 C 29.532288 18.426703 29.781236 19.398569 29.78125 20.6875 C 29.781236 21.976443 29.532289 22.97956 29.0625 23.65625 C 28.600385 24.332946 27.948195 24.656252 27.0625 24.65625 C 26.176806 24.656253 25.227489 24.332946 24.75 23.65625 C 24.280184 22.971505 24.062487 21.96839 24.0625 20.6875 C 24.062487 19.406624 24.280184 18.426703 24.75 17.75 C 25.227489 17.06526 26.176806 16.718761 27.0625 16.71875 z "
       style="font-size:17.50059891000000079px;font-style:normal;font-weight:bold;fill:#f0f0f0;fill-opacity:1;stroke:none;stroke-width:1px;stroke-linecap:butt;stroke-linejoin:miter;stroke-opacity:1;font-family:Bitstream Vera Sans"
       id="path2392"
       d="M 6.375,6.5625 C 5.1748438,6.5700704 4.1101123,7.3341718 3.71875,8.46875 L -2.65625,26.5 C -2.9656581,27.365162 -2.8355786,28.326704 -2.3074169,29.078557 C -1.7792553,29.830411 -0.91882157,30.278894 -2.7614308e-15,30.28125 L 4.46875,30.28125 C 5.6886447,30.282479 6.7719119,29.501519 7.15625,28.34375 L 7.59375,27 L 10.46875,27 L 10.90625,28.3125 C 11.27965,29.482624 12.365496,30.278069 13.59375,30.28125 L 18.09375,30.28125 C 18.404078,30.268924 18.710258,30.205576 19,30.09375 C 19.289742,30.205576 19.595922,30.268924 19.90625,30.28125 L 24.0625,30.28125 C 24.545327,30.275655 25.018685,30.146557 25.4375,29.90625 C 26.436772,30.334237 27.498293,30.65625 28.59375,30.65625 C 30.990896,30.65625 33.324003,29.410748 34.78125,27.53125 C 35.002364,27.244317 35.06527,26.871233 35.25,26.5625 C 35.572608,27.028923 35.771054,27.571359 36.1875,27.96875 C 36.187442,27.979167 36.187442,27.989583 36.1875,28 C 38.121191,29.833365 40.785292,30.65625 43.625,30.65625 C 44.547914,30.65625 45.371164,30.521695 46.125,30.375 C 46.895607,30.236022 47.734358,30.031301 48.625,29.6875 C 49.711972,29.269092 50.431371,28.227204 50.4375,27.0625 L 50.4375,23.5 C 50.432862,22.020201 49.288464,20.794061 47.8125,20.6875 C 49.288464,20.580939 50.432862,19.354799 50.4375,17.875 L 50.4375,14.34375 C 50.439409,13.159719 49.703686,12.09978 48.59375,11.6875 C 47.777906,11.376293 46.938499,11.154136 46.09375,11 C 45.257703,10.835409 44.465752,10.750019 43.625,10.75 C 40.791813,10.750018 38.126068,11.587676 36.1875,13.4375 C 35.769308,13.834003 35.573861,14.377051 35.25,14.84375 C 35.064123,14.534488 35.003626,14.161826 34.78125,13.875 C 33.3212,11.980421 30.981351,10.750022 28.59375,10.75 C 28.033896,10.750009 27.460842,10.827088 26.90625,10.9375 L 26.90625,9.59375 C 26.910277,8.8383132 26.611962,8.1126519 26.07778,7.5784697 C 25.543598,7.0442876 24.817937,6.7459726 24.0625,6.75 L 19.90625,6.75 C 19.150813,6.7459726 18.425152,7.0442876 17.89097,7.5784697 C 17.356788,8.1126519 17.058473,8.8383132 17.0625,9.59375 L 17.0625,16.125 L 14.34375,8.46875 C 13.952388,7.3341718 12.887656,6.5700704 11.6875,6.5625 L 6.375,6.5625 z M 27.0625,19.375 C 26.789982,19.765802 26.914468,19.562502 27.0625,19.5625 C 27.070968,19.5625 27.027668,19.564333 27.03125,19.5625 C 27.035861,19.549431 27.066272,19.369567 27.0625,19.375 z M 44.125,19.53125 C 44.461,19.531257 44.722197,19.571471 44.96875,19.65625 C 45.226488,19.743691 45.573671,19.926854 45.9375,20.1875 C 46.316945,20.457036 46.757036,20.628779 47.21875,20.6875 C 46.704447,20.752811 46.217983,20.958207 45.8125,21.28125 C 45.552039,21.489838 45.315561,21.631677 45.0625,21.71875 C 45.052002,21.729085 45.041585,21.739502 45.03125,21.75 C 44.741589,21.850993 44.448076,21.875001 44.125,21.875 C 43.560013,21.875001 43.634796,21.862177 43.53125,21.75 C 43.449797,21.659671 43.312499,21.46103 43.3125,20.6875 C 43.3125,19.913989 43.44317,19.752821 43.53125,19.65625 C 43.627777,19.550477 43.54685,19.531256 44.125,19.53125 z M 26.90625,20.5625 C 26.909647,20.64189 26.937499,20.598107 26.9375,20.6875 C 26.937499,20.774826 26.909856,20.733707 26.90625,20.8125 C 26.903232,20.733406 26.906249,20.775648 26.90625,20.6875 C 26.906249,20.597313 26.902937,20.642935 26.90625,20.5625 z M 27.0625,21.8125 C 26.865125,21.812501 26.7665,21.61176 27.0625,22.03125 C 27.066519,22.037108 27.03501,21.856277 27.03125,21.84375 C 27.025016,21.839338 27.082772,21.8125 27.0625,21.8125 z"
       transform="matrix(0.8856834,0,0,0.8856834,2.6001701,1.4573096)" />
    <path
       style="font-size:17.50059891px;font-style:normal;font-weight:bold;fill:#373b41;fill-opacity:1;stroke:none;stroke-width:1px;stroke-linecap:butt;stroke-linejoin:miter;stroke-opacity:1;font-family:Bitstream Vera Sans"
       d="M 13.69152,22.856487 L 7.5319326,22.856487 L 6.559903,25.767548 L 2.6001701,25.767548 L 8.2583922,9.7888276 L 12.954822,9.7888276 L 18.613044,25.767548 L 14.653312,25.767548 L 13.69152,22.856487 M 8.5141875,19.624034 L 12.699027,19.624034 L 10.611714,13.534675 L 8.5141875,19.624034 M 26.563198,23.295288 C 27.347644,23.29529 27.944491,22.995623 28.353778,22.396284 C 28.769862,21.796951 28.97791,20.926488 28.977922,19.784892 C 28.97791,18.643307 28.769862,17.772844 28.353778,17.173499 C 27.944491,16.574173 27.347644,16.274507 26.563198,16.274497 C 25.778754,16.274507 24.94546,16.57774 24.522556,17.184203 C 24.106447,17.783546 23.898399,18.650442 23.898411,19.784892 C 23.898399,20.919354 24.106447,21.789817 24.522556,22.396284 C 24.94546,22.995623 25.778754,23.29529 26.563198,23.295288 M 23.898411,15.536028 C 24.403169,14.836815 25.192131,14.323098 25.806051,13.994879 C 26.419944,13.65955 27.125941,13.491878 27.92404,13.491865 C 29.336032,13.491878 30.495635,14.08051 31.402883,15.257767 C 32.310094,16.427907 32.763699,17.936948 32.763713,19.784892 C 32.763699,21.632848 32.310094,23.145457 31.402883,24.322719 C 30.495635,25.492852 29.336032,26.077918 27.92404,26.077918 C 27.125941,26.077918 26.419944,25.913814 25.806051,25.585607 C 25.192131,25.250264 24.403169,24.732981 23.898411,24.033754 L 23.898411,25.767548 L 20.2354,25.767548 L 20.2354,9.9564883 L 23.898411,9.9564883 L 23.898411,15.536028 M 44.745226,14.155416 L 44.745226,17.280523 C 44.247265,16.923785 43.745912,16.659792 43.241144,16.488544 C 42.743182,16.317315 42.224771,16.231696 41.685908,16.231686 C 40.662715,16.231696 39.864628,16.545634 39.291648,17.173499 C 38.725477,17.794249 38.442397,18.664712 38.442397,19.784892 C 38.442397,20.905083 38.725477,21.779114 39.291648,22.406985 C 39.864628,23.027729 40.662715,23.338099 41.685908,23.338096 C 42.258876,23.338099 42.801167,23.248911 43.31277,23.070537 C 43.831169,22.892165 44.308667,22.628172 44.745226,22.278557 L 44.745226,25.414367 C 44.172233,25.63555 43.589016,25.799655 42.995585,25.906679 C 42.408951,26.020838 41.818912,26.077918 41.225469,26.077918 C 39.158632,26.077918 37.541995,25.52496 36.375559,24.419043 C 35.209137,23.305992 34.625918,21.761278 34.625918,19.784892 C 34.625918,17.808518 35.209137,16.267371 36.375559,15.161444 C 37.541995,14.048403 39.158632,13.491878 41.225469,13.491865 C 41.825733,13.491878 42.415772,13.548958 42.995585,13.663105 C 43.582196,13.770139 44.165413,13.934244 44.745226,14.155416"
       id="text3378"
       sodipodi:nodetypes="ccccccccccccccsssssssccsssssssccccccccsssssssccsssssssc" />
    <g
       id="g2399"
       style="fill:#f0f0f0"
       transform="matrix(0.8856834,0,0,0.8856834,2.6001701,1.4573096)">
      <g
         id="g2401"
         transform="matrix(0,1,1.6541291,0,-26.108737,14.999998)"
         style="fill:#f0f0f0;fill-opacity:1;stroke:none;stroke-opacity:1">
        <path
           sodipodi:type="inkscape:offset"
           inkscape:radius="2.3753142"
           inkscape:original="M 15.5 35.5 L 24 44.5 L 32.5 35.5 L 15.5 35.5 z "
           style="fill:#f0f0f0;fill-opacity:1;fill-rule:nonzero;stroke:none;stroke-width:0.77752703000000001;stroke-linecap:round;stroke-linejoin:round;marker:none;marker-start:none;marker-mid:none;marker-end:none;stroke-miterlimit:4;stroke-dashoffset:1.39999999999999991;stroke-opacity:1;visibility:visible;display:inline;overflow:visible"
           id="path2409"
           d="M 15.25,33.125 C 14.350603,33.22092 13.583716,33.819269 13.271949,34.668338 C 12.960181,35.517406 13.157637,36.469849 13.78125,37.125 L 22.28125,46.125 C 22.729529,46.594844 23.35061,46.860691 24,46.860691 C 24.64939,46.860691 25.270471,46.594844 25.71875,46.125 L 34.21875,37.125 C 34.864428,36.436082 35.040816,35.430177 34.668061,34.562674 C 34.295306,33.695171 33.444179,33.130776 32.5,33.125 L 15.5,33.125 C 15.416724,33.120612 15.333276,33.120612 15.25,33.125 z" />
      </g>
      <path
         sodipodi:type="inkscape:offset"
         inkscape:radius="2.8777161"
         inkscape:original="M -33 35 L -33 42 L -2 42 L -2 35 L -33 35 z "
         style="opacity:1;fill:#f0f0f0;fill-opacity:1;fill-rule:nonzero;stroke:none;stroke-width:4;stroke-linecap:round;stroke-linejoin:round;marker:none;marker-start:none;marker-mid:none;marker-end:none;stroke-miterlimit:4;stroke-dasharray:none;stroke-dashoffset:0;stroke-opacity:1;visibility:visible;display:inline;overflow:visible;enable-background:accumulate"
         id="path2407"
         d="M -33.28125,32.125 C -34.757637,32.271525 -35.880705,33.516371 -35.875,35 L -35.875,42 C -35.873344,43.587132 -34.587132,44.873344 -33,44.875 L -2,44.875 C -0.41286764,44.873344 0.87334436,43.587132 0.875,42 L 0.875,35 C 0.87334436,33.412868 -0.41286764,32.126656 -2,32.125 L -33,32.125 C -33.093694,32.120416 -33.187556,32.120416 -33.28125,32.125 z"
         transform="scale(-1,1)" />
    </g>
    <g
       id="g2394"
       transform="matrix(0.8856834,0,0,0.8856834,2.6001701,1.4573096)">
      <g
         style="fill:#373b41;fill-opacity:1;stroke:none;stroke-opacity:1"
         transform="matrix(0,1,1.6541291,0,-26.108737,14.999998)"
         id="g3362">
        <path
           style="fill:#373b41;fill-opacity:1;fill-rule:nonzero;stroke:none;stroke-width:0.77752703;stroke-linecap:round;stroke-linejoin:round;marker:none;marker-start:none;marker-mid:none;marker-end:none;stroke-miterlimit:4;stroke-dashoffset:1.4;stroke-opacity:1;visibility:visible;display:inline;overflow:visible"
           d="M 15.500002,35.500004 L 32.500012,35.500004 L 24.000007,44.499996 L 15.500002,35.500004 z"
           id="path3364"
           sodipodi:nodetypes="cccc" />
      </g>
      <rect
         transform="scale(-1,1)"
         y="35"
         x="-33"
         height="7"
         width="30.988539"
         id="rect2166"
         style="opacity:1;fill:#373b41;fill-opacity:1;fill-rule:nonzero;stroke:none;stroke-width:4;stroke-linecap:round;stroke-linejoin:round;marker:none;marker-start:none;marker-mid:none;marker-end:none;stroke-miterlimit:4;stroke-dasharray:none;stroke-dashoffset:0;stroke-opacity:1;visibility:visible;display:inline;overflow:visible;enable-background:accumulate" />
    </g>
  </g>
</svg>
