<?xml version="1.0" encoding="UTF-8" standalone="no"?>
<!-- Created with Inkscape (http://www.inkscape.org/) -->
<svg
   xmlns:dc="http://purl.org/dc/elements/1.1/"
   xmlns:cc="http://creativecommons.org/ns#"
   xmlns:rdf="http://www.w3.org/1999/02/22-rdf-syntax-ns#"
   xmlns:svg="http://www.w3.org/2000/svg"
   xmlns="http://www.w3.org/2000/svg"
   xmlns:xlink="http://www.w3.org/1999/xlink"
   xmlns:sodipodi="http://sodipodi.sourceforge.net/DTD/sodipodi-0.dtd"
   xmlns:inkscape="http://www.inkscape.org/namespaces/inkscape"
   width="128"
   height="128"
   id="svg2186"
   sodipodi:version="0.32"
   inkscape:version="0.46"
   version="1.0"
   sodipodi:docbase="/home/martino/.icons/ALLBLACK/scalable/actions"
   sodipodi:docname="window-close.svg"
   inkscape:output_extension="org.inkscape.output.svg.inkscape"
   sodipodi:modified="true">
  <defs
     id="defs2188">
    <inkscape:perspective
       sodipodi:type="inkscape:persp3d"
       inkscape:vp_x="0 : 64 : 1"
       inkscape:vp_y="0 : 1000 : 0"
       inkscape:vp_z="128 : 64 : 1"
       inkscape:persp3d-origin="64 : 42.666667 : 1"
       id="perspective15" />
    <linearGradient
       inkscape:collect="always"
       id="linearGradient5154">
      <stop
         style="stop-color:#f0f0f0;stop-opacity:1;"
         offset="0"
         id="stop5156" />
      <stop
         style="stop-color:#f0f0f0;stop-opacity:0;"
         offset="1"
         id="stop5158" />
    </linearGradient>
    <linearGradient
       inkscape:collect="always"
       xlink:href="#linearGradient5154"
       id="linearGradient3886"
       gradientUnits="userSpaceOnUse"
       x1="10.364615"
       y1="5.29778"
       x2="10.364615"
       y2="24.067238" />
    <linearGradient
       id="linearGradient5162">
      <stop
         id="stop5166"
         offset="0"
         style="stop-color:#9c9e99;stop-opacity:1;" />
      <stop
         id="stop5164"
         offset="1"
         style="stop-color:#868883;stop-opacity:1;" />
    </linearGradient>
  </defs>
  <sodipodi:namedview
     id="base"
     pagecolor="#f0f0f0"
     bordercolor="#666666"
     borderopacity="1.0"
     inkscape:pageopacity="0.0"
     inkscape:pageshadow="2"
     inkscape:zoom="2.75"
     inkscape:cx="14.778427"
     inkscape:cy="66.070239"
     inkscape:current-layer="layer1"
     showgrid="true"
     inkscape:document-units="px"
     inkscape:grid-bbox="true"
     width="128px"
     height="128px"
     showguides="true"
     inkscape:guide-bbox="true"
     inkscape:window-width="1680"
     inkscape:window-height="1001"
     inkscape:window-x="0"
     inkscape:window-y="24" />
  <metadata
     id="metadata2191">
    <rdf:RDF>
      <cc:Work
         rdf:about="">
        <dc:format>image/svg+xml</dc:format>
        <dc:type
           rdf:resource="http://purl.org/dc/dcmitype/StillImage" />
      </cc:Work>
    </rdf:RDF>
  </metadata>
  <g
     id="layer1"
     inkscape:label="Layer 1"
     inkscape:groupmode="layer">
    <path
       sodipodi:type="inkscape:offset"
       inkscape:radius="7.6450167"
       inkscape:original="M 43.125 36 C 40.241451 35.977976 37.591838 37.737312 36.5 40.40625 C 35.408163 43.075184 36.084054 46.119673 38.15625 48.125 L 54.03125 64 L 38.15625 79.875 C 35.387166 82.644083 35.387166 87.137169 38.15625 89.90625 C 40.925334 92.675334 45.418416 92.675332 48.1875 89.90625 L 64.0625 74.03125 L 79.9375 89.90625 C 81.71701 91.73656 84.283534 92.439484 86.75 91.78125 C 89.216491 91.123019 91.181567 89.161102 91.8125 86.6875 C 92.443437 84.2139 91.693617 81.6342 89.84375 79.875 L 73.96875 64 L 89.84375 48.125 C 91.93168 46.105885 92.620588 42.992158 91.5 40.3125 C 90.379413 37.632842 87.684963 35.931693 84.78125 36 C 82.939126 36.072749 81.203558 36.878695 79.9375 38.21875 L 64.0625 54.09375 L 48.1875 38.21875 C 46.868057 36.825076 45.044127 36.014402 43.125 36 z "
       style="fill:#f0f0f0;fill-opacity:1;fill-rule:nonzero;stroke:none;stroke-width:1.98023272000000006;stroke-linecap:round;stroke-linejoin:round;marker:none;stroke-miterlimit:4;stroke-dasharray:none;stroke-dashoffset:0;stroke-opacity:1;visibility:visible;display:inline;overflow:visible"
       id="path3160"
       d="M 43.1875,28.34375 C 37.158827,28.297704 31.724688,31.909094 29.4375,37.5 C 27.155588,43.078005 28.589821,49.508344 32.84375,53.625 L 43.21875,64 L 32.75,74.46875 C 27.057093,80.161655 27.05709,89.619596 32.75,95.3125 C 38.442904,101.0054 47.900848,101.0054 53.59375,95.3125 L 64.0625,84.84375 L 74.53125,95.3125 C 78.189848,99.075541 83.665625,100.50479 88.71875,99.15625 C 93.864393,97.783035 97.887514,93.781673 99.21875,88.5625 C 100.52282,83.449874 98.931799,77.963968 95.125,74.34375 L 84.78125,64 L 95.25,53.53125 C 99.557249,49.365961 100.92663,43.028336 98.5625,37.375 C 96.203342,31.733548 90.592052,28.202646 84.59375,28.34375 C 84.551996,28.353815 84.510328,28.364232 84.46875,28.375 C 80.591182,28.528133 76.985428,30.205751 74.375,32.96875 L 64.0625,43.28125 L 53.59375,32.8125 C 50.873644,29.939363 47.223027,28.374034 43.1875,28.34375 z" />
    <path
       id="path3825"
       d="M 43.119907,36.00881 C 40.236358,35.986784 37.600046,37.747672 36.508208,40.41661 C 35.416372,43.085545 36.088937,46.124932 38.161133,48.130259 L 54.029206,63.998344 L 38.161133,79.86641 C 35.392049,82.635492 35.392049,87.125086 38.161133,89.894167 C 40.930217,92.663249 45.419789,92.663249 48.188873,89.894167 L 64.056951,74.026081 L 79.92503,89.894167 C 81.704544,91.724475 84.290638,92.425714 86.757104,91.76748 C 89.223594,91.109248 91.195138,89.17211 91.826071,86.698508 C 92.45701,84.224909 91.692441,81.62561 89.842574,79.86641 L 73.974498,63.998344 L 89.842574,48.130259 C 91.930505,46.111145 92.616085,42.986072 91.495497,40.306414 C 90.374912,37.626758 87.677323,35.940503 84.77361,36.00881 C 82.931489,36.081557 81.191088,36.872654 79.92503,38.212709 L 64.056951,54.080789 L 48.188873,38.212709 C 46.86943,36.819034 45.039034,36.023212 43.119907,36.00881 z "
       style="color:#373b41;fill:#373b41;fill-opacity:1;fill-rule:nonzero;stroke:#373b41;stroke-width:1.98023272;stroke-linecap:round;stroke-linejoin:round;marker:none;stroke-miterlimit:4;stroke-dasharray:none;stroke-dashoffset:0;stroke-opacity:1;visibility:visible;display:inline;overflow:visible" />
  </g>
</svg>
