<?xml version="1.0" encoding="UTF-8" standalone="no"?>
<!-- Generator: Adobe Illustrator 9.0, SVG Export Plug-In  -->
<svg
   xmlns:dc="http://purl.org/dc/elements/1.1/"
   xmlns:cc="http://creativecommons.org/ns#"
   xmlns:rdf="http://www.w3.org/1999/02/22-rdf-syntax-ns#"
   xmlns:svg="http://www.w3.org/2000/svg"
   xmlns="http://www.w3.org/2000/svg"
   xmlns:sodipodi="http://sodipodi.sourceforge.net/DTD/sodipodi-0.dtd"
   xmlns:inkscape="http://www.inkscape.org/namespaces/inkscape"
   width="48"
   height="48"
   viewBox="0 0 48 48"
   xml:space="preserve"
   id="svg2"
   sodipodi:version="0.32"
   inkscape:version="0.46"
   sodipodi:docname="format-text-italic.svg"
   sodipodi:docbase="/home/qwerty/.icons/MonoBlack/scalable/actions"
   inkscape:output_extension="org.inkscape.output.svg.inkscape"
   version="1.0"><metadata
   id="metadata17"><rdf:RDF><cc:Work
       rdf:about=""><dc:format>image/svg+xml</dc:format><dc:type
         rdf:resource="http://purl.org/dc/dcmitype/StillImage" /></cc:Work></rdf:RDF></metadata><defs
   id="defs15"><inkscape:perspective
     sodipodi:type="inkscape:persp3d"
     inkscape:vp_x="0 : 24 : 1"
     inkscape:vp_y="0 : 1000 : 0"
     inkscape:vp_z="48 : 24 : 1"
     inkscape:persp3d-origin="24 : 16 : 1"
     id="perspective11" /></defs><sodipodi:namedview
   inkscape:window-height="1000"
   inkscape:window-width="1680"
   inkscape:pageshadow="2"
   inkscape:pageopacity="0.0"
   guidetolerance="10.0"
   gridtolerance="10.0"
   objecttolerance="10.0"
   borderopacity="1.0"
   bordercolor="#666666"
   pagecolor="#f0f0f0"
   id="base"
   showgrid="true"
   inkscape:zoom="4.796541"
   inkscape:cx="-4.2792093"
   inkscape:cy="34.759678"
   inkscape:window-x="0"
   inkscape:window-y="25"
   inkscape:current-layer="svg2"
   width="48px"
   height="48px" />
	
	
<g
   transform="matrix(1.0637858,0,0,1.0637858,-1.5308596,-1.5308596)"
   style="fill:#f0f0f0;fill-opacity:1;fill-rule:nonzero;stroke:none;stroke-width:0.88239425000000005;stroke-miterlimit:4"
   id="g2384">
		<g
   style="fill:#f0f0f0;fill-opacity:1;stroke:none;stroke-width:0.88239425000000005"
   id="g2386">
			
			<path
   sodipodi:type="inkscape:offset"
   inkscape:radius="5.8868704"
   inkscape:original="M 28.59375 8.5 L 8.09375 39.5 L 13.1875 39.5 L 19.5 29.6875 L 19.5 29.59375 L 33.3125 29.59375 L 34.90625 39.40625 L 39.90625 39.40625 L 34.40625 8.5 L 28.59375 8.5 z M 30.5 12.09375 L 30.6875 12.09375 C 30.7875 13.89375 32.906248 26.687499 32.90625 26.6875 L 21.40625 26.6875 C 21.40625 26.6875 29.4 13.89375 30.5 12.09375 z "
   style="fill:#f0f0f0;fill-opacity:1;stroke:none;stroke-width:3.48113346000000012;stroke-linejoin:round"
   id="path3160"
   d="M 28.59375,2.625 C 26.621942,2.623199 24.780151,3.6086156 23.6875,5.25 L 3.1875,36.25 C 1.9979414,38.056763 1.8950072,40.370352 2.9194134,42.275617 C 3.9438195,44.180882 5.9305519,45.370918 8.09375,45.375 L 13.1875,45.375 C 15.182352,45.373507 17.040756,44.36197 18.125,42.6875 L 22.78125,35.46875 L 28.3125,35.46875 L 29.09375,40.34375 C 29.55937,43.19166 32.020528,45.282321 34.90625,45.28125 L 39.90625,45.28125 C 41.642867,45.276121 43.288631,44.504552 44.403352,43.172913 C 45.518072,41.841274 45.98802,40.085424 45.6875,38.375 L 40.1875,7.46875 C 39.683319,4.6697207 37.250318,2.6312609 34.40625,2.625 L 28.59375,2.625 z" />
		</g>
	</g><g
   id="Layer_x0020_3"
   style="fill:#373b41;fill-opacity:1;fill-rule:nonzero;stroke:#373b41;stroke-width:0.88239425000000005;stroke-miterlimit:4"
   transform="matrix(1.0637858,0,0,1.0637858,-1.5308596,-1.5308596)">
		<g
   id="g5"
   style="fill:#373b41;fill-opacity:1;stroke-width:0.88239425">
			
			<path
   style="fill:#373b41;fill-opacity:1;stroke-width:3.48113346;stroke-linejoin:round"
   d="M 19.5,29.7 L 13.2,39.5 L 8.1,39.5 L 28.6,8.5 L 34.4,8.5 L 39.9,39.4 L 34.9,39.4 L 33.3,29.6 L 19.5,29.6 L 19.5,29.7 z M 32.9,26.7 C 32.9,26.7 30.8,13.9 30.7,12.1 L 30.5,12.1 C 29.4,13.9 21.4,26.7 21.4,26.7 L 33,26.7 L 32.9,26.7 z"
   id="path9" />
		</g>
	</g></svg>