<?xml version="1.0" encoding="UTF-8" standalone="no"?>
<!-- Created with Inkscape (http://www.inkscape.org/) -->
<svg
   xmlns:dc="http://purl.org/dc/elements/1.1/"
   xmlns:cc="http://creativecommons.org/ns#"
   xmlns:rdf="http://www.w3.org/1999/02/22-rdf-syntax-ns#"
   xmlns:svg="http://www.w3.org/2000/svg"
   xmlns="http://www.w3.org/2000/svg"
   xmlns:sodipodi="http://sodipodi.sourceforge.net/DTD/sodipodi-0.dtd"
   xmlns:inkscape="http://www.inkscape.org/namespaces/inkscape"
   width="48.303030px"
   height="48.303030px"
   id="svg97"
   sodipodi:version="0.32"
   inkscape:version="0.46"
   sodipodi:docbase="/home/christof/themes_and_icons/meinICONtheme/BRIT ICONS/scalable/actions"
   sodipodi:docname="document-open.svg"
   inkscape:export-filename="/home/jimmac/ximian_art/icons/nautilus/snowdunes/gnome-fs-directory-accept.png"
   inkscape:export-xdpi="90.303030"
   inkscape:export-ydpi="90.303030"
   inkscape:output_extension="org.inkscape.output.svg.inkscape">
  <defs
     id="defs3">
    <inkscape:perspective
       sodipodi:type="inkscape:persp3d"
       inkscape:vp_x="0 : 24.151514 : 1"
       inkscape:vp_y="0 : 1000 : 0"
       inkscape:vp_z="48.303028 : 24.151514 : 1"
       inkscape:persp3d-origin="24.151514 : 16.101009 : 1"
       id="perspective31" />
    <linearGradient
       id="linearGradient269">
      <stop
         id="stop270"
         offset="0.3030300"
         style="stop-color:#a3a3a3;stop-opacity:1.3030300;" />
      <stop
         id="stop271"
         offset="1.3030300"
         style="stop-color:#4c4c4c;stop-opacity:1.3030300;" />
    </linearGradient>
    <linearGradient
       id="linearGradient259">
      <stop
         id="stop260"
         offset="0.3030300"
         style="stop-color:#fafafa;stop-opacity:1.3030300;" />
      <stop
         style="stop-color:#a8a8a8;stop-opacity:1;"
         offset="0.5"
         id="stop8238" />
      <stop
         id="stop261"
         offset="1"
         style="stop-color:#cdcdcd;stop-opacity:1;" />
    </linearGradient>
    <linearGradient
       id="linearGradient335">
      <stop
         style="stop-color:#f0f0f0;stop-opacity:1.3030300;"
         offset="0.3030300"
         id="stop336" />
      <stop
         style="stop-color:#f0f0f0;stop-opacity:0.3030300;"
         offset="1.3030300"
         id="stop337" />
    </linearGradient>
    <linearGradient
       id="linearGradient1789">
      <stop
         style="stop-color:#a0a0a0;stop-opacity:1;"
         offset="0"
         id="stop1790" />
      <stop
         style="stop-color:#a8a8a8;stop-opacity:1;"
         offset="1"
         id="stop1791" />
    </linearGradient>
    <linearGradient
       id="linearGradient137">
      <stop
         style="stop-color:#f0f0f0;stop-opacity:0.70059878;"
         offset="0.3030300"
         id="stop138" />
      <stop
         style="stop-color:#f0f0f0;stop-opacity:0.3030300;"
         offset="1.3030300"
         id="stop139" />
    </linearGradient>
  </defs>
  <sodipodi:namedview
     id="base"
     pagecolor="#f0f0f0"
     bordercolor="#666666"
     borderopacity="1.0"
     inkscape:pageopacity="0.0"
     inkscape:pageshadow="2"
     inkscape:zoom="9.5901358"
     inkscape:cx="10.826404"
     inkscape:cy="20.456015"
     inkscape:current-layer="layer3"
     showgrid="false"
     inkscape:grid-bbox="true"
     inkscape:document-units="px"
     inkscape:window-width="1680"
     inkscape:window-height="1001"
     inkscape:window-x="0"
     inkscape:window-y="24"
     inkscape:showpageshadow="false"
     showguides="true"
     inkscape:guide-bbox="true" />
  <metadata
     id="metadata4">
    <rdf:RDF>
      <cc:Work
         rdf:about="">
        <dc:format>image/svg+xml</dc:format>
        <dc:type
           rdf:resource="http://purl.org/dc/dcmitype/StillImage" />
        <dc:title>Folder Icon Accept</dc:title>
        <dc:date>2005-01-31</dc:date>
        <dc:creator>
          <cc:Agent>
            <dc:title>Jakub Steiner</dc:title>
          </cc:Agent>
        </dc:creator>
        <cc:license
           rdf:resource="http://creativecommons.org/licenses/by-sa/2.0/" />
        <dc:source>http://jimmac.musichall.cz</dc:source>
        <dc:description>Active state - when files are being dragged to.</dc:description>
        <dc:publisher>
          <cc:Agent>
            <dc:title>Novell, Inc.</dc:title>
          </cc:Agent>
        </dc:publisher>
      </cc:Work>
      <cc:License
         rdf:about="http://creativecommons.org/licenses/by-sa/2.0/">
        <cc:permits
           rdf:resource="http://web.resource.org/cc/Reproduction" />
        <cc:permits
           rdf:resource="http://web.resource.org/cc/Distribution" />
        <cc:requires
           rdf:resource="http://web.resource.org/cc/Notice" />
        <cc:requires
           rdf:resource="http://web.resource.org/cc/Attribution" />
        <cc:permits
           rdf:resource="http://web.resource.org/cc/DerivativeWorks" />
        <cc:requires
           rdf:resource="http://web.resource.org/cc/ShareAlike" />
      </cc:License>
    </rdf:RDF>
  </metadata>
  <g
     id="layer1"
     inkscape:label="Folder"
     inkscape:groupmode="layer" />
  <g
     inkscape:label="Open"
     id="layer3"
     inkscape:groupmode="layer">
    <g
       transform="matrix(0.8770104,0,0,0.8770104,2.5741701,6.1728014)"
       id="g2404"
       style="fill:#f0f0f0">
      <path
         style="opacity:1;fill:#f0f0f0;fill-opacity:1;fill-rule:nonzero;stroke:none;stroke-width:3;stroke-linecap:butt;stroke-linejoin:miter;marker:none;stroke-miterlimit:4;stroke-dasharray:none;stroke-dashoffset:0;stroke-opacity:1;visibility:visible;display:block;overflow:visible"
         d="M 43.34375,-2.84375 C 31.782327,-2.7772259 20.218315,-2.7515139 8.6585097,-2.6604215 C 6.138724,-2.4538308 4.5003448,0.52700099 5.6124613,2.7816857 C 6.2218037,4.2816438 6.7325669,5.902609 6.2382705,7.5203629 C 4.8891454,12.785749 2.0372498,17.561948 0.99923164,22.92847 C 0.11967902,26.931301 0.060449357,31.134101 0.94648753,35.137982 C 1.5370714,37.094049 3.6690265,38.000652 5.5739958,37.728893 C 16.872243,37.413461 28.171003,37.112991 39.46875,36.78125 C 42.140213,36.790181 43.952199,33.725053 42.880169,31.341773 C 42.274723,29.311447 41.575097,27.091361 42.61189,25.062922 C 44.490532,21.10705 46.662892,17.23001 47.635433,12.916284 C 48.652547,8.7554724 48.972779,4.4080712 48.593118,0.14624843 C 48.190174,-1.9080642 46.049697,-3.0908175 44.067846,-2.84375 C 43.826481,-2.84375 43.585115,-2.84375 43.34375,-2.84375 z"
         id="path2412"
         sodipodi:nodetypes="cccccccccccccc" />
      <path
         sodipodi:type="inkscape:offset"
         inkscape:radius="4.2620845"
         inkscape:original="M 2.3125 5.6875 C 1.8987305 5.6875001 1.551942 6.110796 1.59375 6.53125 L 4.625 38.65625 C 4.666808 39.076704 5.1174803 39.5 5.53125 39.5 L 36.65625 39.5 C 37.070019 39.5 37.448058 39.076705 37.40625 38.65625 L 36.84375 33 C 35.759376 33.030121 5.90625 33.875 5.90625 33.875 L 4.59375 33.90625 L 4.40625 32.59375 C 3.4056791 25.735112 5.6350527 20.087746 7.59375 15.3125 C 9.101644 11.636299 10.386327 8.5577858 10.3125 5.6875 L 2.3125 5.6875 z "
         style="fill:#f0f0f0;fill-opacity:1;fill-rule:nonzero;stroke:none;stroke-width:1.14023732999999994;stroke-linecap:round;stroke-linejoin:round;marker:none;marker-start:none;marker-mid:none;marker-end:none;stroke-miterlimit:4;stroke-dashoffset:0;stroke-opacity:1;visibility:visible;display:inline;overflow:visible"
         id="path3184"
         d="M 2.3125,1.4375 C -1.0080772,1.4375008 -2.9555468,3.9275367 -2.65625,6.9375 L 0.375,39.0625 C 0.53117126,40.633081 1.2338912,41.599205 2.03125,42.34375 C 2.8286088,43.088295 3.8709614,43.75 5.53125,43.75 L 36.65625,43.75 C 39.976825,43.75 41.976237,41.468051 41.65625,38.25 L 41.09375,32.59375 C 40.874404,30.360701 38.961455,28.680038 36.71875,28.75 C 35.693455,28.77848 12.938731,29.437764 8.53125,29.5625 C 8.4448623,24.984947 9.8769299,20.970683 11.53125,16.9375 C 13.033634,13.274733 14.67102,9.7815824 14.5625,5.5625 C 14.488417,3.2670956 12.609093,1.4430455 10.3125,1.4375 L 2.3125,1.4375 z" />
      <path
         sodipodi:type="inkscape:offset"
         inkscape:radius="4.915204"
         inkscape:original="M 11.78125 18.5625 C 11.470924 18.5625 10.113284 34.664057 6.90625 37.84375 L 5.6875 39.0625 L 5.78125 39.0625 C 5.884692 39.273968 6.0959241 39.5 6.40625 39.5 L 39.71875 39.5 C 39.925644 39.499999 40.21924 39.356796 40.40625 39.21875 C 40.936652 38.827214 41.074578 38.611082 41.3125 38.25 C 43.760628 34.534541 47.125 18.96875 47.125 18.96875 C 47.228443 18.757289 46.997826 18.5625 46.6875 18.5625 L 11.78125 18.5625 z "
         style="opacity:1;fill:#f0f0f0;fill-opacity:1;fill-rule:nonzero;stroke:none;stroke-width:1.14023721000000000;stroke-linecap:butt;stroke-linejoin:round;marker:none;marker-start:none;marker-mid:none;marker-end:none;stroke-miterlimit:4;stroke-dasharray:none;stroke-dashoffset:0;stroke-opacity:1;visibility:visible;display:block;overflow:visible"
         id="path3186"
         d="M 11.78125,13.65625 C 11.780038,13.65625 10.4743,13.801046 9.96875,14 C 9.4632005,14.198954 9.0784874,14.428991 8.78125,14.65625 C 8.1867751,15.110768 7.9153717,15.49708 7.71875,15.78125 C 7.3255067,16.349591 7.2404096,16.625174 7.15625,16.84375 C 6.9879308,17.280902 6.9775333,17.453891 6.9375,17.625 C 6.8574334,17.967217 6.7946095,18.196227 6.75,18.46875 C 6.6607811,19.013795 6.5793193,19.657509 6.46875,20.4375 C 6.2476114,21.997482 5.9650851,24.048174 5.59375,26.15625 C 5.2224149,28.264326 4.7727373,30.44455 4.28125,32.09375 C 3.7897627,33.74295 2.8895217,34.887057 3.4375,34.34375 C 3.4374669,34.354167 3.4374669,34.364583 3.4375,34.375 L 2.21875,35.59375 C 1.1613582,36.644692 0.63803473,38.118712 0.79599878,39.601144 C 0.95396284,41.083575 1.7761441,42.414222 3.03125,43.21875 C 3.052009,43.229315 3.0728429,43.239732 3.09375,43.25 C 3.9425436,43.904556 5.0241225,44.40625 6.40625,44.40625 L 39.71875,44.40625 C 42.193681,44.406238 42.454599,43.820781 43.3125,43.1875 C 44.210689,42.524469 45.183948,41.306127 45.40625,40.96875 C 46.601257,39.15512 47.193182,37.360921 47.90625,35.21875 C 48.619318,33.076579 49.28499,30.709178 49.875,28.46875 C 51.055021,23.987895 51.9375,20 51.9375,20 L 51.8125,19.96875 C 52.085976,18.139586 51.375709,15.959601 50.34375,15.03125 C 49.083933,13.897917 47.871074,13.65625 46.6875,13.65625 L 11.78125,13.65625 z" />
    </g>
    <g
       inkscape:export-ydpi="74.800003"
       inkscape:export-xdpi="74.800003"
       inkscape:export-filename="/home/jimmac/ximian_art/icons/nautilus/suse93/gnome-fs-directory.png"
       transform="matrix(1.034424,0,0.10452,1.034424,-10.03248,2.631914)"
       id="g1853"
       style="fill:#f0f0f0;fill-opacity:0.5803109;fill-rule:nonzero;stroke:#373b41;stroke-miterlimit:4;display:block" />
    <g
       id="g5156"
       transform="matrix(0.8770104,0,0,0.8770104,2.5741701,6.1728014)">
      <path
         id="path8230"
         d="M 43.375,1 L 11.25,1.15625 L 9.125,1.15625 L 9.84375,3.15625 C 11.114785,6.7646289 9.5524473,10.537254 7.59375,15.3125 C 5.6350527,20.087746 3.4056791,25.735112 4.40625,32.59375 L 4.59375,33.90625 L 5.90625,33.875 C 5.90625,33.875 37.40625,33 37.40625,33 L 39.34375,32.9375 L 38.8125,31.0625 C 37.405425,26.251208 38.79337,23.909829 40.75,20.0625 C 42.70663,16.215171 45.133434,11.161582 44.875,2.4375 L 44.84375,1 L 43.375,1 z M 41.8125,4 C 41.752746,11.122029 39.87174,15.161236 38.0625,18.71875 C 36.351232,22.083622 34.855234,25.448574 35.625,30.0625 C 32.745779,30.14351 9.7535136,30.77419 7.28125,30.84375 C 6.8541695,25.446564 8.5756917,20.85541 10.375,16.46875 C 12.05362,12.376324 13.680787,8.3313931 13.03125,4.15625 L 41.8125,4 z"
         style="opacity:1;fill:#373b41;fill-opacity:1;fill-rule:nonzero;stroke:none;stroke-width:3;stroke-linecap:butt;stroke-linejoin:miter;marker:none;stroke-miterlimit:4;stroke-dasharray:none;stroke-dashoffset:0;stroke-opacity:1;visibility:visible;display:block;overflow:visible" />
      <path
         id="path2375"
         d="M 2.3125,5.6875 C 1.8987305,5.6875001 1.551942,6.110796 1.59375,6.53125 L 4.625,38.65625 C 4.666808,39.076704 5.1174803,39.5 5.53125,39.5 L 36.65625,39.5 C 37.070019,39.5 37.448058,39.076705 37.40625,38.65625 L 36.84375,33 C 35.759376,33.030121 5.90625,33.875 5.90625,33.875 L 4.59375,33.90625 L 4.40625,32.59375 C 3.4056791,25.735112 5.6350527,20.087746 7.59375,15.3125 C 9.101644,11.636299 10.386327,8.5577858 10.3125,5.6875 L 2.3125,5.6875 z"
         style="fill:#373b41;fill-opacity:1;fill-rule:nonzero;stroke:#373b41;stroke-width:1.14023733;stroke-linecap:round;stroke-linejoin:round;marker:none;marker-start:none;marker-mid:none;marker-end:none;stroke-miterlimit:4;stroke-dashoffset:0;stroke-opacity:1;visibility:visible;display:inline;overflow:visible" />
      <path
         style="opacity:1;fill:#373b41;fill-opacity:1;fill-rule:nonzero;stroke:#373b41;stroke-width:1.14023721;stroke-linecap:butt;stroke-linejoin:round;marker:none;marker-start:none;marker-mid:none;marker-end:none;stroke-miterlimit:4;stroke-dasharray:none;stroke-dashoffset:0;stroke-opacity:1;visibility:visible;display:block;overflow:visible"
         d="M 5.7785654,39.065997 C 5.8820074,39.277466 6.0888914,39.488925 6.3992173,39.488925 L 39.70767,39.488925 C 39.914562,39.488925 40.228834,39.36262 40.415844,39.224574 C 40.946246,38.833039 41.070704,38.612189 41.308626,38.251107 C 43.756752,34.535647 47.113767,18.974214 47.113767,18.974214 C 47.217209,18.762754 47.010326,18.551294 46.7,18.551294 L 11.776358,18.551294 C 11.466032,18.551294 10.120393,34.658624 6.9133592,37.838317 L 5.6751235,39.065997 L 5.7785654,39.065997 z"
         id="path2401"
         sodipodi:nodetypes="cccsscccscc"
         inkscape:export-filename="/home/jimmac/ximian_art/icons/nautilus/suse93/gnome-fs-directory.png"
         inkscape:export-xdpi="74.800003"
         inkscape:export-ydpi="74.800003" />
    </g>
  </g>
  <g
     inkscape:groupmode="layer"
     id="layer2"
     inkscape:label="pattern" />
</svg>
