<?xml version="1.0" encoding="UTF-8" standalone="no"?>
<!-- Generator: Adobe Illustrator 9.0, SVG Export Plug-In  -->
<svg
   xmlns:dc="http://purl.org/dc/elements/1.1/"
   xmlns:cc="http://creativecommons.org/ns#"
   xmlns:rdf="http://www.w3.org/1999/02/22-rdf-syntax-ns#"
   xmlns:svg="http://www.w3.org/2000/svg"
   xmlns="http://www.w3.org/2000/svg"
   xmlns:sodipodi="http://sodipodi.sourceforge.net/DTD/sodipodi-0.dtd"
   xmlns:inkscape="http://www.inkscape.org/namespaces/inkscape"
   width="48"
   height="48"
   viewBox="0 0 48 48"
   xml:space="preserve"
   id="svg2"
   sodipodi:version="0.32"
   inkscape:version="0.46"
   sodipodi:docname="format-text-bold.svg"
   sodipodi:docbase="/home/qwerty/.icons/MonoBlack/scalable/actions"
   inkscape:output_extension="org.inkscape.output.svg.inkscape"
   version="1.0"><metadata
   id="metadata27"><rdf:RDF><cc:Work
       rdf:about=""><dc:format>image/svg+xml</dc:format><dc:type
         rdf:resource="http://purl.org/dc/dcmitype/StillImage" /></cc:Work></rdf:RDF></metadata><defs
   id="defs25"><inkscape:perspective
     sodipodi:type="inkscape:persp3d"
     inkscape:vp_x="0 : 24 : 1"
     inkscape:vp_y="0 : 1000 : 0"
     inkscape:vp_z="48 : 24 : 1"
     inkscape:persp3d-origin="24 : 16 : 1"
     id="perspective16" /></defs><sodipodi:namedview
   inkscape:window-height="1000"
   inkscape:window-width="1680"
   inkscape:pageshadow="2"
   inkscape:pageopacity="0.0"
   guidetolerance="10.0"
   gridtolerance="10.0"
   objecttolerance="10.0"
   borderopacity="1.0"
   bordercolor="#666666"
   pagecolor="#f0f0f0"
   id="base"
   showgrid="true"
   inkscape:zoom="6.7833334"
   inkscape:cx="10.207998"
   inkscape:cy="7.4835126"
   inkscape:window-x="0"
   inkscape:window-y="25"
   inkscape:current-layer="svg2"
   width="48px"
   height="48px" />
	<g
   transform="matrix(0.9826075,0,0,0.9826075,0.4174186,0.4174186)"
   style="fill:#f0f0f0;fill-opacity:1;fill-rule:nonzero;stroke:none;stroke-width:0.88014983999999996;stroke-miterlimit:4"
   id="g2389">
		<g
   style="fill:#f0f0f0;fill-opacity:1;stroke:none;stroke-width:0.88014983999999996"
   id="g2391">
			<g
   style="fill:#f0f0f0;fill-opacity:1;stroke:none;stroke-width:0.88014983999999996"
   id="g2393">
				<g
   style="fill:#f0f0f0;fill-opacity:1;stroke:none;stroke-width:0.88014983999999996"
   id="g2395">
					<path
   id="path2397"
   d="M 18,30.9 L 15.2,38.1 L 6,38.1 L 18.1,9.9 L 29.7,9.9 L 42,38.1 L 32.4,38.1 L 29.4,30.9 L 18,30.9 L 18,30.9 z M 28,26.1 C 28,26.1 24.2,16.3 23.6,14.7 L 23.4,14.7 C 22.9,16.4 19.2,26.1 19.2,26.1 L 28,26.1 z"
   style="fill:#f0f0f0;fill-opacity:1;stroke:none" />
				</g>
				<g
   style="fill:#f0f0f0;fill-opacity:1;stroke:none;stroke-width:0.88014983999999996"
   id="g2399">
					
				</g>
			</g>
			<g
   style="fill:#f0f0f0;fill-opacity:1;stroke:none;stroke-width:0.88014983999999996"
   id="g2401">
				<path
   sodipodi:type="inkscape:offset"
   inkscape:radius="5.3847003"
   inkscape:original="M 18.09375 9.90625 L 6 38.09375 L 15.1875 38.09375 L 18 30.90625 L 29.40625 30.90625 L 32.40625 38.09375 L 42 38.09375 L 29.6875 9.90625 L 18.09375 9.90625 z M 23.40625 14.6875 L 23.59375 14.6875 C 24.19375 16.2875 28 26.09375 28 26.09375 L 19.1875 26.09375 C 19.1875 26.09375 22.90625 16.3875 23.40625 14.6875 z "
   style="fill:#f0f0f0;fill-opacity:1;stroke:none;stroke-width:3.17540455000000010;stroke-linejoin:round"
   id="path3175"
   d="M 18.09375,4.53125 C 15.947299,4.5337776 14.007314,5.8107297 13.15625,7.78125 L 1.0625,35.96875 C 0.3531804,37.629911 0.52389605,39.536045 1.5171103,41.044725 C 2.5103246,42.553405 4.1937431,43.463677 6,43.46875 L 15.1875,43.46875 C 17.39473,43.465293 19.37638,42.115293 20.1875,40.0625 L 21.65625,36.28125 L 25.8125,36.28125 L 27.4375,40.15625 C 28.273813,42.161705 30.233402,43.468097 32.40625,43.46875 L 42,43.46875 C 43.814676,43.468186 45.507038,42.553723 46.501983,41.036116 C 47.496929,39.518509 47.660646,37.601864 46.9375,35.9375 L 34.625,7.75 C 33.764471,5.7917096 31.826519,4.5283614 29.6875,4.53125 L 18.09375,4.53125 z" />
			</g>
		</g>
	</g><g
   id="Layer_x0020_4"
   style="fill:#373b41;fill-opacity:1;fill-rule:nonzero;stroke:#373b41;stroke-width:0.88014984;stroke-miterlimit:4"
   transform="matrix(0.9826075,0,0,0.9826075,0.4174186,0.4174186)">
		<g
   id="g5"
   style="fill:#373b41;fill-opacity:1;stroke-width:0.88014984">
			<g
   id="g7"
   style="fill:#373b41;fill-opacity:1;stroke-width:0.88014984">
				<g
   id="g9"
   style="fill:#373b41;fill-opacity:1;stroke-width:0.88014984">
					<path
   style="fill:#373b41;fill-opacity:1;stroke:none"
   d="M 18,30.9 L 15.2,38.1 L 6,38.1 L 18.1,9.9 L 29.7,9.9 L 42,38.1 L 32.4,38.1 L 29.4,30.9 L 18,30.9 L 18,30.9 z M 28,26.1 C 28,26.1 24.2,16.3 23.6,14.7 L 23.4,14.7 C 22.9,16.4 19.2,26.1 19.2,26.1 L 28,26.1 z"
   id="path11" />
				</g>
				<g
   id="g13"
   style="fill:#373b41;fill-opacity:1;stroke-width:0.88014984">
					
				</g>
			</g>
			<g
   id="g17"
   style="fill:#373b41;fill-opacity:1;stroke-width:0.88014984">
				<path
   style="fill:#373b41;fill-opacity:1;stroke-width:3.17540455;stroke-linejoin:round"
   d="M 18,30.9 L 15.2,38.1 L 6,38.1 L 18.1,9.9 L 29.7,9.9 L 42,38.1 L 32.4,38.1 L 29.4,30.9 L 18,30.9 L 18,30.9 z M 28,26.1 C 28,26.1 24.2,16.3 23.6,14.7 L 23.4,14.7 C 22.9,16.4 19.2,26.1 19.2,26.1 L 28,26.1 z"
   id="path19" />
			</g>
		</g>
	</g>
	<g
   id="crop_x0020_marks"
   style="fill-rule:nonzero;stroke:#373b41;stroke-width:0.88014984;stroke-miterlimit:4"
   transform="matrix(0.9826075,0,0,0.9826075,0.4174186,0.4174186)">
		<path
   style="fill:none;stroke:none"
   d="M 48,48 L 0,48 L 0,0 L 48,0 L 48,48 z"
   id="path22" />
	</g>
</svg>