<?xml version="1.0" encoding="UTF-8" standalone="no"?>
<!-- Generator: Adobe Illustrator 9.0, SVG Export Plug-In  -->
<svg
   xmlns:dc="http://purl.org/dc/elements/1.1/"
   xmlns:cc="http://creativecommons.org/ns#"
   xmlns:rdf="http://www.w3.org/1999/02/22-rdf-syntax-ns#"
   xmlns:svg="http://www.w3.org/2000/svg"
   xmlns="http://www.w3.org/2000/svg"
   xmlns:sodipodi="http://sodipodi.sourceforge.net/DTD/sodipodi-0.dtd"
   xmlns:inkscape="http://www.inkscape.org/namespaces/inkscape"
   width="48.303030px"
   height="48.303030px"
   viewBox="0 0 48 48"
   xml:space="preserve"
   id="svg2"
   sodipodi:version="0.32"
   inkscape:version="0.46"
   sodipodi:docname="edit-copy.svg"
   sodipodi:docbase="/home/christof/themes_and_icons/meinICONtheme/BRIT ICONS/scalable/actions"
   inkscape:output_extension="org.inkscape.output.svg.inkscape"><metadata
   id="metadata33"><rdf:RDF><cc:Work
       rdf:about=""><dc:format>image/svg+xml</dc:format><dc:type
         rdf:resource="http://purl.org/dc/dcmitype/StillImage" /></cc:Work></rdf:RDF></metadata><defs
   id="defs31"><inkscape:perspective
     sodipodi:type="inkscape:persp3d"
     inkscape:vp_x="0 : 24.151514 : 1"
     inkscape:vp_y="0 : 1000 : 0"
     inkscape:vp_z="48.303028 : 24.151514 : 1"
     inkscape:persp3d-origin="24.151514 : 16.101009 : 1"
     id="perspective14" /></defs><sodipodi:namedview
   inkscape:window-height="1001"
   inkscape:window-width="1680"
   inkscape:pageshadow="2"
   inkscape:pageopacity="0.0"
   borderopacity="1.0"
   bordercolor="#666666"
   pagecolor="#f0f0f0"
   id="base"
   showgrid="true"
   inkscape:grid-bbox="true"
   inkscape:grid-points="true"
   inkscape:zoom="5.61266"
   inkscape:cx="46.507343"
   inkscape:cy="32.219156"
   inkscape:window-x="0"
   inkscape:window-y="24"
   inkscape:current-layer="svg2" />
	
	
<g
   transform="matrix(0.7849434,0,0,0.7849434,5.1613582,5.1613582)"
   id="g2387"
   style="fill:#f0f0f0"><path
     style="fill:#f0f0f0;fill-opacity:1;fill-rule:evenodd;stroke:none;stroke-width:4;stroke-linecap:round;stroke-linejoin:round;stroke-miterlimit:4;stroke-dasharray:none;stroke-opacity:1"
     d="M 0.125,13.90625 C -3.277086,13.808612 -6.2466136,16.992939 -5.96875,20.374371 C -5.963439,29.572817 -5.9793799,38.771533 -5.9607656,47.969809 C -5.8805609,51.295969 -2.7031975,54.05016 0.59296415,53.75 C 11.093545,53.744683 21.594397,53.760638 32.094809,53.742016 C 35.420969,53.661811 38.17516,50.484448 37.875,47.188286 C 37.869687,40.687705 37.885633,34.186853 37.867016,27.686441 C 37.786811,24.360281 34.609448,21.60609 31.313286,21.90625 C 29.497813,21.969678 27.656427,21.746378 25.864696,22.093905 C 24.45551,22.175331 22.860927,23.99234 22.315385,24.40625 C 22.243383,22.430582 22.478587,20.428455 22.12043,18.477201 C 21.442459,15.590303 18.48012,13.619333 15.5636,13.90625 C 10.4174,13.90625 5.2712001,13.90625 0.125,13.90625 z"
     id="path2403"
     sodipodi:nodetypes="ccccccccccccc" /><path
     style="fill:#f0f0f0;fill-opacity:1;fill-rule:evenodd;stroke:none;stroke-width:4.30303049000000026;stroke-linecap:round;stroke-linejoin:round;stroke-miterlimit:4;stroke-dasharray:none;stroke-opacity:1"
     d="M 16.21875,-5.75 C 12.816664,-5.8476377 9.8471364,-2.6633105 10.125,0.71812133 C 10.130311,9.9165669 10.11437,19.115283 10.132984,28.313559 C 10.213189,31.639719 13.390553,34.39391 16.686714,34.09375 C 27.187295,34.088433 37.688147,34.104388 48.188559,34.085766 C 51.514719,34.005561 54.26891,30.828197 53.96875,27.532036 C 53.963439,18.364788 53.97938,9.1972694 53.960766,0.030190791 C 53.880561,-3.2959692 50.703197,-6.0501601 47.407036,-5.75 C 37.010941,-5.75 26.614845,-5.75 16.21875,-5.75 z"
     id="path2401"
     sodipodi:nodetypes="ccccccccc" /><rect
     style="opacity:1;color:#373b41;fill:#f0f0f0;fill-opacity:1;fill-rule:nonzero;stroke:none;stroke-width:4;stroke-linecap:round;stroke-linejoin:round;marker:none;marker-start:none;marker-mid:none;marker-end:none;stroke-miterlimit:4;stroke-dasharray:none;stroke-dashoffset:0;stroke-opacity:1;visibility:visible;display:inline;overflow:visible;enable-background:accumulate"
     id="rect2393"
     width="15.990911"
     height="3.2684231"
     x="24"
     y="8.5368423" /><rect
     style="opacity:1;color:#373b41;fill:#f0f0f0;fill-opacity:1;fill-rule:nonzero;stroke:none;stroke-width:4;stroke-linecap:round;stroke-linejoin:round;marker:none;marker-start:none;marker-mid:none;marker-end:none;stroke-miterlimit:4;stroke-dasharray:none;stroke-dashoffset:0;stroke-opacity:1;visibility:visible;display:inline;overflow:visible;enable-background:accumulate"
     id="rect2395"
     width="15.990909"
     height="3.2684209"
     x="8.0090914"
     y="28.56842" /><rect
     style="opacity:1;color:#373b41;fill:#f0f0f0;fill-opacity:1;fill-rule:nonzero;stroke:none;stroke-width:4;stroke-linecap:round;stroke-linejoin:round;marker:none;marker-start:none;marker-mid:none;marker-end:none;stroke-miterlimit:4;stroke-dasharray:none;stroke-dashoffset:0;stroke-opacity:1;visibility:visible;display:inline;overflow:visible;enable-background:accumulate"
     id="rect2397"
     width="15.990911"
     height="3.2684231"
     x="24"
     y="16.163155" /><rect
     style="opacity:1;color:#373b41;fill:#f0f0f0;fill-opacity:1;fill-rule:nonzero;stroke:none;stroke-width:4;stroke-linecap:round;stroke-linejoin:round;marker:none;marker-start:none;marker-mid:none;marker-end:none;stroke-miterlimit:4;stroke-dasharray:none;stroke-dashoffset:0;stroke-opacity:1;visibility:visible;display:inline;overflow:visible;enable-background:accumulate"
     id="rect2399"
     width="16.009092"
     height="3.2684209"
     x="8"
     y="36.194736" /></g><g
   id="g7163"
   transform="matrix(0.7849434,0,0,0.7849434,5.1613582,5.1613582)"><path
     id="rect4078"
     d="M 0.125,20 L 0.125,47.65625 L 31.78125,47.65625 L 31.78125,28 L 27.34375,28 L 27.34375,43.4375 L 4.53125,43.4375 L 4.53125,24.21875 L 16.21875,24.21875 L 16.21875,20 L 0.125,20 z "
     style="fill:#373b41;fill-opacity:1;fill-rule:evenodd;stroke:none;stroke-width:4;stroke-linecap:round;stroke-linejoin:round;stroke-miterlimit:4;stroke-dasharray:none;stroke-opacity:1" /><path
     id="rect9238"
     d="M 16.21875,0.34375 L 16.21875,28 L 47.875,28 L 47.875,0.34375 L 16.21875,0.34375 z M 20.65625,4.5625 L 43.46875,4.5625 L 43.46875,23.78125 L 20.65625,23.78125 L 20.65625,4.5625 z "
     style="fill:#373b41;fill-opacity:1;fill-rule:evenodd;stroke:none;stroke-width:4.30303049;stroke-linecap:round;stroke-linejoin:round;stroke-miterlimit:4;stroke-dasharray:none;stroke-opacity:1" /><rect
     y="8.5368423"
     x="24"
     height="3.2684231"
     width="15.990911"
     id="rect2165"
     style="opacity:1;color:#373b41;fill:#373b41;fill-opacity:1;fill-rule:nonzero;stroke:none;stroke-width:4;stroke-linecap:round;stroke-linejoin:round;marker:none;marker-start:none;marker-mid:none;marker-end:none;stroke-miterlimit:4;stroke-dasharray:none;stroke-dashoffset:0;stroke-opacity:1;visibility:visible;display:inline;overflow:visible;enable-background:accumulate" /><rect
     y="28.56842"
     x="8.0090914"
     height="3.2684209"
     width="15.990909"
     id="rect2171"
     style="opacity:1;color:#373b41;fill:#373b41;fill-opacity:1;fill-rule:nonzero;stroke:none;stroke-width:4;stroke-linecap:round;stroke-linejoin:round;marker:none;marker-start:none;marker-mid:none;marker-end:none;stroke-miterlimit:4;stroke-dasharray:none;stroke-dashoffset:0;stroke-opacity:1;visibility:visible;display:inline;overflow:visible;enable-background:accumulate" /><rect
     y="16.163155"
     x="24"
     height="3.2684231"
     width="15.990911"
     id="rect2163"
     style="opacity:1;color:#373b41;fill:#373b41;fill-opacity:1;fill-rule:nonzero;stroke:none;stroke-width:4;stroke-linecap:round;stroke-linejoin:round;marker:none;marker-start:none;marker-mid:none;marker-end:none;stroke-miterlimit:4;stroke-dasharray:none;stroke-dashoffset:0;stroke-opacity:1;visibility:visible;display:inline;overflow:visible;enable-background:accumulate" /><rect
     y="36.194736"
     x="8"
     height="3.2684209"
     width="16.009092"
     id="rect2166"
     style="opacity:1;color:#373b41;fill:#373b41;fill-opacity:1;fill-rule:nonzero;stroke:none;stroke-width:4;stroke-linecap:round;stroke-linejoin:round;marker:none;marker-start:none;marker-mid:none;marker-end:none;stroke-miterlimit:4;stroke-dasharray:none;stroke-dashoffset:0;stroke-opacity:1;visibility:visible;display:inline;overflow:visible;enable-background:accumulate" /></g></svg>