<?xml version="1.0" encoding="UTF-8" standalone="no"?>
<!-- Generator: Adobe Illustrator 9.0, SVG Export Plug-In  -->
<svg
   xmlns:dc="http://purl.org/dc/elements/1.1/"
   xmlns:cc="http://creativecommons.org/ns#"
   xmlns:rdf="http://www.w3.org/1999/02/22-rdf-syntax-ns#"
   xmlns:svg="http://www.w3.org/2000/svg"
   xmlns="http://www.w3.org/2000/svg"
   xmlns:sodipodi="http://sodipodi.sourceforge.net/DTD/sodipodi-0.dtd"
   xmlns:inkscape="http://www.inkscape.org/namespaces/inkscape"
   width="48"
   height="48"
   viewBox="0 0 48 48"
   xml:space="preserve"
   id="svg2"
   sodipodi:version="0.32"
   inkscape:version="0.46"
   sodipodi:docname="edit-cut.svg"
   sodipodi:docbase="/home/christof/themes_and_icons/meinICONtheme/BRIT ICONS/scalable/actions"
   inkscape:output_extension="org.inkscape.output.svg.inkscape"
   version="1.0"><metadata
   id="metadata17"><rdf:RDF><cc:Work
       rdf:about=""><dc:format>image/svg+xml</dc:format><dc:type
         rdf:resource="http://purl.org/dc/dcmitype/StillImage" /></cc:Work></rdf:RDF></metadata><defs
   id="defs15"><inkscape:perspective
     sodipodi:type="inkscape:persp3d"
     inkscape:vp_x="0 : 24 : 1"
     inkscape:vp_y="0 : 1000 : 0"
     inkscape:vp_z="48 : 24 : 1"
     inkscape:persp3d-origin="24 : 16 : 1"
     id="perspective12" /></defs><sodipodi:namedview
   inkscape:window-height="1001"
   inkscape:window-width="1680"
   inkscape:pageshadow="2"
   inkscape:pageopacity="0.0"
   guidetolerance="10.0"
   gridtolerance="10.0"
   objecttolerance="10.0"
   borderopacity="1.0"
   bordercolor="#666666"
   pagecolor="#f0f0f0"
   id="base"
   inkscape:zoom="6.7833333"
   inkscape:cx="30"
   inkscape:cy="30"
   inkscape:window-x="0"
   inkscape:window-y="24"
   inkscape:current-layer="svg2"
   width="48px"
   height="48px"
   showgrid="false" />
	<g
   transform="matrix(1.0588729,0,0,1.0585779,-1.4129493,-1.4029405)"
   style="fill:#f0f0f0;fill-opacity:1;fill-rule:nonzero;stroke:#373b41;stroke-width:0.94453198000000005;stroke-miterlimit:4"
   id="g2385">
		<g
   style="fill:#f0f0f0;fill-opacity:1;stroke-width:0.94453198000000005"
   id="g2387">
			
			<path
   sodipodi:type="inkscape:offset"
   inkscape:radius="3.800885"
   inkscape:original="M 14 5.1875 C 14 5.1875002 7.69375 9.10625 11.59375 15.90625 C 14.29375 20.60625 18.4125 24.00625 21.3125 25.90625 L 18.5 30.40625 C 17.4 29.70625 16.2125 29.3125 14.8125 29.3125 C 12.9125 29.312501 11.10625 30.10625 9.90625 31.40625 C 8.7062504 32.60625 8.09375 34.3 8.09375 36 C 8.0937496 37.7 8.70625 39.39375 9.90625 40.59375 C 11.20625 41.993752 12.9125 42.6875 14.8125 42.6875 C 16.7125 42.687499 18.4875 41.89375 19.6875 40.59375 C 20.887499 39.393752 21.4 37.6 21.5 36 C 21.6 34.4 23 28 23 28 C 23 28 23.39375 27.80625 24.09375 27.40625 C 24.69375 27.90625 25 28 25 28 C 25 28 26.4 34.3 26.5 36 C 26.6 37.6 27.1125 39.39375 28.3125 40.59375 C 29.612501 41.993752 31.2875 42.6875 33.1875 42.6875 C 35.087499 42.687499 36.89375 41.89375 38.09375 40.59375 C 39.293752 39.393752 39.90625 37.7 39.90625 36 C 39.906248 34.3 39.29375 32.60625 38.09375 31.40625 C 36.793752 30.00625 35.0875 29.3125 33.1875 29.3125 C 31.887499 29.312501 30.6 29.70625 29.5 30.40625 L 26.8125 26 C 29.712501 24 33.70625 20.8 36.40625 16 C 40.306248 9.2 34 5.3125 34 5.3125 L 24 21.40625 L 14 5.1875 z M 33.1875 31.40625 C 34.387499 31.40625 35.2875 32.19375 35.6875 32.59375 C 36.487499 33.493752 37 34.7 37 36 C 37 37.3 36.4875 38.50625 35.6875 39.40625 C 35.287499 39.806248 34.3875 40.59375 33.1875 40.59375 C 31.987499 40.593752 31.0875 39.80625 30.6875 39.40625 C 29.887499 38.506248 29.40625 37.3 29.40625 36 C 29.40625 34.7 29.8875 33.49375 30.6875 32.59375 C 31.087499 32.193752 31.9875 31.40625 33.1875 31.40625 z M 14.8125 31.5 C 16.0125 31.5 16.9125 32.2875 17.3125 32.6875 C 18.112501 33.587499 18.59375 34.79375 18.59375 36.09375 C 18.59375 37.393752 18.1125 38.6 17.3125 39.5 C 16.912501 39.9 16.0125 40.6875 14.8125 40.6875 C 13.6125 40.687499 12.7125 39.9 12.3125 39.5 C 11.5125 38.6 11 37.39375 11 36.09375 C 11 34.793752 11.5125 33.5875 12.3125 32.6875 C 12.7125 32.287499 13.6125 31.5 14.8125 31.5 z "
   style="fill:#f0f0f0;fill-opacity:1;stroke:none"
   id="path2391"
   d="M 14.0625,1.375 C 13.332239,1.370691 12.616194,1.5768254 12,1.96875 C 12,1.96875 9.6711602,3.3598586 8.0625,6.0625 C 6.4538398,8.7651414 5.734611,13.372206 8.28125,17.8125 C 10.1421,21.051757 12.463125,23.461286 14.75,25.5 C 11.815065,25.51672 9.0773855,26.728666 7.125,28.84375 C 5.1177783,30.850972 4.28125,33.387042 4.28125,36 C 4.2812494,38.612959 5.2115276,41.274028 7.21875,43.28125 C 9.221131,45.437663 11.987287,46.5 14.8125,46.5 C 17.771077,46.499998 20.524707,45.262296 22.46875,43.15625 C 23.195321,42.42968 23.691111,41.663292 24.09375,40.875 C 24.515357,41.697934 24.882875,42.539125 25.625,43.28125 C 27.606714,45.415405 30.362287,46.5 33.1875,46.5 C 36.146077,46.499998 38.908649,45.286464 40.875,43.15625 C 42.882232,41.149025 43.71875,38.612955 43.71875,36 C 43.718747,33.387048 42.788474,30.725974 40.78125,28.71875 C 38.8318,26.61934 36.153272,25.585362 33.40625,25.53125 C 35.630571,23.529183 37.88111,21.141916 39.71875,17.875 C 42.264138,13.436886 41.550004,8.8537818 39.9375,6.15625 C 38.324996,3.4587182 36,2.0625 36,2.0625 C 34.213082,0.97048759 31.879524,1.5294235 30.78125,3.3125 L 24.03125,14.1875 L 17.25,3.1875 C 16.568386,2.0769397 15.365428,1.3929045 14.0625,1.375 L 14.0625,1.375 z" />
		</g>
	</g><g
   id="Layer_x0020_4"
   style="fill:#373b41;fill-opacity:1;fill-rule:nonzero;stroke:#373b41;stroke-width:0.94453198;stroke-miterlimit:4"
   transform="matrix(1.0588729,0,0,1.0585779,-1.4129493,-1.4029405)">
		<g
   id="g5"
   style="fill:#373b41;fill-opacity:1;stroke-width:0.94453198">
			
			<path
   style="fill:#373b41;fill-opacity:1;stroke:none"
   d="M 38.1,31.4 C 36.8,30 35.1,29.3 33.2,29.3 C 31.9,29.3 30.6,29.7 29.5,30.4 L 26.8,26 C 29.7,24 33.7,20.8 36.4,16 C 40.3,9.2 34,5.3 34,5.3 L 24,21.4 L 14,5.2 C 14,5.2 7.7,9.1 11.6,15.9 C 14.3,20.6 18.4,24 21.3,25.9 L 18.5,30.4 C 17.4,29.7 16.2,29.3 14.8,29.3 C 12.9,29.3 11.1,30.1 9.9,31.4 C 8.7,32.6 8.1,34.3 8.1,36 C 8.1,37.7 8.7,39.4 9.9,40.6 C 11.2,42 12.9,42.7 14.8,42.7 C 16.7,42.7 18.5,41.9 19.7,40.6 C 20.9,39.4 21.4,37.6 21.5,36 C 21.6,34.4 23,28 23,28 C 23,28 23.4,27.8 24.1,27.4 C 24.7,27.9 25,28 25,28 C 25,28 26.4,34.3 26.5,36 C 26.6,37.6 27.1,39.4 28.3,40.6 C 29.6,42 31.3,42.7 33.2,42.7 C 35.1,42.7 36.9,41.9 38.1,40.6 C 39.3,39.4 39.9,37.7 39.9,36 C 39.9,34.3 39.3,32.6 38.1,31.4 z M 17.3,39.5 C 16.9,39.9 16,40.7 14.8,40.7 C 13.6,40.7 12.7,39.9 12.3,39.5 C 11.5,38.6 11,37.4 11,36.1 C 11,34.8 11.5,33.6 12.3,32.7 C 12.7,32.3 13.6,31.5 14.8,31.5 C 16,31.5 16.9,32.3 17.3,32.7 C 18.1,33.6 18.6,34.8 18.6,36.1 C 18.6,37.4 18.1,38.6 17.3,39.5 z M 35.7,39.4 C 35.3,39.8 34.4,40.6 33.2,40.6 C 32,40.6 31.1,39.8 30.7,39.4 C 29.9,38.5 29.4,37.3 29.4,36 C 29.4,34.7 29.9,33.5 30.7,32.6 C 31.1,32.2 32,31.4 33.2,31.4 C 34.4,31.4 35.3,32.2 35.7,32.6 C 36.5,33.5 37,34.7 37,36 C 37,37.3 36.5,38.5 35.7,39.4 z "
   id="path9" />
		</g>
	</g>
	<g
   id="crop_x0020_marks"
   style="fill-rule:nonzero;stroke:#373b41;stroke-miterlimit:4">
		<path
   style="fill:none;stroke:none"
   d="M 48,48 L 0,48 L 0,0 L 48,0 L 48,48 z "
   id="path12" />
	</g>
</svg>