<?xml version="1.0" encoding="UTF-8" standalone="no"?>
<!-- Generator: Adobe Illustrator 9.0, SVG Export Plug-In  -->
<svg
   xmlns:dc="http://purl.org/dc/elements/1.1/"
   xmlns:cc="http://creativecommons.org/ns#"
   xmlns:rdf="http://www.w3.org/1999/02/22-rdf-syntax-ns#"
   xmlns:svg="http://www.w3.org/2000/svg"
   xmlns="http://www.w3.org/2000/svg"
   xmlns:sodipodi="http://sodipodi.sourceforge.net/DTD/sodipodi-0.dtd"
   xmlns:inkscape="http://www.inkscape.org/namespaces/inkscape"
   width="48"
   height="48"
   viewBox="0 0 48 48"
   xml:space="preserve"
   id="svg2"
   sodipodi:version="0.32"
   inkscape:version="0.46"
   sodipodi:docname="view-sort-descending.svg"
   sodipodi:docbase="/home/qwerty/.icons/MonoBlack/scalable/actions"
   inkscape:output_extension="org.inkscape.output.svg.inkscape"
   version="1.0"><metadata
   id="metadata45"><rdf:RDF><cc:Work
       rdf:about=""><dc:format>image/svg+xml</dc:format><dc:type
         rdf:resource="http://purl.org/dc/dcmitype/StillImage" /></cc:Work></rdf:RDF></metadata><defs
   id="defs43"><inkscape:perspective
     sodipodi:type="inkscape:persp3d"
     inkscape:vp_x="0 : 24 : 1"
     inkscape:vp_y="0 : 1000 : 0"
     inkscape:vp_z="48 : 24 : 1"
     inkscape:persp3d-origin="24 : 16 : 1"
     id="perspective17" /></defs><sodipodi:namedview
   inkscape:window-height="1000"
   inkscape:window-width="1680"
   inkscape:pageshadow="2"
   inkscape:pageopacity="0.0"
   guidetolerance="10000"
   gridtolerance="10000"
   objecttolerance="10000"
   borderopacity="1.0"
   bordercolor="#666666"
   pagecolor="#f0f0f0"
   id="base"
   showgrid="true"
   inkscape:zoom="6.7833333"
   inkscape:cx="-4.6150116"
   inkscape:cy="22.683626"
   inkscape:window-x="0"
   inkscape:window-y="25"
   inkscape:current-layer="svg2"
   width="48px"
   height="48px" />
	<g
   transform="matrix(1.2329589,0,0,1.2328358,-5.2845255,-6.4299363)"
   style="fill:#f0f0f0;fill-opacity:1;fill-rule:nonzero;stroke:none;stroke-width:0.81109750000000003;stroke-miterlimit:4"
   id="g2390">
		<g
   id="g2392"
   style="fill:#f0f0f0;fill-opacity:1;stroke:none">
			<g
   style="fill:#f0f0f0;fill-opacity:1;stroke:none"
   id="g2394">
				<g
   style="fill:#f0f0f0;fill-opacity:1;stroke:none"
   id="g2396">
					<path
   sodipodi:type="inkscape:offset"
   inkscape:radius="1.7936714"
   inkscape:original="M 37.09375 7.1875 L 34.5 8.40625 L 34.90625 10.09375 L 36.6875 9.1875 L 36.8125 9.1875 L 36.8125 16.8125 L 39 16.8125 L 39 7.1875 L 37.09375 7.1875 z "
   style="fill:#f0f0f0;fill-opacity:1;stroke:none"
   id="path3184"
   d="M 36.90625,5.40625 C 36.711476,5.4272688 36.52146,5.480051 36.34375,5.5625 L 33.75,6.78125 C 32.97752,7.1358997 32.559989,7.9840086 32.75,8.8125 L 33.15625,10.5 C 33.359411,11.356175 34.153601,11.938581 35.03125,11.875 L 35.03125,16.8125 C 35.038116,17.793399 35.831601,18.586884 36.8125,18.59375 L 39,18.59375 C 39.980899,18.586884 40.774384,17.793399 40.78125,16.8125 L 40.78125,7.1875 C 40.774384,6.206601 39.980899,5.4131164 39,5.40625 L 37.09375,5.40625 C 37.031293,5.4029814 36.968707,5.4029814 36.90625,5.40625 L 36.90625,5.40625 z" />
					<path
   sodipodi:type="inkscape:offset"
   inkscape:radius="1.434937"
   inkscape:original="M 37.3125 30.6875 C 35.2125 30.6875 33.687499 32.287499 33.6875 34.1875 C 33.6875 36.0875 35.087499 37.187499 36.6875 37.1875 C 37.5875 37.1875 38.287499 36.9 38.6875 36.5 C 38.5875 37.2 38.1 37.912501 37.5 38.3125 C 37 38.7125 36.293752 38.906248 35.59375 38.90625 C 35.09375 38.90625 34.893752 38.906248 34.59375 38.90625 L 34.5 38.6875 L 34.5 40.5 C 34.7 40.5 35.1 40.5 35.5 40.5 C 37 40.5 38.287499 39.987499 39.1875 39.1875 C 40.2875 38.2875 40.906248 36.812501 40.90625 34.8125 C 40.90625 32.6125 39.812501 30.687499 37.3125 30.6875 z M 37.1875 32.3125 L 37.3125 32.3125 C 38.3125 32.3125 38.687499 33.312501 38.6875 34.3125 C 38.6875 34.6125 38.693752 34.806248 38.59375 34.90625 C 38.29375 35.20625 37.912501 35.5 37.3125 35.5 C 36.4125 35.5 35.906248 34.8 35.90625 34 C 35.90625 33 36.387499 32.312501 37.1875 32.3125 z "
   style="fill:#f0f0f0;fill-opacity:1;stroke:none"
   id="path3190"
   d="M 37.3125,29.25 C 34.483644,29.25 32.249999,31.519681 32.25,34.1875 C 32.25,35.560834 32.878162,36.680788 33.78125,37.46875 C 33.34413,37.720454 33.071248,38.183166 33.0625,38.6875 L 33.0625,40.5 C 33.061856,40.881446 33.2131,41.247454 33.482823,41.517177 C 33.752546,41.7869 34.118554,41.938144 34.5,41.9375 C 34.7,41.9375 35.1,41.9375 35.5,41.9375 C 37.326847,41.9375 38.975802,41.299285 40.15625,40.25 C 41.646832,39.030433 42.343748,37.108455 42.34375,34.8125 C 42.34375,33.474703 42.027878,32.115899 41.1875,31.03125 C 40.347122,29.946601 38.930801,29.249999 37.3125,29.25 z" />
				</g>
				<g
   id="g2402"
   style="fill:#f0f0f0;fill-opacity:1;stroke:none;stroke-width:4.86658524999999997">
					
					
				</g>
			</g>
			
			
			
			<g
   style="fill:#f0f0f0;fill-opacity:1;stroke:none"
   id="g2404">
				
				
			</g>
			<path
   sodipodi:type="inkscape:offset"
   inkscape:radius="1.8563389"
   inkscape:original="M 37.59375 25 C 36.69375 25 35.906248 25.687499 35.90625 26.6875 C 35.90625 27.5875 36.593752 28.40625 37.59375 28.40625 C 38.49375 28.40625 39.312501 27.687499 39.3125 26.6875 C 39.3125 25.7875 38.593752 25 37.59375 25 z "
   style="fill:#f0f0f0;fill-opacity:1;stroke:none"
   id="path3188"
   d="M 37.59375,23.15625 C 35.748394,23.15625 34.062496,24.712918 34.0625,26.6875 C 34.0625,28.532861 35.580498,30.25 37.59375,30.25 C 39.48208,30.25 41.156252,28.700754 41.15625,26.6875 C 41.15625,24.799174 39.568328,23.15625 37.59375,23.15625 z" />
			<path
   sodipodi:type="inkscape:offset"
   inkscape:radius="1.9721208"
   inkscape:original="M 37.59375 19.6875 C 36.69375 19.6875 35.906248 20.40625 35.90625 21.40625 C 35.90625 22.30625 36.593752 23.09375 37.59375 23.09375 C 38.49375 23.09375 39.312501 22.40625 39.3125 21.40625 C 39.3125 20.50625 38.593752 19.687499 37.59375 19.6875 z "
   style="fill:#f0f0f0;fill-opacity:1;stroke:none"
   id="path3186"
   d="M 37.59375,17.71875 C 35.643778,17.71875 33.937496,19.370882 33.9375,21.40625 C 33.9375,23.310574 35.558387,25.0625 37.59375,25.0625 C 39.498071,25.0625 41.281252,23.482701 41.28125,21.40625 C 41.28125,19.456281 39.670201,17.718748 37.59375,17.71875 z" />
			<path
   sodipodi:type="inkscape:offset"
   inkscape:radius="2.3257644"
   inkscape:original="M 18.3125 8.09375 C 17.5625 8.09375 16.7875 8.4 16.1875 9 L 7 18.40625 L 11.1875 22.59375 L 11.1875 22.5 C 11.1875 22.5 13.30625 20.4125 15.40625 18.3125 L 15.40625 41.6875 L 21.3125 41.6875 L 21.3125 18.3125 C 23.412501 20.412501 25.5 22.5 25.5 22.5 L 29.6875 18.3125 L 20.40625 9 C 19.80625 8.4 19.0625 8.09375 18.3125 8.09375 z "
   style="fill:#f0f0f0;fill-opacity:1;stroke:none"
   id="path3182"
   d="M 18.3125,5.78125 C 16.929375,5.78125 15.559522,6.3154782 14.53125,7.34375 C 14.53118,7.3541665 14.53118,7.3645835 14.53125,7.375 L 5.34375,16.78125 C 4.4408491,17.688662 4.4408491,19.155088 5.34375,20.0625 L 9.53125,24.25 C 10.022229,24.737303 10.704631,24.980788 11.393188,24.914348 C 12.081745,24.847908 12.705003,24.478439 13.09375,23.90625 L 13.09375,41.6875 C 13.101122,42.961592 14.132158,43.992628 15.40625,44 L 21.3125,44 C 22.586592,43.992628 23.617628,42.961592 23.625,41.6875 L 23.625,23.9375 C 23.636097,23.948597 23.84375,24.15625 23.84375,24.15625 C 24.280862,24.599551 24.877439,24.849122 25.5,24.849122 C 26.122561,24.849122 26.719138,24.599551 27.15625,24.15625 L 31.34375,19.96875 C 31.787051,19.531638 32.036622,18.935061 32.036622,18.3125 C 32.036622,17.689939 31.787051,17.093362 31.34375,16.65625 L 22.0625,7.34375 C 21.06278,6.3440296 19.695625,5.78125 18.3125,5.78125 z" />
		</g>
	</g><g
   id="Layer_x0020_4"
   style="fill:#373b41;fill-opacity:1;fill-rule:nonzero;stroke:#373b41;stroke-width:0.8110975;stroke-miterlimit:4"
   transform="matrix(1.2329589,0,0,1.2328358,-5.2845255,-6.4299363)">
		<g
   style="fill:#373b41;fill-opacity:1;stroke:none"
   id="g5">
			<g
   id="g7"
   style="fill:#373b41;fill-opacity:1">
				<g
   id="g9"
   style="fill:#373b41;fill-opacity:1">
					<path
   d="M 36.7,9.2 L 36.7,9.2 L 34.9,10.1 L 34.5,8.4 L 37.1,7.2 L 39,7.2 L 39,16.8 L 36.8,16.8 L 36.8,9.2 L 36.7,9.2 z"
   id="path11"
   style="fill:#373b41;fill-opacity:1" />
					<path
   d="M 34.6,38.9 C 34.9,38.9 35.1,38.9 35.6,38.9 C 36.3,38.9 37,38.7 37.5,38.3 C 38.1,37.9 38.6,37.2 38.7,36.5 L 38.7,36.5 C 38.3,36.9 37.6,37.2 36.7,37.2 C 35.1,37.2 33.7,36.1 33.7,34.2 C 33.7,32.3 35.2,30.7 37.3,30.7 C 39.8,30.7 40.9,32.6 40.9,34.8 C 40.9,36.8 40.3,38.3 39.2,39.2 C 38.3,40 37,40.5 35.5,40.5 C 35.1,40.5 34.7,40.5 34.5,40.5 L 34.5,38.7 L 34.6,38.9 z M 37.2,32.3 C 36.4,32.3 35.9,33 35.9,34 C 35.9,34.8 36.4,35.5 37.3,35.5 C 37.9,35.5 38.3,35.2 38.6,34.9 C 38.7,34.8 38.7,34.6 38.7,34.3 C 38.7,33.3 38.3,32.3 37.3,32.3 L 37.3,32.3 L 37.2,32.3 z"
   id="path13"
   style="fill:#373b41;fill-opacity:1" />
				</g>
				<g
   style="fill:#373b41;fill-opacity:1;stroke:#f0f0f0;stroke-width:4.86658525"
   id="g15">
					
					
				</g>
			</g>
			
			
			
			<g
   id="g27"
   style="fill:#373b41;fill-opacity:1">
				
				
			</g>
			<path
   d="M 39.3,26.7 C 39.3,27.7 38.5,28.4 37.6,28.4 C 36.6,28.4 35.9,27.6 35.9,26.7 C 35.9,25.7 36.7,25 37.6,25 C 38.6,25 39.3,25.8 39.3,26.7 z"
   id="path33"
   style="fill:#373b41;fill-opacity:1" />
			<path
   d="M 39.3,21.4 C 39.3,22.4 38.5,23.1 37.6,23.1 C 36.6,23.1 35.9,22.3 35.9,21.4 C 35.9,20.4 36.7,19.7 37.6,19.7 C 38.6,19.7 39.3,20.5 39.3,21.4 z"
   id="path35"
   style="fill:#373b41;fill-opacity:1" />
			<path
   d="M 11.2,22.5 C 11.2,22.5 13.3,20.4 15.4,18.3 L 15.4,41.7 L 21.3,41.7 L 21.3,18.3 C 23.4,20.4 25.5,22.5 25.5,22.5 L 29.7,18.3 L 20.4,9 C 19.2,7.8 17.4,7.8 16.2,9 L 7,18.4 L 11.2,22.6 L 11.2,22.5 z"
   id="path37"
   style="fill:#373b41;fill-opacity:1" />
		</g>
	</g>
	
</svg>