<?xml version="1.0" encoding="UTF-8" standalone="no"?>
<!-- Created with Inkscape (http://www.inkscape.org/) -->
<svg
   xmlns:dc="http://purl.org/dc/elements/1.1/"
   xmlns:cc="http://creativecommons.org/ns#"
   xmlns:rdf="http://www.w3.org/1999/02/22-rdf-syntax-ns#"
   xmlns:svg="http://www.w3.org/2000/svg"
   xmlns="http://www.w3.org/2000/svg"
   xmlns:sodipodi="http://sodipodi.sourceforge.net/DTD/sodipodi-0.dtd"
   xmlns:inkscape="http://www.inkscape.org/namespaces/inkscape"
   id="svg2"
   sodipodi:version="0.32"
   inkscape:version="0.46"
   width="48"
   height="48"
   version="1.0"
   sodipodi:docbase="/home/qwerty/.icons/qw3rtY_new/scalable/actions"
   sodipodi:docname="media-playlist-repeat.svg"
   inkscape:output_extension="org.inkscape.output.svg.inkscape"
   sodipodi:modified="true">
  <metadata
     id="metadata7">
    <rdf:RDF>
      <cc:Work
         rdf:about="">
        <dc:format>image/svg+xml</dc:format>
        <dc:type
           rdf:resource="http://purl.org/dc/dcmitype/StillImage" />
      </cc:Work>
    </rdf:RDF>
  </metadata>
  <defs
     id="defs5">
    <inkscape:perspective
       sodipodi:type="inkscape:persp3d"
       inkscape:vp_x="0 : 24 : 1"
       inkscape:vp_y="0 : 1000 : 0"
       inkscape:vp_z="48 : 24 : 1"
       inkscape:persp3d-origin="24 : 16 : 1"
       id="perspective9" />
  </defs>
  <sodipodi:namedview
     inkscape:window-height="1001"
     inkscape:window-width="1680"
     inkscape:pageshadow="2"
     inkscape:pageopacity="0.0"
     guidetolerance="10000"
     gridtolerance="10000"
     objecttolerance="10000"
     borderopacity="1.0"
     bordercolor="#666666"
     pagecolor="#f0f0f0"
     id="base"
     width="48px"
     height="48px"
     showgrid="true"
     inkscape:zoom="8.4791668"
     inkscape:cx="-12.460697"
     inkscape:cy="18.335959"
     inkscape:window-x="0"
     inkscape:window-y="24"
     inkscape:current-layer="svg2" />
  <path
     sodipodi:type="inkscape:offset"
     inkscape:radius="7.9524865"
     inkscape:original="M 30.25 5.5 L 30.25 15.5 L 36.46875 10.5 L 30.25 5.5 z "
     style="fill:#f0f0f0;fill-opacity:1;fill-rule:evenodd;stroke:none;stroke-width:5;stroke-linecap:butt;stroke-linejoin:miter;stroke-miterlimit:4;stroke-dasharray:none;stroke-opacity:1"
     id="path3162"
     d="M 30.0625,-2.4375 C 25.755734,-2.3273912 22.319641,1.1918328 22.3125,5.5 L 22.3125,15.5 C 22.325988,18.54736 24.079544,21.319087 26.827459,22.63649 C 29.575374,23.953892 32.834451,23.585316 35.21875,21.6875 L 41.4375,16.6875 C 43.307163,15.177582 44.393829,12.903225 44.393829,10.5 C 44.393829,8.0967748 43.307163,5.8224179 41.4375,4.3125 L 35.21875,-0.6875 C 33.759444,-1.8593517 31.933619,-2.4790257 30.0625,-2.4375 L 30.0625,-2.4375 z"
     transform="matrix(0.9286975,0,0,0.9286975,1.7112134,2.6921805)" />
  <path
     sodipodi:type="inkscape:offset"
     inkscape:radius="1.0669266"
     inkscape:original="M 17.53125 23.3125 C 15.694299 23.371365 13.949719 24.131823 12.65625 25.4375 L 7.6875 30.4375 C 4.9061895 33.239486 4.9061895 37.760514 7.6875 40.5625 L 12.65625 45.5625 C 14.707734 47.62516 17.810398 48.233691 20.5 47.125 C 23.189601 46.016309 24.935464 43.409149 24.9375 40.5 L 24.9375 30.5 C 24.938787 28.555122 24.145693 26.69822 22.75 25.34375 C 21.354307 23.989279 19.475215 23.252922 17.53125 23.3125 z "
     style="fill:#f0f0f0;fill-rule:evenodd;stroke:none;stroke-width:5;stroke-linecap:butt;stroke-linejoin:miter;stroke-miterlimit:4;stroke-dasharray:none;stroke-opacity:1"
     id="path3174"
     d="M 17.5,22.25 C 15.390659,22.317594 13.391519,23.188213 11.90625,24.6875 L 6.9375,29.6875 C 3.7519457,32.896735 3.7519457,38.103265 6.9375,41.3125 L 11.90625,46.3125 C 14.263039,48.682128 17.822185,49.396294 20.90625,48.125 C 23.990314,46.853706 25.997666,43.835565 26,40.5 L 26,30.5 C 26.001479,28.264621 25.100464,26.115693 23.5,24.5625 C 21.899535,23.009305 19.734056,22.181531 17.5,22.25 z"
     transform="matrix(0.9286975,0,0,0.9286975,1.7112134,2.6921805)" />
  <path
     style="fill:#f0f0f0;fill-opacity:1;fill-rule:evenodd;stroke:none;stroke-width:5;stroke-linecap:butt;stroke-linejoin:round;stroke-miterlimit:4;stroke-dasharray:none;stroke-opacity:1"
     d="M 6.035461,6.6101229 C 2.8410038,6.7927383 0.46966213,10.080092 0.78251588,13.111004 C 0.82077216,20.919547 0.70687477,28.733092 0.84430667,36.538507 C 1.213063,39.580936 4.3614964,41.776086 7.2833982,41.494321 C 18.849779,41.478051 30.417549,41.533984 41.98306,41.476415 C 45.146762,41.255623 47.523093,38.014944 47.21739,34.993439 C 47.179133,27.184896 47.29303,19.371351 47.155598,11.565935 C 46.786842,8.5235084 43.638408,6.3283584 40.716508,6.6101229 C 29.156158,6.6101229 17.59581,6.6101229 6.035461,6.6101229 z"
     id="path3171"
     sodipodi:nodetypes="ccccccccc" />
  <path
     style="fill:none;fill-rule:evenodd;stroke:#373b41;stroke-width:4.64348745;stroke-linecap:butt;stroke-linejoin:miter;stroke-miterlimit:4;stroke-dasharray:none;stroke-opacity:1"
     d="M 29.792584,7.8000166 L 29.792584,17.086991 L 35.585218,12.443503 L 29.792584,7.8000166 z"
     id="path3136" />
  <path
     style="fill:none;fill-rule:evenodd;stroke:#373b41;stroke-width:4.64348745;stroke-linecap:butt;stroke-linejoin:miter;stroke-miterlimit:4;stroke-dasharray:none;stroke-opacity:1"
     d="M 18.207318,31.017452 L 13.573212,35.660939 L 18.207318,40.304427 L 18.207318,31.017452 z"
     id="path3139" />
  <path
     style="fill:none;fill-rule:evenodd;stroke:#373b41;stroke-width:4.64348745;stroke-linecap:butt;stroke-linejoin:round;stroke-miterlimit:4;stroke-dasharray:none;stroke-opacity:1"
     d="M 6.6220527,12.443503 L 41.377851,12.443503 L 41.377851,35.660939 L 6.6220527,35.660939 L 6.6220527,12.443503 z"
     id="path3134" />
</svg>
