<?xml version="1.0" encoding="UTF-8" standalone="no"?>
<!-- Generator: Adobe Illustrator 9.0, SVG Export Plug-In  -->
<svg
   xmlns:dc="http://purl.org/dc/elements/1.1/"
   xmlns:cc="http://creativecommons.org/ns#"
   xmlns:rdf="http://www.w3.org/1999/02/22-rdf-syntax-ns#"
   xmlns:svg="http://www.w3.org/2000/svg"
   xmlns="http://www.w3.org/2000/svg"
   xmlns:sodipodi="http://sodipodi.sourceforge.net/DTD/sodipodi-0.dtd"
   xmlns:inkscape="http://www.inkscape.org/namespaces/inkscape"
   width="48"
   height="48"
   viewBox="0 0 48 48"
   xml:space="preserve"
   id="svg2"
   sodipodi:version="0.32"
   inkscape:version="0.46"
   sodipodi:docname="media-floppy.svg"
   sodipodi:docbase="/home/christof/themes_and_icons/meinICONtheme/BRIT ICONS/scalable/actions"
   version="1.0"
   inkscape:output_extension="org.inkscape.output.svg.inkscape"><metadata
   id="metadata25"><rdf:RDF><cc:Work
       rdf:about=""><dc:format>image/svg+xml</dc:format><dc:type
         rdf:resource="http://purl.org/dc/dcmitype/StillImage" /></cc:Work></rdf:RDF></metadata><defs
   id="defs23"><inkscape:perspective
   sodipodi:type="inkscape:persp3d"
   inkscape:vp_x="0 : 24 : 1"
   inkscape:vp_y="0 : 1000 : 0"
   inkscape:vp_z="48 : 24 : 1"
   inkscape:persp3d-origin="24 : 16 : 1"
   id="perspective9" />
		
	
			
			
			
			
			
			
		</defs><sodipodi:namedview
   inkscape:window-height="1001"
   inkscape:window-width="1680"
   inkscape:pageshadow="2"
   inkscape:pageopacity="0.55686275"
   borderopacity="1.0"
   bordercolor="#666666"
   pagecolor="#8f3b3b"
   id="base"
   showgrid="true"
   inkscape:grid-bbox="true"
   inkscape:grid-points="true"
   inkscape:zoom="8.2083331"
   inkscape:cx="51.460214"
   inkscape:cy="20.287631"
   inkscape:window-x="0"
   inkscape:window-y="24"
   inkscape:current-layer="svg2" />
	<path
   sodipodi:type="inkscape:offset"
   inkscape:radius="0.73096448"
   inkscape:original="M 7 1.71875 C 3.8352432 2.0504572 1.3578613 4.8266941 1.375 8.03125 L 1.375 35.75 C 1.3711009 37.367513 1.9785739 39.00553 3.1875 40.21875 L 7.28125 44.34375 C 8.4944721 45.552685 10.132492 46.160151 11.75 46.15625 L 40.53125 46.15625 C 43.943555 46.155911 46.812161 43.287303 46.8125 39.875 L 46.8125 8 C 46.812161 4.5876941 43.943556 1.7190905 40.53125 1.71875 L 7.84375 1.71875 C 7.783477 1.7156068 7.7218745 1.7200073 7.65625 1.71875 C 7.5031263 1.7158164 7.3593872 1.7114159 7.21875 1.71875 C 7.1458485 1.7166479 7.0729015 1.7166479 7 1.71875 z "
   style="fill:#f0f0f0;fill-opacity:1;fill-rule:nonzero;stroke:none;stroke-width:5.99999904999999956;stroke-linecap:round;stroke-linejoin:round;stroke-miterlimit:4;stroke-dasharray:none;stroke-opacity:1"
   id="path2386"
   d="M 6.9375,1 C 3.3915395,1.3716622 0.63708447,4.4477225 0.65625,8.03125 L 0.65625,35.75 C 0.65190687,37.551715 1.3015423,39.390481 2.65625,40.75 L 6.75,44.84375 C 6.7497773,44.854165 6.7497773,44.864585 6.75,44.875 C 8.1095228,46.229719 9.948291,46.879345 11.75,46.875 L 40.53125,46.875 C 44.353179,46.87462 47.53087,43.696927 47.53125,39.875 L 47.53125,8 C 47.53087,4.1780708 44.353179,1.0003814 40.53125,1 L 7.875,1 C 7.8576322,0.99909428 7.8588821,1.0004588 7.84375,1 C 7.7529575,0.99724747 7.6769982,1.0003975 7.65625,1 C 7.5280821,0.99754451 7.4025984,0.99503428 7.25,1 C 7.2306791,0.99944288 7.2068251,1.0003095 7.1875,1 C 7.1198621,0.99891672 7.0363733,0.9980501 6.96875,1 C 6.9583345,0.99977733 6.9479155,0.99977733 6.9375,1 L 6.9375,1 z" /><path
   style="fill:#373b41;fill-opacity:1;fill-rule:nonzero;stroke:none;stroke-width:5.99999905;stroke-linecap:round;stroke-linejoin:round;stroke-miterlimit:4;stroke-dasharray:none;stroke-opacity:1"
   d="M 7.4075789,5.495944 C 6.1219913,5.6306901 5.1479022,6.7180454 5.1548154,8.0106568 L 5.1548154,35.751082 C 5.153206,36.418646 5.4170709,37.059462 5.8882733,37.532338 L 9.9746816,41.644941 C 10.447558,42.116144 11.088373,42.380009 11.755937,42.378399 L 40.517964,42.378399 C 41.906745,42.378261 43.032539,41.252467 43.032677,39.863686 L 43.032677,8.0106568 C 43.032539,6.6218768 41.906745,5.4960826 40.517964,5.495944 L 7.6695283,5.495944 C 7.5822712,5.4913936 7.4948361,5.4913936 7.4075789,5.495944 z M 9.7127323,9.0322584 L 38.474761,9.0322584 L 38.474761,22.391671 L 9.7127323,22.391671 L 9.7127323,9.0322584 z M 13.825336,26.504275 L 31.271156,26.504275 C 32.400782,26.504275 33.340555,27.416794 33.340555,28.547478 L 33.340555,37.820483 C 33.340555,38.951167 32.400782,39.863686 31.271156,39.863686 L 13.825336,39.863686 C 12.695709,39.863687 11.755937,38.951166 11.755937,37.820483 L 11.755937,28.547478 C 11.755937,27.416794 12.695709,26.504275 13.825336,26.504275 z "
   id="path9" /><path
   style="fill:#373b41;fill-opacity:1;fill-rule:nonzero;stroke:none;stroke-miterlimit:4"
   d="M 21.264733,36.647984 L 15.618391,36.647984 L 15.618391,28.170545 L 21.264733,28.170545 L 21.264733,36.647984 z "
   id="path15"
   sodipodi:nodetypes="ccccc" />
	
</svg>