<?xml version="1.0" encoding="UTF-8" standalone="no"?>
<!-- Created with Inkscape (http://www.inkscape.org/) -->
<svg
   xmlns:dc="http://purl.org/dc/elements/1.1/"
   xmlns:cc="http://creativecommons.org/ns#"
   xmlns:rdf="http://www.w3.org/1999/02/22-rdf-syntax-ns#"
   xmlns:svg="http://www.w3.org/2000/svg"
   xmlns="http://www.w3.org/2000/svg"
   xmlns:sodipodi="http://sodipodi.sourceforge.net/DTD/sodipodi-0.dtd"
   xmlns:inkscape="http://www.inkscape.org/namespaces/inkscape"
   inkscape:export-ydpi="240.00000"
   inkscape:export-xdpi="240.00000"
   inkscape:export-filename="/home/jimmac/gfx/novell/pdes/trunk/docs/BIGmime-text.png"
   sodipodi:docname="zoom-original.svg"
   sodipodi:docbase="/home/christof/themes_and_icons/meinICONtheme/BRIT ICONS/scalable/actions"
   inkscape:version="0.46"
   sodipodi:version="0.32"
   id="svg249"
   height="48.303030px"
   width="48.303030px"
   inkscape:output_extension="org.inkscape.output.svg.inkscape">
  <defs
     id="defs3">
    <inkscape:perspective
       sodipodi:type="inkscape:persp3d"
       inkscape:vp_x="0 : 24.151514 : 1"
       inkscape:vp_y="0 : 1000 : 0"
       inkscape:vp_z="48.303028 : 24.151514 : 1"
       inkscape:persp3d-origin="24.151514 : 16.101009 : 1"
       id="perspective16" />
  </defs>
  <sodipodi:namedview
     inkscape:window-y="24"
     inkscape:window-x="0"
     inkscape:window-height="1001"
     inkscape:window-width="1680"
     inkscape:document-units="px"
     inkscape:grid-bbox="true"
     showgrid="false"
     inkscape:current-layer="layer5"
     inkscape:cy="22.797858"
     inkscape:cx="24.959564"
     inkscape:zoom="7.9479165"
     inkscape:pageshadow="2"
     inkscape:pageopacity="0"
     borderopacity="1"
     bordercolor="#666666"
     pagecolor="#b6b6b6"
     id="base"
     inkscape:showpageshadow="true"
     showborder="true"
     showguides="true"
     inkscape:guide-bbox="true"
     inkscape:grid-points="true"
     fill="#729fcf"
     stroke="#2e3436">
    <sodipodi:guide
       orientation="horizontal"
       position="28"
       id="guide1415" />
    <sodipodi:guide
       orientation="vertical"
       position="20.005242"
       id="guide20759" />
    <inkscape:grid
       id="GridFromPre046Settings"
       type="xygrid"
       originx="0px"
       originy="0px"
       spacingx="0.5px"
       spacingy="0.5px"
       color="#0000ff"
       empcolor="#0000ff"
       opacity="0.2"
       empopacity="0.4"
       empspacing="2" />
  </sodipodi:namedview>
  <metadata
     id="metadata4">
    <rdf:RDF>
      <cc:Work
         rdf:about="">
        <dc:format>image/svg+xml</dc:format>
        <dc:type
           rdf:resource="http://purl.org/dc/dcmitype/StillImage" />
        <dc:title>Zoom original</dc:title>
        <dc:subject>
          <rdf:Bag />
        </dc:subject>
        <cc:license
           rdf:resource="http://creativecommons.org/licenses/LGPL/2.1/" />
        <dc:creator>
          <cc:Agent>
            <dc:title />
          </cc:Agent>
        </dc:creator>
        <dc:source />
        <dc:contributor>
          <cc:Agent>
            <dc:title />
          </cc:Agent>
        </dc:contributor>
        <dc:date />
      </cc:Work>
      <cc:License
         rdf:about="http://creativecommons.org/licenses/LGPL/2.1/">
        <cc:permits
           rdf:resource="http://web.resource.org/cc/Reproduction" />
        <cc:permits
           rdf:resource="http://web.resource.org/cc/Distribution" />
        <cc:requires
           rdf:resource="http://web.resource.org/cc/Notice" />
        <cc:permits
           rdf:resource="http://web.resource.org/cc/DerivativeWorks" />
        <cc:requires
           rdf:resource="http://web.resource.org/cc/ShareAlike" />
        <cc:requires
           rdf:resource="http://web.resource.org/cc/SourceCode" />
      </cc:License>
    </rdf:RDF>
  </metadata>
  <g
     inkscape:groupmode="layer"
     id="layer5"
     inkscape:label="Text"
     style="display:inline">
    <path
       style="fill:#f0f0f0;fill-opacity:1;stroke:none;stroke-width:4;stroke-linecap:round;stroke-linejoin:round;stroke-miterlimit:4;stroke-dasharray:none;stroke-opacity:1"
       d="M 20.03125,0.625 C 11.169451,0.46695353 2.8206302,7.2284094 1.0497691,15.901016 C -0.65394344,23.45098 2.6732379,31.81403 9.1380512,36.086756 C 15.388605,40.393291 24.187595,40.575259 30.527227,36.349016 C 36.792252,32.350938 40.446651,24.600687 39.262574,17.224124 C 38.145088,9.3574002 31.797794,2.527959 23.96691,1.0253214 C 22.673248,0.75820759 21.352229,0.62339388 20.03125,0.625 z"
       id="path2405"
       sodipodi:nodetypes="ccccccc" />
    <path
       sodipodi:type="inkscape:offset"
       inkscape:radius="3.5430992"
       inkscape:original="M 29.46875 29.46875 L 31.4375 35.90625 L 38.375 43.34375 C 38.853452 43.856374 41.090714 44.596786 42.84375 42.84375 C 44.33125 41.35625 43.872639 38.868629 43.34375 38.375 L 35.90625 31.4375 L 29.46875 29.46875 z "
       style="fill:#f0f0f0;fill-opacity:1;fill-rule:nonzero;stroke:none;stroke-width:8;stroke-linecap:round;stroke-linejoin:round;marker:none;marker-start:none;marker-mid:none;marker-end:none;stroke-miterlimit:4;stroke-dasharray:none;stroke-dashoffset:0;stroke-opacity:1;visibility:visible;display:inline;overflow:visible"
       id="path2398"
       d="M 29.09375,25.9375 C 28.044035,26.052929 27.100507,26.630545 26.520311,27.512927 C 25.940114,28.395309 25.78372,29.490492 26.09375,30.5 L 28.0625,36.9375 C 28.216008,37.448835 28.483075,37.918873 28.84375,38.3125 L 35.78125,45.75 C 36.550375,46.574057 37.117852,46.782576 37.78125,47.03125 C 38.444648,47.279924 39.174592,47.439159 40,47.46875 C 41.650815,47.527932 43.757975,46.929525 45.34375,45.34375 C 46.914541,43.772959 47.397015,41.802176 47.40625,40.25 C 47.410868,39.473912 47.292191,38.780761 47.09375,38.09375 C 46.895309,37.406739 46.780682,36.743219 45.75,35.78125 L 38.3125,28.84375 C 37.918873,28.483075 37.448835,28.216008 36.9375,28.0625 L 30.5,26.09375 C 30.046521,25.947659 29.568238,25.894516 29.09375,25.9375 z" />
    <rect
       style="fill:none;fill-opacity:0.27027025;stroke:none;stroke-width:4;stroke-linecap:round;stroke-linejoin:round;stroke-miterlimit:4;stroke-dasharray:none;stroke-opacity:1"
       id="rect1493"
       width="47.599998"
       height="47.599998"
       x="0.2"
       y="0.2" />
    <path
       style="fill:#373b41;fill-opacity:1;stroke:none;stroke-width:4;stroke-linecap:round;stroke-linejoin:round;stroke-miterlimit:4;stroke-dasharray:none;stroke-opacity:1"
       d="M 20.042188,4.1578125 C 11.283787,4.1578125 4.1578125,11.283787 4.1578125,20.042188 C 4.1578125,28.800588 11.283787,35.900001 20.042188,35.9 C 28.800588,35.9 35.900001,28.800588 35.9,20.042188 C 35.9,11.283787 28.800588,4.1578125 20.042188,4.1578125 z M 20.042188,8.1421875 C 26.610988,8.1421876 31.942187,13.473387 31.942187,20.042188 C 31.942187,26.610988 26.610988,31.942187 20.042188,31.942187 C 13.473387,31.942187 8.1421875,26.610988 8.1421875,20.042188 C 8.1421876,13.473387 13.473387,8.1421875 20.042188,8.1421875 z"
       id="path4119" />
    <path
       style="fill:#373b41;fill-opacity:1;fill-rule:nonzero;stroke:none;stroke-width:8;stroke-linecap:round;stroke-linejoin:round;marker:none;marker-start:none;marker-mid:none;marker-end:none;stroke-miterlimit:4;stroke-dasharray:none;stroke-dashoffset:0;stroke-opacity:1;visibility:visible;display:inline;overflow:visible"
       d="M 29.454167,29.454167 L 31.4375,35.9 L 38.379167,43.3375 C 38.857618,43.850126 41.088631,44.594703 42.841667,42.841667 C 44.329167,41.354167 43.866389,38.872796 43.3375,38.379167 L 35.9,31.4375 L 29.454167,29.454167 z"
       id="path15511"
       sodipodi:nodetypes="cczzzcc" />
    <rect
       style="fill:none;fill-opacity:1;stroke:none;stroke-width:8;stroke-linecap:round;stroke-linejoin:round;stroke-miterlimit:4;stroke-dasharray:none;stroke-opacity:1"
       id="rect17259"
       width="16.858334"
       height="16.858334"
       x="11.604167"
       y="11.604167" />
    <path
       style="font-size:24px;font-style:normal;font-variant:normal;font-weight:bold;font-stretch:normal;text-align:start;line-height:100%;writing-mode:lr-tb;text-anchor:start;fill:#373b41;fill-opacity:1;stroke:none;stroke-width:1px;stroke-linecap:butt;stroke-linejoin:miter;stroke-opacity:1;font-family:Bitstream Vera Sans"
       d="M 14.187923,24.875455 L 18.139095,24.875455 L 18.139095,13.661101 L 14.083333,14.497819 L 14.083333,11.453092 L 18.115853,10.616373 L 22.369174,10.616373 L 22.369174,24.875455 L 26.320345,24.875455 L 26.320345,27.966667 L 14.187923,27.966667 L 14.187923,24.875455"
       id="text23386" />
  </g>
</svg>
