<?xml version="1.0" encoding="UTF-8" standalone="no"?>
<!-- Created with Inkscape (http://www.inkscape.org/) -->
<svg
   xmlns:dc="http://purl.org/dc/elements/1.1/"
   xmlns:cc="http://creativecommons.org/ns#"
   xmlns:rdf="http://www.w3.org/1999/02/22-rdf-syntax-ns#"
   xmlns:svg="http://www.w3.org/2000/svg"
   xmlns="http://www.w3.org/2000/svg"
   xmlns:sodipodi="http://sodipodi.sourceforge.net/DTD/sodipodi-0.dtd"
   xmlns:inkscape="http://www.inkscape.org/namespaces/inkscape"
   width="48.303030px"
   height="48.303030px"
   id="svg1306"
   sodipodi:version="0.32"
   inkscape:version="0.46"
   sodipodi:docbase="/home/qwerty/.icons/MonoIce/scalable/actions"
   sodipodi:docname="window-new.svg"
   inkscape:output_extension="org.inkscape.output.svg.inkscape">
  <defs
     id="defs1308">
    <inkscape:perspective
       sodipodi:type="inkscape:persp3d"
       inkscape:vp_x="0 : 24.151514 : 1"
       inkscape:vp_y="0 : 1000 : 0"
       inkscape:vp_z="48.303028 : 24.151514 : 1"
       inkscape:persp3d-origin="24.151514 : 16.101009 : 1"
       id="perspective11" />
  </defs>
  <sodipodi:namedview
     id="base"
     pagecolor="#f0f0f0"
     bordercolor="#666666"
     borderopacity="1.0"
     inkscape:pageopacity="0.0"
     inkscape:pageshadow="2"
     inkscape:zoom="5.590563"
     inkscape:cx="1.3562576"
     inkscape:cy="35.303822"
     inkscape:current-layer="layer1"
     showgrid="true"
     inkscape:grid-bbox="true"
     inkscape:document-units="px"
     inkscape:grid-points="true"
     showguides="true"
     inkscape:guide-bbox="true"
     inkscape:window-width="1270"
     inkscape:window-height="945"
     inkscape:window-x="9"
     inkscape:window-y="55" />
  <metadata
     id="metadata1311">
    <rdf:RDF>
      <cc:Work
         rdf:about="">
        <dc:format>image/svg+xml</dc:format>
        <dc:type
           rdf:resource="http://purl.org/dc/dcmitype/StillImage" />
      </cc:Work>
    </rdf:RDF>
  </metadata>
  <g
     id="layer1"
     inkscape:label="Layer 1"
     inkscape:groupmode="layer">
    <path
       style="fill:#f0f0f0;fill-opacity:1;fill-rule:evenodd;stroke:none;stroke-width:1px;stroke-linecap:butt;stroke-linejoin:miter;stroke-opacity:1"
       d="M 7.2443585,1.7538455 C 3.6438159,1.4981943 0.12951257,4.6109859 0.36293743,8.3061156 C 0.20733925,16.530247 0.34266633,24.760538 0.29481282,32.987201 C 0.33172201,36.36856 0.23268791,39.759557 0.37616675,43.134782 C 0.88934096,45.822957 3.9375358,46.46578 6.2523823,46.131085 C 18.934123,46.120867 31.615914,46.150709 44.297613,46.105468 C 46.975193,45.941631 48.147729,42.952471 47.718611,40.619634 C 47.683372,29.576076 47.790925,18.528824 47.655211,7.4875989 C 47.32042,4.0482222 43.929598,1.3862196 40.509953,1.7865052 C 29.422007,1.7020765 18.33269,1.7870821 7.2443585,1.7538455 z"
       id="path2389"
       sodipodi:nodetypes="cccccccccc" />
    <path
       style="fill:#373b41;fill-opacity:1;fill-rule:evenodd;stroke:none;stroke-width:1px;stroke-linecap:butt;stroke-linejoin:miter;stroke-opacity:1"
       d="M 7.2443585,5.5768003 C 5.1501825,5.5768003 4.1164864,6.632617 4.1164864,8.7314064 L 4.1164864,42.309247 L 43.896604,42.309247 L 43.896604,8.7314064 C 43.896604,6.6326168 42.862908,5.5768003 40.768732,5.5768003 L 7.2443585,5.5768003 z M 9.3563406,9.7740305 L 38.65675,9.7740305 C 39.277132,9.7740306 39.726108,10.194907 39.726108,10.816655 L 39.726108,37.042659 C 39.726108,37.664406 39.27713,38.112017 38.65675,38.112017 L 9.3563406,38.112017 C 8.7359601,38.112017 8.2869826,37.664405 8.2869826,37.042659 L 8.2869826,10.816655 C 8.2869827,10.194907 8.73596,9.7740305 9.3563406,9.7740305 z"
       id="rect1314" />
    <path
       style="fill:none;fill-opacity:0.75;fill-rule:evenodd;stroke:#373b41;stroke-width:5.13291788;stroke-linecap:butt;stroke-linejoin:miter;stroke-miterlimit:4;stroke-dasharray:none;stroke-opacity:1"
       d="M 9.2356621,15.017592 L 38.77743,15.017592"
       id="path2772"
       sodipodi:nodetypes="cc" />
    <path
       style="fill:none;fill-opacity:0.75;fill-rule:evenodd;stroke:#373b41;stroke-width:3.4219451;stroke-linecap:butt;stroke-linejoin:miter;stroke-miterlimit:4;stroke-dasharray:none;stroke-opacity:1"
       d="M 15.62984,28.659725 L 32.383249,28.659725"
       id="path1874" />
    <path
       id="path2762"
       d="M 24.006545,20.264567 L 24.006545,37.054882"
       style="fill:none;fill-opacity:0.75;fill-rule:evenodd;stroke:#373b41;stroke-width:3.4219451;stroke-linecap:butt;stroke-linejoin:miter;stroke-miterlimit:4;stroke-dasharray:none;stroke-opacity:1" />
  </g>
</svg>
