<?xml version="1.0" encoding="UTF-8" standalone="no"?>
<!-- Generator: Adobe Illustrator 9.0, SVG Export Plug-In  -->
<svg
   xmlns:dc="http://purl.org/dc/elements/1.1/"
   xmlns:cc="http://creativecommons.org/ns#"
   xmlns:rdf="http://www.w3.org/1999/02/22-rdf-syntax-ns#"
   xmlns:svg="http://www.w3.org/2000/svg"
   xmlns="http://www.w3.org/2000/svg"
   xmlns:sodipodi="http://sodipodi.sourceforge.net/DTD/sodipodi-0.dtd"
   xmlns:inkscape="http://www.inkscape.org/namespaces/inkscape"
   width="48"
   height="48"
   viewBox="0 0 24 24"
   xml:space="preserve"
   id="svg2"
   sodipodi:version="0.32"
   inkscape:version="0.46"
   sodipodi:docname="edit-paste.svg"
   sodipodi:docbase="/home/christof/themes_and_icons/meinICONtheme/BRIT ICONS/scalable/actions"
   inkscape:output_extension="org.inkscape.output.svg.inkscape"
   version="1.0"><metadata
   id="metadata70"><rdf:RDF><cc:Work
       rdf:about=""><dc:format>image/svg+xml</dc:format><dc:type
         rdf:resource="http://purl.org/dc/dcmitype/StillImage" /></cc:Work></rdf:RDF></metadata><defs
   id="defs68"><inkscape:perspective
     sodipodi:type="inkscape:persp3d"
     inkscape:vp_x="0 : 24 : 1"
     inkscape:vp_y="0 : 1000 : 0"
     inkscape:vp_z="48 : 24 : 1"
     inkscape:persp3d-origin="24 : 16 : 1"
     id="perspective37" /></defs><sodipodi:namedview
   inkscape:window-height="1001"
   inkscape:window-width="1680"
   inkscape:pageshadow="2"
   inkscape:pageopacity="0.0"
   guidetolerance="10.0"
   gridtolerance="10.0"
   objecttolerance="10.0"
   borderopacity="1.0"
   bordercolor="#666666"
   pagecolor="#f0f0f0"
   id="base"
   width="48px"
   height="48px"
   inkscape:zoom="9.5930821"
   inkscape:cx="4.9750245"
   inkscape:cy="20.539834"
   inkscape:window-x="0"
   inkscape:window-y="24"
   inkscape:current-layer="svg2"
   showgrid="true" />
	
	
	<path
   style="fill:#f0f0f0;fill-opacity:1;fill-rule:nonzero;stroke:none;stroke-width:0.84759998;stroke-miterlimit:4;stroke-opacity:1"
   d="M 9.1450059,7.5884589 C 7.8101215,8.0741702 6.2350763,9.2588348 6.3811351,10.882715 C 6.3918787,14.333576 6.3596153,17.785643 6.3973209,21.23575 C 6.5730906,22.947254 8.3285953,24.058528 9.962869,23.833878 C 13.64323,23.824057 17.324626,23.853569 21.004336,23.819036 C 22.729738,23.672639 23.913307,21.943534 23.670683,20.282853 C 23.660051,16.9252 23.691986,13.566395 23.654651,10.209463 C 23.496561,8.4672934 21.708469,7.3605503 20.05824,7.5884589 C 16.420495,7.5884589 12.78275,7.5884589 9.1450059,7.5884589 z"
   id="path3420"
   sodipodi:nodetypes="ccccccccc" /><g
   style="fill:#f0f0f0;fill-opacity:1;fill-rule:nonzero;stroke:none;stroke-width:1.06474471;stroke-miterlimit:4"
   id="g3333"
   transform="matrix(0.9229533,0,0,0.9229533,1.0791145,1.18089)">
		<path
   sodipodi:type="inkscape:offset"
   inkscape:radius="3.884681"
   inkscape:original="M 13.3125 1.6875 C 12.114249 1.918084 11.248674 2.967265 11.25 4.1875 L 11.25 5.8125 L 4.8125 5.8125 C 3.4124998 5.8124998 2.40625 6.7875 2.40625 8.1875 L 2.40625 40.59375 C 2.4062499 41.993752 3.4125 43 4.8125 43 L 15.03125 43 C 15.027091 42.934392 15 42.879573 15 42.8125 L 15 20.40625 C 15 18.80625 16.212501 17.59375 17.8125 17.59375 L 17.8125 17.40625 L 39.8125 17.40625 L 39.8125 8.1875 C 39.812501 6.7875002 38.80625 5.8125 37.40625 5.8125 L 31.75 5.8125 L 31.75 4.1875 C 31.726418 2.7922492 30.582908 1.6766302 29.1875 1.6875 L 13.8125 1.6875 C 13.646238 1.6710757 13.478762 1.6710757 13.3125 1.6875 z M 13.8125 4.1875 L 29.1875 4.1875 L 29.1875 9.1875 L 31.59375 11.59375 L 11.40625 11.59375 L 13.8125 9.1875 L 13.8125 4.1875 z "
   style="fill:#f0f0f0;fill-opacity:1;stroke:none;stroke-width:0.22561938;stroke-opacity:1"
   id="path3418"
   d="M 12.9375,-2.1875 C 12.822037,-2.1718321 12.707338,-2.1509777 12.59375,-2.125 C 10.364148,-1.6959492 8.5565431,-0.10291484 7.78125,1.9375 L 4.8125,1.9375 C 1.6088975,1.9374995 -1.46875,4.9260907 -1.46875,8.1875 L -1.46875,40.59375 C -1.4687502,43.855159 1.5510941,46.875 4.8125,46.875 L 15.03125,46.875 C 16.102835,46.874268 17.126534,46.430966 17.860222,45.649943 C 18.59391,44.86892 18.972428,43.81954 18.90625,42.75 C 18.874801,42.253888 18.873005,42.015025 18.875,42.03125 L 18.875,21.34375 C 18.927528,21.324047 18.979624,21.303209 19.03125,21.28125 L 39.8125,21.28125 C 41.950307,21.275716 43.681966,19.544057 43.6875,17.40625 L 43.6875,8.1875 C 43.687502,4.9260872 40.609852,1.9375 37.40625,1.9375 L 35.15625,1.9375 C 34.207321,-0.4733756 31.867272,-2.208618 29.15625,-2.1875 L 14.1875,-2.1875 C 14.061429,-2.199954 13.938958,-2.1825184 13.8125,-2.1875 C 13.517431,-2.1991238 13.231666,-2.2165594 12.9375,-2.1875 z"
   transform="scale(0.5,0.5)" />
		<linearGradient
   y2="20.198799"
   x2="17.7295"
   y1="4.8804002"
   x1="4.1273999"
   gradientUnits="userSpaceOnUse"
   id="linearGradient3337">
			<stop
   id="stop3339"
   style="stop-color:#F8FAEB"
   offset="0" />
			<stop
   id="stop3341"
   style="stop-color:#F2F4E4"
   offset="0.1196" />
			<stop
   id="stop3343"
   style="stop-color:#E0E1D3"
   offset="0.2647" />
			<stop
   id="stop3345"
   style="stop-color:#C3C4B7"
   offset="0.4232" />
			<stop
   id="stop3347"
   style="stop-color:#9D9E93"
   offset="0.591" />
			<stop
   id="stop3349"
   style="stop-color:#707169"
   offset="0.7664" />
			<stop
   id="stop3351"
   style="stop-color:#3F3F3B"
   offset="0.9454" />
			<stop
   id="stop3353"
   style="stop-color:#2F2F2C"
   offset="1" />
		</linearGradient>
		
		<linearGradient
   y2="5.9401999"
   x2="4.6416998"
   y1="19.096701"
   x1="17.2227"
   gradientUnits="userSpaceOnUse"
   id="linearGradient3355">
			<stop
   id="stop3357"
   style="stop-color:#DEDFCE"
   offset="0" />
			<stop
   id="stop3359"
   style="stop-color:#C2C4B5"
   offset="1" />
		</linearGradient>
		
		
		<linearGradient
   y2="5.8457999"
   x2="10.7598"
   y1="2.2788"
   x1="10.7598"
   gradientUnits="userSpaceOnUse"
   id="linearGradient3361">
			<stop
   id="stop3363"
   style="stop-color:#EDEDED"
   offset="5.618000e-003" />
			<stop
   id="stop3365"
   style="stop-color:#909090"
   offset="0.1404" />
			<stop
   id="stop3367"
   style="stop-color:#CFCFCF"
   offset="1" />
		</linearGradient>
		
	</g><g
   id="g2185"
   transform="matrix(0.9229533,0,0,0.9229533,1.0791145,1.18089)"><path
     id="path45"
     transform="scale(0.5,0.5)"
     d="M 17.8125,17.40625 L 17.8125,17.59375 C 16.212501,17.59375 15,18.80625 15,20.40625 L 15,42.8125 C 15,44.412501 16.2125,45.59375 17.8125,45.59375 L 42.59375,45.59375 C 44.193752,45.593752 45.40625,44.4125 45.40625,42.8125 L 45.40625,20.1875 C 45.406248,18.587499 44.19375,17.40625 42.59375,17.40625 L 17.8125,17.40625 z M 17.8125,19.1875 L 42.59375,19.1875 C 43.193752,19.187499 43.59375,19.5875 43.59375,20.1875 L 43.59375,42.59375 L 43.8125,42.59375 C 43.812501,43.193752 43.4125,43.59375 42.8125,43.59375 L 17.8125,43.59375 C 17.212501,43.593752 16.8125,43.19375 16.8125,42.59375 L 16.8125,20.1875 C 16.812501,19.587499 17.2125,19.1875 17.8125,19.1875 z"
     style="fill:#373b41;fill-opacity:1;fill-rule:nonzero;stroke:none;stroke-width:0.84759998;stroke-miterlimit:4;stroke-opacity:1" /><g
     style="fill:#373b41;fill-opacity:1;fill-rule:nonzero;stroke:#373b41;stroke-width:1.06474471;stroke-miterlimit:4"
     id="Layer_x0020_2">
		<path
   id="path5"
   transform="scale(0.5,0.5)"
   d="M 13.3125,1.6875 C 12.114249,1.918084 11.248674,2.967265 11.25,4.1875 L 11.25,5.8125 L 4.8125,5.8125 C 3.4124998,5.8124998 2.40625,6.7875 2.40625,8.1875 L 2.40625,40.59375 C 2.4062499,41.993752 3.4125,43 4.8125,43 L 15.03125,43 C 15.027091,42.934392 15,42.879573 15,42.8125 L 15,20.40625 C 15,18.80625 16.212501,17.59375 17.8125,17.59375 L 17.8125,17.40625 L 39.8125,17.40625 L 39.8125,8.1875 C 39.812501,6.7875002 38.80625,5.8125 37.40625,5.8125 L 31.75,5.8125 L 31.75,4.1875 C 31.726418,2.7922492 30.582908,1.6766302 29.1875,1.6875 L 13.8125,1.6875 C 13.646238,1.6710757 13.478762,1.6710757 13.3125,1.6875 z M 13.8125,4.1875 L 29.1875,4.1875 L 29.1875,9.1875 L 31.59375,11.59375 L 11.40625,11.59375 L 13.8125,9.1875 L 13.8125,4.1875 z"
   style="fill:#373b41;fill-opacity:1;stroke:#373b41;stroke-width:0.22561938;stroke-opacity:1" />
		<linearGradient
   y2="20.198799"
   x2="17.7295"
   y1="4.8804002"
   x1="4.1273999"
   gradientUnits="userSpaceOnUse"
   id="aigrd1">
			<stop
   id="stop8"
   style="stop-color:#F8FAEB"
   offset="0" />
			<stop
   id="stop10"
   style="stop-color:#F2F4E4"
   offset="0.1196" />
			<stop
   id="stop12"
   style="stop-color:#E0E1D3"
   offset="0.2647" />
			<stop
   id="stop14"
   style="stop-color:#C3C4B7"
   offset="0.4232" />
			<stop
   id="stop16"
   style="stop-color:#9D9E93"
   offset="0.591" />
			<stop
   id="stop18"
   style="stop-color:#707169"
   offset="0.7664" />
			<stop
   id="stop20"
   style="stop-color:#3F3F3B"
   offset="0.9454" />
			<stop
   id="stop22"
   style="stop-color:#2F2F2C"
   offset="1" />
		</linearGradient>
		
		<linearGradient
   y2="5.9401999"
   x2="4.6416998"
   y1="19.096701"
   x1="17.2227"
   gradientUnits="userSpaceOnUse"
   id="aigrd2">
			<stop
   id="stop27"
   style="stop-color:#DEDFCE"
   offset="0" />
			<stop
   id="stop29"
   style="stop-color:#C2C4B5"
   offset="1" />
		</linearGradient>
		
		
		<linearGradient
   y2="5.8457999"
   x2="10.7598"
   y1="2.2788"
   x1="10.7598"
   gradientUnits="userSpaceOnUse"
   id="aigrd3">
			<stop
   id="stop36"
   style="stop-color:#EDEDED"
   offset="5.618000e-003" />
			<stop
   id="stop38"
   style="stop-color:#909090"
   offset="0.1404" />
			<stop
   id="stop40"
   style="stop-color:#CFCFCF"
   offset="1" />
		</linearGradient>
		
	</g><g
     style="fill-rule:nonzero;stroke:none;stroke-miterlimit:4"
     id="Layer_x0020_1">
		
		
		<linearGradient
   y2="11.8501"
   x2="10.8246"
   y1="19.8584"
   x1="19.710899"
   gradientUnits="userSpaceOnUse"
   id="aigrd4">
			<stop
   id="stop50"
   style="stop-color:#f0f0f0"
   offset="0" />
			<stop
   id="stop52"
   style="stop-color:#EDEDED"
   offset="1" />
		</linearGradient>
		
		<g
   id="g56"
   style="stroke:none">
			<path
   id="path58"
   d="M 19.5,19.4 L 11,19.4 L 11,17.9 L 19.5,17.9 L 19.5,19.4 z"
   style="opacity:1;fill:#373b41;fill-opacity:1;stroke:none" />
			<path
   id="path60"
   d="M 19.5,16.4 L 11,16.4 L 11,15 L 19.5,15 L 19.5,16.5 L 19.5,16.4 z"
   style="opacity:1;fill:#373b41;fill-opacity:1;stroke:none" />
			<path
   id="path62"
   d="M 19.5,13.5 L 11,13.5 L 11,12 L 19.5,12 L 19.5,13.5 z"
   style="opacity:1;fill:#373b41;fill-opacity:1;stroke:none" />
		</g>
	</g><g
     style="fill-rule:nonzero;stroke:#373b41;stroke-width:1.06474471;stroke-miterlimit:4"
     id="Layer_x0020_3">
		<path
   id="path65"
   d="M 24,24 L 0,24 L 0,0 L 24,0 L 24,24 z"
   style="fill:none;stroke:none" />
	</g></g>
<g
   style="fill-rule:nonzero;stroke:#373b41;stroke-width:1.06474471;stroke-miterlimit:4"
   id="g3385"
   transform="matrix(0.9229533,0,0,0.9229533,1.0791145,1.18089)">
		<path
   id="path3387"
   d="M 24,24 L 0,24 L 0,0 L 24,0 L 24,24 z"
   style="fill:none;stroke:none" />
	</g></svg>