<?xml version="1.0" encoding="UTF-8" standalone="no"?>
<!-- Generator: Adobe Illustrator 9.0, SVG Export Plug-In  -->
<svg
   xmlns:dc="http://purl.org/dc/elements/1.1/"
   xmlns:cc="http://creativecommons.org/ns#"
   xmlns:rdf="http://www.w3.org/1999/02/22-rdf-syntax-ns#"
   xmlns:svg="http://www.w3.org/2000/svg"
   xmlns="http://www.w3.org/2000/svg"
   xmlns:sodipodi="http://sodipodi.sourceforge.net/DTD/sodipodi-0.dtd"
   xmlns:inkscape="http://www.inkscape.org/namespaces/inkscape"
   width="48"
   height="48"
   viewBox="0 0 48 48"
   xml:space="preserve"
   id="svg2"
   sodipodi:version="0.32"
   inkscape:version="0.46"
   sodipodi:docname="document-print-preview.svg"
   sodipodi:docbase="/home/christof/themes_and_icons/meinICONtheme/BRIT ICONS/scalable/actions"
   version="1.0"
   inkscape:output_extension="org.inkscape.output.svg.inkscape"><sodipodi:namedview
   inkscape:window-height="1000"
   inkscape:window-width="1680"
   inkscape:pageshadow="2"
   inkscape:pageopacity="0.0"
   borderopacity="1.0"
   bordercolor="#666666"
   pagecolor="#f0f0f0"
   id="base"
   showgrid="true"
   inkscape:grid-bbox="true"
   inkscape:grid-points="true"
   inkscape:zoom="8.2083338"
   inkscape:cx="20.055243"
   inkscape:cy="13.344294"
   inkscape:window-x="0"
   inkscape:window-y="25"
   inkscape:current-layer="svg2"
   showguides="true"
   inkscape:guide-bbox="true" /><metadata
   id="metadata31"><rdf:RDF><cc:Work
       rdf:about=""><dc:format>image/svg+xml</dc:format><dc:type
         rdf:resource="http://purl.org/dc/dcmitype/StillImage" /></cc:Work></rdf:RDF></metadata><defs
   id="defs29"><inkscape:perspective
   sodipodi:type="inkscape:persp3d"
   inkscape:vp_x="0 : 24 : 1"
   inkscape:vp_y="0 : 1000 : 0"
   inkscape:vp_z="48 : 24 : 1"
   inkscape:persp3d-origin="24 : 16 : 1"
   id="perspective16" />
		
	
			
			
			
			
			
			
			
			
			
		
		
	
			
			
			
			
			
			
			
			
			
			
			
		</defs>
	
	
<g
   id="g2391"
   transform="matrix(0.9707383,0,0,0.9710221,0.7157097,1.3319087)"
   style="fill:#f0f0f0"><path
     sodipodi:type="inkscape:offset"
     inkscape:radius="4.3579884"
     inkscape:original="M 5 24 C 4.1015111 24.130066 3.8999482 25.085615 4 25.84375 C 4 30.231552 4 34.612197 4 39 C 4.1300934 39.898224 5.0853993 40.100022 5.84375 40 C 6.1901209 40.116008 7.0185462 39.737931 7 40.21875 C 7.0503498 40.912479 6.8809824 41.647793 7.09375 42.3125 C 7.5443045 43.250892 8.6137758 42.951948 9.4375 43 C 19.619082 43 29.818419 43 40 43 C 40.898488 42.869934 41.100053 41.914385 41 41.15625 C 41.116041 40.80998 40.73779 39.981459 41.21875 40 C 41.912666 39.949668 42.647611 40.118929 43.3125 39.90625 C 44.251226 39.455865 43.951934 38.385996 44 37.5625 C 43.999999 33.376147 44 29.186352 44 25 C 43.869903 24.101778 42.914601 23.899977 42.15625 24 C 37.214039 24.119122 23.154584 23.987017 12 24 C 9.6715956 24 7.3284047 24 5 24 z "
     style="fill:#f0f0f0;fill-rule:nonzero;stroke:none;stroke-width:7.43289995000000037;stroke-linejoin:round;stroke-miterlimit:4"
     id="path2420"
     d="M 43.15625,19.625 C 42.75994,19.587781 42.420564,19.62642 42.0625,19.65625 C 37.396918,19.768704 23.193254,19.643222 12,19.65625 C 9.6715956,19.65625 7.3284047,19.65625 5,19.65625 C 4.791187,19.651678 4.5823154,19.662121 4.375,19.6875 C 2.4738896,19.962706 0.71356946,21.597551 0.125,22.96875 C -0.35756114,24.09298 -0.40413392,24.998571 -0.34375,25.84375 C -0.34375,30.231552 -0.34375,34.612197 -0.34375,39 C -0.34832232,39.208813 -0.33787874,39.417685 -0.3125,39.625 C -0.037184527,41.525903 1.5977382,43.286345 2.96875,43.875 C 2.9929276,43.885381 3.0072495,43.896243 3.03125,43.90625 C 3.0695925,44.001442 3.1112851,44.095251 3.15625,44.1875 C 4.0420201,46.032337 6.4195207,47.17527 7.625,47.3125 C 8.8304793,47.44973 9.4096185,47.356707 9.1875,47.34375 C 9.2708162,47.34614 9.3541838,47.34614 9.4375,47.34375 C 19.619082,47.34375 29.818419,47.34375 40,47.34375 C 40.208813,47.348322 40.417685,47.337879 40.625,47.3125 C 42.526111,47.037293 44.28643,45.402449 44.875,44.03125 C 44.885379,44.007069 44.896244,43.992754 44.90625,43.96875 C 45.001442,43.930408 45.095251,43.888715 45.1875,43.84375 C 47.033101,42.958261 48.175384,40.580694 48.3125,39.375 C 48.449616,38.169306 48.356773,37.589382 48.34375,37.8125 C 48.34614,37.729184 48.34614,37.645816 48.34375,37.5625 C 48.343749,33.376148 48.34375,29.186353 48.34375,25 C 48.348322,24.791187 48.337879,24.582315 48.3125,24.375 C 48.037178,22.474105 46.40226,20.713657 45.03125,20.125 C 44.345745,19.830672 43.722665,19.678195 43.15625,19.625 z" /><path
     sodipodi:type="inkscape:offset"
     inkscape:radius="1.0512125"
     inkscape:original="M 35.4375 1.03125 C 34.394024 1.020988 33.348695 1.1029775 32.3125 1.0625 C 25.53868 1.0625 18.773821 1.0625 12 1.0625 C 9.2199088 1.001744 6.3238452 2.638716 5.46875 5.375 C 4.8062417 7.415317 5.1390141 9.5802803 5.0625 11.6875 C 5.072787 16.558982 5.0575775 21.441685 5.09375 26.3125 C 5.2174737 28.02781 6.9273263 29.156045 8.5625 28.9375 C 9.9938766 28.885609 11.463929 29.070102 12.875 28.8125 C 38.587632 25.001555 36.470587 24.566012 42.9375 20.6875 C 42.92638 16.271176 42.945993 11.853275 42.90625 7.4375 C 42.844217 4.7868712 41.104199 2.2442089 38.53125 1.46875 C 37.528751 1.1359853 36.480976 1.041512 35.4375 1.03125 z "
     style="fill:#f0f0f0;fill-rule:nonzero;stroke:none;stroke-width:7.43289995000000037;stroke-linejoin:round;stroke-miterlimit:4"
     id="path2423"
     d="M 35.4375,-0.03125 C 34.332064,-0.042121344 33.297066,0.03723993 32.34375,0 C 32.333334,-0.00015482418 32.322916,-0.00015482418 32.3125,1.1671971e-16 C 25.53868,0 18.773821,0 12,0 C 8.7916117,-0.070115988 5.4897998,1.7951651 4.46875,5.0625 C 3.7068496,7.4089134 4.0715561,9.6855759 4,11.65625 C 3.9998452,11.666666 3.9998452,11.677084 4,11.6875 C 4.0102792,16.555311 3.9950225,21.43428 4.03125,26.3125 C 4.0306306,26.333329 4.0306306,26.354171 4.03125,26.375 C 4.2001282,28.716334 6.4220911,30.207808 8.59375,29.96875 L 8.59375,30 C 9.9089346,29.952321 11.437308,30.140442 13.0625,29.84375 C 25.9287,27.936813 31.813601,26.89136 35.4375,25.78125 C 39.061399,24.67114 40.29357,23.498055 43.46875,21.59375 C 43.79488,21.408127 43.997345,21.062746 44,20.6875 C 43.988892,16.276053 44.008578,11.862697 43.96875,7.4375 C 43.968905,7.4270839 43.968905,7.4166661 43.96875,7.40625 C 43.896327,4.31167 41.899204,1.3896307 38.84375,0.46875 C 37.689862,0.085733964 36.537497,-0.020432153 35.4375,-0.03125 z" /></g><g
   id="g5710"
   transform="matrix(0.8714301,0,0,0.8714301,3.0991082,3.2476647)"><g
     id="g3095"
     transform="matrix(1.1139601,0,0,1.1142857,-2.7350427,-2.1984047)"><path
       id="path13"
       transform="matrix(0.8976982,0,0,0.8974359,2.455243,1.9729273)"
       d="M 2.84375,24.53125 C 2.398166,24.53125 1.71875,25.210536 1.71875,25.65625 L 1.71875,41.25 C 1.71875,41.695714 2.398166,42.374999 2.84375,42.375 L 5.0625,42.375 L 5.0625,44.59375 C 5.0624998,45.039464 5.7419159,45.718749 6.1875,45.71875 L 41.8125,45.71875 C 42.258082,45.71875 42.937501,45.039466 42.9375,44.59375 L 42.9375,42.375 L 45.15625,42.375 C 45.601831,42.375 46.28125,41.695712 46.28125,41.25 L 46.28125,25.65625 C 46.281247,25.210536 45.601834,24.531249 45.15625,24.53125 L 43.21875,24.53125 C 43.399834,25.357483 43.5,26.213418 43.5,27.09375 C 43.499997,33.684126 38.152876,39.031251 31.5625,39.03125 C 28.615933,39.03125 25.926479,37.95849 23.84375,36.1875 L 22.96875,39.03125 L 20.59375,41.59375 L 19.875,42.375 L 17.75,44.65625 C 17.389983,45.041983 15.694095,45.600345 14.375,44.28125 C 13.827884,43.734134 13.630043,43.017461 13.625,42.375 C 13.624281,42.343301 13.624733,42.312565 13.625,42.28125 C 13.626184,42.215373 13.651544,42.157272 13.65625,42.09375 C 13.668423,41.929439 13.687858,41.7665 13.71875,41.625 C 13.720769,41.615752 13.716667,41.602878 13.71875,41.59375 C 13.797956,41.274819 13.912853,41.016754 14.03125,40.90625 L 19.625,35.6875 L 22.46875,34.8125 C 20.855729,32.915547 19.827843,30.514425 19.65625,27.875 L 10.625,27.875 L 10.625,24.53125 L 2.84375,24.53125 z"
       style="fill:#373b41;fill-rule:nonzero;stroke:none;stroke-width:7.43289995;stroke-linejoin:round;stroke-miterlimit:4" /><path
       id="path17"
       transform="matrix(0.8976982,0,0,0.8974359,2.455243,1.9729273)"
       d="M 10.625,2.25 C 7.2831194,2.2500001 6.1875,4.4901786 6.1875,6.71875 L 6.1875,26.78125 L 10.625,26.78125 L 10.625,7.84375 C 10.625,7.8437499 10.63604,6.71875 11.75,6.71875 L 36.25,6.71875 C 37.363962,6.7187501 37.375,7.84375 37.375,7.84375 L 37.375,16.6875 C 39.201671,17.721708 40.740801,19.225501 41.8125,21.03125 L 41.8125,6.71875 C 41.8125,4.4901785 40.71688,2.25 37.375,2.25 L 10.625,2.25 z"
       style="fill:#373b41;fill-rule:nonzero;stroke:none;stroke-width:7.43289995;stroke-linejoin:round;stroke-miterlimit:4" /></g><path
     id="path21"
     d="M 15.75,19.1875 L 15.75,23.1875 L 20.28125,23.1875 C 20.798045,21.704214 21.604617,20.339422 22.625,19.1875 L 15.75,19.1875 z"
     style="fill:#373b41;fill-opacity:1;fill-rule:nonzero;stroke:none;stroke-width:4;stroke-linejoin:miter;stroke-miterlimit:4;stroke-dasharray:none;stroke-opacity:1" /><path
     id="path23"
     d="M 15.6875,11.40625 L 15.6875,15.40625 L 29.15625,15.40625 C 29.933223,15.247124 30.738703,15.15625 31.5625,15.15625 C 31.64677,15.15625 31.728644,15.15451 31.8125,15.15625 L 31.8125,11.40625 L 15.6875,11.40625 z"
     style="fill:#373b41;fill-opacity:1;fill-rule:nonzero;stroke:none;stroke-width:4;stroke-linejoin:miter;stroke-miterlimit:4;stroke-dasharray:none;stroke-opacity:1" /><g
     style="display:inline"
     inkscape:label="Text"
     id="layer5"
     transform="matrix(0.6395939,0,0,0.6395939,13.208122,14.741117)"><rect
       style="fill:none;fill-opacity:0.27027025;stroke:none;stroke-width:4;stroke-linecap:round;stroke-linejoin:round;stroke-miterlimit:4;stroke-dasharray:none;stroke-opacity:1"
       height="56"
       width="56"
       y="-4"
       x="-4"
       id="rect1493" /><path
       sodipodi:rx="12"
       sodipodi:ry="12"
       style="fill:#373b41;fill-opacity:1;stroke:none;stroke-width:4;stroke-linecap:round;stroke-linejoin:round;stroke-miterlimit:4;stroke-dasharray:none;stroke-opacity:1"
       sodipodi:type="arc"
       d="M 32,20 A 12,12 0 1 1 8,20 A 12,12 0 1 1 32,20 z"
       transform="matrix(-1.1666667,0,0,1.1666667,52.014642,-4)"
       sodipodi:cy="20"
       sodipodi:cx="20"
       id="path4994" /></g></g></svg>