<?xml version="1.0" encoding="UTF-8" standalone="no"?>
<!-- Generator: Adobe Illustrator 9.0, SVG Export Plug-In  -->
<svg
   xmlns:dc="http://purl.org/dc/elements/1.1/"
   xmlns:cc="http://creativecommons.org/ns#"
   xmlns:rdf="http://www.w3.org/1999/02/22-rdf-syntax-ns#"
   xmlns:svg="http://www.w3.org/2000/svg"
   xmlns="http://www.w3.org/2000/svg"
   xmlns:sodipodi="http://sodipodi.sourceforge.net/DTD/sodipodi-0.dtd"
   xmlns:inkscape="http://www.inkscape.org/namespaces/inkscape"
   width="48"
   height="48"
   viewBox="0 0 48 48"
   xml:space="preserve"
   id="svg2"
   sodipodi:version="0.32"
   inkscape:version="0.46"
   sodipodi:docname="tool-check-spelling.svg"
   sodipodi:docbase="/home/qwerty/.icons/MonoBlack/scalable/actions"
   inkscape:output_extension="org.inkscape.output.svg.inkscape"
   version="1.0"><metadata
   id="metadata29"><rdf:RDF><cc:Work
       rdf:about=""><dc:format>image/svg+xml</dc:format><dc:type
         rdf:resource="http://purl.org/dc/dcmitype/StillImage" /></cc:Work></rdf:RDF></metadata><defs
   id="defs27"><inkscape:perspective
     sodipodi:type="inkscape:persp3d"
     inkscape:vp_x="0 : 24 : 1"
     inkscape:vp_y="0 : 1000 : 0"
     inkscape:vp_z="48 : 24 : 1"
     inkscape:persp3d-origin="24 : 16 : 1"
     id="perspective13" /></defs><sodipodi:namedview
   inkscape:window-height="1000"
   inkscape:window-width="1680"
   inkscape:pageshadow="2"
   inkscape:pageopacity="0.0"
   guidetolerance="10.0"
   gridtolerance="10.0"
   objecttolerance="10.0"
   borderopacity="1.0"
   bordercolor="#666666"
   pagecolor="#f0f0f0"
   id="base"
   inkscape:zoom="4.796541"
   inkscape:cx="-16.410335"
   inkscape:cy="40.474963"
   inkscape:window-x="0"
   inkscape:window-y="25"
   inkscape:current-layer="svg2"
   width="48px"
   height="48px"
   showgrid="false" />
	<g
   transform="matrix(1.070109,0,0,1.070109,-2.259618,-1.6435532)"
   style="fill:#f0f0f0;fill-opacity:1;fill-rule:nonzero;stroke:none;stroke-width:5.66828966000000012;stroke-linejoin:round;stroke-miterlimit:4"
   id="g2386">
		<g
   style="fill:#f0f0f0;fill-opacity:1;stroke:none;stroke-width:5.66828966000000012"
   id="g2388">
			
			<path
   sodipodi:type="inkscape:offset"
   inkscape:radius="3.258559"
   inkscape:original="M 37.40625 14.59375 C 37.406248 14.59375 26.093101 25.906899 21.8125 30.1875 C 19.012501 27.387499 15.3125 23.6875 15.3125 23.6875 L 9.40625 29.59375 L 21.8125 42 L 43.3125 20.5 L 37.40625 14.59375 z "
   style="fill:#f0f0f0;fill-opacity:1;fill-rule:evenodd;stroke:none"
   id="path3170"
   d="M 37.03125,11.34375 C 36.297879,11.427799 35.614768,11.758337 35.09375,12.28125 C 35.09375,12.28125 26.891165,20.483835 21.8125,25.5625 C 19.971188,23.721189 17.625,21.375 17.625,21.375 C 17.013192,20.758858 16.180797,20.412346 15.3125,20.412346 C 14.444203,20.412346 13.611808,20.758858 13,21.375 L 7.09375,27.28125 C 6.4776075,27.893058 6.1310956,28.725453 6.1310956,29.59375 C 6.1310956,30.462047 6.4776075,31.294442 7.09375,31.90625 L 19.5,44.3125 C 20.111808,44.928642 20.944203,45.275154 21.8125,45.275154 C 22.680797,45.275154 23.513192,44.928642 24.125,44.3125 L 45.625,22.8125 C 46.241142,22.200692 46.587654,21.368297 46.587654,20.5 C 46.587654,19.631703 46.241142,18.799308 45.625,18.1875 L 39.71875,12.28125 C 39.013943,11.573378 38.023421,11.227847 37.03125,11.34375 L 37.03125,11.34375 z" />
			<g
   style="fill:#f0f0f0;fill-opacity:1;stroke:none;stroke-width:5.66828966000000012"
   id="g2392">
				
				
			</g>
			<g
   id="g2394"
   style="fill:#f0f0f0;fill-opacity:1;stroke:none">
				<path
   sodipodi:type="inkscape:offset"
   inkscape:radius="2.2973623"
   inkscape:original="M 9.1875 6.1875 L 4.59375 21 L 8.1875 21 L 9.1875 17.1875 L 9.1875 17.3125 L 13.5 17.3125 L 14.59375 21.09375 L 18.1875 21.09375 L 13.59375 6.1875 L 9.1875 6.1875 z M 11.1875 8.6875 L 11.3125 8.6875 C 11.5125 9.5875 11.8 10.69375 12 11.59375 L 12.90625 14.6875 L 12.90625 14.8125 L 9.59375 14.8125 L 10.5 11.59375 C 10.8 10.69375 10.9875 9.5875002 11.1875 8.6875 z "
   style="fill:#f0f0f0;fill-opacity:1;stroke:none"
   id="path3174"
   d="M 9.1875,3.875 C 8.1811397,3.8791378 7.2945937,4.5377149 7,5.5 L 2.40625,20.3125 C 2.1818402,21.011406 2.3048874,21.775468 2.7373689,22.368585 C 3.1698504,22.961703 3.8597005,23.312471 4.59375,23.3125 L 8.1875,23.3125 C 9.2317274,23.310349 10.143175,22.604298 10.40625,21.59375 L 10.9375,19.625 L 11.78125,19.625 L 12.375,21.71875 C 12.649911,22.716898 13.558437,23.407889 14.59375,23.40625 L 18.1875,23.40625 C 18.921549,23.406221 19.6114,23.055453 20.043881,22.462335 C 20.476363,21.869218 20.59941,21.105156 20.375,20.40625 L 15.78125,5.5 C 15.486656,4.5377149 14.60011,3.8791378 13.59375,3.875 L 9.1875,3.875 z" />
				<path
   sodipodi:type="inkscape:offset"
   inkscape:radius="2.6696692"
   inkscape:original="M 24.5 6.09375 C 22.885781 6.09375 21.335563 6.2259246 20.40625 6.40625 L 20.40625 21 C 21.10625 21.1 22.3 21.187499 24 21.1875 C 26.9 21.1875 28.712501 20.80625 29.8125 19.90625 C 30.7125 19.10625 31.312501 18.087499 31.3125 16.6875 C 31.3125 14.6875 30.012501 13.4 28.3125 13 C 29.9125 12.3 30.687499 11.1125 30.6875 9.8125 C 30.6875 8.5125 29.90625 7.4062499 28.90625 6.90625 C 27.80625 6.30625 26.5 6.0937501 24.5 6.09375 z M 24.90625 8.59375 C 26.40625 8.59375 27.312501 9.2124998 27.3125 10.3125 C 27.3125 11.4125 26.39375 12.09375 24.59375 12.09375 L 23.5 12.09375 L 23.5 8.6875 C 23.7 8.5875 24.20625 8.5937496 24.90625 8.59375 z M 23.59375 14.5 L 24.6875 14.5 C 26.3875 14.5 27.687499 15.09375 27.6875 16.59375 C 27.6875 18.19375 26.312501 18.812501 24.8125 18.8125 C 24.254972 18.8125 23.886135 18.767731 23.59375 18.6875 L 23.59375 14.5 z "
   style="fill:#f0f0f0;fill-opacity:1;stroke:none"
   id="path3172"
   d="M 24.5,3.4375 C 22.74005,3.4375 21.141102,3.5416373 19.90625,3.78125 C 18.651756,4.027203 17.747632,5.1278747 17.75,6.40625 L 17.75,21 C 17.742651,22.330033 18.715363,23.462643 20.03125,23.65625 C 20.936072,23.78551 22.208395,23.843749 24,23.84375 C 27.13398,23.84375 29.573601,23.544896 31.5,21.96875 C 31.531686,21.948578 31.562943,21.92774 31.59375,21.90625 C 32.894537,20.749995 33.968752,18.850264 33.96875,16.6875 C 33.96875,15.134219 33.376998,13.747697 32.46875,12.65625 C 32.996075,11.77371 33.343749,10.822436 33.34375,9.8125 C 33.34375,7.442921 32.005103,5.4869265 30.09375,4.53125 C 28.446391,3.6326906 26.689101,3.4375001 24.5,3.4375 z" />
			</g>
		</g>
	</g><g
   id="Layer_x0020_3"
   style="fill:#373b41;fill-opacity:1;fill-rule:nonzero;stroke:#f0f0f0;stroke-width:5.66828966;stroke-linejoin:round;stroke-miterlimit:4"
   transform="matrix(1.070109,0,0,1.070109,-2.259618,-1.6435532)">
		<g
   id="g5"
   style="fill:#373b41;fill-opacity:1;stroke-width:5.66828966">
			
			<path
   style="fill:#373b41;fill-opacity:1;fill-rule:evenodd;stroke:none"
   d="M 21.8,30.2 C 19,27.4 15.3,23.7 15.3,23.7 L 9.4,29.6 L 21.8,42 L 43.3,20.5 L 37.4,14.6 C 37.4,14.6 25.9,26.1 21.7,30.3 L 21.8,30.2 z"
   id="path9" />
			<g
   id="g11"
   style="fill:#373b41;fill-opacity:1;stroke-width:5.66828966">
				
				
			</g>
			<g
   style="fill:#373b41;fill-opacity:1;stroke:none"
   id="g17">
				<path
   d="M 9.2,17.2 L 8.2,21 L 4.6,21 L 9.2,6.2 L 13.6,6.2 L 18.2,21.1 L 14.6,21.1 L 13.5,17.3 L 9.2,17.3 L 9.2,17.2 z M 12.9,14.7 L 12,11.6 C 11.8,10.7 11.5,9.6 11.3,8.7 L 11.2,8.7 C 11,9.6 10.8,10.7 10.5,11.6 L 9.6,14.8 L 12.9,14.8 L 12.9,14.7 z"
   id="path19"
   style="fill:#373b41;fill-opacity:1" />
				<path
   d="M 20.2,6.4 C 21.1,6.2 22.8,6.1 24.5,6.1 C 26.5,6.1 27.8,6.3 28.9,6.9 C 29.9,7.4 30.7,8.5 30.7,9.8 C 30.7,11.1 29.9,12.3 28.3,13 L 28.3,13 C 30,13.4 31.3,14.7 31.3,16.7 C 31.3,18.1 30.7,19.1 29.8,19.9 C 28.7,20.8 26.9,21.2 24,21.2 C 22.3,21.2 21.1,21.1 20.4,21 L 20.4,6.4 L 20.2,6.4 z M 23.5,12.1 L 24.6,12.1 C 26.4,12.1 27.3,11.4 27.3,10.3 C 27.3,9.2 26.4,8.6 24.9,8.6 C 24.2,8.6 23.7,8.6 23.5,8.7 L 23.5,12.1 L 23.5,12.1 z M 23.5,18.7 C 23.8,18.8 24.2,18.8 24.8,18.8 C 26.3,18.8 27.7,18.2 27.7,16.6 C 27.7,15.1 26.4,14.5 24.7,14.5 L 23.6,14.5 L 23.6,18.7 L 23.5,18.7 z"
   id="path21"
   style="fill:#373b41;fill-opacity:1" />
			</g>
		</g>
	</g>
	
</svg>