<?xml version="1.0" encoding="UTF-8" standalone="no"?>
<!-- Generator: Adobe Illustrator 9.0, SVG Export Plug-In  -->
<svg
   xmlns:dc="http://purl.org/dc/elements/1.1/"
   xmlns:cc="http://creativecommons.org/ns#"
   xmlns:rdf="http://www.w3.org/1999/02/22-rdf-syntax-ns#"
   xmlns:svg="http://www.w3.org/2000/svg"
   xmlns="http://www.w3.org/2000/svg"
   xmlns:sodipodi="http://sodipodi.sourceforge.net/DTD/sodipodi-0.dtd"
   xmlns:inkscape="http://www.inkscape.org/namespaces/inkscape"
   width="48"
   height="48"
   viewBox="0 0 48 48"
   xml:space="preserve"
   id="svg2"
   sodipodi:version="0.32"
   inkscape:version="0.46"
   sodipodi:docname="view-sort-ascending.svg"
   sodipodi:docbase="/home/qwerty/.icons/MonoBlack/scalable/actions"
   inkscape:output_extension="org.inkscape.output.svg.inkscape"
   version="1.0"><metadata
   id="metadata45"><rdf:RDF><cc:Work
       rdf:about=""><dc:format>image/svg+xml</dc:format><dc:type
         rdf:resource="http://purl.org/dc/dcmitype/StillImage" /></cc:Work></rdf:RDF></metadata><defs
   id="defs43"><inkscape:perspective
     sodipodi:type="inkscape:persp3d"
     inkscape:vp_x="0 : 24 : 1"
     inkscape:vp_y="0 : 1000 : 0"
     inkscape:vp_z="48 : 24 : 1"
     inkscape:persp3d-origin="24 : 16 : 1"
     id="perspective17" /></defs><sodipodi:namedview
   inkscape:window-height="1000"
   inkscape:window-width="1680"
   inkscape:pageshadow="2"
   inkscape:pageopacity="0.0"
   guidetolerance="10000"
   gridtolerance="10000"
   objecttolerance="10000"
   borderopacity="1.0"
   bordercolor="#666666"
   pagecolor="#f0f0f0"
   id="base"
   showgrid="true"
   inkscape:zoom="6.7833334"
   inkscape:cx="-27.889547"
   inkscape:cy="24.544379"
   inkscape:window-x="0"
   inkscape:window-y="25"
   inkscape:current-layer="svg2"
   width="48px"
   height="48px" />
	<g
   transform="matrix(1.2315567,0,0,1.2313727,-5.5689399,-6.1108927)"
   style="fill:#f0f0f0;fill-opacity:1;fill-rule:nonzero;stroke:none;stroke-width:0.81204109999999996;stroke-miterlimit:4"
   id="g2390">
		<g
   id="g2392"
   style="fill:#f0f0f0;fill-opacity:1;stroke:none">
			<g
   style="fill:#f0f0f0;fill-opacity:1;stroke:none"
   id="g2394">
				<g
   style="fill:#f0f0f0;fill-opacity:1;stroke:none"
   id="g2396">
					<path
   sodipodi:type="inkscape:offset"
   inkscape:radius="1.5563622"
   inkscape:original="M 37.09375 7.1875 L 34.5 8.40625 L 34.90625 10.09375 L 36.6875 9.1875 L 36.8125 9.1875 L 36.8125 16.8125 L 39 16.8125 L 39 7.1875 L 37.09375 7.1875 z "
   style="fill:#f0f0f0;fill-opacity:1;stroke:none"
   id="path3184"
   d="M 36.9375,5.625 C 36.763203,5.6484621 36.594143,5.7012935 36.4375,5.78125 L 33.84375,7 C 33.174515,7.3173725 32.821619,8.0623755 33,8.78125 L 33.40625,10.46875 C 33.61834,11.27852 34.432893,11.775535 35.25,11.59375 L 35.25,16.8125 C 35.248402,17.227388 35.412509,17.625745 35.705882,17.919118 C 35.999255,18.212491 36.397612,18.376598 36.8125,18.375 L 39,18.375 C 39.414888,18.376598 39.813245,18.212491 40.106618,17.919118 C 40.399991,17.625745 40.564098,17.227388 40.5625,16.8125 L 40.5625,7.1875 C 40.564098,6.7726115 40.399991,6.3742546 40.106618,6.080882 C 39.813245,5.7875093 39.414888,5.6234024 39,5.625 L 37.09375,5.625 C 37.0417,5.6223842 36.98955,5.6223842 36.9375,5.625 L 36.9375,5.625 z" />
					<path
   sodipodi:type="inkscape:offset"
   inkscape:radius="1.4564528"
   inkscape:original="M 37.3125 30.6875 C 35.2125 30.6875 33.687499 32.287499 33.6875 34.1875 C 33.6875 36.0875 35.087499 37.187499 36.6875 37.1875 C 37.5875 37.1875 38.287499 36.9 38.6875 36.5 C 38.5875 37.2 38.1 37.912501 37.5 38.3125 C 37 38.7125 36.293752 38.906248 35.59375 38.90625 C 35.09375 38.90625 34.893752 38.906248 34.59375 38.90625 L 34.5 38.6875 L 34.5 40.5 C 34.7 40.5 35.1 40.5 35.5 40.5 C 37 40.5 38.287499 39.987499 39.1875 39.1875 C 40.2875 38.2875 40.906248 36.812501 40.90625 34.8125 C 40.90625 32.6125 39.812501 30.687499 37.3125 30.6875 z M 37.1875 32.3125 L 37.3125 32.3125 C 38.3125 32.3125 38.687499 33.312501 38.6875 34.3125 C 38.6875 34.6125 38.693752 34.806248 38.59375 34.90625 C 38.29375 35.20625 37.912501 35.5 37.3125 35.5 C 36.4125 35.5 35.906248 34.8 35.90625 34 C 35.90625 33 36.387499 32.312501 37.1875 32.3125 z "
   style="fill:#f0f0f0;fill-opacity:1;stroke:none"
   id="path3192"
   d="M 37.3125,29.21875 C 34.472715,29.21875 32.218749,31.508168 32.21875,34.1875 C 32.21875,35.538565 32.810189,36.678019 33.6875,37.46875 C 33.277364,37.738469 33.030665,38.196624 33.03125,38.6875 L 33.03125,40.5 C 33.027978,40.890531 33.18167,41.266017 33.457827,41.542173 C 33.733983,41.81833 34.109469,41.972022 34.5,41.96875 C 34.7,41.96875 35.1,41.96875 35.5,41.96875 C 37.331748,41.96875 38.971597,41.334273 40.15625,40.28125 C 41.652688,39.056891 42.374998,37.112893 42.375,34.8125 C 42.375,33.471137 42.031694,32.120823 41.1875,31.03125 C 40.343306,29.941677 38.936324,29.218749 37.3125,29.21875 z" />
				</g>
				<g
   id="g2402"
   style="fill:#f0f0f0;fill-opacity:1;stroke:none;stroke-width:4.87224673999999958">
					
					
				</g>
			</g>
			
			
			
			<g
   style="fill:#f0f0f0;fill-opacity:1;stroke:none"
   id="g2404">
				
				
			</g>
			<path
   sodipodi:type="inkscape:offset"
   inkscape:radius="0"
   inkscape:original="M 37.59375 22.84375 C 35.594625 22.84375 33.749996 24.554396 33.75 26.6875 C 33.75 28.68663 35.415686 30.5625 37.59375 30.5625 C 39.642839 30.5625 41.468752 28.865567 41.46875 26.6875 C 41.46875 24.638416 39.726849 22.84375 37.59375 22.84375 z "
   style="fill:#f0f0f0;fill-opacity:1;stroke:none"
   id="path3190"
   d="M 37.59375,22.84375 C 35.594625,22.84375 33.749996,24.554396 33.75,26.6875 C 33.75,28.68663 35.415686,30.5625 37.59375,30.5625 C 39.642839,30.5625 41.468752,28.865567 41.46875,26.6875 C 41.46875,24.638416 39.726849,22.84375 37.59375,22.84375 z" />
			<path
   sodipodi:type="inkscape:offset"
   inkscape:radius="2.0492749"
   inkscape:original="M 37.59375 19.6875 C 36.69375 19.6875 35.906248 20.40625 35.90625 21.40625 C 35.90625 22.30625 36.593752 23.09375 37.59375 23.09375 C 38.49375 23.09375 39.312501 22.40625 39.3125 21.40625 C 39.3125 20.50625 38.593752 19.687499 37.59375 19.6875 z "
   style="fill:#f0f0f0;fill-opacity:1;stroke:none"
   id="path3186"
   d="M 37.59375,17.625 C 35.602701,17.625 33.843746,19.330376 33.84375,21.40625 C 33.84375,23.349865 35.517881,25.15625 37.59375,25.15625 C 39.537362,25.15625 41.375002,23.524815 41.375,21.40625 C 41.375,19.415204 39.712315,17.624998 37.59375,17.625 z" />
			<path
   sodipodi:type="inkscape:offset"
   inkscape:radius="2.0352428"
   inkscape:original="M 15.59375 8.1875 L 15.59375 31.59375 C 13.49375 29.49375 11.40625 27.40625 11.40625 27.40625 L 7.1875 31.59375 L 16.5 40.90625 C 17.7 42.106248 19.4875 42.10625 20.6875 40.90625 L 30 31.59375 L 25.8125 27.40625 L 25.6875 27.3125 C 25.687499 27.312501 23.6 29.4 21.5 31.5 L 21.5 8.1875 L 15.59375 8.1875 z "
   style="fill:#f0f0f0;fill-opacity:1;stroke:none"
   id="path3182"
   d="M 15.375,6.15625 C 14.340316,6.2702587 13.558384,7.1465617 13.5625,8.1875 L 13.5625,26.6875 C 13.449993,26.574993 12.84375,25.96875 12.84375,25.96875 C 12.049267,25.176226 10.763233,25.176226 9.96875,25.96875 L 5.75,30.15625 C 4.9574764,30.950733 4.9574764,32.236767 5.75,33.03125 L 15.0625,42.34375 C 16.97707,44.258317 20.210429,44.258321 22.125,42.34375 L 31.4375,33.03125 C 32.230024,32.236767 32.230024,30.950733 31.4375,30.15625 L 27.25,25.96875 C 27.181604,25.901161 27.108504,25.838505 27.03125,25.78125 L 26.90625,25.6875 C 26.097087,25.08183 24.966057,25.161668 24.25,25.875 C 24.25,25.875 23.643757,26.481243 23.53125,26.59375 L 23.53125,8.1875 C 23.528942,7.0666292 22.620871,6.1585584 21.5,6.15625 L 15.59375,6.15625 C 15.520886,6.152329 15.447864,6.152329 15.375,6.15625 z" />
		</g>
	</g><g
   id="Layer_x0020_4"
   style="fill:#373b41;fill-opacity:1;fill-rule:nonzero;stroke:#373b41;stroke-width:0.8120411;stroke-miterlimit:4"
   transform="matrix(1.2315567,0,0,1.2313727,-5.5689399,-6.1108927)">
		<g
   style="fill:#373b41;fill-opacity:1;stroke:none"
   id="g5">
			<g
   id="g7"
   style="fill:#373b41;fill-opacity:1">
				<g
   id="g9"
   style="fill:#373b41;fill-opacity:1">
					<path
   d="M 36.7,9.2 L 36.7,9.2 L 34.9,10.1 L 34.5,8.4 L 37.1,7.2 L 39,7.2 L 39,16.8 L 36.8,16.8 L 36.8,9.2 L 36.7,9.2 z"
   id="path11"
   style="fill:#373b41;fill-opacity:1" />
					<path
   d="M 34.6,38.9 C 34.9,38.9 35.1,38.9 35.6,38.9 C 36.3,38.9 37,38.7 37.5,38.3 C 38.1,37.9 38.6,37.2 38.7,36.5 L 38.7,36.5 C 38.3,36.9 37.6,37.2 36.7,37.2 C 35.1,37.2 33.7,36.1 33.7,34.2 C 33.7,32.3 35.2,30.7 37.3,30.7 C 39.8,30.7 40.9,32.6 40.9,34.8 C 40.9,36.8 40.3,38.3 39.2,39.2 C 38.3,40 37,40.5 35.5,40.5 C 35.1,40.5 34.7,40.5 34.5,40.5 L 34.5,38.7 L 34.6,38.9 z M 37.2,32.3 C 36.4,32.3 35.9,33 35.9,34 C 35.9,34.8 36.4,35.5 37.3,35.5 C 37.9,35.5 38.3,35.2 38.6,34.9 C 38.7,34.8 38.7,34.6 38.7,34.3 C 38.7,33.3 38.3,32.3 37.3,32.3 L 37.3,32.3 L 37.2,32.3 z"
   id="path13"
   style="fill:#373b41;fill-opacity:1" />
				</g>
				<g
   style="fill:#373b41;fill-opacity:1;stroke:#f0f0f0;stroke-width:4.87224674"
   id="g15">
					
					
				</g>
			</g>
			
			
			
			<g
   id="g27"
   style="fill:#373b41;fill-opacity:1">
				
				
			</g>
			<path
   d="M 39.3,26.7 C 39.3,27.7 38.5,28.4 37.6,28.4 C 36.6,28.4 35.9,27.6 35.9,26.7 C 35.9,25.7 36.7,25 37.6,25 C 38.6,25 39.3,25.8 39.3,26.7 z"
   id="path33"
   style="fill:#373b41;fill-opacity:1" />
			<path
   d="M 39.3,21.4 C 39.3,22.4 38.5,23.1 37.6,23.1 C 36.6,23.1 35.9,22.3 35.9,21.4 C 35.9,20.4 36.7,19.7 37.6,19.7 C 38.6,19.7 39.3,20.5 39.3,21.4 z"
   id="path35"
   style="fill:#373b41;fill-opacity:1" />
			<path
   d="M 25.7,27.3 C 25.7,27.3 23.6,29.4 21.5,31.5 L 21.5,8.2 L 15.6,8.2 L 15.6,31.6 C 13.5,29.5 11.4,27.4 11.4,27.4 L 7.2,31.6 L 16.5,40.9 C 17.7,42.1 19.5,42.1 20.7,40.9 L 30,31.6 L 25.8,27.4 L 25.7,27.3 z"
   id="path37"
   style="fill:#373b41;fill-opacity:1" />
		</g>
	</g>
	
</svg>