<?xml version="1.0" encoding="UTF-8" standalone="no"?>
<!-- Created with Inkscape (http://www.inkscape.org/) -->
<svg
   xmlns:dc="http://purl.org/dc/elements/1.1/"
   xmlns:cc="http://creativecommons.org/ns#"
   xmlns:rdf="http://www.w3.org/1999/02/22-rdf-syntax-ns#"
   xmlns:svg="http://www.w3.org/2000/svg"
   xmlns="http://www.w3.org/2000/svg"
   xmlns:xlink="http://www.w3.org/1999/xlink"
   xmlns:sodipodi="http://sodipodi.sourceforge.net/DTD/sodipodi-0.dtd"
   xmlns:inkscape="http://www.inkscape.org/namespaces/inkscape"
   width="48px"
   height="48px"
   id="svg1307"
   sodipodi:version="0.32"
   inkscape:version="0.46"
   sodipodi:docbase="/home/qwerty/.icons/MonoIce/scalable/actions"
   sodipodi:docname="view-restore.svg"
   inkscape:output_extension="org.inkscape.output.svg.inkscape">
  <defs
     id="defs1309">
    <inkscape:perspective
       sodipodi:type="inkscape:persp3d"
       inkscape:vp_x="0 : 24 : 1"
       inkscape:vp_y="0 : 1000 : 0"
       inkscape:vp_z="48 : 24 : 1"
       inkscape:persp3d-origin="24 : 16 : 1"
       id="perspective10" />
  </defs>
  <sodipodi:namedview
     id="base"
     pagecolor="#f0f0f0"
     bordercolor="#666666"
     borderopacity="1.0"
     inkscape:pageopacity="0.0"
     inkscape:pageshadow="2"
     inkscape:zoom="7.9479163"
     inkscape:cx="34.962456"
     inkscape:cy="23.166007"
     inkscape:current-layer="layer1"
     showgrid="true"
     inkscape:grid-bbox="true"
     inkscape:document-units="px"
     inkscape:grid-points="true"
     inkscape:window-width="1268"
     inkscape:window-height="947"
     inkscape:window-x="6"
     inkscape:window-y="27" />
  <metadata
     id="metadata1312">
    <rdf:RDF>
      <cc:Work
         rdf:about="">
        <dc:format>image/svg+xml</dc:format>
        <dc:type
           rdf:resource="http://purl.org/dc/dcmitype/StillImage" />
      </cc:Work>
    </rdf:RDF>
  </metadata>
  <g
     id="layer1"
     inkscape:label="Layer 1"
     inkscape:groupmode="layer">
    <path
       style="fill:#f0f0f0;fill-opacity:1;fill-rule:evenodd;stroke:none;stroke-width:4;stroke-linecap:butt;stroke-linejoin:miter;stroke-miterlimit:4;stroke-dasharray:none;stroke-opacity:1"
       d="M 8.7291264,0.3679321 C 4.0164432,0.259246 -0.05976338,4.7225341 0.36860297,9.3968715 C 0.37593389,19.496893 0.35392605,29.597294 0.37963318,39.697077 C 0.5194517,44.308882 4.9685033,48.088617 9.5312255,47.632068 C 19.586686,47.624738 29.642526,47.646744 39.697748,47.621038 C 44.309554,47.48122 48.089289,43.032168 47.632739,38.469445 C 47.625408,28.413985 47.647415,18.358145 47.621708,8.3029231 C 47.48189,3.6911175 43.032839,-0.088617878 38.470116,0.3679321 C 28.556453,0.3679321 18.642789,0.3679321 8.7291264,0.3679321 z"
       id="path2387"
       sodipodi:nodetypes="ccccccccc" />
    <path
       style="fill:#373b41;fill-opacity:1;fill-rule:evenodd;stroke:none;stroke-width:4;stroke-linecap:butt;stroke-linejoin:miter;stroke-miterlimit:4;stroke-dasharray:none;stroke-opacity:1"
       d="M 8.7291264,4.1211083 C 6.1782995,4.1211083 4.1217791,6.1776287 4.1217791,8.7284556 L 4.1217791,39.271544 C 4.1217791,41.822371 6.1782995,43.878892 8.7291264,43.878892 L 39.272215,43.878892 C 41.823042,43.878892 43.879563,41.822371 43.879563,39.271544 L 43.879563,8.7284556 C 43.879563,6.1776287 41.823042,4.1211083 39.272215,4.1211083 L 8.7291264,4.1211083 z M 9.6609495,7.4342569 L 38.340392,7.4342569 C 39.567255,7.4342569 40.566414,8.4334149 40.566414,9.6602786 L 40.566414,38.339721 C 40.566413,39.566584 39.567256,40.565743 38.340392,40.565743 L 9.6609495,40.565743 C 8.4340859,40.565742 7.4349278,39.566585 7.4349278,38.339721 L 7.4349278,9.6602786 C 7.4349278,8.433415 8.4340857,7.4342569 9.6609495,7.4342569 z"
       id="rect1315" />
    <path
       id="path3940"
       d="M 23.048141,23.04747 L 23.048141,9.7120466 L 18.285489,14.474698 L 13.522838,9.7120466 L 9.7127174,13.522167 L 14.475369,18.284819 L 9.7127174,23.04747 L 23.048141,23.04747 z"
       style="fill:#373b41;fill-opacity:1;fill-rule:evenodd;stroke:none;stroke-width:1px;stroke-linecap:round;stroke-linejoin:round;stroke-opacity:1"
       sodipodi:nodetypes="cccccccc" />
    <use
       x="0"
       y="0"
       xlink:href="#path3940"
       id="use3062"
       transform="matrix(-1,0,0,-1,48.001342,48)"
       width="48"
       height="48" />
  </g>
</svg>
