<?xml version="1.0" encoding="UTF-8" standalone="no"?>
<!-- Generator: Adobe Illustrator 9.0, SVG Export Plug-In  -->
<svg
   xmlns:dc="http://purl.org/dc/elements/1.1/"
   xmlns:cc="http://web.resource.org/cc/"
   xmlns:rdf="http://www.w3.org/1999/02/22-rdf-syntax-ns#"
   xmlns:svg="http://www.w3.org/2000/svg"
   xmlns="http://www.w3.org/2000/svg"
   xmlns:sodipodi="http://sodipodi.sourceforge.net/DTD/sodipodi-0.dtd"
   xmlns:inkscape="http://www.inkscape.org/namespaces/inkscape"
   width="48"
   height="48"
   viewBox="0 0 24 24"
   xml:space="preserve"
   id="svg2"
   sodipodi:version="0.32"
   inkscape:version="0.45.1"
   sodipodi:docname="dialog-close.svg"
   sodipodi:docbase="/home/christof/themes_and_icons/meinICONtheme/BRIT ICONS/scalable/actions"
   inkscape:output_extension="org.inkscape.output.svg.inkscape"
   version="1.0"><metadata
   id="metadata33"><rdf:RDF><cc:Work
       rdf:about=""><dc:format>image/svg+xml</dc:format><dc:type
         rdf:resource="http://purl.org/dc/dcmitype/StillImage" /></cc:Work></rdf:RDF></metadata><defs
   id="defs31">
		
		<radialGradient
   gradientUnits="userSpaceOnUse"
   fy="7.9433999"
   fx="8.7368002"
   r="13.575"
   cy="7.9433999"
   cx="8.7368002"
   id="aigrd1">
			<stop
   id="stop8"
   style="stop-color:#FED182"
   offset="0" />
			<stop
   id="stop10"
   style="stop-color:#FFB310"
   offset="0.2809" />
			<stop
   id="stop12"
   style="stop-color:#996E04"
   offset="1" />
		</radialGradient>
		
		
		
		<radialGradient
   gradientUnits="userSpaceOnUse"
   fy="8.3765001"
   fx="9.0107002"
   r="9.2812996"
   cy="8.3765001"
   cx="9.0107002"
   id="aigrd2">
			<stop
   id="stop21"
   style="stop-color:#f0f0f0"
   offset="0" />
			<stop
   id="stop23"
   style="stop-color:#F0E1BD"
   offset="1" />
		</radialGradient>
		
	</defs><sodipodi:namedview
   inkscape:window-height="1003"
   inkscape:window-width="1680"
   inkscape:pageshadow="2"
   inkscape:pageopacity="0.0"
   guidetolerance="10.0"
   gridtolerance="10.0"
   objecttolerance="10.0"
   borderopacity="1.0"
   bordercolor="#666666"
   pagecolor="#f0f0f0"
   id="base"
   width="48px"
   height="48px"
   inkscape:zoom="9.5930819"
   inkscape:cx="42.284841"
   inkscape:cy="15.346368"
   inkscape:window-x="0"
   inkscape:window-y="47"
   inkscape:current-layer="svg2" />
	
	<path
   sodipodi:type="arc"
   style="opacity:1;fill:#f0f0f0;fill-opacity:1;fill-rule:nonzero;stroke:none;stroke-width:10;stroke-linejoin:miter;stroke-miterlimit:4;stroke-dasharray:none;stroke-opacity:1"
   id="path4850"
   sodipodi:cx="14.004914"
   sodipodi:cy="13.385749"
   sodipodi:rx="9.6928749"
   sodipodi:ry="9.6928749"
   d="M 23.697789 13.385749 A 9.6928749 9.6928749 0 1 1  4.3120394,13.385749 A 9.6928749 9.6928749 0 1 1  23.697789 13.385749 z"
   transform="matrix(1.1720252,0,0,1.1720252,-4.4141132,-3.6884357)" /><path
   id="path5"
   d="M 11.903556,2.515817 C 6.7436312,2.515817 2.515817,6.7436312 2.515817,11.903556 C 2.515817,17.063481 6.7436312,21.265433 11.903556,21.265433 C 17.063481,21.265434 21.265433,17.063481 21.265433,11.903556 C 21.265434,6.7436312 17.063481,2.515817 11.903556,2.515817 z M 14.631948,7.4036479 C 14.983665,7.4036479 15.337968,7.5536448 15.627617,7.8432941 C 16.206916,8.4225926 16.206917,9.2553345 15.627617,9.8346326 L 13.636279,11.81304 L 15.705202,13.881964 C 16.284501,14.461262 16.284501,15.294003 15.705202,15.873302 C 15.125904,16.452601 14.293162,16.4526 13.713864,15.873302 L 11.735456,13.881964 L 9.7441172,15.873302 C 9.1648187,16.452601 8.3450079,16.4526 7.7657095,15.873302 C 7.186411,15.294004 7.186411,14.461262 7.7657095,13.881964 L 9.7441172,11.903556 L 7.7657095,9.9122172 C 7.186411,9.3329188 7.186411,8.5001772 7.7657095,7.9208787 C 8.3450079,7.3415802 9.1648187,7.3415802 9.7441172,7.9208787 L 11.64494,9.8346326 L 13.636279,7.8432941 C 13.925928,7.5536448 14.280231,7.4036479 14.631948,7.4036479 z "
   style="fill:#373b41;fill-opacity:1;fill-rule:nonzero;stroke:none;stroke-width:0.86339998;stroke-miterlimit:4;stroke-opacity:1" /><g
   id="Layer_x0020_3"
   style="fill-rule:nonzero;stroke:#373b41;stroke-miterlimit:4">
		<path
   style="fill:none;stroke:none"
   d="M 24,24 L 0,24 L 0,0 L 24,0 L 24,24 z "
   id="path28" />
	</g>
</svg>