<?xml version="1.0" encoding="UTF-8" standalone="no"?>
<!-- Generator: Adobe Illustrator 9.0, SVG Export Plug-In  -->
<svg
   xmlns:dc="http://purl.org/dc/elements/1.1/"
   xmlns:cc="http://creativecommons.org/ns#"
   xmlns:rdf="http://www.w3.org/1999/02/22-rdf-syntax-ns#"
   xmlns:svg="http://www.w3.org/2000/svg"
   xmlns="http://www.w3.org/2000/svg"
   xmlns:sodipodi="http://sodipodi.sourceforge.net/DTD/sodipodi-0.dtd"
   xmlns:inkscape="http://www.inkscape.org/namespaces/inkscape"
   width="48"
   height="48"
   viewBox="0 0 48 48"
   xml:space="preserve"
   id="svg2"
   sodipodi:version="0.32"
   inkscape:version="0.46"
   sodipodi:docname="edit-clear.svg"
   sodipodi:docbase="/home/christof/themes_and_icons/meinICONtheme/BRIT ICONS/scalable/actions"
   inkscape:output_extension="org.inkscape.output.svg.inkscape"
   version="1.0"><metadata
   id="metadata25"><rdf:RDF><cc:Work
       rdf:about=""><dc:format>image/svg+xml</dc:format><dc:type
         rdf:resource="http://purl.org/dc/dcmitype/StillImage" /></cc:Work></rdf:RDF></metadata><defs
   id="defs23"><inkscape:perspective
     sodipodi:type="inkscape:persp3d"
     inkscape:vp_x="0 : 24 : 1"
     inkscape:vp_y="0 : 1000 : 0"
     inkscape:vp_z="48 : 24 : 1"
     inkscape:persp3d-origin="24 : 16 : 1"
     id="perspective12" /></defs><sodipodi:namedview
   inkscape:window-height="1001"
   inkscape:window-width="1680"
   inkscape:pageshadow="2"
   inkscape:pageopacity="0.0"
   guidetolerance="10.0"
   gridtolerance="10.0"
   objecttolerance="10.0"
   borderopacity="1.0"
   bordercolor="#666666"
   pagecolor="#f0f0f0"
   id="base"
   showgrid="true"
   inkscape:zoom="6.7833334"
   inkscape:cx="27.281517"
   inkscape:cy="30.031966"
   inkscape:window-x="0"
   inkscape:window-y="24"
   inkscape:current-layer="svg2"
   width="48px"
   height="48px" />
	<g
   transform="matrix(1.0236805,0,0,1.0234307,-0.5461568,-0.724945)"
   style="fill:#f0f0f0;fill-opacity:1;fill-rule:nonzero;stroke:#373b41;stroke-width:1.02784264000000003;stroke-miterlimit:4"
   id="g2385">
		<g
   id="g2387"
   style="fill:#f0f0f0;fill-opacity:1;stroke:none">
			
			<path
   style="fill:#f0f0f0;fill-opacity:1;stroke:none;stroke-width:2.67127179999999997;stroke-linecap:round;stroke-linejoin:round;stroke-opacity:1"
   d="M 24.78125,13.96875 C 22.426417,14.215519 20.620659,15.88026 18.606051,16.968968 C 14.383191,19.560677 10.078819,22.095128 5.9072771,24.722834 C 2.9651006,26.552096 2.3430594,30.977076 4.627943,33.569069 C 7.0345231,36.798978 9.4190142,40.048251 11.839273,43.266048 C 13.401925,45.018416 15.589118,46.22018 17.971157,46.256448 C 21.276477,46.50194 24.12314,44.669274 27.050488,43.450874 C 32.759562,40.879901 38.485609,38.344703 44.184091,35.751404 C 47.403946,34.167711 48.451476,29.54818 46.173667,26.757278 C 44.674719,24.710204 41.933735,24.009248 39.532466,24.559063 C 38.376686,24.50454 36.642464,25.2426 35.954613,24.000554 C 33.836828,21.261043 31.799151,18.455702 29.62768,15.760297 C 28.388601,14.466403 26.559635,13.81459 24.78125,13.96875 z"
   id="path2399"
   sodipodi:nodetypes="ccccccccccccc" />
			<path
   sodipodi:type="inkscape:offset"
   inkscape:radius="3.9017818"
   inkscape:original="M 7.3125 5.875 C 6.9234375 5.9328125 6.5375 6.0875 6.1875 6.3125 C 4.7875 7.2125 4.2875002 9.1 5.1875 10.5 L 12.5 22.8125 C 13.4 24.2125 15.287499 24.712501 16.6875 23.8125 C 18.088209 22.565715 19.408046 22.130492 17.8125 19.5 L 10.40625 7.3125 C 9.73125 6.2625 8.4796875 5.7015625 7.3125 5.875 z "
   style="fill:#f0f0f0;fill-opacity:1;stroke:none;stroke-opacity:1"
   id="path2395"
   d="M 6.75,2 C 5.7311221,2.1513995 4.825724,2.540606 4.0625,3.03125 C 0.93061226,5.0446064 -0.21183995,9.3301927 1.90625,12.625 L 9.15625,24.8125 C 9.1763355,24.854536 9.1971721,24.89621 9.21875,24.9375 C 11.232105,28.069386 15.517693,29.211841 18.8125,27.09375 C 18.978147,26.980972 19.134861,26.855601 19.28125,26.71875 C 19.695409,26.350103 20.802855,25.990104 21.84375,23.96875 C 22.364197,22.958073 22.550403,21.535115 22.34375,20.40625 C 22.137097,19.277385 21.703582,18.371107 21.15625,17.46875 L 13.75,5.28125 C 13.729619,5.2497008 13.708783,5.2184476 13.6875,5.1875 C 12.167961,2.8237734 9.5281053,1.5871892 6.75,2 z" />
			<path
   sodipodi:type="inkscape:offset"
   inkscape:radius="4.2080145"
   inkscape:original="M 24.75 15.8125 C 24.289063 15.879687 23.83125 16.0625 23.40625 16.3125 L 7 26.1875 C 5.3 27.187499 4.8125 29.39375 5.8125 31.09375 L 8 34.5 L 30.46875 20.875 L 28.3125 17.5 C 27.562501 16.225 26.132812 15.610938 24.75 15.8125 z M 30.46875 20.875 L 30.5 20.90625 L 30.59375 20.8125 L 30.46875 20.875 z "
   style="fill:#f0f0f0;fill-opacity:1;stroke:none"
   id="path2397"
   d="M 26.375,11.625 C 25.638842,11.526533 24.906138,11.546945 24.15625,11.65625 C 23.010754,11.82322 22.071827,12.222455 21.28125,12.6875 C 21.270779,12.697862 21.260362,12.708279 21.25,12.71875 L 4.84375,22.59375 C 1.115391,24.7869 0.077762137,29.632196 2.1875,33.21875 C 2.2176187,33.271504 2.248876,33.323599 2.28125,33.375 L 4.46875,36.78125 C 5.7055119,38.694537 8.240224,39.276274 10.1875,38.09375 L 32.1875,24.75 L 32.21875,24.75 C 32.685251,24.536935 33.108879,24.240395 33.46875,23.875 L 33.5625,23.78125 C 34.37614,22.965792 34.819948,21.852456 34.79042,20.700887 C 34.760893,19.549318 34.260612,18.460189 33.40625,17.6875 L 31.84375,15.25 C 30.617087,13.16467 28.583474,11.920402 26.375,11.625 z" />
			
			
		</g>
	</g><g
   id="Layer_x0020_4"
   style="fill:#373b41;fill-opacity:1;fill-rule:nonzero;stroke:#373b41;stroke-width:1.02784264;stroke-miterlimit:4"
   transform="matrix(1.0236805,0,0,1.0234307,-0.5461568,-0.724945)">
		<g
   style="fill:#373b41;fill-opacity:1;stroke:none"
   id="g5">
			
			<path
   style="fill:#373b41;fill-opacity:1;stroke:none;stroke-width:2.6712718;stroke-linecap:round;stroke-linejoin:round;stroke-opacity:1"
   d="M 25.1875,18.65625 C 24.977576,18.671105 24.774133,18.73535 24.59375,18.84375 L 8.59375,28.5625 C 8.2733393,28.758275 8.0501241,29.079867 7.9787733,29.448513 C 7.9074225,29.817159 7.9945257,30.198812 8.21875,30.5 L 15.125,39.84375 L 15.21875,40 L 15.28125,39.96875 C 15.696915,40.605135 16.278472,41.095581 16.875,41.3125 C 17.528771,41.550235 18.172677,41.594622 18.71875,41.5625 C 19.810895,41.498256 20.6875,41.15625 20.6875,41.15625 C 20.708602,41.14638 20.729443,41.13596 20.75,41.125 L 41.9375,31.625 C 42.532987,31.34334 42.834233,30.669612 42.647093,30.038014 C 42.459953,29.406416 41.840307,29.005545 41.1875,29.09375 C 41.1875,29.09375 39.424601,29.363265 37.5,29.375 C 36.5377,29.380868 35.537423,29.298611 34.78125,29.125 C 34.025077,28.951389 33.593287,28.66535 33.5,28.53125 C 33.489756,28.520662 33.479338,28.510244 33.46875,28.5 L 26.375,19.1875 C 26.097967,18.816605 25.648647,18.615594 25.1875,18.65625 L 25.1875,18.65625 z M 24.96875,21.78125 L 31.34375,30.125 C 32.050463,31.1409 33.106173,31.501736 34.1875,31.75 C 34.442188,31.808474 34.707582,31.77311 34.96875,31.8125 L 19.71875,38.65625 L 19.65625,38.6875 C 19.597658,38.707943 19.105246,38.872485 18.53125,38.90625 C 18.227322,38.924128 17.952479,38.874765 17.78125,38.8125 C 17.610021,38.750235 17.557609,38.722447 17.46875,38.5625 C 17.441093,38.508343 17.40977,38.456139 17.375,38.40625 L 11.25,30.09375 L 24.96875,21.78125 z"
   id="path9" />
			<path
   d="M 16.7,23.8 C 15.3,24.7 13.4,24.2 12.5,22.8 L 5.2,10.5 C 4.3,9.1 4.8,7.2 6.2,6.3 C 7.6,5.4 9.5,5.9 10.4,7.3 L 17.8,19.5 C 19.395545,22.130492 18.100709,22.553215 16.7,23.8 z"
   id="path11"
   style="fill:#373b41;fill-opacity:1;stroke:none;stroke-opacity:1"
   sodipodi:nodetypes="cccsczc" />
			<path
   d="M 30.5,20.9 L 28.3,17.5 C 27.3,15.8 25.1,15.3 23.4,16.3 L 7,26.2 C 5.3,27.2 4.8,29.4 5.8,31.1 L 8,34.5 L 30.6,20.8 L 30.5,20.9 z"
   id="path13"
   style="fill:#373b41;fill-opacity:1;stroke:none" />
			
			
		</g>
	</g>
	
</svg>