<?xml version="1.0" encoding="UTF-8" standalone="no"?>
<svg
   xmlns:dc="http://purl.org/dc/elements/1.1/"
   xmlns:cc="http://web.resource.org/cc/"
   xmlns:rdf="http://www.w3.org/1999/02/22-rdf-syntax-ns#"
   xmlns:svg="http://www.w3.org/2000/svg"
   xmlns="http://www.w3.org/2000/svg"
   xmlns:sodipodi="http://sodipodi.sourceforge.net/DTD/sodipodi-0.dtd"
   xmlns:inkscape="http://www.inkscape.org/namespaces/inkscape"
   version="1.1"
   width="128.012"
   height="128"
   viewBox="0 0 128.012 128"
   overflow="visible"
   enable-background="new 0 0 128.012 128"
   xml:space="preserve"
   id="svg2"
   sodipodi:version="0.32"
   inkscape:version="0.45.1"
   sodipodi:docname="gnome-session-switch.svg"
   sodipodi:docbase="/home/christof/themes_and_icons/meinICONtheme/BRIT ICONS/scalable/apps"
   inkscape:output_extension="org.inkscape.output.svg.inkscape"><sodipodi:namedview
   inkscape:window-height="1003"
   inkscape:window-width="1680"
   inkscape:pageshadow="2"
   inkscape:pageopacity="0.0"
   guidetolerance="10.0"
   gridtolerance="10.0"
   objecttolerance="10.0"
   borderopacity="1.0"
   bordercolor="#666666"
   pagecolor="#f0f0f0"
   id="base"
   inkscape:zoom="2.3312427"
   inkscape:cx="114.40623"
   inkscape:cy="101.51331"
   inkscape:window-x="0"
   inkscape:window-y="47"
   inkscape:current-layer="svg2" /><metadata
   id="metadata61"><rdf:RDF><cc:Work
       rdf:about=""><dc:format>image/svg+xml</dc:format><dc:type
         rdf:resource="http://purl.org/dc/dcmitype/StillImage" /></cc:Work></rdf:RDF></metadata><defs
   id="defs59" />
	
	
	
	<linearGradient
   id="XMLID_7_"
   x1="89.2207"
   y1="70.1709"
   x2="77.3565"
   gradientUnits="userSpaceOnUse"
   y2="20.8161">
		<stop
   offset="0"
   id="stop11"
   style="stop-color:#b294bb" />
		<stop
   offset="1"
   id="stop13"
   style="stop-color:#7b7b7b" />
	</linearGradient>
	
	
		<linearGradient
   id="XMLID_8_"
   x1="595.1641"
   y1="44.3291"
   gradientTransform="matrix(-1 0 0 1 676.1953 0)"
   x2="579.538"
   gradientUnits="userSpaceOnUse"
   y2="75.266">
		<stop
   offset="0"
   id="stop18"
   style="stop-color:#7f7f7f" />
		<stop
   offset="1"
   id="stop20"
   style="stop-color:#949494" />
	</linearGradient>
	
	
	<linearGradient
   id="XMLID_9_"
   x1="43.5977"
   y1="37.9502"
   x2="122.6445"
   gradientUnits="userSpaceOnUse"
   y2="37.9502">
		<stop
   offset="0"
   id="stop27"
   style="stop-color:#b1b1b1" />
		<stop
   offset="1"
   id="stop29"
   style="stop-color:#a3a3a3" />
	</linearGradient>
	
	
	<linearGradient
   id="XMLID_10_"
   x1="1"
   y1="78.9502"
   x2="85.4141"
   gradientUnits="userSpaceOnUse"
   y2="78.9502">
		<stop
   offset="0"
   id="stop36"
   style="stop-color:#b294bb" />
		<stop
   offset="1"
   id="stop38"
   style="stop-color:#7b7b7b" />
	</linearGradient>
	
	<linearGradient
   id="XMLID_11_"
   x1="8.1543"
   y1="64.207"
   x2="80.3187"
   gradientUnits="userSpaceOnUse"
   y2="98.6413">
		<stop
   offset="0"
   id="stop43"
   style="stop-color:#7f7f7f" />
		<stop
   offset="1"
   id="stop45"
   style="stop-color:#949494" />
	</linearGradient>
	
	
	<linearGradient
   id="XMLID_12_"
   x1="15.6523"
   y1="59.7617"
   x2="19.4666"
   gradientUnits="userSpaceOnUse"
   y2="76.9257">
		<stop
   offset="0"
   id="stop52"
   style="stop-color:#b1b1b1" />
		<stop
   offset="1"
   id="stop54"
   style="stop-color:#a3a3a3" />
	</linearGradient>
	
<path
   sodipodi:type="arc"
   style="opacity:1;fill:#f0f0f0;fill-opacity:1;fill-rule:nonzero;stroke:none;stroke-width:5.99999905;stroke-linejoin:miter;stroke-miterlimit:4;stroke-dasharray:none;stroke-opacity:1"
   id="path4382"
   sodipodi:cx="39.09235"
   sodipodi:cy="64.422165"
   sodipodi:rx="52.263851"
   sodipodi:ry="52.263851"
   d="M 91.356201 64.422165 A 52.263851 52.263851 0 1 1  -13.171501,64.422165 A 52.263851 52.263851 0 1 1  91.356201 64.422165 z"
   transform="matrix(1.213114,0,0,1.213114,16.582523,-14.15143)" /><path
   style="fill:#373b41;fill-opacity:1"
   d="M 27.741513,86.782066 C 34.147612,83.850877 35.741505,82.829296 36.414213,81.223409 C 36.867522,80.141309 37.660203,79.257581 38.175726,79.259584 C 39.384881,79.264263 39.343733,77.920093 38.083327,76.240753 C 37.537128,75.513008 37.093571,74.058507 37.097639,73.008521 C 37.101706,71.958546 36.809858,71.098325 36.449071,71.096926 C 34.9615,71.091163 34.256507,67.758078 34.023534,59.629405 C 33.803435,51.950141 33.921998,50.80219 35.138635,48.832869 C 35.887406,47.620872 36.822855,46.630491 37.217432,46.63202 C 37.611998,46.633549 38.853759,45.96113 39.976891,45.137731 C 44.454654,41.855076 53.839715,44.116768 57.240961,49.298172 C 58.979014,51.945921 59.01671,52.238125 58.749314,60.991796 C 58.529148,68.199283 58.262453,70.123986 57.396926,70.751513 C 56.80395,71.181442 56.082678,72.588347 55.794094,73.877971 C 55.50549,75.167595 54.931149,76.759526 54.51774,77.415583 C 53.312321,79.328585 57.90245,83.424698 65.844277,87.523098 C 75.032671,92.26481 75.330128,92.596161 75.6373,98.431837 L 75.887962,103.19399 L 46.236343,103.07905 C 30.253877,106.0305 38.803019,96.847497 27.741513,86.782066 z "
   id="path4164"
   sodipodi:nodetypes="cssssssssssssssscccc" /><path
   style="fill:#373b41;fill-opacity:1;stroke:none;stroke-opacity:1"
   d="M 42.239633,101.08582 C 42.26729,93.953163 43.773413,92.355555 55.550016,86.967014 C 63.204299,83.464703 65.108752,82.244074 65.912533,80.325292 C 66.454166,79.032351 67.401295,77.976435 68.017264,77.978829 C 69.462014,77.984419 69.412848,76.378347 67.906862,74.371799 C 67.254239,73.502257 66.724259,71.764357 66.729119,70.509789 C 66.733979,69.255232 66.385267,68.227404 65.954182,68.225732 C 64.176768,68.218846 63.334413,64.236333 63.056046,54.523843 C 62.793062,45.348328 62.934726,43.976705 64.388416,41.623677 C 65.28308,40.17553 66.400796,38.99218 66.872252,38.994007 C 67.343698,38.995834 68.827407,38.192399 70.169374,37.208566 C 75.519597,33.286307 86.733274,35.988675 90.79723,42.179641 C 92.873928,45.343285 92.918968,45.692423 92.599472,56.151686 C 92.336409,64.763504 92.017752,67.063221 90.983583,67.813017 C 90.27507,68.326716 89.413263,70.007745 89.06845,71.548644 C 88.723614,73.089543 88.037367,74.991651 87.543407,75.775536 C 86.103121,78.061274 91.587605,82.955486 101.07684,87.852432 L 77.648436,106.43936 L 42.219424,106.30201 L 42.239633,101.08582 z "
   id="path5803"
   sodipodi:nodetypes="cssssssssssssssscccc" /><path
   style="fill:none;fill-rule:evenodd;stroke:#f0f0f0;stroke-width:1px;stroke-linecap:butt;stroke-linejoin:miter;stroke-opacity:1"
   d="M 61.622181,83.46903 C 61.622181,83.46903 44.450544,92.235814 42.520243,96.418133"
   id="path5805"
   sodipodi:nodetypes="cc" /><path
   d="M 10.771007,64.000002 C 10.771007,93.353095 34.65072,117.2328 64.005558,117.2328 C 93.362142,117.2328 117.24099,93.353095 117.24099,64.000002 C 117.24099,34.646909 93.362142,10.767196 64.005558,10.767196 C 34.65072,10.767196 10.771007,34.646909 10.771007,64.000002 z M 27.351717,64.000002 C 27.351717,43.789862 43.793672,27.347906 64.005558,27.347906 C 84.217444,27.347906 100.66028,43.789862 100.66028,64.000002 C 100.66028,84.210143 84.217444,100.6521 64.005558,100.6521 C 43.793672,100.6521 27.351717,84.210143 27.351717,64.000002 z "
   id="path5796"
   style="fill:#373b41" /></svg>