<?xml version="1.0" encoding="UTF-8" standalone="no"?>
<!-- Created with Inkscape (http://www.inkscape.org/) -->
<svg
   xmlns:dc="http://purl.org/dc/elements/1.1/"
   xmlns:cc="http://creativecommons.org/ns#"
   xmlns:rdf="http://www.w3.org/1999/02/22-rdf-syntax-ns#"
   xmlns:svg="http://www.w3.org/2000/svg"
   xmlns="http://www.w3.org/2000/svg"
   xmlns:sodipodi="http://sodipodi.sourceforge.net/DTD/sodipodi-0.dtd"
   xmlns:inkscape="http://www.inkscape.org/namespaces/inkscape"
   width="128"
   height="128"
   id="svg1872"
   sodipodi:version="0.32"
   inkscape:version="0.46"
   sodipodi:docbase="/home/qwerty/.icons/MonoIce/scalable/apps"
   sodipodi:docname="input-keyboard.svg"
   inkscape:output_extension="org.inkscape.output.svg.inkscape"
   version="1.0">
  <defs
     id="defs1874">
    <inkscape:perspective
       sodipodi:type="inkscape:persp3d"
       inkscape:vp_x="0 : 24 : 1"
       inkscape:vp_y="0 : 1000 : 0"
       inkscape:vp_z="48 : 24 : 1"
       inkscape:persp3d-origin="24 : 16 : 1"
       id="perspective8" />
  </defs>
  <sodipodi:namedview
     id="base"
     pagecolor="#f0f0f0"
     bordercolor="#666666"
     borderopacity="1.0"
     inkscape:pageopacity="0.0"
     inkscape:pageshadow="2"
     inkscape:zoom="2.4012167"
     inkscape:cx="32.013104"
     inkscape:cy="-6.6963295"
     inkscape:current-layer="layer1"
     showgrid="true"
     inkscape:grid-bbox="true"
     inkscape:document-units="px"
     inkscape:grid-points="true"
     inkscape:window-width="1680"
     inkscape:window-height="1000"
     inkscape:window-x="0"
     inkscape:window-y="25" />
  <metadata
     id="metadata1877">
    <rdf:RDF>
      <cc:Work
         rdf:about="">
        <dc:format>image/svg+xml</dc:format>
        <dc:type
           rdf:resource="http://purl.org/dc/dcmitype/StillImage" />
        <dc:title>Keyboard</dc:title>
        <dc:creator>
          <cc:Agent>
            <dc:title>Luca Ferretti &lt;elle.uca@libero.it&gt;</dc:title>
          </cc:Agent>
        </dc:creator>
        <dc:subject>
          <rdf:Bag>
            <rdf:li>keyboard device input</rdf:li>
          </rdf:Bag>
        </dc:subject>
        <dc:description>A keybord</dc:description>
        <cc:license
           rdf:resource="http://creativecommons.org/licenses/LGPL/2.1/" />
      </cc:Work>
      <cc:License
         rdf:about="http://creativecommons.org/licenses/LGPL/2.1/">
        <cc:permits
           rdf:resource="http://web.resource.org/cc/Reproduction" />
        <cc:permits
           rdf:resource="http://web.resource.org/cc/Distribution" />
        <cc:requires
           rdf:resource="http://web.resource.org/cc/Notice" />
        <cc:permits
           rdf:resource="http://web.resource.org/cc/DerivativeWorks" />
        <cc:requires
           rdf:resource="http://web.resource.org/cc/ShareAlike" />
        <cc:requires
           rdf:resource="http://web.resource.org/cc/SourceCode" />
      </cc:License>
    </rdf:RDF>
  </metadata>
  <g
     id="layer1"
     inkscape:label="Layer 1"
     inkscape:groupmode="layer">
    <path
       sodipodi:type="inkscape:offset"
       inkscape:radius="4.585741"
       inkscape:original="M 2.46875 7.25 C 1.1143974 7.25 0 8.437427 0 9.9375 L 0 36.0625 C 0 37.562573 1.1143975 38.750002 2.46875 38.75 L 45.53125 38.75 C 46.885603 38.75 47.999999 37.562572 48 36.0625 L 48 9.9375 C 48 8.4374268 46.885601 7.25 45.53125 7.25 L 2.46875 7.25 z "
       style="fill:#f0f0f0;fill-opacity:1;fill-rule:evenodd;stroke:none;stroke-width:1px;stroke-linecap:butt;stroke-linejoin:miter;stroke-opacity:1"
       id="path2383"
       d="M 2.46875,2.65625 C -1.5659645,2.65625 -4.59375,6.1662762 -4.59375,9.9375 L -4.59375,36.0625 C -4.59375,39.833724 -1.5659729,43.343756 2.46875,43.34375 L 45.53125,43.34375 C 49.565966,43.34375 52.593747,39.83372 52.59375,36.0625 L 52.59375,9.9375 C 52.59375,6.1662731 49.565966,2.65625 45.53125,2.65625 L 2.46875,2.65625 z"
       transform="matrix(2.2133439,0,0,2.2133439,10.443022,13.738643)" />
    <path
       style="fill:#373b41;fill-opacity:1;fill-rule:evenodd;stroke:none;stroke-width:1px;stroke-linecap:butt;stroke-linejoin:miter;stroke-opacity:1"
       d="M 15.907215,29.785387 C 12.909567,29.785387 10.443022,32.413572 10.443022,35.73375 L 10.443022,93.557361 C 10.443022,96.877539 12.909567,99.505729 15.907215,99.505723 L 111.21935,99.505723 C 114.217,99.505723 116.68354,96.877537 116.68354,93.557361 L 116.68354,35.73375 C 116.68354,32.413572 114.21699,29.785387 111.21935,29.785387 L 15.907215,29.785387 z M 18.466395,41.474611 L 29.048945,41.474611 L 29.048945,50.327985 L 18.466395,50.327985 L 18.466395,41.474611 z M 34.374805,41.474611 L 44.957355,41.474611 L 44.957355,50.327985 L 34.374805,50.327985 L 34.374805,41.474611 z M 50.283214,41.474611 L 60.934932,41.474611 L 60.934932,50.327985 L 50.283214,50.327985 L 50.283214,41.474611 z M 66.191625,41.474611 L 76.843344,41.474611 L 76.843344,50.327985 L 66.191625,50.327985 L 66.191625,41.474611 z M 82.169203,41.474611 L 92.751752,41.474611 L 92.751752,50.327985 L 82.169203,50.327985 L 82.169203,41.474611 z M 98.077612,41.474611 L 108.66017,41.474611 L 108.66017,50.327985 L 98.077612,50.327985 L 98.077612,41.474611 z M 26.4206,60.218867 L 37.003151,60.218867 L 37.003151,69.072243 L 26.4206,69.072243 L 26.4206,60.218867 z M 42.329011,60.218867 L 52.91156,60.218867 L 52.91156,69.072243 L 42.329011,69.072243 L 42.329011,60.218867 z M 58.237419,60.218867 L 68.889138,60.218867 L 68.889138,69.072243 L 58.237419,69.072243 L 58.237419,60.218867 z M 74.214997,60.218867 L 84.797546,60.218867 L 84.797546,69.072243 L 74.214997,69.072243 L 74.214997,60.218867 z M 90.123406,60.218867 L 100.70596,60.218867 L 100.70596,69.072243 L 90.123406,69.072243 L 90.123406,60.218867 z M 18.466395,78.963126 L 31.677292,78.963126 L 31.677292,87.816499 L 18.466395,87.816499 L 18.466395,78.963126 z M 37.003151,78.963126 L 87.425893,78.963126 L 87.425893,87.816499 L 37.003151,87.816499 L 37.003151,78.963126 z M 92.751752,78.963126 L 108.66017,78.963126 L 108.66017,87.816499 L 92.751752,87.816499 L 92.751752,78.963126 z"
       id="rect1880" />
  </g>
</svg>
