<?xml version="1.0" encoding="UTF-8" standalone="no"?>
<!-- Created with Inkscape (http://www.inkscape.org/) -->
<svg
   xmlns:dc="http://purl.org/dc/elements/1.1/"
   xmlns:cc="http://web.resource.org/cc/"
   xmlns:rdf="http://www.w3.org/1999/02/22-rdf-syntax-ns#"
   xmlns:svg="http://www.w3.org/2000/svg"
   xmlns="http://www.w3.org/2000/svg"
   xmlns:sodipodi="http://sodipodi.sourceforge.net/DTD/sodipodi-0.dtd"
   xmlns:inkscape="http://www.inkscape.org/namespaces/inkscape"
   width="48px"
   height="48px"
   id="svg1325"
   sodipodi:version="0.32"
   inkscape:version="0.45.1"
   sodipodi:docbase="/home/christof/themes_and_icons/meinICONtheme/BRIT ICONS/scalable/apps"
   sodipodi:docname="gnome-about-logo.svg"
   inkscape:output_extension="org.inkscape.output.svg.inkscape">
  <sodipodi:namedview
     inkscape:window-height="1003"
     inkscape:window-width="1680"
     inkscape:pageshadow="2"
     inkscape:pageopacity="1"
     guidetolerance="10.0"
     gridtolerance="10.0"
     objecttolerance="10.0"
     borderopacity="1.0"
     bordercolor="#666666"
     pagecolor="#828282"
     id="base"
     inkscape:zoom="11.313708"
     inkscape:cx="45.578669"
     inkscape:cy="17.677924"
     inkscape:window-x="0"
     inkscape:window-y="47"
     inkscape:current-layer="layer2"
     showgrid="true"
     showborder="true"
     showguides="true"
     inkscape:guide-bbox="true"
     inkscape:showpageshadow="true"
     borderlayer="true">
    <sodipodi:guide
       orientation="vertical"
       position="0"
       id="guide2983" />
  </sodipodi:namedview>
  <defs
     id="defs1327">
    <linearGradient
       id="linearGradient2796">
      <stop
         style="stop-color:#2e3436;stop-opacity:1;"
         offset="0"
         id="stop2798" />
      <stop
         style="stop-color:#2e3436;stop-opacity:0;"
         offset="1"
         id="stop2800" />
    </linearGradient>
    <linearGradient
       id="linearGradient3052">
      <stop
         id="stop3054"
         offset="0"
         style="stop-color:#555753;stop-opacity:1" />
      <stop
         id="stop3056"
         offset="1"
         style="stop-color:#2e3436;stop-opacity:1" />
    </linearGradient>
    <linearGradient
       id="linearGradient3013">
      <stop
         style="stop-color:#2d2d2d;stop-opacity:1;"
         offset="0"
         id="stop3015" />
      <stop
         style="stop-color:white;stop-opacity:1"
         offset="1"
         id="stop3017" />
    </linearGradient>
  </defs>
  <sodipodi:namedview
     id="namedview32"
     pagecolor="#f0f0f0"
     bordercolor="#666666"
     borderopacity="1.0"
     inkscape:pageopacity="0"
     inkscape:pageshadow="2"
     inkscape:zoom="1"
     inkscape:cx="29.202731"
     inkscape:cy="14.650528"
     inkscape:current-layer="layer1"
     showgrid="false"
     inkscape:grid-bbox="true"
     inkscape:document-units="px"
     stroke="#eeeeec"
     fill="#2e3436"
     inkscape:window-width="1270"
     inkscape:window-height="943"
     inkscape:window-x="0"
     inkscape:window-y="25"
     showborder="false"
     gridspacingx="0.5px"
     gridspacingy="0.5px"
     gridempspacing="2"
     inkscape:grid-points="true"
     showguides="false"
     inkscape:guide-bbox="true"
     inkscape:showpageshadow="false">
    <sodipodi:guide
       orientation="vertical"
       position="31.875"
       id="guide2260" />
  </sodipodi:namedview>
  <metadata
     id="metadata1330">
    <rdf:RDF>
      <cc:Work
         rdf:about="">
        <dc:format>image/svg+xml</dc:format>
        <dc:type
           rdf:resource="http://purl.org/dc/dcmitype/StillImage" />
        <dc:title>Piedone</dc:title>
        <dc:creator>
          <cc:Agent>
            <dc:title>Lapo Calamandrei</dc:title>
          </cc:Agent>
        </dc:creator>
        <dc:subject>
          <rdf:Bag />
        </dc:subject>
        <dc:contributor>
          <cc:Agent>
            <dc:title />
          </cc:Agent>
        </dc:contributor>
        <cc:license
           rdf:resource="http://creativecommons.org/licenses/GPL/2.0/" />
      </cc:Work>
      <cc:License
         rdf:about="http://creativecommons.org/licenses/GPL/2.0/">
        <cc:permits
           rdf:resource="http://web.resource.org/cc/Reproduction" />
        <cc:permits
           rdf:resource="http://web.resource.org/cc/Distribution" />
        <cc:requires
           rdf:resource="http://web.resource.org/cc/Notice" />
        <cc:permits
           rdf:resource="http://web.resource.org/cc/DerivativeWorks" />
        <cc:requires
           rdf:resource="http://web.resource.org/cc/ShareAlike" />
        <cc:requires
           rdf:resource="http://web.resource.org/cc/SourceCode" />
      </cc:License>
    </rdf:RDF>
  </metadata>
  <g
     inkscape:groupmode="layer"
     id="layer2"
     inkscape:label="incavo"
     style="display:inline">
    <g
       id="g3161"
       style="opacity:1;fill:#f0f0f0;fill-opacity:1;stroke:none;stroke-opacity:1;display:inline"
       transform="matrix(0.9492474,0,0,0.9492474,1.1956422,2.1857999)">
      <path
         style="opacity:1;fill:#f0f0f0;fill-opacity:1;fill-rule:nonzero;stroke:none;stroke-width:1;stroke-linejoin:round;stroke-miterlimit:4;stroke-dasharray:none;stroke-opacity:1"
         d="M 36.702107,-1.8741466 C 33.330239,-2.2503585 30.336478,1.7999136 28.342633,1.9750996 C 25.096308,-2.2257436 19.53759,1.5253907 17.339232,3.4914693 C 13.305774,1.475925 9.9098332,5.8841831 8.6298269,8.4682725 C 0.90916774,9.2247254 2.1923974,19.854819 7.6966763,22.42665 C -0.27240687,37.437663 23.163942,56.43643 35.57455,43.694708 C 40.600775,40.292829 42.157084,29.814394 33.941537,29.814092 C 38.691585,27.287092 40.741902,20.029974 37.285327,16.166765 C 43.059381,13.007385 49.281366,1.5194956 40.395829,-1.640859 C 39.188179,-1.9321435 37.935815,-1.9740368 36.702107,-1.8741466 z "
         id="path3163" />
    </g>
    <g
       id="g3045"
       style="opacity:1;fill:#373b41;fill-opacity:1;stroke:none;stroke-opacity:1"
       transform="matrix(0.8785237,0,0,0.8785237,2.9207933,3.7802286)">
      <path
         d="M 37.84375,0.5625 C 32.937667,0.5625 29.926498,4.1974996 28.9375,7.75 C 28.443001,9.5262502 28.416155,11.31354 28.90625,12.78125 C 29.396345,14.24896 30.61967,15.4375 32.28125,15.4375 C 33.942709,15.4375 35.582624,14.48396 37.125,13.1875 C 38.667376,11.89104 40.09201,10.203617 41.09375,8.46875 C 42.09549,6.7338829 42.728692,4.9559671 42.34375,3.3125 C 42.151279,2.4907665 41.629001,1.7294453 40.84375,1.25 C 40.058499,0.77055466 39.070311,0.5625 37.84375,0.5625 z "
         id="path2997"
         style="opacity:1;fill:#373b41;fill-opacity:1;fill-rule:nonzero;stroke:none;stroke-width:1;stroke-linejoin:round;stroke-miterlimit:4;stroke-dasharray:none;stroke-opacity:1"
         inkscape:original="M 37.84375 1.5 C 28.95865 1.5 27.282885 14.5 32.28125 14.5 C 37.278893 14.5 46.729211 1.5 37.84375 1.5 z "
         inkscape:radius="0.95043164"
         sodipodi:type="inkscape:offset" />
      <path
         d="M 27.5,15.53125 C 23.819995,15.47058 19.677609,16.333022 16.125,18.125 C 12.575638,19.91534 9.6229376,22.691517 8.75,26.5 C 7.7853218,30.705708 9.7015374,35.342237 12.96875,39.03125 C 16.227435,42.710634 20.862972,45.46875 25.8125,45.46875 C 28.382906,45.46875 30.92027,44.338258 33.03125,42.625 C 35.14223,40.911742 36.863141,38.554721 37.40625,35.75 C 37.506953,35.230764 37.385929,34.320108 37.125,33.875 C 36.710187,33.167389 36.230739,32.972714 35.8125,32.78125 C 34.667559,32.257114 33.611559,32.220831 32.34375,32.34375 C 31.123915,32.462018 29.972434,32.734345 28.9375,33.28125 C 28.377274,33.577298 27.999772,33.859812 27.65625,34.28125 C 27.591088,34.361192 27.542063,34.425289 27.46875,34.53125 C 27.432093,34.58423 27.416414,34.613815 27.3125,34.84375 C 27.208586,35.073685 27.156227,35.90608 27.15625,35.90625 C 27.312258,37.066982 26.855887,37.77254 26.3125,38.0625 C 25.738196,38.368957 24.856757,38.360283 23.78125,37.5625 C 22.826143,36.854054 22.433064,36.302635 22.3125,35.875 C 22.217663,35.53862 22.292508,35.128317 22.59375,34.6875 C 23.323696,33.619346 25.124686,32.442183 27.3125,31.125 C 29.481924,29.818889 31.855077,28.433407 33.71875,26.75 C 34.631518,25.925521 35.425376,25.05557 35.96875,24 C 36.512124,22.94443 36.747141,21.656052 36.53125,20.40625 C 36.248228,18.767843 34.958131,17.46276 33.375,16.71875 C 31.757017,15.958361 29.730697,15.568026 27.5,15.53125 z "
         id="path2995"
         style="opacity:1;fill:#373b41;fill-opacity:1;fill-rule:nonzero;stroke:none;stroke-width:0.99999994;stroke-miterlimit:4;stroke-dasharray:none;stroke-opacity:1"
         inkscape:original="M 27.46875 17.5 C 24.13271 17.445001 20.212818 18.254417 17 19.875 C 13.787182 21.495583 11.357566 23.877774 10.65625 26.9375 C 9.9082662 30.198485 11.481937 34.381621 14.4375 37.71875 C 17.393063 41.055879 21.630577 43.5 25.8125 43.5 C 29.711024 43.5 34.609468 39.812504 35.46875 35.375 C 35.524005 35.090099 35.493476 34.970487 35.4375 34.875 C 35.381524 34.779513 35.252848 34.67825 35 34.5625 C 34.494303 34.331 33.527631 34.215897 32.53125 34.3125 C 31.534869 34.409103 30.507193 34.680657 29.84375 35.03125 C 29.512029 35.206546 29.287309 35.408803 29.1875 35.53125 C 29.087691 35.653697 29.093659 35.65557 29.09375 35.65625 C 29.339341 37.483495 28.602819 39.090615 27.25 39.8125 C 25.897181 40.534385 24.140861 40.303857 22.59375 39.15625 C 21.444374 38.303706 20.691185 37.416899 20.40625 36.40625 C 20.121315 35.395601 20.414919 34.372938 20.96875 33.5625 C 22.076412 31.941623 24.103835 30.748422 26.28125 29.4375 C 28.458665 28.126578 30.780403 26.749835 32.40625 25.28125 C 34.032097 23.812665 34.885195 22.437189 34.59375 20.75 C 34.433192 19.820534 33.782311 19.08795 32.53125 18.5 C 31.280189 17.91205 29.470405 17.533 27.46875 17.5 z "
         inkscape:radius="1.9700731"
         sodipodi:type="inkscape:offset" />
      <path
         d="M 23.5625,2.59375 C 22.04759,2.7779966 20.907689,3.6091831 20.28125,4.6875 C 19.654811,5.7658169 19.475654,7.0365166 19.5625,8.25 C 19.649346,9.4634834 20.008218,10.642553 20.5625,11.59375 C 21.116782,12.544947 21.921418,13.372232 23.0625,13.4375 C 24.308222,13.508783 25.18784,12.604822 25.84375,11.59375 C 26.49966,10.582678 26.978531,9.2903666 27.21875,8 C 27.458969,6.7096334 27.470563,5.3998619 26.9375,4.28125 C 26.404437,3.1626381 25.106931,2.4059809 23.5625,2.59375 z "
         id="path2999"
         style="opacity:1;fill:#373b41;fill-opacity:1;fill-rule:nonzero;stroke:none;stroke-width:1;stroke-linejoin:round;stroke-miterlimit:4;stroke-dasharray:none;stroke-opacity:1"
         inkscape:original="M 23.6875 3.53125 C 18.652699 4.1435932 20.444137 12.346659 23.125 12.5 C 25.804774 12.653342 28.724119 2.9189068 23.6875 3.53125 z "
         inkscape:radius="0.93958104"
         sodipodi:type="inkscape:offset" />
      <path
         d="M 8.84375,10.96875 C 8.2326827,10.94736 7.647776,11.187005 7.125,11.5625 C 6.0807177,12.313036 5.5564729,13.445414 5.53125,14.53125 C 5.5060271,15.617086 5.8804909,16.654222 6.40625,17.5625 C 6.9320091,18.470778 7.6368772,19.239284 8.40625,19.78125 C 9.1756228,20.323216 10.130388,20.72215 11.09375,20.28125 C 12.032054,19.851632 12.291902,18.942072 12.40625,18.0625 C 12.520598,17.182928 12.454069,16.191707 12.25,15.21875 C 12.045931,14.245793 11.705034,13.291412 11.1875,12.5 C 10.669966,11.708588 9.8932255,11.005487 8.84375,10.96875 z "
         id="path3001"
         style="opacity:1;fill:#373b41;fill-opacity:1;fill-rule:nonzero;stroke:none;stroke-width:1;stroke-linejoin:round;stroke-miterlimit:4;stroke-dasharray:none;stroke-opacity:1"
         inkscape:original="M 8.8125 11.9375 C 8.4606561 11.925184 8.0926115 12.05277 7.6875 12.34375 C 4.4480637 14.671966 8.7815845 20.278527 10.6875 19.40625 C 12.355175 18.642678 11.275407 12.023715 8.8125 11.9375 z "
         inkscape:radius="0.97573626"
         sodipodi:type="inkscape:offset" />
      <path
         d="M 15.9375,5.625 C 15.319047,5.4756575 14.662873,5.5627442 14.03125,5.8125 C 12.761729,6.3145115 11.968151,7.3431338 11.6875,8.4375 C 11.406849,9.5318662 11.57594,10.656406 11.9375,11.6875 C 12.29906,12.718594 12.8628,13.66803 13.5625,14.375 C 14.2622,15.08197 15.157389,15.645352 16.21875,15.4375 C 17.244742,15.23705 17.764385,14.361298 18.09375,13.5 C 18.423115,12.638702 18.590593,11.65157 18.59375,10.625 C 18.596907,9.5984297 18.442591,8.5368008 18.0625,7.625 C 17.682409,6.7131992 16.99497,5.8803552 15.9375,5.625 z "
         id="path3003"
         style="opacity:1;fill:#373b41;fill-opacity:1;fill-rule:nonzero;stroke:none;stroke-width:1;stroke-linejoin:round;stroke-miterlimit:4;stroke-dasharray:none;stroke-opacity:1"
         inkscape:original="M 15.71875 6.5625 C 15.339365 6.4708871 14.912003 6.5187657 14.40625 6.71875 C 10.3595 8.3189717 13.764225 14.912713 16.03125 14.46875 C 18.016485 14.080891 18.374445 7.2037903 15.71875 6.5625 z "
         inkscape:radius="0.98042816"
         sodipodi:type="inkscape:offset" />
    </g>
  </g>
  <g
     id="layer1"
     inkscape:label="Layer 1"
     inkscape:groupmode="layer"
     style="display:inline" />
</svg>
