<?xml version="1.0" encoding="UTF-8" standalone="no"?>
<!-- Created with Inkscape (http://www.inkscape.org/) -->
<svg
   xmlns:dc="http://purl.org/dc/elements/1.1/"
   xmlns:cc="http://web.resource.org/cc/"
   xmlns:rdf="http://www.w3.org/1999/02/22-rdf-syntax-ns#"
   xmlns:svg="http://www.w3.org/2000/svg"
   xmlns="http://www.w3.org/2000/svg"
   xmlns:sodipodi="http://sodipodi.sourceforge.net/DTD/sodipodi-0.dtd"
   xmlns:inkscape="http://www.inkscape.org/namespaces/inkscape"
   id="svg2"
   sodipodi:version="0.32"
   inkscape:version="0.45.1"
   width="48"
   height="48"
   version="1.0"
   sodipodi:docbase="/home/christof/themes_and_icons/meinICONtheme/BRIT ICONS/scalable/apps"
   sodipodi:docname="gnome-panel-force-quit.svg"
   inkscape:output_extension="org.inkscape.output.svg.inkscape"
   inkscape:export-filename="/home/qwerty/.icons/MonoBlack/48x48/apps/nautilus.png"
   inkscape:export-xdpi="90"
   inkscape:export-ydpi="90">
  <metadata
     id="metadata7">
    <rdf:RDF>
      <cc:Work
         rdf:about="">
        <dc:format>image/svg+xml</dc:format>
        <dc:type
           rdf:resource="http://purl.org/dc/dcmitype/StillImage" />
      </cc:Work>
    </rdf:RDF>
  </metadata>
  <defs
     id="defs5" />
  <sodipodi:namedview
     inkscape:window-height="1003"
     inkscape:window-width="1680"
     inkscape:pageshadow="2"
     inkscape:pageopacity="0.0"
     guidetolerance="10000"
     gridtolerance="10000"
     objecttolerance="10000"
     borderopacity="1.0"
     bordercolor="#666666"
     pagecolor="#f0f0f0"
     id="base"
     width="48px"
     height="48px"
     showgrid="true"
     showguides="true"
     inkscape:guide-bbox="true"
     inkscape:zoom="12.71875"
     inkscape:cx="42.384186"
     inkscape:cy="26.878179"
     inkscape:window-x="0"
     inkscape:window-y="47"
     inkscape:current-layer="svg2">
    <sodipodi:guide
       orientation="vertical"
       position="24"
       id="guide2161" />
    <sodipodi:guide
       orientation="horizontal"
       position="24"
       id="guide2163" />
  </sodipodi:namedview>
  <path
     style="opacity:1;color:#373b41;fill:#22ad93;fill-opacity:1;fill-rule:nonzero;stroke:none;stroke-width:6;stroke-linecap:round;stroke-linejoin:round;marker:none;marker-start:none;marker-mid:none;marker-end:none;stroke-miterlimit:4;stroke-dasharray:none;stroke-dashoffset:0;stroke-opacity:1;visibility:visible;display:inline;overflow:visible;enable-background:accumulate"
     d="M 36 2 C 31.17 2 27.151719 5.4445313 26.21875 10 C 27.754656 8.3286951 29.941938 7.2812502 32.375 7.28125 C 36.969853 7.28125 40.718751 11.030146 40.71875 15.625 C 40.71875 18.058062 39.671305 20.245344 38 21.78125 C 42.555469 20.848281 46 16.83 46 12 C 46 6.48 41.52 2 36 2 z "
     id="path3145" />
  <path
     style="opacity:1;color:#373b41;fill:#22ad93;fill-opacity:1;fill-rule:nonzero;stroke:none;stroke-width:4;stroke-linecap:round;stroke-linejoin:round;marker:none;marker-start:none;marker-mid:none;marker-end:none;stroke-miterlimit:4;stroke-dasharray:none;stroke-dashoffset:0;stroke-opacity:1;visibility:visible;display:inline;overflow:visible;enable-background:accumulate"
     d="M 37,16.5 C 37,13.464 34.536,11 31.5,11 C 28.464001,11 26.000001,13.464 26,16.5 L 26,22 L 31.5,22 C 34.536,22 37,19.535999 37,16.5 z "
     id="path4122" />
  <path
     style="opacity:1;color:#373b41;fill:#22ad93;fill-opacity:1;fill-rule:nonzero;stroke:none;stroke-width:6;stroke-linecap:round;stroke-linejoin:round;marker:none;marker-start:none;marker-mid:none;marker-end:none;stroke-miterlimit:4;stroke-dasharray:none;stroke-dashoffset:0;stroke-opacity:1;visibility:visible;display:inline;overflow:visible;enable-background:accumulate"
     d="M 12,2 C 16.83,2 20.848281,5.4445312 21.78125,10 C 20.245344,8.3286952 18.058062,7.2812502 15.625,7.2812502 C 11.030147,7.2812502 7.2812494,11.030146 7.2812504,15.625 C 7.2812504,18.058062 8.3286954,20.245344 10,21.78125 C 5.4445314,20.848281 2.3030304,16.83 2.3030304,12 C 2.3030304,6.4800002 6.4800004,2 12,2 z "
     id="path4111" />
  <path
     style="opacity:1;color:#373b41;fill:#22ad93;fill-opacity:1;fill-rule:nonzero;stroke:none;stroke-width:4;stroke-linecap:round;stroke-linejoin:round;marker:none;marker-start:none;marker-mid:none;marker-end:none;stroke-miterlimit:4;stroke-dasharray:none;stroke-dashoffset:0;stroke-opacity:1;visibility:visible;display:inline;overflow:visible;enable-background:accumulate"
     d="M 10.998096,16.5 C 10.998096,13.464 13.462095,11 16.498096,11 C 19.534095,11 21.998095,13.464 21.998096,16.5 L 21.998096,22 L 16.498096,22 C 13.462095,22 10.998096,19.535999 10.998096,16.5 z "
     id="path4113" />
  <path
     style="opacity:1;color:#373b41;fill:#22ad93;fill-opacity:1;fill-rule:nonzero;stroke:none;stroke-width:6;stroke-linecap:round;stroke-linejoin:round;marker:none;marker-start:none;marker-mid:none;marker-end:none;stroke-miterlimit:4;stroke-dasharray:none;stroke-dashoffset:0;stroke-opacity:1;visibility:visible;display:inline;overflow:visible;enable-background:accumulate"
     d="M 36,46 C 31.17,46 27.151719,42.555469 26.21875,38 C 27.754656,39.671305 29.941938,40.71875 32.375,40.71875 C 36.969853,40.71875 40.718751,36.969854 40.71875,32.375 C 40.71875,29.941938 39.671305,27.754656 38,26.21875 C 42.555469,27.151719 46,31.17 46,36 C 46,41.52 41.52,46 36,46 z "
     id="path4115" />
  <path
     style="opacity:1;color:#373b41;fill:#22ad93;fill-opacity:1;fill-rule:nonzero;stroke:none;stroke-width:4;stroke-linecap:round;stroke-linejoin:round;marker:none;marker-start:none;marker-mid:none;marker-end:none;stroke-miterlimit:4;stroke-dasharray:none;stroke-dashoffset:0;stroke-opacity:1;visibility:visible;display:inline;overflow:visible;enable-background:accumulate"
     d="M 37,31.5 C 37,34.536 34.536,37 31.5,37 C 28.464001,37 26.000001,34.536 26,31.5 L 26,26 L 31.5,26 C 34.536,26 37,28.464001 37,31.5 z "
     id="path4117" />
  <path
     style="opacity:1;color:#373b41;fill:#22ad93;fill-opacity:1;fill-rule:nonzero;stroke:none;stroke-width:6;stroke-linecap:round;stroke-linejoin:round;marker:none;marker-start:none;marker-mid:none;marker-end:none;stroke-miterlimit:4;stroke-dasharray:none;stroke-dashoffset:0;stroke-opacity:1;visibility:visible;display:inline;overflow:visible;enable-background:accumulate"
     d="M 12,46 C 16.83,46 20.848281,42.555469 21.78125,38 C 20.245344,39.671305 18.058062,40.71875 15.625,40.71875 C 11.030147,40.71875 7.2812494,36.969854 7.2812504,32.375 C 7.2812504,29.941938 8.3286954,27.754656 10,26.21875 C 5.4445314,27.151719 2.3030304,31.17 2.3030304,36 C 2.3030304,41.52 6.4800004,46 12,46 z "
     id="path4119" />
  <path
     style="opacity:1;color:#373b41;fill:#22ad93;fill-opacity:1;fill-rule:nonzero;stroke:none;stroke-width:4;stroke-linecap:round;stroke-linejoin:round;marker:none;marker-start:none;marker-mid:none;marker-end:none;stroke-miterlimit:4;stroke-dasharray:none;stroke-dashoffset:0;stroke-opacity:1;visibility:visible;display:inline;overflow:visible;enable-background:accumulate"
     d="M 11,31.5 C 11,34.536 13.464,37 16.5,37 C 19.535999,37 21.999999,34.536 22,31.5 L 22,26 L 16.5,26 C 13.464,26 11,28.464001 11,31.5 z "
     id="path4121" />
</svg>
