<?xml version="1.0" encoding="UTF-8" standalone="no"?>
<svg
   xmlns:dc="http://purl.org/dc/elements/1.1/"
   xmlns:cc="http://creativecommons.org/ns#"
   xmlns:rdf="http://www.w3.org/1999/02/22-rdf-syntax-ns#"
   xmlns:svg="http://www.w3.org/2000/svg"
   xmlns="http://www.w3.org/2000/svg"
   xmlns:sodipodi="http://sodipodi.sourceforge.net/DTD/sodipodi-0.dtd"
   xmlns:inkscape="http://www.inkscape.org/namespaces/inkscape"
   version="1.1"
   width="128"
   height="128"
   viewBox="0 0 128 128"
   overflow="visible"
   enable-background="new 0 0 128 128"
   xml:space="preserve"
   id="svg2"
   sodipodi:version="0.32"
   inkscape:version="0.46"
   sodipodi:docname="gnome-session-reboot.svg"
   sodipodi:docbase="/home/christof/themes_and_icons/meinICONtheme/BRIT ICONS/scalable/apps"
   inkscape:output_extension="org.inkscape.output.svg.inkscape"><sodipodi:namedview
   inkscape:window-height="1000"
   inkscape:window-width="1680"
   inkscape:pageshadow="2"
   inkscape:pageopacity="0.0"
   guidetolerance="10.0"
   gridtolerance="10.0"
   objecttolerance="10.0"
   borderopacity="1.0"
   bordercolor="#666666"
   pagecolor="#f0f0f0"
   id="base"
   inkscape:zoom="3.296875"
   inkscape:cx="88.826316"
   inkscape:cy="49.199236"
   inkscape:window-x="0"
   inkscape:window-y="25"
   inkscape:current-layer="svg2"
   showgrid="false" /><metadata
   id="metadata93"><rdf:RDF><cc:Work
       rdf:about=""><dc:format>image/svg+xml</dc:format><dc:type
         rdf:resource="http://purl.org/dc/dcmitype/StillImage" /></cc:Work></rdf:RDF></metadata><defs
   id="defs91"><inkscape:perspective
     sodipodi:type="inkscape:persp3d"
     inkscape:vp_x="0 : 64 : 1"
     inkscape:vp_y="0 : 1000 : 0"
     inkscape:vp_z="128 : 64 : 1"
     inkscape:persp3d-origin="64 : 42.666667 : 1"
     id="perspective43" /></defs>
	
	
	
	<linearGradient
   id="XMLID_9_"
   x1="65.0986"
   y1="67.5"
   x2="121"
   gradientUnits="userSpaceOnUse"
   y2="67.5">
		<stop
   offset="0"
   id="stop11"
   style="stop-color:#545454" />
		<stop
   offset="0.3319"
   id="stop13"
   style="stop-color:#505050" />
		<stop
   offset="0.8192"
   id="stop15"
   style="stop-color:#474747" />
		<stop
   offset="1"
   id="stop17"
   style="stop-color:#424242" />
	</linearGradient>
	
	<linearGradient
   id="XMLID_10_"
   x1="98.1133"
   y1="117.6191"
   x2="74.4431"
   gradientUnits="userSpaceOnUse"
   y2="-4.7358">
		<stop
   offset="0"
   id="stop22"
   style="stop-color:#696969" />
		<stop
   offset="0.5072"
   id="stop24"
   style="stop-color:#585858" />
		<stop
   offset="1"
   id="stop26"
   style="stop-color:#464646" />
	</linearGradient>
	
	
	<linearGradient
   id="XMLID_11_"
   x1="78.252"
   y1="10.0327"
   x2="105.918"
   gradientUnits="userSpaceOnUse"
   y2="49.3657">
		<stop
   offset="0"
   id="stop33"
   style="stop-color:#9a9a9a" />
		<stop
   offset="1"
   id="stop35"
   style="stop-color:#848484" />
	</linearGradient>
	
	<linearGradient
   id="XMLID_12_"
   x1="-6.25"
   y1="26.9766"
   x2="116.7498"
   gradientUnits="userSpaceOnUse"
   y2="26.9766">
		<stop
   offset="0"
   id="stop40"
   style="stop-color:#a2a2a2" />
		<stop
   offset="0.4719"
   id="stop42"
   style="stop-color:#dedede" />
		<stop
   offset="0.8119"
   id="stop44"
   style="stop-color:#b9b9b9" />
		<stop
   offset="1"
   id="stop46"
   style="stop-color:#a9a9a9" />
	</linearGradient>
	
	
	<linearGradient
   id="XMLID_13_"
   x1="33.1445"
   y1="0.1035"
   x2="46.1445"
   gradientUnits="userSpaceOnUse"
   y2="114.1035">
		<stop
   offset="0"
   id="stop53"
   style="stop-color:#545454" />
		<stop
   offset="0.3319"
   id="stop55"
   style="stop-color:#505050" />
		<stop
   offset="0.8192"
   id="stop57"
   style="stop-color:#474747" />
		<stop
   offset="1"
   id="stop59"
   style="stop-color:#424242" />
	</linearGradient>
	<g
   transform="matrix(0.8149249,0,0,0.8149249,12.029882,11.659732)"
   id="g2416"
   style="fill:#f0f0f0"><path
     style="fill:#f0f0f0"
     d="M 76,0.34375 C 68.135481,0.1956399 61.489676,7.7790693 62.34375,15.534924 C 62.396901,26.878677 41.392612,32.274579 41.583514,43.613583 C 37.627025,79.27515 52.481342,70.352681 52.4375,105.55821 C 52.525766,111.3838 52.249081,117.22834 52.598908,123.04051 C 53.619622,130.12729 60.734312,135.4968 67.831981,134.63401 C 92.422119,134.26011 115.86753,119.0339 126.61179,96.980682 C 136.99534,76.611532 135.75254,51.007122 123.56426,31.683886 C 122.152,28.152039 116.21836,24.941616 121.12565,21.938092 C 126.56141,14.878078 122.77874,3.1819511 114.05587,0.91776138 C 109.20766,-0.14150212 104.18655,0.53586464 99.255532,0.34375 C 91.503688,0.34375 83.751844,0.34375 76,0.34375 z"
     id="path2422"
     sodipodi:nodetypes="cccccccccccc" /><path
     sodipodi:type="inkscape:offset"
     inkscape:radius="14.736108"
     inkscape:original="M 63.90625 4 C 33.579249 4 9 28.673 9 59 C 9 75.275 16.516 91.0245 29.125 101.4375 C 27.832001 102.7305 19.28125 111.28125 19.28125 111.28125 C 19.090251 111.47225 19 111.74 19 112 C 19 112.129 19.0115 112.251 19.0625 112.375 C 19.2165 112.748 19.596 113 20 113 L 54 113 C 54.553 113 55 112.553 55 112 L 55 78 C 55 77.596 54.748 77.2165 54.375 77.0625 C 54.001001 76.908504 53.56725 76.99625 53.28125 77.28125 C 53.281251 77.281251 44.487 86.10675 43.375 87.21875 C 34.371999 80.604748 29 70.129 29 59 C 29 39.701 44.60725 24 63.90625 24 C 64.459249 24 64.90625 23.552 64.90625 23 L 64.90625 5 C 64.906249 4.448 64.45925 4 63.90625 4 z "
     style="fill:#f0f0f0"
     id="path2424"
     d="M 63.90625,-10.75 C 25.586724,-10.75 -5.75,20.710844 -5.75,59 C -5.75,74.379417 -0.53558778,89.168396 8.625,101.1875 C 5.431191,104.54172 4.25,108.43657 4.25,112 C 4.25,113.00479 4.3895691,115.42084 5.4375,117.96875 C 5.437489,117.97917 5.437489,117.98958 5.4375,118 C 7.9569481,124.1023 13.468114,127.75 20,127.75 L 54,127.75 C 62.493977,127.75 69.75,120.49398 69.75,112 L 69.75,78 C 69.75,71.468114 66.1023,65.956948 60,63.4375 C 54.896169,61.335972 49.262968,62.217894 44.90625,65.34375 C 44.219348,63.306414 43.75,61.184934 43.75,59 C 43.75,47.645803 52.599776,38.75 63.90625,38.75 C 72.418005,38.75 79.65625,31.50738 79.65625,23 L 79.65625,5 C 79.656235,-3.5073303 72.417992,-10.75 63.90625,-10.75 z" /></g><g
   id="g5018"
   transform="matrix(0.8149249,0,0,0.8149249,12.029882,11.659732)"><path
     style="fill:#373b41"
     id="path19"
     d="M 76,13 C 75.447,13 75,13.448 75,14 L 75,48 C 75,48.404 75.244,48.769 75.617,48.924 C 75.991,49.079 76.421,48.993 76.707,48.707 C 76.707,48.707 85.507,39.907 86.619,38.795 C 95.622,45.409 101,55.872 101,67 C 101,86.299 85.398,102 66.099,102 C 65.546,102 65.099,102.447 65.099,103 L 65.099,121 C 65.099,121.553 65.546,122 66.099,122 C 96.426,122 121,97.327 121,67 C 121,50.725 113.469,34.967 100.86,24.554 C 102.153,23.261 110.707,14.707 110.707,14.707 C 110.898,14.516 111,14.26 111,14 C 111,13.871 110.975,13.741 110.924,13.617 C 110.77,13.244 110.404,13 110,13 L 76,13 z " /><path
     style="fill:#373b41"
     id="path61"
     d="M 54,113 C 54.553,113 55,112.553 55,112 L 55,78 C 55,77.596 54.756,77.23 54.383,77.076 C 54.009,76.922 53.579,77.008 53.293,77.293 C 53.293,77.293 44.493,86.093 43.381,87.205 C 34.378,80.591 29,70.129 29,59 C 29,39.701 44.602,24 63.901,24 C 64.454,24 64.901,23.552 64.901,23 L 64.901,5 C 64.901,4.448 64.454,4 63.901,4 C 33.574,4 9,28.673 9,59 C 9,75.275 16.531,91.033 29.14,101.446 C 27.847,102.739 19.293,111.293 19.293,111.293 C 19.102,111.484 19,111.74 19,112 C 19,112.129 19.025,112.259 19.076,112.383 C 19.23,112.756 19.596,113 20,113 L 54,113 z " /></g>
	<linearGradient
   id="XMLID_14_"
   x1="36.9512"
   y1="114"
   x2="36.9512"
   gradientUnits="userSpaceOnUse"
   y2="6.7496">
		<stop
   offset="0"
   id="stop64"
   style="stop-color:#696969" />
		<stop
   offset="0.5072"
   id="stop66"
   style="stop-color:#585858" />
		<stop
   offset="1"
   id="stop68"
   style="stop-color:#464646" />
	</linearGradient>
	
	
	<linearGradient
   id="XMLID_15_"
   x1="53.4395"
   y1="2.8052"
   x2="12.9391"
   gradientUnits="userSpaceOnUse"
   y2="80.3058">
		<stop
   offset="0"
   id="stop75"
   style="stop-color:#9a9a9a" />
		<stop
   offset="1"
   id="stop77"
   style="stop-color:#848484" />
	</linearGradient>
	
	<linearGradient
   id="XMLID_16_"
   x1="81.5479"
   y1="-17.3154"
   x2="-3.4521"
   gradientUnits="userSpaceOnUse"
   y2="59.4346">
		<stop
   offset="0"
   id="stop82"
   style="stop-color:#dedede" />
		<stop
   offset="0.6438"
   id="stop84"
   style="stop-color:#b9b9b9" />
		<stop
   offset="1"
   id="stop86"
   style="stop-color:#a9a9a9" />
	</linearGradient>
	
</svg>