<?xml version="1.0" encoding="UTF-8" standalone="no"?>
<!-- Created with Inkscape (http://www.inkscape.org/) -->
<svg
   xmlns:dc="http://purl.org/dc/elements/1.1/"
   xmlns:cc="http://creativecommons.org/ns#"
   xmlns:rdf="http://www.w3.org/1999/02/22-rdf-syntax-ns#"
   xmlns:svg="http://www.w3.org/2000/svg"
   xmlns="http://www.w3.org/2000/svg"
   xmlns:sodipodi="http://sodipodi.sourceforge.net/DTD/sodipodi-0.dtd"
   xmlns:inkscape="http://www.inkscape.org/namespaces/inkscape"
   width="128"
   height="128"
   id="svg2"
   sodipodi:version="0.32"
   inkscape:version="0.46"
   version="1.0"
   sodipodi:docbase="/home/christof/themes_and_icons/meinICONtheme/BRIT ICONS/scalable/categories"
   sodipodi:docname="applications-games.svg"
   inkscape:output_extension="org.inkscape.output.svg.inkscape">
  <defs
     id="defs4">
    <inkscape:perspective
       sodipodi:type="inkscape:persp3d"
       inkscape:vp_x="0 : 64 : 1"
       inkscape:vp_y="0 : 1000 : 0"
       inkscape:vp_z="128 : 64 : 1"
       inkscape:persp3d-origin="64 : 42.666667 : 1"
       id="perspective12" />
  </defs>
  <sodipodi:namedview
     id="base"
     pagecolor="#f0f0f0"
     bordercolor="#373b41"
     borderopacity="1"
     inkscape:pageopacity="0.0"
     inkscape:pageshadow="2"
     inkscape:zoom="1.979899"
     inkscape:cx="134.24838"
     inkscape:cy="34.851403"
     inkscape:document-units="px"
     inkscape:current-layer="layer1"
     width="128px"
     height="128px"
     showgrid="false"
     inkscape:window-width="1680"
     inkscape:window-height="1000"
     inkscape:window-x="0"
     inkscape:window-y="25"
     showguides="true"
     inkscape:guide-bbox="true" />
  <metadata
     id="metadata7">
    <rdf:RDF>
      <cc:Work
         rdf:about="">
        <dc:format>image/svg+xml</dc:format>
        <dc:type
           rdf:resource="http://purl.org/dc/dcmitype/StillImage" />
      </cc:Work>
    </rdf:RDF>
  </metadata>
  <g
     inkscape:label="Ebene 1"
     inkscape:groupmode="layer"
     id="layer1">
    <g
       transform="matrix(0.9000458,0,0,0.9000458,6.3981172,5.8959728)"
       id="g2385"
       style="fill:#f0f0f0">
      <path
         sodipodi:type="inkscape:offset"
         inkscape:radius="10.442686"
         inkscape:original="M 21.5625 -17.0625 L 14.75 28 L -30.78125 35.28125 L 9.96875 55.71875 L 2.84375 101.25 L 34.84375 68.8125 L 75.96875 89.65625 L 55 49.21875 L 87.53125 16.5625 L 42.59375 23.96875 L 21.5625 -17.0625 z "
         style="opacity:1;fill:#f0f0f0;fill-opacity:1;fill-rule:nonzero;stroke:none;stroke-width:7.80000019000000044;stroke-linejoin:miter;stroke-miterlimit:4;stroke-dasharray:none;stroke-opacity:1"
         id="path2393"
         d="M 21.53125,-27.5 C 16.385808,-27.47832 12.022847,-23.712116 11.25,-18.625 L 5.59375,18.875 L -32.4375,24.96875 C -36.91989,25.680612 -40.429416,29.205932 -41.121145,33.691473 C -41.812874,38.177014 -39.528438,42.595838 -35.46875,44.625 L -1.53125,61.65625 L -7.46875,99.625 C -8.1788734,104.10681 -5.913688,108.53433 -1.8636198,110.58075 C 2.1864483,112.62718 7.0945203,111.82418 10.28125,108.59375 L 36.9375,81.5625 L 71.25,98.96875 C 75.295296,101.02508 80.205555,100.23379 83.400072,97.010746 C 86.594589,93.787707 87.342208,88.870608 85.25,84.84375 L 67.78125,51.1875 L 94.9375,23.9375 C 98.146459,20.728231 98.915497,15.813885 96.840364,11.777718 C 94.765232,7.7415503 90.320978,5.5075368 85.84375,6.25 L 48.40625,12.4375 L 30.84375,-21.8125 C 29.05556,-25.308199 25.457763,-27.505511 21.53125,-27.5 z"
         transform="matrix(0.9873947,0.1582773,-0.1582773,0.9873947,40.076371,20.430565)" />
      <path
         sodipodi:type="star"
         style="opacity:1;fill:#f0f0f0;fill-opacity:1;fill-rule:nonzero;stroke:none;stroke-width:7.80000019000000044;stroke-linejoin:miter;stroke-miterlimit:4;stroke-dasharray:none;stroke-opacity:1"
         id="path2389"
         sodipodi:sides="5"
         sodipodi:cx="31.428572"
         sodipodi:cy="45.142857"
         sodipodi:r1="62.972702"
         sodipodi:r2="23.929626"
         sodipodi:arg1="0.78539816"
         sodipodi:arg2="1.4276547"
         inkscape:flatsided="false"
         inkscape:rounded="0"
         inkscape:randomized="0"
         d="M 75.956996,89.671281 L 34.842212,68.827748 L 2.8395634,101.25195 L 9.9577743,55.708456 L -30.768832,35.291756 L 14.745249,27.987864 L 21.577471,-17.054547 L 42.588508,23.974889 L 87.53766,16.553848 L 55.009115,49.215326 L 75.956996,89.671281 z"
         transform="matrix(0.6576613,0.1054217,-0.1054217,0.6576613,48.065495,36.408838)" />
      <path
         sodipodi:type="star"
         style="opacity:1;fill:#f0f0f0;fill-opacity:1;fill-rule:nonzero;stroke:none;stroke-width:7.80000019000000044;stroke-linejoin:miter;stroke-miterlimit:4;stroke-dasharray:none;stroke-opacity:1"
         id="path2391"
         sodipodi:sides="5"
         sodipodi:cx="31.428572"
         sodipodi:cy="45.142857"
         sodipodi:r1="62.972702"
         sodipodi:r2="23.929626"
         sodipodi:arg1="0.78539816"
         sodipodi:arg2="1.4276547"
         inkscape:flatsided="false"
         inkscape:rounded="0"
         inkscape:randomized="0"
         d="M 75.956996,89.671281 L 34.842212,68.827748 L 2.8395634,101.25195 L 9.9577743,55.708456 L -30.768832,35.291756 L 14.745249,27.987864 L 21.577471,-17.054547 L 42.588508,23.974889 L 87.53766,16.553848 L 55.009115,49.215326 L 75.956996,89.671281 z"
         transform="matrix(0.3506388,5.6206663e-2,-5.6206663e-2,0.3506388,55.861499,51.384974)" />
    </g>
    <g
       id="g3315"
       transform="matrix(0.9000458,0,0,0.9000458,6.3981172,5.8959728)">
      <path
         transform="matrix(0.9873947,0.1582773,-0.1582773,0.9873947,40.076371,20.430565)"
         d="M 75.956996,89.671281 L 34.842212,68.827748 L 2.8395634,101.25195 L 9.9577743,55.708456 L -30.768832,35.291756 L 14.745249,27.987864 L 21.577471,-17.054547 L 42.588508,23.974889 L 87.53766,16.553848 L 55.009115,49.215326 L 75.956996,89.671281 z"
         inkscape:randomized="0"
         inkscape:rounded="0"
         inkscape:flatsided="false"
         sodipodi:arg2="1.4276547"
         sodipodi:arg1="0.78539816"
         sodipodi:r2="23.929626"
         sodipodi:r1="62.972702"
         sodipodi:cy="45.142857"
         sodipodi:cx="31.428572"
         sodipodi:sides="5"
         id="path4920"
         style="opacity:1;fill:#373b41;fill-opacity:1;fill-rule:nonzero;stroke:none;stroke-width:7.80000019;stroke-linejoin:miter;stroke-miterlimit:4;stroke-dasharray:none;stroke-opacity:1"
         sodipodi:type="star" />
      <path
         transform="matrix(0.6576613,0.1054217,-0.1054217,0.6576613,48.065495,36.408838)"
         d="M 75.956996,89.671281 L 34.842212,68.827748 L 2.8395634,101.25195 L 9.9577743,55.708456 L -30.768832,35.291756 L 14.745249,27.987864 L 21.577471,-17.054547 L 42.588508,23.974889 L 87.53766,16.553848 L 55.009115,49.215326 L 75.956996,89.671281 z"
         inkscape:randomized="0"
         inkscape:rounded="0"
         inkscape:flatsided="false"
         sodipodi:arg2="1.4276547"
         sodipodi:arg1="0.78539816"
         sodipodi:r2="23.929626"
         sodipodi:r1="62.972702"
         sodipodi:cy="45.142857"
         sodipodi:cx="31.428572"
         sodipodi:sides="5"
         id="path4922"
         style="opacity:1;fill:#22ad93;fill-opacity:1;fill-rule:nonzero;stroke:none;stroke-width:7.80000019;stroke-linejoin:miter;stroke-miterlimit:4;stroke-dasharray:none;stroke-opacity:1"
         sodipodi:type="star" />
      <path
         transform="matrix(0.3506388,5.6206663e-2,-5.6206663e-2,0.3506388,55.861499,51.384974)"
         d="M 75.956996,89.671281 L 34.842212,68.827748 L 2.8395634,101.25195 L 9.9577743,55.708456 L -30.768832,35.291756 L 14.745249,27.987864 L 21.577471,-17.054547 L 42.588508,23.974889 L 87.53766,16.553848 L 55.009115,49.215326 L 75.956996,89.671281 z"
         inkscape:randomized="0"
         inkscape:rounded="0"
         inkscape:flatsided="false"
         sodipodi:arg2="1.4276547"
         sodipodi:arg1="0.78539816"
         sodipodi:r2="23.929626"
         sodipodi:r1="62.972702"
         sodipodi:cy="45.142857"
         sodipodi:cx="31.428572"
         sodipodi:sides="5"
         id="path4924"
         style="opacity:1;fill:#b294bb;fill-opacity:1;fill-rule:nonzero;stroke:none;stroke-width:7.80000019;stroke-linejoin:miter;stroke-miterlimit:4;stroke-dasharray:none;stroke-opacity:1"
         sodipodi:type="star" />
    </g>
  </g>
</svg>
