<?xml version="1.0" encoding="UTF-8" standalone="no"?>
<!-- Created with Inkscape (http://www.inkscape.org/) -->
<svg
   xmlns:dc="http://purl.org/dc/elements/1.1/"
   xmlns:cc="http://creativecommons.org/ns#"
   xmlns:rdf="http://www.w3.org/1999/02/22-rdf-syntax-ns#"
   xmlns:svg="http://www.w3.org/2000/svg"
   xmlns="http://www.w3.org/2000/svg"
   xmlns:sodipodi="http://sodipodi.sourceforge.net/DTD/sodipodi-0.dtd"
   xmlns:inkscape="http://www.inkscape.org/namespaces/inkscape"
   width="128"
   height="128"
   id="svg2"
   sodipodi:version="0.32"
   inkscape:version="0.46"
   version="1.0"
   sodipodi:docname="help-browser.svg"
   inkscape:output_extension="org.inkscape.output.svg.inkscape">
  <defs
     id="defs4">
    <inkscape:perspective
       sodipodi:type="inkscape:persp3d"
       inkscape:vp_x="0 : 526.18109 : 1"
       inkscape:vp_y="0 : 1000 : 0"
       inkscape:vp_z="744.09448 : 526.18109 : 1"
       inkscape:persp3d-origin="372.04724 : 350.78739 : 1"
       id="perspective10" />
    <linearGradient
       id="linearGradient3743">
      <stop
         id="stop3745"
         offset="0"
         style="stop-color:white;stop-opacity:1;" />
      <stop
         id="stop3747"
         offset="1"
         style="stop-color:white;stop-opacity:0.3392857;" />
    </linearGradient>
    <linearGradient
       id="linearGradient3839">
      <stop
         id="stop3841"
         offset="0"
         style="stop-color:#eeeeec;stop-opacity:1;" />
      <stop
         style="stop-color:#eeeeec;stop-opacity:1;"
         offset="0.5"
         id="stop2893" />
      <stop
         style="stop-color:white;stop-opacity:1;"
         offset="0.78313255"
         id="stop2891" />
      <stop
         id="stop3843"
         offset="1"
         style="stop-color:#d3d7cf;stop-opacity:1" />
    </linearGradient>
    <inkscape:perspective
       id="perspective2442"
       inkscape:persp3d-origin="24 : 16 : 1"
       inkscape:vp_z="48 : 24 : 1"
       inkscape:vp_y="0 : 1000 : 0"
       inkscape:vp_x="0 : 24 : 1"
       sodipodi:type="inkscape:persp3d" />
  </defs>
  <sodipodi:namedview
     id="base"
     pagecolor="#f0f0f0"
     bordercolor="#666666"
     borderopacity="1.0"
     inkscape:pageopacity="0.0"
     inkscape:pageshadow="2"
     inkscape:zoom="5.6"
     inkscape:cx="29.765731"
     inkscape:cy="60.491352"
     inkscape:document-units="px"
     inkscape:current-layer="layer1"
     showgrid="false"
     inkscape:window-width="1680"
     inkscape:window-height="1000"
     inkscape:window-x="0"
     inkscape:window-y="25" />
  <metadata
     id="metadata7">
    <rdf:RDF>
      <cc:Work
         rdf:about="">
        <dc:format>image/svg+xml</dc:format>
        <dc:type
           rdf:resource="http://purl.org/dc/dcmitype/StillImage" />
      </cc:Work>
    </rdf:RDF>
  </metadata>
  <g
     inkscape:label="Livello 1"
     inkscape:groupmode="layer"
     id="layer1">
    <path
       sodipodi:type="inkscape:offset"
       inkscape:radius="-2.7035253"
       inkscape:original="M 63.90625 -2.84375 C 39.576887 -3.0804292 17.286187 11.920396 7.1875 33.5625 C -4.5372183 57.335692 -0.38426097 86.78067 17.625 106.375 C 32.537886 123.40447 56.218098 131.06933 78.375 125.5 C 103.65605 119.68007 122.53319 97.922953 126.28125 72.6875 C 130.54975 47.900796 119.77422 22.059222 98.6875 7.9375 C 88.521434 0.95672941 76.467764 -2.8491842 64.0625 -2.84375 L 63.96875 -2.84375 L 63.90625 -2.84375 z "
       style="fill:#f0f0f0;fill-opacity:1;stroke:none;stroke-width:2.89226413000000004;stroke-linecap:round;stroke-linejoin:round;stroke-miterlimit:4;stroke-dasharray:none;stroke-dashoffset:1.20000057000000004;stroke-opacity:1"
       id="path3365"
       d="M 63.875,-0.125 C 40.672822,-0.3507138 19.281495,14.02429 9.625,34.71875 C 9.6250602,34.729167 9.6250602,34.739583 9.625,34.75 C -1.5959915,57.501829 2.3887629,85.777981 19.625,104.53125 C 19.635685,104.55195 19.646103,104.57278 19.65625,104.59375 C 33.899524,120.85857 56.572271,128.19035 77.71875,122.875 C 77.739583,122.87476 77.760417,122.87476 77.78125,122.875 C 101.91352,117.31953 120.00631,96.435247 123.59375,72.28125 C 123.6039,72.260283 123.61431,72.239448 123.625,72.21875 C 127.71102,48.491688 117.36104,23.697668 97.1875,10.1875 C 97.176998,10.177169 97.166581,10.166752 97.15625,10.15625 C 87.434246,3.4804052 75.914039,-0.13019164 64.0625,-0.125 L 63.96875,-0.125 L 63.90625,-0.125 C 63.895833,-0.1249398 63.885417,-0.1249398 63.875,-0.125 L 63.875,-0.125 z"
       transform="matrix(1.0212402,0,0,1.0212402,-1.3578138,0.6423828)" />
    <path
       sodipodi:type="inkscape:offset"
       inkscape:radius="2.7999666"
       inkscape:original="M 63.9375 3.78125 C 32.792396 3.7812498 7.53125 29.988993 7.53125 62.1875 C 7.5312501 94.386012 32.792395 120.59375 63.9375 120.59375 C 95.082603 120.59375 120.3125 94.38601 120.3125 62.1875 C 120.3125 29.988994 95.082603 3.78125 63.9375 3.78125 z M 63.9375 6.6875 C 93.460461 6.6875 117.4375 31.49867 117.4375 62.1875 C 117.4375 92.876336 93.460463 117.71875 63.9375 117.71875 C 34.414535 117.71875 10.40625 92.876338 10.40625 62.1875 C 10.40625 31.498667 34.414537 6.6874998 63.9375 6.6875 z M 63.9375 33.78125 C 48.757684 33.78125 36.437501 46.538318 36.4375 62.1875 C 36.4375 77.836684 48.757685 90.625003 63.9375 90.625 C 79.117316 90.625 91.406248 77.836686 91.40625 62.1875 C 91.40625 46.538316 79.117317 33.781246 63.9375 33.78125 z M 63.9375 36.65625 C 77.495171 36.656247 88.5 48.047994 88.5 62.1875 C 88.499998 76.327008 77.49517 87.75 63.9375 87.75 C 50.379831 87.750003 39.34375 76.327006 39.34375 62.1875 C 39.343751 48.047996 50.37983 36.65625 63.9375 36.65625 z "
       style="fill:#373b41;fill-opacity:1;stroke:none;stroke-width:2.89226413;stroke-linecap:round;stroke-linejoin:round;stroke-miterlimit:4;stroke-dasharray:none;stroke-dashoffset:1.20000057;stroke-opacity:1"
       id="path3325"
       d="M 63.9375,0.96875 C 31.221666,0.96874979 4.71875,28.524528 4.71875,62.1875 C 4.7187501,95.850476 31.221666,123.40625 63.9375,123.40625 C 96.653332,123.40625 123.125,95.848663 123.125,62.1875 C 123.125,28.526341 96.653333,0.96875 63.9375,0.96875 z M 63.9375,9.5 C 91.891728,9.5 114.625,32.957071 114.625,62.1875 C 114.625,91.417936 91.889755,114.90625 63.9375,114.90625 C 35.985243,114.90625 13.21875,91.416037 13.21875,62.1875 C 13.21875,32.958968 35.983269,9.4999998 63.9375,9.5 z M 63.9375,30.96875 C 47.188962,30.96875 33.625001,45.068759 33.625,62.1875 C 33.625,79.306243 47.18512,93.437503 63.9375,93.4375 C 80.68988,93.4375 94.218748,79.302517 94.21875,62.1875 C 94.21875,45.072484 80.686039,30.968746 63.9375,30.96875 z M 63.9375,39.46875 C 75.926735,39.468747 85.6875,49.50081 85.6875,62.1875 C 85.687498,74.874192 75.922432,84.9375 63.9375,84.9375 C 51.95257,84.937503 42.15625,74.870064 42.15625,62.1875 C 42.156251,49.504938 51.948266,39.46875 63.9375,39.46875 z"
       transform="matrix(0.9288944,0,0,0.9288944,4.5451024,6.3851367)" />
    <path
       sodipodi:nodetypes="cccccccccccccc"
       id="path3336"
       d="M 63.933104,12.446951 C 46.099851,12.24628 28.997193,22.895316 20.545319,38.468651 C 10.548795,56.061293 12.001427,79.370723 24.217007,95.523757 C 34.169236,109.26099 51.462469,117.39821 68.415952,115.64304 C 86.989575,114.1161 103.60445,100.91203 110.22743,83.63809 C 117.64692,65.318731 113.67679,42.973846 100.12448,28.525957 C 90.964775,18.459168 77.582085,12.357698 63.933104,12.446951 z M 63.933104,19.651834 C 79.754743,19.45684 94.858384,29.271096 101.81153,43.36379 C 110.34067,59.800123 107.6159,81.34971 94.907002,94.903202 C 84.827311,106.17303 68.416017,111.2852 53.758897,107.40812 C 37.27504,103.39472 24.423645,88.68527 21.770282,72.053933 C 18.764587,55.606125 25.534003,37.67821 39.158303,27.830495 C 46.270339,22.558251 55.073609,19.620633 63.933104,19.651834 z"
       style="fill:#f0f0f0;fill-opacity:1;stroke:none;stroke-width:2.89226413;stroke-linecap:round;stroke-linejoin:round;stroke-miterlimit:4;stroke-dasharray:none;stroke-dashoffset:1.20000057;stroke-opacity:1" />
    <path
       sodipodi:type="inkscape:offset"
       inkscape:radius="-1.4089541"
       inkscape:original="M 63.9375 5.25 C 33.603466 5.2499998 8.96875 30.74383 8.96875 62.1875 C 8.9687501 93.631175 33.603465 119.15625 63.9375 119.15625 C 94.271533 119.15625 118.875 93.631173 118.875 62.1875 C 118.875 30.743832 94.271532 5.25 63.9375 5.25 z M 63.9375 35.21875 C 78.306244 35.218747 89.96875 47.293155 89.96875 62.1875 C 89.968748 77.081847 78.306243 89.1875 63.9375 89.1875 C 49.568758 89.187503 37.90625 77.081845 37.90625 62.1875 C 37.906251 47.293157 49.568757 35.21875 63.9375 35.21875 z "
       style="fill:#373b41;fill-opacity:1;stroke:none;stroke-width:2.89226413000000004;stroke-linecap:round;stroke-linejoin:round;stroke-miterlimit:4;stroke-dasharray:none;stroke-dashoffset:1.20000057000000004;stroke-opacity:1"
       id="path3327"
       d="M 63.9375,6.65625 C 34.39289,6.6562498 10.375,31.479732 10.375,62.1875 C 10.375,92.895273 34.393857,117.75 63.9375,117.75 C 93.481141,117.75 117.46875,92.896205 117.46875,62.1875 C 117.46875,31.4788 93.482108,6.65625 63.9375,6.65625 z M 63.9375,33.8125 C 79.095563,33.812497 91.375,46.557666 91.375,62.1875 C 91.374998,77.817336 79.097605,90.59375 63.9375,90.59375 C 48.777396,90.593753 36.5,77.817334 36.5,62.1875 C 36.500001,46.557668 48.779438,33.8125 63.9375,33.8125 z"
       transform="matrix(0.9000161,0,0,0.9000161,6.3910527,8.1809978)" />
    <path
       sodipodi:type="inkscape:offset"
       inkscape:radius="-1.4652729"
       inkscape:original="M 41.8125 9.9375 C 29.206934 15.693845 19.053216 26.183328 13.5 39.25 C 25.092946 39.112888 32.642339 45.065437 40 51.28125 C 42.629091 45.113683 47.456326 40.100265 53.40625 37.375 C 51.313494 26.955487 47.684667 17.657436 41.8125 9.9375 z "
       style="fill:#22ad93;fill-opacity:1;fill-rule:evenodd;stroke:none;stroke-width:1px;stroke-linecap:butt;stroke-linejoin:miter;stroke-opacity:1"
       id="path3309"
       d="M 41.34375,11.875 C 30.230767,17.264681 21.26659,26.477837 15.875,37.90625 C 25.931044,38.524014 33.061292,43.617665 39.5625,49.03125 C 42.264687,43.708386 46.498649,39.34455 51.71875,36.65625 C 49.725265,27.268006 46.427578,18.918152 41.34375,11.875 z"
       transform="matrix(0.9000161,0,0,0.9000161,6.3910527,8.1809978)" />
    <path
       sodipodi:type="inkscape:offset"
       inkscape:radius="-1.3678976"
       inkscape:original="M 40 73.09375 C 31.172539 75.348838 22.327461 75.943332 13.5 85.125 C 19.053216 98.191676 29.206935 108.71241 41.8125 114.46875 C 43.386635 103.7881 46.386446 94.081461 53.40625 87.03125 C 47.456327 84.305985 42.629092 79.261319 40 73.09375 z "
       style="fill:#22ad93;fill-opacity:1;stroke:none;stroke-width:1;stroke-linecap:round;stroke-linejoin:miter;stroke-miterlimit:4;stroke-dasharray:none;stroke-dashoffset:1.20000057;stroke-opacity:1"
       id="path3311"
       d="M 39.3125,74.65625 C 30.970782,76.681716 23.143359,77.543524 15.1875,85.40625 C 20.437421,97.213695 29.569784,106.72816 40.84375,112.34375 C 42.417861,102.8884 45.320933,94.161669 51.375,87.40625 C 46.149308,84.59286 41.908767,80.116236 39.3125,74.65625 z"
       transform="matrix(0.9000161,0,0,0.9000161,6.3910527,8.1809978)" />
    <path
       sodipodi:type="inkscape:offset"
       inkscape:radius="-1.4403925"
       inkscape:original="M 86.0625 9.9375 C 80.4068 17.30173 75.57417 25.491737 74.4375 37.375 C 80.387425 40.100266 85.245904 45.113682 87.875 51.28125 C 97.102403 43.670628 106.02593 38.674316 114.34375 39.25 C 108.79053 26.183329 98.668065 15.693845 86.0625 9.9375 z "
       style="fill:#22ad93;fill-opacity:1;fill-rule:evenodd;stroke:none;stroke-width:1px;stroke-linecap:butt;stroke-linejoin:miter;stroke-opacity:1"
       id="path3307"
       d="M 86.5,11.84375 C 81.402897,18.646855 77.229208,26.106103 76.03125,36.65625 C 81.308957,39.355279 85.631054,43.737802 88.34375,49.125 C 96.356591,42.717956 104.23379,38.212083 111.96875,37.84375 C 106.56982,26.42745 97.608158,17.224765 86.5,11.84375 z"
       transform="matrix(0.9000161,0,0,0.9000161,6.3910527,8.1809978)" />
    <path
       sodipodi:type="inkscape:offset"
       inkscape:radius="-1.3678976"
       inkscape:original="M 87.875 73.09375 C 85.245904 79.261321 80.387424 84.305982 74.4375 87.03125 C 80.30407 94.18462 83.838357 103.67296 86.0625 114.46875 C 98.668069 108.71241 108.79053 98.191673 114.34375 85.125 C 108.06464 78.055871 98.702049 74.70536 87.875 73.09375 z "
       style="fill:#22ad93;fill-opacity:1;fill-rule:evenodd;stroke:none;stroke-width:1px;stroke-linecap:butt;stroke-linejoin:miter;stroke-opacity:1"
       id="path3313"
       d="M 88.59375,74.625 C 85.982806,80.130882 81.681348,84.652798 76.40625,87.46875 C 81.557336,94.264687 84.832505,102.80432 86.96875,112.375 C 98.256174,106.77035 107.36327,97.250421 112.625,85.4375 C 106.84007,79.356486 98.490801,76.2071 88.59375,74.625 z"
       transform="matrix(0.9000161,0,0,0.9000161,6.3910527,8.1809978)" />
  </g>
</svg>
