<?xml version="1.0" encoding="UTF-8" standalone="no"?>
<!-- Created with Inkscape (http://www.inkscape.org/) -->
<svg
   xmlns:dc="http://purl.org/dc/elements/1.1/"
   xmlns:cc="http://creativecommons.org/ns#"
   xmlns:rdf="http://www.w3.org/1999/02/22-rdf-syntax-ns#"
   xmlns:svg="http://www.w3.org/2000/svg"
   xmlns="http://www.w3.org/2000/svg"
   xmlns:xlink="http://www.w3.org/1999/xlink"
   xmlns:sodipodi="http://sodipodi.sourceforge.net/DTD/sodipodi-0.dtd"
   xmlns:inkscape="http://www.inkscape.org/namespaces/inkscape"
   width="48"
   height="48"
   id="svg2"
   sodipodi:version="0.32"
   inkscape:version="0.46"
   version="1.0"
   sodipodi:docbase="/home/qwerty/.icons/qw3rtY_new/scalable/actions"
   sodipodi:docname="serviceconf.svg"
   inkscape:output_extension="org.inkscape.output.svg.inkscape"
   sodipodi:modified="true">
  <defs
     id="defs4">
    <inkscape:perspective
       sodipodi:type="inkscape:persp3d"
       inkscape:vp_x="0 : 24 : 1"
       inkscape:vp_y="0 : 1000 : 0"
       inkscape:vp_z="48 : 24 : 1"
       inkscape:persp3d-origin="24 : 16 : 1"
       id="perspective17" />
    <linearGradient
       inkscape:collect="always"
       id="linearGradient3198">
      <stop
         style="stop-color:black;stop-opacity:1;"
         offset="0"
         id="stop3200" />
      <stop
         style="stop-color:black;stop-opacity:0;"
         offset="1"
         id="stop3202" />
    </linearGradient>
    <radialGradient
       inkscape:collect="always"
       xlink:href="#linearGradient3198"
       id="radialGradient3204"
       cx="15.3125"
       cy="34.65625"
       fx="15.3125"
       fy="34.65625"
       r="9.5"
       gradientTransform="matrix(1,0,0,1.003289,0,-0.114001)"
       gradientUnits="userSpaceOnUse" />
    <radialGradient
       inkscape:collect="always"
       xlink:href="#linearGradient3198"
       id="radialGradient3208"
       gradientUnits="userSpaceOnUse"
       gradientTransform="matrix(1,0,0,1.003289,0,-0.114001)"
       cx="15.3125"
       cy="34.65625"
       fx="15.3125"
       fy="34.65625"
       r="9.5" />
  </defs>
  <sodipodi:namedview
     id="base"
     pagecolor="#f0f0f0"
     bordercolor="#666666"
     borderopacity="1.0"
     inkscape:pageopacity="0.0"
     inkscape:pageshadow="2"
     inkscape:zoom="8"
     inkscape:cx="37.732637"
     inkscape:cy="30.745469"
     inkscape:document-units="px"
     inkscape:current-layer="layer1"
     showgrid="false"
     inkscape:window-width="1680"
     inkscape:window-height="1001"
     inkscape:window-x="0"
     inkscape:window-y="24"
     inkscape:showpageshadow="false"
     width="48px"
     height="48px"
     gridtolerance="10000"
     inkscape:grid-points="false"
     inkscape:grid-bbox="true"
     showborder="true"
     borderlayer="true"
     inkscape:guide-bbox="false"
     inkscape:object-paths="false"
     objecttolerance="10000"
     guidetolerance="10000">
    <inkscape:grid
       id="GridFromPre046Settings"
       type="xygrid"
       originx="0px"
       originy="0px"
       spacingx="0.5px"
       spacingy="0.5px"
       color="#0000ff"
       empcolor="#0000ff"
       opacity="0.2"
       empopacity="0.4"
       empspacing="2" />
  </sodipodi:namedview>
  <metadata
     id="metadata7">
    <rdf:RDF>
      <cc:Work
         rdf:about="">
        <dc:format>image/svg+xml</dc:format>
        <dc:type
           rdf:resource="http://purl.org/dc/dcmitype/StillImage" />
        <dc:creator>
          <cc:Agent>
            <dc:title>Lapo Calamandrei</dc:title>
          </cc:Agent>
        </dc:creator>
        <dc:title>System Run</dc:title>
        <cc:license
           rdf:resource="http://creativecommons.org/licenses/GPL/2.0/" />
        <dc:subject>
          <rdf:Bag>
            <rdf:li>run</rdf:li>
            <rdf:li>launch</rdf:li>
            <rdf:li>exec</rdf:li>
          </rdf:Bag>
        </dc:subject>
      </cc:Work>
      <cc:License
         rdf:about="http://creativecommons.org/licenses/GPL/2.0/">
        <cc:permits
           rdf:resource="http://web.resource.org/cc/Reproduction" />
        <cc:permits
           rdf:resource="http://web.resource.org/cc/Distribution" />
        <cc:requires
           rdf:resource="http://web.resource.org/cc/Notice" />
        <cc:permits
           rdf:resource="http://web.resource.org/cc/DerivativeWorks" />
        <cc:requires
           rdf:resource="http://web.resource.org/cc/ShareAlike" />
        <cc:requires
           rdf:resource="http://web.resource.org/cc/SourceCode" />
      </cc:License>
    </rdf:RDF>
  </metadata>
  <g
     inkscape:label="Livello 1"
     inkscape:groupmode="layer"
     id="layer1">
    <g
       transform="matrix(0.8784604,0.2353827,-0.2353827,0.8784604,-6.5803472,-3.6110755)"
       id="g2390"
       style="fill:#f0f0f0">
      <path
         style="fill:#f0f0f0;fill-opacity:1;stroke:none;stroke-width:1.99999963999999997;stroke-linecap:square;stroke-linejoin:miter;stroke-miterlimit:4;stroke-dasharray:none;stroke-opacity:1"
         d="M 30.78125,-3.53125 C 29.037268,-3.5376826 27.017422,-3.2728478 26.003313,-1.6568784 C 25.460415,-0.3450952 23.48609,-1.9145362 22.362308,-0.86230025 C 20.510688,0.22356303 18.817983,1.8140737 17.962891,3.8105495 C 17.249445,5.142287 18.796025,6.8089282 16.956041,7.3167332 C 15.22211,8.8217061 15.444568,11.346519 15.531205,13.416875 C 15.541658,15.069821 16.456432,16.741524 18.03125,17.375 C 17.20929,19.227668 18.190223,21.244856 19.525838,22.564582 C 20.926724,24.108838 22.926392,25.78283 25.165295,25.09578 C 26.163773,24.997784 26.622653,27.111864 28.01415,27.188363 C 29.95153,27.665623 32.043704,27.660457 33.982501,27.192446 C 35.690611,27.03799 35.853555,24.337912 37.545693,25.247956 C 39.905226,25.430069 41.698278,23.476973 43.086585,21.829223 C 44.146245,20.638384 44.592224,18.869537 43.9375,17.375 C 45.749814,16.684285 46.561746,14.690175 46.508426,12.863435 C 46.58175,10.810087 46.604061,8.2604598 44.656878,7.0033126 C 43.355115,6.4422342 44.900131,4.4223101 43.799976,3.2971573 C 42.677836,1.4245357 41.060782,-0.36086419 38.960265,-1.105841 C 37.660463,-1.6440813 36.169603,-0.27445591 35.683267,-2.0439592 C 34.489034,-3.4965914 32.500534,-3.5220166 30.78125,-3.53125 z"
         id="path2394"
         sodipodi:nodetypes="cccccccccccccccccccc" />
    </g>
    <g
       transform="matrix(0.8784604,0.2353827,-0.2353827,0.8784604,8.6529221,10.485383)"
       id="g2396"
       style="fill:#f0f0f0">
      <path
         style="fill:#f0f0f0;fill-opacity:1;stroke:none;stroke-width:1.99999963999999997;stroke-linecap:square;stroke-linejoin:miter;stroke-miterlimit:4;stroke-dasharray:none;stroke-opacity:1"
         d="M 31,-3.65625 C 29.266968,-3.5783657 27.250578,-3.5154868 26.11255,-1.9781208 C 25.50738,-0.33809994 23.360312,-2.060571 22.114258,-0.84126798 C 20.304167,0.33514577 18.55067,1.9220723 17.798567,3.9950847 C 17.260216,5.2761407 18.533991,6.760773 16.826903,7.2813521 C 15.154075,8.8327776 15.297025,11.353001 15.427289,13.437948 C 15.461768,15.090901 16.344276,16.763958 17.90625,17.4375 C 17.140005,19.301074 18.114846,21.299851 19.451985,22.617536 C 20.865113,24.165967 22.842865,25.853572 25.102678,25.235465 C 26.145182,25.247025 26.746141,27.345973 28.235979,27.362563 C 30.285876,27.751362 32.516918,27.855497 34.489867,27.088659 C 35.936673,26.561283 36.121738,24.494084 37.837973,25.354847 C 40.119163,25.354872 41.809758,23.475311 43.17349,21.868493 C 44.224121,20.682195 44.690556,18.943603 44.09375,17.4375 C 45.883444,16.687809 46.631363,14.696148 46.623704,12.874891 C 46.704895,10.805706 46.682281,8.2563639 44.772245,6.9556559 C 43.489937,6.36185 44.976933,4.3621487 43.892878,3.2346064 C 42.760338,1.3435432 41.108971,-0.42533473 39.004915,-1.2014326 C 37.723859,-1.7397835 36.239227,-0.46600922 35.718648,-2.1730968 C 34.541166,-3.5338169 32.662565,-3.6080165 31,-3.65625 z"
         id="path2400"
         sodipodi:nodetypes="cccccccccccccccccccc" />
    </g>
    <path
       style="fill:#f0f0f0;fill-opacity:1;stroke:none;stroke-width:2;stroke-linecap:round;stroke-linejoin:miter;stroke-miterlimit:4;stroke-dasharray:none;stroke-opacity:1"
       d="M 14.843196,22.383931 C 12.550369,22.557327 10.150481,23.098695 8.3426968,24.598539 C 7.2422612,25.54686 7.3109982,27.196082 5.6922857,27.443953 C 3.9885489,28.563188 3.2728611,30.64336 2.8233454,32.539282 C 2.3969222,34.39157 2.3726306,36.587469 3.837979,38.010966 C 3.8732032,39.346308 3.6983644,41.179589 4.8150027,42.38131 C 5.9221446,43.988827 7.4178032,45.374638 9.163044,46.260872 C 10.634411,47.084733 12.335511,45.885522 13.44554,47.338806 C 15.051932,48.275821 16.962537,47.82747 18.663573,47.463172 C 20.613454,46.916713 22.809403,45.979285 23.486669,43.885061 C 24.181507,42.864142 26.111353,42.601838 26.580771,41.084475 C 27.661411,39.143331 28.246881,36.864185 28.019251,34.64396 C 27.871806,33.079722 26.174177,32.269042 26.827853,30.655254 C 26.723162,28.46439 25.105158,26.758668 23.536141,25.38637 C 22.212432,24.202478 20.419475,23.28437 18.607407,23.795836 C 17.537033,23.285907 16.310643,22.172632 14.843196,22.383931 z"
       id="path2406"
       sodipodi:nodetypes="cccccccccccccccc" />
    <g
       id="g2904"
       transform="matrix(0.8784604,0.2353827,-0.2353827,0.8784604,8.6529221,10.485383)">
      <path
         id="path2779"
         d="M 31,0.5 C 30.438064,0.53030302 29.8842,0.547001 29.34375,0.625 L 29.125,3.71875 C 28.16536,3.9344947 27.275486,4.3022815 26.46875,4.8125 L 24.125,2.78125 C 22.999999,3.5000009 22.5,4 21.78125,5.125 L 23.8125,7.46875 C 23.302281,8.2754859 22.934495,9.1653595 22.71875,10.125 L 19.625,10.34375 C 19.547,10.8842 19.5,11.438062 19.5,12 C 19.499999,12.561939 19.547001,13.115801 19.625,13.65625 L 22.71875,13.875 C 22.934495,14.834641 23.302281,15.724514 23.8125,16.53125 L 21.78125,18.875 C 22.5,19.999999 23,20.5 24.125,21.21875 L 26.46875,19.1875 C 27.275486,19.697719 28.165359,20.065505 29.125,20.28125 L 29.34375,23.375 C 29.8842,23.452999 30.438063,23.5 31,23.5 C 31.561936,23.5 32.115801,23.452999 32.65625,23.375 L 32.875,20.28125 C 33.834641,20.065505 34.724514,19.697719 35.53125,19.1875 L 37.875,21.21875 C 39.000002,20.499999 39.5,20 40.21875,18.875 L 38.1875,16.53125 C 38.697719,15.724514 39.065505,14.834641 39.28125,13.875 L 42.375,13.65625 C 42.452999,13.115801 42.499999,12.561939 42.5,12 C 42.5,11.438063 42.452999,10.884199 42.375,10.34375 L 39.28125,10.125 C 39.065505,9.1653595 38.697719,8.2754859 38.1875,7.46875 L 40.21875,5.125 C 39.569261,4.0173152 39,3.5 37.875,2.78125 L 35.53125,4.8125 C 34.724514,4.3022815 33.834641,3.9344947 32.875,3.71875 L 32.65625,0.625 C 32.1158,0.54700102 31.561938,0.5 31,0.5 z M 31,9.5 C 32.380001,9.5000003 33.499999,10.619998 33.5,12 C 33.500001,13.380003 32.380003,14.5 31,14.5 C 29.619998,14.5 28.5,13.380003 28.5,12 C 28.5,10.619998 29.619998,9.5 31,9.5 z"
         style="fill:#373b41;fill-opacity:1;stroke:none;stroke-width:1.99999964;stroke-linecap:square;stroke-linejoin:miter;stroke-miterlimit:4;stroke-dasharray:none;stroke-opacity:1" />
    </g>
    <g
       id="g2924"
       transform="matrix(0.8784604,0.2353827,-0.2353827,0.8784604,-6.5803472,-3.6110755)">
      <path
         id="path2926"
         d="M 31,0.5 C 30.438064,0.53030302 29.8842,0.547001 29.34375,0.625 L 29.125,3.71875 C 28.16536,3.9344947 27.275486,4.3022815 26.46875,4.8125 L 24.125,2.78125 C 22.999999,3.5000009 22.5,4 21.78125,5.125 L 23.8125,7.46875 C 23.302281,8.2754859 22.934495,9.1653595 22.71875,10.125 L 19.625,10.34375 C 19.547,10.8842 19.5,11.438062 19.5,12 C 19.499999,12.561939 19.547001,13.115801 19.625,13.65625 L 22.71875,13.875 C 22.934495,14.834641 23.302281,15.724514 23.8125,16.53125 L 21.78125,18.875 C 22.5,19.999999 23,20.5 24.125,21.21875 L 26.46875,19.1875 C 27.275486,19.697719 28.165359,20.065505 29.125,20.28125 L 29.34375,23.375 C 29.8842,23.452999 30.438063,23.5 31,23.5 C 31.561936,23.5 32.115801,23.452999 32.65625,23.375 L 32.875,20.28125 C 33.834641,20.065505 34.724514,19.697719 35.53125,19.1875 L 37.875,21.21875 C 39.000002,20.499999 39.5,20 40.21875,18.875 L 38.1875,16.53125 C 38.697719,15.724514 39.065505,14.834641 39.28125,13.875 L 42.375,13.65625 C 42.452999,13.115801 42.499999,12.561939 42.5,12 C 42.5,11.438063 42.452999,10.884199 42.375,10.34375 L 39.28125,10.125 C 39.065505,9.1653595 38.697719,8.2754859 38.1875,7.46875 L 40.21875,5.125 C 39.569261,4.0173152 39,3.5 37.875,2.78125 L 35.53125,4.8125 C 34.724514,4.3022815 33.834641,3.9344947 32.875,3.71875 L 32.65625,0.625 C 32.1158,0.54700102 31.561938,0.5 31,0.5 z M 31,9.5 C 32.380001,9.5000003 33.499999,10.619998 33.5,12 C 33.500001,13.380003 32.380003,14.5 31,14.5 C 29.619998,14.5 28.5,13.380003 28.5,12 C 28.5,10.619998 29.619998,9.5 31,9.5 z"
         style="fill:#373b41;fill-opacity:1;stroke:none;stroke-width:1.99999964;stroke-linecap:square;stroke-linejoin:miter;stroke-miterlimit:4;stroke-dasharray:none;stroke-opacity:1" />
    </g>
    <path
       style="fill:#373b41;fill-opacity:1;stroke:none;stroke-width:2;stroke-linecap:round;stroke-linejoin:miter;stroke-miterlimit:4;stroke-dasharray:none;stroke-opacity:1"
       d="M 15.013718,26.959596 C 14.569546,26.976671 14.129729,27.044896 13.706385,27.130118 L 13.677964,27.130118 C 13.360148,27.195206 13.043357,27.285102 12.740095,27.385901 C 12.301433,27.531703 11.891835,27.711346 11.489603,27.925886 L 12.086428,30.767914 C 11.65331,31.088689 11.246034,31.463809 10.921197,31.904725 L 8.1075898,31.336319 C 7.8744093,31.776842 7.6612532,32.21699 7.5107638,32.700492 C 7.3017116,33.372149 7.16949,34.098707 7.1413002,34.832013 L 9.9264879,35.769882 C 9.9898184,36.308702 10.110172,36.843661 10.324371,37.332998 L 8.3917926,39.492939 C 8.6443361,39.894295 8.9281166,40.279291 9.2444014,40.62975 L 9.812806,41.169736 C 10.165874,41.492955 10.543932,41.792802 10.949617,42.050765 L 13.109559,40.118185 C 13.369194,40.233933 13.622083,40.326493 13.905327,40.402388 C 14.173355,40.474207 14.461849,40.542626 14.729514,40.57291 L 15.638964,43.329677 C 16.083135,43.312602 16.522952,43.244377 16.946296,43.159155 L 16.974717,43.159155 C 17.292533,43.094066 17.609324,43.004171 17.912586,42.903373 C 18.351248,42.75757 18.760846,42.577927 19.163078,42.363388 L 18.566253,39.52136 C 18.999372,39.200585 19.406648,38.825465 19.731484,38.384548 L 22.545091,38.952954 C 22.778272,38.51243 22.991428,38.072283 23.141918,37.588781 C 23.35097,36.917123 23.483191,36.190565 23.511381,35.457259 L 20.726194,34.51939 C 20.662862,33.980571 20.542509,33.445612 20.32831,32.956275 L 22.260889,30.796333 C 22.008345,30.394978 21.724564,30.009982 21.40828,29.659522 L 20.839874,29.119537 C 20.486808,28.796318 20.108749,28.49647 19.703063,28.238509 L 17.543123,30.171087 C 17.283486,30.055339 17.030598,29.962779 16.747354,29.886885 C 16.479326,29.815067 16.190833,29.746646 15.923166,29.716364 L 15.013718,26.959596 z M 15.127399,33.325738 C 15.230629,33.314215 15.334486,33.319421 15.440022,33.325738 C 15.560633,33.332959 15.688258,33.350096 15.809485,33.382579 C 16.779305,33.642439 17.348261,34.65796 17.088398,35.627782 C 16.828536,36.597606 15.813015,37.166555 14.843196,36.906693 C 13.873376,36.646834 13.304421,35.631315 13.564283,34.661492 C 13.763242,33.918972 14.404784,33.406401 15.127399,33.325738 z"
       id="path2978" />
  </g>
</svg>
